<svg xmlns="http://www.w3.org/2000/svg" xmlns:xlink="http://www.w3.org/1999/xlink" width="500" height="500" viewBox="0 0 500 500">
    <defs>
        <path id="1u53kzhvia" d="M0.537 0.554L10.887 0.554 10.887 5.015 0.537 5.015z"/>
    </defs>
    <g fill="none" fill-rule="evenodd">
        <path d="M0 0H500V500H0z"/>
        <g>
            <g>
                <path fill="#B5724F" d="M117.832 115.588c.557-.048 1.163-.122 1.555-.52.437-.447.458-1.143.448-1.767-.094-5.936-.462-11.867-1.103-17.77-6.906.332-13.804.842-20.685 1.529-.86 6.131-1.087 12.351-.675 18.53.035.52.142 1.141.62 1.349 1.072.464 2.817-.413 3.9-.618 1.595-.3 3.236-.17 4.856-.189 3.7-.046 7.398-.227 11.084-.544" transform="translate(54 114) translate(76.37 150.4)"/>
                <path fill="#ECD5A9" d="M109.68 96.163c-.347.009-.694.02-1.04.024-.159.078-.344.127-.56.13-.526.005-1.052.01-1.577.02-.631.371-.59.832-.623 2.016-.076 2.696-.082 5.393-.018 8.087 1.24.071 2.485.057 3.725-.045.113-.01.233-.022.325-.103.168-.149.174-.446.164-.699l-.397-9.43" transform="translate(54 114) translate(76.37 150.4)"/>
                <path fill="#B5724F" d="M119.407 92.747c.557-.048 1.163-.121 1.554-.52.438-.445.458-1.141.449-1.767-.095-5.935-.462-11.867-1.103-17.769-6.907.332-13.805.842-20.685 1.529-.861 6.131-1.088 12.351-.675 18.529.034.521.14 1.142.62 1.35 1.072.464 2.817-.413 3.9-.618 1.594-.3 3.236-.17 4.856-.19 3.7-.044 7.398-.226 11.084-.544" transform="translate(54 114) translate(76.37 150.4)"/>
                <path fill="#ECD5A9" d="M111.254 73.324c-.347.008-.693.019-1.039.022-.159.08-.344.129-.56.13-.527.006-1.053.011-1.577.021-.632.372-.59.832-.623 2.017-.076 2.695-.082 5.392-.018 8.086 1.24.071 2.484.056 3.725-.045.113-.009.232-.022.325-.103.168-.148.174-.446.164-.698l-.397-9.43z" transform="translate(54 114) translate(76.37 150.4)"/>
                <path fill="#B5724F" d="M91.223 115.588c.557-.048 1.163-.122 1.554-.52.438-.447.458-1.143.448-1.767-.093-5.936-.461-11.867-1.102-17.77-6.906.332-13.805.842-20.685 1.529-.861 6.131-1.087 12.351-.675 18.53.034.52.141 1.141.62 1.349 1.071.464 2.817-.413 3.9-.618 1.594-.3 3.236-.17 4.855-.189 3.7-.046 7.399-.227 11.085-.544" transform="translate(54 114) translate(76.37 150.4)"/>
                <path fill="#ECD5A9" d="M83.07 96.163c-.346.009-.693.02-1.04.024-.158.078-.343.127-.56.13-.526.005-1.051.01-1.576.02-.631.371-.59.832-.623 2.016-.076 2.696-.082 5.393-.018 8.087 1.24.071 2.485.057 3.725-.045.113-.01.232-.022.324-.103.169-.149.175-.446.164-.699l-.396-9.43" transform="translate(54 114) translate(76.37 150.4)"/>
                <path fill="#B5724F" d="M92.797 92.747c.557-.048 1.164-.121 1.555-.52.438-.445.458-1.141.448-1.767-.094-5.935-.462-11.867-1.102-17.769-6.907.332-13.805.842-20.685 1.529-.862 6.131-1.088 12.351-.676 18.529.035.521.142 1.142.62 1.35 1.072.464 2.818-.413 3.9-.618 1.595-.3 3.236-.17 4.856-.19 3.7-.044 7.399-.226 11.084-.544" transform="translate(54 114) translate(76.37 150.4)"/>
                <path fill="#ECD5A9" d="M84.644 73.324c-.346.008-.693.019-1.038.022-.16.08-.344.129-.56.13-.527.006-1.053.011-1.578.021-.631.372-.59.832-.622 2.017-.076 2.695-.082 5.392-.018 8.086 1.24.071 2.484.056 3.724-.045.113-.009.233-.022.325-.103.169-.148.174-.446.164-.698l-.397-9.43z" transform="translate(54 114) translate(76.37 150.4)"/>
                <path fill="#B5724F" d="M118.852 68.02c.556-.047 1.162-.12 1.554-.52.437-.445.457-1.14.448-1.766-.094-5.936-.462-11.867-1.103-17.77-6.906.332-13.804.842-20.685 1.53-.86 6.13-1.087 12.35-.675 18.529.035.52.142 1.142.62 1.35 1.072.464 2.817-.413 3.9-.618 1.595-.301 3.236-.17 4.856-.19 3.7-.045 7.398-.226 11.085-.544" transform="translate(54 114) translate(76.37 150.4)"/>
                <path fill="#ECD5A9" d="M110.698 48.597c-.346.008-.693.02-1.039.023-.159.08-.344.128-.56.13-.526.006-1.052.011-1.577.021-.631.371-.59.831-.623 2.016-.075 2.696-.082 5.392-.017 8.087 1.24.071 2.483.056 3.724-.045.113-.01.233-.023.325-.104.168-.148.174-.445.164-.698l-.397-9.43" transform="translate(54 114) translate(76.37 150.4)"/>
                <path fill="#FCAF13" d="M6.683 117.073L6.683 36.298 126.231 36.298 126.231 117.073 132.374 117.073 132.374 0.399 0.54 0.399 0.54 117.073z" transform="translate(54 114) translate(76.37 150.4)"/>
            </g>
            <g>
                <path fill="#A5BDC6" d="M26.504 206.75l5.357-.026c1.417-16.124 2.527-34.709 3.944-50.832-5.428-.577-10.866-.507-16.318-.27-1.81 12.162 3.238 26.448 4.862 38.636.56 4.197.757 8.495 2.155 12.492" transform="translate(54 114) translate(28.987 59.566)"/>
                <path fill="#F2F2F2" d="M23.462 120.812c.467-.179.98-.18 1.48-.18 2.108.002 2.719-.995 4.827-.994.84.001 1.71.007 2.481.342.881.381 3.031 2.15 3.534 2.966 1.415 2.297 1.84 5.07 1.91 7.765.226 8.721-2.948 17.392-1.809 26.041.023.178.046.374-.046.528-.144.241-.478.263-.758.258l-15.616-.318c-.177-.004-.367-.011-.512-.113-.158-.11-.228-.305-.285-.488-1.134-3.603-.927-7.491-.365-11.227.561-3.736 1.466-7.429 1.698-11.198.25-4.06-.213-8.434 1.912-11.903.38-.62.87-1.219 1.55-1.48" transform="translate(54 114) translate(28.987 59.566)"/>
                <path fill="#666" d="M1.092 119.186c-.662.263-.756 1.031-.184 1.47 4.054 3.11 7.883 6.222 11.497 9.335.466.4 1.021.832 1.645.756.407-.049.737-.306 1.042-.55l4.026-3.238c.392-.315.4-.891.015-1.24-3.503-3.166-7.383-6.182-11.629-9.015-.351-.235-.817-.253-1.161-.054-1.631.946-3.386 1.795-5.251 2.536" transform="translate(54 114) translate(28.987 59.566)"/>
                <path fill="#FFF" d="M3.513 119.938c-.456.186-.52.724-.124 1.03 2.818 2.184 5.507 4.39 8.07 6.617.332.289.728.6 1.175.553.291-.032.53-.211.748-.383l2.921-2.282c.288-.224.295-.638.015-.89-2.537-2.28-5.321-4.43-8.335-6.426-.249-.164-.576-.174-.818-.031-1.141.678-2.363 1.285-3.652 1.812" transform="translate(54 114) translate(28.987 59.566)"/>
                <path fill="#B0CED9" d="M11.943 121.375l-.611-.37c-.028-.017-.058-.035-.092-.038-.067-.008-.125.043-.174.09-.345.334-.848.606-1.194.94-.282.273-.357.352-.758.766.155.108.545.455.701.564.049-.13.167-.221.278-.305.406-.308 1.715-1.505 1.85-1.647M13.102 122.327l-.611-.369c-.028-.017-.058-.036-.092-.038-.067-.008-.125.042-.174.09-.345.333-.848.606-1.193.94-.282.272-.358.352-.759.765.155.109.545.455.701.564.05-.13.166-.22.279-.305.405-.307 1.714-1.505 1.85-1.647M14.249 123.288l-.611-.37c-.028-.017-.058-.035-.092-.038-.067-.008-.125.043-.174.09-.345.334-.848.606-1.193.94-.283.272-.186.189-.587.602.156.109.546.456.701.564.05-.13-.005-.058.106-.141.406-.308 1.715-1.505 1.85-1.647M15.54 124.177l-.612-.37c-.028-.018-.058-.035-.092-.039-.067-.008-.125.043-.174.09-.345.334-.848.606-1.193.94-.282.273-.935.992-1.336 1.405.156.109.546.456.701.564.05-.13.744-.86.856-.944.405-.307 1.714-1.505 1.85-1.646" transform="translate(54 114) translate(28.987 59.566)"/>
                <path fill="#666" d="M5.94 114.375c-.586-.495-1.192-.976-1.695-1.558-.233-.268.154-.643.402-.38.527.557 1.006 1.153 1.565 1.68.18.168-.091.41-.272.258M6.995 113.746c0-.635.1-1.24.353-1.825.14-.326.672-.192.545.16-.204.562-.378 1.137-.479 1.727-.04.246-.42.171-.42-.062M8.177 114.325c.355-.74.936-1.428 1.45-2.065.22-.274.692-.01.478.295-.48.686-.995 1.457-1.625 2.016-.175.157-.398-.05-.303-.246" transform="translate(54 114) translate(28.987 59.566)"/>
                <path fill="#F6D6BE" d="M28.71 133.724c-.682-.421-1.405-.773-2.157-1.047-.096-.036-.204-.069-.297-.027-.098.044-.143.157-.178.26-.574 1.672-.98 3.401-1.22 5.152-1.184-1.073-2.458-2.052-3.738-3.013-3.207-2.41-6.473-4.744-9.791-7-.555-.377-1.139-.763-1.805-.853-.665-.09-1.435.213-1.655.847 4.836 5.948 10.775 10.994 17.425 14.809.487.278.691.342 1.056.74.136.15.379.155.558.063.18-.092.306-.258.419-.426.861-1.29 1.126-2.877 1.37-4.41.163-1.03.31-1.999.735-2.957.12-.28.27-.562.266-.867-.006-.561-.511-.977-.988-1.271" transform="translate(54 114) translate(28.987 59.566)"/>
                <g transform="translate(54 114) translate(28.987 59.566) translate(21.74 205.63)">
                    <mask id="ep8mkniu1b" fill="#fff">
                        <use xlink:href="#1u53kzhvia"/>
                    </mask>
                    <path fill="#292C47" d="M10.268.614C8.743.491 7.204.556 5.695.807c-1.163.865-2.437 1.581-3.781 2.124-.391.158-.802.311-1.09.618-.288.307-.405.823-.136 1.147.236.283.652.313 1.02.317 2.817.03 5.637-.21 8.41-.715.166-.03.342-.067.463-.186.095-.095.14-.229.175-.359.284-1.053.101-2.222-.488-3.139" mask="url(#ep8mkniu1b)"/>
                </g>
                <path fill="#FFEADF" d="M20.034 112.76c.286 1.827.682 3.775 2.007 5.067.963.939 2.365 1.408 3.7 1.238 1.334-.17 2.574-.975 3.272-2.126.33-.545.54-1.154.72-1.766.592-2.01.88-4.11.848-6.206-.01-.734-.083-1.526-.566-2.079-.496-.569-1.297-.739-2.04-.877-1.52-.284-3.074-.569-4.606-.354-1.287.18-3.03.887-3.656 2.134-.655 1.301.1 3.55.321 4.969" transform="translate(54 114) translate(28.987 59.566)"/>
                <path fill="#2F302F" d="M31.115 115.543c.188-.188.375-.38.562-.57.646-1.616 1.145-3.236 1.082-5.09-.07-2.097-.16-4.475-1.173-6.379-.663-.492-1.373-.934-2.07-1.399-2.02-.262-4.078-.223-6.084.13-1.306.228-2.625.604-3.677 1.412-1.052.808-1.793 2.121-1.618 3.436.026.19.072.385.185.54.163.223.439.334.709.393 1.179.262 2.308-.242 3.428-.53.9-.23 1.466-.12 2.293.244.922.406 2.009.52 2.833 1.118.764.554 1.29 1.41 1.553 2.307.35 1.194.285 2.47.107 3.702.318.205.446.618.414.995-.033.375-.2.725-.363 1.064.716-.273 1.278-.83 1.82-1.373" transform="translate(54 114) translate(28.987 59.566)"/>
                <path fill="#2F302F" d="M22.662 114.662c.225.058.449.142.631.286.31.246.465.637.548 1.023.084.386.11.785.223 1.163.06.198.152.398.323.515.165.112.376.127.576.136.422.02.855.028 1.255-.11.561-.194.985-.65 1.385-1.09l1.62-1.784c.04-.045.09-.093.149-.089.046.003.084.037.114.072.21.24.74.783.688 1.098-.146.867-1.408 1.293-2.205 1.665-.796.371-1.672.588-2.393 1.091-.374.261-.696.593-1.078.843-.446.292-.97.464-1.504.494-.374.022-.775-.036-1.058-.281-.16-.138-.268-.323-.375-.505l-.298-.51c-.176-.302-.356-.67-.206-.986.104-.216.337-.338.566-.41.228-.07.471-.104.683-.216.344-.18.568-.563.557-.95-.003-.109-.025-.222-.097-.304-.107-.122-.29-.139-.452-.146-.339-.015-.7-.026-.994.143-.142.081-.268.204-.43.234-.175.034-.359-.055-.473-.192-.168-.203-.275-.602-.169-.855.092-.218.227-.212.436-.263.666-.163 1.302-.247 1.978-.072" transform="translate(54 114) translate(28.987 59.566)"/>
                <path fill="#070707" d="M5.968 122.344c-.02.098.042.194.14.215l.464.099c.097.02.193-.043.214-.14l.093-.442c.021-.098-.04-.194-.139-.214l-.464-.099c-.098-.02-.194.042-.214.14l-.094.441zM9.102 120.957c.056.083.168.104.25.049l.394-.266c.083-.056.105-.168.048-.25l-.252-.375c-.056-.083-.169-.105-.251-.049l-.393.266c-.083.056-.105.168-.05.25l.254.375z" transform="translate(54 114) translate(28.987 59.566)"/>
                <path fill="#029FBB" d="M6.02 121.944c-.22-.356.18-.338-.029-.493-.208-.155-.554-.276-.467-.43.087-.154.15-.306.3-.23.11.054-.23-.336.049-.835.05-.09.229-.12.322-.218.102-.107.155-.238.324-.352 0 0-.433.293 0 0l.83-.56c.532.021 1.03.517 1.03.517s.529-.167.923.417l.404.598-1.703 1.151-1.068.721s-.695.07-.915-.286" transform="translate(54 114) translate(28.987 59.566)"/>
                <path fill="#029FBB" d="M8.213 119.37c.056.083.169.105.25.05l.248-.167c.082-.057.104-.169.048-.251l-.033-.05c-.056-.083-.168-.104-.251-.049l-.247.167c-.082.056-.104.168-.048.25l.033.05z" transform="translate(54 114) translate(28.987 59.566)"/>
                <path fill="#FFF" d="M6.676 121.321c.258-.199.47-.45.61-.544l1.1-.742c-.054-.128-.012-.28.108-.361.136-.092.321-.056.413.08.092.136.056.32-.08.413-.12.08-.277.063-.375-.035l-1.094.738c-.104.07-.337.399-.617.548-.09.01-.058-.076-.065-.097" transform="translate(54 114) translate(28.987 59.566)"/>
                <path fill="#FFF" d="M6.212 121.645c.03.083.206.056.38-.008.175-.065.292-.184.261-.267-.03-.083-.158-.142-.332-.078-.175.065-.34.27-.31.353M5.926 120.568c-.024-.244.01-.53.15-.578.233-.08.299-.225.527-.411.229-.186.743-.502.821-.555.41.129.759.438.759.438s-.733.42-.995.68c-.262.263-.65-.04-1.111.742-.066-.034-.138-.183-.15-.316M8.478 120.885c.01.015.03.02.045.01s.02-.031.01-.046l-.206-.305c-.01-.015-.031-.019-.046-.009-.015.011-.02.031-.01.046l.207.304zM8.363 120.963c.01.015.03.02.045.01s.02-.032.01-.047l-.206-.304c-.01-.015-.031-.019-.047-.009-.015.01-.019.03-.008.046l.206.304zM8.247 121.041c.01.015.031.019.046.009s.019-.03.009-.046l-.206-.304c-.01-.016-.03-.019-.046-.009-.015.01-.019.03-.008.046l.205.304zM8.132 121.119c.01.015.031.019.046.009s.02-.03.01-.046l-.207-.304c-.01-.016-.03-.02-.046-.01-.015.01-.019.032-.008.047l.205.304zM8.017 121.197c.01.014.03.019.046.009.015-.011.019-.031.009-.046l-.206-.304c-.01-.016-.03-.02-.046-.01-.015.01-.02.031-.009.046l.206.305zM7.86 121.257c.013.013.034.015.048.003.013-.013.014-.034.002-.047l-.243-.275c-.012-.014-.032-.015-.046-.003-.014.012-.015.032-.003.046l.243.276zM7.74 121.338c.012.014.033.015.047.003.013-.012.014-.033.002-.046l-.245-.274c-.013-.014-.033-.015-.047-.003-.013.013-.015.033-.002.047l.245.273zM7.663 121.473c.014.011.034.01.046-.004.012-.013.012-.034-.002-.046l-.276-.243c-.013-.012-.034-.011-.046.002-.012.014-.011.035.003.047l.275.244zM7.516 121.525c.014.012.035.012.046-.002.013-.014.012-.035-.002-.047l-.276-.243c-.013-.012-.035-.01-.047.003-.011.014-.01.035.004.046l.275.243zM7.47 121.657c.014.01.035.007.045-.008.01-.015.007-.035-.008-.046l-.302-.21c-.015-.01-.035-.006-.046.008-.01.015-.006.036.009.047l.301.209z" transform="translate(54 114) translate(28.987 59.566)"/>
                <path fill="#B5724F" d="M349.235 115.226c.556-.048 1.163-.122 1.554-.52.438-.446.458-1.143.448-1.767-.094-5.936-.462-11.867-1.102-17.77-6.907.332-13.805.842-20.685 1.529-.862 6.131-1.088 12.351-.676 18.53.035.52.141 1.141.62 1.349 1.072.464 2.818-.413 3.9-.617 1.595-.301 3.236-.17 4.856-.19 3.7-.046 7.399-.227 11.085-.544" transform="translate(54 114) translate(28.987 59.566)"/>
                <path fill="#ECD5A9" d="M341.081 95.801c-.346.009-.692.02-1.038.024-.16.078-.344.127-.56.13-.527.005-1.053.01-1.578.02-.63.371-.59.832-.622 2.016-.076 2.696-.082 5.393-.018 8.087 1.24.072 2.484.057 3.724-.045.113-.01.233-.022.325-.103.169-.149.175-.446.164-.698l-.397-9.43" transform="translate(54 114) translate(28.987 59.566)"/>
                <path fill="#B5724F" d="M350.81 92.385c.556-.047 1.162-.121 1.553-.52.438-.445.459-1.141.449-1.767-.094-5.935-.462-11.867-1.103-17.769-6.906.332-13.805.842-20.685 1.529-.86 6.131-1.087 12.352-.675 18.53.035.52.141 1.141.62 1.35 1.072.464 2.817-.414 3.9-.619 1.595-.3 3.236-.17 4.855-.189 3.7-.045 7.399-.227 11.085-.545" transform="translate(54 114) translate(28.987 59.566)"/>
                <path fill="#ECD5A9" d="M342.656 72.962c-.346.008-.693.02-1.039.023-.159.079-.344.128-.56.13-.526.006-1.052.011-1.577.02-.631.372-.59.832-.623 2.017-.075 2.695-.082 5.392-.018 8.086 1.24.072 2.485.056 3.725-.045.113-.009.233-.022.325-.103.168-.148.174-.446.164-.698l-.397-9.43z" transform="translate(54 114) translate(28.987 59.566)"/>
                <path fill="#B5724F" d="M322.626 115.226c.556-.048 1.162-.122 1.554-.52.437-.446.457-1.143.448-1.767-.094-5.936-.462-11.867-1.103-17.77-6.906.332-13.804.842-20.685 1.529-.861 6.131-1.087 12.351-.675 18.53.035.52.141 1.141.62 1.349 1.072.464 2.817-.413 3.9-.617 1.595-.301 3.236-.17 4.856-.19 3.7-.046 7.398-.227 11.085-.544" transform="translate(54 114) translate(28.987 59.566)"/>
                <path fill="#ECD5A9" d="M314.472 95.801c-.346.009-.693.02-1.039.024-.159.078-.344.127-.56.13-.527.005-1.052.01-1.577.02-.631.371-.59.832-.623 2.016-.075 2.696-.082 5.393-.017 8.087 1.24.072 2.484.057 3.724-.045.113-.01.232-.022.325-.103.168-.149.174-.446.164-.698l-.397-9.43" transform="translate(54 114) translate(28.987 59.566)"/>
                <path fill="#B5724F" d="M324.2 92.385c.557-.047 1.163-.121 1.554-.52.438-.445.458-1.141.448-1.767-.093-5.935-.461-11.867-1.102-17.769-6.907.332-13.805.842-20.686 1.529-.86 6.131-1.087 12.352-.674 18.53.035.52.141 1.141.62 1.35 1.072.464 2.817-.414 3.9-.619 1.595-.3 3.236-.17 4.855-.189 3.7-.045 7.399-.227 11.085-.545" transform="translate(54 114) translate(28.987 59.566)"/>
                <path fill="#ECD5A9" d="M316.047 72.962c-.346.008-.693.02-1.04.023-.158.079-.343.128-.56.13-.526.006-1.052.011-1.577.02-.63.372-.589.832-.622 2.017-.076 2.695-.082 5.392-.018 8.086 1.24.072 2.484.056 3.725-.045.112-.009.232-.022.325-.103.168-.148.174-.446.164-.698l-.397-9.43z" transform="translate(54 114) translate(28.987 59.566)"/>
                <path fill="#B5724F" d="M350.254 67.659c.556-.048 1.163-.122 1.554-.52.438-.446.458-1.142.448-1.767-.094-5.935-.462-11.867-1.102-17.769-6.907.332-13.805.842-20.685 1.529-.862 6.13-1.088 12.351-.675 18.529.034.52.14 1.142.62 1.35 1.071.464 2.817-.413 3.9-.618 1.594-.3 3.235-.17 4.855-.19 3.7-.045 7.399-.226 11.085-.544" transform="translate(54 114) translate(28.987 59.566)"/>
                <path fill="#ECD5A9" d="M342.1 48.235c-.346.009-.693.02-1.038.023-.16.08-.344.128-.56.13-.527.006-1.053.012-1.578.021-.631.371-.59.832-.622 2.016-.076 2.696-.082 5.393-.018 8.087 1.24.071 2.484.056 3.724-.045.113-.01.233-.023.325-.103.169-.149.174-.446.164-.699l-.397-9.43z" transform="translate(54 114) translate(28.987 59.566)"/>
                <path fill="#FCAF13" d="M238.086 116.711L238.086 35.936 357.633 35.936 357.633 116.711 363.776 116.711 363.776 0.037 231.943 0.037 231.943 116.711z" transform="translate(54 114) translate(28.987 59.566)"/>
            </g>
            <g>
                <path fill="#A5BDC6" d="M192.128 174.624l5.357-.026c1.416-16.123 2.527-34.709 3.943-50.832-5.427-.577-10.866-.507-16.318-.27-1.81 12.162 3.239 26.448 4.863 38.636.559 4.197.756 8.495 2.155 12.492" transform="translate(54 114) translate(47.383 .496)"/>
                <path fill="#F2F2F2" d="M189.085 88.686c.468-.179.982-.18 1.481-.18 2.108.002 2.719-.995 4.826-.993.841 0 1.71.006 2.482.34.88.382 3.031 2.15 3.534 2.967 1.415 2.297 1.84 5.07 1.91 7.765.226 8.721-2.949 17.392-1.81 26.041.024.178.046.374-.046.528-.143.241-.477.263-.758.258l-15.615-.318c-.178-.004-.367-.011-.513-.113-.157-.11-.227-.305-.285-.488-1.133-3.603-.926-7.491-.365-11.227.562-3.736 1.467-7.429 1.699-11.198.25-4.06-.214-8.434 1.911-11.903.38-.62.87-1.219 1.55-1.48" transform="translate(54 114) translate(47.383 .496)"/>
                <path fill="#666" d="M166.716 87.06c-.663.263-.756 1.031-.185 1.47 4.055 3.11 7.884 6.222 11.498 9.336.466.4 1.02.831 1.645.755.406-.049.737-.306 1.041-.55l4.027-3.238c.391-.315.4-.891.015-1.24-3.503-3.166-7.383-6.182-11.63-9.015-.351-.235-.817-.253-1.16-.054-1.632.946-3.387 1.795-5.251 2.536" transform="translate(54 114) translate(47.383 .496)"/>
                <path fill="#FFF" d="M169.136 87.812c-.455.187-.518.724-.124 1.03 2.819 2.184 5.507 4.39 8.07 6.618.333.288.729.599 1.176.551.29-.03.529-.21.748-.382l2.921-2.282c.287-.224.295-.638.014-.89-2.537-2.28-5.32-4.43-8.334-6.426-.249-.165-.577-.175-.818-.03-1.142.677-2.364 1.284-3.653 1.81" transform="translate(54 114) translate(47.383 .496)"/>
                <path fill="#B0CED9" d="M177.566 89.25l-.61-.37c-.029-.018-.059-.036-.093-.039-.066-.008-.125.043-.173.09-.346.334-.849.606-1.194.94-.282.273-.357.352-.759.766.156.108.546.455.702.564.049-.13.166-.221.278-.305.406-.307 1.714-1.505 1.85-1.647M178.725 90.202l-.61-.37c-.029-.017-.059-.035-.093-.038-.066-.008-.124.043-.174.09-.345.334-.847.606-1.193.94-.282.272-.357.352-.758.765.155.109.545.456.701.564.049-.13.166-.22.278-.305.406-.307 1.714-1.505 1.85-1.646M179.872 91.162l-.61-.37c-.029-.017-.059-.035-.093-.038-.066-.008-.125.043-.173.09-.346.334-.849.606-1.194.94-.282.272-.185.189-.586.602.155.109.546.456.7.564.05-.13-.005-.058.107-.141.406-.308 1.714-1.505 1.85-1.647M181.163 92.05l-.611-.37c-.029-.016-.058-.034-.092-.038-.067-.008-.125.044-.174.09-.345.334-.848.606-1.194.94-.282.273-.935.992-1.335 1.406.155.108.545.455.7.563.05-.13.744-.86.856-.944.406-.307 1.714-1.505 1.85-1.646" transform="translate(54 114) translate(47.383 .496)"/>
                <path fill="#666" d="M171.564 82.25c-.586-.495-1.193-.977-1.696-1.558-.232-.27.155-.644.403-.382.527.558 1.005 1.154 1.564 1.681.18.168-.09.41-.271.258M172.618 81.62c0-.635.1-1.24.353-1.825.141-.326.673-.192.546.16-.204.562-.378 1.137-.479 1.727-.042.246-.42.171-.42-.062M173.8 82.199c.356-.74.936-1.428 1.45-2.065.22-.274.693-.01.48.295-.482.686-.997 1.457-1.626 2.016-.175.157-.398-.05-.304-.246" transform="translate(54 114) translate(47.383 .496)"/>
                <path fill="#F6D6BE" d="M194.333 101.598c-.68-.421-1.404-.772-2.156-1.047-.096-.035-.204-.069-.298-.027-.098.045-.142.157-.178.26-.574 1.672-.98 3.401-1.22 5.153-1.183-1.074-2.457-2.053-3.737-3.014-3.208-2.41-6.473-4.744-9.791-7-.556-.377-1.14-.763-1.805-.853-.665-.09-1.435.213-1.655.848 4.835 5.947 10.774 10.994 17.425 14.808.486.279.691.342 1.056.74.135.15.378.155.558.063.179-.092.306-.258.418-.425.862-1.292 1.126-2.878 1.37-4.41.164-1.032.31-2 .736-2.958.12-.28.269-.562.265-.867-.005-.561-.511-.977-.988-1.271" transform="translate(54 114) translate(47.383 .496)"/>
                <path fill="#292C47" d="M197.631 174.119c-1.524-.123-3.064-.058-4.572.193-1.163.865-2.437 1.581-3.781 2.124-.391.158-.802.31-1.09.618-.288.306-.405.823-.136 1.146.236.283.652.314 1.02.318 2.817.03 5.638-.21 8.41-.715.165-.03.343-.067.462-.186.096-.095.14-.23.177-.36.283-1.052.1-2.22-.49-3.138" transform="translate(54 114) translate(47.383 .496)"/>
                <path fill="#FFEADF" d="M185.657 80.634c.286 1.827.682 3.775 2.007 5.067.964.939 2.366 1.408 3.7 1.238 1.335-.17 2.574-.975 3.272-2.125.33-.546.541-1.154.721-1.766.592-2.01.88-4.112.848-6.207-.011-.734-.084-1.526-.566-2.078-.496-.57-1.297-.74-2.04-.878-1.52-.284-3.074-.569-4.606-.354-1.287.18-3.03.887-3.657 2.134-.655 1.302.1 3.55.321 4.969" transform="translate(54 114) translate(47.383 .496)"/>
                <path fill="#2F302F" d="M196.739 83.417c.188-.188.375-.379.56-.57.648-1.616 1.146-3.236 1.083-5.09-.07-2.097-.159-4.474-1.173-6.379-.662-.492-1.372-.934-2.07-1.399-2.019-.262-4.078-.223-6.083.13-1.306.229-2.625.605-3.678 1.412-1.052.808-1.793 2.122-1.617 3.436.026.19.072.385.185.54.163.223.439.334.709.394 1.178.26 2.307-.243 3.428-.53.9-.231 1.465-.12 2.293.243.922.406 2.008.52 2.833 1.118.763.554 1.29 1.41 1.553 2.307.35 1.194.285 2.47.107 3.702.317.205.446.618.413.995-.033.375-.199.725-.362 1.065.715-.274 1.278-.83 1.819-1.374" transform="translate(54 114) translate(47.383 .496)"/>
                <path fill="#2F302F" d="M188.286 82.536c.224.058.449.142.63.286.31.246.466.637.549 1.023.083.386.108.785.223 1.163.06.198.151.398.323.515.165.112.376.127.575.136.422.02.856.028 1.256-.11.561-.194.985-.65 1.384-1.09l1.62-1.784c.041-.045.09-.093.15-.088.045.002.083.036.114.071.21.24.74.783.687 1.098-.145.867-1.408 1.294-2.204 1.665-.796.371-1.673.588-2.393 1.091-.374.261-.696.593-1.078.843-.447.292-.971.464-1.504.494-.374.022-.775-.036-1.059-.281-.159-.138-.268-.323-.375-.505l-.297-.51c-.177-.302-.357-.67-.206-.986.103-.215.336-.338.565-.41.23-.07.472-.104.684-.215.343-.18.568-.564.557-.952-.003-.108-.026-.221-.097-.303-.108-.122-.29-.139-.452-.146-.339-.015-.7-.026-.995.143-.142.081-.268.204-.43.234-.174.034-.358-.055-.472-.192-.168-.203-.275-.602-.169-.855.09-.218.226-.212.435-.263.666-.163 1.303-.246 1.979-.072" transform="translate(54 114) translate(47.383 .496)"/>
                <path fill="#070707" d="M171.592 90.218c-.02.098.041.194.14.215l.463.099c.098.02.194-.043.215-.14l.093-.442c.02-.097-.042-.194-.14-.214l-.464-.099c-.097-.02-.193.042-.214.14l-.093.441zM174.726 88.831c.056.083.168.104.25.049l.394-.266c.083-.055.104-.168.048-.25l-.253-.375c-.056-.083-.168-.104-.25-.049l-.394.266c-.083.056-.105.168-.048.25l.253.375z" transform="translate(54 114) translate(47.383 .496)"/>
                <path fill="#029FBB" d="M171.644 89.818c-.22-.356.179-.338-.03-.493-.207-.155-.554-.276-.467-.43.087-.154.15-.306.301-.23.11.054-.23-.336.048-.835.05-.09.229-.12.323-.218.102-.107.155-.238.323-.352 0 0-.433.293 0 0l.83-.56c.533.021 1.03.517 1.03.517s.53-.167.924.417l.404.598-1.704 1.151-1.067.721s-.695.07-.915-.286" transform="translate(54 114) translate(47.383 .496)"/>
                <path fill="#029FBB" d="M173.837 87.245c.056.082.168.104.25.048l.248-.166c.082-.056.104-.169.048-.251l-.034-.05c-.056-.083-.168-.104-.25-.049l-.248.167c-.082.056-.103.168-.048.25l.034.05z" transform="translate(54 114) translate(47.383 .496)"/>
                <path fill="#FFF" d="M172.3 89.195c.258-.199.47-.45.61-.543l1.1-.743c-.054-.128-.012-.28.108-.361.136-.092.32-.056.412.08.092.136.057.321-.08.413-.119.08-.276.063-.375-.035l-1.094.738c-.104.07-.336.4-.616.548-.091.01-.059-.076-.065-.097" transform="translate(54 114) translate(47.383 .496)"/>
                <path fill="#FFF" d="M171.836 89.519c.03.083.205.056.38-.008.174-.064.291-.184.26-.267-.03-.083-.157-.142-.332-.077-.175.064-.339.27-.308.352M171.55 88.442c-.025-.244.01-.53.149-.578.233-.08.299-.225.528-.411.228-.186.742-.502.82-.555.41.129.759.438.759.438s-.733.42-.995.68c-.262.263-.65-.04-1.11.742-.067-.034-.138-.183-.151-.316M174.101 88.76c.01.014.031.018.046.009.015-.01.019-.031.009-.046l-.206-.305c-.01-.015-.03-.019-.046-.009-.015.011-.019.031-.008.046l.205.304zM173.986 88.837c.01.015.031.02.046.01s.019-.032.01-.047l-.207-.304c-.01-.015-.03-.019-.046-.009-.015.01-.019.03-.009.046l.206.304zM173.871 88.915c.01.015.03.019.046.009.014-.01.019-.03.009-.046l-.206-.304c-.01-.016-.03-.019-.046-.009-.015.01-.02.03-.009.046l.206.304zM173.756 88.993c.01.015.03.019.045.009s.02-.03.01-.046l-.206-.304c-.01-.016-.031-.02-.046-.01s-.02.032-.009.047l.206.304zM173.64 89.07c.01.016.031.02.047.01.014-.011.018-.031.008-.046l-.205-.304c-.01-.016-.03-.02-.047-.01-.015.01-.018.031-.008.046l.206.305zM173.485 89.13c.011.014.032.016.046.004.014-.012.015-.034.003-.047l-.243-.275c-.012-.014-.033-.015-.047-.003-.013.012-.015.032-.003.046l.244.276zM173.364 89.213c.011.013.033.014.046.002.013-.012.014-.033.003-.046l-.246-.274c-.012-.014-.032-.015-.046-.002-.014.012-.015.032-.003.046l.246.274zM173.286 89.347c.014.011.035.01.047-.003.012-.014.01-.035-.003-.047l-.275-.243c-.013-.012-.034-.011-.047.002-.012.014-.01.035.004.047l.274.244zM173.14 89.4c.013.011.035.01.046-.003.012-.014.011-.034-.003-.047l-.275-.243c-.014-.012-.035-.01-.047.003-.011.014-.01.035.003.046l.276.243zM173.093 89.531c.015.01.035.007.046-.008.01-.015.007-.035-.008-.046l-.302-.21c-.015-.01-.036-.006-.046.009-.01.014-.006.035.008.046l.302.21z" transform="translate(54 114) translate(47.383 .496)"/>
                <path fill="#B5724F" d="M117.301 115.25c.557-.048 1.163-.121 1.554-.52.438-.446.459-1.142.448-1.767-.093-5.936-.461-11.867-1.102-17.769-6.906.331-13.805.842-20.685 1.528-.861 6.132-1.087 12.352-.675 18.53.035.52.141 1.142.62 1.35 1.072.464 2.817-.413 3.9-.618 1.595-.3 3.236-.17 4.855-.19 3.7-.045 7.399-.226 11.085-.544" transform="translate(54 114) translate(47.383 .496)"/>
                <path fill="#ECD5A9" d="M109.148 95.826c-.346.008-.693.02-1.04.023-.158.079-.343.128-.56.13-.526.006-1.051.011-1.576.02-.631.372-.59.833-.623 2.017-.075 2.696-.082 5.393-.018 8.086 1.24.072 2.485.057 3.725-.045.113-.009.232-.021.325-.103.168-.148.174-.446.163-.698-.131-3.144-.264-6.287-.396-9.43" transform="translate(54 114) translate(47.383 .496)"/>
                <path fill="#B5724F" d="M118.876 92.41c.556-.048 1.163-.122 1.554-.52.438-.446.458-1.142.448-1.767-.094-5.936-.462-11.867-1.102-17.77-6.907.333-13.805.843-20.685 1.53-.862 6.131-1.088 12.351-.675 18.529.034.52.14 1.142.62 1.35 1.071.464 2.817-.413 3.9-.618 1.594-.3 3.235-.17 4.855-.19 3.7-.045 7.399-.226 11.085-.544" transform="translate(54 114) translate(47.383 .496)"/>
                <path fill="#ECD5A9" d="M110.722 72.986c-.346.009-.693.02-1.038.024-.16.078-.344.127-.56.13-.527.005-1.053.01-1.578.02-.63.371-.59.831-.622 2.016-.076 2.696-.082 5.393-.018 8.087 1.24.071 2.484.057 3.724-.045.113-.01.233-.023.325-.104.169-.148.174-.445.164-.698l-.397-9.43z" transform="translate(54 114) translate(47.383 .496)"/>
                <path fill="#B5724F" d="M90.692 115.25c.557-.048 1.163-.121 1.554-.52.438-.446.458-1.142.448-1.767-.094-5.936-.461-11.867-1.103-17.769-6.906.331-13.804.842-20.685 1.528-.86 6.132-1.087 12.352-.674 18.53.034.52.14 1.142.62 1.35 1.072.464 2.816-.413 3.9-.618 1.594-.3 3.236-.17 4.855-.19 3.7-.045 7.398-.226 11.085-.544" transform="translate(54 114) translate(47.383 .496)"/>
                <path fill="#ECD5A9" d="M82.539 95.826c-.347.008-.693.02-1.04.023-.158.079-.343.128-.56.13-.526.006-1.052.011-1.577.02-.63.372-.589.833-.622 2.017-.076 2.696-.082 5.393-.018 8.086 1.24.072 2.484.057 3.725-.045.112-.009.232-.021.325-.103.167-.148.174-.446.163-.698l-.396-9.43" transform="translate(54 114) translate(47.383 .496)"/>
                <path fill="#B5724F" d="M92.267 92.41c.556-.048 1.162-.122 1.554-.52.437-.446.457-1.142.448-1.767-.094-5.936-.462-11.867-1.103-17.77-6.906.333-13.804.843-20.685 1.53-.861 6.131-1.087 12.351-.675 18.529.035.52.141 1.142.62 1.35 1.072.464 2.817-.413 3.9-.618 1.595-.3 3.236-.17 4.856-.19 3.7-.045 7.398-.226 11.085-.544" transform="translate(54 114) translate(47.383 .496)"/>
                <path fill="#ECD5A9" d="M84.113 72.986c-.346.009-.693.02-1.039.024-.158.078-.344.127-.56.13-.527.005-1.052.01-1.577.02-.631.371-.59.831-.623 2.016-.075 2.696-.081 5.393-.017 8.087 1.24.071 2.484.057 3.724-.045.113-.01.232-.023.325-.104.168-.148.174-.445.164-.698l-.397-9.43z" transform="translate(54 114) translate(47.383 .496)"/>
                <path fill="#B5724F" d="M118.32 67.683c.557-.047 1.163-.121 1.554-.52.438-.445.458-1.141.449-1.767-.094-5.935-.462-11.867-1.103-17.769-6.906.332-13.805.843-20.685 1.53-.861 6.13-1.087 12.35-.675 18.528.034.521.141 1.143.62 1.35 1.072.465 2.817-.413 3.9-.618 1.594-.3 3.236-.17 4.855-.189 3.7-.045 7.399-.227 11.085-.545" transform="translate(54 114) translate(47.383 .496)"/>
                <path fill="#ECD5A9" d="M110.167 48.26c-.346.008-.693.02-1.04.023-.158.079-.343.128-.56.13-.526.006-1.051.011-1.576.02-.631.372-.59.832-.623 2.017-.076 2.695-.082 5.392-.018 8.086 1.24.072 2.485.057 3.725-.045.113-.009.232-.022.324-.103.169-.148.175-.446.164-.698-.131-3.144-.264-6.287-.396-9.43" transform="translate(54 114) translate(47.383 .496)"/>
                <path fill="#FCAF13" d="M6.152 116.735L6.152 35.961 125.699 35.961 125.699 116.735 131.842 116.735 131.842 0.061 0.01 0.061 0.01 116.735z" transform="translate(54 114) translate(47.383 .496)"/>
            </g>
            <g>
                <path fill="#A5BDC6" d="M25.973 104.99l5.357-.025c1.416-16.124 2.527-34.71 3.943-50.833-5.427-.576-10.865-.507-16.318-.27-1.809 12.162 3.239 26.449 4.863 38.636.56 4.197.756 8.495 2.155 12.492" transform="translate(54 114) translate(0 11.084)"/>
                <path fill="#F2F2F2" d="M22.931 19.052c.467-.179.98-.18 1.48-.18 2.108.002 2.719-.995 4.826-.993.841 0 1.71.006 2.482.341.88.381 3.031 2.15 3.534 2.967 1.415 2.297 1.84 5.068 1.91 7.765.226 8.72-2.949 17.391-1.81 26.04.024.179.046.374-.046.529-.143.24-.477.263-.758.257l-15.615-.318c-.177-.004-.367-.011-.513-.113-.157-.11-.227-.304-.285-.488-1.133-3.603-.926-7.491-.364-11.227.561-3.735 1.466-7.428 1.698-11.198.25-4.06-.214-8.434 1.912-11.902.38-.62.87-1.22 1.549-1.48" transform="translate(54 114) translate(0 11.084)"/>
                <path fill="#666" d="M.56 17.427c-.661.263-.755 1.03-.183 1.47 4.053 3.11 7.883 6.222 11.497 9.335.466.4 1.02.832 1.645.756.406-.05.737-.306 1.042-.551l4.026-3.238c.392-.314.4-.89.015-1.239-3.503-3.167-7.383-6.182-11.629-9.015-.352-.235-.818-.253-1.162-.054-1.63.945-3.386 1.795-5.25 2.536" transform="translate(54 114) translate(0 11.084)"/>
                <path fill="#FFF" d="M2.982 18.178c-.456.187-.52.725-.124 1.03 2.818 2.185 5.507 4.39 8.07 6.618.332.288.728.6 1.175.552.291-.031.53-.21.748-.382l2.921-2.283c.287-.224.295-.638.015-.89-2.537-2.28-5.322-4.429-8.335-6.426-.249-.164-.577-.174-.818-.03-1.142.677-2.363 1.284-3.652 1.811" transform="translate(54 114) translate(0 11.084)"/>
                <path fill="#B0CED9" d="M11.412 19.616l-.612-.37c-.028-.017-.058-.036-.091-.038-.068-.008-.126.043-.175.09-.345.334-.847.606-1.193.94-.282.272-.357.352-.758.765.155.109.545.455.701.564.05-.13.166-.22.278-.305.405-.307 1.714-1.505 1.85-1.646M12.57 20.568l-.61-.37c-.029-.017-.059-.035-.092-.038-.068-.008-.126.043-.175.09-.345.334-.847.606-1.193.94-.282.272-.357.352-.758.765.155.11.546.456.701.564.05-.13.166-.22.278-.304.405-.307 1.714-1.506 1.85-1.647M13.718 21.528l-.612-.369c-.028-.017-.058-.036-.091-.04-.068-.006-.126.044-.175.091-.345.334-.847.606-1.193.94-.282.272-.185.19-.586.602.156.11.546.456.701.564.049-.13-.006-.057.106-.14.405-.308 1.714-1.506 1.85-1.648M15.008 22.417l-.61-.37c-.03-.017-.06-.035-.093-.038-.067-.008-.125.043-.174.09-.345.334-.848.606-1.193.94-.282.272-.935.991-1.336 1.405.156.108.546.455.7.563.05-.13.744-.86.856-.943.406-.308 1.715-1.505 1.85-1.647" transform="translate(54 114) translate(0 11.084)"/>
                <path fill="#666" d="M5.409 12.615c-.587-.494-1.192-.975-1.696-1.557-.232-.269.155-.643.403-.381.527.557 1.005 1.153 1.565 1.68.179.17-.091.411-.272.258M6.463 11.986c.001-.634.101-1.24.353-1.824.141-.327.673-.193.546.159-.204.562-.378 1.137-.479 1.728-.041.245-.42.17-.42-.063M7.645 12.565c.356-.74.936-1.427 1.45-2.065.22-.273.693-.009.479.295-.481.686-.996 1.458-1.624 2.017-.177.156-.399-.05-.305-.247" transform="translate(54 114) translate(0 11.084)"/>
                <path fill="#F6D6BE" d="M28.178 31.964c-.68-.42-1.404-.772-2.156-1.047-.096-.035-.204-.069-.297-.026-.099.044-.143.156-.178.259-.574 1.672-.98 3.401-1.22 5.153-1.184-1.073-2.458-2.052-3.737-3.014-3.208-2.41-6.474-4.744-9.792-6.999-.556-.377-1.14-.763-1.805-.853-.665-.09-1.435.212-1.655.847 4.836 5.947 10.775 10.994 17.425 14.808.486.28.691.342 1.056.741.136.15.379.154.558.062.18-.091.306-.258.418-.425.862-1.291 1.126-2.877 1.37-4.41.164-1.031.31-2 .736-2.958.12-.28.269-.562.266-.867-.007-.56-.512-.976-.989-1.27" transform="translate(54 114) translate(0 11.084)"/>
                <path fill="#292C47" d="M30.882 105.278c-1.524-.123-3.064-.058-4.572.193-1.163.865-2.438 1.581-3.782 2.124-.39.158-.801.311-1.089.618-.288.307-.405.823-.136 1.147.235.283.652.313 1.02.317 2.817.03 5.638-.21 8.41-.715.165-.03.343-.067.462-.186.096-.095.14-.229.176-.359.283-1.053.1-2.222-.489-3.139" transform="translate(54 114) translate(0 11.084)"/>
                <path fill="#FFEADF" d="M19.503 11c.286 1.828.681 3.775 2.006 5.067.964.939 2.365 1.408 3.7 1.238 1.335-.17 2.574-.975 3.272-2.125.33-.545.542-1.154.721-1.766.592-2.01.88-4.111.848-6.207-.01-.733-.083-1.526-.566-2.078-.496-.57-1.297-.74-2.04-.878-1.52-.283-3.074-.568-4.606-.354-1.287.18-3.03.887-3.657 2.134-.654 1.302.1 3.55.322 4.97" transform="translate(54 114) translate(0 11.084)"/>
                <path fill="#2F302F" d="M30.584 13.784c.188-.189.374-.38.561-.57.647-1.617 1.146-3.236 1.083-5.09-.071-2.097-.16-4.475-1.174-6.38-.662-.491-1.372-.933-2.07-1.399-2.019-.261-4.078-.223-6.083.13-1.306.23-2.625.605-3.677 1.412-1.053.808-1.793 2.122-1.618 3.436.026.19.072.385.185.54.163.223.439.334.709.394 1.179.261 2.308-.243 3.428-.53.9-.23 1.466-.12 2.293.243.922.407 2.009.52 2.833 1.119.763.554 1.29 1.41 1.553 2.306.35 1.195.284 2.471.107 3.703.317.204.446.618.413.994-.033.376-.199.725-.362 1.065.716-.274 1.278-.83 1.819-1.373" transform="translate(54 114) translate(0 11.084)"/>
                <path fill="#2F302F" d="M22.13 12.902c.226.058.45.142.632.287.31.245.465.637.548 1.023.084.385.109.784.223 1.162.06.198.152.399.323.515.165.113.376.128.575.137.423.02.856.028 1.256-.11.561-.195.985-.651 1.384-1.09l1.621-1.785c.04-.045.089-.093.149-.088.046.003.084.037.113.072.211.24.74.783.688 1.098-.145.866-1.407 1.293-2.204 1.664-.796.371-1.673.588-2.393 1.091-.374.262-.696.593-1.078.843-.447.292-.971.465-1.504.495-.374.021-.775-.036-1.059-.282-.16-.137-.268-.323-.374-.505l-.298-.51c-.176-.302-.357-.669-.206-.985.103-.216.337-.34.566-.41.228-.07.47-.105.683-.216.343-.18.568-.564.557-.951-.003-.108-.026-.222-.097-.303-.107-.123-.289-.14-.452-.146-.34-.016-.7-.027-.995.142-.142.082-.268.204-.429.235-.175.033-.359-.055-.473-.193-.168-.202-.276-.602-.17-.854.092-.218.227-.213.436-.264.666-.163 1.303-.246 1.979-.072" transform="translate(54 114) translate(0 11.084)"/>
                <path fill="#070707" d="M5.437 20.585c-.02.098.042.194.14.214l.463.099c.098.02.194-.042.214-.14l.094-.441c.02-.098-.041-.194-.14-.215l-.463-.098c-.098-.02-.194.041-.215.139l-.093.442zM8.57 19.198c.057.082.169.104.252.048l.393-.266c.083-.055.104-.167.048-.25l-.252-.375c-.057-.082-.169-.104-.251-.048l-.393.265c-.083.057-.105.169-.05.251l.254.375z" transform="translate(54 114) translate(0 11.084)"/>
                <path fill="#029FBB" d="M5.489 20.184c-.22-.356.179-.337-.029-.492-.209-.155-.555-.277-.468-.43.087-.155.151-.307.301-.231.11.054-.23-.336.048-.835.05-.09.23-.12.322-.218.103-.107.156-.237.324-.352 0 0-.433.293 0 0l.83-.56c.533.022 1.03.517 1.03.517s.53-.166.924.417l.404.599-1.703 1.15-1.068.722s-.695.07-.915-.287" transform="translate(54 114) translate(0 11.084)"/>
                <path fill="#029FBB" d="M7.682 17.611c.056.083.169.104.251.049l.247-.167c.082-.056.104-.168.048-.25l-.033-.05c-.057-.083-.169-.105-.251-.05l-.247.167c-.083.057-.104.169-.049.251l.034.05z" transform="translate(54 114) translate(0 11.084)"/>
                <path fill="#FFF" d="M6.145 19.562c.258-.2.47-.45.61-.544l1.1-.742c-.054-.129-.012-.281.108-.362.136-.092.32-.056.413.08.092.137.056.322-.08.413-.12.08-.277.063-.376-.035 0 0-.99.668-1.093.739-.105.07-.337.399-.617.548-.09.01-.058-.076-.065-.097" transform="translate(54 114) translate(0 11.084)"/>
                <path fill="#FFF" d="M5.68 19.885c.031.083.206.057.381-.008.175-.064.291-.184.26-.266-.03-.083-.157-.142-.332-.078-.175.064-.34.27-.308.352M5.395 18.808c-.025-.244.01-.53.15-.578.232-.08.299-.224.527-.41.229-.187.743-.502.82-.555.41.128.76.437.76.437s-.733.42-.995.681c-.263.262-.651-.04-1.112.741-.065-.033-.137-.183-.15-.316M7.946 19.126c.01.015.032.019.046.01.015-.011.019-.032.01-.046l-.207-.305c-.01-.015-.03-.02-.045-.01-.016.011-.02.031-.01.047l.206.304zM7.831 19.204c.01.015.031.019.046.009s.02-.031.01-.046l-.207-.304c-.01-.016-.03-.02-.046-.01-.015.011-.019.031-.008.046l.205.305zM7.716 19.281c.01.015.03.02.046.01.015-.01.019-.031.009-.046l-.206-.305c-.01-.015-.03-.019-.046-.009-.015.011-.019.031-.009.046l.206.304zM7.601 19.36c.01.014.03.018.046.008.014-.01.019-.03.009-.046l-.206-.304c-.01-.015-.03-.019-.046-.009-.015.01-.02.03-.009.046l.206.304zM7.486 19.437c.01.015.03.019.045.009s.02-.03.01-.046l-.206-.304c-.01-.016-.031-.019-.046-.009s-.02.03-.009.046l.206.304zM7.33 19.497c.012.014.033.015.046.003.014-.012.015-.033.003-.047l-.243-.275c-.012-.014-.033-.015-.047-.003-.013.012-.014.033-.003.047l.244.275zM7.209 19.58c.012.012.033.014.047.001.013-.012.014-.033.002-.046l-.246-.274c-.012-.014-.032-.015-.046-.002-.014.012-.015.033-.002.046l.245.274zM7.132 19.713c.013.012.034.011.046-.003.012-.013.011-.034-.003-.047L6.9 19.42c-.013-.012-.035-.01-.046.003-.013.014-.011.034.003.046l.275.244zM6.985 19.766c.013.011.034.01.047-.003.011-.013.01-.034-.004-.047l-.275-.242c-.013-.013-.035-.01-.047.003-.012.013-.01.034.004.046l.275.243zM6.938 19.897c.015.012.035.008.046-.008.01-.014.006-.035-.009-.046l-.301-.21c-.015-.01-.035-.006-.046.01-.01.014-.007.034.009.045l.301.21z" transform="translate(54 114) translate(0 11.084)"/>
            </g>
        </g>
        <text fill="#070707" font-family="Tajawal-ExtraBold, Tajawal" font-size="11.246" font-weight="600">
            <tspan x="347.435" y="190.382">محل القطع 2</tspan>
        </text>
        <text fill="#070707" font-family="Tajawal-ExtraBold, Tajawal" font-size="11.246" font-weight="600">
            <tspan x="163.312" y="280.382">محل القطع 3</tspan>
        </text>
        <text fill="#070707" font-family="Tajawal-ExtraBold, Tajawal" font-size="11.246" font-weight="600">
            <tspan x="137.874" y="130.382">محل القطع 1</tspan>
        </text>
    </g>
</svg>
