<svg xmlns="http://www.w3.org/2000/svg" xmlns:xlink="http://www.w3.org/1999/xlink" width="500" height="500" viewBox="0 0 500 500">
    <defs>
        <path id="9kabgwwbja" d="M0.106 0.105L24.582 0.105 24.582 44.124 0.106 44.124z"/>
    </defs>
    <g fill="none" fill-rule="evenodd">
        <path d="M0 0H500V500H0z"/>
        <g>
            <g transform="translate(78 100) translate(288.992)">
                <mask id="k7rl2y0y4b" fill="#fff">
                    <use xlink:href="#9kabgwwbja"/>
                </mask>
                <path fill="#FCAF13" d="M23.788 9.302C17.847 19.933 11.971 30.478 7.357 41.777 5.449 46.45-1.074 43.452.293 38.835 3.732 27.209 6.973 15.44 11.325 4.113c3.19-8.312 16.63-2.266 12.463 5.19" mask="url(#k7rl2y0y4b)"/>
            </g>
            <path fill="#FCAF13" d="M354.096 116.28c-5.138-1.127-9.833-3.806-14.507-6.182-4.92-2.504-11.069-4.638-15.003-8.581-1.949-1.955-1.864-6.493 1.797-6.545 5.41-.076 10.619 2.174 15.735 3.777 5.636 1.765 11.624 3.226 16.648 6.364 5.282 3.297 1.31 12.476-4.67 11.166M358.895 56.523c-5.621 3.543-11.892 5.665-18.115 7.923-5.529 2.008-10.997 4.393-16.93 4.236-2.764-.071-4.102-3.926-2.42-5.9 3.343-3.922 8.011-6.145 12.52-8.535 6.027-3.2 12.105-6.961 18.7-8.819 6.439-1.81 12.85 6.933 6.245 11.095" transform="translate(78 100)"/>
            <path fill="#666" d="M256.348 264.532c-75.58-6.073-154.256-6.619-222.966-6.619-4.49 0-8.973.002-13.448.006.347-22.8 1.194-46.779 2.019-70.144.851-24.14 1.726-48.93 2.062-72.617l73.64-4.182c30.622-1.74 62.287-3.54 93.434-3.54 24.255 0 46.112 1.114 66.314 3.388 2.14 51.095 1.784 102.64-1.055 153.708m20.028-171.166c-59.503-8.933-119.878-5.542-179.842-2.138-30.718 1.747-61.434 3.492-92.15 5.235C4.368 153.99.014 220.196 0 277.722c90.336-.13 184.82-.264 274.826 8.277 4.395-64.076 4.913-128.481 1.55-192.633" transform="translate(78 100)"/>
            <path fill="#FFF" d="M256.348 264.532c-75.58-6.073-154.256-6.619-222.966-6.619-4.49 0-8.973.002-13.448.006.347-22.8 1.194-46.779 2.019-70.144.851-24.14 1.726-48.93 2.062-72.617l73.64-4.182c30.622-1.74 62.287-3.54 93.434-3.54 24.255 0 46.112 1.114 66.314 3.388 2.14 51.095 1.784 102.64-1.055 153.708" transform="translate(78 100)"/>
        </g>
        <text fill="#029FBB" font-family="Tajawal-ExtraBold, Tajawal" font-size="24.246" font-weight="600">
            <tspan x="109" y="261.796">تمت العملية </tspan> <tspan x="109" y="286.796">بنجاح</tspan>
        </text>
    </g>
</svg>
