<svg xmlns="http://www.w3.org/2000/svg" xmlns:xlink="http://www.w3.org/1999/xlink" width="500" height="500" viewBox="0 0 500 500">
    <defs>
        <path id="4ca3kfrd2a" d="M0 0.561L38.625 0.561 38.625 79.263 0 79.263z"/>
        <path id="6heg13nbkc" d="M0 0.47L279 0.47 279 247.47 0 247.47z"/>
    </defs>
    <g fill="none" fill-rule="evenodd">
        <path d="M0 0H500V500H0z"/>
        <g>
            <path fill="#070707" d="M137.679 209.386c-3.484 3.365-3.582 8.919-.218 12.405l15.994 16.566c3.366 3.484 8.919 3.58 12.405.216l15.776-15.233c3.484-3.364 3.582-8.918.218-12.403L165.86 194.37c-3.366-3.484-8.92-3.582-12.405-.217l-15.776 15.232zM301.429 238.698c0 4.844 3.928 8.771 8.772 8.771h23.027c4.845 0 8.772-3.927 8.772-8.77v-21.932c0-4.844-3.927-8.772-8.772-8.772H310.2c-4.844 0-8.772 3.928-8.772 8.772v21.931z" transform="translate(61 124.53)"/>
            <path fill="#029FBB" d="M150.657 194.677c.833-20.286 16.404-8.724 12.235-20.603-4.169-11.878-14.788-26.181-7.118-30.02 7.671-3.837 14.392-8.224 18.395-1.096 2.908 5.18-.179-19.75 24.614-32.286 4.444-2.247 12.448 1.41 18.88 0 7.015-1.538 12.68-5.35 22.543-5.36 0 0-25.342-.001 0-.001h48.612c20.834 15.35 27.413 48.795 27.413 48.795s25.77 7.675 25.77 41.85v35.089H179.671s-29.849-16.083-29.015-36.368" transform="translate(61 124.53)"/>
            <path fill="#029FBB" d="M308.8 150.73c0 4.846 3.928 8.772 8.77 8.772h14.439c4.845 0 8.772-3.926 8.772-8.772v-2.924c0-4.846-3.927-8.772-8.772-8.772H317.57c-4.843 0-8.771 3.926-8.771 8.772v2.924z" transform="translate(61 124.53)"/>
            <path fill="#FFF" d="M193.97 187.458c15.778-1.005 31.129-5.3 39.292-5.3h64.428c1.316-6.617 7.153-11.604 14.156-11.604 7.973 0 14.436 6.464 14.436 14.437 0 7.974-6.463 14.438-14.436 14.438-7.003 0-12.84-4.99-14.156-11.606h-64.062c-6.092 0-24.367 6.914-39.658 5.3-3.96-2.04-.313-4.643 0-5.665" transform="translate(61 124.53)"/>
            <path fill="#FFF" d="M166.509 187.857c-1.021 4.166 6.74 7.863 15.513 10.016 8.773 2.153 16.714.521 17.736-3.646 1.022-4.166-2.496-9.997-11.27-12.149-8.772-2.154-20.957 1.613-21.98 5.78M184.284 136.745c5.627-10.458 14.79-21.043 21.69-19.19 11.571 3.107 18.151-.914 32.406-2.193 14.254-1.28 43.494 0 48.062 0 12.976 16.265 18.642 38.195 18.642 38.195s-40.854-3.013-58.52.399c-17.666 3.41-25.054-19.365-64.842-.365-1.709-3.174-.529-11.101 2.562-16.846M278.263 218.862c0 .884.717 1.601 1.6 1.601.884 0 1.6-.717 1.6-1.6v-17.834c0-.885-.716-1.6-1.6-1.6-.883 0-1.6.715-1.6 1.6v17.833zM271.519 218.862c0 .884.716 1.601 1.6 1.601.882 0 1.6-.717 1.6-1.6v-17.834c0-.885-.717-1.6-1.6-1.6-.885 0-1.6.715-1.6 1.6v17.833zM264.773 218.862c0 .884.717 1.601 1.601 1.601.882 0 1.6-.717 1.6-1.6v-17.834c0-.885-.718-1.6-1.6-1.6-.884 0-1.6.715-1.6 1.6v17.833zM258.03 218.862c0 .884.716 1.601 1.6 1.601.883 0 1.6-.717 1.6-1.6v-17.834c0-.885-.717-1.6-1.6-1.6-.884 0-1.6.715-1.6 1.6v17.833zM251.285 218.862c0 .884.716 1.601 1.6 1.601.883 0 1.6-.717 1.6-1.6v-17.834c0-.885-.717-1.6-1.6-1.6-.884 0-1.6.715-1.6 1.6v17.833zM243.377 217.043c.113.877.916 1.496 1.792 1.383.877-.115 1.495-.917 1.382-1.794l-2.293-17.685c-.113-.877-.916-1.496-1.793-1.381-.876.114-1.495.916-1.381 1.793l2.293 17.684zM236.29 217.047c.12.876.928 1.488 1.804 1.367.875-.121 1.487-.928 1.367-1.804l-2.437-17.667c-.12-.875-.927-1.487-1.803-1.366-.875.12-1.488.929-1.368 1.803l2.437 17.667zM229.548 220.34c.22.855 1.094 1.37 1.949 1.15.856-.22 1.37-1.093 1.15-1.95l-4.455-17.266c-.22-.856-1.093-1.371-1.95-1.151-.854.22-1.37 1.094-1.15 1.95l4.456 17.267zM222.206 218.49c.222.854 1.097 1.368 1.951 1.145.855-.222 1.368-1.095 1.146-1.95l-4.491-17.259c-.222-.855-1.095-1.37-1.951-1.147-.855.223-1.368 1.097-1.146 1.952l4.491 17.258zM216.737 222.515c.318.824 1.246 1.233 2.07.915.825-.318 1.235-1.245.915-2.069l-6.43-16.634c-.319-.824-1.245-1.233-2.07-.916-.825.32-1.235 1.246-.917 2.071l6.432 16.633z" transform="translate(61 124.53)"/>
            <path fill="#454545" d="M13.333 243.574c-2.681-30.528-5.282-76.89-7.963-107.418 7.768-.825 16.09 10.223 23.894 10.403 2.425.057 5.674-6.889 6.154-4.017.328 1.967-2.701 11.459-3.005 13.521-2.081 14.113-4.497 28.358-5.306 42.669-.234 4.149-.118 8.309-.203 12.464-.144 7.058-.873 14.087-1.793 21.082-.36 2.738-2.175 7.835-1.49 10.455.583 2.221 4.006 3.427 6.219 4.321.738.299 1.516.588 2.06 1.169.547.582.768 1.559.258 2.171-.445.536-1.233.594-1.93.601-5.332.057-10.67-.398-15.917-1.353-.315-.057-.65-.127-.876-.352-.182-.18-.267-.433-.333-.68-.447-1.662-.273-3.472.44-5.035l-.21-.001" transform="translate(61 124.53)"/>
            <path fill="#6B6B6B" d="M14.988 220.667c.014-.418-.634-.416-.646 0-.03.879.03 1.749.171 2.618.068.409.682.233.621-.172-.125-.812-.172-1.625-.146-2.446M15.615 229.39c.041-.335-.527-.409-.588-.08-.196 1.056-.196 2.084.001 3.14.08.422.711.24.642-.177-.16-.956-.173-1.922-.055-2.883M16.541 240.526c-.006-.42-.646-.42-.651 0-.005.33-.016.657-.002.986.016.423.638.423.655 0 .014-.329.003-.657-.002-.986" transform="translate(61 124.53)"/>
            <path fill="#E7D1C2" d="M30.246 62.868c-.906 2.163-2.311 4.116-4.073 5.665-.791.694-1.667 1.316-2.66 1.666-3.097 1.092-6.49-.685-8.89-2.926-3.015-2.811-5.259-6.49-6.148-10.515-.889-4.026-.377-8.386 1.629-11.988 1.737-3.118 4.629-5.643 8.059-6.631 1.661-.478 3.403-.596 5.132-.631 1.648-.035 3.356.017 4.846.724 1.462.696 3.587 2.536 4.192 4.091.646 1.663-.304 4.599-.369 6.409-.172 4.731.151 9.671-1.718 14.136" transform="translate(61 124.53)"/>
            <path fill="#8A6E59" d="M3.14 53.088c.262 1.083 1.046 2.028 2.063 2.483-.347 1.48-1.486 2.75-2.92 3.254.424.645 1.317.935 2.04.663-.255.888-.796 1.69-1.523 2.26.738.142 1.544-.16 2.009-.751.294 1.399.055 2.903-.656 4.142.568-.267 1.176-.451 1.799-.545.123 1.354-.042 2.734-.48 4.02.457-.722 1.072-1.346 1.789-1.814-.058 1.762 1.234 3.476 2.944 3.905l-.022-1.974c.827 1.083 2.036 1.869 3.362 2.185-.271-.886-.543-1.771-.813-2.657.594.33 1.227.588 1.884.766-1.164-2.616-1.608-5.547-1.268-8.39-.567.108-1.141-.258-1.451-.745-.312-.487-.417-1.073-.516-1.641-.132-.757-.09-1.798.659-1.971.483-.112.943.259 1.236.659.293.399.528.87.957 1.119-.513-1.662.16-3.618 1.587-4.613l.5.646c.16-1.122.707-2.187 1.527-2.97.314-.3.685-.567 1.112-.638.419-.071.866.05 1.263-.098.55-.205.836-.863 1.39-1.06.717-.25 1.418.378 1.92.948.084-.606.697-1.015 1.3-1.115.604-.1 1.218.029 1.829.066.859.053 1.718-.075 2.567-.221 1.057-.182 2.266-.511 2.69-1.495.35-.811.015-1.737-.32-2.555-.862-2.11-1.741-4.246-3.126-6.056-.675-.882-1.476-1.686-2.44-2.237-1.512-.863-3.342-1.05-5.066-.8-1.722.25-3.36.91-4.935 1.65-2.03.952-3.994 2.054-5.778 3.41-2.095 1.597-3.643 3.756-3.703 6.455-.028 1.24.152 2.622-.425 3.768-.161.32-2.807 2.678-2.984 1.947" transform="translate(61 124.53)"/>
            <path fill="#2A2A2A" d="M41.87 46.594c-.555-.296-1.196-.37-1.82-.438l-6.253-.697c-.112-1.73-.236-3.46-.388-5.188-.095-1.068-.205-2.163-.724-3.115-.953-1.752-3.068-2.646-5.1-3.102-5.22-1.172-10.932-.242-15.433 2.512-2.123 1.3-4.019 3.04-5.025 5.23-.657 1.43-2.038 5.944-.615 7.294 1.167 1.108 5.902-.597 7.547-.756 4.608-.445 9.235-.209 13.853.034 1.096.276 2.476.21 3.465.316l4.624.492 3.572.381c.67.072 1.361.142 2.004-.058.644-.198 1.231-.738 1.27-1.41.033-.627-.422-1.2-.977-1.495" transform="translate(61 124.53)"/>
            <g transform="translate(61 124.53) translate(0 71)">
                <mask id="hr6axsrrrb" fill="#fff">
                    <use xlink:href="#4ca3kfrd2a"/>
                </mask>
                <path fill="#767676" d="M21.794 1.06c1.788-.312 3.874-1.08 5.232.283.476.478.754 1.143 1.007 1.794 4.684 12.054 4.647 25.495 6.154 38.444 1.19 10.238 3.384 20.338 4.403 30.594.04.408.076.84-.075 1.21-.161.392-.503.646-.837.866-3.24 2.137-7.08 2.861-10.822 3.548-4.942.907-9.947 1.816-14.962 1.326-1.623-.158-3.26-.469-4.748-1.23C2.569 75.557.425 69.551.073 64.025c-.287-4.524.315-9.032.964-13.488.916-6.286 1.93-12.553 3.116-18.778 1.104-5.799 2.362-11.578 4.27-17.096 1.367-3.949 3.048-7.805 5.082-11.375 2.37-4.164 4.477-1.564 8.289-2.228" mask="url(#hr6axsrrrb)"/>
            </g>
            <path fill="#B5724F" d="M76.759 124.722c1.178-.102 2.46-.258 3.289-1.102.927-.945.97-2.419.948-3.74-.198-12.566-.977-25.123-2.333-37.617-14.616.701-29.215 1.78-43.776 3.234-1.822 12.98-2.302 26.15-1.43 39.228.075 1.103.3 2.418 1.315 2.857 2.267.983 5.96-.874 8.253-1.306 3.374-.638 6.847-.36 10.275-.403 7.83-.096 15.657-.48 23.459-1.151" transform="translate(61 124.53)"/>
            <path fill="#ECD5A9" d="M59.504 83.6c-.733.018-1.467.041-2.2.05-.336.165-.727.27-1.185.274-1.114.012-2.225.024-3.337.044-1.336.785-1.248 1.76-1.318 4.268-.16 5.707-.173 11.417-.037 17.12 2.625.151 5.258.12 7.882-.096.239-.019.492-.047.687-.219.357-.313.369-.944.347-1.477l-.84-19.964" transform="translate(61 124.53)"/>
            <path fill="#E7D1C2" d="M15.39 89.69c-.275-2.367-.548-4.809-.018-7.09.532-2.28 2.076-4.387 4.122-4.614.64-.07 1.335.062 1.839.546.466.447.707 1.124.914 1.777 1.91 6.025 2.41 12.452 3.238 18.763.494 3.766 1.11 7.516 1.849 11.24.213 1.075.449 2.18 1.006 3.086.947 1.541 2.619 2.21 4.192 2.678 5.963 1.774 12.137 2.033 18.213 3.053 2.427.41 4.84.938 7.252 1.468l10.292 2.26c.527.116 1.09.255 1.464.708.585.71.41 1.923-.16 2.61-.57.686-1.413.965-2.225 1.167-.657.164-1.335.297-2.006.178-.785-.14-1.5-.609-2.231-.98-2.555-1.297-5.397-1.422-8.16-1.526l-13.331-.502c-5.105-.192-10.283-.398-15.2-2.15-.642-.23-1.282-.487-1.86-.893-1.693-1.188-2.577-3.432-3.306-5.554-2.962-8.605-4.825-17.13-5.883-26.225" transform="translate(61 124.53)"/>
            <path fill="#818181" d="M28.142 100.573c.253-.044.526-.095.704-.279.221-.23.226-.587.213-.907-.235-6.096-1.38-12.149-3.294-17.942-.434-1.31-.916-2.629-1.726-3.749-.806-1.12-1.989-2.035-3.355-2.238-1.913-.284-3.815.898-4.898 2.501-1.082 1.601-1.493 3.556-1.774 5.47-.683 4.663-.728 9.417-.143 14.093.194 1.551.252 5.875 1.437 6.96 1.077.985 4.182-1.299 5.382-1.782 2.4-.967 4.904-1.683 7.454-2.127" transform="translate(61 124.53)"/>
            <g transform="translate(61 124.53) translate(99)">
                <mask id="r2eef5bqrd" fill="#fff">
                    <use xlink:href="#6heg13nbkc"/>
                </mask>
                <path fill="#FCAF13" d="M13 247.47L13 76.469 266 76.469 266 247.47 279 247.47 279 0.469 0 0.469 0 247.47z" mask="url(#r2eef5bqrd)"/>
            </g>
        </g>
        <text fill="#070707" font-family="Tajawal-ExtraBold, Tajawal" font-size="24.246" font-weight="600">
            <tspan x="234.366" y="156.796">محل القطع</tspan>
        </text>
    </g>
</svg>
