<svg xmlns="http://www.w3.org/2000/svg" xmlns:xlink="http://www.w3.org/1999/xlink" width="500" height="500" viewBox="0 0 500 500">
    <defs>
        <path id="zxm54137ra" d="M0 0.725L38.625 0.725 38.625 79.427 0 79.427z"/>
        <path id="9gofzuf7ec" d="M0.965 0.397L48.929 0.397 48.929 46 0.965 46z"/>
    </defs>
    <g fill="none" fill-rule="evenodd">
        <path d="M0 0H500V500H0z"/>
        <g>
            <g>
                <path fill="#070707" d="M137.679 209.55c-3.484 3.365-3.582 8.92-.218 12.404l15.994 16.566c3.366 3.485 8.919 3.582 12.405.217l15.776-15.234c3.484-3.364 3.582-8.918.218-12.402l-15.994-16.566c-3.366-3.485-8.92-3.583-12.405-.218l-15.776 15.233zM301.429 238.862c0 4.845 3.928 8.772 8.772 8.772h23.027c4.845 0 8.772-3.927 8.772-8.772V216.93c0-4.844-3.927-8.771-8.772-8.771H310.2c-4.844 0-8.772 3.927-8.772 8.77v21.932z" transform="translate(61 117) translate(0 .366)"/>
                <path fill="#029FBB" d="M150.657 194.841c.833-20.286 16.404-8.724 12.235-20.604-4.169-11.878-14.788-26.18-7.118-30.019 7.671-3.837 14.392-8.224 18.395-1.097 2.908 5.18-.179-19.749 24.614-32.286 4.444-2.247 12.448 1.411 18.88 0 7.015-1.537 12.68-5.348 22.543-5.358 0 0-25.342-.002 0-.002h48.612c20.834 15.35 27.413 48.795 27.413 48.795s25.77 7.675 25.77 41.85v35.088H179.671s-29.849-16.082-29.015-36.367" transform="translate(61 117) translate(0 .366)"/>
                <path fill="#029FBB" d="M308.8 150.894c0 4.846 3.928 8.772 8.77 8.772h14.439c4.845 0 8.772-3.926 8.772-8.772v-2.924c0-4.845-3.927-8.771-8.772-8.771H317.57c-4.843 0-8.771 3.926-8.771 8.771v2.924z" transform="translate(61 117) translate(0 .366)"/>
                <path fill="#FFF" d="M193.97 187.622c15.778-1.004 31.129-5.3 39.292-5.3h64.428c1.316-6.617 7.153-11.604 14.156-11.604 7.973 0 14.436 6.464 14.436 14.437 0 7.974-6.463 14.438-14.436 14.438-7.003 0-12.84-4.988-14.156-11.605h-64.062c-6.092 0-24.367 6.913-39.658 5.3-3.96-2.041-.313-4.644 0-5.666" transform="translate(61 117) translate(0 .366)"/>
                <path fill="#FFF" d="M166.509 188.021c-1.021 4.166 6.74 7.864 15.513 10.016 8.773 2.153 16.714.521 17.736-3.646 1.022-4.165-2.496-9.997-11.27-12.148-8.772-2.154-20.957 1.612-21.98 5.778M184.284 136.909c5.627-10.458 14.79-21.042 21.69-19.188 11.571 3.105 18.151-.916 32.406-2.195 14.254-1.28 43.494 0 48.062 0 12.976 16.265 18.642 38.195 18.642 38.195s-40.854-3.012-58.52.4c-17.666 3.41-25.054-19.365-64.842-.365-1.709-3.174-.529-11.102 2.562-16.847M278.263 219.026c0 .884.717 1.6 1.6 1.6.884 0 1.6-.716 1.6-1.6v-17.833c0-.884-.716-1.601-1.6-1.601-.883 0-1.6.717-1.6 1.6v17.834zM271.519 219.026c0 .884.716 1.6 1.6 1.6.882 0 1.6-.716 1.6-1.6v-17.833c0-.884-.717-1.601-1.6-1.601-.885 0-1.6.717-1.6 1.6v17.834zM264.773 219.026c0 .884.717 1.6 1.601 1.6.882 0 1.6-.716 1.6-1.6v-17.833c0-.884-.718-1.601-1.6-1.601-.884 0-1.6.717-1.6 1.6v17.834zM258.03 219.026c0 .884.716 1.6 1.6 1.6.883 0 1.6-.716 1.6-1.6v-17.833c0-.884-.717-1.601-1.6-1.601-.884 0-1.6.717-1.6 1.6v17.834zM251.285 219.026c0 .884.716 1.6 1.6 1.6.883 0 1.6-.716 1.6-1.6v-17.833c0-.884-.717-1.601-1.6-1.601-.884 0-1.6.717-1.6 1.6v17.834zM243.377 217.208c.113.875.916 1.494 1.792 1.381.877-.113 1.495-.916 1.382-1.792l-2.293-17.685c-.113-.877-.916-1.496-1.793-1.382-.876.114-1.495.917-1.381 1.793l2.293 17.685zM236.29 217.21c.12.877.928 1.488 1.804 1.367.875-.12 1.487-.928 1.367-1.804l-2.437-17.667c-.12-.875-.927-1.487-1.803-1.366-.875.12-1.488.93-1.368 1.804l2.437 17.666zM229.548 220.503c.22.856 1.094 1.371 1.949 1.151.856-.22 1.37-1.093 1.15-1.95l-4.455-17.267c-.22-.856-1.093-1.37-1.95-1.15-.854.22-1.37 1.093-1.15 1.95l4.456 17.266zM222.206 218.654c.222.854 1.097 1.369 1.951 1.146.855-.223 1.368-1.096 1.146-1.952l-4.491-17.258c-.222-.855-1.095-1.37-1.951-1.147-.855.224-1.368 1.097-1.146 1.952l4.491 17.259zM216.737 222.68c.318.823 1.246 1.233 2.07.915.825-.318 1.235-1.245.915-2.07l-6.43-16.633c-.319-.824-1.245-1.233-2.07-.916-.825.32-1.235 1.246-.917 2.07l6.432 16.634z" transform="translate(61 117) translate(0 .366)"/>
                <path fill="#454545" d="M13.333 243.738C10.652 213.21 8.05 166.848 5.37 136.32c7.768-.825 16.09 10.223 23.894 10.403 2.425.056 5.674-6.89 6.154-4.018.328 1.967-2.701 11.46-3.005 13.52-2.081 14.115-4.497 28.36-5.306 42.67-.234 4.15-.118 8.31-.203 12.464-.144 7.058-.873 14.088-1.793 21.082-.36 2.738-2.175 7.835-1.49 10.456.583 2.22 4.006 3.426 6.219 4.32.738.299 1.516.589 2.06 1.17.547.58.768 1.558.258 2.17-.445.536-1.233.594-1.93.602-5.332.056-10.67-.398-15.917-1.354-.315-.056-.65-.127-.876-.351-.182-.18-.267-.434-.333-.681-.447-1.661-.273-3.472.44-5.035l-.21-.001" transform="translate(61 117) translate(0 .366)"/>
                <path fill="#6B6B6B" d="M14.988 220.83c.014-.417-.634-.416-.646 0-.03.88.03 1.75.171 2.618.068.41.682.234.621-.17-.125-.814-.172-1.625-.146-2.447M15.615 229.554c.041-.335-.527-.409-.588-.079-.196 1.055-.196 2.084.001 3.14.08.421.711.24.642-.178-.16-.956-.173-1.922-.055-2.883M16.541 240.69c-.006-.42-.646-.42-.651 0-.005.329-.016.658-.002.986.016.423.638.423.655 0 .014-.328.003-.657-.002-.985" transform="translate(61 117) translate(0 .366)"/>
                <path fill="#E7D1C2" d="M30.246 63.032c-.906 2.164-2.311 4.117-4.073 5.665-.791.695-1.667 1.316-2.66 1.667-3.097 1.092-6.49-.686-8.89-2.926-3.015-2.812-5.259-6.491-6.148-10.516-.889-4.026-.377-8.386 1.629-11.988 1.737-3.118 4.629-5.642 8.059-6.631 1.661-.478 3.403-.595 5.132-.631 1.648-.035 3.356.017 4.846.724 1.462.696 3.587 2.537 4.192 4.092.646 1.663-.304 4.599-.369 6.408-.172 4.73.151 9.672-1.718 14.136" transform="translate(61 117) translate(0 .366)"/>
                <path fill="#8A6E59" d="M3.14 53.251c.262 1.083 1.046 2.028 2.063 2.484-.347 1.48-1.486 2.75-2.92 3.253.424.645 1.317.935 2.04.663-.255.89-.796 1.692-1.523 2.262.738.14 1.544-.162 2.009-.753.294 1.4.055 2.904-.656 4.143.568-.268 1.176-.45 1.799-.545.123 1.354-.042 2.733-.48 4.02.457-.723 1.072-1.346 1.789-1.815-.058 1.762 1.234 3.477 2.944 3.905l-.022-1.974c.827 1.083 2.036 1.87 3.362 2.186l-.813-2.658c.594.331 1.227.59 1.884.766-1.164-2.616-1.608-5.547-1.268-8.389-.567.108-1.141-.259-1.451-.745-.312-.487-.417-1.073-.516-1.642-.132-.757-.09-1.798.659-1.97.483-.112.943.26 1.236.66.293.397.528.87.957 1.117-.513-1.66.16-3.617 1.587-4.613l.5.647c.16-1.123.707-2.187 1.527-2.97.314-.3.685-.567 1.112-.639.419-.07.866.05 1.263-.098.55-.205.836-.863 1.39-1.058.717-.252 1.418.376 1.92.947.084-.607.697-1.016 1.3-1.116.604-.099 1.218.03 1.829.066.859.053 1.718-.075 2.567-.22 1.057-.182 2.266-.512 2.69-1.495.35-.81.015-1.738-.32-2.555-.862-2.109-1.741-4.247-3.126-6.057-.675-.882-1.476-1.686-2.44-2.237-1.512-.862-3.342-1.048-5.066-.798-1.722.25-3.36.908-4.935 1.648-2.03.952-3.994 2.054-5.778 3.411-2.095 1.596-3.643 3.755-3.703 6.455-.028 1.241.152 2.621-.425 3.767-.161.321-2.807 2.68-2.984 1.947" transform="translate(61 117) translate(0 .366)"/>
                <path fill="#2A2A2A" d="M41.87 46.758c-.555-.295-1.196-.37-1.82-.439l-6.253-.695c-.112-1.73-.236-3.46-.388-5.189-.095-1.067-.205-2.163-.724-3.116-.953-1.752-3.068-2.645-5.1-3.1-5.22-1.173-10.932-.243-15.433 2.512-2.123 1.298-4.019 3.04-5.025 5.228-.657 1.43-2.038 5.944-.615 7.295 1.167 1.11 5.902-.597 7.547-.756 4.608-.444 9.235-.209 13.853.034 1.096.275 2.476.21 3.465.316l4.624.493 3.572.38c.67.071 1.361.141 2.004-.058.644-.198 1.231-.738 1.27-1.41.033-.627-.422-1.199-.977-1.495" transform="translate(61 117) translate(0 .366)"/>
                <g transform="translate(61 117) translate(0 .366) translate(0 71)">
                    <mask id="om98taba1b" fill="#fff">
                        <use xlink:href="#zxm54137ra"/>
                    </mask>
                    <path fill="#767676" d="M21.794 1.224c1.788-.312 3.874-1.08 5.232.283.476.48.754 1.144 1.007 1.794 4.684 12.054 4.647 25.495 6.154 38.444 1.19 10.24 3.384 20.338 4.403 30.595.04.408.076.84-.075 1.21-.161.391-.503.646-.837.865-3.24 2.137-7.08 2.862-10.822 3.548-4.942.906-9.947 1.817-14.962 1.327-1.623-.158-3.26-.47-4.748-1.23C2.569 75.72.425 69.715.073 64.19c-.287-4.525.315-9.033.964-13.488.916-6.287 1.93-12.554 3.116-18.779 1.104-5.798 2.362-11.578 4.27-17.096 1.367-3.949 3.048-7.804 5.082-11.374 2.37-4.164 4.477-1.564 8.289-2.229" mask="url(#om98taba1b)"/>
                </g>
                <g transform="translate(61 117) translate(0 .366) translate(151 218)">
                    <mask id="u7xqiirjfd" fill="#fff">
                        <use xlink:href="#9gofzuf7ec"/>
                    </mask>
                    <path fill="#B5724F" d="M44.688 42.856c1.178-.102 2.461-.257 3.29-1.101.926-.944.97-2.418.947-3.741-.199-12.565-.977-25.123-2.333-37.617-14.617.702-29.216 1.78-43.777 3.235C.995 16.612.515 29.78 1.387 42.86c.073 1.103.3 2.417 1.314 2.857 2.266.983 5.96-.875 8.252-1.307 3.375-.637 6.848-.36 10.276-.402 7.83-.096 15.657-.48 23.46-1.152" mask="url(#u7xqiirjfd)"/>
                </g>
                <path fill="#ECD5A9" d="M178.433 219.735c-.732.018-1.466.04-2.198.05-.337.166-.73.27-1.186.275-1.114.012-2.226.023-3.338.043-1.335.785-1.247 1.76-1.317 4.269-.16 5.706-.174 11.416-.037 17.12 2.624.15 5.257.119 7.882-.096.239-.02.492-.047.687-.22.356-.312.369-.943.347-1.477l-.84-19.964" transform="translate(61 117) translate(0 .366)"/>
                <path fill="#E7D1C2" d="M24.263 100.063c1.563 6.021 3.359 25.945 5.626 31.674.905 2.288 1.698 4.628 2.492 6.968l3.384 9.978c.173.511.346 1.066.15 1.619-.304.867-1.433 1.346-2.316 1.212-.882-.135-1.557-.711-2.15-1.302-.48-.477-.944-.99-1.19-1.626-.285-.744-.253-1.597-.312-2.416-.21-2.857-1.573-5.355-2.912-7.773l-6.46-11.673c-2.474-4.47-3.8-23.514-4.841-28.629-.135-.667-.246-1.348-.198-2.051.142-2.065 8.315 2.43 8.727 4.019" transform="translate(61 117) translate(0 .366)"/>
                <path fill="#818181" d="M28.142 100.738c.253-.045.526-.095.704-.28.221-.23.226-.587.213-.907-.235-6.095-1.38-12.15-3.294-17.941-.434-1.311-.916-2.63-1.726-3.75-.806-1.12-1.989-2.034-3.355-2.237-1.913-.284-3.815.897-4.898 2.5-1.082 1.602-1.493 3.557-1.774 5.47-.683 4.663-.728 9.417-.143 14.093.194 1.55.252 5.876 1.437 6.96 1.077.986 4.182-1.298 5.382-1.782 2.4-.967 4.904-1.683 7.454-2.126" transform="translate(61 117) translate(0 .366)"/>
                <path fill="#FCAF13" d="M112 247.634L112 76.634 365 76.634 365 247.634 378 247.634 378 0.634 99 0.634 99 247.634z" transform="translate(61 117) translate(0 .366)"/>
            </g>
            <g>
                <path fill="#2F302F" d="M37.535 41.744c-.29-2.6-3.55-4.676-6.023-3.86-2.505.828-3.679 3.593-5.102 5.814-1.124 1.753-2.563 3.302-4.228 4.552-.779.585-1.71 1.33-1.553 2.292.064.395.313.732.555 1.052.975 1.284 1.983 2.567 3.254 3.557 1.272.989 2.852 1.672 4.46 1.575 2.966-.176 5.181-2.878 6.252-5.65.954-2.47 2.687-6.615 2.385-9.332" transform="translate(61 117) translate(60 45.366)"/>
                <path fill="#5C625E" d="M24.755 89.342s-11.963 98.004-12.006 112.542l3.165.203s22.668-79.153 27.069-83.509c0 0 1.819-.335 2.523 0 .703.334 2.246 80.711 1.074 86.105h3.282s15.785-94.02 15.157-114.75c0 0-3.35-10.415-17.35-9.477-14 .938-21.507-1.456-22.914 8.886" transform="translate(61 117) translate(60 45.366)"/>
                <path fill="#2F302F" d="M66.446 82.28c-.939-10.63-4.828-32.048-8.665-42.006-.202-.525-.419-1.068-.825-1.46-.693-.666-1.75-.732-2.713-.744-2.377-.03-8.62.223-10.993.387-1.26.087-7.16-.215-8.28.373-1.396.733-2.34 2.094-3.167 3.438-4.184 6.81-2.16 14.898-4.409 22.568-1.138 3.883-5.198 18.157-5.113 21.694.427.955.791 1.965 1.026 2.968 2.465 2.792 8.971 1.252 12.268 3.15 2.503 1.444 5.315 2.133 8.171 2.56.583-.043 1.164-.094 1.74-.155 3.317-.351 10.413-.967 13.405-2.442 2.993-1.474 5.776.918 6.936-2.21.953-2.566.86-5.393.62-8.121" transform="translate(61 117) translate(60 45.366)"/>
                <path fill="#907A6E" d="M57.353 13.887c-.672-1.472-2.163-2.43-3.718-2.877-1.554-.447-3.194-.459-4.81-.528-1.814-.078-3.633-.234-5.439-.059-1.806.174-3.629.705-5.035 1.851-1.407 1.146-2.33 2.983-2.06 4.777l-.11 5.28c-.26 3.955.846 7.988 3.086 11.257.63.92 1.367 1.8 2.335 2.352 1.169.667 2.563.8 3.907.811 1.519.015 3.084-.116 4.441-.798 1.108-.557 2.008-1.447 2.871-2.337 1.305-1.347 2.6-2.776 3.267-4.529.974-2.56.47-5.429.873-8.138.178-1.188.529-2.342.71-3.529.18-1.185.18-2.442-.318-3.533" transform="translate(61 117) translate(60 45.366)"/>
                <path fill="#AF8D38" d="M20.123 200.447c-2.915-.427-5.882-.494-8.813-.2-2.343 1.518-4.882 2.736-7.534 3.612-.769.255-1.579.497-2.171 1.052-.591.554-.88 1.53-.404 2.187.417.574 1.214.684 1.92.738 5.412.409 10.862.3 16.254-.324.323-.038.667-.086.912-.3.196-.17.3-.422.384-.668.675-1.99.472-4.26-.548-6.097M54.856 202.026s-6.56.35-7.552.924c-.99.574-2.008 5.769-.383 6.513 1.625.745 16.844-1.117 16.844-1.117s1.507-2.135-3.014-3.436c-4.523-1.302-5.23-1.296-5.895-2.884" transform="translate(61 117) translate(60 45.366)"/>
                <path fill="#CDCDCD" d="M57.207 69.213c-3.36.23-6.74.188-10.095-.126-.623 2.15-1.248 4.312-1.517 6.534-.102.842-.15 1.715.11 2.523.261.807.887 1.543 1.716 1.718l1.948 1.156c2.113-2.516 4.983-4.258 7.473-6.403 1.713-1.474 3.248-3.14 4.779-4.804-1.267-.828-2.904-.7-4.414-.598" transform="translate(61 117) translate(60 45.366)"/>
                <path fill="#907A6E" d="M77.61 73.22c.137 1.377.18 2.851-.51 4.053-.975 1.697-3.128 2.342-5.086 2.364-4.74.051-9.062-2.61-12.823-5.497-.792-.609-1.594-1.24-2.54-1.56-1.238-.42-2.595-.258-3.878-.505-.226-.043-.476-.117-.589-.319-.084-.15-.068-.337-.049-.51.137-1.256.281-2.513.43-3.769 1.902-.375 3.78.572 5.58 1.297 1.812.728 3.697 1.251 5.58 1.771.91.252 1.838.507 2.783.49.947-.018 1.931-.345 2.532-1.076.545-.663.707-1.577.621-2.43-.087-.854-.398-1.667-.713-2.466-1.154-2.928-2.429-5.862-4.407-8.31-.643-.795-1.402-1.663-1.308-2.68.065-.714.564-1.333 1.175-1.71.61-.377 1.322-.548 2.025-.685 1.141-.22 2.948-.767 4-.003 1.171.85 1.686 3.067 2.228 4.336 1.515 3.548 2.883 7.172 3.827 10.917.52 2.067.91 4.17 1.122 6.291" transform="translate(61 117) translate(60 45.366)"/>
                <path fill="#907A6E" d="M54.32 69.713c0 .797-.554 1.478-1.115 2.042-.966.974-2.072 1.847-3.36 2.318-1.288.472-2.782.502-3.99-.146-1.209-.65-2.04-2.052-1.807-3.403.192-1.105 1.036-2.01 2.02-2.548.983-.537 2.104-.76 3.207-.958 1.987-.355 5.042-.104 5.044 2.695" transform="translate(61 117) translate(60 45.366)"/>
                <path fill="#2F302F" d="M72.72 51.827c-1.182-4.347-4.446-7.77-7.595-10.991-2.614-2.677-8.446-4.673-10.57-.148-1.706 3.638 1.63 10.087 2.797 13.524.329.969.77 2.045 1.724 2.412.4.153.84.158 1.268.148 4.029-.087 8.033-1.18 11.546-3.154.369-.207.76-.458.89-.86.095-.301.024-.626-.06-.931M46.295 12.287c.438-.044.8-.365 1.07-.714.344.847 1.737.956 2.208.174.183.634 1.207.773 1.552.212-.07.337.254.655.595.706.34.05.678-.091.988-.241-.125.658.78 1.229 1.32.835-.203.843.508 1.784 1.376 1.816-.511.829-.14 2.066.745 2.477-.58.594-.544 1.672.07 2.228-.536.417-.482 1.379.098 1.733-.25.259-.217.67-.17 1.029.082.599.162 1.198.243 1.798-.441.219-.286 1.033.204 1.078-.546.548-.557 1.536-.023 2.096-.312.195-.548.509-.652.864.008.327.518.272.798.103 1.17-.702 2.318-1.443 3.439-2.221.274-.191.557-.395.702-.694.145-.3.097-.72-.192-.885.463-.18.95-.375 1.246-.774.294-.398.282-1.064-.152-1.305.446.07.875-.233 1.132-.603.257-.371.394-.811.609-1.208.35-.646.915-1.421.482-2.015.155-.295.447-.485.706-.694.258-.208.509-.483.517-.815.008-.332-.371-.66-.655-.488.683-.378 1.12-1.162 1.086-1.942.192-.477.349-.968.472-1.467l-.567-.198c.423-.651.796-1.635.168-2.091.64-.127.9-1.09.414-1.523-.12-.107-.272-.185-.354-.324-.196-.333.129-.72.212-1.097.136-.618-.582-1.241-1.173-1.017.182-.816-.503-1.711-1.337-1.747-.172-.007-.357.013-.503-.076-.181-.111-.234-.343-.312-.54-.2-.505-.674-.892-1.21-.985-.238-.041-.5-.032-.698-.17-.23-.158-.307-.462-.501-.663-.582-.6-1.755.05-2.381-.505-.268-.24-.356-.648-.658-.845-.433-.282-1.006.033-1.521-.02-.68-.066-1.238-.776-1.907-.64-.27.054-.503.245-.776.278-.485.059-.868-.371-1.272-.647-.403-.275-1.136-.275-1.202.209-.522-.913-2.035-.996-2.654-.145.069-.275-.505-.322-.481-.04-.461-.188-.938-.38-1.435-.375-.498.003-1.028.25-1.215.712-.59-.301-1.347-.588-1.861-.172-.197.159-.318.399-.521.549-.404.298-.965.147-1.466.162-.502.015-1.103.469-.862.909-.467-.085-.962-.168-1.405.002-.442.17-.784.697-.581 1.126-.731.038-1.361.732-1.33 1.462.008.174.046.358-.031.514-.083.167-.271.248-.43.344-.655.404-.93 1.327-.6 2.023-.47.12-.952.29-1.284.645-.333.355-.463.94-.177 1.332.108.147.268.266.309.443.059.246-.137.47-.254.695-.281.54-.07 1.284.455 1.594-.718.41-.893 1.523-.338 2.134-.632.822-.417 1.988-.172 2.994l.43 1.769c-.335.45-.18 1.183.31 1.46-.364.339-.225 1.049.24 1.227.039.789.312 1.566.776 2.207.105.253.46-.05.528-.316l1.046-4.074c.189-.737.362-1.582-.068-2.211.563-.395.928-1.061.959-1.75.813.205 1.648-.763 1.328-1.538.846.168 1.719-.697 1.558-1.544.77.274 1.715-.361 1.753-1.178.213.527 1.189.334 1.187-.233 0 .28.94.1 1.058.15.404.179.395.7.992.64" transform="translate(61 117) translate(60 45.366)"/>
                <path fill="#F7F7F7" d="M49.212 79.033c.2.672.265 1.397.187 2.104-12.031.93-24.094 1.31-36.151 1.137-.96-4.528 2.4-3.24 5.044-3.033 3.483.273 6.974.445 10.465.518 1.837.038 20.313-1.204 20.455-.726" transform="translate(61 117) translate(60 45.366)"/>
                <path fill="#E7E7E7" d="M11.976 47.643c12.671-.354 24.316-.472 36.63-1.703.524 10.342 1.416 23.982.242 34.25-8.423.972-17.851-.076-26.302.458-2.07.13-4.215.44-6.285.356-2.063-.084-2.478-1.735-2.736-4.125-.521-4.86-.351-9.947-.646-14.846-.088-1.455-.354-14.326-.903-14.39" transform="translate(61 117) translate(60 45.366)"/>
                <path fill="#FFF" d="M27.321 66.83c.853-1.771 1.78-3.503 2.781-5.195.701 1.802 1.421 3.704 2.513 5.288-2.225-.178-3.715-.173-5.294-.093m6.604.279c-1.568-1.831-2.406-4.471-3.294-6.676-.146-.364-.63-.483-.857-.113-1.38 2.259-2.626 4.586-3.737 6.989-.252.543.556 1.02.81.473l.004-.01c2.251-.085 4.496-.043 6.742.138.44.035.573-.52.332-.801" transform="translate(61 117) translate(60 45.366)"/>
                <path fill="#907A6E" d="M24.996 81.613c.59-.485 1.211-1.028 1.382-1.772.169-.74-.158-1.516-.65-2.093-.491-.577-1.132-1.001-1.731-1.466-.958-.744-1.839-1.617-2.936-2.136-1.097-.518-2.517-.6-3.433.197-.566.492-.846 1.228-1.07 1.943-.535 1.717-.859 3.499-.962 5.295-.039.676-.039 1.387.282 1.983.347.645 1.031 1.056 1.742 1.238 2.708.696 5.43-1.588 7.376-3.19" transform="translate(61 117) translate(60 45.366)"/>
            </g>
        </g>
        <text fill="#070707" font-family="Tajawal-ExtraBold, Tajawal" font-size="24.246" font-weight="600">
            <tspan x="234.366" y="148.796">محل القطع</tspan>
        </text>
    </g>
</svg>
