<svg width="24" height="25" viewBox="0 0 24 25" fill="none" xmlns="http://www.w3.org/2000/svg">
    <path fill-rule="evenodd" clip-rule="evenodd" d="M11.9 4.12v3h1v-3h-1zM9.733 7.985 7.967 6.219l.7-.7 1.766 1.767-.7.7zm5.334 0-.7-.7 1.766-1.767.7.7-1.766 1.767zM6.9 20.119a.485.485 0 0 1-.5-.5v-5.4l1.417-4.266a.734.734 0 0 1 .716-.5h7.734a.734.734 0 0 1 .717.5l1.416 4.266v5.4a.485.485 0 0 1-.5.5h-.35a.458.458 0 0 1-.35-.141.502.502 0 0 1-.133-.359v-.9H7.733v.9a.486.486 0 0 1-.5.5H6.9zm10.117-6.9H7.783l.917-2.766h7.4l.917 2.766zm-7.209 3.4a.857.857 0 0 1-.641.267.928.928 0 0 1-.659-.258.844.844 0 0 1-.275-.642c0-.256.092-.475.275-.658a.898.898 0 0 1 .659-.275c.255 0 .469.091.641.275a.928.928 0 0 1 .259.658.88.88 0 0 1-.259.633zm5.842.267a.912.912 0 0 0 .658-.267.852.852 0 0 0 .275-.633.898.898 0 0 0-.275-.658.898.898 0 0 0-.658-.275.845.845 0 0 0-.642.275.928.928 0 0 0-.258.658c0 .256.089.47.267.642a.88.88 0 0 0 .633.258zm1.75.833h-10v-3.5h10v3.5z" fill="#1c6dc3"/>
</svg>
