<svg width="24" height="25" viewBox="0 0 24 25" fill="none" xmlns="http://www.w3.org/2000/svg">
    <path fill-rule="evenodd" clip-rule="evenodd" d="M20 8.59c0 .769-.298 1.49-.838 2.03-.131.132-.369.284-.85.589-.907.572-2.38 1.502-3.768 2.812l1.203 1.203c.352.352.546.822.546 1.323 0 .5-.194.97-.546 1.323l-.103.102a2.02 2.02 0 0 1-2.484.29l-1.026 1.026a.464.464 0 0 1-.658 0l-5.045-5.044a.465.465 0 0 1 0-.658l1.025-1.026a2.007 2.007 0 0 1-.298-1.058c0-.54.21-1.046.59-1.426l.102-.102c.73-.73 1.916-.73 2.646 0l1.203 1.202c1.31-1.388 2.24-2.86 2.813-3.766.304-.482.456-.72.588-.85a2.876 2.876 0 0 1 4.062 0c.54.54.838 1.261.838 2.03zm-9.461 11.864a.465.465 0 0 1-.466.465H5.265a.465.465 0 1 1 0-.93h4.808c.257 0 .466.208.466.465zm-2.463-7.197 4.387 4.386-.658.658-4.387-4.386.658-.658zm1.762-2.625a.938.938 0 0 0-1.33 0l-.103.103a1.078 1.078 0 0 0-.316.767c0 .291.112.564.316.768l5.046 5.044a1.087 1.087 0 0 0 1.535 0l.102-.102a.934.934 0 0 0 .274-.665.933.933 0 0 0-.273-.665l-5.251-5.25zm8.666-3.415c.364.365.565.853.565 1.373s-.2 1.008-.565 1.373c-.069.067-.399.275-.69.459-.94.594-2.47 1.56-3.928 2.94l-1.529-1.527c1.381-1.459 2.347-2.988 2.942-3.928.184-.292.392-.621.459-.69a1.944 1.944 0 0 1 2.746 0z" fill="#fff"/>
</svg>
