<svg width="126" height="87" viewBox="0 0 126 87" fill="none" xmlns="http://www.w3.org/2000/svg">
    <g clip-path="url(#p9vvr58jla)">
        <path d="M14.823 6v16.582H6v63.69M0 86.5h125.5M120 87V23.085h-8.077V0h-97.1" stroke="#3D4E76" stroke-width=".882" stroke-linecap="round" stroke-linejoin="round"/>
        <path d="M27.914 9.49v9.494H25.98V9.49h1.935zm4.336 3.134v6.36h-1.935V9.49h1.635c1.6 2.08 3.19 4.265 4.77 6.555V9.49h1.965v9.495h-1.68c-.94-1.11-2.525-3.23-4.755-6.36zm14.712-2.355c-.18.27-.46.675-.84 1.215-.8-.35-1.515-.525-2.145-.525-.83 0-1.245.31-1.245.93 0 .28.095.5.285.66.19.16.585.355 1.185.585 1.08.42 1.855.875 2.325 1.365.48.49.72 1.08.72 1.77 0 .97-.365 1.72-1.095 2.25-.6.43-1.345.645-2.235.645-1.05 0-2.17-.38-3.36-1.14l.87-1.215c.58.39 1.325.585 2.235.585 1.03 0 1.545-.415 1.545-1.245 0-.54-.555-1-1.665-1.38-1.79-.6-2.685-1.56-2.685-2.88 0-.8.3-1.435.9-1.905.56-.45 1.305-.675 2.235-.675 1.06 0 2.05.32 2.97.96zm9.482 4.725c0 2.78-1.22 4.17-3.66 4.17-2.44 0-3.66-1.39-3.66-4.17V9.49h1.98v5.775c0 1.5.56 2.25 1.68 2.25 1.14 0 1.71-.75 1.71-2.25V9.49h1.95v5.505zm2.406 3.99v-9.48c.14-.03.535-.07 1.185-.12a20.96 20.96 0 0 1 1.485-.075c2.42 0 3.63.99 3.63 2.97 0 1.07-.435 1.98-1.305 2.73.36.83.975 2.155 1.845 3.975h-1.98c-.49-1.07-1.02-2.22-1.59-3.45-.11.02-.26.03-.45.03-.44 0-.725-.04-.855-.12v3.54H58.85zm1.965-7.995v2.865c.3.09.625.135.975.135.86 0 1.29-.57 1.29-1.71 0-.93-.445-1.395-1.335-1.395-.51 0-.82.035-.93.105zm8.506-1.5h1.65l3.495 9.495h-1.995c-.17-.5-.38-1.16-.63-1.98h-3.405c-.14.45-.355 1.11-.645 1.98h-1.965l3.495-9.495zm.84 2.565c-.28.79-.665 1.9-1.155 3.33h2.28c-.47-1.38-.845-2.49-1.125-3.33zm7.514.57v6.36H75.74V9.49h1.635c1.6 2.08 3.19 4.265 4.77 6.555V9.49h1.965v9.495h-1.68c-.94-1.11-2.525-3.23-4.755-6.36zm15.612 5.295c-.83.83-1.805 1.245-2.925 1.245-1.61 0-2.81-.6-3.6-1.8-.57-.86-.855-1.87-.855-3.03 0-1.51.39-2.725 1.17-3.645.77-.92 1.84-1.38 3.21-1.38.96 0 1.92.405 2.88 1.215l-.765 1.245c-.72-.52-1.375-.78-1.965-.78-.82 0-1.455.345-1.905 1.035-.39.59-.585 1.36-.585 2.31 0 .84.23 1.56.69 2.16.49.63 1.145.945 1.965.945.54 0 1.18-.235 1.92-.705l.765 1.185zm1.564-8.43h6.21v1.575h-4.245V13.3h3.54v1.575h-3.54v2.535h4.44v1.575h-6.405V9.49z" fill="#3D4E76"/>
        <path d="M48.747 57.314h28.506M48.747 53.16h28.506M51.726 61.859l-.072 19.88M74.438 61.859v19.973M48.21 82.457l29.092.13" stroke="#3D4E76" stroke-width=".882" stroke-linecap="round" stroke-linejoin="round"/>
        <path clip-rule="evenodd" d="M14.473 41.506h7.516V33.98h-7.516v7.527zM32.342 41.506h7.516V33.98h-7.516v7.527z" stroke="#3D4E76" stroke-width=".882" stroke-linecap="round" stroke-linejoin="round"/>
        <path fill-rule="evenodd" clip-rule="evenodd" d="M50.212 41.506h7.516V33.98h-7.516v7.527z" fill="#fff"/>
        <path clip-rule="evenodd" d="M50.212 41.506h7.516V33.98h-7.516v7.527zM85.95 41.506h7.517V33.98H85.95v7.527zM103.82 41.506h7.517V33.98h-7.517v7.527zM68.081 41.506h7.516V33.98h-7.516v7.527zM14.473 59.828h7.516V52.3h-7.516v7.528zM32.342 59.828h7.516V52.3h-7.516v7.528zM85.95 59.828h7.517V52.3H85.95v7.528zM103.82 59.828h7.517V52.3h-7.517v7.528zM14.473 78.149h7.516V70.62h-7.516v7.528zM32.342 78.149h7.516V70.62h-7.516v7.528zM85.95 78.149h7.517V70.62H85.95v7.528zM103.82 78.149h7.517V70.62h-7.517v7.528z" stroke="#3D4E76" stroke-width=".882" stroke-linecap="round" stroke-linejoin="round"/>
    </g>
    <defs>
        <clipPath id="p9vvr58jla">
            <path fill="#fff" d="M0 0h126v87H0z"/>
        </clipPath>
    </defs>
</svg>
