<svg xmlns="http://www.w3.org/2000/svg" viewBox="0 0 255.75 215.31"><defs><style>.cls-1{fill:#FBB015;}</style></defs><title>internal external 2</title><g id="Layer_2" data-name="Layer 2"><g id="Layer_1-2" data-name="Layer 1"><path class="cls-1" d="M255.73,201.64c0,9-4.84,13.65-14.09,13.65q-51.75,0-103.48,0H117.72q-51.24,0-102.48,0C4.38,215.3,0,211,0,200.28V38.33c0-10.2,4.47-14.75,14.49-14.76,12.33,0,39.66,0,52,0,2.83,0,5.89.17,6,3.63.17,3.86-3,4.14-6,4.13-12.5,0-40,.09-52.49-.06-4.44-.06-6.31,1.55-6.3,6.12q.12,82,0,164c0,4.44,1.58,6.29,6.14,6.28q114-.1,227.93,0c4.45,0,6.3-1.57,6.29-6.14q-.12-82,0-163.95c0-4.45-1.6-6.33-6.15-6.27-12.33.15-37.66,0-50,.05-3.06,0-6.75.22-6.66-4s3.85-3.77,6.86-3.77c12.33,0,37.66,0,50,0,8.8,0,13.62,4.81,13.62,13.61Q255.78,119.41,255.73,201.64Z"/><path class="cls-1" d="M152.85,43.81q0-10.33,0-20.65,0-9,0-18.08c0-2.37-.14-5.15,3.11-5.08,2.93.07,2.87,2.7,2.86,4.95q0,17.31,0,34.62c0,1.4,0,2.8,0,5.38,4.14-4.13,7.52-7.67,11.09-11,1.76-1.64,3.49-5.31,6.45-2.15,2.69,2.87-.77,4.52-2.38,6.18-4.89,5.08-10,9.94-14.89,15-2.26,2.35-4,2.57-6.38.11-5.32-5.55-10.84-10.92-16.28-16.36-1.5-1.51-3.12-3.12-1-5.19s3.72-.37,5.18,1.13c3.75,3.85,7.47,7.73,11.2,11.6Z"/><path class="cls-1" d="M105,11.08q0,10.33,0,20.65,0,9,0,18.08c0,2.37.14,5.15-3.11,5.08C99,54.83,99,52.2,99,49.94q0-17.31,0-34.62c0-1.4,0-2.8,0-5.38-4.14,4.13-7.52,7.67-11.09,11-1.76,1.64-3.49,5.31-6.45,2.15-2.69-2.87.77-4.52,2.38-6.18,4.89-5.08,10-9.94,14.89-15,2.26-2.35,4-2.57,6.38-.11,5.32,5.55,10.84,10.92,16.28,16.36,1.5,1.51,3.12,3.12,1,5.19s-3.72.37-5.18-1.13c-3.75-3.85-7.47-7.73-11.2-11.6Z"/><path class="cls-1" d="M98.5,174.82C95.44,185,88.82,191.29,78.16,191.3s-17.36-6.14-20.42-16.57c-4.05,0-8,.15-12,0a17.64,17.64,0,0,1-17-16.81c-.31-7.46-.21-14.94,0-22.41.13-5.91,4-10.15,10.41-11.78,7.09-1.81,14.23-3.45,21.26-5.43a8.88,8.88,0,0,0,4.43-3.13c3.47-4.79,6.63-9.8,9.91-14.72a16.48,16.48,0,0,1,14.59-7.86q30.14.07,60.29,0c6.21,0,10.85,2.74,14.28,7.73,3,4.34,5.86,8.76,9.06,13.57,4-6,8-11.65,11.63-17.51a7.34,7.34,0,0,1,7.27-3.84c6.95.21,13.91.07,20.87.06,2.8,0,5.34.41,5.38,4s-2.42,4.09-5.27,4.08c-5.93,0-11.86.12-17.78-.06a5.3,5.3,0,0,0-5.28,2.9c-3,4.89-6.33,9.61-9.81,14.82l22.51,3.81c4.69.79,9.4,1.47,14.06,2.38a12.19,12.19,0,0,1,10,12c.1,5.41.52,10.88-.15,16.21-.46,3.68-2.25,7.3-3.92,10.71-5.83,11.9-4.92,11.51-18.32,11.41-.52,0-1,0-1.55,0-5.56-.58-9.63,0-12.35,6.52-3,7.27-10.27,10.34-18.18,10-8.58-.42-14.94-4.83-18-12.89-1.17-3-2.63-3.66-5.55-3.64C131.86,174.89,115.24,174.82,98.5,174.82Zm21.41-41.12c12.24,0,24.48,0,36.72,0,4.8,0,6.61-3,4.21-7.1-3-5.09-6.06-10.17-9.45-15a6.72,6.72,0,0,0-4.72-2.51q-27.25-.26-54.5,0A7.33,7.33,0,0,0,87,112.14c-2.77,4.31-5,9-7.39,13.53-2.89,5.44-1.38,8,4.7,8Q102.13,133.73,119.91,133.7Zm-29.44,37a12.36,12.36,0,1,0-12.21,12.41A12.48,12.48,0,0,0,90.47,170.75Zm70.26-.21a12.31,12.31,0,0,0,11.86,12.63,12.37,12.37,0,1,0,.53-24.72A12.3,12.3,0,0,0,160.73,170.54Z"/><path class="cls-1" d="M206.72,61.61c-4.48,2.17-8.18,1.78-11.34-1.71-1.14-1.25-2.44-1.59-3.89-.59s-1.37,2.28-.67,3.65a8.38,8.38,0,0,1-5.05,12c2.94,2.72,1.89,6.2,1.44,9.35-.27,1.88-2.37,2-4.08,1.64-4.51-.91-7.66-3.52-8.88-8a10.22,10.22,0,0,1,3.84-11.47c1.37-1.06,1.58-1.88,1.37-3.56-.72-5.75,1.64-10.31,6.48-13.34s9.83-2.75,14.58.26a4.58,4.58,0,0,0,4,.76c5.2-1.24,10.16,1.51,12.5,6.39a4.71,4.71,0,0,0,2.4,2.21,13.8,13.8,0,0,1-2.62,26.8c-3.16.42-4.41-.69-4.44-4,0-1.12,0-2.24,0-3.35-.07-2,.7-3.26,2.81-3.61,1.61-.27,2.75-1.21,2.6-3s-1.33-2.42-3-2.58C210.08,69.12,207.54,66.36,206.72,61.61Z"/></g></g></svg>
