<svg width="24" height="25" viewBox="0 0 24 25" fill="none" xmlns="http://www.w3.org/2000/svg">
    <path fill-rule="evenodd" clip-rule="evenodd" d="M9.488 18.816A6.272 6.272 0 0 0 12 19.32c.896 0 1.733-.169 2.512-.505a6.463 6.463 0 0 0 2.032-1.367 6.417 6.417 0 0 0 1.856-4.56c0-.896-.165-1.731-.496-2.505a6.378 6.378 0 0 0-1.36-2.023 6.246 6.246 0 0 0-2.032-1.352A6.45 6.45 0 0 0 12 6.52a6.45 6.45 0 0 0-2.512.488 6.246 6.246 0 0 0-3.392 3.375 6.302 6.302 0 0 0-.496 2.505 6.417 6.417 0 0 0 1.856 4.56 6.463 6.463 0 0 0 2.032 1.367zm7.44-8.296h-2.4a10.407 10.407 0 0 0-.488-1.6 6.974 6.974 0 0 0-.68-1.28c.8.202 1.507.549 2.12 1.04a5.185 5.185 0 0 1 1.448 1.84zm-6.464 0h3.104a6.24 6.24 0 0 0-.592-1.64A6.545 6.545 0 0 0 12 7.48a3.52 3.52 0 0 0-.864 1.136c-.235.469-.459 1.104-.672 1.904zm-1.168 3.824H6.752a4.508 4.508 0 0 1-.152-.712 6.197 6.197 0 0 1-.04-.745c0-.277.013-.517.04-.72.027-.202.077-.431.152-.688h2.56a9.637 9.637 0 0 0-.064.697c-.01.207-.016.445-.016.711 0 .224.003.451.008.68.005.23.024.489.056.777zM10.64 18.2a7.643 7.643 0 0 1-.688-1.313 9.583 9.583 0 0 1-.48-1.584h-2.4c.405.758.875 1.352 1.408 1.784.533.433 1.253.803 2.16 1.113zm-1.152-7.68H7.072a5.441 5.441 0 0 1 1.456-1.84 5.426 5.426 0 0 1 2.096-1.024 7.596 7.596 0 0 0-.688 1.32c-.181.453-.33.968-.448 1.543zM12 18.392c.373-.384.685-.825.936-1.32.25-.496.456-1.086.616-1.768h-3.088c.15.64.35 1.216.6 1.728s.563.965.936 1.36zm1.728-4.048h-3.44c-.043-.331-.07-.6-.08-.808a12.625 12.625 0 0 1 0-1.264c.01-.198.037-.462.08-.793h3.44c.043.331.07.595.08.793a12.625 12.625 0 0 1 0 1.264c-.01.207-.037.477-.08.807zm-.352 3.84a6.404 6.404 0 0 0 2.072-1.105 5.729 5.729 0 0 0 1.48-1.776h-2.384a11.59 11.59 0 0 1-.488 1.569 7.26 7.26 0 0 1-.68 1.311zm3.872-3.84h-2.56c.032-.32.056-.585.072-.792.016-.208.024-.43.024-.665 0-.17-.005-.354-.016-.552-.01-.197-.032-.482-.064-.856h2.544c.075.257.125.486.152.689.027.202.04.442.04.72 0 .277-.013.525-.04.744a4.51 4.51 0 0 1-.152.712z" fill="#1c6dc3"/>
</svg>
