<svg xmlns="http://www.w3.org/2000/svg" viewBox="0 0 308.84 255.31"><defs><style>.cls-1{fill:#FBB015;}</style></defs><title>mechanical damage 3</title><g id="Layer_2" data-name="Layer 2"><g id="Layer_1-2" data-name="Layer 1"><path class="cls-1" d="M297.16,55.66C285.4,54,274.59,52.32,263.74,51c-3.9-.47-5.95-1.84-6.51-5.94-1.33-9.71-3-19.37-4.56-29-.21-1.28-.53-2.54-1-4.64-6.68,5-12.81,9.69-19,14.24-15.25,11.12-9.41,11-24.74.22-6.26-4.38-12.39-8.94-19.29-13.93l-2.18,12.24-7.69-.74c.8-6.09,1.4-11.69,2.29-17.23,1-5.91,3.63-7,8.5-3.5C199.68,10,209.75,17.35,220.24,25L247.59,4.39l.79-.62c7.88-6,9.84-5.12,11.29,4.81,1.48,10.19,3.43,20.32,4.72,30.54.41,3.21,1.74,4.24,4.53,4.6C279.46,45.1,290,46.55,300.54,48c.82.11,1.66.18,2.47.34,5.68,1.15,6.75,3.59,3.4,8.26-6.3,8.79-12.71,17.5-19.07,26.25-1.07,1.48-2.12,3-3.36,4.72q11,14.58,21.92,29.09c4.78,6.33,3.9,8.72-4,10-11.8,1.93-23.63,3.69-36,5.62q-2.11,14.67-4.22,29.41c-.42,3-.68,5.95-1.15,8.9-.77,4.88-3.54,6.1-7.67,3.44-.56-.36-1.11-.74-1.64-1.13-1.46-1.09-2.91-2.19-5-3.78l6-6.6,1.14.91c1.43-10,3-20,4.24-30,1-8,1.16-8.23,8.78-9.36q14.06-2.08,28.1-4.28a22.48,22.48,0,0,0,2.94-1c-6.71-8.92-13-17.66-19.7-26-3.11-3.84-3-6.65-.07-10.45C284.16,73.9,290.25,65.17,297.16,55.66Z"/><path class="cls-1" d="M165.58,50.19c27.8-25.4,27.8-25.4,51.84-1.24,13.53,13.59,13.47,14.85-.7,29.18-4.69,4.74-10.19,8.06-6.34,17.37s9.92,7.95,16.66,8c20.48.11,21,.64,21,21.47q0,1.3,0,2.61c0,28.56,0,28.3-27.62,31.79-3.48.44-7.76,4.77-9.18,8.3s-1.29,9.54.9,12.3c17.23,21.72,17.43,21.56-2.2,41.19-1.23,1.23-2.45,2.47-3.68,3.69-12.67,12.59-15,12.63-27.37.41a35.51,35.51,0,0,1-3.66-3.71c-4.2-5.62-8.66-6.53-15.56-3.73-7.14,2.9-8.21,7.22-8.22,13.91,0,23.58-.24,23.58-23.52,23.59h-5.21c-25.53,0-25.82,0-26-25.4-.06-6.79-2-11.35-8.59-11.75a29.06,29.06,0,0,0-14.19,3.13c-3.68,1.86-6.21,6-9.35,9-5.74,5.49-11.53,5.21-17.2-.15-1.89-1.79-3.69-3.68-5.53-5.52-24-24-24-24-1.6-48.89-1.31-12.67-7.41-18-21.16-17C1.68,159.85.06,157.21,0,139.33c0-1.74,0-3.48,0-5.21,0-28.49,0-28.19,27.84-31,3.74-.38,8.44-5,10-8.78,1.34-3.19.16-9.19-2.22-11.93-17.5-20.13-17.69-20,1.63-39.25l4.61-4.6c13.88-13.83,14.46-13.75,28.87.38,4.6,4.51,7.64,10.59,17.11,6.87,9.69-3.8,8.66-10.16,8.65-17.43C96.5,8.46,97.93,7.09,118,7.05h3.91c27.79,0,27.09.08,30.25,27.09C152.84,39.81,160.72,44.64,165.58,50.19ZM229,123.08c-17.21,1.27-28.71,0-37.13-19.5-8.8-20.33.82-29.09,10.24-38L193,49.91c-12.08,14.8-20.94,21.59-40.83,14-20.93-8-19.38-21.51-19.59-36.32H115.81c.49,16.21.26,28-19.54,36.45-20.77,8.82-29-1.54-40.46-12.75L43.9,63.8C57,74.41,64.82,82.91,56.87,103c-8.09,20.46-20.58,20.85-36.9,20.52v16.17c16.24-.74,28.21-.8,36.56,19.22C65,179.31,56.74,188.2,45,198.61l10.41,13.93c12-12.58,20.26-22.24,40.45-13.81,20,8.33,20.83,20.61,20,36.68h17.37c-2-17-.19-28.19,19.22-36.49,20.17-8.62,29.19.85,40.34,12.61L205,198.68c-15.29-9.93-20.36-20-13-39.6,7.87-20.88,21.53-19.7,37-19.6Z"/><path class="cls-1" d="M125,178.92c-26.7.21-48.32-20.71-48.65-47.09S97.73,84,124.33,84A47.3,47.3,0,0,1,172,130.52C172.35,157.37,151.65,178.71,125,178.92ZM96,131.69c.08,16,13.25,29,28.93,28.66,15-.36,28.08-13.47,28.4-28.42.33-15.71-12.77-28.89-28.8-29C108.17,102.9,95.91,115.25,96,131.69Z"/></g></g></svg>
