<svg xmlns="http://www.w3.org/2000/svg" viewBox="0 0 491 278"><defs><style>.cls-1{fill:#f3f3f3;}.cls-2{fill:none;stroke:#231f20;stroke-miterlimit:10;stroke-width:5px;}.cls-3{font-size:32.81px;}.cls-3,.cls-4{fill:#231f20;font-family:Arial-BoldMT, Arial;font-weight:700;}.cls-4{font-size:32.81px;}.cls-5{letter-spacing:-0.06em;}</style></defs><title>Print 1 Black</title><g id="Layer_2" data-name="Layer 2"><g id="Layer_1-2" data-name="Layer 1"><rect class="cls-1" width="491" height="278"/><rect class="cls-2" x="3.39" y="4.51" width="482.67" height="269.33"/><rect class="cls-2" x="16.72" y="21.85" width="454.67" height="234.67"/><rect class="cls-2" x="70.06" y="69.85" width="328" height="141.33"/><line class="cls-2" x1="266.22" y1="21.85" x2="266.22" y2="69.85"/><line class="cls-2" x1="374.22" y1="21.85" x2="374.22" y2="69.85"/><line class="cls-2" x1="177.22" y1="21.85" x2="177.22" y2="69.85"/><line class="cls-2" x1="87.22" y1="21.85" x2="87.22" y2="69.85"/><line class="cls-2" x1="374.22" y1="210.85" x2="374.22" y2="258.85"/><line class="cls-2" x1="266.22" y1="210.85" x2="266.22" y2="258.85"/><line class="cls-2" x1="176.22" y1="210.85" x2="176.22" y2="258.85"/><line class="cls-2" x1="86.22" y1="210.85" x2="86.22" y2="258.85"/><polygon class="cls-2" points="70.06 121.35 176.22 83.35 176.22 194.35 70.06 158.35 70.06 121.35"/><line class="cls-2" x1="471.39" y1="69.85" x2="398.06" y2="104.35"/><line class="cls-2" x1="471.39" y1="213.35" x2="398.06" y2="179.35"/><polyline class="cls-2" points="391.23 69.85 347.23 83.35 347.23 101.35"/><polyline class="cls-2" points="398.06 211.18 347.23 194.35 347.23 165.35"/><polyline class="cls-2" points="334.23 108.35 334.23 80.35 188.22 80.35 188.22 108.35"/><polyline class="cls-2" points="216.22 114.35 216.22 106.35 188.22 80.35"/><polyline class="cls-2" points="280.23 114.35 280.23 94.35 321.23 80.35"/><polyline class="cls-2" points="334.23 160.35 334.23 196.35 188.22 194.35 188.22 160.35"/><polyline class="cls-2" points="216.22 162.35 216.22 170.35 193.22 194.35"/><polyline class="cls-2" points="280.23 162.35 280.23 179.35 321.23 196.35"/><text class="cls-3" transform="translate(44.48 52.17)">1</text><text class="cls-4" transform="translate(131.87 52.17)">2</text><text class="cls-4" transform="translate(222.06 52.17)">3</text><text class="cls-4" transform="translate(306.72 52.17)">4</text><text class="cls-4" transform="translate(413.08 53.17)">5</text><text class="cls-4" transform="translate(428.08 146.51)">6</text><text class="cls-4" transform="translate(413.08 247.18)">7</text><text class="cls-4" transform="translate(306.72 245.18)">8</text><text class="cls-4" transform="translate(213.39 245.18)">9</text><text class="cls-4" transform="translate(102.72 245.18)">10</text><text class="cls-4" transform="translate(26.72 244.18)"><tspan class="cls-5">1</tspan><tspan x="16.44" y="0">1</tspan></text><text class="cls-4" transform="translate(25.72 146.51)">12</text><text class="cls-4" transform="translate(106.89 146.52)">13</text><text class="cls-4" transform="translate(185.56 146.52)">14</text><text class="cls-4" transform="translate(229.89 146.51)">15</text><text class="cls-4" transform="translate(282.67 146.52)">16</text><text class="cls-4" transform="translate(354.67 147.51)">17</text></g></g></svg>