<svg width="24" height="25" viewBox="0 0 24 25" fill="none" xmlns="http://www.w3.org/2000/svg">
    <path fill-rule="evenodd" clip-rule="evenodd" d="M5.118 19c.211.213.459.32.74.32h12.283c.283 0 .53-.107.741-.32.212-.214.318-.463.318-.747V7.586c0-.284-.106-.533-.318-.746a1.012 1.012 0 0 0-.74-.32H5.858c-.282 0-.53.106-.741.32a1.027 1.027 0 0 0-.318.746v10.667c0 .284.106.533.318.747zm1.94-8.214h3.53V9.364h-3.53v1.422zm0 2.845h3.53v-1.423h-3.53v1.423zm3.53 2.844h-3.53v-1.422h3.53v1.422zm3.212-1.422 3.494-3.52-1.006-1.013-2.488 2.524-1.006-1.013-.988 1.013 1.994 2.009zm-7.941 3.2H18.14V7.586H5.86v10.667z" fill="#2382C9"/>
    <path fill-rule="evenodd" clip-rule="evenodd" d="M5.118 19c.211.213.459.32.74.32h12.283c.283 0 .53-.107.741-.32.212-.214.318-.463.318-.747V7.586c0-.284-.106-.533-.318-.746a1.012 1.012 0 0 0-.74-.32H5.858c-.282 0-.53.106-.741.32a1.027 1.027 0 0 0-.318.746v10.667c0 .284.106.533.318.747zm1.94-8.214h3.53V9.364h-3.53v1.422zm0 2.845h3.53v-1.423h-3.53v1.423zm3.53 2.844h-3.53v-1.422h3.53v1.422zm3.212-1.422 3.494-3.52-1.006-1.013-2.488 2.524-1.006-1.013-.988 1.013 1.994 2.009zm-7.941 3.2H18.14V7.586H5.86v10.667z" fill="#1C6DC3"/>
</svg>
