<svg xmlns="http://www.w3.org/2000/svg" width="313" height="117" viewBox="0 0 313 117" version="1.1"><path d="M 67.759 29.367 C 58.867 32.674, 55.625 36.706, 55.550 44.553 C 55.461 53.897, 60.315 58.206, 75.137 61.942 C 86.215 64.735, 89.158 66.886, 85.559 69.559 C 81.107 72.865, 71 70.327, 71 65.903 C 71 64.061, 70.408 63.940, 62.750 64.210 L 54.500 64.500 54.829 68 C 55.742 77.724, 63.024 82.257, 78.669 82.841 C 87.892 83.186, 89.355 82.984, 94.393 80.678 C 105.544 75.572, 108.349 62.499, 100.008 54.507 C 97.760 52.354, 94.269 50.951, 85.281 48.588 C 75.075 45.906, 73.458 45.200, 73.188 43.305 C 72.936 41.533, 73.600 40.902, 76.688 39.982 C 81.301 38.607, 85.927 40.006, 86.713 43.012 C 87.177 44.784, 88.090 45, 95.117 45 C 102.900 45, 103 44.968, 103 42.450 C 103 38.202, 100.242 34.226, 95.275 31.315 C 91.167 28.908, 89.337 28.516, 81.031 28.264 C 74.693 28.072, 70.247 28.442, 67.759 29.367 M 114 55.500 L 114 82 122.500 82 L 131 82 131 76.212 C 131 70.556, 131.105 70.335, 135.606 66.574 C 139.266 63.514, 140.396 63.009, 141.113 64.112 C 141.608 64.875, 144.116 69.213, 146.686 73.750 L 151.358 82 161.643 82 L 171.928 82 162.464 66.943 C 157.259 58.661, 153 51.408, 153 50.825 C 153 50.242, 156.239 46.105, 160.198 41.632 C 164.158 37.160, 168.286 32.487, 169.373 31.250 L 171.349 29 160.424 29.051 L 149.500 29.102 140.500 40.100 L 131.500 51.098 131.217 40.049 L 130.934 29 122.467 29 L 114 29 114 55.500 M 180 55.500 L 180 82 188.500 82 L 197 82 197 55.500 L 197 29 188.500 29 L 180 29 180 55.500 M 210 55.500 L 210 82 219 82 L 228 82 228 73.500 L 228 65 236.032 65 C 245.329 65, 249.501 63.570, 253.270 59.091 C 258.604 52.752, 259.118 43.056, 254.500 35.906 C 250.529 29.759, 247.574 29, 227.599 29 L 210 29 210 55.500 M 228 46.373 L 228 52 232.800 52 C 238.210 52, 240.007 50.762, 239.985 47.050 C 239.960 42.959, 238.539 41.758, 233.107 41.236 L 228 40.746 228 46.373" stroke="none" fill="#070704" fill-rule="evenodd"/><path d="M 46.500 11.029 C 28.962 13.105, 14.817 24.798, 8.968 42.054 C 7.030 47.772, 6.834 50.025, 7.232 62 C 7.648 74.496, 7.913 76.005, 10.796 82.290 C 17.031 95.881, 30.219 106.320, 44.434 108.916 C 48.458 109.651, 85.117 110, 158.366 110 C 264.246 110, 266.513 109.960, 273.992 107.942 C 283.452 105.389, 290.018 100.669, 295.545 92.450 C 302.170 82.597, 303.500 77.004, 303.500 59 C 303.500 43.709, 303.458 43.412, 300.385 37 C 294.157 24.002, 284.967 16.011, 271.500 11.882 C 267.937 10.789, 55.335 9.984, 46.500 11.029 M 67.759 29.367 C 58.867 32.674, 55.625 36.706, 55.550 44.553 C 55.461 53.897, 60.315 58.206, 75.137 61.942 C 86.215 64.735, 89.158 66.886, 85.559 69.559 C 81.107 72.865, 71 70.327, 71 65.903 C 71 64.061, 70.408 63.940, 62.750 64.210 L 54.500 64.500 54.829 68 C 55.742 77.724, 63.024 82.257, 78.669 82.841 C 87.892 83.186, 89.355 82.984, 94.393 80.678 C 105.544 75.572, 108.349 62.499, 100.008 54.507 C 97.760 52.354, 94.269 50.951, 85.281 48.588 C 75.075 45.906, 73.458 45.200, 73.188 43.305 C 72.936 41.533, 73.600 40.902, 76.688 39.982 C 81.301 38.607, 85.927 40.006, 86.713 43.012 C 87.177 44.784, 88.090 45, 95.117 45 C 102.900 45, 103 44.968, 103 42.450 C 103 38.202, 100.242 34.226, 95.275 31.315 C 91.167 28.908, 89.337 28.516, 81.031 28.264 C 74.693 28.072, 70.247 28.442, 67.759 29.367 M 114 55.500 L 114 82 122.500 82 L 131 82 131 76.212 C 131 70.556, 131.105 70.335, 135.606 66.574 C 139.266 63.514, 140.396 63.009, 141.113 64.112 C 141.608 64.875, 144.116 69.213, 146.686 73.750 L 151.358 82 161.643 82 L 171.928 82 162.464 66.943 C 157.259 58.661, 153 51.408, 153 50.825 C 153 50.242, 156.239 46.105, 160.198 41.632 C 164.158 37.160, 168.286 32.487, 169.373 31.250 L 171.349 29 160.424 29.051 L 149.500 29.102 140.500 40.100 L 131.500 51.098 131.217 40.049 L 130.934 29 122.467 29 L 114 29 114 55.500 M 180 55.500 L 180 82 188.500 82 L 197 82 197 55.500 L 197 29 188.500 29 L 180 29 180 55.500 M 210 55.500 L 210 82 219 82 L 228 82 228 73.500 L 228 65 236.032 65 C 245.329 65, 249.501 63.570, 253.270 59.091 C 258.604 52.752, 259.118 43.056, 254.500 35.906 C 250.529 29.759, 247.574 29, 227.599 29 L 210 29 210 55.500 M 228 46.373 L 228 52 232.800 52 C 238.210 52, 240.007 50.762, 239.985 47.050 C 239.960 42.959, 238.539 41.758, 233.107 41.236 L 228 40.746 228 46.373" stroke="none" fill="#f7e513" fill-rule="evenodd"/></svg>