<svg width="74" height="42" viewBox="0 0 74 42" fill="none" xmlns="http://www.w3.org/2000/svg">
<path id="Stroke 329 Copy 2" d="M57.7776 9.53008C66.1174 9.53008 72.8786 16.5579 72.8786 25.2276C72.8786 33.8974 66.1174 40.9259 57.7776 40.9259C53.9535 40.9259 50.4716 39.4362 47.8108 37.0002C44.6295 39.4554 40.7021 40.9259 36.4353 40.9259C31.617 40.9259 27.2265 39.0596 23.8632 36.0028C21.5007 39.0067 17.9094 40.9259 13.8857 40.9259C6.7685 40.9259 1 34.9284 1 27.5301C1 20.1318 6.7685 14.1351 13.8857 14.1351C15.4147 14.1351 16.8755 14.4264 18.2369 14.9347C20.717 6.94313 27.9228 1.15796 36.4353 1.15796C39.4147 1.15796 42.2319 1.86819 44.7424 3.13362" stroke="#3D4E76" stroke-width="0.852046" stroke-linecap="round" stroke-linejoin="round"/>
</svg>
