<svg width="106" height="89" viewBox="0 0 106 89" fill="none" xmlns="http://www.w3.org/2000/svg">
    <path fill-rule="evenodd" clip-rule="evenodd" d="M1 21.116h10.5v-7.544H1v7.544zM94 21.116h10.5v-7.544H94v7.544z" fill="#fff"/>
    <path d="M94.5 27.653V1H12v26.653" stroke="#3D4E76" stroke-width="1.059" stroke-linecap="round" stroke-linejoin="round"/>
    <path d="M11.112 6.029H1v22.127h104v-17.45M104.5 6.08H98M5.639 32.682 5.861 88M11.639 32.682 11.861 88M94.75 32.682V88M101.25 32.682V88" stroke="#3D4E76" stroke-width="1.059" stroke-linecap="round" stroke-linejoin="round"/>
    <path fill-rule="evenodd" clip-rule="evenodd" d="M66 78.95a.5.5 0 0 0-.5.5V88a.5.5 0 0 0 .5.5h23.5a.5.5 0 0 0 .5-.5v-7.266a.5.5 0 0 0-.625-.485l-12.179 3.136-9.574-2.407a.5.5 0 0 0-.244.97l7.792 1.959-7.607 1.958a.5.5 0 1 0 .25.969l9.386-2.417 10.18 2.56a.5.5 0 1 0 .243-.97l-8.397-2.112L89 81.38V87.5H66.5v-7.55h19.866a.5.5 0 1 0 0-1H66zM39 78.95a.5.5 0 0 0-.5.5V88a.5.5 0 0 0 .5.5h23.5a.5.5 0 0 0 .5-.5v-7.266a.5.5 0 0 0-.625-.485l-12.158 3.13-9.593-2.411a.51.51 0 0 0-.248.989l7.774 1.955-7.587 1.953a.5.5 0 1 0 .25.969l9.366-2.412 10.197 2.564a.51.51 0 1 0 .248-.99l-8.378-2.106L62 81.379V87.5H39.5v-7.55h19.866a.5.5 0 1 0 0-1H39zM42.896 57.203a.5.5 0 0 0-.147.691l4.656 7.17a.5.5 0 0 0 .692.147l19.708-12.799a.5.5 0 0 0 .147-.691l-3.957-6.094a.5.5 0 0 0-.788-.066l-8.506 9.263-9.341 3.195a.5.5 0 1 0 .324.946l7.602-2.6-5.314 5.785a.5.5 0 0 0 .737.677l6.556-7.14 9.931-3.397a.5.5 0 1 0-.324-.946l-8.192 2.802 6.828-7.434 3.333 5.134L47.971 64.1l-4.111-6.33 16.66-10.82a.5.5 0 1 0-.544-.84l-17.08 11.093zM66 67.384a.5.5 0 0 0-.5.5v8.55a.5.5 0 0 0 .5.5h10a.5.5 0 0 0 .5-.5v-7.267a.5.5 0 0 0-.78-.415l-4.169 2.81-3.241-2.561a.5.5 0 1 0-.62.784l2.99 2.364-3.204 2.16a.5.5 0 1 0 .559.829l3.47-2.338 3.185 2.517a.5.5 0 0 0 .81-.387v1.003h-9v-7.549h7.844a.5.5 0 0 0 0-1H66zm9.5 7.537v-4.814l-3.125 2.106 2.935 2.32a.499.499 0 0 1 .19.388zM39 67.384a.5.5 0 0 0-.5.5v8.55a.5.5 0 0 0 .5.5h10a.5.5 0 0 0 .5-.5v-7.267a.5.5 0 0 0-.78-.415l-4.169 2.81-3.241-2.561a.5.5 0 1 0-.62.784l2.99 2.364-3.204 2.16a.5.5 0 1 0 .559.829l3.47-2.338 3.185 2.517a.5.5 0 0 0 .81-.387v1.003h-9v-7.549h7.844a.5.5 0 0 0 0-1H39zm9.5 7.537v-4.814l-3.125 2.106 2.935 2.32a.499.499 0 0 1 .19.388zM73 44.251a.5.5 0 0 0-.5.5v8.55a.5.5 0 0 0 .5.5h10a.5.5 0 0 0 .5-.5v-7.267a.5.5 0 0 0-.78-.414l-4.456 3.003-3.466-2.74a.48.48 0 1 0-.596.754l3.226 2.549-2.952 1.99a.5.5 0 0 0 .559.829l3.217-2.168 2.95 2.331a.48.48 0 1 0 .596-.753l-2.71-2.141 3.412-2.3v5.827h-9v-7.55h7.844a.5.5 0 1 0 0-1H73z" fill="#3D4E76"/>
    <path d="M33.844 79.45H25.5V88h10v-7.266l-8.245 5.556" stroke="#3D4E76" stroke-width="1.059" stroke-linecap="round" stroke-linejoin="round"/>
    <path d="m27 80.96 7 5.531" stroke="#3D4E76" stroke-width=".96" stroke-linecap="round"/>
    <path fill-rule="evenodd" clip-rule="evenodd" d="M79.5 67.384a.5.5 0 0 0-.5.5v8.55a.5.5 0 0 0 .5.5h10a.5.5 0 0 0 .5-.5v-7.267a.5.5 0 0 0-.78-.415l-4.43 2.986-3.474-2.745a.51.51 0 0 0-.632.8l3.218 2.544-2.926 1.972a.5.5 0 1 0 .559.829l3.19-2.15 2.959 2.337a.51.51 0 1 0 .632-.8l-2.702-2.136L89 70.107v5.826h-9v-7.549h7.844a.5.5 0 0 0 0-1H79.5zM52.5 67.384a.5.5 0 0 0-.5.5v8.55a.5.5 0 0 0 .5.5h10a.5.5 0 0 0 .5-.5v-7.267a.5.5 0 0 0-.78-.415l-4.439 2.992-3.471-2.743a.5.5 0 1 0-.62.784l3.22 2.546-2.934 1.978a.5.5 0 1 0 .559.829l3.2-2.156 2.955 2.335a.5.5 0 0 0 .62-.784l-2.705-2.138L62 70.107v5.826h-9v-7.549h7.844a.5.5 0 0 0 0-1H52.5zM80 55.818a.5.5 0 0 0-.5.5v8.55a.5.5 0 0 0 .5.5h10a.5.5 0 0 0 .5-.5V57.6a.5.5 0 0 0-.78-.415l-4.439 2.992-3.471-2.744a.5.5 0 1 0-.62.785l3.22 2.545-2.934 1.978a.5.5 0 0 0 .559.83l3.2-2.157 2.955 2.336a.5.5 0 1 0 .62-.785l-2.705-2.138 3.395-2.287v5.826h-9v-7.55h7.844a.5.5 0 1 0 0-1H80zM66.5 55.818a.5.5 0 0 0-.5.5v8.55a.5.5 0 0 0 .5.5h10a.5.5 0 0 0 .5-.5V57.6a.5.5 0 0 0-.78-.415l-4.439 2.992-3.471-2.744a.5.5 0 1 0-.62.785l3.22 2.545-2.934 1.978a.5.5 0 0 0 .559.83l3.2-2.157 2.955 2.336a.5.5 0 1 0 .62-.785l-2.705-2.138L76 58.541v5.826h-9v-7.55h7.844a.5.5 0 1 0 0-1H66.5z" fill="#3D4E76"/>
    <path d="M1.5 20.663h10M94.5 20.663h10M1.5 13.12h10M94.5 13.12h10" stroke="#3D4E76" stroke-width="1.059" stroke-linecap="round" stroke-linejoin="round"/>
    <path fill-rule="evenodd" clip-rule="evenodd" d="M13 27.15h80V2.006H13V27.15z" fill="#fff"/>
    <g clip-path="url(#frufazc34a)">
        <path d="M30.471 11.872c-.18.27-.46.675-.84 1.215-.8-.35-1.515-.525-2.145-.525-.83 0-1.245.31-1.245.93 0 .28.095.5.285.66.19.16.585.355 1.185.585 1.08.42 1.855.875 2.325 1.365.48.49.72 1.08.72 1.77 0 .97-.365 1.72-1.095 2.25-.6.43-1.345.645-2.235.645-1.05 0-2.17-.38-3.36-1.14l.87-1.215c.58.39 1.325.585 2.235.585 1.03 0 1.545-.415 1.545-1.245 0-.54-.555-1-1.665-1.38-1.79-.6-2.685-1.56-2.685-2.88 0-.8.3-1.435.9-1.905.56-.45 1.305-.675 2.235-.675 1.06 0 2.05.32 2.97.96zm9.482 4.725c0 2.78-1.22 4.17-3.66 4.17-2.44 0-3.66-1.39-3.66-4.17v-5.505h1.98v5.775c0 1.5.56 2.25 1.68 2.25 1.14 0 1.71-.75 1.71-2.25v-5.775h1.95v5.505zm2.407 3.99v-9.48c.14-.03.535-.07 1.185-.12a20.96 20.96 0 0 1 1.485-.075c2.42 0 3.63.99 3.63 2.97 0 1.23-.42 2.13-1.26 2.7-.56.39-1.22.585-1.98.585-.6 0-.965-.04-1.095-.12v3.54H42.36zm1.965-7.995v2.865c.26.1.585.15.975.15.4 0 .715-.14.945-.42.23-.29.345-.685.345-1.185 0-1.01-.445-1.515-1.335-1.515-.51 0-.82.035-.93.105zm6.135 7.995v-9.48c.14-.03.535-.07 1.185-.12a20.96 20.96 0 0 1 1.485-.075c2.42 0 3.63.99 3.63 2.97 0 1.23-.42 2.13-1.26 2.7-.56.39-1.22.585-1.98.585-.6 0-.965-.04-1.095-.12v3.54H50.46zm1.965-7.995v2.865c.26.1.585.15.975.15.4 0 .715-.14.945-.42.23-.29.345-.685.345-1.185 0-1.01-.445-1.515-1.335-1.515-.51 0-.82.035-.93.105zm6.136 7.995v-9.495h1.965v7.92h3.555v1.575h-5.52zm8.878-9.495v9.495h-1.935v-9.495h1.935zm2.161 0h6.21v1.575h-4.245v2.235h3.54v1.575h-3.54v2.535h4.44v1.575H69.6v-9.495zm7.828 9.495v-9.48c.14-.03.535-.07 1.185-.12a20.96 20.96 0 0 1 1.485-.075c2.42 0 3.63.99 3.63 2.97 0 1.07-.435 1.98-1.305 2.73.36.83.975 2.155 1.845 3.975h-1.98c-.49-1.07-1.02-2.22-1.59-3.45-.11.02-.26.03-.45.03-.44 0-.725-.04-.855-.12v3.54h-1.965zm1.965-7.995v2.865c.3.09.625.135.975.135.86 0 1.29-.57 1.29-1.71 0-.93-.445-1.395-1.335-1.395-.51 0-.82.035-.93.105z" fill="#3D4E76"/>
    </g>
    <path d="M1 88.5h104" stroke="#3D4E76" stroke-width=".882" stroke-linecap="round" stroke-linejoin="round"/>
    <defs>
        <clipPath id="frufazc34a">
            <path fill="#fff" transform="translate(22.25 9.587)" d="M0 0h62v15H0z"/>
        </clipPath>
    </defs>
</svg>
