<svg width="88" height="89" viewBox="0 0 88 89" fill="none" xmlns="http://www.w3.org/2000/svg">
    <g clip-path="url(#chq6cjjbma)">
        <path d="M14.278 12.467c.68 2.66 1.23 4.77 1.65 6.33l1.215-6.33h2.025l-2.355 9.495h-1.62l-1.95-6.63-1.965 6.63H9.643l-2.295-9.495h2.01l1.185 6.33c.72-2.62 1.285-4.73 1.695-6.33h2.04zm9.868-.18c1.46 0 2.585.58 3.375 1.74.62.91.93 2.01.93 3.3 0 1.48-.405 2.665-1.215 3.555-.77.84-1.8 1.26-3.09 1.26-1.48 0-2.605-.54-3.375-1.62-.62-.85-.93-1.915-.93-3.195 0-1.5.405-2.725 1.215-3.675.77-.91 1.8-1.365 3.09-1.365zm0 8.205c.72 0 1.275-.27 1.665-.81.39-.55.585-1.335.585-2.355 0-1.09-.215-1.94-.645-2.55-.4-.54-.935-.81-1.605-.81-.72 0-1.28.295-1.68.885-.39.59-.585 1.415-.585 2.475 0 2.11.755 3.165 2.265 3.165zm6.11 1.47v-9.48c.14-.03.535-.07 1.185-.12a20.96 20.96 0 0 1 1.485-.075c2.42 0 3.63.99 3.63 2.97 0 1.07-.435 1.98-1.305 2.73.36.83.975 2.155 1.845 3.975h-1.98c-.49-1.07-1.02-2.22-1.59-3.45-.11.02-.26.03-.45.03-.44 0-.725-.04-.855-.12v3.54h-1.965zm1.965-7.995v2.865c.3.09.625.135.975.135.86 0 1.29-.57 1.29-1.71 0-.93-.445-1.395-1.335-1.395-.51 0-.82.035-.93.105zm7.776-1.5v3.915c1.32-1.79 2.28-3.095 2.88-3.915h2.414c-1.03 1.35-2.17 2.84-3.42 4.47 1.31 1.57 2.685 3.245 4.125 5.025h-2.61c-.92-1.23-2.035-2.71-3.345-4.44h-.044v4.44h-1.86v-9.495h1.86zm12.955.78c-.18.27-.46.675-.84 1.215-.8-.35-1.515-.525-2.145-.525-.83 0-1.245.31-1.245.93 0 .28.095.5.285.66.19.16.585.355 1.185.585 1.08.42 1.855.875 2.325 1.365.48.49.72 1.08.72 1.77 0 .97-.365 1.72-1.095 2.25-.6.43-1.345.645-2.235.645-1.05 0-2.17-.38-3.36-1.14l.87-1.215c.58.39 1.325.585 2.235.585 1.03 0 1.545-.415 1.545-1.245 0-.54-.555-1-1.665-1.38-1.79-.6-2.685-1.56-2.685-2.88 0-.8.3-1.435.9-1.905.56-.45 1.305-.675 2.235-.675 1.06 0 2.05.32 2.97.96zm4.097 8.715h-1.935v-9.495h1.935v3.81h4.08v-3.81h1.965v9.495H61.13v-4.11h-4.08v4.11zm12.156-9.675c1.46 0 2.585.58 3.375 1.74.62.91.93 2.01.93 3.3 0 1.48-.405 2.665-1.215 3.555-.77.84-1.8 1.26-3.09 1.26-1.48 0-2.605-.54-3.375-1.62-.62-.85-.93-1.915-.93-3.195 0-1.5.405-2.725 1.215-3.675.77-.91 1.8-1.365 3.09-1.365zm0 8.205c.72 0 1.275-.27 1.665-.81.39-.55.585-1.335.585-2.355 0-1.09-.215-1.94-.645-2.55-.4-.54-.935-.81-1.605-.81-.72 0-1.28.295-1.68.885-.39.59-.585 1.415-.585 2.475 0 2.11.755 3.165 2.265 3.165zm6.11 1.47v-9.48c.14-.03.534-.07 1.184-.12a20.96 20.96 0 0 1 1.485-.075c2.42 0 3.63.99 3.63 2.97 0 1.23-.42 2.13-1.26 2.7-.56.39-1.22.585-1.98.585-.6 0-.965-.04-1.095-.12v3.54h-1.965zm1.964-7.995v2.865c.26.1.585.15.975.15.4 0 .715-.14.945-.42.23-.29.345-.685.345-1.185 0-1.01-.445-1.515-1.335-1.515-.51 0-.82.035-.93.105z" fill="#F6941C"/>
    </g>
    <path d="M83.641 5.485H11M1 1h86v27.783H1V5.682M6.02 32.676v54.826M11.205 32.676v54.826" stroke="#F6941C" stroke-width=".882" stroke-linecap="round" stroke-linejoin="round"/>
    <path clip-rule="evenodd" d="M39.248 53.457c0 .86-.698 1.556-1.56 1.556-.86 0-1.56-.697-1.56-1.556 0-.86.7-1.556 1.56-1.556.862 0 1.56.696 1.56 1.556zM52.545 53.457c0 .86-.698 1.556-1.56 1.556-.861 0-1.56-.697-1.56-1.556 0-.86.699-1.556 1.56-1.556.862 0 1.56.696 1.56 1.556z" stroke="#F6941C" stroke-width=".588" stroke-linecap="round" stroke-linejoin="round"/>
    <path clip-rule="evenodd" d="M33.749 62.4h4.498v-4.275h-4.498V62.4zM50.066 62.4h4.498v-4.275h-4.498V62.4zM54.095 47.99v-1.768c0-4.336-2.44-7.884-6.785-7.884h-5.87c-4.346 0-6.785 3.548-6.785 7.884v1.767c0 .247-.13.474-.342.6a2.788 2.788 0 0 0-1.372 2.394v7.11H55.81v-7.11a2.788 2.788 0 0 0-1.373-2.394.696.696 0 0 1-.341-.6z" stroke="#F6941C" stroke-width=".882" stroke-linecap="round" stroke-linejoin="round"/>
    <path d="M39.642 47.904h9.685M77.87 32.676v54.826M1 87.5h86M61.709 51.09l.168 36.434M26.734 51.09l.169 36.434M29.232 65.046h29.979M83.25 33v54.825" stroke="#F6941C" stroke-width=".882" stroke-linecap="round" stroke-linejoin="round"/>
    <defs>
        <clipPath id="chq6cjjbma">
            <path fill="#fff" transform="translate(6.244 10.962)" d="M0 0h76v15H0z"/>
        </clipPath>
    </defs>
</svg>
