<svg width="281" height="65" viewBox="0 0 281 65" fill="none" xmlns="http://www.w3.org/2000/svg">
    <path fill-rule="evenodd" clip-rule="evenodd" d="M207.844 26.265c0 1.84.251 2.454 1.172 2.862 1.325.587 2.884.058 3.357-1.139.721-1.826.109-4.043-1.244-4.509-1.987-.683-3.284.417-3.285 2.787zm6.242 4.98c-2.167 1.045-4.948 1.122-7.791-.064-.304-.126-.771-.171-1.04-.027-2.161 1.159-4.276 1.01-6.442-.003-.405-.19-1.072-.197-1.46.009-1.943 1.032-3.951.958-5.957.408-1.375-.377-2.097-1.449-2.109-2.858-.034-4.269.016-8.538-.031-12.807-.015-1.422.974-.96 1.692-1.055.913-.12 1.417.116 1.401 1.203-.05 3.455-.026 6.911-.009 10.367.009 1.913.488 2.33 2.333 2.365 1.327.025 1.861-.607 1.852-1.843-.011-1.677.031-3.357-.055-5.03-.079-1.545 1.002-1.178 1.858-1.255.958-.086 1.394.254 1.349 1.29-.069 1.622.003 3.25-.023 4.877-.024 1.521.718 2.021 2.199 1.978 2.145-.062 2.649-.329 2.781-1.942.029-.354.019-.71.026-1.066.065-3.54 1.462-4.998 5.014-5.123.96-.033 1.949.04 2.887.24 1.882.403 2.878 1.57 3.114 3.486.074.603.067 1.217.079 1.826.045 2.218.782 2.829 2.935 2.509 1.095-.163 1.584-.69 1.572-1.826-.037-3.506.032-7.014-.03-10.52-.021-1.18.312-1.594 1.551-1.58 1.246.012 1.677.36 1.649 1.645-.08 3.708-.016 7.42-.035 11.13-.015 3.034-1.045 4.207-4.089 4.295-1.511.044-3.036-.348-5.221-.628zM33.409 26.394c.005 2.15.64 2.965 2.314 2.961 1.679-.003 2.366-.868 2.367-2.976 0-2.205-.69-3.058-2.448-3.025-1.658.03-2.239.821-2.233 3.04zm-21.93-5.623c3.174-.38 3.173-.38 3.174 2.436 0 1.168-.015 2.338.017 3.505.037 1.322.656 2.093 2.078 2.07a78.479 78.479 0 0 1 3.368.002c1.17.032 1.672-.53 1.667-1.66-.009-1.727.053-3.456 0-5.182-.045-1.47.936-1.222 1.854-1.283 1.019-.068 1.357.32 1.32 1.312-.062 1.624-.013 3.252-.022 4.878-.008 1.317.602 1.917 1.96 1.945 2.467.05 3.054-.21 3.248-1.776.081-.653.046-1.32.079-1.979.126-2.52 1.39-3.94 3.908-4.286a12.011 12.011 0 0 1 2.595-.073c3.194.262 4.408 1.592 4.462 4.788.006.305.003.61.003.915 0 4.402-1.183 5.626-5.64 5.527-1.427-.031-2.846-.458-4.676-.774-1.961 1.158-4.41 1.255-6.907-.122-.261-.144-.724-.232-.943-.099-2.405 1.462-4.982 1.191-7.578.83-.192-.027-.39-.004-.573-.004-1.418 5.146-6.267 7.32-11.24 5.08-1.406-.633-2.422-1.691-2.48-3.218-.119-3.087-.036-6.18-.036-9.264.208-.082.343-.173.486-.185 2.603-.231 2.602-.23 2.604 2.382.001 1.88.033 3.76-.002 5.64-.024 1.277.622 2.163 1.782 2.287 1.33.143 2.75.078 4.042-.245 1.152-.288 1.463-1.421 1.456-2.585-.02-3.049-.007-6.098-.007-9.146V20.77zM114.788 28.382l2.426.27-1.63-10.382c.606-.043 1.052-.053 1.491-.112 1.2-.162 1.683.292 1.821 1.547.303 2.766.799 5.511 1.571 8.272.052-.508.148-1.016.149-1.524.009-3.406.046-6.814-.035-10.218-.03-1.243.533-1.386 1.565-1.41 1.111-.025 1.545.292 1.524 1.457-.061 3.406-.03 6.813-.015 10.22.009 1.852.34 2.23 1.873 2.273 2.401.067 3.176-.418 3.263-2.193a60.6 60.6 0 0 0 .043-4.879c-.035-1.122.668-1.098 1.405-1.042.728.056 1.764-.374 1.75 1.015-.017 1.627-.024 3.254.019 4.88.043 1.665.733 2.29 2.377 2.255 1.548-.033 2.146-.654 2.158-2.276.01-1.36.002-2.721.002-4.183h2.864c0 1.46-.012 2.817.003 4.174.018 1.611.706 2.272 2.341 2.286 1.567.013 2.193-.603 2.205-2.216.014-1.918.003-3.836.003-5.851h2.926c0 2.942.111 5.86-.079 8.76-.046.704-.961 1.717-1.682 1.944-2.369.749-4.801.84-7.133-.508-2.466 1.268-5.042 1.414-7.683.24-.259-.116-.675-.022-.966.099-2.074.862-4.13.98-6.21.01-.273-.127-.709-.16-.967-.032-2.104 1.054-4.288.669-6.45.358-.347-.05-.816-.562-.887-.927-.141-.718-.042-1.481-.042-2.307zM84.892 28.735c-.228-1.323-.456-2.55-.649-3.78-.195-1.245-.921-1.733-2.141-1.572-1.17.155-1.791.771-1.87 1.993-.199 3.11.132 3.475 3.321 3.424.397-.006.794-.038 1.34-.065zm21.155-2.438c0 .202-.005.405.001.608.045 1.695.715 2.435 2.218 2.457 1.584.024 2.317-.742 2.364-2.485.012-.456.025-.915-.009-1.368-.119-1.573-.953-2.27-2.522-2.138-1.544.13-2.036.831-2.052 2.926zm-21.149 3.307c0 .483.116.982-.034 1.383-.138.369-.55.886-.86.899-1.372.056-2.76.04-4.123-.111-1.61-.18-2.6-1.177-2.706-2.808a39.336 39.336 0 0 1 .02-5.176c.097-1.462.971-2.576 2.44-2.744 1.748-.201 3.545-.191 5.301-.042 1.22.104 1.919 1.051 2.2 2.253.3 1.286.619 2.567.94 3.848.284 1.126.953 1.659 2.186 1.7 4.163.136 4.22.117 4.223-3.969 0-.61.002-1.22-.002-1.83-.014-2.565.192-2.72 3.038-2.076 0 1.817-.012 3.685.003 5.553.015 1.888.418 2.296 2.206 2.306 2.593.015 3.049-.31 3.116-2.236.019-.559-.011-1.12.018-1.677.114-2.229 1.259-3.61 3.451-4.027.894-.17 1.829-.209 2.741-.18 3.344.102 4.69 1.486 4.74 4.791.008.508.007 1.017.002 1.525-.034 3.665-1.272 4.95-5.01 4.912-1.629-.017-3.254-.365-5.469-.633-1.747 1.067-4.154 1.046-6.638-.142-.395-.189-1.042-.105-1.476.08-2.62 1.114-5.298 1.063-7.93.264-.866-.264-1.534-1.178-2.377-1.863zM70.129 15c0 4.692.055 9.306-.032 13.917-.029 1.533-1.172 2.734-2.745 2.798-3.526.144-7.102.39-10.577-.044-1.812-.226-3.369-.528-5.224-.008-1.701.476-3.643.254-5.463.12-1.948-.145-3.04-1.36-3.073-3.337-.07-4.165-.011-8.331-.063-12.496-.016-1.345.875-1.07 1.66-1.111.896-.049 1.578-.01 1.554 1.23-.064 3.35-.035 6.704-.026 10.058.007 2.333.284 2.599 2.653 2.672 3.776.118 3.806.088 3.802-3.738-.001-1.067.064-2.139-.015-3.2-.096-1.288.715-1.207 1.573-1.197.838.01 1.65-.114 1.586 1.188-.082 1.672.016 3.353-.03 5.028-.037 1.376.596 1.913 1.944 1.901 1.872-.016 2.5-.382 2.521-1.858.048-3.505.086-7.012 0-10.516-.034-1.348.502-1.572 1.693-1.598 1.259-.029 1.55.429 1.529 1.594-.064 3.454-.04 6.909-.007 10.363.015 1.602.702 2.161 2.18 1.958 1.153-.16 1.488-.879 1.483-1.93-.015-3.15.001-6.3.003-9.45.001-2.703 0-2.703 3.073-2.345zM148.162 28.425l2.235.28-1.59-10.435c.596-.048.996-.056 1.388-.116 1.284-.196 1.748.316 1.898 1.628a46.929 46.929 0 0 0 1.639 8.05c.037-.46.105-.92.106-1.38.009-3.096.002-6.192.003-9.288 0-2.613.1-2.686 3.01-2.079v6.758c0 2.08.034 4.162-.009 6.242-.048 2.316-1.228 3.598-3.53 3.774-1.162.09-2.34-.062-3.51-.04-1.326.024-1.838-.574-1.65-1.864.063-.437.01-.891.01-1.53zM171.699 26.34c-.003 2.22.611 3.033 2.278 3.013 1.73-.02 2.384-.838 2.381-2.979-.003-2.234-.591-2.99-2.323-2.994-1.726-.003-2.332.765-2.336 2.96zm7.921-.057c-.1.902-.101 1.828-.322 2.7-.395 1.56-1.402 2.604-3.073 2.733-1.412.109-2.848.177-4.251.043-1.881-.18-3.067-1.204-3.309-3.032-.209-1.583-.16-3.232.022-4.824.185-1.615 1.303-2.586 2.899-2.931.692-.15 1.402-.277 2.107-.298 4.295-.133 5.833 1.354 5.927 5.609zM127.795 47.348c-.322 1.367-.656 2.732-.962 4.103-.255 1.144-.522 2.1-2.1 2.061-1.48-.036-1.737-.915-1.981-2.014-.292-1.309-.646-2.603-.974-3.903l-.516.022c0 1.902-.023 3.804.009 5.706.017.948-.156 1.527-1.333 1.498-1.211-.029-1.116-.741-1.078-1.534.11-2.332.213-4.665.312-6.997.038-.885.22-1.688 1.336-1.638 1.082.048 2.471-.54 2.895 1.156.429 1.714.838 3.432 1.355 5.553.498-1.991.986-3.598 1.288-5.239.351-1.911 1.772-1.455 2.98-1.478 1.397-.026 1.263 1.029 1.301 1.937.096 2.333.184 4.666.287 7 .034.768-.134 1.258-1.08 1.24-.847-.018-1.198-.33-1.188-1.173.024-2.073.007-4.146.007-6.219l-.558-.081zM28.47 50.96c.407-1.665.87-3.319 1.205-4.998.372-1.866 1.803-1.242 2.922-1.316 1.161-.077 1.281.786 1.324 1.634.121 2.436.209 4.874.34 7.31.044.8-.144 1.226-1.072 1.239-.934.012-1.278-.327-1.264-1.242.035-2.173.011-4.346.011-6.519l-.482-.052c-.382 1.592-.791 3.18-1.137 4.78-.23 1.065-.671 1.711-1.922 1.71-1.203 0-1.73-.473-1.956-1.629-.304-1.561-.778-3.09-1.178-4.633l-.472.026c0 1.954-.006 3.908.003 5.861.005.906.049 1.762-1.3 1.689-1.4-.076-.963-1.086-.95-1.793.043-2.234.181-4.466.256-6.7.03-.872.089-1.72 1.251-1.672 1.13.047 2.57-.55 2.973 1.266.373 1.682.784 3.357 1.178 5.035l.27.005zM52.09 50.798v-6.04h2.324c0 3.016.038 6.001-.048 8.982-.01.362-.721 1.028-1.043.992-.765-.087-1.787-.3-2.171-.84-.875-1.227-1.429-2.68-2.115-4.042-.24-.473-.484-.944-.993-1.352 0 1.5.002 3 0 4.5-.003 1.911-.029 1.931-2.27 1.628v-5.229c0-1.016-.101-2.047.039-3.043.082-.59.428-1.466.865-1.617.89-.309 1.924-.293 2.46.864.825 1.778 1.698 3.532 2.55 5.297l.402-.1zM180.385 34.747c3.94.075 3.94.075 3.943-3.814.003-2.996.063-5.993-.016-8.986-.036-1.385.803-1.25 1.685-1.268.889-.017 1.556.016 1.533 1.256-.069 3.806-.002 7.614-.031 11.422-.021 2.644-1.07 3.756-3.73 4.068-.404.048-.813.07-1.221.073-2.428.02-2.539-.118-2.163-2.751zM208.302 51.381V44.83c2.111-.392 2.17-.35 2.175 1.532.006 2.235.063 4.473-.034 6.704-.026.577-.43 1.483-.863 1.626-.876.287-1.91.327-2.458-.855-.871-1.878-1.826-3.718-2.974-5.542 0 1.733-.02 3.467.008 5.2.013.831-.159 1.33-1.17 1.336-1.027.005-1.163-.512-1.156-1.336.019-2.387-.06-4.777.033-7.16.022-.567.452-1.452.892-1.597.877-.288 1.92-.34 2.471.832.922 1.962 1.904 3.896 2.862 5.841l.214-.029zM161.85 44.763c0 3.065.03 6.048-.04 9.028-.008.339-.615.975-.869.94-.774-.108-1.827-.257-2.202-.788-.897-1.27-1.463-2.771-2.173-4.174-.218-.43-.47-.842-.998-1.202 0 1.649-.024 3.298.01 4.945.017.86-.214 1.317-1.197 1.31-1.013-.008-.989-.612-.986-1.31.012-2.384-.041-4.77.045-7.152.02-.574.356-1.485.763-1.626.897-.311 1.94-.263 2.477.85.771 1.6 1.547 3.197 2.323 4.793.109.222.235.436.648.643 0-1.518-.004-3.035.001-4.553.005-1.946.008-1.946 2.198-1.704zM185.153 49.18c.985-.276 1.859-.392 2.571-.793.24-.135.247-1.363.051-1.459-.776-.376-1.674-.5-2.622-.742v2.995zm4.067.673 1.566 4.573c-2.132.708-2.411.56-2.891-1.334-.573-2.258-.742-2.384-2.838-1.958 0 .812-.046 1.664.012 2.508.068.995-.445 1.171-1.3 1.174-.865.003-1.17-.33-1.161-1.171.031-2.636.038-5.272.001-7.908-.012-.856.342-1.206 1.157-1.198 1.371.012 2.783-.172 4.1.1.862.177 1.904.844 2.301 1.59.607 1.138.452 2.48-.673 3.456-.15.13-.343.209-.274.168zM68.504 49.326c1.1-.402 1.971-.593 2.665-1.05.215-.141.11-1.369-.13-1.475-.752-.335-1.637-.373-2.535-.538v3.063zm-2.43-4.818c1.741 0 3.264-.072 4.778.022 1.25.077 2.474.39 2.818 1.875.332 1.434.211 2.742-1.075 3.526l1.547 4.532c-2.17.687-2.46.53-2.938-1.398-.552-2.229-.552-2.229-2.795-2.056 0 .907.113 1.867-.053 2.777-.07.392-.713.936-1.105.944-.386.007-1.115-.566-1.125-.902-.089-2.987-.052-5.977-.052-9.32zM180.808 48.38c-.09 1.313-.125 2.631-.285 3.935-.151 1.237-.919 2.04-2.153 2.261-4.001.719-5.975-.46-5.891-4.41.032-1.52.044-3.043-.005-4.562-.029-.935.355-1.225 1.261-1.235.968-.01 1.227.409 1.213 1.285-.027 1.773.026 3.548.019 5.322-.004 1.084.442 1.792 1.581 1.806 1.163.016 1.761-.599 1.749-1.801-.017-1.774.039-3.549.007-5.322-.016-.875.231-1.293 1.204-1.29.948.004 1.272.371 1.229 1.269-.045.91-.01 1.824-.01 2.737l.081.005zM158.746 14.918c.346-.025.651-.026.949-.072 1.42-.221 1.951.264 1.921 1.793-.093 4.714-.045 9.431 0 14.146.008.892-.334 1.245-1.156 1.125-.739-.109-1.96.531-1.965-.929-.019-5.22.026-10.442.054-15.663 0-.09.084-.178.197-.4zM225.231 14.921c.381-.03.58-.054.779-.06 2.206-.067 2.206-.067 2.207 2.057.001 4.46-.034 8.918.027 13.377.016 1.231-.325 1.663-1.626 1.675-1.293.012-1.51-.474-1.498-1.604.052-4.66.02-9.322.025-13.984.001-.445.051-.89.086-1.46zM112.171 50.133h2.117l-1.055-3.812-1.062 3.812zm5.857 4.335c-2.121.639-2.121.639-3.294-2.34-.584 0-1.237.058-1.876-.014-.926-.103-1.35.242-1.582 1.155-.436 1.717-.707 1.808-2.803 1.248.937-3.038 1.815-6.094 2.84-9.1.382-1.118 3.369-1.235 3.761-.14 1.083 3.03 1.983 6.125 2.954 9.191zM196.171 46.776l-.313-.002-.873 3.397h2.061l-.875-3.395zm4.636 7.772c-2.193.513-2.376.493-2.829-1.424-.26-1.101-.922-1.056-1.686-.992-.822.069-1.968-.461-2.157.971-.209 1.59-1.087 2.032-2.691 1.515.033-.347.008-.74.114-1.096.736-2.477 1.559-4.931 2.229-7.426.365-1.359 1.244-1.473 2.409-1.506 1.197-.034 1.725.471 2.039 1.561.81 2.81 1.707 5.593 2.572 8.397zM80.458 50.156l-.914-3.34-.338.03-.864 3.31h2.116zm3.726 4.424c-1.595.48-2.66.385-2.849-1.338-.136-1.25-1.037-1.135-1.912-1.104-.833.03-1.839-.249-1.964 1.047-.165 1.713-1.194 1.872-2.794 1.419.337-1.204.654-2.399 1.007-3.584.522-1.75 1.002-3.517 1.65-5.22.184-.488.88-1.09 1.35-1.097.872-.012 2.344.15 2.529.633 1.15 3.005 2.011 6.12 2.983 9.244zM6.78 50.137l-1.02-3.453-.314.026-.787 3.427h2.12zm3.618 4.297c-2.007.668-2.025.655-3.168-2.234H4.142C2.94 55.03 2.94 55.03.948 54.485c.56-1.927 1.118-3.856 1.683-5.784.2-.681.425-1.355.628-2.034.622-2.072 1.343-2.516 3.443-2.009.34.082.786.391.883.691.975 3.02 1.887 6.058 2.814 9.085zM60.362 46.737a92.229 92.229 0 0 0-.288-.012l-.897 3.43h2.12l-.935-3.418zm4.628 7.823c-2.181.426-2.181.426-3.236-2.425-.58 0-1.233.06-1.87-.014-.984-.113-1.54.219-1.666 1.235-.208 1.676-1.305 1.614-2.724 1.258.307-1.113.583-2.176.895-3.228.49-1.65 1.027-3.286 1.499-4.94.313-1.096.679-1.886 2.123-1.875 1.388.01 2.14.373 2.515 1.773.729 2.724 1.611 5.407 2.464 8.216zM38.771 50.17h2.264l-.994-3.363-.293.014-.977 3.35zm5.875 4.38c-2.068.466-2.068.466-3.23-2.368h-2.982c-1.23 2.862-1.23 2.862-3.262 2.327.276-.956.54-1.915.83-2.866.529-1.749 1.115-3.482 1.596-5.243.334-1.224.866-1.85 2.315-1.834 1.434.015 1.971.63 2.314 1.854.762 2.72 1.606 5.414 2.419 8.13zM95.01 52.637c.56 0 1.138.082 1.675-.032.32-.067.777-.42.804-.683.031-.3-.272-.792-.561-.935-.773-.381-1.629-.59-2.43-.92-1.574-.648-2.258-1.96-1.972-3.693.238-1.438 1.005-2.032 2.888-2.088 1.067-.032 2.154-.02 3.198.164.359.063.614.707.916 1.086-.356.252-.691.673-1.075.722-.853.11-1.735-.019-2.595.06-.319.03-.88.406-.86.56.052.38.293.88.61 1.047.76.402 1.62.611 2.415.952 1.527.654 2.128 1.927 1.88 3.745-.208 1.522-1.255 2.023-2.58 2.078-1.165.048-2.35.023-3.499-.15-.414-.063-.748-.651-1.118-1 .41-.301.79-.674 1.244-.879.296-.134.702-.025 1.06-.025v-.01zM168.032 44.263c.341.031 1.084-.008 1.748.2.35.11.78.657.772.996-.007.287-.567.754-.927.801-.903.118-1.837-.01-2.747.075-.307.028-.787.377-.819.627-.037.29.254.786.535.924.866.424 1.816.676 2.695 1.077 1.488.678 1.934 1.723 1.687 3.675-.181 1.44-1.163 1.985-2.442 2.03a27.092 27.092 0 0 1-3.954-.153c-.309-.035-.798-.63-.769-.927.032-.334.52-.823.873-.885.741-.129 1.535.061 2.284-.04.524-.071 1.011-.41 1.514-.628-.371-.442-.682-.966-1.134-1.302-.39-.291-.944-.362-1.419-.546-1.911-.742-2.682-2.044-2.319-3.9.282-1.444 1.154-1.983 3.284-2.023.255-.005.51 0 1.138 0zM227.962 44.619c.446 1.39.102 1.968-1.198 1.859-.505-.043-1.02.028-1.526-.008-1.369-.097-1.897.473-1.456 2.057.886 0 1.844-.077 2.778.039.358.044.662.527.99.81-.343.317-.653.85-1.036.91-.883.136-1.802.043-2.664.043-.49 2.34-.355 2.521 1.704 2.524.561.001 1.156-.111 1.669.043.366.11.773.54.869.903.058.216-.436.824-.706.84-1.519.09-3.053.152-4.565.027-1.083-.09-1.69-.87-1.693-2-.005-2.028-.024-4.057.017-6.083.023-1.183.66-1.92 1.886-1.953 1.623-.044 3.249-.011 4.931-.011zM216.877 44.288c.657.052 1.356-.013 1.956.201.324.117.638.701.651 1.085.008.25-.528.525-.837.768-.062.05-.198.002-.3.005-3.356.124-4.557 1.85-3.399 5.086.187.523.937 1.019 1.523 1.182.703.197 1.524-.064 2.267.048.356.055.936.547.909.78-.048.402-.418.912-.791 1.092-.477.23-1.09.21-1.647.242-3.397.2-4.803-1.05-4.976-4.414a17.909 17.909 0 0 1 0-1.52c.113-3.474 1.184-4.513 4.644-4.555zM142.169 52.675c.582.256 1.822-.718 1.871.832.011.343-.452.982-.737 1.005-1.357.11-2.811.335-4.067-.033-.905-.265-2.05-1.303-2.216-2.163-.347-1.792-.281-3.715-.071-5.549.175-1.53 1.408-2.298 2.929-2.417.912-.071 1.837-.04 2.752.017.646.04 1.352.044 1.306 1.065-.045 1.02-.698.919-1.38.924-3.196.023-3.478.312-3.451 3.462.021 2.5.428 2.893 3.064 2.857zM101.525 44.67h2.333c0 2.056-.002 4.064.001 6.072.002 2.004.005 1.998 2.033 2.034.7.013 1.4.068 2.178.108v1.824c-1.655 0-3.288.16-4.859-.078-.631-.096-1.57-1.04-1.61-1.647-.175-2.711-.076-5.44-.076-8.313zM11.506 44.693h2.318c0 2.15.092 4.22-.03 6.278-.086 1.432.43 1.966 1.812 1.82.353-.038.718.036 1.07-.008 1.254-.157 1.71.359 1.338 1.855-1.633 0-3.353.156-5.015-.087-.573-.083-1.385-1.137-1.425-1.789-.164-2.623-.068-5.263-.068-8.069zM88.466 44.697h2.428c0 3.19.032 6.311-.063 9.43-.007.239-.905.603-1.398.62-.313.01-.918-.512-.924-.805-.07-3.027-.043-6.056-.043-9.245zM149.082 55.15V44.719h2.188c0 3.164.061 6.245-.084 9.316-.016.35-1.184.648-2.104 1.115zM134.837 44.868c0 3.03.03 6.1-.053 9.168-.007.265-.765.718-1.161.704-.383-.014-1.062-.51-1.07-.81-.08-2.83-.078-5.663-.021-8.494.018-.907.382-.978 2.305-.568zM153.017 34.722c.672.517 1.168.847 1.596 1.25.192.182.382.543.326.758-.051.19-.43.376-.687.417-.549.086-1.14.189-1.662.067-.339-.08-.702-.496-.845-.846-.146-.357.019-.826-.048-1.23-.229-1.397 1.018-2.48 2.386-2.019.203.068.503.323.488.463-.026.245-.215.53-.422.684-.248.183-.586.246-1.132.456zM43.014 13.214c-.055-1.015-.22-1.96-.13-2.879.129-1.287 1.633-1.601 3.06-.567l-1.661.838c.59.501 1.087.88 1.526 1.316.19.188.395.529.343.739-.045.181-.433.362-.688.393-.75.09-1.508.104-2.45.16zM7.517 20.315c-1.144.174-1.806.026-1.802-1.34.004-1.418.8-1.352 1.776-1.37.973-.016 1.632.037 1.614 1.335-.017 1.288-.522 1.645-1.588 1.375zM81.644 17.131c.196 1.04-.272 1.38-1.253 1.335-.903-.042-1.696.044-1.611-1.318.062-1.009.294-1.436 1.38-1.403 1.014.03 1.732.165 1.484 1.386zM170.701 18.332c-.311-2.672-.173-2.799 2.577-2.408v2.408h-2.577z" fill="#1A4172"/>
    <path fill-rule="evenodd" clip-rule="evenodd" d="M50.72 15.57c1.286.252 2.244.23 2.9.661.298.196.263 1.613-.091 1.898-.478.385-1.762.534-2.064.206-.488-.53-.457-1.534-.744-2.764zM199.536 17.139c.209 1.153-.416 1.355-1.413 1.362-1.019.006-1.451-.28-1.469-1.378-.019-1.144.477-1.351 1.471-1.339.979.013 1.638.183 1.411 1.355zM175.677 15.792c.989-.152 1.514.113 1.494 1.258-.018 1.009-.28 1.472-1.373 1.431-.982-.037-1.617-.148-1.575-1.4.036-1.094.443-1.463 1.454-1.289zM85.385 17.093c.216 1.076-.28 1.427-1.33 1.386-.882-.035-1.559-.024-1.532-1.25.024-1.075.279-1.553 1.46-1.48.947.058 1.634.157 1.402 1.344zM54.66 17c-.2-1.491.873-1.149 1.688-1.23 1.135-.112 1.144.57 1.2 1.418.088 1.35-.735 1.24-1.654 1.288-1.197.062-1.373-.56-1.234-1.476zM20.048 36.826c.13-.848-.002-1.859.438-2.288.393-.383 1.686-.427 2.093-.069.456.401.364 1.421.547 2.357h-3.078zM26.841 36.86h-3.04c.159-.893.077-1.855.518-2.396.283-.348 1.672-.36 1.962-.017.449.53.381 1.492.56 2.413zM95.51 34.18v2.814c-.908-.108-1.862-.02-2.563-.4-.3-.16-.343-1.683-.027-1.9.61-.417 1.557-.346 2.59-.514zM96.348 36.685c.18-.768.13-1.786.612-2.224.384-.349 1.539-.196 2.114.139.322.187.43 1.575.164 1.762-.65.46-1.574.535-2.387.766l-.503-.443z" fill="#1A4172"/>
    <mask id="nkg8lvwk5a" style="mask-type:luminance" maskUnits="userSpaceOnUse" x="237" y="0" width="44" height="65">
        <path fill-rule="evenodd" clip-rule="evenodd" d="M237.947.15h43v64h-43v-64z" fill="#fff"/>
    </mask>
    <g mask="url(#nkg8lvwk5a)">
        <path fill-rule="evenodd" clip-rule="evenodd" d="m240.068 59.199-.477-.76-.151 1.44c.245-.239.345-.325.433-.425.089-.101.164-.214.195-.255zm6.637-19.802.115-.182-1.769-.862c.404.82 1.148.733 1.654 1.044zm21.605-16.761c-.275 1.22-.231 1.534.172 1.868l-.172-1.868zm-8.035-13.129.973.994V8.565c-.189.15-.284.209-.361.287-.207.213-.406.434-.612.655zm13.814 53.25-2.223-.776c-.116 1.093.571 1.007 2.223.776zm-5.626-26.84-.204.12c.101.274.167.76.309.784.551.093 1.126.038 1.692.038l.012-.206-1.809-.737zm-24.475 16.947-.063.185 1.037 1.109 1.024-1.146-1.998-.148zm19.271-19.084-.145.206 1.616 1.728.881-.971-2.352-.963zM252.13 7.79l.235.019c.018-.194.049-.387.051-.581.008-1.086-.062-1.012.957-1.002.187.002.374-.032.414-.035l-1.398-1.707-.259 3.305zm6.473 54.93.065.175c1.167.036 2.336.11 3.498-.042l-.002-.257h-1.59l-.08-1.616-1.891 1.74zm7.064-.043-.025.166h3.669l-1.966-1.819c-.039.461.102 1.175-.178 1.457-.284.287-.983.149-1.5.196zm-22.459.159v-.197h-1.607v-1.898l-1.969 2.095h3.576zm7.146.026-2.062-1.903v1.725h-1.576l.007.178h3.631zm6.459-45.291c.999.617 1.94 1.217 2.909 1.769.105.06.366-.166.553-.258-.86-1.334-1.887-1.982-3.462-1.511zm5.412 41.437.531 1.306 1.142.523 1.272-.533c.119-.44.052-.776-.538-.915-.559-.131-1.106-.341-1.634-.573-.401-.175-.648-.1-.773.192zm-8.113-45.815-.136-.223h-.326c-1.178.02-1.176.02-1.219-1.159-.005-.143-.039-.286-.06-.43l-.205-.057c-.161.358-.383.703-.466 1.08-.105.475-.057.984-.148 1.464-.089.466.168.682.501.77.198.05.497-.053.67-.192.485-.389.929-.831 1.389-1.253zm13.613 47.302-.087.134c.44.464.96.874 1.304 1.403.67 1.033 1.607.965 2.703.857-.132-.41-.153-.987-.377-1.084-1.152-.504-2.357-.886-3.543-1.31zm-13.93-28.736 1.19.512 1.279-.518c.253-.612-.051-.926-.656-1.113a7.298 7.298 0 0 1-1.276-.53c-.541-.29-.893-.167-1.082.281l.545 1.368zm-7.217 23.558.199.218c.478.042 1.159-.093 1.381.17.262.312.126.97.167 1.476.003.038.041.074-.02-.029l2.552-2.416c-.849-.276-1.613-.535-2.385-.766a.535.535 0 0 0-.428.082c-.501.407-.979.84-1.466 1.265zm-3.229.213c-.901-.927-1.674-1.753-2.49-2.533-.14-.134-.459-.072-.685-.1-.541 2.38-.237 3.325 1.433 4.405v-1.688l1.742-.084zm21.401-41.274c.401-.4.846-.81 1.249-1.258.294-.327.281-.672-.105-.954-.582-.424-1.155-.86-1.74-1.28-.285-.204-.589-.38-.899-.58-.205 1.676-.2 3.182 1.495 4.072zM245.482 35.24l.236.134c.38-.578 1.05-1.136 1.09-1.737.134-2.036.059-4.086.024-6.13-.004-.235-.255-.465-.391-.698l-.221.097-.738 8.334zm25.499 13.181.089-1.205h1.621l.107-.226c-.8-.772-1.53-1.648-2.429-2.272-.455-.317-1.215-.186-1.839-.24-.051-.004-.165.125-.164.192.004.58-.186 1.315.089 1.71.605.87 1.273 1.797 2.526 2.041zm-9.89-11.61c.103-1.026.203-2.012-.785-2.717-.314-.224-.539-.576-.816-.858-.31-.317-.633-.622-1.082-1.06v1.96h-1.64l-.183.29c.613.535 1.318.994 1.818 1.621.749.94 1.652.934 2.688.764zm8.402 4.075c.337.291.734.644 1.142.982.209.174.43.445.659.46.864.054 1.733.021 2.641.021l-.324-3.235c-1.74-.414-3.13-.088-4.118 1.772zM252.859.812l-.054.176 4.6 3.364 2.121-3.54h-6.667zm.038 54.598c0 2.438-.019 4.671.03 6.903.004.21.408.542.666.588.515.093 1.06.01 1.591.032.604.026.83-.276.828-.854-.005-1.719.009-3.438-.006-5.156-.001-.18-.102-.473-.227-.521-.9-.342-1.818-.633-2.882-.992zm-2.905-15.014.185.284c1.188.444 2.374.897 3.567 1.327.409.147.834.31 1.259.333.967.051 1.938.03 2.906.013.215-.004.472-.052.633-.18.525-.415 1.014-.877 1.725-1.506-.704-.61-1.217-1.075-1.754-1.509-.13-.104-.337-.15-.509-.152-2.008-.01-4.016-.01-6.023 0-.174 0-.386.034-.515.137-.506.399-.985.832-1.474 1.253zm6.341 16.144c0 2.208 0 4.265.002 6.322 1.013.225 1.864.09 2.556-.843.51-.688 1.196-1.24 1.803-1.854l.171.09v2.096h2.01l-.201.583h2.511l-.287-.624h1.974c.436-1.78.148-2.313-1.21-2.455-.136.319-.184.75-.408.887-.418.258-.937.346-1.321.473-.459-.152-.898-.287-1.327-.45a.507.507 0 0 1-.269-.265c-.171-.48-.315-.972-.499-1.552l.32-.446-5.825-1.962zm-15.588 2.612c-1.467.814-1.537 2.104-1.306 3.615l2.48-2.75v2.305h2.032l-.189.564h2.41l-.196-.581h2.075v-2.057l.218-.106c.58.628 1.228 1.206 1.722 1.898.683.956 1.565 1.007 2.586.826 0-2.304-.002-4.605.002-6.905 0-.323.094-.677-.367-.771-.441-.09-.852-.478-1.313.055-.701.81-1.465 1.563-2.209 2.334-.164.17-.355.31-.687.596v-2.32h-2.149l1.882-2.026c-1.267-1.09-2.015-.132-2.784.772l-1.755-1.887.81-.238-3.799-1.23-.065 1.262.203-.156c.472.35.979.66 1.408 1.059.613.569 1.171 1.2 1.749 1.808.161.17.31.354.601.689h-2.211v2.295l-1.983-2.22c-.375 1.346-.409 2.36.835 3.17zm5.567-33.65c.218.118.332.194.456.244 4.158 1.703 8.315 3.41 12.483 5.086.25.1.633.035.891-.089 2.069-.99 4.123-2.012 6.181-3.025.838-.413 1.674-.828 2.557-1.265-.144-.133-.189-.19-.247-.225-3.558-2.184-7.119-4.362-10.673-6.553-.4-.247-.721-.144-1.092.06-2.356 1.299-4.721 2.58-7.083 3.868-1.133.618-2.264 1.238-3.473 1.898zm27.184 13.192.151-.249c-.197-.22-.354-.52-.598-.644-.619-.312-1.276-.548-1.921-.806-.126-.05-.27-.103-.398-.087-.692.085-1.381.19-2.071.29-.486.072-.717-.147-.63-.63.13-.72-.233-1.029-.848-1.191a3.62 3.62 0 0 1-.705-.293c-.333-.17-.608-.158-.847.17-.244.335-.507.656-.87 1.121-.619-1.127-1.788-1.479-1.945-2.674-.008-.065-.125-.135-.205-.168-1.208-.506-2.418-1.007-3.628-1.508l-.168.218c.538.497 1.038 1.047 1.622 1.48 1.048.775 1.146 1.842 1.01 2.999-.019.166-.195.453-.291.45-.993-.033-2.06.346-2.839-.753-.52-.735-1.246-1.319-1.871-1.978-.161-.17-.29-.371-.519-.67h2.138c.128-2.226.345-2.152-1.38-2.576-.018.21-.004.421-.06.61-.045.151-.147.346-.272.398-.463.192-.946.333-1.385.48l-1.449-.597-.707-1.7.488-.662c-.998-.49-2.036-.644-2.957-1.175-.959-.552-2.045-.878-3.176-1.344 0 2.176-.022 4.174.013 6.172.011.596-.172 1.014-.589 1.417-.623.602-1.29 1.163-1.299 2.202-.009.954.426 1.583 1.374 1.691.17.02.474.187.467.258-.076.711.506.692.893.938 1.276.81 2.192.383 2.999-.748.161-.225.527-.418.801-.422 2.104-.035 4.209-.021 6.313-.012.175 0 .403.023.515.133.594.582 1.159 1.195 1.896 1.967-.575.513-1.072 1.004-1.619 1.426-.269.207-.624.377-.955.408-.67.062-1.35.018-2.026.018l-.02.177c1.59.466 3.021 1.494 4.798 1.302.381-.041.757-.032.759.547 0 .12.198.286.34.35.336.154.697.25 1.04.388.653.263 1.311.703 1.925-.373.45.53.76 1.021 1.187 1.36.404.321.921.506 1.405.709.483.203.987.354 1.481.528l.144-.151c-1.201-.664-.999-1.779-.968-2.82.005-.178.243-.492.387-.5 1.072-.061 2.134-.198 2.914.93.585.846 1.399 1.528 2.248 2.429l-2.28.105c.055.38.017.723.157.955.24.4 1.99.738 2.358.468.246-.18.587-.494.573-.73-.067-1.162.137-2.434-1.005-3.274-.269-.197-.468-.49-.79-.838l1.429-.131-.107-1.436c-.88 0-1.687.007-2.493-.005-.201-.003-.466.005-.589-.113-.613-.588-1.189-1.217-1.796-1.851.475-.51.909-.933 1.292-1.4.371-.452.787-.657 1.38-.598.588.059 1.186.013 1.779.013zm1.042 12.422c-.245-.117-.323-.161-.406-.192-1.843-.687-3.689-1.368-5.531-2.059-3.793-1.422-7.581-2.859-11.381-4.26-.338-.125-.788-.144-1.124-.027-3.979 1.382-7.946 2.8-11.917 4.207l-3.621 1.286 2.772.917c5.119 1.694 10.237 3.392 15.362 5.069.279.091.64.072.924-.02 2.621-.845 5.234-1.717 7.849-2.581l7.073-2.34zm-20.646-35.551.001-.005c.05.098.075.236.154.287 1.02.66 1.956 1.53 3.321 1.31.384-.06.787-.034 1.178-.005.194.014.431.068.564.196.55.526 1.068 1.087 1.604 1.642l-.5.661 7.598 4.675c0-.53-.011-.874.003-1.216.011-.277-.034-.607.096-.817.422-.683.428-1.148-.006-1.683.049-.408.137-.715.114-1.013-.148-1.875-.353-3.747-.468-5.625-.044-.72-.374-1.109-.849-1.322l-1.921 2.129c-1.255-.962-2.216-1.93-1.881-3.58.023-.112.004-.234.003-.352-.01-1.157-.135-1.334-1.328-1.792v2.153l-.218.133c-.441-.503-.901-.99-1.306-1.52-.089-.115-.051-.428.044-.572.208-.316.488-.583.758-.891l-1.094-.796-1.212 1.113c0-.59-.027-.96.005-1.323.057-.624-.138-.925-.807-.827-.365.054-.743.01-1.244.01l.662-.932c-.428-.24-.948-.722-1.149-.61-.585.326-.747-.086-1.005-.372-.402-.448-.753-.948-1.181-1.366-.332-.323-.75-.556-1.143-.838-.356 1.06-.235 1.86.618 2.524.514.4.917.949 1.371 1.431l-.067.179h-1.931v1.998l-.62-.27-.276 3.042.947-.803v2.143h2.113l-2.249 2.442c.51.18.905.321 1.301.462zm6.688 41.113 20.367 7.244-.038.19c-.265.012-.53.035-.795.035-8.605.002-17.21 0-25.816 0l-15.475.003c-.925 0-.928-.001-.841-.984.375-4.264.76-8.528 1.12-12.794.043-.512.204-.763.715-.941 4.94-1.725 9.868-3.488 14.799-5.241.211-.075.416-.168.724-.293-3.513-1.312-6.914-2.598-10.327-3.85-1.109-.406-1.124-.364-1.019-1.566.371-4.266.733-8.534 1.137-12.797.028-.3.31-.686.579-.833 3.478-1.906 6.977-3.775 10.468-5.657.14-.075.262-.183.445-.314-1.68-1.035-3.269-2.138-4.969-3.02-1.136-.59-1.398-1.293-1.262-2.538.437-3.997.742-8.01 1.087-12.017.1-1.16.083-1.155 1.198-1.154 2.337.004 4.674 0 7.011 0l1.043-.001c-.164.322-.257.545-.383.747-.692 1.112-1.366 2.237-2.104 3.317-.295.433-.199.62.175.892 3.105 2.25 6.185 4.533 9.305 6.761.648.463.927.962.991 1.773.324 4.08.707 8.156 1.098 12.23.071.735-.053 1.175-.804 1.522-2.631 1.214-5.218 2.525-7.821 3.802-.098.048-.185.119-.377.243.454.201.818.373 1.19.525 4.01 1.64 8.02 3.28 12.033 4.913.362.148.624.297.663.772.366 4.408.747 8.816 1.15 13.22.048.524-.093.743-.588.905-4.709 1.542-9.41 3.112-14.113 4.675-.124.042-.244.1-.566.23z" fill="#1B4172"/>
    </g>
    <path fill-rule="evenodd" clip-rule="evenodd" d="M258.692 56.057c.279.091.64.072.924-.02 2.621-.845 5.234-1.717 7.849-2.581l7.073-2.34c-.245-.117-.323-.161-.406-.192-1.843-.687-3.689-1.368-5.531-2.059-3.793-1.423-7.581-2.859-11.381-4.26-.338-.125-.788-.144-1.124-.027-3.979 1.382-7.946 2.8-11.917 4.207l-3.62 1.286 2.771.917c5.12 1.694 10.237 3.392 15.362 5.069zM249.351 33.924c.799-.733 1.533-1.54 2.447-2.47v2.302h2.231c-.182.273-.257.432-.372.552-.835.874-1.639 1.784-2.539 2.582-.291.258-.839.293-1.269.294-1.403.003-1.233.28-1.302-1.292-.036-.826.209-1.422.804-1.968zm-.738-5.354c.616.616 1.156 1.138 1.669 1.686.078.083.097.353.029.424-.522.55-1.071 1.072-1.698 1.687V28.57zm6.447 6.817 1.757 1.76h-3.685l1.928-1.76zm7.642 4.442c.142-.297.12-.675.155-.913l2.024-.976c.396.366.822 1.013 1.512.766l.877 1.9c-.214.608-.421 1.215-.646 1.815-.035.091-.169.225-.232.212-.767-.158-1.142.46-1.639.905-.533-.431-.925-1.076-1.711-.914-.051.01-.207-.162-.196-.229.126-.757-.353-1.21-.874-1.69.273-.316.579-.558.73-.876zm-16.039-1.142c.171.02.475.187.467.258-.075.711.506.692.894.938 1.276.81 2.192.383 2.999-.748.161-.225.527-.418.801-.422 2.104-.035 4.209-.021 6.313-.012.175 0 .403.023.515.133.594.582 1.159 1.195 1.896 1.967-.575.513-1.072 1.004-1.62 1.426-.268.207-.624.377-.954.408-.67.062-1.35.019-2.026.019l-.02.176c1.59.466 3.021 1.494 4.798 1.302.381-.041.757-.032.759.547 0 .12.198.286.34.35.336.154.697.25 1.04.388.652.263 1.311.703 1.925-.373.45.53.76 1.02 1.187 1.36.404.321.921.506 1.405.709.483.203.987.354 1.481.528l.144-.151c-1.201-.664-1-1.779-.969-2.82.006-.178.244-.492.388-.5 1.072-.061 2.134-.199 2.914.93.585.846 1.399 1.528 2.248 2.428l-2.28.106c.055.38.017.723.157.955.24.4 1.99.738 2.358.468.246-.18.587-.494.573-.73-.067-1.162.137-2.434-1.006-3.274-.268-.197-.467-.49-.789-.838l1.429-.131-.107-1.436c-.88 0-1.687.007-2.493-.005-.201-.003-.466.005-.589-.113-.613-.588-1.189-1.217-1.796-1.851.475-.51.909-.933 1.292-1.4.371-.453.787-.657 1.38-.598.588.059 1.186.013 1.779.013l.151-.25c-.197-.219-.354-.52-.598-.643-.619-.312-1.276-.548-1.921-.806-.126-.05-.27-.103-.398-.087-.692.085-1.381.19-2.071.29-.486.072-.717-.148-.63-.63.13-.72-.233-1.029-.848-1.191a3.62 3.62 0 0 1-.705-.293c-.333-.17-.609-.158-.847.17-.244.335-.508.656-.87 1.121-.619-1.127-1.788-1.479-1.945-2.674-.008-.065-.125-.135-.205-.168-1.208-.506-2.418-1.007-3.628-1.508l-.168.218c.538.497 1.038 1.046 1.622 1.479 1.048.776 1.146 1.843 1.01 3-.019.166-.195.453-.291.45-.993-.033-2.061.346-2.839-.753-.52-.735-1.246-1.319-1.871-1.978-.161-.17-.29-.371-.519-.67h2.138c.128-2.226.345-2.152-1.38-2.576-.018.21-.004.421-.06.61-.045.151-.147.346-.273.398-.462.192-.945.333-1.384.48l-1.449-.597-.707-1.7.488-.662c-.998-.49-2.036-.644-2.957-1.175-.959-.552-2.045-.878-3.176-1.344 0 2.175-.022 4.174.013 6.172.01.596-.172 1.014-.589 1.417-.623.602-1.29 1.163-1.299 2.202-.009.954.426 1.583 1.373 1.691zM259.251 30.832c.25.1.633.035.891-.09 2.069-.99 4.123-2.011 6.181-3.024.837-.413 1.674-.828 2.556-1.265-.143-.133-.188-.19-.246-.225-3.558-2.184-7.119-4.362-10.673-6.553-.4-.247-.721-.144-1.092.06-2.356 1.299-4.721 2.58-7.083 3.868-1.133.618-2.264 1.238-3.473 1.898.218.119.332.195.456.245 4.158 1.703 8.314 3.41 12.483 5.086zM254.269 8.12l1.337-.574c.427.146 1.034.169 1.302.488.378.448.608 1.099.698 1.695.055.359-.266.783-.439 1.167-.05.11-.16.233-.268.266-.215.067-.471.026-.667.122-.197.097-.342.305-.429.387-.567-.193-1.004-.328-1.429-.495-.103-.04-.204-.17-.245-.282-.163-.437-.3-.883-.454-1.348l.594-1.425zm4.291 4.528v-1.99l.185-.07c.484.481.97.96 1.45 1.444.164.165.29.383.477.51 1.178.792 1.052 1.96.92 3.18-1.174.146-2.262.25-3.096-.914-.53-.74-1.249-1.342-2.031-2.16h2.095zm4.565 4.651 1.596-.789 1.638.813.746 1.7-.793 1.659-1.584.808-1.607-.832-.775-1.65.779-1.709zm-5.856-1.473c-.875 0-1.751.02-2.624-.012-.253-.01-.5-.163-.75-.252.371-.322.76-.625 1.106-.973.208-.21.347-.492.512-.732l1.79 1.743-.034.226zm-4.542-3.165h2.113l-2.249 2.442 1.301.462.002-.002c.049.097.074.233.153.284 1.02.66 1.956 1.53 3.321 1.31.384-.06.787-.034 1.178-.006.194.015.431.069.564.197.55.526 1.068 1.087 1.604 1.642l-.5.662 7.598 4.674c0-.53-.011-.874.003-1.216.011-.276-.035-.607.095-.817.423-.683.429-1.148-.005-1.683.049-.408.137-.715.114-1.013-.148-1.875-.354-3.747-.468-5.625-.044-.72-.374-1.109-.849-1.322l-1.921 2.129c-1.255-.962-2.216-1.93-1.881-3.58.023-.112.004-.234.003-.352-.01-1.157-.136-1.334-1.328-1.792v2.153l-.219.133c-.44-.503-.9-.99-1.306-1.52-.088-.115-.05-.428.045-.572.207-.316.488-.583.758-.891l-1.094-.796-1.213 1.113c0-.59-.026-.96.006-1.323.057-.624-.138-.925-.808-.827-.364.054-.742.01-1.243.01l.662-.932c-.428-.24-.948-.722-1.149-.61-.585.326-.748-.086-1.005-.373-.402-.447-.753-.947-1.181-1.365-.332-.323-.75-.556-1.143-.838-.356 1.06-.235 1.86.618 2.524.514.4.917.949 1.37 1.431l-.066.179h-1.931v1.998l-.62-.27-.276 3.042.947-.803v2.143zM251.147 61.006l-1.853-1.95 1.853-1.628v3.578zm-4.755-.374-1.377.617c-.499-.174-.935-.314-1.361-.484a.52.52 0 0 1-.258-.273c-.168-.459-.309-.927-.476-1.439l.604-1.43 1.444-.668 1.458.68.613 1.496-.647 1.5zm5.819-5.442c-.44-.09-.851-.478-1.312.055-.701.81-1.465 1.563-2.21 2.334-.163.17-.354.31-.686.596v-2.32h-2.149l1.882-2.026c-1.267-1.09-2.015-.132-2.784.772l-1.755-1.887.81-.238-3.799-1.23-.065 1.262.203-.157c.472.35.979.662 1.408 1.06.613.569 1.171 1.2 1.748 1.808.162.17.311.354.602.689h-2.211v2.295l-1.983-2.22c-.375 1.346-.409 2.36.834 3.17-1.466.813-1.536 2.103-1.305 3.614l2.479-2.75v2.305h2.033l-.189.564h2.41l-.196-.581h2.075v-2.057l.218-.106c.58.628 1.228 1.206 1.722 1.898.683.956 1.565 1.007 2.586.826 0-2.304-.002-4.605.002-6.905 0-.323.094-.677-.368-.771zM257.683 60.883v-3.589l1.696 1.977-1.696 1.612zm8.251 1.427h.938c.436-1.78.148-2.313-1.21-2.454-.136.318-.185.749-.408.886-.418.258-.937.346-1.321.473-.459-.152-.898-.287-1.327-.45a.506.506 0 0 1-.269-.265c-.172-.48-.315-.972-.499-1.552l.32-.446-5.825-1.962.001 6.322c1.014.225 1.865.09 2.557-.843.51-.688 1.196-1.24 1.803-1.854l.171.09v2.096h2.01l-.202.583h2.512l-.287-.624h1.036z" fill="#fff"/>
    <path fill-rule="evenodd" clip-rule="evenodd" d="M257.909 42.353c.215-.004.472-.052.633-.18.525-.415 1.014-.877 1.725-1.506-.704-.61-1.217-1.075-1.754-1.509-.13-.104-.337-.15-.509-.152-2.008-.01-4.016-.01-6.023 0-.174 0-.386.034-.515.137-.506.399-.985.832-1.474 1.253l.185.284c1.189.444 2.373.897 3.567 1.327.409.147.835.31 1.259.333.967.051 1.938.03 2.906.013zM256.006 56.923c-.001-.18-.102-.473-.227-.521-.9-.342-1.818-.633-2.882-.992 0 2.438-.019 4.671.03 6.903.004.21.408.542.666.588.515.093 1.06.01 1.591.032.604.026.83-.276.828-.854-.005-1.719.009-3.438-.006-5.156zM259.526.812h-6.667l-.054.177 4.6 3.363 2.121-3.54zM269.493 40.887c.337.291.734.644 1.142.982.209.174.43.445.659.46.864.054 1.733.021 2.641.021l-.324-3.235c-1.74-.414-3.13-.088-4.118 1.772zM256.585 34.428c.613.534 1.318.992 1.818 1.62.749.94 1.652.934 2.688.764.103-1.026.203-2.012-.785-2.717-.314-.225-.539-.576-.816-.859-.31-.316-.633-.62-1.082-1.06v1.96h-1.64l-.183.292zM270.37 44.719c-.456-.317-1.216-.186-1.84-.24-.051-.005-.165.125-.164.192.004.58-.186 1.315.089 1.71.605.87 1.273 1.797 2.526 2.041l.089-1.205h1.621l.107-.226c-.8-.772-1.53-1.648-2.428-2.272zM246.807 33.638c.135-2.036.06-4.086.025-6.13-.004-.235-.255-.465-.391-.698a62.99 62.99 0 0 0-.221.097l-.738 8.334.236.134c.38-.578 1.05-1.136 1.089-1.737zM264.75 14.256c.401-.4.846-.81 1.249-1.258.294-.327.282-.672-.105-.953-.582-.425-1.155-.862-1.74-1.281-.285-.204-.588-.38-.899-.58-.205 1.676-.199 3.182 1.495 4.072zM241.607 55.614l1.742-.084c-.901-.927-1.674-1.753-2.49-2.533-.14-.134-.459-.072-.685-.1-.542 2.38-.237 3.325 1.433 4.405v-1.688zM248.472 53.97a.535.535 0 0 0-.428.082c-.501.407-.979.84-1.466 1.265l.199.218c.478.042 1.159-.093 1.381.17.255.303.134.93.164 1.431l2.535-2.4c-.849-.276-1.613-.535-2.385-.766z" fill="#fff"/>
    <path fill-rule="evenodd" clip-rule="evenodd" d="m248.326 57.19-.001-.009-.003-.045a.299.299 0 0 0-.017.016l.021.038zM248.326 57.19c.006.028.025.047 0 0zM254.332 30.11c-.541-.29-.893-.167-1.082.28l.545 1.37 1.189.511 1.28-.518c.253-.612-.051-.926-.656-1.113a7.266 7.266 0 0 1-1.276-.53zM271.268 61.805c-1.153-.504-2.357-.886-3.543-1.31l-.087.134c.44.464.96.874 1.304 1.403.67 1.033 1.607.965 2.703.857-.132-.41-.153-.987-.377-1.084zM252.053 14.637c.198.052.497-.052.67-.19.485-.39.929-.832 1.389-1.254l-.136-.223h-.327c-1.177.019-1.175.019-1.218-1.159-.006-.143-.04-.286-.06-.43l-.205-.057c-.161.358-.383.703-.466 1.08-.105.475-.057.984-.148 1.464-.089.466.168.682.501.77zM262.998 58.816c-.401-.175-.648-.1-.772.192l.53 1.306 1.142.523 1.271-.533c.12-.44.053-.776-.537-.915-.559-.131-1.106-.342-1.634-.573zM256.813 17.57c.999.618 1.94 1.218 2.909 1.77.105.06.366-.166.553-.258-.86-1.334-1.887-1.982-3.462-1.511zM248.291 62.684h-1.575l.007.178h3.631l-2.063-1.903v1.725zM241.601 60.74l-1.969 2.096h3.576v-.197h-1.607v-1.898zM267.167 62.481c-.284.287-.983.149-1.5.196l-.025.166h3.669l-1.966-1.819c-.039.461.102 1.175-.178 1.457zM260.574 62.596l-.08-1.617-1.891 1.742.065.174c1.167.036 2.336.11 3.498-.042l-.002-.258h-1.59zM252.416 7.228c.008-1.086-.062-1.013.956-1.002.187.002.375-.032.415-.036l-1.398-1.706-.259 3.305.235.02c.018-.194.049-.387.051-.581zM264.73 35.713l.881-.97-2.352-.963-.145.206 1.616 1.727zM243.925 53.05l1.037 1.108 1.024-1.146-1.997-.148-.064.185zM268.259 36.037c.101.274.167.76.309.784.551.093 1.126.038 1.692.038l.012-.206-1.809-.737-.204.121zM274.089 62.757l-2.223-.776c-.116 1.093.571 1.007 2.223.776zM261.248 10.5V8.566c-.189.149-.284.209-.361.287-.207.213-.406.434-.612.655l.973.994zM268.482 24.504l-.172-1.868c-.275 1.22-.231 1.534.172 1.868zM246.705 39.397l.115-.183-1.769-.861c.404.82 1.148.733 1.654 1.044zM239.873 59.454c.089-.101.164-.214.195-.256l-.477-.759-.151 1.44c.245-.239.345-.325.433-.425zM264.717 42.924l1.446-.715.709-1.516-.678-1.524-1.472-.744-1.375.717-.776 1.52.743 1.529 1.403.733zM250.858 36.68c.888-.675 1.588-1.607 2.498-2.572-.527 0-.85-.026-1.167.006-.505.05-.73-.14-.691-.67.026-.355.005-.714.005-1.184-.715.718-1.267 1.392-1.934 1.915-.966.757-.677 1.712-.663 2.779.726-.084 1.513.058 1.952-.275zM256.074 36.83l-.997-1.003-1.139 1.003h2.136zM248.889 29.286v2.307l1.097-.988-1.097-1.319zM264.729 21.067l1.325-.676.677-1.407-.684-1.383-1.288-.666c-.438.181-.868.35-1.289.54-.087.04-.163.152-.202.249-.177.435-.339.876-.508 1.318l.667 1.365 1.302.66zM258.849 14.72c.679.915 1.519.867 2.543.72-.051-.621.106-1.37-.191-1.782-.623-.866-1.485-1.555-2.359-2.427v1.694h-1.473l-.182.25c.561.51 1.218.946 1.662 1.545zM255.632 11.242l1.127-.488.451-1.18-.457-1.154-1.116-.498-1.1.505-.482 1.16.485 1.168 1.092.487zM256.73 15.476l-1.066-1.134-1.028 1.134h2.094zM244.953 57.373l-1.122.52-.538 1.186.508 1.234 1.143.529 1.208-.525.455-1.208-.429-1.162-1.225-.574zM250.864 60.271v-2.245l-1.027 1.029 1.027 1.216zM257.976 57.921v2.444l.998-1.113-.998-1.33z" fill="#fff"/>
    <path fill-rule="evenodd" clip-rule="evenodd" d="m266.194 39.17-1.472-.745-1.375.717-.776 1.52.743 1.529 1.403.733 1.446-.715.71-1.516-.679-1.524zm-1.441 4.368c-.533-.431-.925-1.076-1.711-.914-.051.01-.207-.162-.196-.229.126-.757-.353-1.21-.874-1.69.273-.316.579-.558.73-.876.142-.297.12-.675.155-.913l2.024-.976c.396.366.822 1.013 1.512.766l.877 1.9c-.214.608-.421 1.215-.646 1.815-.035.091-.169.225-.232.212-.767-.158-1.142.46-1.639.905zM253.355 34.108c-.526 0-.849-.026-1.166.005-.505.051-.73-.139-.691-.669.026-.355.005-.714.005-1.184-.715.718-1.267 1.392-1.934 1.915-.966.757-.677 1.712-.663 2.779.726-.084 1.513.058 1.951-.275.889-.674 1.589-1.606 2.498-2.572zm-1.557-2.653v2.301h2.231c-.182.273-.257.432-.372.552-.835.874-1.639 1.784-2.539 2.582-.291.258-.839.293-1.269.294-1.403.003-1.233.28-1.302-1.292-.036-.826.209-1.422.804-1.968.799-.733 1.533-1.54 2.447-2.47zM253.938 36.83h2.136l-.997-1.003-1.139 1.003zm1.122-1.443 1.757 1.76h-3.685l1.928-1.76zM248.889 31.593l1.097-.988-1.097-1.319v2.307zm-.276.774V28.57c.616.616 1.156 1.138 1.669 1.686.078.083.096.353.029.425-.522.549-1.071 1.07-1.698 1.686zM266.047 17.601l-1.288-.666c-.438.181-.868.35-1.289.54-.087.04-.163.152-.202.249-.177.434-.339.876-.508 1.318l.667 1.365 1.302.66 1.325-.676.677-1.407-.684-1.383zm-2.922-.302 1.596-.789 1.639.813.745 1.7-.793 1.659-1.584.808c-.496-.257-1.06-.55-1.607-.832l-.775-1.65.779-1.709zM257.369 12.925l-.182.25c.561.51 1.218.946 1.662 1.545.679.915 1.519.867 2.543.72-.051-.621.106-1.37-.191-1.782-.623-.866-1.485-1.555-2.359-2.426v1.693h-1.473zm-.904-.277h2.095v-1.99l.185-.07c.484.481.97.96 1.45 1.444.165.165.29.383.477.51 1.178.792 1.052 1.96.92 3.18-1.174.146-2.262.25-3.096-.914-.53-.74-1.249-1.342-2.031-2.16zM254.055 9.588l.485 1.167 1.092.487 1.127-.488.451-1.18-.457-1.154-1.116-.499-1.1.506-.482 1.16zm1.748 2.083c-.567-.193-1.004-.328-1.429-.495-.104-.04-.204-.17-.245-.282-.162-.437-.3-.883-.454-1.348l.594-1.425 1.337-.575c.427.146 1.034.169 1.302.488.378.448.608 1.099.698 1.695.055.359-.265.783-.439 1.167-.05.11-.16.233-.268.266-.215.067-.471.026-.667.122-.197.096-.342.305-.429.387zM255.664 14.342l-1.028 1.134h2.094l-1.066-1.134zm-1.772 1.223c.372-.323.763-.627 1.109-.976.208-.21.347-.492.512-.732l1.79 1.743-.034.226c-.875 0-1.751.02-2.624-.012-.253-.01-.502-.164-.752-.253l-.001.004zM246.607 59.11l-.429-1.163-1.225-.574-1.122.52-.538 1.187.508 1.233 1.143.529 1.208-.525.455-1.208zm-1.592 2.14c-.499-.175-.935-.315-1.361-.485a.519.519 0 0 1-.258-.273c-.168-.459-.309-.927-.476-1.439l.604-1.43 1.444-.668 1.458.68.613 1.496-.647 1.5-1.377.618zM249.837 59.055l1.027 1.216v-2.246l-1.027 1.03zm1.31 1.951-1.853-1.95 1.853-1.628v3.578zM257.975 60.365l.998-1.113-.998-1.33v2.444zm-.292.518v-3.589l1.696 1.977-1.696 1.612z" fill="#1B4172"/>
</svg>
