<svg width="124" height="40" viewBox="0 0 124 40" fill="none" xmlns="http://www.w3.org/2000/svg">
    <g clip-path="url(#mxqxzco85a)">
        <rect x=".947" y=".15" width="123" height="39" rx="5" fill="#fff"/>
        <path d="M43.008 13.15h-1.113l.007-.575h1.106c.381 0 .698-.08.952-.238.254-.161.445-.386.572-.674.13-.29.194-.63.194-1.018v-.326c0-.305-.037-.576-.11-.813-.073-.239-.18-.44-.322-.604a1.361 1.361 0 0 0-.52-.377 1.788 1.788 0 0 0-.7-.128h-1.201v-.579h1.201c.35 0 .668.059.956.176.288.115.536.282.743.501.21.218.371.481.484.792.112.307.168.654.168 1.04v.318c0 .386-.056.734-.168 1.044a2.127 2.127 0 0 1-1.249 1.29 2.743 2.743 0 0 1-1 .171zm-.736-5.332v5.332h-.707V7.818h.707zm4.533 3.395v-.084c0-.286.042-.551.125-.795a1.89 1.89 0 0 1 .359-.641c.156-.183.345-.325.567-.425.222-.102.471-.154.747-.154.279 0 .529.052.751.154.225.1.415.242.571.425.16.18.28.394.363.64.083.245.125.51.125.796v.084c0 .285-.042.55-.125.794a1.9 1.9 0 0 1-.363.641 1.66 1.66 0 0 1-1.314.575c-.279 0-.529-.05-.751-.15a1.698 1.698 0 0 1-.571-.425 1.936 1.936 0 0 1-.36-.64 2.454 2.454 0 0 1-.124-.795zm.678-.084v.084c0 .198.023.384.07.56.046.173.115.327.208.462.095.134.214.24.355.318.142.076.307.114.495.114.185 0 .348-.038.487-.114.141-.078.259-.184.351-.319.093-.134.163-.288.21-.46.048-.177.072-.363.072-.561v-.084c0-.196-.024-.38-.073-.553a1.425 1.425 0 0 0-.212-.466.986.986 0 0 0-.842-.44 1 1 0 0 0-.491.118c-.14.078-.257.186-.352.322-.093.135-.162.29-.209.466a2.13 2.13 0 0 0-.07.553zm5.383 1.318 1.018-3.26h.446l-.087.649-1.037 3.314h-.436l.095-.703zm-.685-3.26.868 3.296.062.667h-.458l-1.15-3.962h.678zm3.123 3.27.828-3.27h.674l-1.15 3.963h-.454l.102-.692zm-.875-3.27.996 3.205.114.758h-.432L54.04 9.828l-.088-.64h.476zm4.35.847v3.116h-.677V9.188h.64l.037.846zm-.16.985-.283-.011c.003-.271.043-.521.121-.751.078-.232.188-.433.33-.604a1.468 1.468 0 0 1 1.16-.539c.196 0 .372.027.528.08.156.052.29.135.399.25.112.115.198.264.256.447.059.18.088.401.088.663v2.596h-.68v-2.604c0-.207-.031-.373-.092-.498a.563.563 0 0 0-.268-.274.96.96 0 0 0-.432-.088c-.168 0-.322.035-.461.106-.137.07-.255.168-.356.293a1.473 1.473 0 0 0-.31.934zm4.964-3.494v5.625h-.68V7.525h.68zm1.509 3.688v-.084c0-.286.041-.551.124-.795.083-.247.203-.46.359-.641a1.6 1.6 0 0 1 .568-.425c.222-.102.47-.154.747-.154.278 0 .528.052.75.154.225.1.415.242.572.425.158.18.28.394.362.64.083.245.125.51.125.796v.084c0 .285-.042.55-.125.794a1.9 1.9 0 0 1-.362.641 1.66 1.66 0 0 1-1.315.575c-.278 0-.529-.05-.75-.15a1.697 1.697 0 0 1-.572-.425 1.934 1.934 0 0 1-.359-.64 2.454 2.454 0 0 1-.124-.795zm.677-.084v.084c0 .198.023.384.07.56.046.173.116.327.208.462.096.134.214.24.356.318.141.076.306.114.494.114.185 0 .348-.038.487-.114.142-.078.259-.184.352-.319.092-.134.162-.288.208-.46.05-.177.074-.363.074-.561v-.084c0-.196-.025-.38-.074-.553a1.425 1.425 0 0 0-.212-.466.986.986 0 0 0-.842-.44 1 1 0 0 0-.491.118c-.14.078-.256.186-.352.322a1.47 1.47 0 0 0-.208.466 2.13 2.13 0 0 0-.07.553zm6.716 1.344v-2.04a.828.828 0 0 0-.095-.407.624.624 0 0 0-.279-.27 1.009 1.009 0 0 0-.461-.096c-.171 0-.321.03-.45.088a.784.784 0 0 0-.3.23.506.506 0 0 0-.107.308h-.678c0-.141.037-.282.11-.42.074-.14.178-.266.315-.378.14-.115.305-.205.498-.271.196-.068.413-.103.652-.103.288 0 .542.05.762.147.222.098.395.245.52.443.127.195.19.44.19.736v1.846c0 .132.011.272.033.42.025.15.06.278.106.385v.059h-.706a1.263 1.263 0 0 1-.08-.311 2.5 2.5 0 0 1-.03-.367zm.117-1.725.007.476h-.684c-.193 0-.365.016-.517.047a1.18 1.18 0 0 0-.38.136.612.612 0 0 0-.315.55c0 .124.027.237.083.34.057.102.14.184.253.245a.918.918 0 0 0 .421.088 1.143 1.143 0 0 0 .927-.454.693.693 0 0 0 .154-.37l.289.326a.984.984 0 0 1-.14.34 1.63 1.63 0 0 1-.75.641c-.17.074-.364.11-.579.11-.268 0-.504-.052-.706-.157a1.21 1.21 0 0 1-.47-.421 1.116 1.116 0 0 1-.164-.597c0-.213.042-.4.125-.56.083-.164.202-.3.359-.407.156-.11.344-.193.564-.25.22-.055.465-.083.736-.083h.787zm4.724 1.633V7.525h.68v5.625h-.622l-.058-.769zm-2.666-1.168v-.077c0-.303.036-.577.11-.824.075-.25.181-.463.318-.641a1.406 1.406 0 0 1 1.139-.557c.249 0 .466.044.652.132.188.086.346.211.476.377.132.164.235.362.311.594.076.232.128.494.157.787v.337c-.026.29-.079.552-.157.784a1.85 1.85 0 0 1-.311.593c-.13.164-.288.29-.476.377a1.58 1.58 0 0 1-.66.128c-.231 0-.444-.05-.637-.15-.19-.1-.355-.24-.494-.421a2.054 2.054 0 0 1-.319-.637 2.807 2.807 0 0 1-.11-.802zm.68-.077v.077c0 .198.02.383.06.556.04.174.104.326.19.458a.946.946 0 0 0 .326.312c.131.073.289.11.472.11a.985.985 0 0 0 .553-.143c.147-.096.264-.222.352-.378.087-.156.156-.326.205-.509v-.882a1.952 1.952 0 0 0-.129-.389 1.196 1.196 0 0 0-.212-.336.917.917 0 0 0-.319-.238 1.032 1.032 0 0 0-.443-.088.938.938 0 0 0-.48.117.935.935 0 0 0-.325.315 1.457 1.457 0 0 0-.19.461 2.533 2.533 0 0 0-.06.557zm6.602.077v-.084c0-.286.042-.551.125-.795a1.89 1.89 0 0 1 .359-.641c.156-.183.345-.325.567-.425.222-.102.472-.154.747-.154.279 0 .529.052.751.154.225.1.415.242.571.425.159.18.28.394.363.64.083.245.124.51.124.796v.084c0 .285-.041.55-.124.794a1.902 1.902 0 0 1-.363.641 1.66 1.66 0 0 1-1.314.575c-.279 0-.529-.05-.751-.15a1.698 1.698 0 0 1-.571-.425 1.938 1.938 0 0 1-.36-.64 2.454 2.454 0 0 1-.124-.795zm.678-.084v.084c0 .198.023.384.07.56.046.173.115.327.208.462.095.134.214.24.355.318.142.076.307.114.495.114.185 0 .348-.038.487-.114.141-.078.258-.184.351-.319.093-.134.163-.288.209-.46.049-.177.073-.363.073-.561v-.084c0-.196-.024-.38-.073-.553a1.425 1.425 0 0 0-.212-.466.986.986 0 0 0-.842-.44 1 1 0 0 0-.491.118c-.14.078-.257.186-.352.322-.093.135-.162.29-.209.466a2.13 2.13 0 0 0-.07.553zm5.056-1.095v3.116H87V9.188h.64l.038.846zm-.16.985-.283-.011c.003-.271.043-.521.121-.751.078-.232.188-.433.33-.604a1.469 1.469 0 0 1 1.16-.539c.196 0 .372.027.528.08.156.052.29.135.4.25.111.115.197.264.256.447.058.18.087.401.087.663v2.596h-.68v-2.604c0-.207-.031-.373-.092-.498a.563.563 0 0 0-.268-.274.96.96 0 0 0-.432-.088c-.168 0-.322.035-.461.106-.137.07-.255.168-.355.293a1.476 1.476 0 0 0-.312.934zm8.348-1.831v.52h-2.142v-.52h2.142zm-1.417-.964h.677v3.945c0 .134.02.235.062.303a.297.297 0 0 0 .161.136.667.667 0 0 0 .213.033c.056 0 .115-.005.176-.015l.142-.029.004.553a1.574 1.574 0 0 1-.212.048c-.086.017-.19.025-.312.025-.166 0-.318-.033-.457-.099a.736.736 0 0 1-.334-.33c-.08-.155-.12-.365-.12-.63v-3.94zm3.489-.699v5.625h-.678V7.525h.678zm-.161 3.494-.282-.011c.002-.271.043-.521.12-.751.079-.232.189-.433.33-.604a1.469 1.469 0 0 1 1.161-.539c.195 0 .371.027.528.08.156.052.289.135.399.25.112.115.197.264.256.447.059.18.088.401.088.663v2.596h-.681v-2.604c0-.207-.03-.373-.092-.498a.563.563 0 0 0-.267-.274.96.96 0 0 0-.432-.088c-.169 0-.323.035-.462.106-.136.07-.255.168-.355.293a1.478 1.478 0 0 0-.311.934zm5.859 2.204c-.276 0-.526-.046-.751-.139a1.702 1.702 0 0 1-.575-.4 1.763 1.763 0 0 1-.366-.607 2.216 2.216 0 0 1-.128-.769v-.154c0-.322.047-.609.142-.86.096-.254.225-.47.389-.645a1.66 1.66 0 0 1 .556-.4c.208-.09.423-.135.645-.135.283 0 .527.05.732.147.208.098.377.234.509.41.132.173.23.378.293.615.064.235.095.491.095.77v.303h-2.959v-.553h2.282v-.051a1.681 1.681 0 0 0-.11-.513.924.924 0 0 0-.293-.41c-.134-.107-.317-.161-.549-.161a.921.921 0 0 0-.758.385 1.428 1.428 0 0 0-.216.465 2.328 2.328 0 0 0-.077.633v.154c0 .188.025.365.077.531.053.164.13.308.23.432.103.125.226.222.37.293.147.07.313.106.498.106.24 0 .442-.049.608-.146.166-.098.311-.228.436-.392l.41.326c-.085.13-.194.253-.326.37a1.556 1.556 0 0 1-.487.285c-.19.074-.416.11-.677.11zM43.456 17.971h1.116l3.291 9.179h-1.102l-.739-2.146h-3.987l-.754 2.146h-1.117l3.291-9.178zm.55 1.204-1.681 4.93h3.378l-1.697-4.93zm5.2 1.392h.768l.13.71c.542-.59 1.257-.884 2.147-.884.947 0 1.696.358 2.247 1.073.464.609.696 1.363.696 2.262 0 1.189-.338 2.117-1.015 2.784a2.75 2.75 0 0 1-2.001.812c-.85 0-1.518-.261-2.001-.783v3.248h-.971v-9.222zm.971 1.784v3.117c.116.3.343.551.681.754.349.203.706.304 1.074.304.666 0 1.203-.241 1.609-.724.406-.484.609-1.127.609-1.929 0-.899-.222-1.59-.667-2.074-.367-.405-.85-.608-1.45-.608-.377 0-.744.11-1.102.333-.358.222-.609.498-.754.826zm6.845-1.784h.768l.13.71c.542-.59 1.258-.884 2.147-.884.947 0 1.696.358 2.247 1.073.464.609.696 1.363.696 2.262 0 1.189-.338 2.117-1.015 2.784a2.75 2.75 0 0 1-2 .812c-.851 0-1.518-.261-2.002-.783v3.248h-.971v-9.222zm.971 1.784v3.117c.116.3.343.551.682.754.348.203.706.304 1.073.304.667 0 1.203-.241 1.61-.724.405-.484.608-1.127.608-1.929 0-.899-.222-1.59-.667-2.074-.367-.405-.85-.608-1.45-.608-.377 0-.744.11-1.102.333-.357.222-.609.498-.754.826zm9.937 4.045.464-.652a4.436 4.436 0 0 0 2.248.608c.609 0 1.087-.14 1.435-.42.348-.29.522-.696.522-1.218 0-.89-.585-1.537-1.754-1.943-.996-.338-1.716-.715-2.16-1.131a2.005 2.005 0 0 1-.668-1.523c0-.715.28-1.29.841-1.725.513-.396 1.184-.595 2.016-.595.908 0 1.735.252 2.48.755l-.48.652a4.043 4.043 0 0 0-1.928-.479c-.56 0-1.005.121-1.334.363a1.16 1.16 0 0 0-.493.986c0 .648.503 1.16 1.508 1.537 1.14.435 1.938.884 2.393 1.348.464.455.696 1.05.696 1.784 0 .841-.324 1.503-.972 1.987-.531.396-1.18.594-1.943.594-.957 0-1.914-.31-2.87-.928zm9.177-5.032-.015 4.119c0 .705.285 1.058.856 1.058.319 0 .633-.082.942-.247l.348.537c-.474.329-.971.493-1.493.493-.513 0-.909-.16-1.19-.479-.28-.319-.42-.763-.42-1.333v-4.148h-1v-.797h1.015v-1.436l.957-.492v1.928h2.015v.797h-2.015zm9.634 2.509c0 1.044-.329 1.9-.986 2.566-.59.59-1.315.885-2.175.885-.996 0-1.798-.377-2.407-1.131-.513-.638-.769-1.411-.769-2.32 0-1.063.32-1.924.957-2.581.58-.6 1.32-.899 2.219-.899 1.015 0 1.822.382 2.421 1.145.493.639.74 1.417.74 2.335zm-5.293 0c0 .841.218 1.508.653 2.001.386.435.875.652 1.464.652.638 0 1.15-.241 1.537-.724.397-.494.595-1.136.595-1.929 0-.831-.213-1.498-.638-2.001a1.84 1.84 0 0 0-1.48-.696c-.637 0-1.154.251-1.55.754-.387.493-.58 1.14-.58 1.943zm11.415-2.74-.798.55c-.328-.29-.681-.434-1.058-.434-.551 0-1.04.285-1.465.855v5.046h-.971v-6.583h.826l.087.696h.03c.57-.58 1.154-.87 1.754-.87.705 0 1.237.247 1.595.74zm6.368 3.059h-4.698c.039.706.28 1.271.725 1.697.455.425 1.04.637 1.755.637.6 0 1.184-.178 1.754-.536l.334.58c-.638.503-1.407.754-2.306.754-1.044 0-1.875-.343-2.494-1.03-.57-.618-.855-1.42-.855-2.407 0-1.024.304-1.88.913-2.566.551-.619 1.233-.928 2.045-.928.976 0 1.72.396 2.233 1.189.396.619.594 1.382.594 2.291v.319zm-4.712-.783h3.712c-.03-.706-.203-1.257-.522-1.653-.31-.396-.74-.595-1.29-.595-.523 0-.963.208-1.32.624-.348.416-.542.957-.58 1.624z" fill="#3D4E76"/>
        <path fill-rule="evenodd" clip-rule="evenodd" d="M25.836 6.15c-1.235.055-2.731.871-3.617 1.97-.796.974-1.492 2.53-1.304 4.022 1.379.115 2.784-.741 3.643-1.84.856-1.1 1.436-2.627 1.278-4.152zm-.349 25.965c1.674-.033 2.734-1.608 3.759-3.193 1.122-1.736 1.618-3.42 1.692-3.67a3.14 3.14 0 0 1 .009-.029l-.007-.002a5.697 5.697 0 0 1-3.289-5.255c-.03-3.182 2.367-4.765 2.631-4.939l.02-.013c-1.443-2.233-3.69-2.54-4.49-2.575-1.17-.125-2.305.348-3.232.735-.589.245-1.094.456-1.471.456-.42 0-.94-.218-1.522-.463-.762-.32-1.634-.686-2.533-.668-2.083.033-4.006 1.283-5.079 3.259-2.166 3.979-.555 9.875 1.556 13.1 1.033 1.578 2.261 3.354 3.877 3.29.721-.03 1.234-.262 1.765-.5.614-.277 1.251-.564 2.26-.564.96 0 1.568.278 2.152.545.56.256 1.097.503 1.902.486z" fill="#3D4E76"/>
    </g>
    <defs>
        <clipPath id="mxqxzco85a">
            <path fill="#fff" transform="translate(.947 .15)" d="M0 0h123v39H0z"/>
        </clipPath>
    </defs>
</svg>
