<svg width="249" height="179" viewBox="0 0 249 179" fill="none" xmlns="http://www.w3.org/2000/svg">
<mask id="mask0_0_16132" style="mask-type:luminance" maskUnits="userSpaceOnUse" x="0" y="0" width="249" height="171">
<path fill-rule="evenodd" clip-rule="evenodd" d="M0.946533 0.150024H248.947V170.228H0.946533V0.150024Z" fill="white"/>
</mask>
<g mask="url(#mask0_0_16132)">
<path fill-rule="evenodd" clip-rule="evenodd" d="M39.3253 170.228H210.568C216.48 161.928 221.834 153.718 226.54 146.827C231.247 139.863 235.305 134.218 238.625 129.379C245.263 119.636 248.947 113.095 248.946 98.881C248.946 86.1578 245.477 65.2106 239.202 47.6291C232.928 29.7706 223.848 15.2775 212.628 9.07569C201.409 2.28462 188.048 2.3305 173.213 2.23514C165.796 2.16965 158.009 1.95196 149.937 1.32999C141.865 0.791144 133.507 -0.151791 124.946 0.244742C116.386 0.641275 108.028 1.07811 99.9561 3.16782C91.884 5.17441 84.0974 8.8337 76.6801 13.749C61.8447 23.638 48.4851 38.1494 37.265 49.139C26.0453 60.8237 16.9658 67.5948 10.6912 73.3424C4.41638 79.3663 0.946472 84.3665 0.946472 98.881C0.946472 112.729 4.63019 132.878 11.2688 147.306C14.5883 154.551 18.6465 160.357 23.3528 164.07C28.0593 167.855 33.4138 169.546 39.3253 170.228" fill="white"/>
</g>
<mask id="mask1_0_16132" style="mask-type:luminance" maskUnits="userSpaceOnUse" x="14" y="177" width="55" height="2">
<path fill-rule="evenodd" clip-rule="evenodd" d="M14.6086 177.523H68.0694V178.15H14.6086V177.523Z" fill="white"/>
</mask>
<g mask="url(#mask1_0_16132)">
<path fill-rule="evenodd" clip-rule="evenodd" d="M14.6086 177.836C32.3517 177.42 50.3261 177.416 68.0694 177.836C50.3261 178.256 32.3519 178.253 14.6086 177.836" fill="#383738"/>
</g>
<path fill-rule="evenodd" clip-rule="evenodd" d="M47.1078 65.9966C45.5103 64.9979 45.0257 62.8951 46.0249 61.299C47.0242 59.7032 49.1299 59.2189 50.7276 60.2176C50.979 60.3743 67.7866 73.2292 67.7866 73.2292C69.1045 74.0843 69.4992 75.8394 68.6623 77.1756C67.8249 78.5119 66.0725 78.9257 64.7255 78.1153L47.1078 65.9966Z" fill="#F9A183"/>
<path fill-rule="evenodd" clip-rule="evenodd" d="M69.0069 76.1374C68.7332 77.6836 67.2697 78.7316 65.7109 78.4837C64.1525 78.2357 63.0365 76.7702 63.2575 75.2157C63.2575 75.2157 63.2043 70.0147 66.5748 54.5746L69.8651 55.2234C69.8651 55.2234 70.7796 68.905 69.0339 75.9393C69.0225 75.9854 69.0069 76.1374 69.0069 76.1374" fill="#F9A183"/>
<path fill-rule="evenodd" clip-rule="evenodd" d="M57.9526 74.6365L46.4944 66.8014C44.4251 65.5013 43.792 62.7641 45.0848 60.6882C46.3815 58.6053 49.133 57.9641 51.2185 59.2591C51.4022 59.3736 56.7447 63.4254 62.6731 67.9298C61.6758 69.6339 59.9122 72.4464 57.9526 74.6365" fill="#00B9B6"/>
<path fill-rule="evenodd" clip-rule="evenodd" d="M61.4036 66.9474C61.4036 66.9474 59.5033 70.5863 56.765 73.7953C56.765 73.7953 56.7848 74.346 57.3093 74.4975C57.8333 74.649 58.7561 75.9714 59.3375 75.6229C59.3375 75.6229 62.8156 71.8459 63.883 68.6639C63.883 68.6639 63.7594 67.9745 62.7918 67.5954C61.8236 67.2164 61.7827 66.6802 61.4036 66.9474" fill="#486F8B"/>
<path fill-rule="evenodd" clip-rule="evenodd" d="M60.7897 50.3441C60.3216 50.2709 60.0019 49.833 60.0752 49.3657L62.2217 35.6629C62.295 35.1955 62.7331 34.8759 63.2012 34.9493L69.549 35.9412C70.0167 36.0144 70.3368 36.4525 70.2635 36.9199L68.117 50.6225C68.0437 51.0901 67.6047 51.409 67.1375 51.3362L60.7897 50.3441Z" fill="#474647"/>
<path fill-rule="evenodd" clip-rule="evenodd" d="M60.7897 50.3441C60.3216 50.2709 60.0019 49.833 60.0752 49.3657L62.2217 35.6629C62.295 35.1955 62.7331 34.8759 63.2012 34.9493L69.549 35.9412C70.0167 36.0144 70.3368 36.4525 70.2635 36.9199L68.117 50.6225C68.0437 51.0901 67.6047 51.409 67.1375 51.3362L60.7897 50.3441Z" stroke="#383738" stroke-width="0.5"/>
<path fill-rule="evenodd" clip-rule="evenodd" d="M69.9225 55.3408C69.9225 55.3408 70.65 51.2916 70.7914 50.0774C70.8739 49.372 70.9719 48.943 70.8642 48.3929C70.8022 48.0751 69.7962 47.7275 69.7962 47.7275C69.45 47.3024 66.927 45.6979 66.3746 46.2634C65.4091 47.2506 64.0083 48.4904 64.0083 48.4904C64.0083 48.4904 63.6855 48.8079 63.8876 48.9529C64.1791 49.1618 64.4952 49.1989 64.747 49.101L64.1324 49.8557C64.1324 49.8557 63.8721 50.1674 63.9975 50.2992C64.4586 50.7841 65.0111 50.3892 65.0111 50.3892C65.0111 50.3892 64.6362 50.9862 64.7319 51.1578C64.8972 51.4545 65.4214 51.3953 65.5423 51.3341C65.5423 51.3341 65.4515 51.658 65.4452 51.8339C65.4408 51.9617 65.5657 52.1027 65.9524 52.0518C65.9524 52.0518 64.845 54.1662 66.6455 55.8282C66.6455 55.8282 67.0294 57.2422 68.5112 57.1085C69.9928 56.9743 69.9225 55.3408 69.9225 55.3408" fill="#F9A183"/>
<path fill-rule="evenodd" clip-rule="evenodd" d="M65.9523 52.0518C65.9523 52.0518 66.4403 51.9311 67.1165 50.5968C67.1165 50.5968 68.0203 51.0585 68.301 51.1936C68.301 51.1936 67.0088 52.9361 67.1329 54.7735C67.1329 54.7735 66.6599 52.9024 65.9523 52.0518" fill="#EE8C72"/>
<path fill-rule="evenodd" clip-rule="evenodd" d="M69.6079 50.4721C69.6079 50.4721 67.6316 49.2382 66.8729 49.3161C66.5256 49.3519 65.5423 51.334 65.5423 51.334C65.5423 51.334 66.2043 49.4012 66.823 49.1905C67.617 48.9203 69.6079 50.4721 69.6079 50.4721" fill="#EE8C72"/>
<path fill-rule="evenodd" clip-rule="evenodd" d="M69.7248 49.0443C69.7248 49.0443 67.5351 48.1647 66.7258 48.4466C66.1503 48.6472 65.011 50.389 65.011 50.389C65.011 50.389 66.1222 48.3856 66.7333 48.2602C67.9384 48.0134 69.7248 49.0443 69.7248 49.0443" fill="#EE8C72"/>
<path fill-rule="evenodd" clip-rule="evenodd" d="M69.5436 47.7768C69.5436 47.7768 67.1491 47.2735 66.5902 47.563C66.0446 47.8457 64.7469 49.1009 64.7469 49.1009C64.7469 49.1009 66.5217 47.2277 66.8832 47.1058C67.1727 47.0083 67.7887 47.3849 67.7887 47.3849L69.5436 47.7768Z" fill="#EE8C72"/>
<path fill-rule="evenodd" clip-rule="evenodd" d="M39.0269 170.813H44.3535V164.759H39.0269V170.813Z" fill="#474647"/>
<path fill-rule="evenodd" clip-rule="evenodd" d="M39.0269 170.813H44.3535V164.759H39.0269V170.813Z" stroke="#383738" stroke-width="0.5"/>
<path fill-rule="evenodd" clip-rule="evenodd" d="M38.09 139.166C38.1495 136.414 40.3535 134.584 42.6771 134.584C45.1136 134.584 47.2643 136.567 47.2643 139.166C47.3045 140.442 45.8402 167.482 45.8402 167.482C43.5678 168.421 40.5981 168.255 37.6078 167.224L38.09 139.166Z" fill="#1A74C2"/>
<path fill-rule="evenodd" clip-rule="evenodd" d="M38.7051 104.675C38.7051 101.92 40.9409 99.6865 43.6992 99.6865C46.4574 99.6865 48.6935 101.92 48.6935 104.675C48.6935 104.744 47.3265 137.898 47.2642 139.166C47.2067 142.067 44.8453 143.747 42.677 143.747C40.3037 143.747 37.9887 141.788 38.093 138.999L38.7051 104.675Z" fill="#1A74C2"/>
<path fill-rule="evenodd" clip-rule="evenodd" d="M45.2667 170.262C45.2667 170.262 44.5347 169.128 41.6419 169.128C38.749 169.128 38.4759 170.324 38.4759 170.324V171.73H45.2439L45.2667 170.262Z" fill="#F9A183"/>
<path fill-rule="evenodd" clip-rule="evenodd" d="M37.0065 177.601H56.4759V176.133H37.0065V177.601Z" fill="#CFD0D7"/>
<path fill-rule="evenodd" clip-rule="evenodd" d="M56.364 176.133C56.364 176.133 57.268 172.632 50.8036 173.17L45.3105 169.296C45.3105 169.296 44.8777 168.92 44.4736 169.295C44.0696 169.669 42.6268 171.038 40.8665 170.807C39.1058 170.577 39.0624 169.5 38.442 169.586C37.8215 169.672 36.7971 172.464 36.9702 176.133H56.364Z" fill="#DBDCE4"/>
<path fill-rule="evenodd" clip-rule="evenodd" d="M50.8035 173.174C57.268 172.636 56.364 176.133 56.364 176.133H50.2583C50.259 173.932 50.8035 173.174 50.8035 173.174" fill="#CACBD2"/>
<path fill-rule="evenodd" clip-rule="evenodd" d="M48.4594 173.547C48.5365 173.547 48.6119 173.508 48.6557 173.438C49.0761 172.762 49.6358 172.438 49.6412 172.435C49.7521 172.372 49.7905 172.231 49.7273 172.12C49.6642 172.01 49.523 171.972 49.4126 172.034C49.3854 172.05 48.7449 172.421 48.2636 173.195C48.1962 173.303 48.2292 173.445 48.3376 173.512C48.3756 173.536 48.4178 173.547 48.4594 173.547" fill="#E9EAF3"/>
<path fill-rule="evenodd" clip-rule="evenodd" d="M47.5171 172.881C47.5944 172.881 47.6695 172.842 47.7135 172.772C48.1341 172.096 48.6935 171.772 48.6991 171.769C48.8097 171.705 48.8484 171.565 48.7852 171.454C48.722 171.343 48.5811 171.305 48.4703 171.368C48.4433 171.384 47.8028 171.754 47.3213 172.528C47.2538 172.637 47.2871 172.779 47.3955 172.846C47.4336 172.869 47.4757 172.881 47.5171 172.881" fill="#E9EAF3"/>
<path fill-rule="evenodd" clip-rule="evenodd" d="M46.5749 172.214C46.6522 172.214 46.7275 172.176 46.7713 172.106C47.192 171.429 47.7513 171.105 47.7569 171.102C47.8679 171.039 47.9064 170.898 47.8432 170.788C47.78 170.677 47.6387 170.639 47.5283 170.702C47.5011 170.717 46.8606 171.088 46.3791 171.862C46.3118 171.97 46.3451 172.112 46.4535 172.18C46.4915 172.203 46.5335 172.214 46.5749 172.214" fill="#E9EAF3"/>
<path fill-rule="evenodd" clip-rule="evenodd" d="M45.6327 171.548C45.7101 171.548 45.7854 171.509 45.829 171.439C46.2499 170.763 46.8092 170.439 46.8148 170.436C46.9256 170.373 46.9641 170.232 46.9009 170.121C46.8377 170.011 46.6966 169.973 46.586 170.035C46.5588 170.051 45.9185 170.422 45.4369 171.196C45.3697 171.304 45.4028 171.446 45.5111 171.513C45.5493 171.537 45.5912 171.548 45.6327 171.548" fill="#E9EAF3"/>
<path fill-rule="evenodd" clip-rule="evenodd" d="M22.9183 170.679L28.2427 170.832L28.4166 164.78L23.0921 164.627L22.9183 170.679Z" fill="#474647"/>
<path fill-rule="evenodd" clip-rule="evenodd" d="M22.9183 170.679L28.2427 170.832L28.4166 164.78L23.0921 164.627L22.9183 170.679Z" stroke="#383738" stroke-width="0.5"/>
<path fill-rule="evenodd" clip-rule="evenodd" d="M22.9184 139.019C23.0568 136.27 25.3125 134.504 27.6352 134.571C30.0706 134.64 32.1635 136.684 32.0889 139.282C32.0923 140.559 29.8525 167.546 29.8525 167.546C27.5541 168.419 24.5904 168.168 21.6309 167.052L22.9184 139.019Z" fill="#1A74C2"/>
<path fill-rule="evenodd" clip-rule="evenodd" d="M24.5234 104.56C24.6025 101.806 26.9014 99.6378 29.6588 99.7168C32.4157 99.7958 34.5868 102.092 34.5077 104.846C34.5057 104.916 32.1875 138.017 32.0888 139.282C31.9483 142.18 29.5393 143.792 27.3719 143.73C24.9995 143.662 22.7418 141.637 22.9261 138.853L24.5234 104.56Z" fill="#1A74C2"/>
<path fill-rule="evenodd" clip-rule="evenodd" d="M29.4708 170.262C29.4708 170.262 28.7388 169.128 25.846 169.128C22.953 169.128 22.6799 170.324 22.6799 170.324V171.73H29.4479L29.4708 170.262Z" fill="#F9A183"/>
<path fill-rule="evenodd" clip-rule="evenodd" d="M21.0267 177.601H37.0064V176.133H21.0267V177.601Z" fill="#CFD0D7"/>
<path fill-rule="evenodd" clip-rule="evenodd" d="M36.9745 176.133C36.9745 176.133 37.3139 173.165 33.5747 173.087L29.0485 169.115C29.0485 169.115 28.2316 168.496 27.1601 169.11C26.3629 169.568 26.2469 170.893 24.7961 170.657C23.3458 170.421 23.3101 169.331 22.7989 169.42C22.2877 169.509 20.8532 172.097 20.9955 176.133H36.9745Z" fill="#DBDCE4"/>
<path fill-rule="evenodd" clip-rule="evenodd" d="M33.5748 173.105C37.314 173.183 36.9746 176.133 36.9746 176.133H30.7016C30.6951 173.198 33.5748 173.105 33.5748 173.105" fill="#CACBD2"/>
<path fill-rule="evenodd" clip-rule="evenodd" d="M30.7189 173.56C30.7819 173.56 30.8446 173.535 30.8911 173.486C31.7184 172.606 32.876 172.583 32.8876 172.583C33.018 172.581 33.1228 172.475 33.1217 172.344C33.1199 172.214 33.0108 172.107 32.8825 172.111C32.827 172.112 31.5101 172.138 30.5467 173.163C30.4573 173.258 30.462 173.407 30.5571 173.496C30.6027 173.539 30.6609 173.56 30.7189 173.56" fill="#E9EAF3"/>
<path fill-rule="evenodd" clip-rule="evenodd" d="M29.7737 172.734C29.8368 172.734 29.8995 172.709 29.9459 172.66C30.7732 171.78 31.9311 171.757 31.9424 171.757C32.073 171.755 32.1777 171.688 32.1764 171.558C32.175 171.428 32.0692 171.363 31.9399 171.363H31.9374C31.8819 171.363 30.565 171.351 29.6015 172.376C29.5122 172.471 29.5171 172.601 29.612 172.69C29.6577 172.733 29.7157 172.734 29.7737 172.734" fill="#E9EAF3"/>
<path fill-rule="evenodd" clip-rule="evenodd" d="M28.8287 171.909C28.8917 171.909 28.9546 171.884 29.001 171.834C29.8282 170.954 30.9862 170.931 30.9974 170.931C31.1279 170.93 31.2326 170.816 31.2315 170.686C31.2299 170.557 31.1242 170.446 30.995 170.446H30.9927C30.937 170.446 29.62 170.479 28.6565 171.504C28.5671 171.599 28.5718 171.752 28.6669 171.841C28.7128 171.884 28.7707 171.909 28.8287 171.909" fill="#E9EAF3"/>
<path fill-rule="evenodd" clip-rule="evenodd" d="M27.8837 171.083C27.9466 171.083 28.0093 171.058 28.0559 171.008C28.883 170.128 30.0409 170.105 30.0526 170.105C30.1828 170.104 30.2877 170.036 30.2862 169.906C30.2848 169.777 30.1792 169.712 30.0499 169.712H30.0474C29.9919 169.712 28.6746 169.699 27.7115 170.724C27.6222 170.819 27.6269 170.949 27.722 171.038C27.7675 171.081 27.8255 171.083 27.8837 171.083" fill="#E9EAF3"/>
<path fill-rule="evenodd" clip-rule="evenodd" d="M24.5166 96.8779H48.7335L48.6386 105.443C48.5729 108.557 46.0353 111.075 42.9289 111.185L30.2157 111.275C27.0461 111.188 24.5166 108.55 24.5166 105.363V96.8779Z" fill="#1A74C2"/>
<path fill-rule="evenodd" clip-rule="evenodd" d="M28.4393 97.4282C28.7411 98.6973 29.1536 102.204 25.0113 103.639C25.0113 103.639 24.5221 99.7238 24.918 97.4282H28.4393Z" fill="#2382C9"/>
<path fill-rule="evenodd" clip-rule="evenodd" d="M24.9336 104.65C26.9764 104.017 28.3715 102.95 29.0787 101.481C29.8051 99.9738 29.6387 98.3644 29.4353 97.4283H29.8159C30.0254 98.4229 30.1699 100.061 29.4112 101.637C28.7319 103.05 27.4691 104.11 25.652 104.792C25.4555 104.866 25.2521 104.936 25.0426 105.001C24.9457 105.031 24.843 104.977 24.8128 104.88C24.7825 104.783 24.8358 104.68 24.9336 104.65" fill="#2382C9"/>
<path fill-rule="evenodd" clip-rule="evenodd" d="M34.6599 110.528C34.6936 110.528 34.728 110.518 34.7586 110.499C34.8442 110.444 34.8689 110.331 34.8141 110.246C34.7977 110.22 33.1314 107.649 30.6968 105.926C30.6138 105.868 30.4994 105.887 30.4407 105.97C30.382 106.052 30.4016 106.167 30.4845 106.226C32.8592 107.906 34.4888 110.418 34.505 110.444C34.5401 110.498 34.5992 110.528 34.6599 110.528" fill="#2382C9"/>
<path fill-rule="evenodd" clip-rule="evenodd" d="M33.5751 110.158C33.6284 110.158 33.6812 110.135 33.7176 110.091C33.7817 110.012 33.77 109.897 33.6915 109.833C33.66 109.807 30.4856 107.246 26.4449 106.512C26.3455 106.495 26.2493 106.56 26.2315 106.66C26.2131 106.76 26.279 106.855 26.3792 106.874C30.3277 107.591 33.4281 110.092 33.4591 110.117C33.4932 110.145 33.5342 110.158 33.5751 110.158" fill="#2382C9"/>
<path fill-rule="evenodd" clip-rule="evenodd" d="M33.7591 110.874C33.8451 110.874 33.922 110.813 33.9393 110.726C33.9587 110.627 33.8941 110.53 33.7943 110.51C33.6318 110.478 29.7851 109.732 27.7511 110.165C27.652 110.186 27.5888 110.284 27.6101 110.383C27.631 110.482 27.7293 110.545 27.828 110.524C29.7881 110.106 33.6844 110.863 33.7235 110.871C33.7355 110.873 33.7474 110.874 33.7591 110.874" fill="#2382C9"/>
<path fill-rule="evenodd" clip-rule="evenodd" d="M38.3507 110.528C38.3168 110.528 38.2824 110.518 38.2516 110.499C38.1662 110.444 38.1415 110.331 38.1963 110.246C38.2127 110.22 39.8792 107.649 42.3136 105.926C42.3966 105.868 42.511 105.887 42.5697 105.97C42.6284 106.052 42.6088 106.167 42.5259 106.226C40.1512 107.906 38.5216 110.418 38.5054 110.444C38.4703 110.498 38.4112 110.528 38.3507 110.528" fill="#2382C9"/>
<path fill-rule="evenodd" clip-rule="evenodd" d="M39.4355 110.158C39.382 110.158 39.329 110.135 39.2928 110.091C39.2289 110.012 39.2404 109.897 39.3189 109.833C39.3505 109.807 42.5248 107.246 46.5655 106.512C46.6649 106.495 46.7611 106.56 46.779 106.66C46.7971 106.76 46.7312 106.855 46.6313 106.874C42.6828 107.591 39.5823 110.092 39.5513 110.117C39.5173 110.145 39.476 110.158 39.4355 110.158" fill="#2382C9"/>
<path fill-rule="evenodd" clip-rule="evenodd" d="M39.2511 110.874C39.1653 110.874 39.0884 110.813 39.0711 110.726C39.0517 110.627 39.1164 110.53 39.216 110.51C39.3786 110.478 43.2253 109.732 45.2593 110.165C45.3582 110.186 45.4216 110.284 45.4003 110.383C45.3794 110.482 45.2811 110.545 45.1824 110.524C43.2223 110.106 39.326 110.863 39.2869 110.871C39.2749 110.873 39.263 110.874 39.2511 110.874" fill="#2382C9"/>
<path fill-rule="evenodd" clip-rule="evenodd" d="M36.2897 110.821C36.3684 110.821 36.441 110.77 36.4655 110.691C37.9724 105.765 37.6703 97.7308 37.6669 97.6502C37.663 97.5489 37.5792 97.4719 37.4764 97.4744C37.3749 97.4784 37.2959 97.5637 37.3002 97.665C37.3031 97.7448 37.6026 105.717 36.1139 110.584C36.0845 110.681 36.1391 110.783 36.2358 110.813C36.2539 110.818 36.272 110.821 36.2897 110.821" fill="#2382C9"/>
<path fill-rule="evenodd" clip-rule="evenodd" d="M37.512 107.886H37.5156C37.533 107.886 39.2626 107.845 39.9081 105.879C40.5236 104.004 40.3239 98.152 40.3152 97.9034C40.3116 97.8023 40.2241 97.7256 40.125 97.7303C40.0236 97.7339 39.9443 97.8208 39.9481 97.9221C39.9501 97.9825 40.1542 103.966 39.5591 105.779C38.9938 107.5 37.5235 107.549 37.5087 107.549C37.4071 107.551 37.3264 107.619 37.3284 107.721C37.3304 107.821 37.4122 107.886 37.512 107.886" fill="#2382C9"/>
<path fill-rule="evenodd" clip-rule="evenodd" d="M48.504 97.4282L48.3662 102.565C48.3662 102.565 46.4069 100.394 46.2845 97.6576L48.504 97.4282Z" fill="#2382C9"/>
<path fill-rule="evenodd" clip-rule="evenodd" d="M48.1822 103.822C48.2428 103.822 48.3017 103.793 48.3368 103.739C48.3919 103.654 48.3676 103.54 48.2824 103.485C45.6097 101.757 45.3682 97.689 45.3658 97.648C45.3608 97.5469 45.2704 97.4692 45.1731 97.4744C45.0719 97.4794 44.9939 97.5658 44.9991 97.6669C45.0081 97.8414 45.2507 101.963 48.0828 103.793C48.1138 103.813 48.1482 103.822 48.1822 103.822" fill="#2382C9"/>
<path fill-rule="evenodd" clip-rule="evenodd" d="M31.8635 57.2503H39.3941V48.4442H31.8635V57.2503Z" fill="#F9A183"/>
<path fill-rule="evenodd" clip-rule="evenodd" d="M31.8636 52.2061V48.4441H39.3942V54.3149C38.1085 54.4716 33.7003 54.7735 31.8636 52.2061" fill="#EE8C72"/>
<path fill-rule="evenodd" clip-rule="evenodd" d="M40.3994 56.4477C40.3994 56.4477 35.9684 55.4157 30.6877 56.4477C30.6877 56.4477 33.7028 66.8207 37.6518 66.8207C41.6009 66.8207 40.3994 56.4477 40.3994 56.4477" fill="#F9A183"/>
<path fill-rule="evenodd" clip-rule="evenodd" d="M16.4243 62.1407C17.18 59.4215 19.5871 58.9933 19.5871 58.9933C19.5871 58.9933 25.928 57.2308 31.1504 56.0941L37.8068 62.6625C39.1385 60.0481 39.8721 56.0941 39.8721 56.0941C42.2491 56.468 48.2571 57.8724 50.6261 58.9778C50.6261 58.9778 53.1195 59.8112 53.3566 62.6549C53.3566 62.6549 53.3913 63.9366 50.6929 65.7028C50.5301 68.6988 50.143 72.8426 49.3184 78.4221C48.4455 84.3284 48.631 86.9335 48.6934 94.2177C48.9144 94.4919 49.2033 95.2613 49.4074 95.5741C49.8051 96.1857 48.7503 97.3366 48.7503 97.3366C48.7503 97.3366 41.41 100.637 24.386 97.3943C23.7891 96.7187 23.4784 96.1745 23.4171 95.7467C23.384 95.5148 23.7819 94.843 24.1536 94.2762C24.2689 90.8942 24.3487 85.304 23.802 80.6808C23.1201 74.913 20.8431 69.2903 20.4757 66.19V66.1917C15.7002 64.1874 16.4243 62.1407 16.4243 62.1407" fill="#00B9B6"/>
<path fill-rule="evenodd" clip-rule="evenodd" d="M39.3662 53.4894C39.3662 53.4894 40.0267 53.3726 41.8458 56.0942C41.8458 56.0942 42.3049 58.871 42.3968 61.8065C42.3968 61.8065 41.509 60.9809 40.6838 60.5296L38.2051 61.7986C38.2051 61.7986 39.1423 57.8721 39.3261 55.8916C39.3261 55.8916 39.3662 54.1139 39.3662 53.4894" fill="#395C7C"/>
<path fill-rule="evenodd" clip-rule="evenodd" d="M31.8356 53.245L31.9275 55.5074C32.2947 56.4626 35.3828 59.9574 36.8041 61.6749C36.8041 61.6749 34.3847 60.6494 33.6419 60.614C33.6419 60.614 32.1029 61.5878 31.56 62.0204C31.56 62.0204 30.1826 59.6352 29.0496 56.1495C29.0496 56.1495 30.9171 53.4281 31.8356 53.245" fill="#395C7C"/>
<path fill-rule="evenodd" clip-rule="evenodd" d="M38.8438 98.529C38.9437 98.529 39.0255 98.4949 39.0273 98.3946C39.5172 72.4241 38.0777 62.9712 38.0629 62.8787C38.0473 62.7785 37.9531 62.7213 37.8531 62.7373C37.7528 62.7531 37.6843 62.8526 37.7002 62.9526C37.7146 63.0451 39.1493 72.4567 38.6599 98.3849C38.6581 98.4862 38.7388 98.529 38.8402 98.529H38.8438Z" fill="#183854"/>
<path fill-rule="evenodd" clip-rule="evenodd" d="M42.434 75.3004L45.2221 76.9751L48.1662 75.3213L48.1875 69.4598L42.4552 69.4393L42.434 75.3004Z" fill="#395C7C"/>
<path fill-rule="evenodd" clip-rule="evenodd" d="M42.4487 71.2582L42.4553 69.4395L48.1874 69.4598L48.1809 71.289L45.3908 72.1945L42.4487 71.2582Z" fill="#486F8B"/>
<path fill-rule="evenodd" clip-rule="evenodd" d="M27.4638 75.8895L30.7792 77.4295L34.0655 75.5165L33.7222 69.4537L27.1203 69.8267L27.4638 75.8895Z" fill="#395C7C"/>
<path fill-rule="evenodd" clip-rule="evenodd" d="M27.2269 71.7081L27.1202 69.8267L33.7221 69.4537L33.8293 71.3455L30.6737 72.474L27.2269 71.7081Z" fill="#486F8B"/>
<path fill-rule="evenodd" clip-rule="evenodd" d="M35.918 63.427C35.918 63.0447 36.2284 62.7345 36.6111 62.7345C36.9939 62.7345 37.3043 63.0447 37.3043 63.427C37.3043 63.8093 36.9939 64.1191 36.6111 64.1191C36.2284 64.1191 35.918 63.8093 35.918 63.427" fill="#486F8B"/>
<path fill-rule="evenodd" clip-rule="evenodd" d="M36.6528 70.3985C36.6528 70.0162 36.9631 69.7061 37.3459 69.7061C37.7287 69.7061 38.039 70.0162 38.039 70.3985C38.039 70.7809 37.7287 71.0907 37.3459 71.0907C36.9631 71.0907 36.6528 70.7809 36.6528 70.3985" fill="#486F8B"/>
<path fill-rule="evenodd" clip-rule="evenodd" d="M36.8364 77.0032C36.8364 76.6208 37.1468 76.3107 37.5295 76.3107C37.9123 76.3107 38.2227 76.6208 38.2227 77.0032C38.2227 77.3855 37.9123 77.6953 37.5295 77.6953C37.1468 77.6953 36.8364 77.3855 36.8364 77.0032" fill="#486F8B"/>
<path fill-rule="evenodd" clip-rule="evenodd" d="M36.8364 83.6078C36.8364 83.2255 37.1468 82.9153 37.5295 82.9153C37.9123 82.9153 38.2227 83.2255 38.2227 83.6078C38.2227 83.9901 37.9123 84.2999 37.5295 84.2999C37.1468 84.2999 36.8364 83.9901 36.8364 83.6078" fill="#486F8B"/>
<path fill-rule="evenodd" clip-rule="evenodd" d="M36.8364 89.8454C36.8364 89.4631 37.1468 89.153 37.5295 89.153C37.9123 89.153 38.2227 89.4631 38.2227 89.8454C38.2227 90.2278 37.9123 90.5376 37.5295 90.5376C37.1468 90.5376 36.8364 90.2278 36.8364 89.8454" fill="#486F8B"/>
<path fill-rule="evenodd" clip-rule="evenodd" d="M36.8364 96.2666C36.8364 95.8843 37.1468 95.5741 37.5295 95.5741C37.9123 95.5741 38.2227 95.8843 38.2227 96.2666C38.2227 96.6489 37.9123 96.9587 37.5295 96.9587C37.1468 96.9587 36.8364 96.6489 36.8364 96.2666" fill="#486F8B"/>
<path fill-rule="evenodd" clip-rule="evenodd" d="M45.959 165.28C45.959 165.28 46.3003 165.371 46.1076 166.119C45.9147 166.868 46.2695 167.444 45.8561 167.73C45.4429 168.015 42.3201 169.1 37.6978 167.51C37.6978 167.51 37.1621 167.281 37.4984 166.21C37.6371 165.767 37.2635 165.232 37.6477 164.911C37.6477 164.911 42.7209 166.518 45.959 165.28" fill="#1A74C2"/>
<path fill-rule="evenodd" clip-rule="evenodd" d="M30.0224 165.237C30.0224 165.237 30.3604 165.34 30.1427 166.081C29.9249 166.823 30.2601 167.411 29.8372 167.682C29.4148 167.954 26.2576 168.934 21.6911 167.19C21.6911 167.19 21.1633 166.943 21.5353 165.883C21.6891 165.445 21.3335 164.898 21.7284 164.59C21.7284 164.59 26.7445 166.366 30.0224 165.237" fill="#1A74C2"/>
<path fill-rule="evenodd" clip-rule="evenodd" d="M27.8211 39.867C27.8211 39.867 25.4376 27.2544 37.3457 27.2544C46.2846 27.2544 45.7546 37.421 45.7546 37.421C45.76 40.6456 45.8274 46.1223 43.6083 49.3933C42.672 50.7732 41.5039 52.0517 39.5036 52.2421C30.8867 53.0616 28.8039 46.3159 28.4997 45.0444C28.1203 43.4595 27.8211 39.867 27.8211 39.867" fill="#F9A183"/>
<path fill-rule="evenodd" clip-rule="evenodd" d="M41.0057 41.4594C41.0129 42.2026 41.4643 42.7697 42.0144 42.7252C42.5645 42.6813 43.0041 42.043 42.9973 41.3C42.9895 40.5567 42.538 39.9895 41.9879 40.0335C41.4378 40.0776 40.9977 40.7158 41.0057 41.4594" fill="#474647"/>
<path fill-rule="evenodd" clip-rule="evenodd" d="M33.4463 41.2398C33.4537 41.983 33.9053 42.5501 34.4554 42.506C35.0055 42.4619 35.4455 41.8234 35.4381 41.0807C35.4306 40.3371 34.9785 39.7702 34.4289 39.8143C33.879 39.858 33.4388 40.4965 33.4463 41.2398" fill="#474647"/>
<path fill-rule="evenodd" clip-rule="evenodd" d="M38.3251 45.6772C39.9976 46.3523 40.8987 45.5662 40.9661 44.776C41.0099 44.2615 40.7179 43.8047 40.2229 43.6111C39.2041 43.2137 38.4858 41.6486 38.4786 41.6326C38.4743 41.9922 38.8376 43.3448 40.13 44.096C40.4093 44.2582 40.5833 44.4295 40.5623 44.6839C40.5246 45.1269 39.8837 45.7882 38.3251 45.6772" fill="#DA7C65"/>
<path fill-rule="evenodd" clip-rule="evenodd" d="M44.4038 38.4598L44.4768 37.6572C44.3678 37.6432 42.6415 36.8943 40.6163 37.1662L40.5989 38.4252C42.2578 38.0341 44.3772 38.4566 44.4038 38.4598" fill="#474647"/>
<path fill-rule="evenodd" clip-rule="evenodd" d="M32.0734 38.5583C33.4753 37.9589 35.9801 38.2352 36.0041 38.2305L35.9176 37.0609C35.8173 37.0762 33.5468 36.8108 31.9518 37.8349L32.0734 38.5583Z" fill="#474647"/>
<path fill-rule="evenodd" clip-rule="evenodd" d="M35.418 46.8385C35.418 46.8385 38.5653 47.4806 41.4914 46.8385C41.4914 46.8385 40.9734 49.5273 38.4547 49.5216C36.0805 49.5165 35.4455 47.3585 35.418 46.8385" fill="#B12828"/>
<path fill-rule="evenodd" clip-rule="evenodd" d="M38.5216 48.1227C40.4576 48.1227 41.0259 47.3208 41.2698 46.884C38.9984 47.332 37.1671 47.0643 35.5723 46.8671C35.7448 47.3523 36.697 48.1227 38.5216 48.1227" fill="white"/>
<path fill-rule="evenodd" clip-rule="evenodd" d="M27.7298 39.7625C27.7298 39.7625 28.6977 39.9745 29.0345 42.6959C29.3715 45.4171 28.6906 45.6436 28.4874 45.7366C28.4874 45.7366 26.019 46.426 25.1627 42.3459C24.4514 38.9567 27.7298 39.7625 27.7298 39.7625" fill="#F9A183"/>
<path fill-rule="evenodd" clip-rule="evenodd" d="M28.4132 43.8622C28.4132 43.8622 26.6151 42.9629 28.0191 42.06C28.0191 42.06 27.5474 40.0034 26.344 40.4681C25.1406 40.9327 26.105 42.8608 26.344 43.2592C26.8449 44.0933 28.4132 45.1154 28.4132 43.8622" fill="#DA7C65"/>
<path fill-rule="evenodd" clip-rule="evenodd" d="M45.7606 39.0876C45.7606 39.0876 46.1626 34.8071 46.1008 32.789C46.1008 32.789 50.3253 29.8537 47.5703 26.1845C47.5703 26.1845 47.5396 26.8415 47.402 27.3003C47.402 27.3003 46.8968 23.998 44.1418 22.9431C44.1418 22.9431 43.9186 24.7777 42.5378 25.1446C41.1571 25.5114 29.1268 22.3318 27.626 29.5476C27.626 29.5476 25.3318 30.7401 25.752 33.9814C26.1721 37.2226 26.6615 39.6925 26.6615 39.6925C26.6615 39.6925 28.4836 39.6 28.9427 41.3794C28.9427 41.3794 29.6636 37.5357 29.968 37.0409C30.8254 35.6476 31.0549 33.9048 31.1314 31.7492C31.1314 31.7492 41.3688 34.288 45.1123 33.0032C45.1123 33.0032 45.7265 36.2135 45.7606 39.0876" fill="#474647"/>
<path fill-rule="evenodd" clip-rule="evenodd" d="M45.7606 39.0876C45.7265 36.2134 45.1123 33.0032 45.1123 33.0032L46.1008 32.7889C46.1626 34.807 45.7606 39.0876 45.7606 39.0876" fill="#474647"/>
<path fill-rule="evenodd" clip-rule="evenodd" d="M31.1314 31.7491C31.055 33.9049 30.8254 35.6477 29.968 37.0408C29.6636 37.5358 28.9427 41.3795 28.9427 41.3795C28.4836 39.5999 26.6615 39.6924 26.6615 39.6924C26.6615 39.6924 26.4815 38.7822 26.2459 37.3436C30.5424 36.4156 31.1314 31.7491 31.1314 31.7491" fill="#474647"/>
<path fill-rule="evenodd" clip-rule="evenodd" d="M18.0044 61.3149C19.1648 59.8317 21.3095 59.5684 22.7943 60.7275C24.2798 61.8863 24.5428 64.0284 23.3824 65.5118C23.2001 65.7449 8.65312 81.1055 8.65312 81.1055C7.66424 82.3263 5.87579 82.5357 4.63222 81.5654C3.38864 80.5949 3.15952 78.8109 4.1059 77.5571L18.0044 61.3149Z" fill="#F9A183"/>
<path fill-rule="evenodd" clip-rule="evenodd" d="M4.48174 81.427C3.34354 80.3441 3.27851 78.5466 4.34683 77.3869C5.41568 76.2268 7.25511 76.1082 8.42988 77.1517C8.42988 77.1517 12.7979 79.983 23.8141 91.3256L21.3185 94.0348C21.3185 94.0348 9.53494 86.9013 4.63251 81.5591C4.60008 81.524 4.48174 81.427 4.48174 81.427" fill="#F9A183"/>
<path fill-rule="evenodd" clip-rule="evenodd" d="M8.15057 71.1199L17.184 60.5862C18.7008 58.6719 21.4934 58.3384 23.4209 59.8457C25.3546 61.3579 25.6957 64.1595 24.182 66.0911C24.0485 66.2607 19.4393 71.1294 14.3169 76.5307C12.7281 75.3571 10.119 73.3021 8.15057 71.1199" fill="#00B9B6"/>
<path fill-rule="evenodd" clip-rule="evenodd" d="M15.353 75.4715C15.353 75.4715 11.9164 73.2219 8.99194 70.1817C8.99194 70.1817 8.44094 70.1466 8.23776 70.6529C8.03512 71.1588 6.62637 71.9445 6.91547 72.5569C6.91547 72.5569 10.333 76.3891 13.3969 77.7653C13.3969 77.7653 14.0956 77.7111 14.5695 76.7871C15.0434 75.8627 15.5816 75.8753 15.353 75.4715" fill="#486F8B"/>
<path fill-rule="evenodd" clip-rule="evenodd" d="M20.69 92.0505C21.2644 90.4027 22.14 90.6625 22.14 90.6625L23.4012 90.7247C24.4983 90.1753 25.0841 89.2989 25.6488 89.1222C26.669 88.8029 27.0049 87.8119 27.222 87.8947C27.6896 88.0731 27.8034 88.5035 27.5979 88.8989C27.3054 89.4617 26.6168 89.9876 26.6168 89.9876C27.059 89.8268 28.9085 89.2671 29.5645 89.1847C30.131 89.1134 31.7671 90.0844 31.9634 90.1947C32.2076 90.332 32.5542 90.568 32.4407 90.8006C32.2496 91.1923 31.787 91.1853 31.4349 91.0828C31.0435 90.968 30.1576 90.3366 29.8385 90.4208C29.6528 90.47 28.5178 90.8078 28.4297 90.8433C28.4297 90.8433 29.8269 91.3852 30.4273 91.5973C31.121 91.8427 32.5737 92.4382 32.5737 92.4382C33.7158 93.1552 32.3013 93.6032 32.3013 93.6032C32.3867 93.6742 32.6718 93.9281 32.5821 94.149C32.416 94.5589 31.822 94.5598 31.6743 94.5535C31.2182 94.5351 29.8145 94.0821 29.7772 94.0861C29.7772 94.0857 27.7427 94.1494 27.7427 94.1494C28.3544 94.6235 28.7125 94.886 29.4741 95.4093C29.6018 95.497 30.4194 96.0018 30.4777 96.1274C30.5485 96.2778 30.4864 96.4138 30.3489 96.4811C30.0624 96.6218 29.709 96.6114 29.3846 96.5027C29.2275 96.4498 28.6041 96.1636 28.2683 95.9673C26.9478 95.1962 26.2079 94.9545 25.002 95.8309C23.2648 97.0937 21.3521 94.5107 21.3521 94.5107C21.3521 94.5107 20.1157 93.6984 20.69 92.0505" fill="#F9A183"/>
<path fill-rule="evenodd" clip-rule="evenodd" d="M26.6166 89.9877L25.6868 90.3248C25.6868 90.3248 25.5809 90.1089 26.6166 89.9877" fill="#EE8C72"/>
<path fill-rule="evenodd" clip-rule="evenodd" d="M32.3012 93.6032C32.3012 93.6032 30.3944 92.9346 29.9587 92.8168C29.523 92.699 27.3808 92.7349 27.5541 92.2677C27.5541 92.2677 28.1998 91.7053 32.3012 93.6032" fill="#EE8C72"/>
<path fill-rule="evenodd" clip-rule="evenodd" d="M28.4297 90.8434C28.4297 90.8434 27.3571 90.6877 27.6146 90.5803C27.8722 90.4735 28.2191 90.762 28.4297 90.8434" fill="#EE8C72"/>
<path fill-rule="evenodd" clip-rule="evenodd" d="M151.993 107.392L154.366 106.717L154.179 106.061L151.806 106.737L151.993 107.392ZM154.975 107.382L151.826 108.278C151.612 108.339 151.388 108.215 151.327 108.001L150.919 106.57C150.858 106.356 150.982 106.133 151.197 106.072L154.346 105.176C154.56 105.115 154.784 105.239 154.845 105.453L155.253 106.883C155.314 107.098 155.19 107.321 154.975 107.382V107.382Z" fill="#3D4E76"/>
<path fill-rule="evenodd" clip-rule="evenodd" d="M168.788 123.4L159.525 126.037C158.194 126.416 156.801 125.642 156.422 124.312L151.735 107.885C151.674 107.671 151.798 107.448 152.013 107.387C152.227 107.326 152.45 107.45 152.512 107.664L157.198 124.091C157.456 124.993 158.4 125.518 159.304 125.261L168.567 122.625C169.471 122.367 169.996 121.424 169.739 120.521L166.712 109.913C165.824 106.797 162.94 104.603 159.7 104.577C158.602 104.568 157.592 105.169 157.064 106.145L156.496 107.197C155.778 108.524 155.283 109.951 155.025 111.437C154.987 111.656 154.778 111.803 154.559 111.765C154.339 111.727 154.192 111.519 154.23 111.299C154.503 109.727 155.026 108.218 155.785 106.813L156.354 105.762C157.025 104.522 158.309 103.759 159.706 103.771C161.434 103.784 163.15 104.365 164.54 105.406C165.976 106.481 166.996 107.963 167.489 109.692L170.515 120.3C170.895 121.63 170.12 123.021 168.788 123.4" fill="#3D4E76"/>
<path fill-rule="evenodd" clip-rule="evenodd" d="M159.334 106.311C159.003 106.405 158.718 106.637 158.55 106.947C158.39 107.244 158.383 107.587 158.533 107.89C158.682 108.193 158.959 108.397 159.293 108.451L162.727 109.002C162.934 109.036 163.141 108.985 163.309 108.86C163.478 108.735 163.585 108.551 163.613 108.344C163.647 108.087 163.549 107.83 163.35 107.658C162.325 106.77 161.024 106.274 159.686 106.264H159.686C159.567 106.263 159.448 106.279 159.334 106.311M163.281 109.759C163.063 109.821 162.831 109.836 162.599 109.798L159.165 109.247C158.569 109.151 158.075 108.787 157.809 108.247C157.542 107.707 157.554 107.093 157.84 106.564C158.111 106.064 158.574 105.689 159.113 105.536C159.301 105.482 159.496 105.456 159.693 105.457V105.457C161.222 105.47 162.709 106.035 163.879 107.049C164.283 107.399 164.483 107.923 164.413 108.45C164.357 108.875 164.136 109.25 163.791 109.507C163.635 109.623 163.462 109.708 163.281 109.759" fill="#3D4E76"/>
<path fill-rule="evenodd" clip-rule="evenodd" d="M167.489 121.578L159.668 123.804C159.058 123.977 158.42 123.623 158.247 123.014L156.608 117.272C156.13 115.594 156.002 113.875 156.228 112.163C156.258 111.942 156.46 111.787 156.681 111.816C156.902 111.845 157.058 112.048 157.029 112.269C156.817 113.871 156.936 115.479 157.385 117.051L159.023 122.793C159.075 122.974 159.265 123.08 159.447 123.028L167.267 120.802C167.449 120.75 167.555 120.561 167.503 120.379L165.287 112.612C165.226 112.398 165.351 112.175 165.565 112.114C165.779 112.053 166.003 112.177 166.064 112.391L168.28 120.158C168.453 120.767 168.099 121.404 167.489 121.578" fill="#3D4E76"/>
<path fill-rule="evenodd" clip-rule="evenodd" d="M162.87 120.209C161.679 120.548 160.434 119.856 160.094 118.666C160.039 118.473 159.873 117.889 160.324 115.126C160.36 114.906 160.568 114.757 160.788 114.793C161.008 114.829 161.157 115.036 161.121 115.256C160.74 117.589 160.819 118.263 160.871 118.445C161.088 119.207 161.886 119.65 162.649 119.433C163.412 119.216 163.856 118.419 163.639 117.657C163.455 117.014 161.743 115.03 160.707 113.931C160.554 113.769 160.561 113.514 160.724 113.362C160.886 113.209 161.141 113.217 161.294 113.379C161.582 113.684 164.117 116.394 164.415 117.436C164.754 118.626 164.061 119.87 162.87 120.209" fill="#3D4E76"/>
<path fill-rule="evenodd" clip-rule="evenodd" d="M81.7177 108.986C81.2717 108.986 80.91 109.347 80.91 109.793C80.91 110.238 81.2717 110.6 81.7177 110.6C82.1637 110.6 82.5254 110.238 82.5254 109.793C82.5254 109.347 82.1637 108.986 81.7177 108.986" fill="#3D4E76"/>
<path fill-rule="evenodd" clip-rule="evenodd" d="M80.2158 111.394C79.7698 111.394 79.4081 111.755 79.4081 112.2C79.4081 112.646 79.7698 113.007 80.2158 113.007C80.6617 113.007 81.0234 112.646 81.0234 112.2C81.0234 111.755 80.6617 111.394 80.2158 111.394" fill="#3D4E76"/>
<path fill-rule="evenodd" clip-rule="evenodd" d="M76.4441 107.425C76.1287 107.11 75.6173 107.11 75.3017 107.426C74.9861 107.741 74.9861 108.252 75.3015 108.567C75.6169 108.882 76.1283 108.882 76.4439 108.566C76.7593 108.251 76.7595 107.74 76.4441 107.425" fill="#3D4E76"/>
<path fill-rule="evenodd" clip-rule="evenodd" d="M73.6775 108.067C73.3621 107.752 72.8505 107.752 72.5351 108.067C72.2195 108.382 72.2195 108.893 72.5349 109.208C72.8503 109.523 73.3617 109.523 73.6773 109.208C73.9928 108.893 73.9928 108.382 73.6775 108.067" fill="#3D4E76"/>
<path fill-rule="evenodd" clip-rule="evenodd" d="M73.8197 102.597C73.8197 102.152 73.458 101.79 73.0118 101.79C72.5657 101.79 72.204 102.152 72.204 102.597C72.204 103.043 72.5657 103.404 73.0118 103.404C73.458 103.404 73.8197 103.043 73.8197 102.597" fill="#3D4E76"/>
<path fill-rule="evenodd" clip-rule="evenodd" d="M71.4091 101.097C71.4091 100.651 71.0474 100.29 70.6013 100.29C70.1551 100.29 69.7934 100.651 69.7934 101.097C69.7934 101.542 70.1551 101.904 70.6013 101.904C71.0474 101.904 71.4091 101.542 71.4091 101.097" fill="#3D4E76"/>
<path fill-rule="evenodd" clip-rule="evenodd" d="M87.194 109.128C86.8786 109.443 86.8786 109.954 87.1942 110.269C87.5096 110.584 88.0211 110.584 88.3365 110.269C88.6519 109.954 88.6517 109.443 88.3363 109.128C88.0208 108.813 87.5094 108.813 87.194 109.128" fill="#3D4E76"/>
<path fill-rule="evenodd" clip-rule="evenodd" d="M87.694 107.506C88.0094 107.191 88.0094 106.68 87.6938 106.365C87.3782 106.05 86.8669 106.05 86.5515 106.365C86.2361 106.68 86.2361 107.19 86.5516 107.506C86.867 107.821 87.3786 107.821 87.694 107.506" fill="#3D4E76"/>
<path fill-rule="evenodd" clip-rule="evenodd" d="M75.382 97.3296C75.6974 97.0146 75.6972 96.5038 75.3818 96.1886C75.0662 95.8734 74.5549 95.8734 74.2395 96.1884C73.9241 96.5034 73.9241 97.0142 74.2396 97.3294C74.555 97.6445 75.0666 97.6446 75.382 97.3296" fill="#3D4E76"/>
<path fill-rule="evenodd" clip-rule="evenodd" d="M74.7395 94.5662C75.0549 94.2511 75.0549 93.7404 74.7393 93.4252C74.4238 93.1099 73.9124 93.1099 73.597 93.425C73.2816 93.74 73.2816 94.2508 73.5972 94.566C73.9128 94.8812 74.4241 94.8812 74.7395 94.5662" fill="#3D4E76"/>
<path fill-rule="evenodd" clip-rule="evenodd" d="M80.9667 107.493C77.8499 107.493 75.3141 104.96 75.3141 101.847C75.3141 100.191 76.0382 98.6247 77.3007 97.5492C77.5094 97.3713 77.8232 97.3961 78.0014 97.6048C78.1795 97.8135 78.1546 98.1267 77.9457 98.3047C76.9049 99.1911 76.308 100.482 76.308 101.847C76.308 104.413 78.398 106.5 80.9667 106.5C83.5355 106.5 85.6255 104.413 85.6255 101.847C85.6255 99.2813 83.5355 97.1939 80.9667 97.1939C80.6922 97.1939 80.4698 96.9715 80.4698 96.6973C80.4698 96.4233 80.6922 96.2009 80.9667 96.2009C84.0836 96.2009 86.6194 98.7338 86.6194 101.847C86.6194 104.96 84.0836 107.493 80.9667 107.493" fill="#3D4E76"/>
<path fill-rule="evenodd" clip-rule="evenodd" d="M80.9667 104.187C79.6749 104.187 78.624 103.137 78.624 101.847C78.624 100.557 79.6749 99.5071 80.9667 99.5071C82.2586 99.5071 83.3094 100.557 83.3094 101.847C83.3094 102.121 83.087 102.343 82.8124 102.343C82.5379 102.343 82.3155 102.121 82.3155 101.847C82.3155 101.104 81.7104 100.5 80.9667 100.5C80.223 100.5 79.6179 101.104 79.6179 101.847C79.6179 102.59 80.223 103.194 80.9667 103.194C81.2412 103.194 81.4637 103.416 81.4637 103.69C81.4637 103.965 81.2412 104.187 80.9667 104.187" fill="#3D4E76"/>
<path fill-rule="evenodd" clip-rule="evenodd" d="M80.9667 115.499C73.4327 115.499 67.3034 109.375 67.3034 101.847C67.3034 99.1957 68.065 96.6247 69.5058 94.412C70.9093 92.2564 72.8817 90.5452 75.2094 89.463C75.4582 89.3473 75.7539 89.4551 75.8697 89.7036C75.9856 89.9522 75.8777 90.2475 75.6289 90.3631C71.1752 92.4334 68.2973 96.9412 68.2973 101.847C68.2973 108.827 73.9808 114.506 80.9667 114.506C86.6932 114.506 91.7259 110.651 93.2056 105.131C93.2699 104.892 93.5021 104.737 93.7472 104.767C94.1606 104.819 94.5861 104.7 94.9139 104.441C95.1347 104.266 95.4099 103.949 95.4665 103.429C95.6365 101.864 95.554 100.291 95.2215 98.7547C94.9993 97.728 94.4864 96.7902 93.738 96.0431L86.7775 89.0904C86.0294 88.3432 85.0906 87.8308 84.0627 87.6088C82.5374 87.2794 80.9759 87.1957 79.4216 87.36C78.8115 87.4244 78.3255 87.8062 78.122 88.3808C77.9212 88.9485 78.0563 89.5422 78.4839 89.9693L82.4835 93.9643C82.7996 94.2799 83.1882 94.528 83.6073 94.6816C84.6513 95.0643 85.5813 95.6586 86.3719 96.4482C87.1624 97.2379 87.7574 98.167 88.1405 99.2096C88.2943 99.6282 88.5427 100.016 88.8585 100.332L92.2553 103.725C92.4492 103.918 92.4492 104.233 92.2553 104.427C92.0613 104.621 91.7466 104.621 91.5524 104.427L88.1556 101.034C87.7385 100.617 87.4105 100.105 87.2073 99.5516C86.8744 98.6452 86.3569 97.8374 85.669 97.1503C84.9813 96.4633 84.1724 95.9464 83.2649 95.6138C82.7112 95.4107 82.198 95.0832 81.7807 94.6665L77.781 90.6713C77.0865 89.9776 76.8581 88.9731 77.185 88.0498C77.5144 87.1195 78.3313 86.4768 79.3169 86.3726C80.9766 86.1972 82.6438 86.2866 84.2729 86.6385C85.4876 86.9009 86.5968 87.5059 87.4803 88.3884L94.4411 95.341C95.3246 96.2235 95.9305 97.3313 96.1929 98.545C96.5481 100.186 96.6362 101.865 96.4547 103.536C96.3817 104.209 96.0535 104.806 95.5304 105.22C95.1095 105.552 94.5897 105.743 94.0579 105.769C92.3368 111.518 87.01 115.499 80.9667 115.499" fill="#3D4E76"/>
<path fill-rule="evenodd" clip-rule="evenodd" d="M129.367 104.012C129.477 103.648 129.27 103.264 128.905 103.154C128.54 103.044 128.156 103.25 128.046 103.615C127.935 103.979 128.142 104.363 128.507 104.473C128.872 104.583 129.256 104.377 129.367 104.012" fill="#3D4E76"/>
<path fill-rule="evenodd" clip-rule="evenodd" d="M127.264 108.61C127.189 108.587 127.114 108.563 127.039 108.537C124.432 107.619 123.058 104.753 123.977 102.149C124.897 99.5443 127.767 98.1723 130.373 99.0904L141.167 102.906C141.388 102.984 141.504 103.227 141.426 103.448C141.348 103.669 141.103 103.784 140.884 103.706L130.09 99.8901C127.925 99.1284 125.542 100.267 124.778 102.431C124.015 104.594 125.156 106.974 127.321 107.737C128.371 108.106 129.501 108.045 130.504 107.565C131.508 107.086 132.264 106.244 132.634 105.196C132.961 104.268 132.949 103.252 132.598 102.334C132.515 102.115 132.625 101.87 132.844 101.786C133.063 101.703 133.308 101.813 133.392 102.032C133.814 103.137 133.829 104.361 133.435 105.478C132.989 106.74 132.079 107.753 130.871 108.33C129.734 108.874 128.462 108.971 127.264 108.61" fill="#3D4E76"/>
<path fill-rule="evenodd" clip-rule="evenodd" d="M125.687 113.786C123.151 113.022 121.026 111.345 119.69 109.05C118.328 106.711 117.931 103.976 118.573 101.347C119.229 98.6567 120.908 96.3807 123.299 94.9391C125.732 93.4722 128.591 93.0446 131.348 93.7349L142.681 96.5716C143.011 96.0866 143.614 95.8694 144.186 96.0416C144.899 96.2564 145.304 97.0104 145.089 97.7225L143.205 103.963C142.99 104.675 142.235 105.079 141.522 104.865C140.809 104.65 140.404 103.896 140.619 103.184L141.802 99.2673C141.869 99.0429 142.106 98.9159 142.331 98.9836C142.555 99.0512 142.682 99.2878 142.615 99.512L141.432 103.429C141.353 103.693 141.503 103.973 141.768 104.052C142.032 104.132 142.313 103.982 142.392 103.718L144.276 97.4777C144.356 97.2134 144.205 96.9334 143.941 96.8537C143.719 96.7868 143.474 96.8841 143.36 97.0853C143.205 97.3589 142.882 97.4964 142.575 97.4196L131.142 94.5576C128.605 93.9225 125.976 94.316 123.738 95.665C121.542 96.9894 120 99.0786 119.398 101.548C118.186 106.511 121.052 111.503 125.931 112.973C125.972 112.985 126.013 112.998 126.054 113.009C128.558 113.728 131.192 113.405 133.469 112.099C135.745 110.795 137.351 108.69 137.991 106.172C138.172 105.464 138.271 104.739 138.287 104.016C138.292 103.782 138.486 103.596 138.721 103.601C138.955 103.606 139.141 103.8 139.136 104.035C139.118 104.821 139.01 105.611 138.814 106.381C138.116 109.123 136.368 111.415 133.892 112.835C131.413 114.256 128.546 114.607 125.82 113.825C125.775 113.812 125.731 113.799 125.687 113.786" fill="#3D4E76"/>
<path fill-rule="evenodd" clip-rule="evenodd" d="M130.709 103.721C130.569 103.679 130.454 103.565 130.418 103.412C130.365 103.184 130.506 102.955 130.735 102.902L133.077 102.352C133.305 102.298 133.533 102.44 133.587 102.668C133.641 102.896 133.499 103.124 133.271 103.178L130.929 103.728C130.854 103.745 130.778 103.742 130.709 103.721" fill="#3D4E76"/>
<path fill-rule="evenodd" clip-rule="evenodd" d="M131.726 107.56C131.657 107.54 131.593 107.501 131.54 107.445L129.892 105.693C129.731 105.523 129.74 105.254 129.91 105.094C130.082 104.934 130.35 104.942 130.511 105.113L132.159 106.864C132.319 107.035 132.311 107.303 132.14 107.463C132.025 107.571 131.867 107.603 131.726 107.56" fill="#3D4E76"/>
<path fill-rule="evenodd" clip-rule="evenodd" d="M127.258 108.608C127.034 108.541 126.907 108.304 126.975 108.08L127.669 105.779C127.737 105.555 127.974 105.428 128.198 105.496C128.423 105.563 128.55 105.8 128.482 106.024L127.788 108.325C127.72 108.549 127.483 108.676 127.258 108.608" fill="#3D4E76"/>
<path fill-rule="evenodd" clip-rule="evenodd" d="M124.116 105.268C123.975 105.226 123.861 105.112 123.825 104.959C123.771 104.731 123.913 104.502 124.141 104.449L126.483 103.899C126.711 103.846 126.94 103.987 126.994 104.215C127.047 104.443 126.906 104.671 126.677 104.725L124.335 105.275C124.26 105.292 124.185 105.289 124.116 105.268" fill="#3D4E76"/>
<path fill-rule="evenodd" clip-rule="evenodd" d="M127.088 102.63C127.019 102.609 126.954 102.571 126.901 102.515L125.253 100.763C125.093 100.592 125.101 100.324 125.272 100.163C125.443 100.003 125.711 100.011 125.872 100.182L127.52 101.934C127.681 102.104 127.672 102.373 127.502 102.533C127.387 102.641 127.228 102.672 127.088 102.63" fill="#3D4E76"/>
<path fill-rule="evenodd" clip-rule="evenodd" d="M129.214 102.131C128.989 102.064 128.862 101.827 128.93 101.603L129.625 99.3022C129.692 99.078 129.929 98.951 130.154 99.0187C130.378 99.0861 130.505 99.3227 130.437 99.5471L129.743 101.848C129.675 102.072 129.438 102.199 129.214 102.131" fill="#3D4E76"/>
<path fill-rule="evenodd" clip-rule="evenodd" d="M198.82 108.232C198.557 108.153 198.408 107.875 198.487 107.612L199.592 103.956C199.672 103.693 199.95 103.544 200.213 103.623C200.477 103.703 200.625 103.98 200.546 104.243L199.441 107.9C199.362 108.163 199.084 108.312 198.82 108.232" fill="#3D4E76"/>
<path fill-rule="evenodd" clip-rule="evenodd" d="M201.203 106.956L197.543 105.853C197.279 105.773 197.13 105.495 197.209 105.232C197.289 104.969 197.567 104.82 197.83 104.9L201.491 106.003C201.754 106.083 201.904 106.36 201.824 106.624C201.745 106.887 201.467 107.035 201.203 106.956" fill="#3D4E76"/>
<path fill-rule="evenodd" clip-rule="evenodd" d="M186.834 102.625L183.173 101.521C182.91 101.442 182.761 101.164 182.84 100.901C182.92 100.638 183.198 100.489 183.461 100.568L187.122 101.672C187.385 101.751 187.534 102.029 187.455 102.292C187.376 102.555 187.097 102.704 186.834 102.625" fill="#3D4E76"/>
<path fill-rule="evenodd" clip-rule="evenodd" d="M201.45 102.363L197.065 101.041C196.518 100.876 196.207 100.297 196.372 99.7503L196.664 98.7827C196.671 98.7611 196.659 98.7383 196.637 98.7318L191.532 97.1928C191.51 97.1864 191.488 97.1988 191.481 97.2202L191.033 98.7032C190.953 98.9664 190.675 99.1152 190.412 99.0359C190.149 98.9565 190 98.6789 190.079 98.4157L190.527 96.9327C190.692 96.3859 191.272 96.0752 191.82 96.2402L196.925 97.7792C197.473 97.9442 197.783 98.5233 197.618 99.0702L197.326 100.038C197.319 100.059 197.332 100.082 197.353 100.089L201.699 101.399L202.469 98.8504C202.495 98.7646 202.446 98.6737 202.36 98.6478L201.18 98.2923C201.094 98.2664 201.003 98.3151 200.977 98.4008L200.567 99.7582C200.488 100.021 200.21 100.17 199.947 100.091C199.683 100.011 199.534 99.7338 199.613 99.4707L200.024 98.1133C200.208 97.5023 200.856 97.155 201.468 97.3396L202.648 97.6951C203.26 97.8796 203.607 98.5269 203.423 99.1379L202.641 101.725C202.489 102.229 201.954 102.515 201.45 102.363" fill="#3D4E76"/>
<path fill-rule="evenodd" clip-rule="evenodd" d="M200.496 118.836L177.183 111.809C176.92 111.729 176.771 111.452 176.85 111.189L181.177 96.8679C181.43 96.0313 182.317 95.5561 183.154 95.8086L187.33 97.0672L188.099 94.5189C188.125 94.4331 188.077 94.3422 187.991 94.3163L186.811 93.9608C186.725 93.9349 186.634 93.9837 186.608 94.0693L186.198 95.4268C186.119 95.6898 185.841 95.8386 185.577 95.7593C185.314 95.6799 185.165 95.4023 185.244 95.1393L185.654 93.7818C185.839 93.1708 186.487 92.8236 187.099 93.0082L188.279 93.3637C188.89 93.5481 189.238 94.1954 189.053 94.8064L188.272 97.3934C188.119 97.8974 187.585 98.1836 187.08 98.0316L182.866 96.7612C182.555 96.6673 182.225 96.8441 182.131 97.1554L177.948 111L200.307 117.74L204.49 103.895C204.584 103.584 204.407 103.254 204.095 103.16L203.557 102.998C203.294 102.919 203.144 102.641 203.224 102.378C203.303 102.115 203.581 101.966 203.845 102.045L204.383 102.208C205.22 102.46 205.696 103.346 205.443 104.183L201.117 118.503C201.037 118.767 200.759 118.915 200.496 118.836" fill="#3D4E76"/>
<path fill-rule="evenodd" clip-rule="evenodd" d="M193.481 99.9608L189.188 98.6669C188.924 98.5874 188.775 98.3098 188.855 98.0467C188.934 97.7837 189.212 97.6347 189.476 97.7141L193.769 99.0082C194.032 99.0875 194.181 99.3652 194.102 99.6284C194.022 99.8914 193.744 100.04 193.481 99.9608" fill="#3D4E76"/>
<path fill-rule="evenodd" clip-rule="evenodd" d="M124.955 139.182C124.795 139.182 124.646 139.078 124.595 138.917L124.416 138.344C124.219 137.716 124.311 137.04 124.669 136.488L124.688 136.457C125.013 135.955 125.525 135.611 126.131 135.487C127.627 135.181 128.713 133.85 128.713 132.322C128.713 130.541 127.262 129.091 125.479 129.091C123.118 129.091 121.197 131.39 121.197 134.215C121.197 135.5 121.598 136.73 122.325 137.677C122.451 137.842 122.42 138.079 122.255 138.205C122.09 138.332 121.853 138.301 121.726 138.136C120.899 137.057 120.443 135.665 120.443 134.215C120.443 130.975 122.702 128.338 125.479 128.338C127.678 128.338 129.467 130.125 129.467 132.322C129.467 134.206 128.128 135.848 126.282 136.225C125.877 136.308 125.536 136.535 125.322 136.866L125.302 136.896C125.067 137.26 125.006 137.706 125.135 138.119L125.315 138.693C125.377 138.891 125.267 139.102 125.068 139.164C125.03 139.176 124.992 139.182 124.955 139.182" fill="#3D4E76"/>
<path fill-rule="evenodd" clip-rule="evenodd" d="M122.466 151.534C120.266 151.534 118.477 149.747 118.477 147.55C118.477 145.666 119.817 144.024 121.662 143.647C122.068 143.564 122.409 143.337 122.622 143.006L122.642 142.976C122.878 142.612 122.938 142.166 122.809 141.753L122.629 141.179C122.567 140.981 122.678 140.77 122.876 140.707C123.075 140.646 123.287 140.756 123.349 140.955L123.529 141.528C123.725 142.156 123.633 142.832 123.276 143.384L123.256 143.415C122.931 143.917 122.419 144.261 121.813 144.385C120.317 144.691 119.231 146.022 119.231 147.55C119.231 149.331 120.682 150.78 122.466 150.78C124.826 150.78 126.747 148.482 126.747 145.657C126.747 144.372 126.347 143.142 125.62 142.195C125.493 142.03 125.524 141.793 125.69 141.667C125.855 141.54 126.091 141.571 126.218 141.736C127.045 142.815 127.501 144.207 127.501 145.657C127.501 148.897 125.242 151.534 122.466 151.534" fill="#3D4E76"/>
<path fill-rule="evenodd" clip-rule="evenodd" d="M131.595 145.425C129.709 145.425 128.065 144.087 127.688 142.243C127.605 141.838 127.377 141.498 127.046 141.284L127.015 141.264C126.651 141.029 126.205 140.968 125.791 141.098L125.217 141.277C125.018 141.339 124.807 141.229 124.745 141.03C124.682 140.832 124.793 140.621 124.992 140.558L125.566 140.379C126.194 140.183 126.872 140.275 127.425 140.632L127.455 140.651C127.958 140.976 128.302 141.487 128.426 142.092C128.733 143.587 130.065 144.671 131.595 144.671C133.378 144.671 134.829 143.222 134.829 141.441C134.829 139.083 132.528 137.164 129.7 137.164C128.413 137.164 127.182 137.564 126.233 138.29C126.068 138.417 125.832 138.386 125.705 138.22C125.578 138.055 125.609 137.819 125.775 137.692C126.854 136.866 128.248 136.411 129.7 136.411C132.944 136.411 135.583 138.667 135.583 141.441C135.583 143.637 133.794 145.425 131.595 145.425" fill="#3D4E76"/>
<path fill-rule="evenodd" clip-rule="evenodd" d="M118.245 143.461C115 143.461 112.361 141.204 112.361 138.431C112.361 136.234 114.15 134.447 116.349 134.447C118.236 134.447 119.879 135.785 120.257 137.629C120.34 138.034 120.568 138.374 120.898 138.588L120.929 138.608C121.293 138.843 121.739 138.904 122.153 138.774L122.298 138.729C122.5 138.665 122.72 138.727 122.859 138.885C122.999 139.044 123.032 139.271 122.943 139.464C122.861 139.642 122.828 139.833 122.845 140.032C122.89 140.586 123.343 141.03 123.899 141.064C124.216 141.083 124.517 140.976 124.747 140.76C124.977 140.544 125.104 140.251 125.104 139.936C125.104 139.313 124.596 138.806 123.972 138.806C123.764 138.806 123.595 138.637 123.595 138.429C123.595 138.221 123.764 138.052 123.972 138.052C125.012 138.052 125.858 138.897 125.858 139.936C125.858 140.454 125.641 140.954 125.263 141.309C124.88 141.668 124.38 141.849 123.853 141.816C122.925 141.758 122.169 141.018 122.093 140.094C122.078 139.913 122.089 139.732 122.125 139.556C121.572 139.66 120.999 139.55 120.52 139.24L120.489 139.221C119.987 138.896 119.642 138.385 119.518 137.78C119.212 136.285 117.879 135.201 116.349 135.201C114.566 135.201 113.115 136.65 113.115 138.431C113.115 140.789 115.416 142.708 118.245 142.708C119.531 142.708 120.762 142.308 121.71 141.582C121.876 141.455 122.113 141.487 122.239 141.652C122.366 141.817 122.334 142.053 122.169 142.18C121.09 143.006 119.696 143.461 118.245 143.461" fill="#3D4E76"/>
<path fill-rule="evenodd" clip-rule="evenodd" d="M157.608 144.341C157.345 144.182 157.003 144.266 156.844 144.529C156.685 144.792 156.769 145.133 157.032 145.292C157.295 145.451 157.637 145.367 157.796 145.104C157.955 144.842 157.871 144.5 157.608 144.341" fill="#3D4E76"/>
<path fill-rule="evenodd" clip-rule="evenodd" d="M149.584 157.592C149.321 157.433 148.979 157.517 148.82 157.78C148.661 158.042 148.745 158.384 149.008 158.543C149.271 158.702 149.614 158.618 149.773 158.355C149.932 158.092 149.847 157.751 149.584 157.592" fill="#3D4E76"/>
<path fill-rule="evenodd" clip-rule="evenodd" d="M150.821 140.241C150.558 140.082 150.216 140.167 150.057 140.429C149.898 140.692 149.982 141.034 150.245 141.192C150.508 141.351 150.85 141.267 151.009 141.004C151.168 140.742 151.084 140.4 150.821 140.241" fill="#3D4E76"/>
<path fill-rule="evenodd" clip-rule="evenodd" d="M148.269 159.768C148.232 159.746 148.196 159.722 148.16 159.698C147.346 159.133 147.073 158.043 147.526 157.163C147.782 156.665 148.238 156.296 148.777 156.151C148.947 156.105 149.095 155.989 149.195 155.825L150.796 153.181C151.042 152.774 151.575 152.643 151.983 152.889L153.604 153.868L157.223 147.891C157.356 147.671 157.326 147.387 157.151 147.2L157.045 147.087C156.892 146.922 156.847 146.69 156.929 146.481C157.01 146.272 157.198 146.132 157.421 146.115C157.888 146.078 158.289 145.804 158.495 145.381C158.77 144.814 158.588 144.113 158.069 143.751C157.769 143.541 157.407 143.467 157.05 143.543C156.693 143.618 156.393 143.831 156.204 144.143C155.988 144.5 155.957 144.942 156.121 145.327C156.209 145.534 156.172 145.768 156.023 145.937C155.876 146.105 155.65 146.173 155.434 146.114L155.285 146.073C155.037 146.005 154.772 146.11 154.639 146.33L151.108 152.161C151.011 152.322 150.8 152.374 150.638 152.276C150.476 152.179 150.424 151.968 150.522 151.807L154.053 145.976C154.335 145.509 154.892 145.278 155.42 145.401C155.254 144.864 155.324 144.274 155.618 143.789C155.902 143.32 156.372 142.987 156.909 142.874C157.453 142.759 158.004 142.872 158.462 143.191C159.253 143.743 159.532 144.814 159.111 145.68C158.829 146.259 158.305 146.655 157.684 146.769C158.038 147.179 158.091 147.779 157.809 148.245L154.17 154.255C153.985 154.56 153.588 154.658 153.283 154.474L151.629 153.474C151.544 153.423 151.433 153.45 151.382 153.535L149.781 156.179C149.59 156.495 149.297 156.719 148.955 156.811C148.597 156.908 148.306 157.144 148.135 157.475C147.839 158.052 148.017 158.766 148.551 159.136C148.852 159.344 149.213 159.417 149.568 159.341C149.924 159.265 150.224 159.052 150.412 158.741C150.582 158.461 150.639 158.129 150.574 157.808C150.499 157.441 150.559 157.071 150.744 156.765L151.997 154.696C152.095 154.535 152.305 154.483 152.467 154.58C152.629 154.678 152.681 154.888 152.583 155.05L151.33 157.119C151.235 157.277 151.204 157.473 151.245 157.671C151.345 158.161 151.257 158.667 150.998 159.095C150.715 159.563 150.246 159.896 149.711 160.01C149.211 160.117 148.704 160.031 148.269 159.768" fill="#3D4E76"/>
<path fill-rule="evenodd" clip-rule="evenodd" d="M142.798 153.492C142.535 153.333 142.193 153.417 142.033 153.68C141.874 153.943 141.959 154.284 142.222 154.443C142.485 154.602 142.827 154.518 142.986 154.255C143.145 153.992 143.061 153.651 142.798 153.492" fill="#3D4E76"/>
<path fill-rule="evenodd" clip-rule="evenodd" d="M141.482 155.668C141.445 155.646 141.409 155.622 141.374 155.598C140.559 155.033 140.286 153.943 140.739 153.063C140.995 152.565 141.451 152.196 141.99 152.051C142.16 152.005 142.308 151.889 142.408 151.725L143.756 149.498C143.854 149.337 144.064 149.285 144.226 149.383C144.388 149.48 144.44 149.691 144.342 149.852L142.994 152.079C142.803 152.395 142.51 152.619 142.168 152.711C141.81 152.808 141.519 153.044 141.349 153.375C141.052 153.952 141.23 154.666 141.764 155.036C142.065 155.244 142.426 155.317 142.781 155.241C143.137 155.165 143.437 154.952 143.625 154.641C143.795 154.361 143.852 154.029 143.787 153.708C143.712 153.341 143.772 152.971 143.957 152.665L144.842 151.204C144.94 151.042 145.15 150.991 145.312 151.089C145.474 151.186 145.526 151.397 145.428 151.558L144.544 153.019C144.448 153.177 144.417 153.373 144.458 153.571C144.558 154.061 144.47 154.567 144.211 154.995C143.928 155.463 143.459 155.796 142.924 155.91C142.424 156.017 141.917 155.931 141.482 155.668" fill="#3D4E76"/>
<path fill-rule="evenodd" clip-rule="evenodd" d="M147.763 143.541C147.601 143.444 147.55 143.233 147.647 143.072L148.499 141.665C148.595 141.507 148.625 141.311 148.585 141.113C148.484 140.623 148.572 140.117 148.831 139.689C149.114 139.222 149.583 138.888 150.118 138.774C150.661 138.659 151.211 138.769 151.669 139.087L151.675 139.091C152.466 139.643 152.745 140.714 152.324 141.58C151.9 142.451 150.919 142.892 149.989 142.627C149.807 142.575 149.702 142.386 149.754 142.205C149.805 142.023 149.995 141.918 150.177 141.969C150.786 142.142 151.43 141.853 151.708 141.281C151.984 140.714 151.801 140.013 151.283 139.652L151.278 139.648C150.978 139.441 150.617 139.367 150.261 139.443C149.905 139.519 149.606 139.732 149.417 140.043C149.247 140.324 149.19 140.655 149.256 140.976C149.331 141.343 149.27 141.714 149.085 142.019L148.234 143.426C148.136 143.587 147.925 143.639 147.763 143.541" fill="#3D4E76"/>
<path fill-rule="evenodd" clip-rule="evenodd" d="M146.653 143.19C146.523 143.112 146.457 142.954 146.501 142.802C146.554 142.621 146.744 142.516 146.925 142.569L150.979 143.744C151.161 143.797 151.265 143.986 151.213 144.168C151.16 144.349 150.97 144.453 150.788 144.401L146.734 143.226C146.705 143.218 146.678 143.205 146.653 143.19" fill="#3D4E76"/>
<path fill-rule="evenodd" clip-rule="evenodd" d="M145.68 144.797C145.55 144.719 145.484 144.561 145.528 144.409C145.581 144.228 145.771 144.123 145.953 144.176L150.006 145.351C150.188 145.403 150.292 145.593 150.24 145.774C150.187 145.956 149.997 146.06 149.815 146.008L145.762 144.833C145.732 144.824 145.705 144.812 145.68 144.797" fill="#3D4E76"/>
<path fill-rule="evenodd" clip-rule="evenodd" d="M144.707 146.404C144.577 146.325 144.511 146.168 144.555 146.016C144.608 145.834 144.798 145.73 144.98 145.782L149.033 146.957C149.215 147.01 149.32 147.199 149.267 147.381C149.214 147.562 149.024 147.667 148.842 147.614L144.789 146.439C144.759 146.431 144.732 146.419 144.707 146.404" fill="#3D4E76"/>
<path fill-rule="evenodd" clip-rule="evenodd" d="M143.734 148.01C143.605 147.932 143.538 147.774 143.582 147.622C143.635 147.441 143.825 147.337 144.007 147.389L148.061 148.564C148.242 148.617 148.347 148.806 148.294 148.988C148.241 149.169 148.051 149.274 147.87 149.221L143.816 148.046C143.787 148.038 143.759 148.025 143.734 148.01" fill="#3D4E76"/>
<path fill-rule="evenodd" clip-rule="evenodd" d="M142.761 149.617C142.632 149.539 142.566 149.381 142.61 149.229C142.662 149.048 142.852 148.943 143.034 148.996L147.088 150.171C147.269 150.223 147.374 150.413 147.321 150.594C147.268 150.776 147.079 150.88 146.897 150.827L142.843 149.653C142.814 149.644 142.786 149.632 142.761 149.617" fill="#3D4E76"/>
<path fill-rule="evenodd" clip-rule="evenodd" d="M93.7319 141.848C93.6053 141.848 93.4788 141.8 93.3823 141.704C93.1892 141.511 93.1892 141.198 93.3821 141.005L93.7357 140.652C93.8666 140.521 93.9387 140.347 93.9387 140.162C93.9387 139.977 93.8666 139.804 93.7357 139.673L92.6847 138.623C92.4143 138.353 91.9744 138.353 91.7044 138.623C91.4593 138.868 91.1333 139.003 90.7863 139.003C90.4394 139.003 90.1134 138.868 89.8681 138.623L83.9364 132.698C83.6734 132.435 83.3418 132.258 82.9771 132.186L82.4313 132.077C82.1636 132.023 81.9898 131.763 82.0433 131.496C82.0968 131.228 82.3574 131.055 82.6251 131.108L83.1707 131.217C83.7276 131.328 84.2343 131.599 84.6356 132L90.5675 137.924C90.6844 138.041 90.8883 138.041 91.0052 137.924C91.661 137.269 92.7281 137.269 93.3839 137.924L94.4351 138.974C94.7528 139.292 94.9277 139.714 94.9277 140.162C94.9277 140.611 94.7528 141.033 94.4351 141.35L94.0817 141.704C93.985 141.8 93.8585 141.848 93.7319 141.848" fill="#3D4E76"/>
<path fill-rule="evenodd" clip-rule="evenodd" d="M90.2842 151.554C90.0893 151.554 89.8944 151.48 89.7458 151.332L88.1975 149.785C88.0537 149.641 87.9745 149.45 87.9745 149.247C87.9745 149.044 88.0537 148.853 88.1977 148.709L96.1417 140.774C96.2854 140.631 96.4767 140.552 96.6801 140.552C96.8834 140.552 97.0747 140.631 97.2184 140.775L98.7668 142.321C99.0636 142.618 99.0636 143.1 98.7668 143.397L98.3174 143.846C97.8919 144.27 97.5036 144.737 97.1628 145.232L93.3343 150.797C93.1795 151.022 92.8717 151.079 92.6467 150.925C92.4216 150.77 92.3645 150.463 92.5192 150.238L96.3477 144.673C96.7226 144.128 97.15 143.615 97.6181 143.147L97.9065 142.859L96.6801 141.634L89.0578 149.247L90.2842 150.472L91.3462 149.412C91.5395 149.219 91.8524 149.219 92.0455 149.412C92.2387 149.604 92.2387 149.917 92.0455 150.11L90.8226 151.332C90.6742 151.48 90.4791 151.554 90.2842 151.554" fill="#3D4E76"/>
<path fill-rule="evenodd" clip-rule="evenodd" d="M94.4156 152.499C94.319 152.499 94.2216 152.471 94.136 152.412C93.9108 152.258 93.8537 151.95 94.0085 151.726L98.102 145.775C98.2567 145.55 98.5645 145.493 98.7897 145.648C99.0147 145.802 99.0718 146.11 98.9172 146.335L94.8235 152.285C94.7277 152.424 94.5728 152.499 94.4156 152.499" fill="#3D4E76"/>
<path fill-rule="evenodd" clip-rule="evenodd" d="M95.9049 153.987C95.8083 153.987 95.7109 153.959 95.6253 153.9C95.4002 153.745 95.3431 153.438 95.4978 153.213L99.5913 147.263C99.746 147.038 100.054 146.981 100.279 147.135C100.504 147.29 100.561 147.598 100.406 147.822L96.3129 153.773C96.217 153.912 96.0621 153.987 95.9049 153.987" fill="#3D4E76"/>
<path fill-rule="evenodd" clip-rule="evenodd" d="M97.3943 155.474C97.2977 155.474 97.2003 155.446 97.1147 155.387C96.8895 155.233 96.8324 154.925 96.9872 154.701L101.08 148.75C101.235 148.525 101.543 148.469 101.768 148.623C101.993 148.778 102.05 149.085 101.896 149.31L97.8022 155.26C97.7064 155.399 97.5515 155.474 97.3943 155.474" fill="#3D4E76"/>
<path fill-rule="evenodd" clip-rule="evenodd" d="M101.482 155.952C101.379 155.952 101.276 155.92 101.187 155.853C100.968 155.69 100.923 155.381 101.086 155.162L102.405 153.396C102.895 152.739 102.827 151.807 102.247 151.228L100.836 149.819C100.643 149.626 100.643 149.313 100.836 149.12C101.03 148.927 101.342 148.927 101.536 149.12L102.947 150.529C103.872 151.453 103.979 152.939 103.198 153.987L101.879 155.753C101.782 155.883 101.633 155.952 101.482 155.952" fill="#3D4E76"/>
<path fill-rule="evenodd" clip-rule="evenodd" d="M100.839 153.914C100.712 153.914 100.586 153.866 100.489 153.769L99.084 152.366C98.8909 152.173 98.8909 151.86 99.084 151.667C99.2773 151.474 99.5902 151.474 99.7834 151.667L101.188 153.071C101.382 153.264 101.382 153.576 101.188 153.769C101.092 153.866 100.965 153.914 100.839 153.914" fill="#3D4E76"/>
<path fill-rule="evenodd" clip-rule="evenodd" d="M88.469 144.989C88.3424 144.989 88.2159 144.94 88.1194 144.844L87.3048 144.031C86.9826 143.709 86.8052 143.281 86.8052 142.825C86.8052 142.37 86.9826 141.942 87.3048 141.62L88.8636 140.064C89.0567 139.871 89.3698 139.871 89.5629 140.064C89.756 140.256 89.756 140.569 89.5629 140.762L88.0041 142.319C87.8688 142.454 87.7941 142.634 87.7941 142.825C87.7941 143.017 87.8688 143.197 88.0041 143.332L88.8186 144.146C89.0117 144.338 89.0117 144.651 88.8186 144.844C88.7221 144.94 88.5956 144.989 88.469 144.989" fill="#3D4E76"/>
<path fill-rule="evenodd" clip-rule="evenodd" d="M87.5659 147.516C87.1166 147.516 86.6941 147.341 86.3765 147.024L85.3253 145.974C85.0076 145.656 84.8327 145.235 84.8327 144.786C84.8327 144.337 85.0076 143.915 85.3253 143.598C85.446 143.477 85.446 143.281 85.3253 143.16L79.3937 137.236C78.9922 136.835 78.7211 136.329 78.6099 135.772L78.2774 134.109L75.4542 131.289C75.124 130.959 74.9419 130.52 74.9419 130.054C74.9419 129.587 75.124 129.149 75.4542 128.819L76.2091 128.065C76.5394 127.735 76.9786 127.553 77.4456 127.553C77.9127 127.553 78.3518 127.735 78.6822 128.065L81.3111 130.691C81.6693 131.049 81.6693 131.631 81.3111 131.989L80.1657 133.133C79.9726 133.326 79.6595 133.326 79.4664 133.133C79.2733 132.94 79.2733 132.627 79.4664 132.434L80.5621 131.34L77.9827 128.763C77.8392 128.62 77.6486 128.541 77.4456 128.541C77.2426 128.541 77.0519 128.62 76.9083 128.763L76.1536 129.517C76.01 129.661 75.931 129.851 75.931 130.054C75.931 130.256 76.01 130.447 76.1536 130.59L79.0826 133.516C79.1518 133.585 79.1988 133.673 79.2179 133.769L79.5797 135.579C79.6525 135.943 79.8301 136.275 80.0931 136.537L86.0247 142.462C86.5309 142.968 86.5309 143.791 86.0247 144.296C85.8938 144.427 85.8217 144.601 85.8217 144.786C85.8217 144.971 85.8938 145.144 86.0247 145.275L87.0759 146.325C87.3461 146.595 87.7858 146.595 88.056 146.325L92.0906 142.295C92.1859 142.2 92.1859 142.045 92.0906 141.95L90.8159 140.677C90.6228 140.484 90.6228 140.171 90.8159 139.978C91.0091 139.785 91.322 139.785 91.5153 139.978L92.79 141.252C93.2708 141.732 93.2708 142.513 92.79 142.994L88.7552 147.024C88.4377 147.341 88.0153 147.516 87.5659 147.516" fill="#3D4E76"/>
<path fill-rule="evenodd" clip-rule="evenodd" d="M223.102 78.7962C222.869 78.7962 222.679 78.607 222.679 78.3736V76.7708C222.679 76.5374 222.869 76.3481 223.102 76.3481C223.336 76.3481 223.525 76.5374 223.525 76.7708V78.3736C223.525 78.607 223.336 78.7962 223.102 78.7962" fill="#3D4E76"/>
<path fill-rule="evenodd" clip-rule="evenodd" d="M220.428 79.2674C220.256 79.2674 220.093 79.1609 220.031 78.9893L219.482 77.4828C219.402 77.2637 219.515 77.0212 219.735 76.9413C219.954 76.8614 220.197 76.9744 220.277 77.1939L220.826 78.7003C220.906 78.9195 220.793 79.162 220.573 79.2419C220.525 79.2591 220.477 79.2674 220.428 79.2674" fill="#3D4E76"/>
<path fill-rule="evenodd" clip-rule="evenodd" d="M218.077 80.6233C217.957 80.6233 217.837 80.572 217.753 80.4723L216.721 79.2444C216.571 79.0656 216.594 78.7991 216.773 78.6491C216.953 78.499 217.219 78.5224 217.37 78.7011L218.401 79.9292C218.551 80.108 218.528 80.3744 218.349 80.5245C218.27 80.5909 218.173 80.6233 218.077 80.6233" fill="#3D4E76"/>
<path fill-rule="evenodd" clip-rule="evenodd" d="M231.263 91.3114C231.191 91.3114 231.118 91.2931 231.051 91.2547L229.661 90.4532C229.459 90.3365 229.39 90.0781 229.507 89.8761C229.624 89.674 229.882 89.6049 230.085 89.7213L231.475 90.5228C231.677 90.6396 231.746 90.898 231.629 91.1002C231.551 91.2357 231.409 91.3114 231.263 91.3114" fill="#3D4E76"/>
<path fill-rule="evenodd" clip-rule="evenodd" d="M216.331 82.7009C216.26 82.7009 216.187 82.6825 216.12 82.6442L214.73 81.8427C214.528 81.7259 214.459 81.4675 214.576 81.2655C214.692 81.0633 214.951 80.9944 215.153 81.1108L216.543 81.9123C216.746 82.0291 216.815 82.2874 216.698 82.4896C216.62 82.6251 216.478 82.7009 216.331 82.7009" fill="#3D4E76"/>
<path fill-rule="evenodd" clip-rule="evenodd" d="M215.404 85.2494C215.379 85.2494 215.354 85.2473 215.33 85.2429L213.749 84.9646C213.519 84.9241 213.365 84.705 213.406 84.4751C213.447 84.2453 213.666 84.0919 213.896 84.1323L215.477 84.4107C215.707 84.4513 215.86 84.6703 215.82 84.9002C215.783 85.1051 215.605 85.2494 215.404 85.2494" fill="#3D4E76"/>
<path fill-rule="evenodd" clip-rule="evenodd" d="M230.801 85.2494C230.6 85.2494 230.421 85.1053 230.385 84.9002C230.345 84.6702 230.498 84.4513 230.728 84.4106L232.309 84.1323C232.538 84.092 232.758 84.2453 232.799 84.475C232.839 84.705 232.686 84.9241 232.456 84.9646L230.875 85.2429C230.85 85.2472 230.825 85.2494 230.801 85.2494" fill="#3D4E76"/>
<path fill-rule="evenodd" clip-rule="evenodd" d="M213.822 88.2397C213.621 88.2397 213.442 88.0956 213.406 87.8905C213.365 87.6605 213.519 87.4416 213.749 87.4009L215.33 87.1226C215.559 87.0825 215.779 87.2354 215.82 87.4653C215.86 87.6953 215.707 87.9144 215.476 87.9549L213.896 88.2332C213.871 88.2375 213.846 88.2397 213.822 88.2397" fill="#3D4E76"/>
<path fill-rule="evenodd" clip-rule="evenodd" d="M229.873 82.7009C229.727 82.7009 229.585 82.6252 229.507 82.4897C229.39 82.2875 229.459 82.0291 229.661 81.9124L231.051 81.1108C231.253 80.9943 231.512 81.0633 231.629 81.2656C231.746 81.4676 231.677 81.726 231.474 81.8427L230.084 82.6443C230.018 82.6826 229.945 82.7009 229.873 82.7009" fill="#3D4E76"/>
<path fill-rule="evenodd" clip-rule="evenodd" d="M214.942 91.3114C214.796 91.3114 214.654 91.2357 214.575 91.1002C214.459 90.898 214.528 90.6396 214.73 90.5228L216.12 89.7213C216.322 89.6047 216.581 89.6738 216.698 89.876C216.815 90.0781 216.746 90.3365 216.543 90.4532L215.153 91.2547C215.087 91.2931 215.014 91.3114 214.942 91.3114" fill="#3D4E76"/>
<path fill-rule="evenodd" clip-rule="evenodd" d="M228.128 80.6233C228.032 80.6233 227.935 80.5909 227.856 80.5245C227.677 80.3744 227.653 80.108 227.804 79.9292L228.835 78.7011C228.985 78.5224 229.252 78.499 229.431 78.6491C229.61 78.7991 229.634 79.0656 229.483 79.2444L228.452 80.4723C228.368 80.572 228.248 80.6233 228.128 80.6233" fill="#3D4E76"/>
<path fill-rule="evenodd" clip-rule="evenodd" d="M225.776 79.2673C225.728 79.2673 225.679 79.259 225.632 79.2418C225.412 79.1619 225.299 78.9194 225.379 78.7002L225.928 77.1938C226.008 76.9745 226.251 76.8615 226.47 76.9412C226.689 77.0211 226.803 77.2636 226.723 77.4827L226.174 78.9892C226.111 79.1608 225.949 79.2673 225.776 79.2673" fill="#3D4E76"/>
<path fill-rule="evenodd" clip-rule="evenodd" d="M223.102 94.9621H220.349C219.632 94.9621 219.048 94.3792 219.048 93.6626V92.6534C219.048 91.9368 219.632 91.3539 220.349 91.3539H225.855C226.573 91.3539 227.156 91.9368 227.156 92.6534C227.156 92.8868 226.967 93.076 226.734 93.076C226.5 93.076 226.31 92.8868 226.31 92.6534C226.31 92.4028 226.106 92.1989 225.855 92.1989H220.349C220.098 92.1989 219.894 92.4028 219.894 92.6534V93.6626C219.894 93.9132 220.098 94.117 220.349 94.117H223.102C223.336 94.117 223.525 94.3061 223.525 94.5396C223.525 94.773 223.336 94.9621 223.102 94.9621" fill="#3D4E76"/>
<path fill-rule="evenodd" clip-rule="evenodd" d="M232.001 88.4729C231.971 88.4729 231.941 88.4711 231.91 88.4675L224.428 87.5694C223.989 87.9874 223.374 88.1779 222.769 88.0714C222.264 87.9825 221.824 87.7024 221.53 87.2828C221.235 86.8632 221.122 86.3543 221.212 85.8498C221.395 84.8084 222.394 84.1105 223.436 84.2942C223.666 84.3347 223.819 84.5539 223.779 84.7836C223.738 85.0135 223.519 85.1668 223.289 85.1263C222.705 85.0238 222.148 85.414 222.045 85.9966C221.942 86.579 222.333 87.1364 222.916 87.2391C223.299 87.3069 223.69 87.1605 223.937 86.8578C224.028 86.7452 224.171 86.6871 224.315 86.7047L229.812 87.3645L224.421 86.1067C224.193 86.0536 224.052 85.8264 224.105 85.599C224.158 85.3717 224.385 85.2303 224.613 85.2838L232.161 87.0448C232.542 87.1335 232.778 87.4904 232.71 87.8749C232.647 88.2288 232.351 88.4729 232.001 88.4729" fill="#3D4E76"/>
<path fill-rule="evenodd" clip-rule="evenodd" d="M223.11 98.3568C219.702 98.3572 216.313 96.9423 213.905 94.179C209.49 89.1135 210.025 81.405 215.097 76.9959C217.553 74.8599 220.697 73.8072 223.945 74.0323C227.194 74.2572 230.161 75.7325 232.3 78.1864C234.131 80.2876 235.163 82.8661 235.285 85.6435C235.402 88.3384 234.612 91.0278 233.06 93.2166C232.925 93.407 232.661 93.4522 232.471 93.317C232.28 93.1823 232.235 92.9185 232.37 92.728C235.403 88.4516 235.111 82.6999 231.662 78.7412C229.672 76.4576 226.91 75.0846 223.887 74.8754C220.862 74.6658 217.938 75.6456 215.652 77.6333C210.933 81.7366 210.435 88.91 214.543 93.6243C218.651 98.3385 225.833 98.8354 230.553 94.7323C230.729 94.579 230.996 94.5973 231.149 94.7735C231.303 94.9496 231.284 95.2164 231.108 95.3697C228.803 97.3738 225.95 98.3565 223.11 98.3568" fill="#3D4E76"/>
<path fill-rule="evenodd" clip-rule="evenodd" d="M155.196 53.3962C155.092 53.3962 154.99 53.3674 154.9 53.3127L152.267 51.7065C151.4 51.178 150.791 50.3422 150.552 49.3533C150.312 48.3645 150.472 47.3432 151.001 46.4776L151.818 45.1421L150.606 44.4028C150.155 44.1277 149.838 43.6939 149.714 43.181C149.59 42.6679 149.673 42.1375 149.948 41.687L151.13 39.7531C151.492 39.1612 152.125 38.8076 152.822 38.8076C153.184 38.8076 153.539 38.9075 153.849 39.0966L155.061 39.8358L155.878 38.5C156.575 37.3602 157.793 36.6796 159.135 36.6796C159.832 36.6796 160.516 36.8719 161.113 37.2361C161.38 37.3991 161.465 37.7494 161.302 38.0167C161.198 38.1869 161.016 38.2886 160.816 38.2886C160.712 38.2886 160.61 38.2598 160.521 38.2051C160.1 37.9489 159.62 37.8134 159.132 37.8134C158.921 37.8134 158.708 37.8388 158.501 37.889C157.807 38.0565 157.22 38.4838 156.849 39.0921L155.937 40.5823C155.804 40.7998 155.594 40.9528 155.346 41.0127C155.271 41.0308 155.195 41.0398 155.119 41.0398C154.945 41.0398 154.774 40.9914 154.623 40.8995L153.257 40.0658C153.125 39.9853 152.974 39.9431 152.819 39.9431C152.523 39.9431 152.255 40.0935 152.101 40.3452L150.919 42.2789C150.802 42.4702 150.766 42.6956 150.819 42.9138C150.872 43.1321 151.007 43.3167 151.198 43.4334L152.565 44.2671C153.015 44.5413 153.157 45.13 152.883 45.5791L151.972 47.0697C151.6 47.6771 151.488 48.3933 151.656 49.0867C151.824 49.7801 152.251 50.3663 152.859 50.7372L155.008 52.0476L162.965 39.0309C163.069 38.8605 163.251 38.7589 163.451 38.7589C163.555 38.7589 163.657 38.7877 163.747 38.8422L167.849 41.3444L167.503 39.9121C167.339 39.2376 167.449 38.539 167.813 37.9449C168.176 37.3507 168.747 36.9338 169.423 36.771L180.113 34.1894C180.313 34.1412 180.518 34.1167 180.724 34.1167C181.357 34.1167 181.967 34.3457 182.443 34.7619C182.679 34.9681 182.703 35.3275 182.496 35.5632C182.388 35.6863 182.232 35.757 182.068 35.757C181.931 35.757 181.798 35.7071 181.694 35.6165C181.426 35.3817 181.081 35.2523 180.724 35.2523C180.608 35.2523 180.493 35.266 180.38 35.2932L169.69 37.8748C169.309 37.9667 168.987 38.2018 168.782 38.5363C168.578 38.8711 168.516 39.2648 168.608 39.6449L169.277 42.4101C169.331 42.6342 169.246 42.8667 169.059 43.0023C168.961 43.0738 168.846 43.1116 168.724 43.1116C168.62 43.1116 168.517 43.0828 168.428 43.0282L163.639 40.1075L155.682 53.124C155.603 53.2537 155.478 53.3446 155.33 53.38C155.286 53.3908 155.241 53.3962 155.196 53.3962" fill="#3D4E76"/>
<path fill-rule="evenodd" clip-rule="evenodd" d="M168.638 34.3747C168.375 34.3747 168.148 34.1961 168.086 33.9402C167.907 33.2015 168.028 32.4361 168.426 31.7854C168.824 31.1346 169.45 30.6778 170.19 30.4994L176.562 28.9604C176.783 28.9071 177.008 28.8801 177.233 28.8801C178.556 28.8801 179.696 29.777 180.007 31.0614L180.116 31.5123C180.152 31.6598 180.128 31.8122 180.049 31.9417C179.97 32.0711 179.845 32.1621 179.697 32.1976L174.289 33.5036C174.245 33.5144 174.2 33.5198 174.155 33.5198C173.892 33.5198 173.665 33.3411 173.603 33.0851C173.53 32.7809 173.718 32.4734 174.022 32.3996L178.948 31.21L178.663 30.7818C178.343 30.3024 177.809 30.0161 177.233 30.0161C177.098 30.0161 176.962 30.0323 176.829 30.0643L170.457 31.6031C169.537 31.8255 168.969 32.7541 169.191 33.6732C169.227 33.8206 169.203 33.9732 169.124 34.1025C169.045 34.2321 168.92 34.3231 168.773 34.3585C168.728 34.3693 168.683 34.3747 168.638 34.3747" fill="#3D4E76"/>
<path fill-rule="evenodd" clip-rule="evenodd" d="M171.945 72.714C171.701 72.714 171.485 72.5593 171.407 72.3287L168.368 63.404C167.847 61.8758 166.801 60.571 165.422 59.7299L157.703 55.0219C157.435 54.8589 157.351 54.5088 157.514 54.2413C157.618 54.0711 157.8 53.9692 158 53.9692C158.104 53.9692 158.206 53.9982 158.296 54.0525L166.015 58.7606C167.62 59.74 168.838 61.259 169.444 63.0382L172.483 71.9631C172.584 72.2598 172.425 72.5829 172.128 72.6836C172.111 72.6892 172.094 72.6944 172.076 72.6986C172.034 72.7088 171.989 72.714 171.945 72.714" fill="#3D4E76"/>
<path fill-rule="evenodd" clip-rule="evenodd" d="M194.371 51.9395C194.267 51.9395 194.165 51.9107 194.075 51.856C193.946 51.7771 193.855 51.6522 193.819 51.5048C193.783 51.3575 193.807 51.2049 193.887 51.0754L197.915 44.4847C198.019 44.3145 198.201 44.2129 198.402 44.2129C198.505 44.2129 198.607 44.2417 198.697 44.2964C198.826 44.3754 198.917 44.5 198.953 44.6476C198.989 44.7949 198.965 44.9475 198.886 45.0768L194.857 51.6675C194.778 51.7968 194.653 51.8879 194.505 51.9233C194.461 51.9341 194.416 51.9395 194.371 51.9395" fill="#3D4E76"/>
<path fill-rule="evenodd" clip-rule="evenodd" d="M200.111 42.5495C200.007 42.5495 199.905 42.5207 199.815 42.4662L186.784 34.5183L182.687 41.2206C182.582 41.3912 182.401 41.4928 182.2 41.4928C182.097 41.4928 181.995 41.4641 181.905 41.4094C181.775 41.3304 181.684 41.2055 181.649 41.0582C181.613 40.9108 181.637 40.7582 181.716 40.6287L186.11 33.4416C186.214 33.2714 186.396 33.1698 186.596 33.1698C186.7 33.1698 186.802 33.1986 186.891 33.2531L199.923 41.201L201.235 39.055C201.606 38.4476 201.718 37.7312 201.55 37.0378C201.383 36.3444 200.955 35.7582 200.347 35.3872L198.855 34.4774C198.637 34.3445 198.484 34.1347 198.424 33.8869C198.364 33.6394 198.404 33.383 198.537 33.1653L199.372 31.7999C199.489 31.6085 199.524 31.3832 199.471 31.165C199.418 30.9468 199.284 30.7622 199.092 30.6454L197.156 29.4644C197.024 29.3842 196.873 29.3417 196.719 29.3417C196.423 29.3417 196.154 29.492 196 29.7435L195.166 31.109C195.033 31.3266 194.823 31.4795 194.575 31.5394C194.5 31.5574 194.424 31.5666 194.348 31.5666C194.174 31.5666 194.003 31.5182 193.852 31.4262L192.36 30.5162C191.941 30.2607 191.461 30.1258 190.972 30.1258C190.031 30.1258 189.177 30.6033 188.688 31.403C188.584 31.5732 188.402 31.6751 188.202 31.6751C188.098 31.6751 187.996 31.6461 187.907 31.5918C187.777 31.5126 187.686 31.3879 187.65 31.2406C187.615 31.093 187.639 30.9406 187.718 30.8113C188.415 29.6712 189.632 28.9905 190.975 28.9905C191.672 28.9905 192.356 29.1829 192.953 29.5468L194.29 30.3626L195.03 29.1518C195.392 28.5598 196.024 28.2063 196.722 28.2063C197.084 28.2063 197.439 28.3063 197.749 28.4954L199.685 29.676C200.616 30.2438 200.91 31.462 200.342 32.3918L199.602 33.6025L200.94 34.418C202.732 35.5112 203.299 37.8568 202.205 39.6469L200.597 42.2775C200.518 42.4068 200.393 42.4978 200.245 42.5337C200.201 42.5443 200.156 42.5495 200.111 42.5495" fill="#3D4E76"/>
<path fill-rule="evenodd" clip-rule="evenodd" d="M176.223 80.6226C174.746 80.6226 173.471 79.6209 173.124 78.1864L172.437 75.3481C172.401 75.2005 172.425 75.0481 172.505 74.9186C172.584 74.7891 172.708 74.698 172.856 74.6626L193.884 69.5843L192.729 61.7693C192.707 61.6184 192.745 61.468 192.835 61.346C192.926 61.2251 193.058 61.1465 193.208 61.1247C193.237 61.1204 193.265 61.1184 193.293 61.1184C193.572 61.1184 193.813 61.3269 193.854 61.6035L195.085 69.9315C195.128 70.2241 194.944 70.497 194.656 70.5663L173.676 75.6332L174.229 77.9194C174.453 78.8422 175.273 79.4868 176.223 79.4868C176.384 79.4868 176.547 79.4674 176.705 79.4293L193.145 75.4591C194.245 75.1933 194.923 74.0842 194.657 72.9865C194.584 72.6819 194.772 72.3744 195.076 72.3008C195.12 72.2902 195.166 72.2847 195.21 72.2847C195.473 72.2847 195.7 72.4633 195.762 72.7193C195.962 73.5446 195.827 74.3994 195.383 75.1264C194.939 75.8533 194.239 76.3633 193.413 76.5629L176.972 80.533C176.726 80.5926 176.474 80.6226 176.223 80.6226" fill="#3D4E76"/>
<path fill-rule="evenodd" clip-rule="evenodd" d="M178.166 55.1829C175.539 55.1829 173.273 53.4014 172.656 50.8505C172.317 49.4519 172.521 47.9911 173.228 46.738C173.329 46.5597 173.519 46.4489 173.724 46.4489C173.821 46.4489 173.918 46.4745 174.003 46.5225C174.135 46.597 174.231 46.7186 174.271 46.8647C174.312 47.0108 174.294 47.1641 174.219 47.2959C173.653 48.2974 173.491 49.465 173.761 50.5835C174.255 52.6229 176.066 54.0471 178.166 54.0471C178.523 54.0471 178.882 54.0041 179.231 53.9197C180.406 53.636 181.401 52.9109 182.032 51.8778C182.664 50.8449 182.855 49.6296 182.571 48.456C182.078 46.4169 180.266 44.9927 178.166 44.9927C177.809 44.9927 177.451 45.0357 177.101 45.1199C177.057 45.1307 177.012 45.1361 176.967 45.1361C176.704 45.1361 176.477 44.9572 176.415 44.7012C176.379 44.554 176.403 44.4015 176.482 44.2719C176.562 44.1426 176.686 44.0515 176.834 44.0161C177.272 43.9103 177.72 43.8567 178.166 43.8567C180.793 43.8567 183.059 45.6382 183.676 48.189C184.032 49.6568 183.792 51.1767 183.002 52.4692C182.212 53.7617 180.968 54.6689 179.498 55.0235C179.061 55.1293 178.613 55.1829 178.166 55.1829" fill="#3D4E76"/>
<path fill-rule="evenodd" clip-rule="evenodd" d="M181.791 70.1896C179.318 70.1896 177.09 68.5374 176.374 66.1719C175.983 64.8812 176.064 63.4933 176.601 62.2643C176.775 61.8644 176.815 61.4101 176.711 60.9855L175.039 54.0888C174.965 53.7846 175.153 53.4769 175.458 53.4032L175.468 53.401C175.509 53.3918 175.551 53.387 175.593 53.387C175.856 53.387 176.083 53.5658 176.144 53.8215L177.817 60.7181C177.978 61.3826 177.916 62.0929 177.643 62.7186C177.214 63.7006 177.15 64.8103 177.463 65.8434C178.035 67.7337 179.814 69.054 181.791 69.054C182.043 69.054 182.298 69.0322 182.547 68.9899C183.806 68.7758 184.884 68.0749 185.582 67.0166C186.281 65.9573 186.502 64.6946 186.203 63.4615C185.71 61.4223 183.898 59.9981 181.798 59.9981C181.441 59.9981 181.083 60.0409 180.733 60.1253C180.689 60.1359 180.644 60.1413 180.599 60.1413C180.336 60.1413 180.109 59.9627 180.047 59.7067C180.011 59.5593 180.035 59.4067 180.114 59.2774C180.193 59.1478 180.318 59.057 180.466 59.0214C180.904 58.9156 181.352 58.862 181.798 58.862C184.425 58.862 186.691 60.6435 187.308 63.1945C187.676 64.7142 187.393 66.3351 186.531 67.6414C185.739 68.8431 184.533 69.6907 183.137 70.0278C183.005 70.0595 182.871 70.0872 182.738 70.1097C182.425 70.1628 182.107 70.1896 181.791 70.1896" fill="#3D4E76"/>
<path fill-rule="evenodd" clip-rule="evenodd" d="M196.441 59.7941C196 59.7941 195.563 59.722 195.143 59.5795C194.118 59.2321 193.29 58.5072 192.811 57.5378C192.332 56.5684 192.26 55.4709 192.607 54.4472C192.686 54.2166 192.902 54.0617 193.146 54.0617C193.208 54.0617 193.269 54.0717 193.329 54.0921C193.625 54.1925 193.785 54.5156 193.684 54.8121C193.434 55.5479 193.486 56.3376 193.831 57.0351C194.175 57.7325 194.771 58.254 195.508 58.5038C195.81 58.6061 196.124 58.6581 196.442 58.6581C197.692 58.6581 198.802 57.864 199.204 56.6823C199.454 55.9459 199.402 55.1564 199.057 54.4591C198.713 53.7621 198.117 53.2403 197.38 52.9908L185.47 48.9558C185.173 48.8551 185.014 48.532 185.114 48.2355C185.193 48.0048 185.409 47.8497 185.653 47.8497C185.714 47.8497 185.776 47.86 185.835 47.8801L197.745 51.9151C198.768 52.2618 199.596 52.987 200.075 53.9577C200.555 54.9281 200.627 56.0252 200.28 57.047C199.832 58.3674 198.751 59.3521 197.389 59.6809C197.078 59.756 196.759 59.7941 196.441 59.7941" fill="#3D4E76"/>
<path fill-rule="evenodd" clip-rule="evenodd" d="M186.815 66.1273C186.613 66.1273 186.43 66.024 186.326 65.8509C186.165 65.5823 186.253 65.2328 186.522 65.0719L193.478 60.9132C193.566 60.8605 193.667 60.8324 193.769 60.8324C193.971 60.8324 194.154 60.9358 194.258 61.1087C194.419 61.3775 194.331 61.7268 194.062 61.8878L187.106 66.0467C187.056 66.0764 187.003 66.0982 186.948 66.1115C186.904 66.1221 186.859 66.1273 186.815 66.1273" fill="#3D4E76"/>
<path fill-rule="evenodd" clip-rule="evenodd" d="M178.165 50.6678C177.633 50.6678 177.175 50.3065 177.049 49.7894C176.977 49.4915 177.025 49.1833 177.186 48.9217C177.345 48.6601 177.598 48.4762 177.896 48.4043C177.985 48.3827 178.077 48.3717 178.167 48.3717C178.699 48.3717 179.158 48.733 179.283 49.25C179.432 49.8652 179.052 50.4866 178.436 50.6352C178.347 50.6568 178.256 50.6678 178.165 50.6678" fill="#3D4E76"/>
<path fill-rule="evenodd" clip-rule="evenodd" d="M181.836 65.8159C181.304 65.8159 180.846 65.4548 180.72 64.9375C180.571 64.3226 180.951 63.7011 181.567 63.5523C181.656 63.5308 181.747 63.5198 181.838 63.5198C182.37 63.5198 182.829 63.881 182.954 64.3981C183.026 64.6961 182.978 65.0043 182.818 65.266C182.658 65.5276 182.405 65.7115 182.107 65.7833C182.018 65.8049 181.927 65.8159 181.836 65.8159" fill="#3D4E76"/>
<path fill-rule="evenodd" clip-rule="evenodd" d="M113.224 60.7489C112.848 60.7489 112.511 60.5403 112.344 60.2048C112.228 59.9704 112.21 59.7046 112.293 59.4565C112.376 59.2084 112.552 59.0077 112.786 58.8912C112.924 58.8232 113.07 58.7887 113.221 58.7887C113.597 58.7887 113.934 58.9974 114.101 59.3329C114.218 59.5674 114.236 59.8329 114.153 60.081C114.069 60.3291 113.894 60.5297 113.659 60.6463C113.522 60.7145 113.375 60.7489 113.224 60.7489" fill="#3D4E76"/>
<path fill-rule="evenodd" clip-rule="evenodd" d="M117.928 61.5423C117.553 61.5421 117.216 61.3336 117.049 60.998C116.932 60.7636 116.914 60.4979 116.998 60.2498C117.081 60.0017 117.256 59.801 117.491 59.6846C117.628 59.6165 117.775 59.5819 117.926 59.5819C118.302 59.5819 118.639 59.7906 118.806 60.1262C118.923 60.3606 118.941 60.6263 118.857 60.8744C118.774 61.1225 118.599 61.3231 118.364 61.4397C118.227 61.5077 118.08 61.5423 117.928 61.5423" fill="#3D4E76"/>
<path fill-rule="evenodd" clip-rule="evenodd" d="M111.021 64.9693C110.646 64.9693 110.309 64.7608 110.142 64.4253C109.901 63.9413 110.099 63.3521 110.584 63.1117C110.721 63.0437 110.868 63.0092 111.019 63.0092C111.395 63.0092 111.732 63.2177 111.899 63.5534C112.015 63.7878 112.033 64.0534 111.95 64.3015C111.866 64.5496 111.691 64.7502 111.457 64.8668C111.319 64.935 111.173 64.9693 111.021 64.9693" fill="#3D4E76"/>
<path fill-rule="evenodd" clip-rule="evenodd" d="M114.354 68.3762C113.978 68.3761 113.641 68.1675 113.474 67.832C113.233 67.348 113.432 66.759 113.916 66.5186C114.053 66.4506 114.2 66.4159 114.351 66.4159C114.727 66.4159 115.064 66.6246 115.231 66.9601C115.348 67.1946 115.366 67.4603 115.282 67.7084C115.199 67.9565 115.024 68.1571 114.789 68.2737C114.652 68.3417 114.505 68.3762 114.354 68.3762" fill="#3D4E76"/>
<path fill-rule="evenodd" clip-rule="evenodd" d="M118.627 66.2561C118.251 66.2561 117.914 66.0476 117.747 65.712C117.506 65.228 117.705 64.6388 118.189 64.3984C118.326 64.3304 118.473 64.2959 118.624 64.2959C119 64.2959 119.337 64.5044 119.504 64.8401C119.621 65.0746 119.639 65.3401 119.555 65.5882C119.472 65.8363 119.297 66.0369 119.062 66.1535C118.925 66.2217 118.778 66.2561 118.627 66.2561" fill="#3D4E76"/>
<path fill-rule="evenodd" clip-rule="evenodd" d="M116.787 57.0467C116.562 57.0467 116.335 57.0278 116.112 56.9902C114.9 56.7855 113.865 56.0511 113.273 54.9752L109.569 48.2417C109.446 48.0172 109.528 47.734 109.753 47.6107C109.823 47.572 109.898 47.5526 109.976 47.5526C110.146 47.5526 110.302 47.6451 110.384 47.7941L114.088 54.5277C114.543 55.3534 115.337 55.917 116.267 56.0737C116.438 56.1027 116.611 56.1173 116.783 56.1173C117.54 56.1173 118.267 55.8368 118.833 55.3278L122.011 52.4647C122.097 52.3876 122.207 52.345 122.322 52.345C122.456 52.345 122.579 52.3995 122.668 52.4985C122.751 52.5906 122.794 52.7097 122.787 52.8335C122.781 52.9574 122.726 53.0713 122.634 53.1544L119.455 56.0178C119.182 56.2645 118.877 56.4717 118.55 56.6338C118.006 56.9041 117.396 57.0467 116.787 57.0467" fill="#3D4E76"/>
<path fill-rule="evenodd" clip-rule="evenodd" d="M123.185 59.7651C122.539 60.4515 122.248 61.38 122.386 62.3122C122.524 63.2441 123.072 64.0485 123.889 64.519L130.065 68.0738L130.19 67.6283C131.242 63.887 130.864 59.9011 129.125 56.4048C128.881 55.9133 128.608 55.4295 128.315 54.9673L128.066 54.5754L123.185 59.7651ZM119.702 69.7313C119.233 69.7313 118.761 69.8425 118.337 70.053C117.492 70.4722 116.896 71.2413 116.7 72.163L115.224 79.1263L115.687 79.1076C117.901 79.0183 120.035 78.4709 122.031 77.4804C123.996 76.5057 125.771 75.1003 127.165 73.4167L127.461 73.0596L121.009 70.0249C120.595 69.8301 120.155 69.7313 119.702 69.7313V69.7313ZM115.054 80.0496C114.945 80.0496 114.836 80.0485 114.726 80.0464L114.708 80.046L114.69 80.0475C114.678 80.0484 114.666 80.0489 114.654 80.0489C114.633 80.0489 114.612 80.0475 114.591 80.0449L114.573 80.0426L114.556 80.0421C108.378 79.8566 102.838 76.318 100.098 70.8074C98.1202 66.8305 97.8134 62.3158 99.2341 58.0949C100.655 53.8741 103.63 50.4617 107.612 48.4862C109.935 47.3335 112.421 46.7491 115.001 46.7491C120.321 46.7491 125.362 49.298 128.485 53.5676L128.497 53.5839C129.046 54.3349 129.538 55.1463 129.959 55.9914C131.976 60.0479 132.26 64.6363 130.76 68.9111C130.714 69.0421 130.613 69.1448 130.483 69.1926C130.431 69.2123 130.376 69.222 130.321 69.222C130.239 69.222 130.159 69.2004 130.088 69.1597L123.425 65.3239C122.36 64.7108 121.646 63.6626 121.466 62.448C121.286 61.2334 121.666 60.0236 122.507 59.1289L127.509 53.8108L127.314 53.5672C124.357 49.8798 119.755 47.6782 115.003 47.6782C112.567 47.6782 110.219 48.2302 108.026 49.3185C100.252 53.1752 97.0699 62.6297 100.931 70.3939C103.405 75.368 108.399 78.6974 113.965 79.0829L114.278 79.1045L115.791 71.9704C116.045 70.7692 116.823 69.7671 117.923 69.2211C118.485 68.9426 119.083 68.8013 119.702 68.8013C120.292 68.8013 120.865 68.9301 121.406 69.1844L128.367 72.4585C128.492 72.5175 128.584 72.6283 128.619 72.7627C128.654 72.8966 128.627 73.038 128.546 73.1502C126.976 75.3261 124.866 77.1111 122.445 78.3125C120.122 79.4651 117.635 80.0496 115.054 80.0496V80.0496Z" fill="#3D4E76"/>
<path fill-rule="evenodd" clip-rule="evenodd" d="M110.524 75.6452C110.505 75.6452 110.485 75.6439 110.465 75.6414C110.211 75.6094 110.03 75.3764 110.062 75.1223L110.568 71.1286C110.686 70.1936 110.376 69.2715 109.716 68.5988C109.133 68.0053 108.357 67.6785 107.528 67.6785C107.42 67.6785 107.309 67.6843 107.201 67.6956L99.5509 68.5047C99.5341 68.5065 99.5176 68.5072 99.501 68.5072C99.2629 68.5074 99.0647 68.3287 99.0395 68.0918C99.0127 67.8372 99.198 67.6078 99.4531 67.581L107.103 66.7719C107.245 66.7568 107.389 66.7493 107.531 66.7493C108.61 66.7493 109.621 67.1751 110.38 67.9484C111.24 68.8255 111.645 70.027 111.491 71.2452L110.985 75.2389C110.965 75.3938 110.87 75.5277 110.73 75.5971C110.665 75.629 110.596 75.6452 110.524 75.6452" fill="#3D4E76"/>
<path fill-rule="evenodd" clip-rule="evenodd" d="M98.8191 63.9099C98.5967 63.9099 98.4049 63.7511 98.3633 63.5321C98.3398 63.4101 98.3654 63.2862 98.4353 63.1836C98.5052 63.0813 98.6107 63.0122 98.7327 62.989L106.291 61.5507C106.518 61.5074 106.74 61.4393 106.949 61.3483C107.008 61.3224 107.071 61.3094 107.134 61.3094C107.32 61.3094 107.487 61.419 107.561 61.5887C107.66 61.8157 107.564 62.0798 107.342 62.1898L107.321 62.1997C107.048 62.3186 106.76 62.4071 106.465 62.4632L98.9071 63.9015C98.8779 63.9071 98.8483 63.9099 98.8191 63.9099" fill="#3D4E76"/>
<path fill-rule="evenodd" clip-rule="evenodd" d="M109.2 58.4115C108.974 58.4115 108.781 58.2494 108.743 58.0258C108.7 57.7746 108.624 57.5274 108.518 57.2912L105.384 50.2748C105.333 50.1606 105.33 50.0334 105.375 49.917C105.419 49.802 105.506 49.7115 105.618 49.6619C105.68 49.6345 105.744 49.6208 105.809 49.6208C105.992 49.6208 106.159 49.7288 106.234 49.8963L109.368 56.9126C109.505 57.2199 109.603 57.5414 109.66 57.868C109.694 58.0689 109.591 58.2724 109.409 58.3629C109.369 58.3829 109.325 58.3969 109.281 58.4045C109.254 58.4092 109.227 58.4115 109.2 58.4115" fill="#3D4E76"/>
<path fill-rule="evenodd" clip-rule="evenodd" d="M115.029 87.6771C108.506 87.6771 102.386 85.1416 97.7965 80.5374C93.8723 76.6008 91.4739 71.6076 90.8604 66.0981C90.2657 60.7514 91.4777 55.2944 94.2734 50.7323C94.3584 50.5934 94.507 50.5103 94.6708 50.5103C94.7558 50.5103 94.8394 50.534 94.9127 50.5788C95.0186 50.6434 95.093 50.7456 95.1222 50.8661C95.1513 50.9869 95.1315 51.1117 95.0667 51.2175C89.4211 60.4299 90.8147 72.217 98.4557 79.8821C102.869 84.3096 108.755 86.7482 115.029 86.7482C118.636 86.7482 122.24 85.9066 125.45 84.3143C127.694 83.201 129.739 81.7336 131.53 79.9526C140.668 70.8644 140.7 56.0446 131.601 46.9168C127.187 42.4889 121.301 40.0504 115.028 40.0504C108.793 40.0504 102.933 42.4637 98.5267 46.8461C98.4388 46.9332 98.3222 46.9814 98.1983 46.9814C98.0737 46.9814 97.957 46.9328 97.8689 46.8447C97.7813 46.7567 97.7332 46.6398 97.7332 46.5158C97.7336 46.3917 97.7822 46.2752 97.8703 46.1878C102.452 41.6311 108.545 39.1218 115.028 39.1218C121.55 39.1218 127.671 41.6574 132.26 46.2614C141.721 55.7519 141.688 71.1611 132.186 80.6115C130.325 82.4626 128.198 83.9881 125.864 85.1461C122.527 86.8018 118.78 87.6771 115.029 87.6771" fill="#3D4E76"/>
<path fill-rule="evenodd" clip-rule="evenodd" d="M170.21 158.813C169.852 158.813 169.514 158.673 169.26 158.42L167.287 156.449C167.033 156.195 166.893 155.858 166.893 155.5C166.893 155.141 167.033 154.804 167.287 154.551L170.579 151.263C172.206 149.637 174.357 148.742 176.635 148.742C178.242 148.742 179.82 149.198 181.198 150.061L183.598 151.562C184.096 151.874 184.666 152.038 185.246 152.038C186.07 152.038 186.847 151.715 187.435 151.128L188.607 149.957C188.694 149.871 188.742 149.755 188.742 149.633C188.742 149.51 188.694 149.394 188.607 149.308L185.361 146.065C184.407 145.113 184.407 143.562 185.361 142.609L197.719 130.266C198.18 129.805 198.794 129.552 199.448 129.552C200.103 129.552 200.717 129.805 201.178 130.266L203.99 133.074C204.078 133.162 204.127 133.28 204.127 133.405C204.127 133.53 204.078 133.648 203.99 133.736C203.901 133.824 203.784 133.873 203.658 133.873C203.533 133.873 203.415 133.824 203.327 133.736L200.516 130.928C200.231 130.644 199.852 130.487 199.448 130.487C199.045 130.487 198.666 130.644 198.381 130.928L186.023 143.271C185.435 143.859 185.435 144.816 186.023 145.403L189.27 148.646C189.533 148.909 189.678 149.259 189.678 149.633C189.678 150.006 189.533 150.356 189.27 150.619L188.098 151.79C187.332 152.555 186.32 152.976 185.248 152.976C184.492 152.976 183.749 152.762 183.101 152.356L180.7 150.854C179.473 150.086 178.068 149.68 176.636 149.68C174.606 149.68 172.691 150.477 171.242 151.925L167.949 155.213C167.846 155.316 167.83 155.437 167.83 155.5C167.83 155.563 167.846 155.683 167.949 155.787L169.923 157.758C170.027 157.862 170.148 157.877 170.21 157.877C170.273 157.877 170.394 157.862 170.498 157.758L173.79 154.47C174.556 153.705 175.568 153.284 176.64 153.284C177.396 153.284 178.138 153.498 178.787 153.904L181.187 155.406C182.414 156.174 183.82 156.58 185.251 156.58C187.281 156.58 189.197 155.783 190.646 154.335L190.869 154.112C190.958 154.024 191.075 153.975 191.201 153.975C191.326 153.975 191.443 154.024 191.532 154.112C191.715 154.295 191.715 154.592 191.532 154.774L191.309 154.997C189.682 156.622 187.531 157.518 185.252 157.518H185.252C183.645 157.518 182.068 157.062 180.69 156.2L178.29 154.698C177.792 154.386 177.222 154.221 176.641 154.221C175.818 154.221 175.04 154.545 174.453 155.132L171.16 158.42C170.907 158.674 170.569 158.813 170.21 158.813" fill="#3D4E76"/>
<path fill-rule="evenodd" clip-rule="evenodd" d="M195.7 155.38C195.046 155.38 194.432 155.126 193.97 154.664L190.869 151.567C190.687 151.385 190.687 151.088 190.869 150.905C190.958 150.817 191.075 150.768 191.2 150.768C191.326 150.768 191.443 150.817 191.532 150.905L194.633 154.002C194.918 154.287 195.297 154.444 195.7 154.444C196.103 154.444 196.482 154.287 196.767 154.002L209.125 141.659C209.41 141.374 209.567 140.996 209.567 140.593C209.567 140.19 209.41 139.812 209.125 139.527L205.589 135.995C205.325 135.732 205.18 135.381 205.18 135.008C205.18 134.636 205.325 134.286 205.589 134.022L209.718 129.897C209.822 129.794 209.837 129.673 209.837 129.611C209.837 129.548 209.822 129.427 209.718 129.324L207.744 127.352C207.668 127.275 207.566 127.233 207.457 127.233C207.349 127.233 207.247 127.275 207.17 127.352L203.99 130.529C203.901 130.617 203.783 130.666 203.658 130.666C203.533 130.666 203.415 130.617 203.327 130.529C203.144 130.346 203.144 130.049 203.327 129.867L206.507 126.69C206.761 126.437 207.098 126.298 207.457 126.298C207.817 126.298 208.154 126.437 208.407 126.69L210.381 128.661C210.905 129.185 210.905 130.036 210.381 130.559L206.251 134.684C206.134 134.801 206.117 134.938 206.117 135.008C206.117 135.08 206.134 135.216 206.251 135.333L209.787 138.865C210.249 139.326 210.503 139.939 210.503 140.593C210.503 141.246 210.249 141.86 209.787 142.321L197.43 154.664C196.967 155.126 196.353 155.38 195.7 155.38" fill="#3D4E76"/>
</svg>
