<svg width="124" height="40" viewBox="0 0 124 40" fill="none" xmlns="http://www.w3.org/2000/svg">
    <g clip-path="url(#lbtzlkua7a)">
        <rect x=".947" y=".15" width="123" height="39" rx="5" fill="#fff"/>
        <path d="M43.008 13.15h-1.113l.007-.575h1.106c.381 0 .698-.08.952-.238.254-.161.445-.386.572-.674.13-.29.194-.63.194-1.018v-.326c0-.305-.037-.576-.11-.813-.073-.239-.18-.44-.322-.604a1.361 1.361 0 0 0-.52-.377 1.788 1.788 0 0 0-.7-.128h-1.201v-.579h1.201c.35 0 .668.059.956.176.288.115.536.282.743.501.21.218.371.481.484.792.112.307.168.654.168 1.04v.318c0 .386-.056.734-.168 1.044a2.127 2.127 0 0 1-1.249 1.29 2.743 2.743 0 0 1-1 .171zm-.736-5.332v5.332h-.707V7.818h.707zm4.533 3.395v-.084c0-.286.042-.551.125-.795a1.89 1.89 0 0 1 .359-.641c.156-.183.345-.325.567-.425.222-.102.471-.154.747-.154.279 0 .529.052.751.154.225.1.415.242.571.425.16.18.28.394.363.64.083.245.125.51.125.796v.084c0 .285-.042.55-.125.794a1.9 1.9 0 0 1-.363.641 1.66 1.66 0 0 1-1.314.575c-.279 0-.529-.05-.751-.15a1.698 1.698 0 0 1-.571-.425 1.936 1.936 0 0 1-.36-.64 2.454 2.454 0 0 1-.124-.795zm.678-.084v.084c0 .198.023.384.07.56.046.173.115.327.208.462.095.134.214.24.355.318.142.076.307.114.495.114.185 0 .348-.038.487-.114.141-.078.259-.184.351-.319.093-.134.163-.288.21-.46.048-.177.072-.363.072-.561v-.084c0-.196-.024-.38-.073-.553a1.425 1.425 0 0 0-.212-.466.986.986 0 0 0-.842-.44 1 1 0 0 0-.491.118c-.14.078-.257.186-.352.322-.093.135-.162.29-.209.466a2.13 2.13 0 0 0-.07.553zm5.383 1.318 1.018-3.26h.446l-.087.649-1.037 3.314h-.436l.095-.703zm-.685-3.26.868 3.296.062.667h-.458l-1.15-3.962h.678zm3.123 3.27.828-3.27h.674l-1.15 3.963h-.454l.102-.692zm-.875-3.27.996 3.205.114.758h-.432L54.04 9.828l-.088-.64h.476zm4.35.847v3.116h-.677V9.188h.64l.037.846zm-.16.985-.283-.011c.003-.271.043-.521.121-.751.078-.232.188-.433.33-.604a1.468 1.468 0 0 1 1.16-.539c.196 0 .372.027.528.08.156.052.29.135.399.25.112.115.198.264.256.447.059.18.088.401.088.663v2.596h-.68v-2.604c0-.207-.031-.373-.092-.498a.563.563 0 0 0-.268-.274.96.96 0 0 0-.432-.088c-.168 0-.322.035-.461.106-.137.07-.255.168-.356.293a1.473 1.473 0 0 0-.31.934zm4.964-3.494v5.625h-.68V7.525h.68zm1.509 3.688v-.084c0-.286.041-.551.124-.795.083-.247.203-.46.359-.641a1.6 1.6 0 0 1 .568-.425c.222-.102.47-.154.747-.154.278 0 .528.052.75.154.225.1.415.242.572.425.158.18.28.394.362.64.083.245.125.51.125.796v.084c0 .285-.042.55-.125.794a1.9 1.9 0 0 1-.362.641 1.66 1.66 0 0 1-1.315.575c-.278 0-.529-.05-.75-.15a1.697 1.697 0 0 1-.572-.425 1.934 1.934 0 0 1-.359-.64 2.454 2.454 0 0 1-.124-.795zm.677-.084v.084c0 .198.023.384.07.56.046.173.116.327.208.462.096.134.214.24.356.318.141.076.306.114.494.114.185 0 .348-.038.487-.114.142-.078.259-.184.352-.319.092-.134.162-.288.208-.46.05-.177.074-.363.074-.561v-.084c0-.196-.025-.38-.074-.553a1.425 1.425 0 0 0-.212-.466.986.986 0 0 0-.842-.44 1 1 0 0 0-.491.118c-.14.078-.256.186-.352.322a1.47 1.47 0 0 0-.208.466 2.13 2.13 0 0 0-.07.553zm6.716 1.344v-2.04a.828.828 0 0 0-.095-.407.624.624 0 0 0-.279-.27 1.009 1.009 0 0 0-.461-.096c-.171 0-.321.03-.45.088a.784.784 0 0 0-.3.23.506.506 0 0 0-.107.308h-.678c0-.141.037-.282.11-.42.074-.14.178-.266.315-.378.14-.115.305-.205.498-.271.196-.068.413-.103.652-.103.288 0 .542.05.762.147.222.098.395.245.52.443.127.195.19.44.19.736v1.846c0 .132.011.272.033.42.025.15.06.278.106.385v.059h-.706a1.263 1.263 0 0 1-.08-.311 2.5 2.5 0 0 1-.03-.367zm.117-1.725.007.476h-.684c-.193 0-.365.016-.517.047a1.18 1.18 0 0 0-.38.136.612.612 0 0 0-.315.55c0 .124.027.237.083.34.057.102.14.184.253.245a.918.918 0 0 0 .421.088 1.143 1.143 0 0 0 .927-.454.693.693 0 0 0 .154-.37l.289.326a.984.984 0 0 1-.14.34 1.63 1.63 0 0 1-.75.641c-.17.074-.364.11-.579.11-.268 0-.504-.052-.706-.157a1.21 1.21 0 0 1-.47-.421 1.116 1.116 0 0 1-.164-.597c0-.213.042-.4.125-.56.083-.164.202-.3.359-.407.156-.11.344-.193.564-.25.22-.055.465-.083.736-.083h.787zm4.724 1.633V7.525h.68v5.625h-.622l-.058-.769zm-2.666-1.168v-.077c0-.303.036-.577.11-.824.075-.25.181-.463.318-.641a1.406 1.406 0 0 1 1.139-.557c.249 0 .466.044.652.132.188.086.346.211.476.377.132.164.235.362.311.594.076.232.128.494.157.787v.337c-.026.29-.079.552-.157.784a1.85 1.85 0 0 1-.311.593c-.13.164-.288.29-.476.377a1.58 1.58 0 0 1-.66.128c-.231 0-.444-.05-.637-.15-.19-.1-.355-.24-.494-.421a2.054 2.054 0 0 1-.319-.637 2.807 2.807 0 0 1-.11-.802zm.68-.077v.077c0 .198.02.383.06.556.04.174.104.326.19.458a.946.946 0 0 0 .326.312c.131.073.289.11.472.11a.985.985 0 0 0 .553-.143c.147-.096.264-.222.352-.378.087-.156.156-.326.205-.509v-.882a1.952 1.952 0 0 0-.129-.389 1.196 1.196 0 0 0-.212-.336.917.917 0 0 0-.319-.238 1.032 1.032 0 0 0-.443-.088.938.938 0 0 0-.48.117.935.935 0 0 0-.325.315 1.457 1.457 0 0 0-.19.461 2.533 2.533 0 0 0-.06.557zm6.602.077v-.084c0-.286.042-.551.125-.795a1.89 1.89 0 0 1 .359-.641c.156-.183.345-.325.567-.425.222-.102.472-.154.747-.154.279 0 .529.052.751.154.225.1.415.242.571.425.159.18.28.394.363.64.083.245.124.51.124.796v.084c0 .285-.041.55-.124.794a1.902 1.902 0 0 1-.363.641 1.66 1.66 0 0 1-1.314.575c-.279 0-.529-.05-.751-.15a1.698 1.698 0 0 1-.571-.425 1.938 1.938 0 0 1-.36-.64 2.454 2.454 0 0 1-.124-.795zm.678-.084v.084c0 .198.023.384.07.56.046.173.115.327.208.462.095.134.214.24.355.318.142.076.307.114.495.114.185 0 .348-.038.487-.114.141-.078.258-.184.351-.319.093-.134.163-.288.209-.46.049-.177.073-.363.073-.561v-.084c0-.196-.024-.38-.073-.553a1.425 1.425 0 0 0-.212-.466.986.986 0 0 0-.842-.44 1 1 0 0 0-.491.118c-.14.078-.257.186-.352.322-.093.135-.162.29-.209.466a2.13 2.13 0 0 0-.07.553zm5.056-1.095v3.116H87V9.188h.64l.038.846zm-.16.985-.283-.011c.003-.271.043-.521.121-.751.078-.232.188-.433.33-.604a1.469 1.469 0 0 1 1.16-.539c.196 0 .372.027.528.08.156.052.29.135.4.25.111.115.197.264.256.447.058.18.087.401.087.663v2.596h-.68v-2.604c0-.207-.031-.373-.092-.498a.563.563 0 0 0-.268-.274.96.96 0 0 0-.432-.088c-.168 0-.322.035-.461.106-.137.07-.255.168-.355.293a1.476 1.476 0 0 0-.312.934zM87.558 25.029v7.558h-.703V23.81h.656l.047 1.219zm4.406 1.893v.123c0 .472-.055.906-.164 1.3-.11.395-.267.737-.475 1.026a2.115 2.115 0 0 1-.755.662c-.301.156-.643.234-1.026.234-.379 0-.717-.058-1.013-.176a2.23 2.23 0 0 1-.768-.498 2.632 2.632 0 0 1-.51-.761 3.861 3.861 0 0 1-.263-.961v-1.623c.058-.383.154-.73.287-1.043.132-.313.302-.582.51-.809.21-.226.46-.4.75-.521.288-.122.618-.182.99-.182.386 0 .73.076 1.03.229.305.148.561.365.768.65.211.281.37.621.475 1.02.11.394.164.837.164 1.33zm-.703.123v-.123c0-.372-.04-.715-.117-1.032a2.509 2.509 0 0 0-.346-.826 1.631 1.631 0 0 0-.586-.557 1.673 1.673 0 0 0-.838-.199c-.336 0-.623.057-.861.17-.234.11-.43.256-.586.44-.156.18-.28.377-.37.591-.089.215-.155.426-.198.633v1.87c.074.296.193.572.357.825.164.25.383.452.656.604.278.149.615.223 1.014.223.32 0 .598-.067.832-.2.234-.132.428-.318.58-.556.156-.238.272-.516.346-.832.078-.317.117-.66.117-1.031zm3.041-5.895v9h-.697v-9h.697zm5.771 7.863v-3.27c0-.3-.062-.56-.187-.778a1.234 1.234 0 0 0-.55-.504c-.243-.118-.542-.176-.897-.176-.328 0-.621.058-.88.176a1.513 1.513 0 0 0-.603.463 1.035 1.035 0 0 0-.216.638l-.704-.006c0-.238.059-.469.176-.691.117-.223.283-.422.498-.598.215-.176.47-.314.768-.416.3-.105.63-.158.99-.158.453 0 .852.076 1.195.229.348.152.619.38.815.685.195.305.293.688.293 1.149v3.064c0 .219.015.445.047.68.035.234.084.427.146.58v.07h-.744a2.826 2.826 0 0 1-.111-.527 5.502 5.502 0 0 1-.036-.61zm.165-2.554.011.539h-1.377c-.36 0-.681.033-.966.1-.282.062-.52.155-.715.28a1.352 1.352 0 0 0-.451.44 1.13 1.13 0 0 0-.153.586c0 .227.057.433.17.621.117.188.281.338.492.451.215.11.469.164.762.164.39 0 .734-.072 1.031-.216.301-.145.55-.334.744-.569.196-.234.327-.49.393-.768l.305.405a2.035 2.035 0 0 1-.282.603 2.608 2.608 0 0 1-1.283 1.008c-.289.11-.617.164-.984.164-.414 0-.776-.078-1.084-.234a1.802 1.802 0 0 1-.715-.639 1.733 1.733 0 0 1-.252-.926c0-.312.066-.591.2-.837.132-.25.323-.461.573-.633.254-.176.56-.309.915-.399.359-.093.761-.14 1.207-.14h1.459zm4.201 3.058 1.974-5.707h.756l-2.683 7.36a5.792 5.792 0 0 1-.211.48 2.248 2.248 0 0 1-.328.504 1.505 1.505 0 0 1-.504.398c-.2.106-.444.159-.733.159-.074 0-.17-.01-.287-.03a1.758 1.758 0 0 1-.246-.047l-.006-.591a2.117 2.117 0 0 0 .358.041c.253 0 .466-.043.638-.13.176-.085.323-.214.44-.386.117-.168.22-.379.31-.633l.522-1.418zm-1.846-5.707 2.022 5.444.187.732-.51.287-2.461-6.463h.762zM47.523 26.514c-.937.52-1.845.78-2.725.78-1.2 0-2.1-.468-2.7-1.404-.447-.688-.672-1.528-.672-2.52 0-1.16.337-2.12 1.008-2.88.633-.72 1.437-1.08 2.413-1.08.895 0 1.691.324 2.387.972l-.611.996c-.576-.416-1.136-.624-1.68-.624s-.996.252-1.356.756c-.353.504-.529 1.14-.529 1.908 0 .816.228 1.464.684 1.944.377.4.833.6 1.369.6.336 0 .644-.052.924-.156v-1.572h-1.356v-1.368h2.843v3.648zm3.482-4.956c.896 0 1.592.316 2.088.948.416.528.624 1.172.624 1.932 0 .888-.308 1.608-.924 2.16a2.58 2.58 0 0 1-1.788.696c-.792 0-1.456-.296-1.992-.888-.48-.536-.72-1.192-.72-1.968 0-.88.268-1.592.804-2.136.488-.496 1.124-.744 1.908-.744zm0 4.608c.776 0 1.164-.576 1.164-1.728 0-1.2-.388-1.8-1.164-1.8-.776 0-1.164.6-1.164 1.8 0 1.152.388 1.728 1.164 1.728zm6.34-4.608c.896 0 1.592.316 2.088.948.416.528.624 1.172.624 1.932 0 .888-.308 1.608-.924 2.16a2.58 2.58 0 0 1-1.788.696c-.792 0-1.456-.296-1.992-.888-.48-.536-.72-1.192-.72-1.968 0-.88.268-1.592.804-2.136.488-.496 1.124-.744 1.908-.744zm0 4.608c.776 0 1.164-.576 1.164-1.728 0-1.2-.388-1.8-1.164-1.8-.776 0-1.164.6-1.164 1.8 0 1.152.388 1.728 1.164 1.728zm7.444.324c-.36.536-.868.804-1.524.804-.8 0-1.42-.284-1.86-.852-.376-.48-.564-1.088-.564-1.824 0-1.048.304-1.856.912-2.424a2.357 2.357 0 0 1 1.644-.636c.504 0 .932.124 1.284.372.232.16.348.28.348.36l.12-.588h1.164v4.884c0 .92-.228 1.628-.684 2.124-.448.488-1.088.732-1.92.732a3.22 3.22 0 0 1-2.244-.864l.384-.768c.488.32 1.036.48 1.644.48.864 0 1.296-.6 1.296-1.8zm0-2.94a.963.963 0 0 0-.372-.636 1.025 1.025 0 0 0-.696-.276c-.4 0-.72.16-.96.48-.24.32-.36.752-.36 1.296 0 1.192.392 1.788 1.176 1.788.328 0 .612-.124.852-.372.24-.256.36-.556.36-.9v-1.38zm4.665-4.14v7.74h-1.512v-6.948l1.512-.792zm6.669 5.508h-3.744c.032.368.18.676.444.924.272.24.592.36.96.36.52 0 1.064-.16 1.632-.48l.384.804c-.576.512-1.296.768-2.16.768-.928 0-1.652-.264-2.172-.792-.496-.496-.744-1.18-.744-2.052 0-.856.28-1.564.84-2.124.504-.512 1.144-.768 1.92-.768.864 0 1.536.292 2.016.876.416.496.624 1.14.624 1.932v.552zm-3.828-1.116h2.316c-.04-.784-.42-1.176-1.14-1.176-.696 0-1.088.392-1.176 1.176z" fill="#3D4E76"/>
        <path fill-rule="evenodd" clip-rule="evenodd" d="M9.947 9.794v20.714c0 .721.405 1.345.994 1.642l11.653-12.002L10.945 8.15a1.833 1.833 0 0 0-.998 1.644zm3.606 21.734 12.737-7.574-2.692-2.772-10.045 10.346zM30.25 18.699c.423.334.697.86.697 1.452 0 .583-.265 1.102-.678 1.437l-2.706 1.609-2.96-3.05L27.56 17.1l2.689 1.6zm-3.962-2.356L13.56 8.775l10.038 10.339 2.69-2.77z" fill="#3D4E76"/>
    </g>
    <defs>
        <clipPath id="lbtzlkua7a">
            <path fill="#fff" transform="translate(.947 .15)" d="M0 0h123v39H0z"/>
        </clipPath>
    </defs>
</svg>
