<svg width="36" height="36" viewBox="0 0 36 36" fill="none" xmlns="http://www.w3.org/2000/svg">
    <circle cx="18.447" cy="17.65" r="16.704" fill="#F8F8F8" stroke="#fff" stroke-width="1.591"/>
    <path fill-rule="evenodd" clip-rule="evenodd" d="M18.447 10.477c2.336 0 2.613.008 3.535.05.853.04 1.317.182 1.625.302.408.159.7.348 1.006.654.306.307.496.598.655 1.006.12.309.262.772.3 1.625.043.923.052 1.2.052 3.536 0 2.336-.009 2.613-.051 3.536-.039.853-.181 1.316-.301 1.625a2.71 2.71 0 0 1-.655 1.006 2.711 2.711 0 0 1-1.006.654c-.308.12-.772.262-1.625.302-.922.042-1.199.05-3.535.05-2.337 0-2.614-.008-3.536-.05-.853-.04-1.317-.182-1.625-.302a2.711 2.711 0 0 1-1.006-.654 2.71 2.71 0 0 1-.655-1.006c-.12-.309-.262-.772-.3-1.625-.043-.923-.052-1.2-.052-3.536 0-2.336.009-2.613.051-3.536.039-.853.182-1.316.301-1.625.16-.408.349-.7.655-1.006a2.712 2.712 0 0 1 1.006-.654c.308-.12.772-.262 1.625-.301.922-.043 1.2-.051 3.536-.051zm0-1.577c-2.377 0-2.675.01-3.608.053-.931.042-1.568.19-2.124.406a4.29 4.29 0 0 0-1.55 1.01 4.29 4.29 0 0 0-1.01 1.55c-.215.556-.363 1.192-.406 2.123-.042.934-.052 1.232-.052 3.608 0 2.376.01 2.674.052 3.608.043.931.19 1.567.407 2.124a4.289 4.289 0 0 0 1.01 1.55c.486.486.973.785 1.549 1.009.556.216 1.193.364 2.124.406.933.043 1.231.053 3.607.053 2.377 0 2.675-.01 3.608-.053.931-.042 1.568-.19 2.124-.406a4.288 4.288 0 0 0 1.55-1.01 4.29 4.29 0 0 0 1.01-1.55c.215-.556.363-1.192.406-2.123.043-.934.053-1.232.053-3.608 0-2.376-.01-2.674-.053-3.608-.043-.93-.19-1.567-.407-2.124a4.292 4.292 0 0 0-1.01-1.55 4.29 4.29 0 0 0-1.549-1.009c-.556-.216-1.193-.364-2.124-.406-.933-.043-1.231-.053-3.607-.053zm.017 4.27a4.496 4.496 0 1 0 0 8.994 4.496 4.496 0 0 0 0-8.993zm0 7.416a2.919 2.919 0 1 1 0-5.837 2.919 2.919 0 0 1 0 5.837zm5.677-7.623a1.042 1.042 0 1 1-2.083 0 1.042 1.042 0 0 1 2.083 0z" fill="#3D4E76"/>
</svg>
