<svg width="215" height="340" viewBox="0 0 215 340" fill="none" xmlns="http://www.w3.org/2000/svg">
    <rect x=".5" y=".5" width="214" height="339" rx="3.5" fill="#fff" stroke="#EDEDED"/>
    <path d="M81.733 61.2h-7.9v-5h7.9v-8.9h5.85v8.9h7.95v5h-7.95V70h-5.85v-8.8zm29.853-22.85V70h-6.55V45.8c-.467.3-1.15.717-2.05 1.25-1.3.767-2.234 1.35-2.8 1.75a397.98 397.98 0 0 0-2.2-3.65l-.3-.45c-.234-.433-.417-.75-.55-.95 1.066-.767 2.75-1.917 5.05-3.45 1.2-.8 2.15-1.45 2.85-1.95h6.55zm18.007-.6c3.866 0 6.966 1.85 9.3 5.55 1.966 3.067 2.95 6.717 2.95 10.95 0 5.1-1.25 9.183-3.75 12.25-2.2 2.733-5.034 4.1-8.5 4.1-3.967 0-7.067-1.767-9.3-5.3-1.867-2.933-2.8-6.617-2.8-11.05 0-4.933 1.233-8.983 3.7-12.15 2.233-2.9 5.033-4.35 8.4-4.35zm.1 5.6c-3.6 0-5.4 3.533-5.4 10.6 0 3.567.516 6.367 1.55 8.4.933 1.833 2.166 2.75 3.7 2.75 1.7 0 3.033-.983 4-2.95 1-2 1.5-4.733 1.5-8.2 0-7.067-1.784-10.6-5.35-10.6z" fill="url(#x3539emm9a)"/>
    <path d="M34.941 157.96c-.522 0-.784-.267-.784-.8 0-.523.262-.784.784-.784.512 0 .768.261.768.784 0 .533-.256.8-.768.8zm2.032 0c-.522 0-.784-.267-.784-.8 0-.523.262-.784.784-.784.512 0 .768.261.768.784 0 .533-.256.8-.768.8zm2.976 7.744h1.056V167H39.79c-1.098 0-1.888-.405-2.368-1.216-.512.491-1.146.736-1.904.736-.938 0-1.685-.352-2.24-1.056-.458-.597-.688-1.328-.688-2.192 0-1.035.315-1.867.944-2.496a2.63 2.63 0 0 1 1.952-.816c.587 0 1.094.149 1.52.448v-.688l1.392-.736v5.12c0 1.067.518 1.6 1.552 1.6zm-2.944-3.808a1.886 1.886 0 0 0-1.456-.656c-.469 0-.853.192-1.152.576-.298.373-.448.864-.448 1.472 0 .619.15 1.115.448 1.488.299.373.688.56 1.168.56.598 0 1.088-.245 1.472-.736a4.31 4.31 0 0 1-.032-.448v-2.256zm11.798 3.808h.912V167H48.66c-.896 0-1.594-.277-2.096-.832-.501.555-1.2.832-2.096.832h-4.416v-1.296h4.288c1.024 0 1.536-.539 1.536-1.616v-.144c0-.8-.31-1.408-.928-1.824-.49-.341-1.093-.512-1.808-.512-.565 0-1.13.107-1.696.32v-1.36l3.504-3.888h1.408l-3.152 3.552h.096c1.216 0 2.198.368 2.944 1.104.672.683 1.008 1.547 1.008 2.592v.176c0 1.067.518 1.6 1.552 1.6zm5.407 0h1.056V167H54.05c-.917 0-1.626-.293-2.128-.88-.533.587-1.269.88-2.208.88h-.96v-1.296h.848c1.11 0 1.664-.581 1.664-1.744v-6.544l1.392-.736v7.296c0 .619.118 1.061.352 1.328.246.267.646.4 1.2.4zm10.395 0h1.072V167h-1.216c-.885 0-1.584-.283-2.096-.848-.544.779-1.338 1.168-2.384 1.168-1.045 0-1.834-.384-2.368-1.152-.501.555-1.2.832-2.096.832h-1.216v-1.296h1.056c1.046 0 1.568-.533 1.568-1.6v-.528c0-1.237.304-2.187.912-2.848.534-.587 1.248-.88 2.144-.88 1.024 0 1.814.379 2.368 1.136.47.651.704 1.515.704 2.592v.528c0 1.067.518 1.6 1.552 1.6zm-4.624.32c.523 0 .934-.219 1.232-.656.31-.437.464-1.04.464-1.808 0-1.621-.565-2.432-1.696-2.432-1.12 0-1.68.811-1.68 2.432 0 1.643.56 2.464 1.68 2.464zm15.046-.32H76.1V167h-1.216c-.885 0-1.584-.283-2.096-.848-.544.779-1.339 1.168-2.384 1.168s-1.835-.384-2.368-1.152c-.501.555-1.2.832-2.096.832h-1.216v-1.296h1.056c1.046 0 1.568-.533 1.568-1.6v-.528c0-1.237.304-2.187.912-2.848.534-.587 1.248-.88 2.144-.88 1.024 0 1.813.379 2.368 1.136.47.651.704 1.515.704 2.592v.528c0 1.067.518 1.6 1.552 1.6zm-4.624.32c.523 0 .933-.219 1.232-.656.31-.437.464-1.04.464-1.808 0-1.621-.565-2.432-1.696-2.432-1.12 0-1.68.811-1.68 2.432 0 1.643.56 2.464 1.68 2.464zm4.742.976v-1.296h.848c1.11 0 1.664-.581 1.664-1.744v-6.544l1.392-.736v7.296c0 .949-.283 1.701-.848 2.256-.533.512-1.232.768-2.096.768h-.96zm6.78 0v-9.584l1.375-.736V167h-1.376zm7.104.928V166.6c.384-.288.912-.496 1.584-.624-.48-.725-.72-1.493-.72-2.304 0-1.013.293-1.829.88-2.448.533-.576 1.226-.864 2.08-.864.928 0 1.696.373 2.304 1.12v1.328c-.683-.789-1.43-1.184-2.24-1.184-.502 0-.902.181-1.2.544-.299.352-.448.832-.448 1.44 0 .875.304 1.6.912 2.176.277-.021.474-.032.592-.032 1.365-.043 2.448-.357 3.248-.944v1.28c-.907.608-2.09.912-3.552.912-1.43 0-2.576.309-3.44.928zm12.023-.928c-.928 0-1.643-.299-2.144-.896-.427-.512-.64-1.163-.64-1.952v-6.736l1.376-.736v7.424c0 1.067.523 1.6 1.568 1.6h1.056V167h-1.216zm10.681-1.296h1.04V167h-1.056c-.864 0-1.557-.096-2.08-.288-.522-.203-1.008-.555-1.456-1.056-1.344.896-2.912 1.344-4.704 1.344h-2.176v-1.296h2.192c2.166 0 3.878-.715 5.136-2.144-.885-1.632-1.962-2.448-3.232-2.448-.864 0-1.754.459-2.672 1.376v-1.28c.896-.907 1.846-1.36 2.848-1.36.822 0 1.616.299 2.384.896.768.587 1.446 1.429 2.032 2.528v.704c-.33.416-.645.752-.944 1.008.576.48 1.472.72 2.688.72zm3.348-7.584c-.523 0-.784-.267-.784-.8 0-.523.261-.784.784-.784.512 0 .768.261.768.784 0 .533-.256.8-.768.8zm-3.264 8.88v-1.296h1.056c1.045 0 1.568-.533 1.568-1.6v-3.312l1.376-.736v4.096c0 .907-.272 1.621-.816 2.144-.501.469-1.157.704-1.968.704h-1.216zm6.025-10.544.368-.688h.432a1.2 1.2 0 0 1-.16-.592c0-.32.117-.592.352-.816.235-.235.512-.352.832-.352.267 0 .523.085.768.256v.704c-.235-.181-.459-.272-.672-.272-.395 0-.592.176-.592.528 0 .181.075.363.224.544h1.456l-.368.688h-2.64zM118.69 167v-8.944l1.376-.736V167h-1.376zm11.568-.384c-1.013.608-1.626 1.024-1.84 1.248-.426.416-.64.933-.64 1.552 0 .683.235 1.232.704 1.648.47.427 1.078.64 1.824.64 1.174-.011 2.155-.293 2.944-.848v1.296a5.627 5.627 0 0 1-3.008.848c-1.184 0-2.133-.389-2.848-1.168-.618-.661-.928-1.477-.928-2.448 0-.725.192-1.344.576-1.856.384-.501 1.062-1.029 2.032-1.584-.874-.64-1.77-1.643-2.688-3.008v-.704c.523-.747 1.136-1.328 1.84-1.744.704-.427 1.419-.64 2.144-.64.715 0 1.43.219 2.144.656.715.427 1.328 1.013 1.84 1.76v.672c-.544.821-1.445 1.733-2.704 2.736.235.021.422.032.56.032h4.224l.016 1.296h-4.352a4.631 4.631 0 0 1-1.84-.384zm-2.592-4.016c.96 1.312 1.835 2.181 2.624 2.608a12.258 12.258 0 0 0 2.784-2.64c-.789-.96-1.69-1.445-2.704-1.456-1.024 0-1.925.496-2.704 1.488zm13.391 3.104h1.056V167h-1.216c-.886 0-1.584-.283-2.096-.848-.512.565-1.211.848-2.096.848h-1.216v-1.296h1.056c1.045 0 1.568-.533 1.568-1.6v-3.312l1.376-.736v4.048c0 1.067.522 1.6 1.568 1.6zm-3.824 2.896c.512 0 .768.267.768.8 0 .523-.256.784-.768.784-.523 0-.784-.261-.784-.784 0-.533.261-.8.784-.8zm2.032 0c.512 0 .768.267.768.8 0 .523-.256.784-.768.784-.523 0-.784-.261-.784-.784 0-.533.261-.8.784-.8zm12.184-2.896h1.072V167h-1.216c-.885 0-1.584-.283-2.096-.848-.544.779-1.339 1.168-2.384 1.168s-1.835-.384-2.368-1.152c-.501.555-1.2.832-2.096.832h-1.216v-1.296h1.056c1.045 0 1.568-.533 1.568-1.6v-.528c0-1.237.304-2.187.912-2.848.533-.587 1.248-.88 2.144-.88 1.024 0 1.813.379 2.368 1.136.469.651.704 1.515.704 2.592v.528c0 1.067.517 1.6 1.552 1.6zm-4.624.32c.523 0 .933-.219 1.232-.656.309-.437.464-1.04.464-1.808 0-1.621-.565-2.432-1.696-2.432-1.12 0-1.68.811-1.68 2.432 0 1.643.56 2.464 1.68 2.464zm4.742.976v-1.296h2.192c2.165 0 3.877-.715 5.136-2.144-.885-1.632-1.963-2.448-3.232-2.448-.864 0-1.755.459-2.672 1.376v-1.28c.896-.907 1.845-1.36 2.848-1.36.821 0 1.616.299 2.384.896.768.587 1.445 1.429 2.032 2.528v.704c-1.568 2.016-3.739 3.024-6.512 3.024h-2.176zm4.688 3.184c-.523 0-.784-.267-.784-.8 0-.523.261-.784.784-.784.512 0 .768.261.768.784 0 .533-.256.8-.768.8zM175.469 167c-.107.939-.619 1.691-1.536 2.256-.853.523-1.941.784-3.264.784-1.685 0-2.955-.491-3.808-1.472-.629-.725-.944-1.621-.944-2.688 0-.896.224-1.664.672-2.304l1.328-.288a4.488 4.488 0 0 0-.72 2.448c0 .949.309 1.696.928 2.24.608.544 1.456.816 2.544.816.917 0 1.675-.16 2.272-.48.597-.32.96-.757 1.088-1.312h-1.6l.672-1.296h2.416V167h-.048zm-5.872 5.872c-.523 0-.784-.267-.784-.8 0-.523.261-.784.784-.784.512 0 .768.261.768.784 0 .533-.256.8-.768.8zm2.032 0c-.523 0-.784-.267-.784-.8 0-.523.261-.784.784-.784.512 0 .768.261.768.784 0 .533-.256.8-.768.8zm8.263-14.656c-.522 0-.784-.267-.784-.8 0-.523.262-.784.784-.784.512 0 .768.261.768.784 0 .533-.256.8-.768.8zM174.676 167v-1.296h2.88c-.49-.544-.736-1.301-.736-2.272 0-1.163.304-2.069.912-2.72.534-.576 1.243-.864 2.128-.864.907 0 1.611.283 2.112.848.427.501.64 1.157.64 1.968v1.52c-.01.885-.272 1.584-.784 2.096-.501.48-1.168.72-2 .72h-5.152zm6.56-4.272c0-1.067-.458-1.6-1.376-1.6-.522 0-.933.203-1.232.608-.298.395-.448.949-.448 1.664 0 .704.144 1.264.432 1.68.288.416.672.624 1.152.624.982 0 1.472-.512 1.472-1.536v-1.44zM65.768 94.98c-.653 0-.98-.333-.98-1 0-.653.327-.98.98-.98.64 0 .96.327.96.98 0 .667-.32 1-.96 1zm7.3 7.4h1.32V104h-1.52c-.693 0-1.293-.14-1.8-.42-.16 1.36-.753 2.42-1.78 3.18-.92.693-2.06 1.04-3.42 1.04-1.733 0-3.08-.613-4.04-1.84-.733-.947-1.1-2.067-1.1-3.36 0-1.12.28-2.08.84-2.88l1.66-.36c-.6.947-.9 1.967-.9 3.06 0 1.12.347 2.04 1.04 2.76.654.667 1.487 1 2.5 1 1.174 0 2.08-.34 2.72-1.02.534-.573.8-1.32.8-2.24v-6.68l1.72-.92v5.06c0 1.333.653 2 1.96 2zm7.073 0h1.32V104h-1.52c-1.106 0-1.98-.353-2.62-1.06-.64.707-1.513 1.06-2.62 1.06h-1.52v-1.62h1.32c1.307 0 1.96-.667 1.96-2v-4.14l1.72-.92v5.06c0 1.333.654 2 1.96 2zm-4.78 3.62c.64 0 .96.333.96 1 0 .653-.32.98-.96.98-.653 0-.98-.327-.98-.98 0-.667.327-1 .98-1zm2.54 0c.64 0 .96.333.96 1 0 .653-.32.98-.96.98-.653 0-.98-.327-.98-.98 0-.667.327-1 .98-1zm5.63-7.42c0-1.16.347-2.06 1.04-2.7.614-.547 1.414-.82 2.4-.82 1.267 0 2.24.467 2.92 1.4.587.787.88 1.813.88 3.08 0 1.44-.373 2.567-1.12 3.38-.653.72-1.506 1.08-2.56 1.08-1.2 0-2.113-.333-2.74-1-.64.667-1.5 1-2.58 1h-1.52v-1.62h1.32c1.307 0 1.96-.667 1.96-2v-1.8zm1.72 1.94c0 1.24.607 1.86 1.82 1.86.627 0 1.114-.253 1.46-.76.36-.507.54-1.213.54-2.12 0-.893-.186-1.587-.56-2.08-.373-.507-.886-.76-1.54-.76-1.146 0-1.72.667-1.72 2v1.86zm7.766-9.7.46-.86h.54c-.133-.24-.2-.493-.2-.76 0-.387.147-.72.44-1 .294-.293.634-.44 1.02-.44.334 0 .654.107.96.32v.88c-.28-.227-.56-.34-.84-.34-.493 0-.74.227-.74.68 0 .213.1.433.3.66h1.82l-.46.86h-3.3zm4.54 13.18c-1.16 0-2.053-.373-2.68-1.12-.533-.64-.8-1.453-.8-2.44v-7.62l1.72-.92v8.48c0 1.333.654 2 1.96 2h1.32V104h-1.52zm1.852-11.1c-.654 0-.98-.333-.98-1 0-.653.326-.98.98-.98.64 0 .96.327.96.98 0 .667-.32 1-.96 1zm2.54 0c-.654 0-.98-.333-.98-1 0-.653.326-.98.98-.98.64 0 .96.327.96.98 0 .667-.32 1-.96 1zm-4.08 11.1v-1.62h1.32c1.306 0 1.96-.667 1.96-2v-4.14l1.72-.92v5.12c0 1.133-.34 2.027-1.02 2.68-.627.587-1.447.88-2.46.88h-1.52zm14.999-11.3c-.653 0-.98-.333-.98-1 0-.653.327-.98.98-.98.64 0 .96.327.96.98 0 .667-.32 1-.96 1zm2.54 0c-.653 0-.98-.333-.98-1 0-.653.327-.98.98-.98.64 0 .96.327.96.98 0 .667-.32 1-.96 1zm3.72 9.68h1.32V104h-1.52c-1.373 0-2.36-.507-2.96-1.52-.64.613-1.433.92-2.38.92-1.173 0-2.107-.44-2.8-1.32-.573-.747-.86-1.66-.86-2.74 0-1.293.393-2.333 1.18-3.12.667-.68 1.48-1.02 2.44-1.02.733 0 1.367.187 1.9.56v-.86l1.74-.92v6.4c0 1.333.647 2 1.94 2zm-3.68-4.76c-.493-.547-1.1-.82-1.82-.82-.587 0-1.067.24-1.44.72-.373.467-.56 1.08-.56 1.84 0 .773.187 1.393.56 1.86.373.467.86.7 1.46.7.747 0 1.36-.307 1.84-.92a5.33 5.33 0 0 1-.04-.56v-2.82zm7.747-2.08h.12c1.507 0 2.727.467 3.66 1.4.854.84 1.28 1.913 1.28 3.22v.34c0 1.147-.353 2.04-1.06 2.68-.626.547-1.433.82-2.42.82h-5.52v-1.62h5.36c1.28 0 1.92-.673 1.92-2.02v-.18c0-.987-.386-1.747-1.16-2.28-.613-.413-1.36-.62-2.24-.62a6.42 6.42 0 0 0-2.14.38v-1.7l4.38-4.86h1.76l-3.94 4.44zm12.97 6.84h1.32V104h-1.52c-.68 0-1.267-.133-1.76-.4-.12 1.32-.58 2.373-1.38 3.16-.733.72-1.653 1.08-2.76 1.08-.8 0-1.58-.2-2.34-.6v-1.5c.68.373 1.36.56 2.04.56.853 0 1.52-.287 2-.86s.72-1.367.72-2.38v-6.82l1.72-.92v.02l.02-.02v5.46c.12 1.067.767 1.6 1.94 1.6zm11.122-11.32c-.587 0-.88-.3-.88-.9 0-.587.293-.88.88-.88.586 0 .88.293.88.88 0 .6-.294.9-.88.9zm-1.26 2.38c-.654 0-.98-.333-.98-1 0-.653.326-.98.98-.98.64 0 .96.327.96.98 0 .667-.32 1-.96 1zm2.54 0c-.654 0-.98-.333-.98-1 0-.653.326-.98.98-.98.64 0 .96.327.96.98 0 .667-.32 1-.96 1zM136.287 104v-1.62h1.8c1.293 0 1.94-.667 1.94-2v-2.8l1.72-.92v3.72c0 1.333.653 2 1.96 2h.92c1.306 0 1.96-.667 1.96-2V96.9l1.72-.9v4.38c0 1.333.646 2 1.94 2h.94c1.306 0 1.96-.667 1.96-2v-4.14l1.72-.92v5.12c0 1.133-.34 2.02-1.02 2.66-.6.587-1.4.887-2.4.9h-1.38c-1.174 0-2.047-.393-2.62-1.18-.574.773-1.427 1.167-2.56 1.18h-1.38c-1.147 0-2.02-.393-2.62-1.18-.574.787-1.447 1.18-2.62 1.18h-1.98z" fill="#3D4E76"/>
    <path d="M41.267 201.032v23.027H29v99.549M187.5 324.351V224.06h-11.231V192H41.267" stroke="#3D4E76" stroke-width="1.224" stroke-linecap="round" stroke-linejoin="round"/>
    <path d="M73.466 207.331c-.305 0-.55-.092-.733-.275-.183-.183-.275-.432-.275-.748 0-.295.092-.534.275-.717.183-.183.427-.275.733-.275.305 0 .544.092.717.275.183.173.275.412.275.717 0 .682-.33 1.023-.992 1.023zm5.326 4.822h1.374V214h-1.557c-.346 0-.666-.046-.962-.137-.193.976-.686 1.745-1.48 2.304-.712.489-1.577.733-2.594.733-1.374 0-2.437-.484-3.19-1.45-.59-.753-.885-1.638-.885-2.656 0-.803.188-1.505.564-2.106l1.832-.381a4.24 4.24 0 0 0-.61 2.182c0 .773.218 1.399.656 1.877.417.458.961.687 1.633.687.702 0 1.246-.178 1.633-.534.396-.356.595-.855.595-1.496v-4.792l1.923-1.007v3.831c0 .396.081.681.244.854.163.163.437.244.824.244zm5.895 0h1.374V214h-1.557c-.743 0-1.359-.198-1.847-.595-.488.397-1.104.595-1.846.595h-1.557v-1.847h1.373c.387 0 .662-.081.825-.244.162-.173.244-.458.244-.854v-2.824l1.923-1.007v3.831c0 .396.081.681.244.854.163.163.437.244.824.244zm-3.953 3.236c.305 0 .544.086.718.259.183.183.274.428.274.733 0 .681-.33 1.022-.992 1.022-.305 0-.55-.091-.732-.274-.183-.184-.275-.433-.275-.748 0-.662.336-.992 1.007-.992zm2.35 0c.306 0 .545.086.718.259.183.183.274.428.274.733 0 .681-.33 1.022-.991 1.022-.306 0-.55-.091-.733-.274-.183-.184-.275-.433-.275-.748 0-.662.336-.992 1.008-.992zm4.499-5.601c0-.916.285-1.633.854-2.152.499-.448 1.14-.672 1.923-.672 1.008 0 1.791.372 2.35 1.115.479.62.718 1.419.718 2.396 0 1.129-.3 2.019-.9 2.67-.54.57-1.227.855-2.06.855-.815 0-1.481-.178-2-.534-.489.356-1.079.534-1.77.534H85.14v-1.847h1.373c.387 0 .662-.081.825-.244.162-.173.244-.458.244-.854v-1.267zm1.923 1.511c0 .569.3.854.9.854.753 0 1.13-.58 1.13-1.739 0-1.109-.392-1.664-1.176-1.664-.57 0-.854.336-.854 1.007v1.542zm5.859-7.997.488-.886h.458a1.282 1.282 0 0 1-.168-.625c0-.326.117-.606.35-.84.245-.234.535-.351.87-.351.306 0 .59.107.855.321v.885c-.244-.214-.488-.321-.732-.321-.336 0-.504.153-.504.458 0 .153.066.311.199.473h1.51l-.488.886h-2.838zM98.753 214c-.926 0-1.644-.295-2.152-.885-.438-.509-.657-1.165-.657-1.969v-5.982l1.923-1.008v6.899c0 .396.082.681.245.854.162.163.437.244.824.244h1.373V214h-1.556zm1.735-8.318c-.305 0-.55-.091-.733-.274-.183-.183-.274-.433-.274-.748 0-.661.335-.992 1.007-.992.305 0 .544.091.717.275.183.173.275.412.275.717 0 .682-.331 1.022-.992 1.022zm2.35 0c-.305 0-.549-.091-.732-.274-.184-.183-.275-.433-.275-.748 0-.661.336-.992 1.007-.992.305 0 .544.091.717.275.184.173.275.412.275.717 0 .682-.331 1.022-.992 1.022zM99.389 214v-1.847h1.374c.386 0 .661-.081.824-.244.162-.173.244-.458.244-.854v-2.824l1.923-1.007v3.922c0 .926-.285 1.648-.855 2.167-.498.458-1.15.687-1.953.687h-1.557zm11.842-8.623c-.305 0-.549-.091-.733-.275-.183-.183-.274-.432-.274-.747 0-.662.336-.992 1.007-.992.305 0 .544.091.717.274.183.173.275.412.275.718 0 .681-.331 1.022-.992 1.022zm2.35 0c-.305 0-.549-.091-.732-.275-.183-.183-.275-.432-.275-.747 0-.662.336-.992 1.007-.992.306 0 .545.091.718.274.183.173.274.412.274.718 0 .681-.33 1.022-.992 1.022zm2.58 6.776h1.373V214h-1.557c-.946 0-1.678-.315-2.197-.946-.438.336-.972.503-1.603.503-.936 0-1.684-.351-2.243-1.053-.458-.58-.687-1.277-.687-2.09 0-1.008.326-1.827.977-2.458.549-.529 1.185-.793 1.907-.793.377 0 .723.071 1.038.213v-.396l1.908-1.008v5.083c0 .396.081.681.244.854.173.163.453.244.84.244zm-2.992-2.854a1.357 1.357 0 0 0-.9-.335.996.996 0 0 0-.824.412c-.204.274-.306.636-.306 1.083 0 .448.102.804.306 1.069.203.264.483.396.839.396.387 0 .687-.132.901-.396a3.192 3.192 0 0 1-.016-.382v-1.847zm7.035-2.029c.763.061 1.435.29 2.015.686 1.038.702 1.557 1.715 1.557 3.037v.199c0 .916-.285 1.633-.855 2.152-.499.437-1.145.656-1.938.656h-4.365v-1.847h4.166c.713 0 1.069-.351 1.069-1.053v-.091c0-.55-.214-.997-.641-1.343-.418-.346-.967-.519-1.649-.519-.508 0-1.048.102-1.617.305v-1.847l3.098-3.449h1.938l-2.778 3.114zm9.692 4.883h1.373V214h-1.556a3.25 3.25 0 0 1-.962-.137c-.132.976-.524 1.75-1.175 2.319-.59.509-1.297.763-2.121.763a3.937 3.937 0 0 1-1.877-.488v-1.679c.529.295 1.048.443 1.556.443.56 0 .992-.183 1.297-.549.316-.357.474-.855.474-1.496v-4.945l1.251-.656.656-.351v.015l.016-.015v3.831c0 .396.081.681.244.854.163.163.437.244.824.244zm9.132-8.516c-.611 0-.916-.31-.916-.931 0-.6.305-.9.916-.9.6 0 .9.3.9.9 0 .621-.3.931-.9.931zm-1.16 2.244c-.305 0-.549-.092-.733-.275-.183-.183-.274-.432-.274-.748 0-.295.091-.534.274-.717.184-.183.428-.275.733-.275s.544.092.717.275c.183.173.275.412.275.717 0 .682-.331 1.023-.992 1.023zm2.35 0c-.305 0-.549-.092-.732-.275-.183-.183-.275-.432-.275-.748 0-.295.092-.534.275-.717.183-.183.427-.275.732-.275.306 0 .545.092.718.275.183.173.274.412.274.717 0 .682-.33 1.023-.992 1.023zM130.359 214v-1.847h1.618c.387 0 .661-.081.824-.244.173-.173.26-.458.26-.854v-2.015l1.923-1.007v3.022c0 .396.081.681.244.854.163.163.437.244.824.244h1.038c.386 0 .661-.081.824-.244.163-.173.244-.458.244-.854v-2.412l1.923-1.022v3.434c0 .396.081.681.244.854.173.163.453.244.839.244h1.038c.387 0 .662-.081.824-.244.163-.173.245-.458.245-.854v-2.824l1.923-1.007v3.922c0 .906-.275 1.618-.825 2.137-.478.458-1.109.697-1.892.717h-1.511c-.753 0-1.368-.224-1.847-.672-.437.438-1.017.662-1.739.672h-1.511c-.753 0-1.369-.224-1.847-.672-.478.448-1.094.672-1.847.672h-1.816z" fill="#01B8B6"/>
    <path d="M88.434 271.594h39.633M88.434 265.825h39.633M92.574 277.905l-.1 38.616M123.926 277.905v38.796M87.618 316.521l40.449.18" stroke="#3D4E76" stroke-width="1.224" stroke-linecap="round" stroke-linejoin="round"/>
    <path clip-rule="evenodd" d="M40.78 249.641h10.45v-10.453H40.78v10.453zM65.624 249.641h10.451v-10.453h-10.45v10.453z" stroke="#3D4E76" stroke-width="1.224" stroke-linecap="round" stroke-linejoin="round"/>
    <path fill-rule="evenodd" clip-rule="evenodd" d="M90.47 249.641h10.45v-10.453H90.47v10.453z" fill="#fff"/>
    <path clip-rule="evenodd" d="M90.47 249.641h10.45v-10.453H90.47v10.453zM140.159 249.641h10.451v-10.453h-10.451v10.453zM165.004 249.641h10.451v-10.453h-10.451v10.453zM115.314 249.641h10.451v-10.453h-10.451v10.453zM40.78 275.084h10.45v-10.453H40.78v10.453zM65.624 275.084h10.451v-10.453h-10.45v10.453zM140.159 275.084h10.451v-10.453h-10.451v10.453zM165.004 275.084h10.451v-10.453h-10.451v10.453zM40.78 300.527h10.45v-10.453H40.78v10.453zM65.624 300.527h10.451v-10.453h-10.45v10.453zM140.159 300.527h10.451v-10.453h-10.451v10.453zM165.004 300.527h10.451v-10.453h-10.451v10.453z" stroke="#3D4E76" stroke-width="1.224" stroke-linecap="round" stroke-linejoin="round"/>
    <defs>
        <linearGradient id="x3539emm9a" x1="72.001" y1="80" x2="144" y2="80" gradientUnits="userSpaceOnUse">
            <stop stop-color="#FDBC11"/>
            <stop offset="1" stop-color="#F6931D"/>
        </linearGradient>
    </defs>
</svg>
