<svg width="343" height="232" viewBox="0 0 343 232" fill="none" xmlns="http://www.w3.org/2000/svg">
    <g clip-path="url(#re79c28nja)">
        <rect width="343" height="231.492" rx="7" fill="#fff" stroke="#E9E9E9" stroke-width="1.4"/>
        <mask id="w8xsc4z8kb" style="mask-type:luminance" maskUnits="userSpaceOnUse" x="-1" y="-1" width="345" height="234">
            <rect width="343" height="231.492" rx="7" fill="#fff" stroke="#fff" stroke-width="1.4"/>
        </mask>
        <g mask="url(#w8xsc4z8kb)">
            <path d="M258.7 41.385h-4.74v-3h4.74v-5.34h3.51v5.34h4.77v3h-4.77v5.28h-3.51v-5.28zm17.911-13.71v18.99h-3.93v-14.52c-.28.18-.69.43-1.23.75-.78.46-1.34.81-1.68 1.05-.26-.44-.7-1.17-1.32-2.19l-.18-.27c-.14-.26-.25-.45-.33-.57.64-.46 1.65-1.15 3.03-2.07.72-.48 1.29-.87 1.71-1.17h3.93zm10.805-.36c2.32 0 4.18 1.11 5.58 3.33 1.18 1.84 1.77 4.03 1.77 6.57 0 3.06-.75 5.51-2.25 7.35-1.32 1.64-3.02 2.46-5.1 2.46-2.38 0-4.24-1.06-5.58-3.18-1.12-1.76-1.68-3.97-1.68-6.63 0-2.96.74-5.39 2.22-7.29 1.34-1.74 3.02-2.61 5.04-2.61zm.06 3.36c-2.16 0-3.24 2.12-3.24 6.36 0 2.14.31 3.82.93 5.04.56 1.1 1.3 1.65 2.22 1.65 1.02 0 1.82-.59 2.4-1.77.6-1.2.9-2.84.9-4.92 0-4.24-1.07-6.36-3.21-6.36z" fill="url(#sdifyjv71c)"/>
        </g>
        <g clip-path="url(#8rv0pvirgd)">
            <path d="M53.257 43.704V66.09H40.883v96.781M198.754 150.012v-82.92h-11.328V35.922H51.256" stroke="#3D4E76" stroke-width="1.235" stroke-linecap="round" stroke-linejoin="round"/>
            <path d="M82.338 42.757v9.661H80.37v-9.66h1.97zm4.412 3.19v6.471h-1.97v-9.66h1.664a159.588 159.588 0 0 1 4.854 6.669v-6.67h1.999v9.661h-1.71c-.956-1.13-2.569-3.286-4.837-6.47zm14.968-2.396c-.183.275-.468.687-.855 1.236-.814-.356-1.541-.534-2.182-.534-.845 0-1.267.315-1.267.946 0 .285.097.509.29.672.193.162.595.36 1.206.595 1.099.427 1.887.89 2.365 1.389.489.498.733 1.099.733 1.8 0 .987-.372 1.75-1.114 2.29-.611.437-1.369.656-2.274.656-1.069 0-2.208-.386-3.419-1.16l.885-1.236c.59.397 1.348.595 2.274.595 1.048 0 1.572-.422 1.572-1.267 0-.549-.564-1.017-1.694-1.404-1.821-.61-2.732-1.587-2.732-2.93 0-.814.306-1.46.916-1.938.57-.458 1.328-.687 2.274-.687 1.079 0 2.086.326 3.022.977zm9.647 4.807c0 2.829-1.241 4.243-3.724 4.243-2.482 0-3.723-1.414-3.723-4.243v-5.6h2.014v5.875c0 1.526.57 2.29 1.709 2.29 1.16 0 1.74-.764 1.74-2.29v-5.876h1.984v5.601zm2.449 4.06v-9.645c.142-.03.544-.072 1.205-.122.662-.051 1.165-.077 1.511-.077 2.462 0 3.694 1.008 3.694 3.022 0 1.089-.443 2.015-1.328 2.778.366.844.992 2.192 1.877 4.044h-2.015a781.554 781.554 0 0 0-1.617-3.51c-.112.02-.265.03-.458.03-.448 0-.738-.04-.87-.122v3.602h-1.999zm1.999-8.135V47.2c.305.091.636.137.992.137.875 0 1.312-.58 1.312-1.74 0-.946-.452-1.42-1.358-1.42-.519 0-.834.036-.946.107zm8.654-1.526h1.679l3.556 9.661h-2.03a68.307 68.307 0 0 1-.641-2.015h-3.465c-.142.458-.361 1.13-.656 2.015h-1.999l3.556-9.66zm.855 2.61c-.285.804-.677 1.933-1.176 3.388h2.32c-.478-1.404-.86-2.533-1.144-3.388zm7.645.58v6.471h-1.969v-9.66h1.663a159.865 159.865 0 0 1 4.854 6.669v-6.67h1.999v9.661h-1.709c-.957-1.13-2.569-3.286-4.838-6.47zm15.883 5.387c-.844.845-1.836 1.267-2.976 1.267-1.638 0-2.859-.61-3.662-1.831-.58-.875-.87-1.903-.87-3.083 0-1.536.397-2.773 1.19-3.709.784-.936 1.872-1.404 3.266-1.404.977 0 1.954.412 2.93 1.236l-.778 1.267c-.733-.529-1.399-.794-1.999-.794-.835 0-1.481.352-1.938 1.054-.397.6-.596 1.383-.596 2.35 0 .855.234 1.587.702 2.198.499.64 1.165.961 2 .961.549 0 1.2-.24 1.953-.717l.778 1.205zm1.592-8.577h6.318v1.603h-4.319v2.274h3.602v1.602h-3.602v2.58h4.517v1.602h-6.516v-9.66zM94.429 65.334c-.845.845-1.837 1.267-2.976 1.267-1.638 0-2.86-.61-3.663-1.831-.58-.875-.87-1.903-.87-3.083 0-1.536.397-2.773 1.19-3.709.784-.936 1.873-1.404 3.267-1.404.976 0 1.953.412 2.93 1.236l-.779 1.267c-.732-.529-1.399-.794-1.999-.794-.834 0-1.48.352-1.938 1.054-.397.6-.595 1.383-.595 2.35 0 .855.234 1.587.702 2.198.498.64 1.165.961 2 .961.549 0 1.2-.24 1.953-.717l.778 1.205zm5.605-8.76c1.485 0 2.63.59 3.434 1.77.631.926.946 2.046.946 3.358 0 1.506-.412 2.712-1.236 3.617-.784.855-1.832 1.282-3.144 1.282-1.506 0-2.65-.55-3.434-1.648-.63-.865-.946-1.949-.946-3.25 0-1.527.412-2.773 1.236-3.74.784-.926 1.832-1.389 3.144-1.389zm0 8.348c.733 0 1.297-.274 1.694-.824.397-.56.595-1.358.595-2.396 0-1.109-.219-1.974-.656-2.594-.407-.55-.951-.825-1.633-.825-.733 0-1.302.3-1.71.901-.396.6-.594 1.44-.594 2.518 0 2.147.768 3.22 2.304 3.22zm11.359-.793c.57-2.086 1.333-4.543 2.289-7.372h2.9v9.661h-2.014v-7.845c-.479 2.066-1.262 4.68-2.351 7.845h-1.663c-1.15-3.49-1.928-6.08-2.335-7.768v7.768h-1.969v-9.66h2.778a87.209 87.209 0 0 1 2.365 7.37zm7.63 2.289v-9.645c.142-.03.544-.072 1.205-.122.662-.051 1.165-.077 1.511-.077 2.462 0 3.693 1.008 3.693 3.022 0 1.252-.427 2.167-1.282 2.747-.569.397-1.241.595-2.014.595-.61 0-.982-.04-1.114-.122v3.602h-1.999zm1.999-8.135V61.2c.264.101.595.152.992.152.407 0 .727-.142.961-.427.234-.295.351-.697.351-1.206 0-1.028-.452-1.541-1.358-1.541-.519 0-.834.035-.946.106zm7.655-1.526h1.679l3.556 9.661h-2.03a71.472 71.472 0 0 1-.641-2.015h-3.464c-.143.458-.361 1.13-.656 2.015h-2l3.556-9.66zm.855 2.61c-.285.804-.677 1.933-1.175 3.388h2.319a591.423 591.423 0 0 1-1.144-3.388zm7.645.58v6.471h-1.969v-9.66h1.664a159.86 159.86 0 0 1 4.853 6.669v-6.67h1.999v9.661h-1.709c-.956-1.13-2.569-3.286-4.838-6.47zm7.841-3.19h2.152c.712 1.445 1.434 2.89 2.167 4.335l2.121-4.335h2.152l-3.281 5.846v3.815h-1.999v-3.815c-1.16-2.035-2.264-3.984-3.312-5.846z" fill="#01B8B6"/>
            <path d="M99.831 112.304h39.976M99.831 106.695h39.976M104.008 118.44l-.101 37.542M135.631 118.44v37.717M99.009 155.982l40.798.175" stroke="#3D4E76" stroke-width="1.235" stroke-linecap="round" stroke-linejoin="round"/>
            <path clip-rule="evenodd" d="M51.765 90.962h10.54V80.799h-10.54v10.163zM76.825 90.962h10.54V80.799h-10.54v10.163z" stroke="#3D4E76" stroke-width="1.235" stroke-linecap="round" stroke-linejoin="round"/>
            <path fill-rule="evenodd" clip-rule="evenodd" d="M101.884 90.962h10.541V80.799h-10.541v10.163z" fill="#fff"/>
            <path clip-rule="evenodd" d="M101.884 90.962h10.541V80.799h-10.541v10.163zM152.004 90.962h10.541V80.799h-10.541v10.163zM177.063 90.962h10.541V80.799h-10.541v10.163zM126.944 90.962h10.541V80.799h-10.541v10.163zM51.765 115.698h10.54v-10.163h-10.54v10.163zM76.825 115.698h10.54v-10.163h-10.54v10.163zM152.004 115.698h10.541v-10.163h-10.541v10.163zM177.063 115.698h10.541v-10.163h-10.541v10.163zM51.765 140.433h10.54v-10.162h-10.54v10.162zM76.825 140.433h10.54v-10.162h-10.54v10.162zM152.004 140.433h10.541v-10.162h-10.541v10.162zM177.063 140.433h10.541v-10.162h-10.541v10.162z" stroke="#3D4E76" stroke-width="1.235" stroke-linecap="round" stroke-linejoin="round"/>
        </g>
        <path d="M236.834 57.29v10.128h-1.472V57.29h1.472zm4.359 2.464v7.664h-1.472V57.29h1.296c2.134 3.093 3.846 5.707 5.136 7.84v-7.84h1.488v10.128h-1.328c-1.088-1.504-2.794-4.059-5.12-7.664zm14.317-.848c-.725-.363-1.456-.544-2.192-.544-.523 0-.949.123-1.28.368-.331.235-.496.539-.496.912 0 .672.443 1.173 1.328 1.504 1.323.49 2.261 1.008 2.816 1.552.555.533.832 1.195.832 1.984 0 .96-.368 1.712-1.104 2.256-.597.448-1.339.672-2.224.672-1.056 0-2.155-.363-3.296-1.088l.64-.912c.715.437 1.547.656 2.496.656 1.301 0 1.952-.55 1.952-1.648 0-.853-.549-1.467-1.648-1.84-1.152-.395-1.989-.832-2.512-1.312-.512-.48-.768-1.061-.768-1.744 0-.81.315-1.461.944-1.952.576-.448 1.333-.672 2.272-.672a4.95 4.95 0 0 1 2.88.896l-.64.912zm10.901 4.272c0 2.955-1.237 4.432-3.712 4.432s-3.712-1.477-3.712-4.432V57.29h1.504v6.224c0 1.877.736 2.816 2.208 2.816 1.472 0 2.208-.939 2.208-2.816V57.29h1.504v5.888zm2.873 4.24V57.306a17.816 17.816 0 0 1 2.592-.208c2.453 0 3.68 1.035 3.68 3.104 0 1.344-.555 2.293-1.664 2.848l2.016 4.368h-1.504l-1.824-4a4.321 4.321 0 0 1-.608.032c-.374 0-.774-.037-1.2-.112v4.08h-1.488zm1.488-9.024v3.744c.426.075.826.112 1.2.112 1.344 0 2.016-.683 2.016-2.048 0-1.28-.678-1.92-2.032-1.92-.491 0-.886.037-1.184.112zm9.679-1.104h1.408l3.664 10.128h-1.52l-.768-2.288h-4.144l-.784 2.288h-1.52l3.664-10.128zm.704 1.792-1.648 4.816h3.296l-1.648-4.816zm7.523.672v7.664h-1.472V57.29h1.296c2.133 3.093 3.845 5.707 5.136 7.84v-7.84h1.488v10.128h-1.328c-1.088-1.504-2.795-4.059-5.12-7.664zm16.173 6.688c-.896.779-1.872 1.168-2.928 1.168-1.536 0-2.726-.592-3.568-1.776-.662-.939-.992-2.064-.992-3.376 0-1.493.41-2.768 1.232-3.824.81-1.024 1.84-1.536 3.088-1.536 1.109 0 2.122.368 3.04 1.104l-.592.896c-.726-.48-1.446-.72-2.16-.72-.971 0-1.734.4-2.288 1.2-.502.725-.752 1.685-.752 2.88 0 1.184.314 2.133.944 2.848.576.661 1.322.992 2.24.992.693 0 1.408-.25 2.144-.752l.592.896zm2.117-9.152h6.176v1.232h-4.688v3.024h3.936v1.232h-3.936v3.408h4.896v1.232h-6.384V57.29zm-65.227 28.152c-.896.779-1.872 1.168-2.928 1.168-1.536 0-2.725-.592-3.568-1.776-.661-.939-.992-2.064-.992-3.376 0-1.493.411-2.768 1.232-3.824.811-1.024 1.84-1.536 3.088-1.536 1.109 0 2.123.368 3.04 1.104l-.592.896c-.725-.48-1.445-.72-2.16-.72-.971 0-1.733.4-2.288 1.2-.501.725-.752 1.685-.752 2.88 0 1.184.315 2.133.944 2.848.576.661 1.323.992 2.24.992.693 0 1.408-.25 2.144-.752l.592.896zm6.038 1.168c-1.504 0-2.661-.592-3.472-1.776-.64-.939-.96-2.08-.96-3.424 0-1.579.421-2.87 1.264-3.872.8-.96 1.856-1.44 3.168-1.44 1.493 0 2.651.613 3.472 1.84.64.96.96 2.117.96 3.472 0 1.568-.421 2.837-1.264 3.808-.8.928-1.856 1.392-3.168 1.392zm0-1.28c.992 0 1.739-.41 2.24-1.232.416-.683.624-1.579.624-2.688 0-1.29-.272-2.299-.816-3.024-.501-.672-1.184-1.008-2.048-1.008-.981 0-1.728.432-2.24 1.296-.416.704-.624 1.616-.624 2.736 0 1.28.272 2.267.816 2.96.501.64 1.184.96 2.048.96zm8.149-7.248v8.336h-1.472V76.29h1.888c.821 1.707 1.685 4.043 2.592 7.008l.464 1.52c.096-.31.202-.65.32-1.024 1.002-3.2 1.92-5.701 2.752-7.504h1.904v10.128h-1.488V78.05c-.416 1.483-1.376 4.272-2.88 8.368h-1.184c-.48-1.12-1.03-2.565-1.648-4.336-.608-1.781-1.024-3.115-1.248-4zm11.325 8.336V76.306a17.816 17.816 0 0 1 2.592-.208c2.453 0 3.68 1.035 3.68 3.104 0 1.12-.374 1.968-1.12 2.544-.608.47-1.387.704-2.336.704a7.69 7.69 0 0 1-1.328-.112v4.08h-1.488zm1.488-9.024v3.744a7.69 7.69 0 0 0 1.328.112c1.258 0 1.888-.683 1.888-2.048 0-1.28-.678-1.92-2.033-1.92-.49 0-.885.037-1.183.112zm8.444-1.104h1.408l3.664 10.128h-1.52l-.768-2.288h-4.144l-.784 2.288h-1.52l3.664-10.128zm.704 1.792-1.648 4.816h3.296l-1.648-4.816zm7.523.672v7.664h-1.472V76.29h1.296c2.133 3.093 3.845 5.707 5.136 7.84v-7.84h1.488v10.128h-1.328c-1.088-1.504-2.795-4.059-5.12-7.664zm10.797-2.464v10.128h-1.472V76.29h1.472zm2.759 0h6.176v1.232h-4.688v3.024h3.936v1.232h-3.936v3.408h4.896v1.232h-6.384V76.29zm13.542 1.616c-.725-.363-1.456-.544-2.192-.544-.523 0-.949.123-1.28.368-.331.235-.496.539-.496.912 0 .672.443 1.173 1.328 1.504 1.323.49 2.261 1.008 2.816 1.552.555.533.832 1.195.832 1.984 0 .96-.368 1.712-1.104 2.256-.597.448-1.339.672-2.224.672-1.056 0-2.155-.363-3.296-1.088l.64-.912c.715.437 1.547.656 2.496.656 1.301 0 1.952-.55 1.952-1.648 0-.853-.549-1.467-1.648-1.84-1.152-.395-1.989-.832-2.512-1.312-.512-.48-.768-1.061-.768-1.744 0-.81.315-1.461.944-1.952.576-.448 1.333-.672 2.272-.672a4.95 4.95 0 0 1 2.88.896l-.64.912zM89.803 197.872V208H88.33v-10.128h1.472zm3.975 3.584h.08c.544-.608 1.301-.912 2.272-.912 1.781 0 2.672 1.045 2.672 3.136V208h-1.376v-4.24c0-1.355-.597-2.032-1.792-2.032-.33 0-.667.08-1.008.24-.341.16-.592.352-.752.576V208h-1.376v-7.264h1.152l.128.72zm13.829-3.584h1.408L112.679 208h-1.52l-.768-2.288h-4.144l-.784 2.288h-1.52l3.664-10.128zm.704 1.792-1.648 4.816h3.296l-1.648-4.816zm7.139 1.792h.08c.544-.608 1.296-.912 2.256-.912 1.205 0 1.989.432 2.352 1.296.619-.864 1.499-1.296 2.64-1.296 1.749 0 2.624 1.035 2.624 3.104V208h-1.376v-4.048c0-.8-.144-1.371-.432-1.712-.277-.341-.747-.512-1.408-.512-.661 0-1.264.293-1.808.88.064.299.096.645.096 1.04V208h-1.376v-4.16c0-.736-.149-1.269-.448-1.6-.288-.341-.757-.512-1.408-.512-.309 0-.629.08-.96.24-.331.16-.576.352-.736.576V208h-1.376v-7.264h1.152l.128.72zm13.641 0h.08c.544-.608 1.296-.912 2.256-.912 1.205 0 1.989.432 2.352 1.296.618-.864 1.498-1.296 2.64-1.296 1.749 0 2.624 1.035 2.624 3.104V208h-1.376v-4.048c0-.8-.144-1.371-.432-1.712-.278-.341-.747-.512-1.408-.512-.662 0-1.264.293-1.808.88.064.299.096.645.096 1.04V208h-1.376v-4.16c0-.736-.15-1.269-.448-1.6-.288-.341-.758-.512-1.408-.512-.31 0-.63.08-.96.24-.331.16-.576.352-.736.576V208h-1.376v-7.264h1.152l.128.72zM146.955 208h-1.072l-.16-.752c-.576.629-1.355.944-2.336.944-.747 0-1.339-.203-1.776-.608-.427-.416-.64-.976-.64-1.68 0-.8.325-1.413.976-1.84.661-.437 1.595-.656 2.8-.656h.848v-.08c0-1.109-.56-1.664-1.68-1.664-.715 0-1.381.229-2 .688l-.416-.736c.832-.715 1.787-1.072 2.864-1.072 1.728 0 2.592 1.029 2.592 3.088V208zm-1.376-3.664h-.704c-1.643 0-2.464.491-2.464 1.472 0 .405.117.725.352.96.245.235.571.352.976.352s.784-.101 1.136-.304c.352-.213.587-.48.704-.8v-1.68zm5.074-2.88h.08c.544-.608 1.301-.912 2.272-.912 1.781 0 2.672 1.045 2.672 3.136V208h-1.376v-4.24c0-1.355-.597-2.032-1.792-2.032-.331 0-.667.08-1.008.24-.341.16-.592.352-.752.576V208h-1.376v-7.264h1.152l.128.72zm7.375 8.192-.32-.624c.416-.267.624-.565.624-.896v-.064a.324.324 0 0 1-.144.032.637.637 0 0 1-.48-.224.87.87 0 0 1-.192-.56c0-.245.08-.448.24-.608a.778.778 0 0 1 .592-.256c.64 0 .96.448.96 1.344 0 .416-.118.795-.352 1.136a1.88 1.88 0 0 1-.928.72zm12.123-10.16c-.726-.363-1.456-.544-2.192-.544-.523 0-.95.123-1.28.368-.331.235-.496.539-.496.912 0 .672.442 1.173 1.328 1.504 1.322.491 2.261 1.008 2.816 1.552.554.533.832 1.195.832 1.984 0 .96-.368 1.712-1.104 2.256-.598.448-1.339.672-2.224.672-1.056 0-2.155-.363-3.296-1.088l.64-.912c.714.437 1.546.656 2.496.656 1.301 0 1.952-.549 1.952-1.648 0-.853-.55-1.467-1.648-1.84-1.152-.395-1.99-.832-2.512-1.312-.512-.48-.768-1.061-.768-1.744 0-.811.314-1.461.944-1.952.576-.448 1.333-.672 2.272-.672 1.056 0 2.016.299 2.88.896l-.64.912zM178.94 208h-1.072l-.16-.752c-.576.629-1.355.944-2.336.944-.747 0-1.339-.203-1.776-.608-.427-.416-.64-.976-.64-1.68 0-.8.325-1.413.976-1.84.661-.437 1.594-.656 2.8-.656h.848v-.08c0-1.109-.56-1.664-1.68-1.664-.715 0-1.382.229-2 .688l-.416-.736c.832-.715 1.786-1.072 2.864-1.072 1.728 0 2.592 1.029 2.592 3.088V208zm-1.376-3.664h-.704c-1.643 0-2.464.491-2.464 1.472 0 .405.117.725.352.96.245.235.57.352.976.352.405 0 .784-.101 1.136-.304.352-.213.586-.48.704-.8v-1.68zm5.169-6.656V208h-1.376v-9.584l1.376-.736zm4.387 4.176-.016 4.224c0 .704.267 1.056.8 1.056.374 0 .742-.107 1.104-.32l.48.736c-.586.437-1.221.656-1.904.656-1.237 0-1.856-.677-1.856-2.032v-4.32h-1.072v-1.12h1.088v-1.488l1.376-.72v2.208h2.176v1.12h-2.176zm4.22 7.792-.32-.624c.416-.267.624-.565.624-.896v-.064a.318.318 0 0 1-.144.032.64.64 0 0 1-.48-.224.87.87 0 0 1-.192-.56c0-.245.08-.448.24-.608a.78.78 0 0 1 .592-.256c.64 0 .96.448.96 1.344 0 .416-.117.795-.352 1.136a1.875 1.875 0 0 1-.928.72zm12.827-10.48a119.91 119.91 0 0 0-4.064 6.256c-.469.768-.757 1.216-.864 1.344h5.04V208h-6.848v-1.136c1.067-1.536 2.39-3.552 3.968-6.048.651-1.035 1.024-1.605 1.12-1.712h-4.944v-1.232h6.592v1.296zm7.257 8.832h-1.072l-.16-.752c-.576.629-1.355.944-2.336.944-.747 0-1.339-.203-1.776-.608-.427-.416-.64-.976-.64-1.68 0-.8.325-1.413.976-1.84.661-.437 1.595-.656 2.8-.656h.848v-.08c0-1.109-.56-1.664-1.68-1.664-.715 0-1.381.229-2 .688l-.416-.736c.832-.715 1.787-1.072 2.864-1.072 1.728 0 2.592 1.029 2.592 3.088V208zm-1.376-3.664h-.704c-1.643 0-2.464.491-2.464 1.472 0 .405.117.725.352.96.245.235.571.352.976.352s.784-.101 1.136-.304c.352-.213.587-.48.704-.8v-1.68zm5.106-2.88h.064c.501-.608 1.088-.912 1.76-.912.853 0 1.482.331 1.888.992l-1.152.72c-.352-.352-.736-.528-1.152-.528-.534 0-.982.272-1.344.816V208h-1.376v-7.264h1.184l.128.72zm10.107-.72h1.072v10.128h-1.376v-3.632c-.48.64-1.168.96-2.064.96-1.077 0-1.925-.395-2.544-1.184-.523-.661-.784-1.493-.784-2.496 0-1.323.384-2.347 1.152-3.072.619-.597 1.371-.896 2.256-.896.427 0 .848.096 1.264.288.416.181.704.4.864.656l.16-.752zm-.304 4.976v-2.88c-.075-.331-.288-.619-.64-.864a1.856 1.856 0 0 0-1.104-.368c-.651 0-1.179.256-1.584.768s-.608 1.173-.608 1.984c0 .928.213 1.637.64 2.128.373.427.853.64 1.44.64.405 0 .784-.133 1.136-.4.363-.277.603-.613.72-1.008zM234.33 208h-1.072l-.16-.752c-.576.629-1.355.944-2.336.944-.747 0-1.339-.203-1.776-.608-.427-.416-.64-.976-.64-1.68 0-.8.325-1.413.976-1.84.661-.437 1.595-.656 2.8-.656h.848v-.08c0-1.109-.56-1.664-1.68-1.664-.715 0-1.381.229-2 .688l-.416-.736c.832-.715 1.787-1.072 2.864-1.072 1.728 0 2.592 1.029 2.592 3.088V208zm-1.376-3.664h-.704c-1.643 0-2.464.491-2.464 1.472 0 .405.117.725.352.96.245.235.571.352.976.352s.784-.101 1.136-.304c.352-.213.587-.48.704-.8v-1.68zm3.73 5.312-.32-.624c.416-.267.624-.565.624-.896v-.064a.324.324 0 0 1-.144.032.64.64 0 0 1-.48-.224.87.87 0 0 1-.192-.56c0-.245.08-.448.24-.608a.778.778 0 0 1 .592-.256c.64 0 .96.448.96 1.344 0 .416-.117.795-.352 1.136a1.88 1.88 0 0 1-.928.72zm7.147-2.416v-.032c.021-.533.304-.8.848-.8.565 0 .848.277.848.832 0 .565-.283.848-.848.848s-.848-.283-.848-.848zm4.578 0v-.032c.021-.533.304-.8.848-.8.565 0 .848.277.848.832 0 .565-.283.848-.848.848s-.848-.283-.848-.848zm4.578 0v-.032c.022-.533.304-.8.848-.8.566 0 .848.277.848.832 0 .565-.282.848-.848.848-.565 0-.848-.283-.848-.848z" fill="#3D4E76"/>
        <path d="M345.589-128.395a150.442 150.442 0 0 1 60.648-12.717c86.175 0 156.038 72.472 156.038 161.867 0 89.398-69.863 161.867-156.038 161.867-57.752 0-108.063-32.636-135.045-81.019-41.362 49.542-102.309 81.019-170.448 81.019-47.463 0-91.45-15.273-127.786-41.243-30.913 25.753-70.112 41.243-112.855 41.243-99.67 0-180.477-83.819-180.477-187.215 0-103.405 80.807-187.223 180.477-187.223 18.903 0 37.122 3.043 54.242 8.631 40.621-61.706 108.935-102.242 186.399-102.242 48.849 0 94.023 16.13 130.899 43.529" stroke="url(#bd1vgc4khe)" stroke-width="1.935" stroke-linecap="round" stroke-linejoin="round"/>
    </g>
    <defs>
        <linearGradient id="sdifyjv71c" x1="253" y1="52.665" x2="296" y2="52.665" gradientUnits="userSpaceOnUse">
            <stop stop-color="#FDBC11"/>
            <stop offset="1" stop-color="#F6931D"/>
        </linearGradient>
        <linearGradient id="bd1vgc4khe" x1="542.114" y1="-83.771" x2="-266.258" y2="-145.705" gradientUnits="userSpaceOnUse">
            <stop stop-color="#1C6FC4"/>
            <stop offset="1" stop-color="#01B8B6"/>
        </linearGradient>
        <clipPath id="re79c28nja">
            <path fill="#fff" d="M0 0h343v231.492H0z"/>
        </clipPath>
        <clipPath id="8rv0pvirgd">
            <path fill="#fff" transform="translate(39.883 34.923)" d="M0 0h159.871v127.949H0z"/>
        </clipPath>
    </defs>
</svg>
