<svg width="215" height="340" viewBox="0 0 215 340" fill="none" xmlns="http://www.w3.org/2000/svg">
    <rect x=".5" y=".5" width="214" height="339" rx="3.5" fill="#fff" stroke="#EDEDED"/>
    <path d="M81.733 61.2h-7.9v-5h7.9v-8.9h5.85v8.9h7.95v5h-7.95V70h-5.85v-8.8zm29.853-22.85V70h-6.55V45.8c-.467.3-1.15.717-2.05 1.25-1.3.767-2.234 1.35-2.8 1.75a397.98 397.98 0 0 0-2.2-3.65l-.3-.45c-.234-.433-.417-.75-.55-.95 1.066-.767 2.75-1.917 5.05-3.45 1.2-.8 2.15-1.45 2.85-1.95h6.55zm18.007-.6c3.866 0 6.966 1.85 9.3 5.55 1.966 3.067 2.95 6.717 2.95 10.95 0 5.1-1.25 9.183-3.75 12.25-2.2 2.733-5.034 4.1-8.5 4.1-3.967 0-7.067-1.767-9.3-5.3-1.867-2.933-2.8-6.617-2.8-11.05 0-4.933 1.233-8.983 3.7-12.15 2.233-2.9 5.033-4.35 8.4-4.35zm.1 5.6c-3.6 0-5.4 3.533-5.4 10.6 0 3.567.516 6.367 1.55 8.4.933 1.833 2.166 2.75 3.7 2.75 1.7 0 3.033-.983 4-2.95 1-2 1.5-4.733 1.5-8.2 0-7.067-1.784-10.6-5.35-10.6z" fill="url(#qjabvyyffa)"/>
    <path d="M26.303 156.872V167H24.83v-10.128h1.472zm3.975 3.584h.08c.544-.608 1.301-.912 2.272-.912 1.781 0 2.672 1.045 2.672 3.136V167h-1.376v-4.24c0-1.355-.597-2.032-1.792-2.032-.33 0-.667.08-1.008.24-.341.16-.592.352-.752.576V167h-1.376v-7.264h1.152l.128.72zm13.83-3.584h1.407L49.18 167h-1.52l-.768-2.288h-4.144L41.963 167h-1.52l3.664-10.128zm.703 1.792-1.648 4.816h3.296l-1.648-4.816zm7.139 1.792h.08c.544-.608 1.296-.912 2.256-.912 1.205 0 1.99.432 2.352 1.296.619-.864 1.498-1.296 2.64-1.296 1.75 0 2.624 1.035 2.624 3.104V167h-1.376v-4.048c0-.8-.144-1.371-.432-1.712-.278-.341-.747-.512-1.408-.512-.661 0-1.264.293-1.808.88.064.299.096.645.096 1.04V167h-1.376v-4.16c0-.736-.15-1.269-.448-1.6-.288-.341-.758-.512-1.408-.512-.31 0-.63.08-.96.24-.33.16-.576.352-.736.576V167H50.67v-7.264h1.152l.128.72zm13.64 0h.08c.544-.608 1.296-.912 2.257-.912 1.205 0 1.989.432 2.351 1.296.62-.864 1.5-1.296 2.64-1.296 1.75 0 2.624 1.035 2.624 3.104V167h-1.376v-4.048c0-.8-.144-1.371-.431-1.712-.278-.341-.747-.512-1.409-.512-.66 0-1.263.293-1.807.88.063.299.096.645.096 1.04V167h-1.376v-4.16c0-.736-.15-1.269-.449-1.6-.288-.341-.757-.512-1.408-.512-.309 0-.629.08-.96.24-.33.16-.575.352-.736.576V167H64.31v-7.264h1.153l.128.72zM83.456 167h-1.072l-.16-.752c-.576.629-1.355.944-2.336.944-.746 0-1.338-.203-1.776-.608-.427-.416-.64-.976-.64-1.68 0-.8.325-1.413.976-1.84.662-.437 1.595-.656 2.8-.656h.848v-.08c0-1.109-.56-1.664-1.68-1.664-.715 0-1.381.229-2 .688l-.416-.736c.832-.715 1.787-1.072 2.864-1.072 1.728 0 2.592 1.029 2.592 3.088V167zm-1.376-3.664h-.704c-1.642 0-2.464.491-2.464 1.472 0 .405.117.725.352.96.245.235.57.352.976.352.405 0 .784-.101 1.136-.304.352-.213.587-.48.704-.8v-1.68zm5.074-2.88h.08c.544-.608 1.301-.912 2.272-.912 1.781 0 2.672 1.045 2.672 3.136V167h-1.376v-4.24c0-1.355-.597-2.032-1.792-2.032-.33 0-.667.08-1.008.24-.341.16-.592.352-.752.576V167h-1.376v-7.264h1.152l.128.72zm7.375 8.192-.32-.624c.416-.267.624-.565.624-.896v-.064a.322.322 0 0 1-.144.032.639.639 0 0 1-.48-.224.87.87 0 0 1-.192-.56c0-.245.08-.448.24-.608a.778.778 0 0 1 .592-.256c.64 0 .96.448.96 1.344 0 .416-.118.795-.352 1.136a1.878 1.878 0 0 1-.928.72zm12.123-10.16c-.726-.363-1.456-.544-2.192-.544-.523 0-.95.123-1.28.368-.331.235-.496.539-.496.912 0 .672.442 1.173 1.328 1.504 1.322.491 2.261 1.008 2.816 1.552.554.533.832 1.195.832 1.984 0 .96-.368 1.712-1.104 2.256-.598.448-1.339.672-2.224.672-1.056 0-2.155-.363-3.296-1.088l.64-.912c.714.437 1.546.656 2.496.656 1.301 0 1.952-.549 1.952-1.648 0-.853-.55-1.467-1.648-1.84-1.152-.395-1.99-.832-2.512-1.312-.512-.48-.768-1.061-.768-1.744 0-.811.314-1.461.944-1.952.576-.448 1.333-.672 2.272-.672 1.056 0 2.016.299 2.88.896l-.64.912zM115.44 167h-1.072l-.16-.752c-.576.629-1.355.944-2.336.944-.747 0-1.339-.203-1.776-.608-.427-.416-.64-.976-.64-1.68 0-.8.325-1.413.976-1.84.661-.437 1.594-.656 2.8-.656h.848v-.08c0-1.109-.56-1.664-1.68-1.664-.715 0-1.382.229-2 .688l-.416-.736c.832-.715 1.786-1.072 2.864-1.072 1.728 0 2.592 1.029 2.592 3.088V167zm-1.376-3.664h-.704c-1.643 0-2.464.491-2.464 1.472 0 .405.117.725.352.96.245.235.57.352.976.352.405 0 .784-.101 1.136-.304.352-.213.586-.48.704-.8v-1.68zm5.169-6.656V167h-1.376v-9.584l1.376-.736zm4.387 4.176-.016 4.224c0 .704.267 1.056.8 1.056.374 0 .742-.107 1.104-.32l.48.736c-.586.437-1.221.656-1.904.656-1.237 0-1.856-.677-1.856-2.032v-4.32h-1.072v-1.12h1.088v-1.488l1.376-.72v2.208h2.176v1.12h-2.176zm4.22 7.792-.32-.624c.416-.267.624-.565.624-.896v-.064a.318.318 0 0 1-.144.032.64.64 0 0 1-.48-.224.87.87 0 0 1-.192-.56c0-.245.08-.448.24-.608a.78.78 0 0 1 .592-.256c.64 0 .96.448.96 1.344 0 .416-.117.795-.352 1.136a1.875 1.875 0 0 1-.928.72zm12.827-10.48a119.91 119.91 0 0 0-4.064 6.256c-.469.768-.757 1.216-.864 1.344h5.04V167h-6.848v-1.136c1.067-1.536 2.39-3.552 3.968-6.048.651-1.035 1.024-1.605 1.12-1.712h-4.944v-1.232h6.592v1.296zm7.257 8.832h-1.072l-.16-.752c-.576.629-1.355.944-2.336.944-.747 0-1.339-.203-1.776-.608-.427-.416-.64-.976-.64-1.68 0-.8.325-1.413.976-1.84.661-.437 1.595-.656 2.8-.656h.848v-.08c0-1.109-.56-1.664-1.68-1.664-.715 0-1.381.229-2 .688l-.416-.736c.832-.715 1.787-1.072 2.864-1.072 1.728 0 2.592 1.029 2.592 3.088V167zm-1.376-3.664h-.704c-1.643 0-2.464.491-2.464 1.472 0 .405.117.725.352.96.245.235.571.352.976.352s.784-.101 1.136-.304c.352-.213.587-.48.704-.8v-1.68zm5.106-2.88h.064c.501-.608 1.088-.912 1.76-.912.853 0 1.482.331 1.888.992l-1.152.72c-.352-.352-.736-.528-1.152-.528-.534 0-.982.272-1.344.816V167h-1.376v-7.264h1.184l.128.72zm10.107-.72h1.072v10.128h-1.376v-3.632c-.48.64-1.168.96-2.064.96-1.077 0-1.925-.395-2.544-1.184-.523-.661-.784-1.493-.784-2.496 0-1.323.384-2.347 1.152-3.072.619-.597 1.371-.896 2.256-.896.427 0 .848.096 1.264.288.416.181.704.4.864.656l.16-.752zm-.304 4.976v-2.88c-.075-.331-.288-.619-.64-.864a1.856 1.856 0 0 0-1.104-.368c-.651 0-1.179.256-1.584.768s-.608 1.173-.608 1.984c0 .928.213 1.637.64 2.128.373.427.853.64 1.44.64.405 0 .784-.133 1.136-.4.363-.277.603-.613.72-1.008zM170.83 167h-1.072l-.16-.752c-.576.629-1.355.944-2.336.944-.747 0-1.339-.203-1.776-.608-.427-.416-.64-.976-.64-1.68 0-.8.325-1.413.976-1.84.661-.437 1.595-.656 2.8-.656h.848v-.08c0-1.109-.56-1.664-1.68-1.664-.715 0-1.381.229-2 .688l-.416-.736c.832-.715 1.787-1.072 2.864-1.072 1.728 0 2.592 1.029 2.592 3.088V167zm-1.376-3.664h-.704c-1.643 0-2.464.491-2.464 1.472 0 .405.117.725.352.96.245.235.571.352.976.352s.784-.101 1.136-.304c.352-.213.587-.48.704-.8v-1.68zm3.73 5.312-.32-.624c.416-.267.624-.565.624-.896v-.064a.324.324 0 0 1-.144.032.64.64 0 0 1-.48-.224.87.87 0 0 1-.192-.56c0-.245.08-.448.24-.608a.778.778 0 0 1 .592-.256c.64 0 .96.448.96 1.344 0 .416-.117.795-.352 1.136a1.88 1.88 0 0 1-.928.72zm7.147-2.416v-.032c.021-.533.304-.8.848-.8.565 0 .848.277.848.832 0 .565-.283.848-.848.848s-.848-.283-.848-.848zm4.578 0v-.032c.021-.533.304-.8.848-.8.565 0 .848.277.848.832 0 .565-.283.848-.848.848s-.848-.283-.848-.848zm4.578 0v-.032c.022-.533.304-.8.848-.8.566 0 .848.277.848.832 0 .565-.282.848-.848.848-.565 0-.848-.283-.848-.848zM61.047 91.34V104h-2.58V91.34h2.58zm5.781 4.18V104h-2.58V91.34h2.18a208.905 208.905 0 0 1 6.36 8.74v-8.74h2.62V104h-2.24c-1.253-1.48-3.366-4.307-6.34-8.48zm19.616-3.14c-.24.36-.613.9-1.12 1.62-1.067-.467-2.02-.7-2.86-.7-1.107 0-1.66.413-1.66 1.24 0 .373.127.667.38.88.253.213.78.473 1.58.78 1.44.56 2.473 1.167 3.1 1.82.64.653.96 1.44.96 2.36 0 1.293-.487 2.293-1.46 3-.8.573-1.793.86-2.98.86-1.4 0-2.893-.507-4.48-1.52l1.16-1.62c.773.52 1.767.78 2.98.78 1.373 0 2.06-.553 2.06-1.66 0-.72-.74-1.333-2.22-1.84-2.387-.8-3.58-2.08-3.58-3.84 0-1.067.4-1.913 1.2-2.54.747-.6 1.74-.9 2.98-.9 1.413 0 2.733.427 3.96 1.28zm12.643 6.3c0 3.707-1.627 5.56-4.88 5.56-3.254 0-4.88-1.853-4.88-5.56v-7.34h2.64v7.7c0 2 .746 3 2.24 3 1.52 0 2.28-1 2.28-3v-7.7h2.6v7.34zm3.208 5.32V91.36c.187-.04.714-.093 1.58-.16.867-.067 1.527-.1 1.98-.1 3.227 0 4.84 1.32 4.84 3.96 0 1.427-.58 2.64-1.74 3.64.48 1.107 1.3 2.873 2.46 5.3h-2.64c-.653-1.427-1.36-2.96-2.12-4.6-.146.027-.346.04-.6.04-.586 0-.966-.053-1.14-.16V104h-2.62zm2.62-10.66v3.82c.4.12.834.18 1.3.18 1.147 0 1.72-.76 1.72-2.28 0-1.24-.593-1.86-1.78-1.86-.68 0-1.093.047-1.24.14zm11.341-2h2.2l4.66 12.66h-2.66a89.597 89.597 0 0 1-.84-2.64h-4.54c-.187.6-.473 1.48-.86 2.64h-2.62l4.66-12.66zm1.12 3.42a477.025 477.025 0 0 0-1.54 4.44h3.04c-.627-1.84-1.127-3.32-1.5-4.44zm10.019.76V104h-2.58V91.34h2.18a209.632 209.632 0 0 1 6.36 8.74v-8.74h2.62V104h-2.24c-1.253-1.48-3.367-4.307-6.34-8.48zm20.815 7.06c-1.106 1.107-2.406 1.66-3.9 1.66-2.146 0-3.746-.8-4.8-2.4-.76-1.147-1.14-2.493-1.14-4.04 0-2.013.52-3.633 1.56-4.86 1.027-1.227 2.454-1.84 4.28-1.84 1.28 0 2.56.54 3.84 1.62l-1.02 1.66c-.96-.693-1.833-1.04-2.62-1.04-1.093 0-1.94.46-2.54 1.38-.52.787-.78 1.813-.78 3.08 0 1.12.307 2.08.92 2.88.654.84 1.527 1.26 2.62 1.26.72 0 1.574-.313 2.56-.94l1.02 1.58zm2.086-11.24h8.28v2.1h-5.66v2.98h4.72v2.1h-4.72v3.38h5.92v2.1h-8.54V91.34zm-83.384 35.24c-1.107 1.107-2.407 1.66-3.9 1.66-2.147 0-3.747-.8-4.8-2.4-.76-1.147-1.14-2.493-1.14-4.04 0-2.013.52-3.633 1.56-4.86 1.026-1.227 2.453-1.84 4.28-1.84 1.28 0 2.56.54 3.84 1.62l-1.02 1.66c-.96-.693-1.834-1.04-2.62-1.04-1.094 0-1.94.46-2.54 1.38-.52.787-.78 1.813-.78 3.08 0 1.12.306 2.08.92 2.88.653.84 1.526 1.26 2.62 1.26.72 0 1.573-.313 2.56-.94l1.02 1.58zm7.345-11.48c1.947 0 3.447.773 4.5 2.32.826 1.213 1.24 2.68 1.24 4.4 0 1.973-.54 3.553-1.62 4.74-1.027 1.12-2.4 1.68-4.12 1.68-1.974 0-3.474-.72-4.5-2.16-.827-1.133-1.24-2.553-1.24-4.26 0-2 .54-3.633 1.62-4.9 1.026-1.213 2.4-1.82 4.12-1.82zm0 10.94c.96 0 1.7-.36 2.22-1.08.52-.733.78-1.78.78-3.14 0-1.453-.287-2.587-.86-3.4-.534-.72-1.247-1.08-2.14-1.08-.96 0-1.707.393-2.24 1.18-.52.787-.78 1.887-.78 3.3 0 2.813 1.007 4.22 3.02 4.22zM89.143 125c.746-2.733 1.746-5.953 3-9.66h3.8V128h-2.64v-10.28c-.627 2.707-1.654 6.133-3.08 10.28h-2.18c-1.507-4.573-2.527-7.967-3.06-10.18V128h-2.58v-12.66h3.64c1.253 3.413 2.286 6.633 3.1 9.66zm9.998 3v-12.64c.187-.04.713-.093 1.58-.16.867-.067 1.527-.1 1.98-.1 3.227 0 4.84 1.32 4.84 3.96 0 1.64-.56 2.84-1.68 3.6-.747.52-1.627.78-2.64.78-.8 0-1.287-.053-1.46-.16V128h-2.62zm2.62-10.66v3.82c.347.133.78.2 1.3.2.533 0 .953-.187 1.26-.56.307-.387.46-.913.46-1.58 0-1.347-.593-2.02-1.78-2.02-.68 0-1.093.047-1.24.14zm10.032-2h2.2l4.66 12.66h-2.66a96.098 96.098 0 0 1-.84-2.64h-4.54c-.186.6-.473 1.48-.86 2.64h-2.62l4.66-12.66zm1.12 3.42a501.845 501.845 0 0 0-1.54 4.44h3.04c-.626-1.84-1.126-3.32-1.5-4.44zm10.019.76V128h-2.58v-12.66h2.18a209.632 209.632 0 0 1 6.36 8.74v-8.74h2.62V128h-2.24c-1.253-1.48-3.367-4.307-6.34-8.48zm14.355-4.18V128h-2.58v-12.66h2.58zm2.882 0h8.28v2.1h-5.66v2.98h4.72v2.1h-4.72v3.38h5.92v2.1h-8.54v-12.66zm18.277 1.04c-.24.36-.613.9-1.12 1.62-1.067-.467-2.02-.7-2.86-.7-1.107 0-1.66.413-1.66 1.24 0 .373.127.667.38.88.253.213.78.473 1.58.78 1.44.56 2.473 1.167 3.1 1.82.64.653.96 1.44.96 2.36 0 1.293-.487 2.293-1.46 3-.8.573-1.793.86-2.98.86-1.4 0-2.893-.507-4.48-1.52l1.16-1.62c.773.52 1.767.78 2.98.78 1.373 0 2.06-.553 2.06-1.66 0-.72-.74-1.333-2.22-1.84-2.387-.8-3.58-2.08-3.58-3.84 0-1.067.4-1.913 1.2-2.54.747-.6 1.74-.9 2.98-.9 1.413 0 2.733.427 3.96 1.28z" fill="#3D4E76"/>
    <path d="M41.267 201.032v23.027H29v99.549M187.5 324.351V224.06h-11.231V192H41.267M88.434 271.594h39.633M88.434 265.825h39.633M92.574 277.905l-.1 38.616M123.926 277.905v38.796M87.618 316.521l40.449.18" stroke="#3D4E76" stroke-width="1.224" stroke-linecap="round" stroke-linejoin="round"/>
    <path clip-rule="evenodd" d="M40.78 249.641h10.45v-10.453H40.78v10.453zM65.624 249.641h10.451v-10.453h-10.45v10.453z" stroke="#3D4E76" stroke-width="1.224" stroke-linecap="round" stroke-linejoin="round"/>
    <path fill-rule="evenodd" clip-rule="evenodd" d="M90.47 249.641h10.45v-10.453H90.47v10.453z" fill="#fff"/>
    <path clip-rule="evenodd" d="M90.47 249.641h10.45v-10.453H90.47v10.453zM140.159 249.641h10.45v-10.453h-10.45v10.453zM165.004 249.641h10.451v-10.453h-10.451v10.453zM115.314 249.641h10.451v-10.453h-10.451v10.453zM40.78 275.084h10.45v-10.453H40.78v10.453zM65.624 275.084h10.451v-10.453h-10.45v10.453zM140.159 275.084h10.45v-10.453h-10.45v10.453zM165.004 275.084h10.451v-10.453h-10.451v10.453zM40.78 300.527h10.45v-10.453H40.78v10.453zM65.624 300.527h10.451v-10.453h-10.45v10.453zM140.159 300.527h10.45v-10.453h-10.45v10.453zM165.004 300.527h10.451v-10.453h-10.451v10.453z" stroke="#3D4E76" stroke-width="1.224" stroke-linecap="round" stroke-linejoin="round"/>
    <path d="M70.338 198.339V208H68.37v-9.661h1.97zm4.412 3.19V208h-1.97v-9.661h1.664a160.017 160.017 0 0 1 4.854 6.67v-6.67h1.999V208h-1.71c-.956-1.129-2.569-3.286-4.837-6.471zm14.968-2.396c-.183.275-.468.687-.855 1.236-.814-.356-1.541-.534-2.182-.534-.845 0-1.267.315-1.267.946 0 .285.097.509.29.672.193.163.595.361 1.206.595 1.099.427 1.887.89 2.365 1.389a2.48 2.48 0 0 1 .733 1.801c0 .987-.372 1.75-1.114 2.289-.61.437-1.369.656-2.274.656-1.069 0-2.208-.386-3.419-1.16l.885-1.236c.59.397 1.348.595 2.274.595 1.048 0 1.572-.422 1.572-1.266 0-.55-.564-1.018-1.694-1.405-1.821-.61-2.732-1.587-2.732-2.93 0-.814.306-1.46.916-1.938.57-.458 1.328-.687 2.274-.687 1.079 0 2.086.326 3.022.977zm9.647 4.807c0 2.829-1.241 4.243-3.724 4.243-2.482 0-3.724-1.414-3.724-4.243v-5.601h2.015v5.876c0 1.526.57 2.289 1.71 2.289 1.16 0 1.74-.763 1.74-2.289v-5.876h1.983v5.601zm2.449 4.06v-9.645c.142-.031.544-.072 1.205-.122a21.356 21.356 0 0 1 1.511-.077c2.462 0 3.694 1.008 3.694 3.022 0 1.089-.443 2.015-1.328 2.778.366.844.992 2.192 1.877 4.044h-2.015a742.865 742.865 0 0 0-1.617-3.51c-.112.02-.265.03-.458.03-.448 0-.738-.04-.87-.122V208h-1.999zm1.999-8.134v2.915c.305.091.636.137.992.137.875 0 1.312-.58 1.312-1.74 0-.946-.452-1.419-1.358-1.419-.519 0-.834.035-.946.107zm8.654-1.527h1.679l3.556 9.661h-2.03a67.912 67.912 0 0 1-.641-2.015h-3.465c-.142.458-.361 1.13-.656 2.015h-1.999l3.556-9.661zm.855 2.61c-.285.804-.677 1.933-1.176 3.388h2.32c-.478-1.404-.86-2.533-1.144-3.388zm7.645.58V208h-1.969v-9.661h1.663a160.295 160.295 0 0 1 4.854 6.67v-6.67h1.999V208h-1.709c-.957-1.129-2.569-3.286-4.838-6.471zm15.883 5.387c-.844.845-1.836 1.267-2.976 1.267-1.638 0-2.859-.61-3.662-1.831-.58-.875-.87-1.903-.87-3.083 0-1.536.397-2.773 1.19-3.709.784-.936 1.872-1.404 3.266-1.404.977 0 1.954.412 2.93 1.236l-.778 1.267c-.733-.529-1.399-.793-1.999-.793-.835 0-1.481.351-1.938 1.053-.397.6-.596 1.383-.596 2.35 0 .855.234 1.587.702 2.198.499.641 1.165.961 2 .961.549 0 1.2-.239 1.953-.717l.778 1.205zm1.592-8.577h6.318v1.603h-4.319v2.274h3.602v1.602h-3.602v2.58h4.517V208h-6.516v-9.661zm-56.013 22.577c-.845.845-1.837 1.267-2.976 1.267-1.638 0-2.86-.61-3.663-1.831-.58-.875-.87-1.903-.87-3.083 0-1.536.397-2.773 1.19-3.709.784-.936 1.873-1.404 3.267-1.404.976 0 1.953.412 2.93 1.236l-.779 1.267c-.732-.529-1.399-.793-1.999-.793-.834 0-1.48.351-1.938 1.053-.397.6-.595 1.383-.595 2.35 0 .855.234 1.587.702 2.198.498.641 1.165.961 2 .961.549 0 1.2-.239 1.953-.717l.778 1.205zm5.605-8.76c1.485 0 2.63.59 3.434 1.771.63.925.946 2.045.946 3.357 0 1.506-.412 2.712-1.236 3.617-.784.855-1.831 1.282-3.144 1.282-1.506 0-2.65-.549-3.434-1.648-.63-.865-.946-1.949-.946-3.251 0-1.526.412-2.772 1.236-3.739.784-.926 1.832-1.389 3.144-1.389zm0 8.348c.732 0 1.297-.274 1.694-.824.397-.559.595-1.358.595-2.396 0-1.109-.218-1.974-.656-2.594-.407-.55-.951-.824-1.633-.824-.733 0-1.302.3-1.71.9-.396.6-.594 1.44-.594 2.518 0 2.147.768 3.22 2.304 3.22zm11.36-.793c.569-2.086 1.332-4.543 2.288-7.372h2.9V222h-2.014v-7.844c-.479 2.065-1.262 4.68-2.351 7.844h-1.663c-1.15-3.49-1.928-6.079-2.335-7.768V222H94.25v-9.661h2.778a86.943 86.943 0 0 1 2.365 7.372zm7.629 2.289v-9.645c.142-.031.544-.072 1.205-.122a21.356 21.356 0 0 1 1.511-.077c2.462 0 3.693 1.008 3.693 3.022 0 1.252-.427 2.167-1.282 2.747-.569.397-1.241.595-2.014.595-.61 0-.982-.04-1.114-.122V222h-1.999zm1.999-8.134v2.915c.264.101.595.152.992.152.407 0 .727-.142.961-.427.234-.295.351-.697.351-1.206 0-1.027-.452-1.541-1.358-1.541-.519 0-.834.035-.946.107zm7.655-1.527h1.679l3.556 9.661h-2.03a71.038 71.038 0 0 1-.641-2.015h-3.464c-.143.458-.361 1.13-.656 2.015h-2l3.556-9.661zm.855 2.61c-.285.804-.677 1.933-1.175 3.388h2.319a581.352 581.352 0 0 1-1.144-3.388zm7.645.58V222h-1.969v-9.661h1.664a160.29 160.29 0 0 1 4.853 6.67v-6.67h1.999V222h-1.709c-.956-1.129-2.569-3.286-4.838-6.471zm7.841-3.19h2.152c.712 1.445 1.434 2.89 2.167 4.335l2.121-4.335h2.152l-3.281 5.846V222h-1.999v-3.815c-1.16-2.035-2.264-3.984-3.312-5.846z" fill="#01B8B6"/>
    <defs>
        <linearGradient id="qjabvyyffa" x1="72.001" y1="80" x2="144" y2="80" gradientUnits="userSpaceOnUse">
            <stop stop-color="#FDBC11"/>
            <stop offset="1" stop-color="#F6931D"/>
        </linearGradient>
    </defs>
</svg>
