<svg width="343" height="232" viewBox="0 0 343 232" fill="none" xmlns="http://www.w3.org/2000/svg">
    <g clip-path="url(#tm6ii8t2ta)">
        <rect width="343" height="231.492" rx="7" fill="#fff" stroke="#E9E9E9" stroke-width="1.4"/>
        <mask id="gjjozwoumb" style="mask-type:luminance" maskUnits="userSpaceOnUse" x="-1" y="-1" width="345" height="234">
            <rect width="343" height="231.492" rx="7" fill="#fff" stroke="#fff" stroke-width="1.4"/>
        </mask>
        <g mask="url(#gjjozwoumb)">
            <path d="M258.7 42.385h-4.74v-3h4.74v-5.34h3.51v5.34h4.77v3h-4.77v5.28h-3.51v-5.28zm17.911-13.71v18.99h-3.93v-14.52c-.28.18-.69.43-1.23.75-.78.46-1.34.81-1.68 1.05-.26-.44-.7-1.17-1.32-2.19l-.18-.27c-.14-.26-.25-.45-.33-.57.64-.46 1.65-1.15 3.03-2.07.72-.48 1.29-.87 1.71-1.17h3.93zm10.805-.36c2.32 0 4.18 1.11 5.58 3.33 1.18 1.84 1.77 4.03 1.77 6.57 0 3.06-.75 5.51-2.25 7.35-1.32 1.64-3.02 2.46-5.1 2.46-2.38 0-4.24-1.06-5.58-3.18-1.12-1.76-1.68-3.97-1.68-6.63 0-2.96.74-5.39 2.22-7.29 1.34-1.74 3.02-2.61 5.04-2.61zm.06 3.36c-2.16 0-3.24 2.12-3.24 6.36 0 2.14.31 3.82.93 5.04.56 1.1 1.3 1.65 2.22 1.65 1.02 0 1.82-.59 2.4-1.77.6-1.2.9-2.84.9-4.92 0-4.24-1.07-6.36-3.21-6.36z" fill="url(#nhyuz4z3ec)"/>
        </g>
        <g clip-path="url(#lxku7gf6sd)">
            <path d="M53.257 43.704V66.09H40.883v96.781M198.754 150.012v-82.92h-11.328V35.922H51.256" stroke="#3D4E76" stroke-width="1.235" stroke-linecap="round" stroke-linejoin="round"/>
            <path d="M87.981 52.352c-.503 0-.754-.257-.754-.77 0-.503.251-.755.754-.755.493 0 .74.252.74.755 0 .513-.247.77-.74.77zm5.622 5.698h1.016v1.247h-1.17c-.534 0-.996-.108-1.386-.323-.124 1.047-.58 1.863-1.371 2.448-.708.534-1.586.801-2.633.801-1.335 0-2.372-.472-3.111-1.417-.565-.729-.847-1.591-.847-2.587 0-.862.215-1.601.647-2.217l1.278-.278a4.32 4.32 0 0 0-.693 2.357c0 .862.267 1.57.8 2.125.504.513 1.145.77 1.925.77.904 0 1.602-.262 2.095-.786.41-.441.616-1.016.616-1.724v-5.144l1.324-.708v3.896c0 1.026.503 1.54 1.51 1.54zm5.446 0h1.016v1.247h-1.17c-.852 0-1.525-.272-2.018-.816-.492.544-1.165.816-2.017.816h-1.17V58.05h1.016c1.006 0 1.51-.514 1.51-1.54v-3.188l1.324-.708v3.896c0 1.026.503 1.54 1.509 1.54zm-3.68 2.787c.492 0 .738.257.738.77 0 .503-.246.755-.739.755-.503 0-.754-.252-.754-.755 0-.513.251-.77.754-.77zm1.955 0c.493 0 .74.257.74.77 0 .503-.247.755-.74.755-.503 0-.755-.252-.755-.755 0-.513.252-.77.755-.77zm4.335-5.713c0-.893.267-1.586.801-2.08.472-.42 1.088-.63 1.848-.63.975 0 1.725.359 2.249 1.077.451.606.677 1.397.677 2.372 0 1.109-.287 1.976-.862 2.603-.503.554-1.16.831-1.971.831-.924 0-1.628-.256-2.11-.77-.493.514-1.155.77-1.987.77h-1.17V58.05h1.016c1.006 0 1.509-.514 1.509-1.54v-1.386zm1.325 1.494c0 .954.467 1.432 1.401 1.432.483 0 .857-.195 1.124-.585.278-.39.416-.935.416-1.633 0-.688-.144-1.222-.431-1.601-.288-.39-.683-.586-1.186-.586-.883 0-1.324.514-1.324 1.54v1.433zm5.979-7.47.355-.662h.415a1.195 1.195 0 0 1-.154-.585c0-.298.113-.554.339-.77.226-.226.488-.339.786-.339.256 0 .503.082.739.247v.677c-.216-.174-.431-.261-.647-.261-.38 0-.57.174-.57.523 0 .164.077.334.231.508h1.402l-.355.663h-2.541zm3.496 10.15c-.893 0-1.581-.288-2.063-.863-.411-.493-.616-1.12-.616-1.879v-5.867l1.324-.709v6.53c0 1.026.503 1.54 1.509 1.54h1.017v1.247h-1.171zm1.426-8.548c-.503 0-.755-.257-.755-.77 0-.503.252-.754.755-.754.493 0 .739.251.739.754 0 .514-.246.77-.739.77zm1.956 0c-.504 0-.755-.257-.755-.77 0-.503.251-.754.755-.754.492 0 .739.251.739.754 0 .514-.247.77-.739.77zm-3.142 8.547V58.05h1.016c1.006 0 1.51-.514 1.51-1.54v-3.188l1.324-.708v3.942c0 .873-.262 1.56-.785 2.064-.483.451-1.114.677-1.895.677h-1.17zm11.549-8.7c-.503 0-.754-.258-.754-.77 0-.504.251-.755.754-.755.493 0 .74.251.74.754 0 .514-.247.77-.74.77zm1.956 0c-.503 0-.754-.258-.754-.77 0-.504.251-.755.754-.755.493 0 .739.251.739.754 0 .514-.246.77-.739.77zm2.865 7.453h1.016v1.247h-1.17c-1.058 0-1.818-.39-2.28-1.17-.492.472-1.103.708-1.832.708-.904 0-1.622-.339-2.156-1.016-.442-.575-.662-1.278-.662-2.11 0-.996.303-1.797.908-2.402a2.533 2.533 0 0 1 1.879-.786c.565 0 1.052.144 1.463.431v-.662l1.34-.708v4.928c0 1.026.498 1.54 1.494 1.54zm-2.834-3.665a1.814 1.814 0 0 0-1.401-.632c-.452 0-.822.185-1.109.555-.288.359-.431.831-.431 1.416 0 .596.143 1.073.431 1.433.287.359.662.539 1.124.539.575 0 1.047-.237 1.417-.709a4.055 4.055 0 0 1-.031-.431v-2.171zm5.966-1.602h.092c1.16 0 2.099.36 2.818 1.078.657.647.986 1.473.986 2.48v.261c0 .883-.272 1.571-.816 2.064-.483.42-1.104.631-1.864.631h-4.25V58.05h4.127c.986 0 1.478-.519 1.478-1.556v-.138c0-.76-.297-1.345-.893-1.756-.472-.318-1.047-.477-1.725-.477-.544 0-1.093.097-1.647.292v-1.309l3.372-3.742h1.355l-3.033 3.419zm9.986 5.267h1.016v1.247h-1.17c-.524 0-.975-.102-1.355-.308-.093 1.017-.447 1.828-1.063 2.433-.565.555-1.273.832-2.125.832a3.825 3.825 0 0 1-1.802-.462v-1.155c.524.287 1.047.431 1.571.431.657 0 1.17-.22 1.54-.662.37-.441.554-1.052.554-1.833v-5.251l1.325-.708v.015l.015-.015v4.204c.093.821.59 1.232 1.494 1.232zm8.564-8.717c-.452 0-.678-.23-.678-.693 0-.451.226-.677.678-.677.452 0 .677.226.677.677 0 .462-.225.693-.677.693zm-.97 1.833c-.503 0-.755-.257-.755-.77 0-.503.252-.755.755-.755.492 0 .739.252.739.755 0 .513-.247.77-.739.77zm1.955 0c-.503 0-.754-.257-.754-.77 0-.503.251-.755.754-.755.493 0 .74.252.74.755 0 .513-.247.77-.74.77zm-9.455 8.131V58.05h1.386c.996 0 1.494-.514 1.494-1.54v-2.156l1.324-.709v2.865c0 1.026.503 1.54 1.509 1.54h.709c1.006 0 1.509-.514 1.509-1.54v-2.68l1.324-.693v3.373c0 1.026.498 1.54 1.494 1.54h.724c1.006 0 1.509-.514 1.509-1.54v-3.188l1.324-.708v3.942c0 .873-.261 1.555-.785 2.048-.462.452-1.078.683-1.848.693h-1.063c-.903 0-1.576-.303-2.017-.908-.441.595-1.099.898-1.971.908h-1.063c-.883 0-1.555-.303-2.017-.908-.442.605-1.114.908-2.018.908h-1.524z" fill="#01B8B6"/>
            <path d="M99.831 112.304h39.976M99.831 106.695h39.976M104.008 118.44l-.101 37.542M135.631 118.44v37.717M99.009 155.982l40.798.175" stroke="#3D4E76" stroke-width="1.235" stroke-linecap="round" stroke-linejoin="round"/>
            <path clip-rule="evenodd" d="M51.765 90.962h10.54V80.799h-10.54v10.163zM76.825 90.962h10.54V80.799h-10.54v10.163z" stroke="#3D4E76" stroke-width="1.235" stroke-linecap="round" stroke-linejoin="round"/>
            <path fill-rule="evenodd" clip-rule="evenodd" d="M101.884 90.962h10.541V80.799h-10.541v10.163z" fill="#fff"/>
            <path clip-rule="evenodd" d="M101.884 90.962h10.541V80.799h-10.541v10.163zM152.004 90.962h10.541V80.799h-10.541v10.163zM177.063 90.962h10.541V80.799h-10.541v10.163zM126.944 90.962h10.541V80.799h-10.541v10.163zM51.765 115.698h10.54v-10.163h-10.54v10.163zM76.825 115.698h10.54v-10.163h-10.54v10.163zM152.004 115.698h10.541v-10.163h-10.541v10.163zM177.063 115.698h10.541v-10.163h-10.541v10.163zM51.765 140.433h10.54v-10.162h-10.54v10.162zM76.825 140.433h10.54v-10.162h-10.54v10.162zM152.004 140.433h10.541v-10.162h-10.541v10.162zM177.063 140.433h10.541v-10.162h-10.541v10.162z" stroke="#3D4E76" stroke-width="1.235" stroke-linecap="round" stroke-linejoin="round"/>
        </g>
        <path d="M240.215 60.202c-.523 0-.784-.267-.784-.8 0-.523.261-.784.784-.784.512 0 .768.261.768.784 0 .533-.256.8-.768.8zm5.84 5.92h1.056v1.296h-1.216c-.555 0-1.035-.112-1.44-.336-.128 1.088-.603 1.936-1.424 2.544-.736.555-1.648.832-2.736.832-1.387 0-2.464-.49-3.233-1.472-.586-.757-.879-1.653-.879-2.688 0-.896.224-1.664.672-2.304l1.328-.288a4.49 4.49 0 0 0-.72 2.448c0 .896.277 1.632.832 2.208.522.533 1.189.8 2 .8.938 0 1.664-.272 2.176-.816.426-.459.64-1.056.64-1.792V61.21l1.376-.736v4.048c0 1.067.522 1.6 1.568 1.6zm5.658 0h1.056v1.296h-1.216c-.885 0-1.584-.283-2.096-.848-.512.565-1.211.848-2.096.848h-1.216v-1.296h1.056c1.045 0 1.568-.533 1.568-1.6V61.21l1.376-.736v4.048c0 1.067.523 1.6 1.568 1.6zm-3.824 2.896c.512 0 .768.267.768.8 0 .523-.256.784-.768.784-.523 0-.784-.261-.784-.784 0-.533.261-.8.784-.8zm2.032 0c.512 0 .768.267.768.8 0 .523-.256.784-.768.784-.523 0-.784-.261-.784-.784 0-.533.261-.8.784-.8zm4.504-5.936c0-.928.278-1.648.832-2.16.491-.437 1.131-.656 1.92-.656 1.014 0 1.792.373 2.336 1.12.47.63.704 1.45.704 2.464 0 1.152-.298 2.053-.896 2.704-.522.576-1.205.864-2.048.864-.96 0-1.69-.267-2.192-.8-.512.533-1.2.8-2.064.8h-1.216v-1.296h1.056c1.046 0 1.568-.533 1.568-1.6v-1.44zm1.376 1.552c0 .992.486 1.488 1.456 1.488.502 0 .891-.203 1.168-.608.288-.405.432-.97.432-1.696 0-.715-.149-1.27-.448-1.664-.298-.405-.709-.608-1.232-.608-.917 0-1.376.533-1.376 1.6v1.488zm6.213-7.76.368-.688h.432a1.23 1.23 0 0 1-.16-.608c0-.31.117-.576.352-.8a1.12 1.12 0 0 1 .816-.352c.267 0 .523.085.768.256v.704c-.224-.181-.448-.272-.672-.272-.395 0-.592.181-.592.544 0 .17.08.347.24.528h1.456l-.368.688h-2.64zm3.632 10.544c-.928 0-1.643-.299-2.144-.896-.427-.512-.64-1.163-.64-1.952v-6.096l1.376-.736v6.784c0 1.067.523 1.6 1.568 1.6h1.056v1.296h-1.216zm1.481-8.88c-.523 0-.784-.267-.784-.8 0-.523.261-.784.784-.784.512 0 .768.261.768.784 0 .533-.256.8-.768.8zm2.032 0c-.523 0-.784-.267-.784-.8 0-.523.261-.784.784-.784.512 0 .768.261.768.784 0 .533-.256.8-.768.8zm-3.264 8.88v-1.296h1.056c1.045 0 1.568-.533 1.568-1.6V61.21l1.376-.736v4.096c0 .907-.272 1.621-.816 2.144-.501.47-1.157.704-1.968.704h-1.216zm12-9.04c-.523 0-.784-.267-.784-.8 0-.523.261-.784.784-.784.512 0 .768.261.768.784 0 .533-.256.8-.768.8zm2.032 0c-.523 0-.784-.267-.784-.8 0-.523.261-.784.784-.784.512 0 .768.261.768.784 0 .533-.256.8-.768.8zm2.976 7.744h1.056v1.296h-1.216c-1.099 0-1.888-.405-2.368-1.216-.512.49-1.147.736-1.904.736-.939 0-1.686-.352-2.24-1.056-.459-.597-.688-1.328-.688-2.192 0-1.035.314-1.867.944-2.496a2.63 2.63 0 0 1 1.952-.816c.586 0 1.093.15 1.52.448v-.688l1.392-.736v5.12c0 1.067.517 1.6 1.552 1.6zm-2.944-3.808a1.885 1.885 0 0 0-1.456-.656c-.47 0-.854.192-1.152.576-.299.373-.448.864-.448 1.472 0 .619.149 1.115.448 1.488.298.373.688.56 1.168.56.597 0 1.088-.245 1.472-.736a4.154 4.154 0 0 1-.032-.448v-2.256zm6.197-1.664h.096c1.206 0 2.182.373 2.928 1.12.683.672 1.024 1.53 1.024 2.576v.272c0 .917-.282 1.632-.848 2.144-.501.437-1.146.656-1.936.656h-4.416v-1.296h4.288c1.024 0 1.536-.539 1.536-1.616v-.144c0-.79-.309-1.397-.928-1.824-.49-.33-1.088-.496-1.792-.496-.565 0-1.136.101-1.712.304v-1.36l3.504-3.888h1.408l-3.152 3.552zm10.376 5.472h1.056v1.296h-1.216c-.544 0-1.013-.107-1.408-.32-.096 1.056-.464 1.899-1.104 2.528-.587.576-1.323.864-2.208.864-.64 0-1.264-.16-1.872-.48v-1.2c.544.299 1.088.448 1.632.448.683 0 1.216-.23 1.6-.688.384-.459.576-1.093.576-1.904V61.21l1.376-.736v.016l.016-.016v4.368c.096.853.613 1.28 1.552 1.28zm8.897-9.056c-.469 0-.704-.24-.704-.72 0-.47.235-.704.704-.704.47 0 .704.235.704.704 0 .48-.234.72-.704.72zm-1.008 1.904c-.522 0-.784-.267-.784-.8 0-.523.262-.784.784-.784.512 0 .768.261.768.784 0 .533-.256.8-.768.8zm2.032 0c-.522 0-.784-.267-.784-.8 0-.523.262-.784.784-.784.512 0 .768.261.768.784 0 .533-.256.8-.768.8zm-9.824 8.448v-1.296h1.44c1.035 0 1.552-.533 1.552-1.6v-2.24l1.376-.736v2.976c0 1.067.523 1.6 1.568 1.6h.736c1.046 0 1.568-.533 1.568-1.6v-2.784l1.376-.72v3.504c0 1.067.518 1.6 1.552 1.6h.752c1.046 0 1.568-.533 1.568-1.6V61.21l1.376-.736v4.096c0 .907-.272 1.616-.816 2.128-.48.47-1.12.71-1.92.72h-1.104c-.938 0-1.637-.315-2.096-.944-.458.619-1.141.933-2.048.944h-1.104c-.917 0-1.616-.315-2.096-.944-.458.63-1.157.944-2.096.944h-1.584zM98.941 200.378c-.522 0-.784-.267-.784-.8 0-.523.262-.784.784-.784.512 0 .768.261.768.784 0 .533-.256.8-.768.8zm2.032 0c-.522 0-.784-.267-.784-.8 0-.523.262-.784.784-.784.512 0 .768.261.768.784 0 .533-.256.8-.768.8zm2.976 7.744h1.056v1.296h-1.216c-1.098 0-1.888-.405-2.368-1.216-.512.491-1.146.736-1.904.736-.938 0-1.685-.352-2.24-1.056-.458-.597-.688-1.328-.688-2.192 0-1.035.315-1.867.944-2.496a2.63 2.63 0 0 1 1.952-.816c.587 0 1.094.149 1.52.448v-.688l1.392-.736v5.12c0 1.067.518 1.6 1.552 1.6zm-2.944-3.808a1.885 1.885 0 0 0-1.456-.656c-.469 0-.853.192-1.152.576-.298.373-.448.864-.448 1.472 0 .619.15 1.115.448 1.488.299.373.688.56 1.168.56.598 0 1.088-.245 1.472-.736a4.425 4.425 0 0 1-.032-.448v-2.256zm11.798 3.808h.912v1.296h-1.056c-.896 0-1.594-.277-2.096-.832-.501.555-1.2.832-2.096.832h-4.416v-1.296h4.288c1.024 0 1.536-.539 1.536-1.616v-.144c0-.8-.309-1.408-.928-1.824-.49-.341-1.093-.512-1.808-.512-.565 0-1.13.107-1.696.32v-1.36l3.504-3.888h1.408l-3.152 3.552h.096c1.216 0 2.198.368 2.944 1.104.672.683 1.008 1.547 1.008 2.592v.176c0 1.067.518 1.6 1.552 1.6zm5.407 0h1.056v1.296h-1.216c-.917 0-1.626-.293-2.128-.88-.533.587-1.269.88-2.208.88h-.96v-1.296h.848c1.11 0 1.664-.581 1.664-1.744v-6.544l1.392-.736v7.296c0 .619.118 1.061.352 1.328.246.267.646.4 1.2.4zm10.395 0h1.072v1.296h-1.216c-.885 0-1.584-.283-2.096-.848-.544.779-1.338 1.168-2.384 1.168-1.045 0-1.834-.384-2.368-1.152-.501.555-1.2.832-2.096.832h-1.216v-1.296h1.056c1.046 0 1.568-.533 1.568-1.6v-.528c0-1.237.304-2.187.912-2.848.534-.587 1.248-.88 2.144-.88 1.024 0 1.814.379 2.368 1.136.47.651.704 1.515.704 2.592v.528c0 1.067.518 1.6 1.552 1.6zm-4.624.32c.523 0 .934-.219 1.232-.656.31-.437.464-1.04.464-1.808 0-1.621-.565-2.432-1.696-2.432-1.12 0-1.68.811-1.68 2.432 0 1.643.56 2.464 1.68 2.464zm15.046-.32h1.072v1.296h-1.216c-.885 0-1.584-.283-2.096-.848-.544.779-1.339 1.168-2.384 1.168s-1.835-.384-2.368-1.152c-.501.555-1.2.832-2.096.832h-1.216v-1.296h1.056c1.045 0 1.568-.533 1.568-1.6v-.528c0-1.237.304-2.187.912-2.848.533-.587 1.248-.88 2.144-.88 1.024 0 1.813.379 2.368 1.136.469.651.704 1.515.704 2.592v.528c0 1.067.517 1.6 1.552 1.6zm-4.624.32c.523 0 .933-.219 1.232-.656.309-.437.464-1.04.464-1.808 0-1.621-.565-2.432-1.696-2.432-1.12 0-1.68.811-1.68 2.432 0 1.643.56 2.464 1.68 2.464zm4.742.976v-1.296h.848c1.109 0 1.664-.581 1.664-1.744v-6.544l1.392-.736v7.296c0 .949-.283 1.701-.848 2.256-.533.512-1.232.768-2.096.768h-.96zm6.779 0v-9.584l1.376-.736v10.32h-1.376zm7.105.928v-1.328c.384-.288.912-.496 1.584-.624-.48-.725-.72-1.493-.72-2.304 0-1.013.293-1.829.88-2.448.533-.576 1.226-.864 2.08-.864.928 0 1.696.373 2.304 1.12v1.328c-.683-.789-1.43-1.184-2.24-1.184-.502 0-.902.181-1.2.544-.299.352-.448.832-.448 1.44 0 .875.304 1.6.912 2.176.277-.021.474-.032.592-.032 1.365-.043 2.448-.357 3.248-.944v1.28c-.907.608-2.091.912-3.552.912-1.43 0-2.576.309-3.44.928zm12.023-.928c-.928 0-1.643-.299-2.144-.896-.427-.512-.64-1.163-.64-1.952v-6.736l1.376-.736v7.424c0 1.067.523 1.6 1.568 1.6h1.056v1.296h-1.216zm10.681-1.296h1.04v1.296h-1.056c-.864 0-1.557-.096-2.08-.288-.522-.203-1.008-.555-1.456-1.056-1.344.896-2.912 1.344-4.704 1.344h-2.176v-1.296h2.192c2.166 0 3.878-.715 5.136-2.144-.885-1.632-1.962-2.448-3.232-2.448-.864 0-1.754.459-2.672 1.376v-1.28c.896-.907 1.846-1.36 2.848-1.36.822 0 1.616.299 2.384.896.768.587 1.446 1.429 2.032 2.528v.704c-.33.416-.645.752-.944 1.008.576.48 1.472.72 2.688.72zm3.348-7.584c-.523 0-.784-.267-.784-.8 0-.523.261-.784.784-.784.512 0 .768.261.768.784 0 .533-.256.8-.768.8zm-3.264 8.88v-1.296h1.056c1.045 0 1.568-.533 1.568-1.6v-3.312l1.376-.736v4.096c0 .907-.272 1.621-.816 2.144-.501.469-1.157.704-1.968.704h-1.216zm6.025-10.544.368-.688h.432a1.2 1.2 0 0 1-.16-.592c0-.32.117-.592.352-.816.235-.235.512-.352.832-.352.267 0 .523.085.768.256v.704c-.235-.181-.459-.272-.672-.272-.395 0-.592.176-.592.528 0 .181.075.363.224.544h1.456l-.368.688h-2.64zm.848 10.544v-8.944l1.376-.736v9.68h-1.376zm11.568-.384c-1.013.608-1.626 1.024-1.84 1.248-.426.416-.64.933-.64 1.552 0 .683.235 1.232.704 1.648.47.427 1.078.64 1.824.64 1.174-.011 2.155-.293 2.944-.848v1.296a5.627 5.627 0 0 1-3.008.848c-1.184 0-2.133-.389-2.848-1.168-.618-.661-.928-1.477-.928-2.448 0-.725.192-1.344.576-1.856.384-.501 1.062-1.029 2.032-1.584-.874-.64-1.77-1.643-2.688-3.008v-.704c.523-.747 1.136-1.328 1.84-1.744.704-.427 1.419-.64 2.144-.64.715 0 1.43.219 2.144.656.715.427 1.328 1.013 1.84 1.76v.672c-.544.821-1.445 1.733-2.704 2.736.235.021.422.032.56.032h4.224l.016 1.296h-4.352a4.631 4.631 0 0 1-1.84-.384zm-2.592-4.016c.96 1.312 1.835 2.181 2.624 2.608a12.258 12.258 0 0 0 2.784-2.64c-.789-.96-1.69-1.445-2.704-1.456-1.024 0-1.925.496-2.704 1.488zm13.391 3.104h1.056v1.296h-1.216c-.886 0-1.584-.283-2.096-.848-.512.565-1.211.848-2.096.848h-1.216v-1.296h1.056c1.045 0 1.568-.533 1.568-1.6v-3.312l1.376-.736v4.048c0 1.067.522 1.6 1.568 1.6zm-3.824 2.896c.512 0 .768.267.768.8 0 .523-.256.784-.768.784-.523 0-.784-.261-.784-.784 0-.533.261-.8.784-.8zm2.032 0c.512 0 .768.267.768.8 0 .523-.256.784-.768.784-.523 0-.784-.261-.784-.784 0-.533.261-.8.784-.8zm12.184-2.896h1.072v1.296h-1.216c-.885 0-1.584-.283-2.096-.848-.544.779-1.339 1.168-2.384 1.168s-1.835-.384-2.368-1.152c-.501.555-1.2.832-2.096.832h-1.216v-1.296h1.056c1.045 0 1.568-.533 1.568-1.6v-.528c0-1.237.304-2.187.912-2.848.533-.587 1.248-.88 2.144-.88 1.024 0 1.813.379 2.368 1.136.469.651.704 1.515.704 2.592v.528c0 1.067.517 1.6 1.552 1.6zm-4.624.32c.523 0 .933-.219 1.232-.656.309-.437.464-1.04.464-1.808 0-1.621-.565-2.432-1.696-2.432-1.12 0-1.68.811-1.68 2.432 0 1.643.56 2.464 1.68 2.464zm4.742.976v-1.296h2.192c2.165 0 3.877-.715 5.136-2.144-.885-1.632-1.963-2.448-3.232-2.448-.864 0-1.755.459-2.672 1.376v-1.28c.896-.907 1.845-1.36 2.848-1.36.821 0 1.616.299 2.384.896.768.587 1.445 1.429 2.032 2.528v.704c-1.568 2.016-3.739 3.024-6.512 3.024h-2.176zm4.688 3.184c-.523 0-.784-.267-.784-.8 0-.523.261-.784.784-.784.512 0 .768.261.768.784 0 .533-.256.8-.768.8zm19.214-3.184c-.107.939-.619 1.691-1.536 2.256-.853.523-1.941.784-3.264.784-1.685 0-2.955-.491-3.808-1.472-.629-.725-.944-1.621-.944-2.688 0-.896.224-1.664.672-2.304l1.328-.288a4.488 4.488 0 0 0-.72 2.448c0 .949.309 1.696.928 2.24.608.544 1.456.816 2.544.816.917 0 1.675-.16 2.272-.48.597-.32.96-.757 1.088-1.312h-1.6l.672-1.296h2.416v1.296h-.048zm-5.872 5.872c-.523 0-.784-.267-.784-.8 0-.523.261-.784.784-.784.512 0 .768.261.768.784 0 .533-.256.8-.768.8zm2.032 0c-.523 0-.784-.267-.784-.8 0-.523.261-.784.784-.784.512 0 .768.261.768.784 0 .533-.256.8-.768.8zm8.263-14.656c-.522 0-.784-.267-.784-.8 0-.523.262-.784.784-.784.512 0 .768.261.768.784 0 .533-.256.8-.768.8zm-5.216 8.784v-1.296h2.88c-.49-.544-.736-1.301-.736-2.272 0-1.163.304-2.069.912-2.72.534-.576 1.243-.864 2.128-.864.907 0 1.611.283 2.112.848.427.501.64 1.157.64 1.968v1.52c-.01.885-.272 1.584-.784 2.096-.501.48-1.168.72-2 .72h-5.152zm6.56-4.272c0-1.067-.458-1.6-1.376-1.6-.522 0-.933.203-1.232.608-.298.395-.448.949-.448 1.664 0 .704.144 1.264.432 1.68.288.416.672.624 1.152.624.982 0 1.472-.512 1.472-1.536v-1.44z" fill="#3D4E76"/>
        <path d="M345.589-128.395a150.442 150.442 0 0 1 60.648-12.717c86.175 0 156.038 72.472 156.038 161.867 0 89.398-69.863 161.867-156.038 161.867-57.752 0-108.063-32.636-135.045-81.019-41.362 49.542-102.309 81.019-170.448 81.019-47.463 0-91.45-15.273-127.786-41.243-30.913 25.753-70.112 41.243-112.855 41.243-99.67 0-180.477-83.819-180.477-187.215 0-103.405 80.807-187.223 180.477-187.223 18.903 0 37.122 3.043 54.242 8.631 40.621-61.706 108.935-102.242 186.399-102.242 48.849 0 94.023 16.13 130.899 43.529" stroke="url(#j6gseyb15e)" stroke-width="1.935" stroke-linecap="round" stroke-linejoin="round"/>
    </g>
    <defs>
        <linearGradient id="nhyuz4z3ec" x1="253" y1="53.665" x2="296" y2="53.665" gradientUnits="userSpaceOnUse">
            <stop stop-color="#FDBC11"/>
            <stop offset="1" stop-color="#F6931D"/>
        </linearGradient>
        <linearGradient id="j6gseyb15e" x1="542.114" y1="-83.771" x2="-266.258" y2="-145.705" gradientUnits="userSpaceOnUse">
            <stop stop-color="#1C6FC4"/>
            <stop offset="1" stop-color="#01B8B6"/>
        </linearGradient>
        <clipPath id="tm6ii8t2ta">
            <path fill="#fff" d="M0 0h343v231.492H0z"/>
        </clipPath>
        <clipPath id="lxku7gf6sd">
            <path fill="#fff" transform="translate(39.883 34.923)" d="M0 0h159.871v127.949H0z"/>
        </clipPath>
    </defs>
</svg>
