<svg width="191" height="340" viewBox="0 0 191 340" fill="none" xmlns="http://www.w3.org/2000/svg">
    <rect x="1" y=".5" width="189" height="339" rx="3.5" fill="#fff" stroke="#EDEDED"/>
    <path d="M80.79 40.072h-4.423v-2.8h4.424v-4.984h3.276v4.984h4.452v2.8h-4.452V45H80.79v-4.928zm16.718-12.796V45H93.84V31.448c-.261.168-.644.401-1.148.7-.728.43-1.25.756-1.568.98-.243-.41-.653-1.092-1.232-2.044l-.168-.252a7.184 7.184 0 0 0-.308-.532c.597-.43 1.54-1.073 2.828-1.932a63.038 63.038 0 0 0 1.596-1.092h3.668zm10.084-.336c2.165 0 3.901 1.036 5.208 3.108 1.101 1.717 1.652 3.761 1.652 6.132 0 2.856-.7 5.143-2.1 6.86-1.232 1.53-2.819 2.296-4.76 2.296-2.221 0-3.957-.99-5.208-2.968-1.045-1.643-1.568-3.705-1.568-6.188 0-2.763.691-5.03 2.072-6.804 1.251-1.624 2.819-2.436 4.704-2.436zm.056 3.136c-2.016 0-3.024 1.979-3.024 5.936 0 1.997.289 3.565.868 4.704.523 1.027 1.213 1.54 2.072 1.54.952 0 1.699-.55 2.24-1.652.56-1.12.84-2.65.84-4.592 0-3.957-.999-5.936-2.996-5.936z" fill="url(#v1nxz2l66a)"/>
    <path d="M22.441 157.96c-.522 0-.784-.267-.784-.8 0-.523.262-.784.784-.784.512 0 .768.261.768.784 0 .533-.256.8-.768.8zm2.032 0c-.522 0-.784-.267-.784-.8 0-.523.262-.784.784-.784.512 0 .768.261.768.784 0 .533-.256.8-.768.8zm2.976 7.744h1.056V167H27.29c-1.098 0-1.888-.405-2.368-1.216-.512.491-1.146.736-1.904.736-.938 0-1.685-.352-2.24-1.056-.458-.597-.688-1.328-.688-2.192 0-1.035.315-1.867.944-2.496a2.63 2.63 0 0 1 1.952-.816c.587 0 1.094.149 1.52.448v-.688l1.392-.736v5.12c0 1.067.518 1.6 1.552 1.6zm-2.944-3.808a1.886 1.886 0 0 0-1.456-.656c-.469 0-.853.192-1.152.576-.298.373-.448.864-.448 1.472 0 .619.15 1.115.448 1.488.299.373.688.56 1.168.56.598 0 1.088-.245 1.472-.736a4.31 4.31 0 0 1-.032-.448v-2.256zm11.798 3.808h.912V167H36.16c-.896 0-1.594-.277-2.096-.832-.501.555-1.2.832-2.096.832h-4.416v-1.296h4.288c1.024 0 1.536-.539 1.536-1.616v-.144c0-.8-.31-1.408-.928-1.824-.49-.341-1.093-.512-1.808-.512-.565 0-1.13.107-1.696.32v-1.36l3.504-3.888h1.408l-3.152 3.552h.096c1.216 0 2.198.368 2.944 1.104.672.683 1.008 1.547 1.008 2.592v.176c0 1.067.518 1.6 1.552 1.6zm5.407 0h1.056V167H41.55c-.917 0-1.626-.293-2.128-.88-.533.587-1.269.88-2.208.88h-.96v-1.296h.848c1.11 0 1.664-.581 1.664-1.744v-6.544l1.392-.736v7.296c0 .619.118 1.061.352 1.328.246.267.646.4 1.2.4zm10.395 0h1.072V167h-1.216c-.885 0-1.584-.283-2.096-.848-.544.779-1.338 1.168-2.384 1.168-1.045 0-1.834-.384-2.368-1.152-.501.555-1.2.832-2.096.832h-1.216v-1.296h1.056c1.046 0 1.568-.533 1.568-1.6v-.528c0-1.237.304-2.187.912-2.848.534-.587 1.248-.88 2.144-.88 1.024 0 1.814.379 2.368 1.136.47.651.704 1.515.704 2.592v.528c0 1.067.518 1.6 1.552 1.6zm-4.624.32c.523 0 .934-.219 1.232-.656.31-.437.464-1.04.464-1.808 0-1.621-.565-2.432-1.696-2.432-1.12 0-1.68.811-1.68 2.432 0 1.643.56 2.464 1.68 2.464zm15.046-.32H63.6V167h-1.216c-.885 0-1.584-.283-2.096-.848-.544.779-1.338 1.168-2.384 1.168-1.045 0-1.834-.384-2.368-1.152-.501.555-1.2.832-2.096.832h-1.216v-1.296h1.056c1.045 0 1.568-.533 1.568-1.6v-.528c0-1.237.304-2.187.912-2.848.533-.587 1.248-.88 2.144-.88 1.024 0 1.814.379 2.368 1.136.47.651.704 1.515.704 2.592v.528c0 1.067.517 1.6 1.552 1.6zm-4.624.32c.523 0 .934-.219 1.232-.656.31-.437.464-1.04.464-1.808 0-1.621-.565-2.432-1.696-2.432-1.12 0-1.68.811-1.68 2.432 0 1.643.56 2.464 1.68 2.464zm4.742.976v-1.296h.848c1.11 0 1.664-.581 1.664-1.744v-6.544l1.392-.736v7.296c0 .949-.283 1.701-.848 2.256-.533.512-1.232.768-2.096.768h-.96zm6.78 0v-9.584l1.375-.736V167h-1.376zm7.104.928V166.6c.384-.288.912-.496 1.584-.624-.48-.725-.72-1.493-.72-2.304 0-1.013.293-1.829.88-2.448.533-.576 1.226-.864 2.08-.864.928 0 1.696.373 2.304 1.12v1.328c-.683-.789-1.43-1.184-2.24-1.184-.502 0-.902.181-1.2.544-.299.352-.448.832-.448 1.44 0 .875.304 1.6.912 2.176.277-.021.474-.032.592-.032 1.365-.043 2.448-.357 3.248-.944v1.28c-.907.608-2.09.912-3.552.912-1.43 0-2.576.309-3.44.928zM88.552 167c-.928 0-1.643-.299-2.144-.896-.427-.512-.64-1.163-.64-1.952v-6.736l1.376-.736v7.424c0 1.067.523 1.6 1.568 1.6h1.056V167h-1.216zm10.681-1.296h1.04V167h-1.056c-.864 0-1.557-.096-2.08-.288-.522-.203-1.008-.555-1.456-1.056-1.344.896-2.912 1.344-4.704 1.344h-2.176v-1.296h2.192c2.166 0 3.878-.715 5.136-2.144-.885-1.632-1.962-2.448-3.232-2.448-.864 0-1.754.459-2.672 1.376v-1.28c.896-.907 1.846-1.36 2.848-1.36.822 0 1.616.299 2.384.896.768.587 1.446 1.429 2.032 2.528v.704c-.33.416-.645.752-.944 1.008.576.48 1.472.72 2.688.72zm3.348-7.584c-.523 0-.784-.267-.784-.8 0-.523.261-.784.784-.784.512 0 .768.261.768.784 0 .533-.256.8-.768.8zM99.317 167v-1.296h1.056c1.045 0 1.568-.533 1.568-1.6v-3.312l1.376-.736v4.096c0 .907-.272 1.621-.816 2.144-.501.469-1.157.704-1.968.704h-1.216zm6.025-10.544.368-.688h.432a1.2 1.2 0 0 1-.16-.592c0-.32.117-.592.352-.816.235-.235.512-.352.832-.352.267 0 .523.085.768.256v.704c-.235-.181-.459-.272-.672-.272-.395 0-.592.176-.592.528 0 .181.075.363.224.544h1.456l-.368.688h-2.64zM106.19 167v-8.944l1.376-.736V167h-1.376zm11.568-.384c-1.013.608-1.626 1.024-1.84 1.248-.426.416-.64.933-.64 1.552 0 .683.235 1.232.704 1.648.47.427 1.078.64 1.824.64 1.174-.011 2.155-.293 2.944-.848v1.296a5.627 5.627 0 0 1-3.008.848c-1.184 0-2.133-.389-2.848-1.168-.618-.661-.928-1.477-.928-2.448 0-.725.192-1.344.576-1.856.384-.501 1.062-1.029 2.032-1.584-.874-.64-1.77-1.643-2.688-3.008v-.704c.523-.747 1.136-1.328 1.84-1.744.704-.427 1.419-.64 2.144-.64.715 0 1.43.219 2.144.656.715.427 1.328 1.013 1.84 1.76v.672c-.544.821-1.445 1.733-2.704 2.736.235.021.422.032.56.032h4.224l.016 1.296h-4.352a4.631 4.631 0 0 1-1.84-.384zm-2.592-4.016c.96 1.312 1.835 2.181 2.624 2.608a12.258 12.258 0 0 0 2.784-2.64c-.789-.96-1.69-1.445-2.704-1.456-1.024 0-1.925.496-2.704 1.488zm13.391 3.104h1.056V167h-1.216c-.886 0-1.584-.283-2.096-.848-.512.565-1.211.848-2.096.848h-1.216v-1.296h1.056c1.045 0 1.568-.533 1.568-1.6v-3.312l1.376-.736v4.048c0 1.067.522 1.6 1.568 1.6zm-3.824 2.896c.512 0 .768.267.768.8 0 .523-.256.784-.768.784-.523 0-.784-.261-.784-.784 0-.533.261-.8.784-.8zm2.032 0c.512 0 .768.267.768.8 0 .523-.256.784-.768.784-.523 0-.784-.261-.784-.784 0-.533.261-.8.784-.8zm12.184-2.896h1.072V167h-1.216c-.885 0-1.584-.283-2.096-.848-.544.779-1.339 1.168-2.384 1.168s-1.835-.384-2.368-1.152c-.501.555-1.2.832-2.096.832h-1.216v-1.296h1.056c1.045 0 1.568-.533 1.568-1.6v-.528c0-1.237.304-2.187.912-2.848.533-.587 1.248-.88 2.144-.88 1.024 0 1.813.379 2.368 1.136.469.651.704 1.515.704 2.592v.528c0 1.067.517 1.6 1.552 1.6zm-4.624.32c.523 0 .933-.219 1.232-.656.309-.437.464-1.04.464-1.808 0-1.621-.565-2.432-1.696-2.432-1.12 0-1.68.811-1.68 2.432 0 1.643.56 2.464 1.68 2.464zm4.742.976v-1.296h2.192c2.165 0 3.877-.715 5.136-2.144-.885-1.632-1.963-2.448-3.232-2.448-.864 0-1.755.459-2.672 1.376v-1.28c.896-.907 1.845-1.36 2.848-1.36.821 0 1.616.299 2.384.896.768.587 1.445 1.429 2.032 2.528v.704c-1.568 2.016-3.739 3.024-6.512 3.024h-2.176zm4.688 3.184c-.523 0-.784-.267-.784-.8 0-.523.261-.784.784-.784.512 0 .768.261.768.784 0 .533-.256.8-.768.8zM162.969 167c-.107.939-.619 1.691-1.536 2.256-.853.523-1.941.784-3.264.784-1.685 0-2.955-.491-3.808-1.472-.629-.725-.944-1.621-.944-2.688 0-.896.224-1.664.672-2.304l1.328-.288a4.488 4.488 0 0 0-.72 2.448c0 .949.309 1.696.928 2.24.608.544 1.456.816 2.544.816.917 0 1.675-.16 2.272-.48.597-.32.96-.757 1.088-1.312h-1.6l.672-1.296h2.416V167h-.048zm-5.872 5.872c-.523 0-.784-.267-.784-.8 0-.523.261-.784.784-.784.512 0 .768.261.768.784 0 .533-.256.8-.768.8zm2.032 0c-.523 0-.784-.267-.784-.8 0-.523.261-.784.784-.784.512 0 .768.261.768.784 0 .533-.256.8-.768.8zm8.263-14.656c-.522 0-.784-.267-.784-.8 0-.523.262-.784.784-.784.512 0 .768.261.768.784 0 .533-.256.8-.768.8zM162.176 167v-1.296h2.88c-.49-.544-.736-1.301-.736-2.272 0-1.163.304-2.069.912-2.72.534-.576 1.243-.864 2.128-.864.907 0 1.611.283 2.112.848.427.501.64 1.157.64 1.968v1.52c-.01.885-.272 1.584-.784 2.096-.501.48-1.168.72-2 .72h-5.152zm6.56-4.272c0-1.067-.458-1.6-1.376-1.6-.522 0-.933.203-1.232.608-.298.395-.448.949-.448 1.664 0 .704.144 1.264.432 1.68.288.416.672.624 1.152.624.982 0 1.472-.512 1.472-1.536v-1.44zM59.82 94.008c-.32 0-.577-.096-.769-.288-.192-.192-.288-.453-.288-.784 0-.31.096-.56.288-.752.192-.192.448-.288.768-.288s.57.096.752.288c.192.181.288.432.288.752 0 .715-.347 1.072-1.04 1.072zm5.583 5.056h1.44V101h-1.632c-.363 0-.699-.048-1.008-.144-.203 1.024-.72 1.829-1.552 2.416-.747.512-1.653.768-2.72.768-1.44 0-2.555-.507-3.344-1.52-.619-.789-.928-1.717-.928-2.784 0-.843.197-1.579.592-2.208l1.92-.4a4.445 4.445 0 0 0-.64 2.288c0 .811.23 1.467.688 1.968.437.48 1.008.72 1.712.72.736 0 1.307-.187 1.712-.56.416-.373.624-.896.624-1.568v-5.024l2.016-1.056v4.016c0 .416.085.715.256.896.17.17.459.256.864.256zm6.18 0h1.44V101h-1.632c-.779 0-1.424-.208-1.936-.624-.512.416-1.157.624-1.936.624h-1.632v-1.936h1.44c.406 0 .694-.085.864-.256.17-.181.256-.48.256-.896v-2.96l2.016-1.056v4.016c0 .416.086.715.256.896.17.17.459.256.864.256zm-4.144 3.392c.32 0 .57.091.752.272.192.192.288.448.288.768 0 .715-.347 1.072-1.04 1.072-.32 0-.576-.096-.768-.288-.192-.192-.288-.453-.288-.784 0-.693.352-1.04 1.056-1.04zm2.464 0c.32 0 .57.091.752.272.192.192.288.448.288.768 0 .715-.346 1.072-1.04 1.072-.32 0-.576-.096-.768-.288-.192-.192-.288-.453-.288-.784 0-.693.352-1.04 1.056-1.04zm4.716-5.872c0-.96.299-1.712.896-2.256.523-.47 1.195-.704 2.016-.704 1.056 0 1.877.39 2.464 1.168.501.65.752 1.488.752 2.512 0 1.184-.315 2.117-.944 2.8-.565.597-1.285.896-2.16.896-.853 0-1.552-.187-2.096-.56-.512.373-1.13.56-1.856.56H72.06v-1.936h1.44c.405 0 .693-.085.864-.256.17-.181.256-.48.256-.896v-1.328zm2.016 1.584c0 .597.315.896.944.896.79 0 1.184-.608 1.184-1.824 0-1.163-.41-1.744-1.232-1.744-.597 0-.896.352-.896 1.056v1.616zm6.142-8.384.512-.928h.48a1.346 1.346 0 0 1-.176-.656c0-.341.123-.635.368-.88.256-.245.56-.368.912-.368.32 0 .619.112.896.336v.928c-.256-.224-.512-.336-.768-.336-.352 0-.528.16-.528.48 0 .16.07.325.208.496h1.584l-.512.928h-2.976zM86.33 101c-.97 0-1.722-.309-2.256-.928-.458-.533-.688-1.221-.688-2.064v-6.272l2.016-1.056v7.232c0 .416.086.715.256.896.171.17.459.256.864.256h1.44V101H86.33zm1.82-8.72c-.32 0-.576-.096-.768-.288-.192-.192-.288-.453-.288-.784 0-.693.352-1.04 1.056-1.04.32 0 .57.096.752.288.192.181.288.432.288.752 0 .715-.347 1.072-1.04 1.072zm2.464 0c-.32 0-.576-.096-.768-.288-.192-.192-.288-.453-.288-.784 0-.693.352-1.04 1.056-1.04.32 0 .57.096.752.288.192.181.288.432.288.752 0 .715-.347 1.072-1.04 1.072zM86.997 101v-1.936h1.44c.405 0 .693-.085.864-.256.17-.181.256-.48.256-.896v-2.96l2.016-1.056v4.112c0 .97-.3 1.728-.896 2.272-.523.48-1.206.72-2.048.72h-1.632zm12.415-9.04c-.32 0-.576-.096-.768-.288-.192-.192-.288-.453-.288-.784 0-.693.352-1.04 1.056-1.04.32 0 .57.096.752.288.192.181.288.432.288.752 0 .715-.347 1.072-1.04 1.072zm2.464 0c-.32 0-.576-.096-.768-.288-.192-.192-.288-.453-.288-.784 0-.693.352-1.04 1.056-1.04.32 0 .57.096.752.288.192.181.288.432.288.752 0 .715-.347 1.072-1.04 1.072zm2.704 7.104h1.44V101h-1.632c-.992 0-1.76-.331-2.304-.992-.459.352-1.019.528-1.68.528-.982 0-1.766-.368-2.352-1.104-.48-.608-.72-1.339-.72-2.192 0-1.056.34-1.915 1.024-2.576.576-.555 1.242-.832 2-.832.394 0 .757.075 1.088.224v-.416l2-1.056v5.328c0 .416.085.715.256.896.181.17.474.256.88.256zm-3.136-2.992a1.423 1.423 0 0 0-.944-.352c-.352 0-.64.144-.864.432-.214.288-.32.667-.32 1.136 0 .47.106.843.32 1.12.213.277.506.416.88.416.405 0 .72-.139.944-.416a3.49 3.49 0 0 1-.016-.4v-1.936zm7.375-2.128c.8.064 1.504.304 2.112.72 1.088.736 1.632 1.797 1.632 3.184v.208c0 .96-.299 1.712-.896 2.256-.523.459-1.2.688-2.032.688h-4.576v-1.936h4.368c.747 0 1.12-.368 1.12-1.104v-.096c0-.576-.224-1.045-.672-1.408-.437-.363-1.013-.544-1.728-.544-.533 0-1.099.107-1.696.32v-1.936l3.248-3.616h2.032l-2.912 3.264zm10.16 5.12h1.44V101h-1.632c-.362 0-.698-.048-1.008-.144-.138 1.024-.549 1.835-1.232 2.432-.618.533-1.36.8-2.224.8a4.139 4.139 0 0 1-1.968-.512v-1.76c.555.309 1.099.464 1.632.464.587 0 1.04-.192 1.36-.576.331-.373.496-.896.496-1.568v-5.184l1.312-.688.688-.368v.016l.016-.016v4.016c0 .416.086.715.256.896.171.17.459.256.864.256zm9.574-8.928c-.64 0-.96-.325-.96-.976 0-.63.32-.944.96-.944.63 0 .944.315.944.944 0 .65-.314.976-.944.976zm-1.216 2.352c-.32 0-.576-.096-.768-.288-.192-.192-.288-.453-.288-.784 0-.31.096-.56.288-.752.192-.192.448-.288.768-.288s.571.096.752.288c.192.181.288.432.288.752 0 .715-.346 1.072-1.04 1.072zm2.464 0c-.32 0-.576-.096-.768-.288-.192-.192-.288-.453-.288-.784 0-.31.096-.56.288-.752.192-.192.448-.288.768-.288s.571.096.752.288c.192.181.288.432.288.752 0 .715-.346 1.072-1.04 1.072zM119.465 101v-1.936h1.696c.406 0 .694-.085.864-.256.182-.181.272-.48.272-.896V95.8l2.016-1.056v3.168c0 .416.086.715.256.896.171.17.459.256.864.256h1.088c.406 0 .694-.085.864-.256.171-.181.256-.48.256-.896v-2.528l2.016-1.072v3.6c0 .416.086.715.256.896.182.17.475.256.88.256h1.088c.406 0 .694-.085.864-.256.171-.181.256-.48.256-.896v-2.96l2.016-1.056v4.112c0 .95-.288 1.696-.864 2.24-.501.48-1.162.731-1.984.752h-1.584c-.789 0-1.434-.235-1.936-.704-.458.459-1.066.693-1.824.704h-1.584c-.789 0-1.434-.235-1.936-.704-.501.469-1.146.704-1.936.704h-1.904z" fill="#3D4E76"/>
    <path d="M27.767 201.032v23.027H15.5v99.549M174 324.351V224.06h-11.231V192H27.767" stroke="#3D4E76" stroke-width="1.224" stroke-linecap="round" stroke-linejoin="round"/>
    <path d="M59.966 207.331c-.306 0-.55-.092-.733-.275-.183-.183-.274-.432-.274-.748 0-.295.091-.534.274-.717.183-.183.428-.275.733-.275s.544.092.717.275c.183.173.275.412.275.717 0 .682-.33 1.023-.992 1.023zm5.326 4.822h1.374V214h-1.557c-.346 0-.666-.046-.962-.137-.193.976-.686 1.745-1.48 2.304-.712.489-1.577.733-2.594.733-1.374 0-2.437-.484-3.19-1.45-.59-.753-.885-1.638-.885-2.656 0-.803.188-1.505.564-2.106l1.832-.381a4.24 4.24 0 0 0-.61 2.182c0 .773.218 1.399.656 1.877.417.458.961.687 1.633.687.702 0 1.246-.178 1.633-.534.396-.356.595-.855.595-1.496v-4.792l1.923-1.007v3.831c0 .396.081.681.244.854.163.163.437.244.824.244zm5.895 0h1.374V214h-1.557c-.743 0-1.359-.198-1.847-.595-.488.397-1.104.595-1.846.595h-1.557v-1.847h1.373c.387 0 .662-.081.825-.244.162-.173.244-.458.244-.854v-2.824l1.923-1.007v3.831c0 .396.081.681.244.854.163.163.437.244.824.244zm-3.953 3.236c.305 0 .544.086.718.259.183.183.274.428.274.733 0 .681-.33 1.022-.992 1.022-.305 0-.55-.091-.732-.274-.183-.184-.275-.433-.275-.748 0-.662.336-.992 1.007-.992zm2.35 0c.306 0 .545.086.718.259.183.183.274.428.274.733 0 .681-.33 1.022-.991 1.022-.306 0-.55-.091-.733-.274-.183-.184-.275-.433-.275-.748 0-.662.336-.992 1.008-.992zm4.499-5.601c0-.916.285-1.633.854-2.152.499-.448 1.14-.672 1.923-.672 1.008 0 1.791.372 2.35 1.115.479.62.718 1.419.718 2.396 0 1.129-.3 2.019-.9 2.67-.54.57-1.227.855-2.06.855-.815 0-1.481-.178-2-.534-.489.356-1.079.534-1.77.534H71.64v-1.847h1.373c.387 0 .662-.081.825-.244.162-.173.244-.458.244-.854v-1.267zm1.923 1.511c0 .569.3.854.9.854.753 0 1.13-.58 1.13-1.739 0-1.109-.392-1.664-1.176-1.664-.57 0-.854.336-.854 1.007v1.542zm5.859-7.997.488-.886h.458a1.282 1.282 0 0 1-.168-.625c0-.326.117-.606.35-.84.245-.234.535-.351.87-.351.306 0 .59.107.855.321v.885c-.244-.214-.488-.321-.732-.321-.336 0-.504.153-.504.458 0 .153.066.311.199.473h1.51l-.488.886h-2.838zM85.253 214c-.926 0-1.644-.295-2.152-.885-.438-.509-.657-1.165-.657-1.969v-5.982l1.923-1.008v6.899c0 .396.082.681.245.854.162.163.437.244.824.244h1.373V214h-1.556zm1.735-8.318c-.305 0-.55-.091-.733-.274-.183-.183-.274-.433-.274-.748 0-.661.335-.992 1.007-.992.305 0 .544.091.717.275.183.173.275.412.275.717 0 .682-.33 1.022-.992 1.022zm2.35 0c-.305 0-.55-.091-.732-.274-.184-.183-.275-.433-.275-.748 0-.661.336-.992 1.007-.992.305 0 .544.091.717.275.184.173.275.412.275.717 0 .682-.33 1.022-.992 1.022zM85.89 214v-1.847h1.374c.386 0 .66-.081.824-.244.162-.173.244-.458.244-.854v-2.824l1.923-1.007v3.922c0 .926-.285 1.648-.855 2.167-.498.458-1.15.687-1.953.687h-1.557zm11.842-8.623c-.305 0-.55-.091-.732-.275-.184-.183-.275-.432-.275-.747 0-.662.335-.992 1.007-.992.305 0 .544.091.717.274.184.173.275.412.275.718 0 .681-.33 1.022-.992 1.022zm2.35 0c-.305 0-.55-.091-.732-.275-.183-.183-.275-.432-.275-.747 0-.662.336-.992 1.007-.992.306 0 .545.091.718.274.183.173.274.412.274.718 0 .681-.33 1.022-.992 1.022zm2.58 6.776h1.373V214h-1.557c-.946 0-1.678-.315-2.197-.946-.438.336-.972.503-1.603.503-.936 0-1.684-.351-2.243-1.053-.458-.58-.687-1.277-.687-2.09 0-1.008.326-1.827.977-2.458.55-.529 1.185-.793 1.907-.793.377 0 .723.071 1.038.213v-.396l1.908-1.008v5.083c0 .396.081.681.244.854.173.163.453.244.84.244zm-2.992-2.854a1.36 1.36 0 0 0-.9-.335.998.998 0 0 0-.824.412c-.204.274-.305.636-.305 1.083 0 .448.101.804.305 1.069.203.264.483.396.84.396.386 0 .686-.132.9-.396a3.42 3.42 0 0 1-.016-.382v-1.847zm7.035-2.029c.763.061 1.435.29 2.015.686 1.038.702 1.557 1.715 1.557 3.037v.199c0 .916-.285 1.633-.855 2.152-.499.437-1.145.656-1.938.656h-4.365v-1.847h4.166c.713 0 1.069-.351 1.069-1.053v-.091c0-.55-.214-.997-.641-1.343-.418-.346-.967-.519-1.649-.519-.508 0-1.048.102-1.617.305v-1.847l3.098-3.449h1.938l-2.778 3.114zm9.692 4.883h1.373V214h-1.556a3.25 3.25 0 0 1-.962-.137c-.132.976-.524 1.75-1.175 2.319-.59.509-1.297.763-2.121.763a3.937 3.937 0 0 1-1.877-.488v-1.679c.529.295 1.048.443 1.556.443.56 0 .992-.183 1.297-.549.316-.357.474-.855.474-1.496v-4.945l1.251-.656.656-.351v.015l.016-.015v3.831c0 .396.081.681.244.854.163.163.437.244.824.244zm9.132-8.516c-.611 0-.916-.31-.916-.931 0-.6.305-.9.916-.9.6 0 .9.3.9.9 0 .621-.3.931-.9.931zm-1.16 2.244c-.305 0-.549-.092-.733-.275-.183-.183-.274-.432-.274-.748 0-.295.091-.534.274-.717.184-.183.428-.275.733-.275s.544.092.717.275c.183.173.275.412.275.717 0 .682-.331 1.023-.992 1.023zm2.35 0c-.305 0-.549-.092-.732-.275-.183-.183-.275-.432-.275-.748 0-.295.092-.534.275-.717.183-.183.427-.275.732-.275.306 0 .545.092.718.275.183.173.274.412.274.717 0 .682-.33 1.023-.992 1.023zM116.859 214v-1.847h1.618c.387 0 .661-.081.824-.244.173-.173.26-.458.26-.854v-2.015l1.923-1.007v3.022c0 .396.081.681.244.854.163.163.437.244.824.244h1.038c.386 0 .661-.081.824-.244.163-.173.244-.458.244-.854v-2.412l1.923-1.022v3.434c0 .396.081.681.244.854.173.163.453.244.839.244h1.038c.387 0 .662-.081.824-.244.163-.173.245-.458.245-.854v-2.824l1.923-1.007v3.922c0 .906-.275 1.618-.825 2.137-.478.458-1.109.697-1.892.717h-1.511c-.753 0-1.368-.224-1.847-.672-.437.438-1.017.662-1.739.672h-1.511c-.753 0-1.369-.224-1.847-.672-.478.448-1.094.672-1.847.672h-1.816z" fill="#01B8B6"/>
    <path d="M74.934 271.594h39.633M74.934 265.825h39.633M79.074 277.905l-.1 38.616M110.426 277.905v38.796M74.118 316.521l40.449.18" stroke="#3D4E76" stroke-width="1.224" stroke-linecap="round" stroke-linejoin="round"/>
    <path clip-rule="evenodd" d="M27.28 249.641h10.45v-10.453H27.28v10.453zM52.124 249.641h10.451v-10.453h-10.45v10.453z" stroke="#3D4E76" stroke-width="1.224" stroke-linecap="round" stroke-linejoin="round"/>
    <path fill-rule="evenodd" clip-rule="evenodd" d="M76.97 249.641h10.45v-10.453H76.97v10.453z" fill="#fff"/>
    <path clip-rule="evenodd" d="M76.97 249.641h10.45v-10.453H76.97v10.453zM126.659 249.641h10.451v-10.453h-10.451v10.453zM151.504 249.641h10.451v-10.453h-10.451v10.453zM101.814 249.641h10.451v-10.453h-10.451v10.453zM27.28 275.084h10.45v-10.453H27.28v10.453zM52.124 275.084h10.451v-10.453h-10.45v10.453zM126.659 275.084h10.451v-10.453h-10.451v10.453zM151.504 275.084h10.451v-10.453h-10.451v10.453zM27.28 300.527h10.45v-10.453H27.28v10.453zM52.124 300.527h10.451v-10.453h-10.45v10.453zM126.659 300.527h10.451v-10.453h-10.451v10.453zM151.504 300.527h10.451v-10.453h-10.451v10.453z" stroke="#3D4E76" stroke-width="1.224" stroke-linecap="round" stroke-linejoin="round"/>
    <defs>
        <linearGradient id="v1nxz2l66a" x1="59.501" y1="74" x2="131.5" y2="74" gradientUnits="userSpaceOnUse">
            <stop stop-color="#FDBC11"/>
            <stop offset="1" stop-color="#F6931D"/>
        </linearGradient>
    </defs>
</svg>
