<svg width="190" height="340" viewBox="0 0 190 340" fill="none" xmlns="http://www.w3.org/2000/svg">
    <rect x=".5" y=".5" width="189" height="339" rx="3.5" fill="#fff" stroke="#EDEDED"/>
    <path d="M80.29 38.072h-4.423v-2.8h4.424v-4.984h3.276v4.984h4.452v2.8h-4.452V43H80.29v-4.928zm16.718-12.796V43H93.34V29.448c-.261.168-.644.401-1.148.7-.728.43-1.25.756-1.568.98-.243-.41-.653-1.092-1.232-2.044l-.168-.252a7.184 7.184 0 0 0-.308-.532c.597-.43 1.54-1.073 2.828-1.932a63.038 63.038 0 0 0 1.596-1.092h3.668zm10.084-.336c2.165 0 3.901 1.036 5.208 3.108 1.101 1.717 1.652 3.761 1.652 6.132 0 2.856-.7 5.143-2.1 6.86-1.232 1.53-2.819 2.296-4.76 2.296-2.221 0-3.957-.99-5.208-2.968-1.045-1.643-1.568-3.705-1.568-6.188 0-2.763.691-5.03 2.072-6.804 1.251-1.624 2.819-2.436 4.704-2.436zm.056 3.136c-2.016 0-3.024 1.979-3.024 5.936 0 1.997.289 3.565.868 4.704.523 1.027 1.213 1.54 2.072 1.54.952 0 1.699-.55 2.24-1.652.56-1.12.84-2.65.84-4.592 0-3.957-.999-5.936-2.996-5.936z" fill="url(#f68qlsnpaa)"/>
    <path d="M18.909 146.505V156h-1.38v-9.495h1.38zm3.727 3.36h.075c.51-.57 1.22-.855 2.13-.855 1.67 0 2.505.98 2.505 2.94V156h-1.29v-3.975c0-1.27-.56-1.905-1.68-1.905-.31 0-.625.075-.945.225-.32.15-.555.33-.705.54V156h-1.29v-6.81h1.08l.12.675zm12.964-3.36h1.32L40.355 156H38.93l-.72-2.145h-3.885L33.59 156h-1.425l3.435-9.495zm.66 1.68-1.545 4.515h3.09l-1.545-4.515zm6.693 1.68h.075c.51-.57 1.215-.855 2.115-.855 1.13 0 1.865.405 2.205 1.215.58-.81 1.405-1.215 2.475-1.215 1.64 0 2.46.97 2.46 2.91V156h-1.29v-3.795c0-.75-.135-1.285-.405-1.605-.26-.32-.7-.48-1.32-.48-.62 0-1.185.275-1.695.825.06.28.09.605.09.975V156h-1.29v-3.9c0-.69-.14-1.19-.42-1.5-.27-.32-.71-.48-1.32-.48-.29 0-.59.075-.9.225-.31.15-.54.33-.69.54V156h-1.29v-6.81h1.08l.12.675zm12.788 0h.075c.51-.57 1.215-.855 2.115-.855 1.13 0 1.865.405 2.205 1.215.58-.81 1.405-1.215 2.475-1.215 1.64 0 2.46.97 2.46 2.91V156h-1.29v-3.795c0-.75-.135-1.285-.405-1.605-.26-.32-.7-.48-1.32-.48-.62 0-1.185.275-1.695.825.06.28.09.605.09.975V156h-1.29v-3.9c0-.69-.14-1.19-.42-1.5-.27-.32-.71-.48-1.32-.48-.29 0-.59.075-.9.225-.31.15-.54.33-.69.54V156h-1.29v-6.81h1.08l.12.675zM72.49 156h-1.005l-.15-.705c-.54.59-1.27.885-2.19.885-.7 0-1.255-.19-1.665-.57-.4-.39-.6-.915-.6-1.575 0-.75.305-1.325.915-1.725.62-.41 1.495-.615 2.625-.615h.795v-.075c0-1.04-.525-1.56-1.575-1.56-.67 0-1.295.215-1.875.645l-.39-.69c.78-.67 1.675-1.005 2.685-1.005 1.62 0 2.43.965 2.43 2.895V156zm-1.29-3.435h-.66c-1.54 0-2.31.46-2.31 1.38 0 .38.11.68.33.9.23.22.535.33.915.33s.735-.095 1.065-.285c.33-.2.55-.45.66-.75v-1.575zm4.757-2.7h.075c.51-.57 1.22-.855 2.13-.855 1.67 0 2.505.98 2.505 2.94V156h-1.29v-3.975c0-1.27-.56-1.905-1.68-1.905-.31 0-.625.075-.945.225-.32.15-.555.33-.705.54V156h-1.29v-6.81h1.08l.12.675zm6.914 7.68-.3-.585c.39-.25.585-.53.585-.84v-.06a.298.298 0 0 1-.135.03c-.17 0-.32-.07-.45-.21a.816.816 0 0 1-.18-.525c0-.23.075-.42.225-.57a.73.73 0 0 1 .555-.24c.6 0 .9.42.9 1.26 0 .39-.11.745-.33 1.065-.22.32-.51.545-.87.675zm11.365-9.525c-.68-.34-1.365-.51-2.055-.51-.49 0-.89.115-1.2.345-.31.22-.465.505-.465.855 0 .63.415 1.1 1.245 1.41 1.24.46 2.12.945 2.64 1.455.52.5.78 1.12.78 1.86 0 .9-.345 1.605-1.035 2.115-.56.42-1.255.63-2.085.63-.99 0-2.02-.34-3.09-1.02l.6-.855c.67.41 1.45.615 2.34.615 1.22 0 1.83-.515 1.83-1.545 0-.8-.515-1.375-1.545-1.725-1.08-.37-1.865-.78-2.355-1.23-.48-.45-.72-.995-.72-1.635 0-.76.295-1.37.885-1.83.54-.42 1.25-.63 2.13-.63.99 0 1.89.28 2.7.84l-.6.855zm8.24 7.98h-1.005l-.15-.705c-.54.59-1.27.885-2.19.885-.7 0-1.255-.19-1.665-.57-.4-.39-.6-.915-.6-1.575 0-.75.305-1.325.915-1.725.62-.41 1.495-.615 2.625-.615h.795v-.075c0-1.04-.525-1.56-1.576-1.56-.67 0-1.294.215-1.874.645l-.39-.69c.78-.67 1.674-1.005 2.685-1.005 1.62 0 2.43.965 2.43 2.895V156zm-1.29-3.435h-.66c-1.54 0-2.31.46-2.31 1.38 0 .38.11.68.33.9.23.22.534.33.915.33a2.1 2.1 0 0 0 1.065-.285c.33-.2.55-.45.66-.75v-1.575zm4.846-6.24V156h-1.29v-8.985l1.29-.69zm4.113 3.915-.015 3.96c0 .66.25.99.75.99.35 0 .695-.1 1.035-.3l.45.69c-.55.41-1.145.615-1.785.615-1.16 0-1.74-.635-1.74-1.905v-4.05h-1.005v-1.05h1.02v-1.395l1.29-.675v2.07h2.04v1.05h-2.04zm3.956 7.305-.3-.585c.39-.25.585-.53.585-.84v-.06a.298.298 0 0 1-.135.03c-.17 0-.32-.07-.45-.21a.816.816 0 0 1-.18-.525c0-.23.075-.42.225-.57a.73.73 0 0 1 .555-.24c.6 0 .9.42.9 1.26 0 .39-.11.745-.33 1.065-.22.32-.51.545-.87.675zm12.026-9.825a112.01 112.01 0 0 0-3.81 5.865c-.44.72-.71 1.14-.81 1.26h4.725V156h-6.42v-1.065c1-1.44 2.24-3.33 3.72-5.67.61-.97.96-1.505 1.05-1.605h-4.635v-1.155h6.18v1.215zm6.803 8.28h-1.005l-.15-.705c-.54.59-1.27.885-2.19.885-.7 0-1.255-.19-1.665-.57-.4-.39-.6-.915-.6-1.575 0-.75.305-1.325.915-1.725.62-.41 1.495-.615 2.625-.615h.795v-.075c0-1.04-.525-1.56-1.575-1.56-.67 0-1.295.215-1.875.645l-.39-.69c.78-.67 1.675-1.005 2.685-1.005 1.62 0 2.43.965 2.43 2.895V156zm-1.29-3.435h-.66c-1.54 0-2.31.46-2.31 1.38 0 .38.11.68.33.9.23.22.535.33.915.33s.735-.095 1.065-.285c.33-.2.55-.45.66-.75v-1.575zm4.786-2.7h.06c.47-.57 1.02-.855 1.65-.855.8 0 1.39.31 1.77.93l-1.08.675c-.33-.33-.69-.495-1.08-.495-.5 0-.92.255-1.26.765V156h-1.29v-6.81h1.11l.12.675zm9.476-.675h1.005v9.495h-1.29v-3.405c-.45.6-1.095.9-1.935.9-1.01 0-1.805-.37-2.385-1.11-.49-.62-.735-1.4-.735-2.34 0-1.24.36-2.2 1.08-2.88.58-.56 1.285-.84 2.115-.84.4 0 .795.09 1.185.27.39.17.66.375.81.615l.15-.705zm-.285 4.665v-2.7c-.07-.31-.27-.58-.6-.81a1.739 1.739 0 0 0-1.035-.345c-.61 0-1.105.24-1.485.72-.38.48-.57 1.1-.57 1.86 0 .87.2 1.535.6 1.995.35.4.8.6 1.35.6.38 0 .735-.125 1.065-.375.34-.26.565-.575.675-.945zm8.787 2.145h-1.005l-.15-.705c-.54.59-1.27.885-2.19.885-.7 0-1.255-.19-1.665-.57-.4-.39-.6-.915-.6-1.575 0-.75.305-1.325.915-1.725.62-.41 1.495-.615 2.625-.615h.795v-.075c0-1.04-.525-1.56-1.575-1.56-.67 0-1.295.215-1.875.645l-.39-.69c.78-.67 1.675-1.005 2.685-1.005 1.62 0 2.43.965 2.43 2.895V156zm-1.29-3.435h-.66c-1.54 0-2.31.46-2.31 1.38 0 .38.11.68.33.9.23.22.535.33.915.33s.735-.095 1.065-.285c.33-.2.55-.45.66-.75v-1.575zm3.497 4.98-.3-.585c.39-.25.585-.53.585-.84v-.06a.298.298 0 0 1-.135.03c-.17 0-.32-.07-.45-.21a.816.816 0 0 1-.18-.525c0-.23.075-.42.225-.57a.73.73 0 0 1 .555-.24c.6 0 .9.42.9 1.26 0 .39-.11.745-.33 1.065-.22.32-.51.545-.87.675zm6.7-2.265v-.03c.02-.5.285-.75.795-.75.53 0 .795.26.795.78 0 .53-.265.795-.795.795s-.795-.265-.795-.795zm4.292 0v-.03c.02-.5.285-.75.795-.75.53 0 .795.26.795.78 0 .53-.265.795-.795.795s-.795-.265-.795-.795zm4.292 0v-.03c.02-.5.285-.75.795-.75.53 0 .795.26.795.78 0 .53-.265.795-.795.795s-.795-.265-.795-.795zM52.742 91.606V103H50.42V91.606h2.322zm5.204 3.762V103h-2.322V91.606h1.962a188.123 188.123 0 0 1 5.724 7.866v-7.866h2.358V103h-2.016c-1.128-1.332-3.03-3.876-5.706-7.632zM75.6 92.542c-.216.324-.552.81-1.008 1.458-.96-.42-1.819-.63-2.575-.63-.995 0-1.493.372-1.493 1.116 0 .336.114.6.341.792.229.192.703.426 1.422.702 1.296.504 2.226 1.05 2.79 1.638.576.588.865 1.296.865 2.124 0 1.164-.438 2.064-1.314 2.7-.72.516-1.615.774-2.683.774-1.26 0-2.603-.456-4.031-1.368l1.043-1.458c.697.468 1.59.702 2.683.702 1.236 0 1.853-.498 1.853-1.494 0-.648-.665-1.2-1.997-1.656-2.148-.72-3.222-1.872-3.222-3.456 0-.96.36-1.722 1.08-2.286.671-.54 1.566-.81 2.681-.81 1.273 0 2.46.384 3.565 1.152zm11.378 5.67c0 3.336-1.464 5.004-4.392 5.004-2.928 0-4.392-1.668-4.392-5.004v-6.606h2.376v6.93c0 1.8.672 2.7 2.016 2.7 1.368 0 2.052-.9 2.052-2.7v-6.93h2.34v6.606zM89.866 103V91.624c.168-.036.642-.084 1.422-.144.78-.06 1.374-.09 1.782-.09 2.904 0 4.356 1.188 4.356 3.564 0 1.284-.522 2.376-1.566 3.276.432.996 1.17 2.586 2.214 4.77h-2.376c-.588-1.284-1.224-2.664-1.908-4.14a3.17 3.17 0 0 1-.54.036c-.528 0-.87-.048-1.026-.144V103h-2.358zm2.358-9.594v3.438c.36.108.75.162 1.17.162 1.032 0 1.548-.684 1.548-2.052 0-1.116-.534-1.674-1.602-1.674-.612 0-.984.042-1.116.126zm10.206-1.8h1.98L108.604 103h-2.394c-.204-.6-.456-1.392-.756-2.376h-4.086c-.168.54-.426 1.332-.774 2.376h-2.357l4.193-11.394zm1.008 3.078c-.336.948-.798 2.28-1.386 3.996h2.736a679.004 679.004 0 0 1-1.35-3.996zm9.017.684V103h-2.322V91.606h1.962a188.123 188.123 0 0 1 5.724 7.866v-7.866h2.358V103h-2.016c-1.128-1.332-3.03-3.876-5.706-7.632zm18.734 6.354c-.996.996-2.166 1.494-3.51 1.494-1.932 0-3.372-.72-4.32-2.16-.684-1.032-1.026-2.244-1.026-3.636 0-1.812.468-3.27 1.404-4.374.924-1.104 2.208-1.656 3.852-1.656 1.152 0 2.304.486 3.456 1.458l-.918 1.494c-.864-.624-1.65-.936-2.358-.936-.984 0-1.746.414-2.286 1.242-.468.708-.702 1.632-.702 2.772 0 1.008.276 1.872.828 2.592.588.756 1.374 1.134 2.358 1.134.648 0 1.416-.282 2.304-.846l.918 1.422zm1.877-10.116h7.452v1.89h-5.094v2.682h4.248v1.89h-4.248v3.042h5.328V103h-7.686V91.606zM58.02 123.722c-.996.996-2.166 1.494-3.51 1.494-1.932 0-3.372-.72-4.32-2.16-.684-1.032-1.026-2.244-1.026-3.636 0-1.812.468-3.27 1.404-4.374.924-1.104 2.208-1.656 3.852-1.656 1.152 0 2.304.486 3.456 1.458l-.918 1.494c-.864-.624-1.65-.936-2.358-.936-.984 0-1.746.414-2.286 1.242-.468.708-.702 1.632-.702 2.772 0 1.008.276 1.872.828 2.592.588.756 1.374 1.134 2.358 1.134.648 0 1.416-.282 2.304-.846l.918 1.422zm6.611-10.332c1.752 0 3.102.696 4.05 2.088.744 1.092 1.116 2.412 1.116 3.96 0 1.776-.486 3.198-1.458 4.266-.924 1.008-2.16 1.512-3.708 1.512-1.776 0-3.126-.648-4.05-1.944-.744-1.02-1.116-2.298-1.116-3.834 0-1.8.486-3.27 1.458-4.41.924-1.092 2.16-1.638 3.708-1.638zm0 9.846c.864 0 1.53-.324 1.998-.972.468-.66.702-1.602.702-2.826 0-1.308-.258-2.328-.774-3.06-.48-.648-1.122-.972-1.926-.972-.864 0-1.536.354-2.016 1.062-.468.708-.702 1.698-.702 2.97 0 2.532.906 3.798 2.718 3.798zm13.397-.936c.672-2.46 1.572-5.358 2.7-8.694h3.42V125h-2.376v-9.252c-.564 2.436-1.488 5.52-2.772 9.252h-1.962c-1.355-4.116-2.273-7.17-2.754-9.162V125h-2.322v-11.394h3.276c1.129 3.072 2.058 5.97 2.79 8.694zm8.999 2.7v-11.376c.168-.036.642-.084 1.422-.144.78-.06 1.374-.09 1.782-.09 2.904 0 4.356 1.188 4.356 3.564 0 1.476-.504 2.556-1.512 3.24-.672.468-1.464.702-2.376.702-.72 0-1.158-.048-1.314-.144V125h-2.358zm2.358-9.594v3.438c.312.12.702.18 1.17.18.48 0 .858-.168 1.134-.504.276-.348.414-.822.414-1.422 0-1.212-.534-1.818-1.602-1.818-.612 0-.984.042-1.116.126zm9.029-1.8h1.98L104.588 125h-2.394c-.204-.6-.456-1.392-.756-2.376h-4.086c-.168.54-.426 1.332-.774 2.376H94.22l4.194-11.394zm1.008 3.078c-.336.948-.798 2.28-1.386 3.996h2.736a680.234 680.234 0 0 1-1.35-3.996zm9.017.684V125h-2.322v-11.394h1.962a188.123 188.123 0 0 1 5.724 7.866v-7.866h2.358V125h-2.016c-1.128-1.332-3.03-3.876-5.706-7.632zm12.92-3.762V125h-2.322v-11.394h2.322zm2.593 0h7.452v1.89h-5.094v2.682h4.248v1.89h-4.248v3.042h5.328V125h-7.686v-11.394zm16.449.936c-.216.324-.552.81-1.008 1.458-.96-.42-1.818-.63-2.574-.63-.996 0-1.494.372-1.494 1.116 0 .336.114.6.342.792.228.192.702.426 1.422.702 1.296.504 2.226 1.05 2.79 1.638.576.588.864 1.296.864 2.124 0 1.164-.438 2.064-1.314 2.7-.72.516-1.614.774-2.682.774-1.26 0-2.604-.456-4.032-1.368l1.044-1.458c.696.468 1.59.702 2.682.702 1.236 0 1.854-.498 1.854-1.494 0-.648-.666-1.2-1.998-1.656-2.148-.72-3.222-1.872-3.222-3.456 0-.96.36-1.722 1.08-2.286.672-.54 1.566-.81 2.682-.81 1.272 0 2.46.384 3.564 1.152z" fill="#3D4E76"/>
    <path d="M28.267 201.032v23.027H16v99.549M174.5 324.351V224.06h-11.231V192H28.267M75.434 271.594h39.633M75.434 265.825h39.633M79.574 277.905l-.1 38.616M110.926 277.905v38.796M74.618 316.521l40.449.18" stroke="#3D4E76" stroke-width="1.224" stroke-linecap="round" stroke-linejoin="round"/>
    <path clip-rule="evenodd" d="M27.78 249.641h10.45v-10.453H27.78v10.453zM52.624 249.641h10.451v-10.453h-10.45v10.453z" stroke="#3D4E76" stroke-width="1.224" stroke-linecap="round" stroke-linejoin="round"/>
    <path fill-rule="evenodd" clip-rule="evenodd" d="M77.47 249.641h10.45v-10.453H77.47v10.453z" fill="#fff"/>
    <path clip-rule="evenodd" d="M77.47 249.641h10.45v-10.453H77.47v10.453zM127.159 249.641h10.45v-10.453h-10.45v10.453zM152.004 249.641h10.451v-10.453h-10.451v10.453zM102.314 249.641h10.451v-10.453h-10.451v10.453zM27.78 275.084h10.45v-10.453H27.78v10.453zM52.624 275.084h10.451v-10.453h-10.45v10.453zM127.159 275.084h10.45v-10.453h-10.45v10.453zM152.004 275.084h10.451v-10.453h-10.451v10.453zM27.78 300.527h10.45v-10.453H27.78v10.453zM52.624 300.527h10.451v-10.453h-10.45v10.453zM127.159 300.527h10.45v-10.453h-10.45v10.453zM152.004 300.527h10.451v-10.453h-10.451v10.453z" stroke="#3D4E76" stroke-width="1.224" stroke-linecap="round" stroke-linejoin="round"/>
    <path d="M57.338 198.339V208H55.37v-9.661h1.97zm4.412 3.19V208h-1.97v-9.661h1.664a160.017 160.017 0 0 1 4.854 6.67v-6.67h1.999V208h-1.71c-.956-1.129-2.569-3.286-4.837-6.471zm14.968-2.396c-.183.275-.468.687-.855 1.236-.814-.356-1.541-.534-2.182-.534-.845 0-1.267.315-1.267.946 0 .285.097.509.29.672.193.163.595.361 1.206.595 1.099.427 1.887.89 2.365 1.389a2.48 2.48 0 0 1 .733 1.801c0 .987-.372 1.75-1.114 2.289-.61.437-1.369.656-2.274.656-1.069 0-2.208-.386-3.419-1.16l.885-1.236c.59.397 1.348.595 2.274.595 1.048 0 1.572-.422 1.572-1.266 0-.55-.564-1.018-1.694-1.405-1.821-.61-2.732-1.587-2.732-2.93 0-.814.306-1.46.916-1.938.57-.458 1.328-.687 2.274-.687 1.079 0 2.086.326 3.022.977zm9.647 4.807c0 2.829-1.241 4.243-3.724 4.243-2.482 0-3.724-1.414-3.724-4.243v-5.601h2.015v5.876c0 1.526.57 2.289 1.71 2.289 1.16 0 1.74-.763 1.74-2.289v-5.876h1.983v5.601zm2.449 4.06v-9.645c.142-.031.544-.072 1.205-.122a21.334 21.334 0 0 1 1.511-.077c2.463 0 3.694 1.008 3.694 3.022 0 1.089-.443 2.015-1.328 2.778.366.844.992 2.192 1.877 4.044h-2.015a800.887 800.887 0 0 0-1.617-3.51c-.112.02-.265.03-.458.03-.448 0-.738-.04-.87-.122V208h-2zm1.999-8.134v2.915c.305.091.636.137.992.137.875 0 1.313-.58 1.313-1.74 0-.946-.453-1.419-1.359-1.419-.519 0-.834.035-.946.107zm8.654-1.527h1.679l3.556 9.661h-2.03a67.912 67.912 0 0 1-.641-2.015h-3.465c-.142.458-.36 1.13-.656 2.015h-2l3.557-9.661zm.855 2.61c-.285.804-.677 1.933-1.176 3.388h2.32c-.478-1.404-.86-2.533-1.144-3.388zm7.645.58V208h-1.969v-9.661h1.663a160.295 160.295 0 0 1 4.854 6.67v-6.67h1.999V208h-1.709c-.957-1.129-2.569-3.286-4.838-6.471zm15.883 5.387c-.844.845-1.836 1.267-2.976 1.267-1.638 0-2.859-.61-3.662-1.831-.58-.875-.87-1.903-.87-3.083 0-1.536.397-2.773 1.19-3.709.784-.936 1.872-1.404 3.266-1.404.977 0 1.954.412 2.93 1.236l-.778 1.267c-.733-.529-1.399-.793-1.999-.793-.835 0-1.481.351-1.938 1.053-.397.6-.596 1.383-.596 2.35 0 .855.234 1.587.702 2.198.499.641 1.165.961 2 .961.549 0 1.2-.239 1.953-.717l.778 1.205zm1.592-8.577h6.318v1.603h-4.319v2.274h3.602v1.602h-3.602v2.58h4.517V208h-6.516v-9.661zm-56.013 22.577c-.845.845-1.837 1.267-2.976 1.267-1.638 0-2.86-.61-3.663-1.831-.58-.875-.87-1.903-.87-3.083 0-1.536.397-2.773 1.19-3.709.784-.936 1.873-1.404 3.267-1.404.976 0 1.953.412 2.93 1.236l-.779 1.267c-.732-.529-1.399-.793-1.999-.793-.834 0-1.48.351-1.938 1.053-.397.6-.595 1.383-.595 2.35 0 .855.234 1.587.702 2.198.498.641 1.165.961 2 .961.549 0 1.2-.239 1.953-.717l.778 1.205zm5.605-8.76c1.485 0 2.63.59 3.434 1.771.63.925.946 2.045.946 3.357 0 1.506-.412 2.712-1.236 3.617-.784.855-1.831 1.282-3.144 1.282-1.506 0-2.65-.549-3.434-1.648-.63-.865-.946-1.949-.946-3.251 0-1.526.412-2.772 1.236-3.739.784-.926 1.832-1.389 3.144-1.389zm0 8.348c.732 0 1.297-.274 1.694-.824.397-.559.595-1.358.595-2.396 0-1.109-.218-1.974-.656-2.594-.407-.55-.951-.824-1.633-.824-.733 0-1.302.3-1.71.9-.396.6-.594 1.44-.594 2.518 0 2.147.768 3.22 2.304 3.22zm11.36-.793c.569-2.086 1.332-4.543 2.288-7.372h2.9V222h-2.014v-7.844c-.479 2.065-1.262 4.68-2.35 7.844h-1.664c-1.15-3.49-1.928-6.079-2.335-7.768V222H81.25v-9.661h2.778a86.943 86.943 0 0 1 2.365 7.372zM94.022 222v-9.645c.142-.031.544-.072 1.205-.122a21.334 21.334 0 0 1 1.511-.077c2.462 0 3.693 1.008 3.693 3.022 0 1.252-.427 2.167-1.282 2.747-.57.397-1.24.595-2.014.595-.61 0-.982-.04-1.114-.122V222h-2zm1.999-8.134v2.915c.264.101.595.152.992.152.407 0 .727-.142.961-.427.234-.295.351-.697.351-1.206 0-1.027-.452-1.541-1.358-1.541-.519 0-.834.035-.946.107zm7.655-1.527h1.679l3.556 9.661h-2.03a71.038 71.038 0 0 1-.641-2.015h-3.464c-.143.458-.361 1.13-.656 2.015h-2l3.556-9.661zm.855 2.61c-.285.804-.677 1.933-1.175 3.388h2.319a581.352 581.352 0 0 1-1.144-3.388zm7.645.58V222h-1.969v-9.661h1.664a160.29 160.29 0 0 1 4.853 6.67v-6.67h1.999V222h-1.709c-.956-1.129-2.569-3.286-4.838-6.471zm7.841-3.19h2.152c.712 1.445 1.434 2.89 2.167 4.335l2.121-4.335h2.152l-3.281 5.846V222h-1.999v-3.815c-1.16-2.035-2.264-3.984-3.312-5.846z" fill="#01B8B6"/>
    <defs>
        <linearGradient id="f68qlsnpaa" x1="59.001" y1="71" x2="131" y2="71" gradientUnits="userSpaceOnUse">
            <stop stop-color="#FDBC11"/>
            <stop offset="1" stop-color="#F6931D"/>
        </linearGradient>
    </defs>
</svg>
