<svg width="63" height="71" viewBox="0 0 63 71" fill="none" xmlns="http://www.w3.org/2000/svg">
    <path d="m1.635 46-.127 1.341c-.1 1.064.735 2.004 1.864 2.098l2.93.247a12.788 12.788 0 0 0 3.003 6.102l-1.688 2.263c-.652.875-.429 2.082.5 2.696l2.66 1.76c.928.615 2.21.404 2.862-.47l1.692-2.271c2.274.772 4.723.977 7.105.597l1.24 2.516c.48.97 1.7 1.39 2.73.94l2.948-1.289c1.028-.45 1.474-1.601.998-2.57l-1.238-2.508c1.92-1.526 3.288-3.434 4.1-5.508l2.93.247c1.131.094 2.129-.692 2.229-1.756l.127-1.34" stroke="url(#dugw1s6hda)" stroke-width="1.314" stroke-linecap="round" stroke-linejoin="round"/>
    <path d="m1.5 45.905.127-1.341c.1-1.064 1.098-1.85 2.228-1.755l2.931.246c.812-2.073 2.181-3.982 4.1-5.506L9.649 35.04c-.477-.968-.03-2.12.998-2.57l2.948-1.29c1.03-.45 2.251-.028 2.729.94l1.24 2.517a14.881 14.881 0 0 1 7.105.596l1.693-2.27c.653-.874 1.934-1.085 2.863-.47l2.659 1.76c.928.615 1.152 1.821.5 2.696l-1.688 2.263a12.774 12.774 0 0 1 3 6.102l2.933.246c1.13.095 1.964 1.035 1.863 2.099L38.365 49" stroke="url(#ehdj8tonbb)" stroke-width="1.314" stroke-linecap="round" stroke-linejoin="round"/>
    <path clip-rule="evenodd" d="M29.464 48.255c-.441 4.676-4.812 8.128-9.763 7.71-4.95-.416-8.606-4.544-8.165-9.22.441-4.674 4.812-8.128 9.763-7.71 4.951.416 8.606 4.545 8.165 9.22z" stroke="url(#udzsalnzjc)" stroke-width="1.314" stroke-linecap="round" stroke-linejoin="round"/>
    <path fill-rule="evenodd" clip-rule="evenodd" d="M24.205 43.971a5.538 5.538 0 0 0-3.77-1.949 5.509 5.509 0 0 0-2.919.54 5.512 5.512 0 0 1 1.822 1.41 5.425 5.425 0 0 1 1.273 4.017c-.177 1.96-1.413 3.623-3.111 4.449a5.59 5.59 0 0 0 2.453.562c2.845 0 5.273-2.2 5.524-5.011a5.424 5.424 0 0 0-1.272-4.018" fill="#F6941C"/>
    <path d="m5.962 10-.371 1.049a1.593 1.593 0 0 0 .995 2.035l2.19.754a10.694 10.694 0 0 0 1.046 5.455L8.07 20.784a1.582 1.582 0 0 0-.17 2.253l1.673 1.915a1.635 1.635 0 0 0 2.284.166l1.757-1.495a11.18 11.18 0 0 0 5.308 1.828l.433 2.25a1.619 1.619 0 0 0 1.893 1.27l2.517-.471a1.6 1.6 0 0 0 1.288-1.868l-.433-2.243a10.93 10.93 0 0 0 4.26-3.63l2.188.755a1.624 1.624 0 0 0 2.062-.983l.37-1.049" stroke="url(#kimyxaqmld)" stroke-width="1.314" stroke-linecap="round" stroke-linejoin="round"/>
    <path d="m6.5 10.518.371-1.05a1.624 1.624 0 0 1 2.061-.982l2.19.754a10.935 10.935 0 0 1 4.258-3.629l-.432-2.242A1.597 1.597 0 0 1 16.236 1.5l2.517-.472A1.616 1.616 0 0 1 20.645 2.3l.434 2.25c1.898.148 3.728.778 5.308 1.828l1.757-1.496a1.635 1.635 0 0 1 2.284.166L32.1 6.963a1.583 1.583 0 0 1-.17 2.253l-1.752 1.49a10.715 10.715 0 0 1 1.046 5.456l2.19.754a1.593 1.593 0 0 1 .994 2.035L34.038 20" stroke="url(#zjmnm1ause)" stroke-width="1.314" stroke-linecap="round" stroke-linejoin="round"/>
    <path clip-rule="evenodd" d="M27.107 16.64c-1.273 3.39-5.263 5.178-8.912 3.995-3.65-1.182-5.576-4.887-4.303-8.276 1.274-3.389 5.264-5.177 8.914-3.994 3.65 1.181 5.575 4.887 4.301 8.276z" stroke="url(#mdxng33jyf)" stroke-width="1.314" stroke-linecap="round" stroke-linejoin="round"/>
    <path fill-rule="evenodd" clip-rule="evenodd" d="M20.892 16.02a3.088 3.088 0 0 1-.174-2.672c.324-.811.97-1.461 1.782-1.871A4.472 4.472 0 0 0 20.493 11c-1.694 0-3.209.944-3.768 2.348a3.083 3.083 0 0 0 .174 2.673c.463.841 1.273 1.474 2.28 1.782a4.408 4.408 0 0 0 3.3-.278 3.711 3.711 0 0 1-1.587-1.504" fill="#F6941C"/>
    <path clip-rule="evenodd" d="M61.389 59.725a6.168 6.168 0 0 0-2.347-4.18l-.014-.01a3.884 3.884 0 0 1-1.498-3.064V21.598c0-2.034.764-4.011 2.196-5.464a6.14 6.14 0 0 0 1.443-6.307c-1.11-3.274-2.64-4.94-4.95-6.758-.232-.183-.567.025-.503.313l1.3 5.8a2.868 2.868 0 0 1-.9 2.774l-.224.2a4.665 4.665 0 0 1-4.311 1.004l-.433-.116a2.884 2.884 0 0 1-2.061-2.15l-1.29-5.758c-.064-.287-.456-.334-.588-.072-1.316 2.622-1.99 4.778-1.598 8.21a6.168 6.168 0 0 0 2.347 4.181l.014.01a3.884 3.884 0 0 1 1.499 3.063V51.402c0 2.033-.765 4.011-2.197 5.464a6.144 6.144 0 0 0-1.443 6.308c1.11 3.272 2.64 4.94 4.951 6.758.231.182.566-.027.502-.313l-1.3-5.802a2.834 2.834 0 0 1-.062-.574c-.002-.064-.007-.127-.004-.19a2.868 2.868 0 0 1 .965-2.009l.226-.2a4.666 4.666 0 0 1 4.31-1.005l.433.117a2.89 2.89 0 0 1 2.061 2.15l1.29 5.757a.315.315 0 0 0 .588.073c1.317-2.621 1.99-4.777 1.598-8.21z" stroke="url(#bwu5hjfutg)" stroke-width="1.314" stroke-linecap="round" stroke-linejoin="round"/>
    <defs>
        <linearGradient id="dugw1s6hda" x1="38.5" y1="46" x2="1.5" y2="46" gradientUnits="userSpaceOnUse">
            <stop stop-color="#1C6FC4"/>
            <stop offset="1" stop-color="#01B8B6"/>
        </linearGradient>
        <linearGradient id="ehdj8tonbb" x1="38.5" y1="31" x2="1.5" y2="31" gradientUnits="userSpaceOnUse">
            <stop stop-color="#1C6FC4"/>
            <stop offset="1" stop-color="#01B8B6"/>
        </linearGradient>
        <linearGradient id="udzsalnzjc" x1="29.5" y1="39" x2="11.5" y2="39" gradientUnits="userSpaceOnUse">
            <stop stop-color="#1C6FC4"/>
            <stop offset="1" stop-color="#01B8B6"/>
        </linearGradient>
        <linearGradient id="kimyxaqmld" x1="33.5" y1="10" x2="5.5" y2="10" gradientUnits="userSpaceOnUse">
            <stop stop-color="#1C6FC4"/>
            <stop offset="1" stop-color="#01B8B6"/>
        </linearGradient>
        <linearGradient id="zjmnm1ause" x1="34.5" y1="1" x2="6.5" y2="1" gradientUnits="userSpaceOnUse">
            <stop stop-color="#1C6FC4"/>
            <stop offset="1" stop-color="#01B8B6"/>
        </linearGradient>
        <linearGradient id="mdxng33jyf" x1="27.5" y1="8" x2="13.5" y2="8" gradientUnits="userSpaceOnUse">
            <stop stop-color="#1C6FC4"/>
            <stop offset="1" stop-color="#01B8B6"/>
        </linearGradient>
        <linearGradient id="bwu5hjfutg" x1="61.5" y1="3" x2="45.5" y2="3" gradientUnits="userSpaceOnUse">
            <stop stop-color="#1C6FC4"/>
            <stop offset="1" stop-color="#01B8B6"/>
        </linearGradient>
    </defs>
</svg>
