<svg width="36" height="36" viewBox="0 0 36 36" fill="none" xmlns="http://www.w3.org/2000/svg">
    <circle cx="18.447" cy="17.65" r="16.704" fill="#F8F8F8" stroke="#fff" stroke-width="1.591"/>
    <path fill-rule="evenodd" clip-rule="evenodd" d="M10.893 14.797h3.101v10.806h-3.1V14.798zm1.472-1.352h-.023c-1.122 0-1.85-.826-1.85-1.872 0-1.068.75-1.878 1.894-1.878s1.848.808 1.87 1.875c0 1.046-.726 1.875-1.891 1.875zM26.4 25.605h-3.516V20.01c0-1.464-.55-2.462-1.76-2.462-.925 0-1.44.674-1.679 1.324-.09.233-.075.558-.075.883v5.849h-3.484s.045-9.908 0-10.808h3.484v1.696c.205-.742 1.319-1.8 3.095-1.8 2.204 0 3.935 1.555 3.935 4.902v6.01z" fill="#3D4E76"/>
</svg>
