<svg width="266" height="81" viewBox="0 0 266 81" fill="none" xmlns="http://www.w3.org/2000/svg">
    <path d="M13.238 69.436h-3.61v-1.463H18.9v1.463h-3.895V80h-1.767V69.436zm11.255-1.691v4.579c.71-.785 1.602-1.178 2.679-1.178 2.115 0 3.173 1.241 3.173 3.724V80h-1.634v-5.035c0-1.609-.71-2.413-2.128-2.413-.393 0-.792.095-1.197.285-.405.19-.703.418-.893.684V80h-1.634V68.619l1.634-.874zm18.054 8.493h-6.08c.088.836.392 1.501.912 1.995.519.481 1.184.722 1.995.722.785 0 1.583-.24 2.393-.722l.494.931c-.886.71-1.938 1.064-3.154 1.064-1.393 0-2.501-.437-3.325-1.311-.76-.81-1.14-1.875-1.14-3.192 0-1.343.412-2.464 1.235-3.363.748-.81 1.666-1.216 2.755-1.216 1.33 0 2.35.5 3.06 1.501.57.798.855 1.805.855 3.021v.57zm-6.137-1.273h4.465c-.026-.823-.235-1.457-.627-1.9-.38-.456-.9-.684-1.558-.684-.634 0-1.16.234-1.578.703-.405.469-.64 1.096-.703 1.881zM53.597 80V67.992a21.175 21.175 0 0 1 3.078-.247c2.913 0 4.37 1.229 4.37 3.686 0 1.33-.444 2.337-1.33 3.021-.722.557-1.647.836-2.774.836-.545 0-1.07-.044-1.577-.133V80h-1.767zm1.767-10.716v4.446a9.132 9.132 0 0 0 1.577.133c1.494 0 2.242-.81 2.242-2.432 0-1.52-.805-2.28-2.413-2.28-.583 0-1.052.044-1.406.133zm13.19 10.944c-1.305 0-2.363-.488-3.173-1.463-.697-.836-1.045-1.856-1.045-3.059 0-1.393.424-2.52 1.273-3.382.76-.785 1.735-1.178 2.926-1.178 1.368 0 2.445.5 3.23 1.501.646.836.969 1.856.969 3.059 0 1.38-.444 2.508-1.33 3.382-.785.76-1.736 1.14-2.85 1.14zm-.038-1.292c.76 0 1.362-.291 1.805-.874.456-.583.684-1.368.684-2.356 0-1.026-.24-1.843-.722-2.451-.444-.57-1.026-.855-1.748-.855-.735 0-1.33.304-1.786.912-.456.608-.684 1.406-.684 2.394 0 1.064.253 1.887.76 2.47.443.507 1.007.76 1.69.76zM80.437 80H78.82l-2.888-8.626h1.71l1.976 6.669 1.805-6.669h1.786l1.73 6.669 1.994-6.669h1.73L85.717 80h-1.615l-1.805-6.555L80.436 80zm19.146-3.762h-6.08c.088.836.392 1.501.912 1.995.519.481 1.184.722 1.995.722.785 0 1.583-.24 2.394-.722l.494.931c-.887.71-1.938 1.064-3.154 1.064-1.394 0-2.502-.437-3.325-1.311-.76-.81-1.14-1.875-1.14-3.192 0-1.343.411-2.464 1.235-3.363.747-.81 1.665-1.216 2.755-1.216 1.33 0 2.35.5 3.059 1.501.57.798.855 1.805.855 3.021v.57zm-6.137-1.273h4.465c-.026-.823-.235-1.457-.627-1.9-.38-.456-.9-.684-1.558-.684-.634 0-1.16.234-1.577.703-.406.469-.64 1.096-.703 1.881zm12.083-2.736h.076c.596-.722 1.292-1.083 2.09-1.083 1.014 0 1.761.393 2.242 1.178l-1.368.855c-.418-.418-.874-.627-1.368-.627-.633 0-1.165.323-1.596.969V80h-1.634v-8.626h1.406l.152.855zm18.262 7.999c-1.305 0-2.362-.488-3.173-1.463-.697-.836-1.045-1.856-1.045-3.059 0-1.393.424-2.52 1.273-3.382.76-.785 1.735-1.178 2.926-1.178 1.368 0 2.445.5 3.23 1.501.646.836.969 1.856.969 3.059 0 1.38-.443 2.508-1.33 3.382-.785.76-1.735 1.14-2.85 1.14zm-.038-1.292c.76 0 1.362-.291 1.805-.874.456-.583.684-1.368.684-2.356 0-1.026-.241-1.843-.722-2.451-.443-.57-1.026-.855-1.748-.855-.735 0-1.33.304-1.786.912-.456.608-.684 1.406-.684 2.394 0 1.064.253 1.887.76 2.47.443.507 1.007.76 1.691.76zm7.93-6.232v-1.33h1.273v-1.216c0-1.609.734-2.413 2.204-2.413.81 0 1.564.26 2.261.779l-.57.874c-.431-.253-.868-.38-1.311-.38-.634 0-.95.418-.95 1.254v1.102h2.299v1.33h-2.299V80h-1.634v-7.296h-1.273zm24.306 6.137c-1.064.925-2.223 1.387-3.477 1.387-1.824 0-3.236-.703-4.237-2.109-.785-1.115-1.178-2.451-1.178-4.009 0-1.773.488-3.287 1.463-4.541.963-1.216 2.185-1.824 3.667-1.824 1.318 0 2.521.437 3.61 1.311l-.703 1.064c-.861-.57-1.716-.855-2.565-.855-1.152 0-2.058.475-2.717 1.425-.595.861-.893 2.001-.893 3.42 0 1.406.374 2.533 1.121 3.382.684.785 1.571 1.178 2.66 1.178.824 0 1.672-.298 2.546-.893l.703 1.064zm7.605 1.387c-1.305 0-2.362-.488-3.173-1.463-.697-.836-1.045-1.856-1.045-3.059 0-1.393.424-2.52 1.273-3.382.76-.785 1.735-1.178 2.926-1.178 1.368 0 2.445.5 3.23 1.501.646.836.969 1.856.969 3.059 0 1.38-.443 2.508-1.33 3.382-.785.76-1.735 1.14-2.85 1.14zm-.038-1.292c.76 0 1.362-.291 1.805-.874.456-.583.684-1.368.684-2.356 0-1.026-.241-1.843-.722-2.451-.443-.57-1.026-.855-1.748-.855-.735 0-1.33.304-1.786.912-.456.608-.684 1.406-.684 2.394 0 1.064.253 1.887.76 2.47.443.507 1.007.76 1.691.76zm10.134-6.707h.095c.646-.722 1.545-1.083 2.698-1.083 2.115 0 3.173 1.241 3.173 3.724V80h-1.634v-5.035c0-1.609-.71-2.413-2.128-2.413-.393 0-.792.095-1.197.285-.406.19-.703.418-.893.684V80h-1.634v-8.626h1.368l.152.855zm12.353 0h.095c.646-.722 1.545-1.083 2.698-1.083 2.115 0 3.173 1.241 3.173 3.724V80h-1.634v-5.035c0-1.609-.709-2.413-2.128-2.413-.393 0-.792.095-1.197.285-.405.19-.703.418-.893.684V80h-1.634v-8.626h1.368l.152.855zm18.168 4.009h-6.08c.088.836.392 1.501.912 1.995.519.481 1.184.722 1.995.722.785 0 1.583-.24 2.394-.722l.494.931c-.887.71-1.938 1.064-3.154 1.064-1.394 0-2.502-.437-3.325-1.311-.76-.81-1.14-1.875-1.14-3.192 0-1.343.411-2.464 1.235-3.363.747-.81 1.665-1.216 2.755-1.216 1.33 0 2.349.5 3.059 1.501.57.798.855 1.805.855 3.021v.57zm-6.137-1.273h4.465c-.026-.823-.235-1.457-.627-1.9-.38-.456-.9-.684-1.558-.684-.634 0-1.159.234-1.577.703-.406.469-.64 1.096-.703 1.881zm17.384 4.161c-.734.735-1.722 1.102-2.964 1.102-1.418 0-2.546-.469-3.382-1.406-.722-.823-1.083-1.856-1.083-3.097 0-1.393.469-2.533 1.406-3.42.811-.773 1.793-1.159 2.945-1.159 1.115 0 2.097.342 2.945 1.026l-.456.912a3.84 3.84 0 0 0-2.204-.684c-.848 0-1.545.317-2.09.95-.544.633-.817 1.444-.817 2.432 0 .963.304 1.748.912 2.356.558.545 1.254.817 2.09.817.862 0 1.59-.26 2.185-.779l.513.95zm6.531-6.422-.019 5.016c0 .836.316 1.254.95 1.254.443 0 .88-.127 1.311-.38l.57.874c-.697.52-1.451.779-2.261.779-1.47 0-2.204-.804-2.204-2.413v-5.13h-1.273v-1.33h1.292v-1.767l1.634-.855v2.622h2.584v1.33h-2.584zm8.759-1.33V80h-1.634v-8.626h1.634zm-1.767-2.66c0-.266.095-.494.285-.684a.933.933 0 0 1 .684-.285c.266 0 .494.095.684.285.202.19.304.418.304.684a.955.955 0 0 1-.285.703.956.956 0 0 1-.703.285.955.955 0 0 1-.703-.285.988.988 0 0 1-.266-.703zM239.4 80.228c-1.305 0-2.363-.488-3.173-1.463-.697-.836-1.045-1.856-1.045-3.059 0-1.393.424-2.52 1.273-3.382.76-.785 1.735-1.178 2.926-1.178 1.368 0 2.444.5 3.23 1.501.646.836.969 1.856.969 3.059 0 1.38-.444 2.508-1.33 3.382-.786.76-1.736 1.14-2.85 1.14zm-.038-1.292c.76 0 1.361-.291 1.805-.874.456-.583.684-1.368.684-2.356 0-1.026-.241-1.843-.722-2.451-.444-.57-1.026-.855-1.748-.855-.735 0-1.33.304-1.786.912-.456.608-.684 1.406-.684 2.394 0 1.064.253 1.887.76 2.47.443.507 1.007.76 1.691.76zm10.133-6.707h.095c.646-.722 1.545-1.083 2.698-1.083 2.115 0 3.173 1.241 3.173 3.724V80h-1.634v-5.035c0-1.609-.709-2.413-2.128-2.413-.393 0-.792.095-1.197.285-.405.19-.703.418-.893.684V80h-1.634v-8.626h1.368l.152.855z" fill="#3D4E76"/>
    <mask id="ft8vt8xora" style="mask-type:luminance" maskUnits="userSpaceOnUse" x="0" y="1" width="27" height="54">
        <path fill-rule="evenodd" clip-rule="evenodd" d="M16.774 1.831v33.157c0 8.933-3.367 11.522-9.087 11.522-2.507 0-4.795-.493-6.435-1.058L0 52.825c2.232.81 5.887 1.325 8.645 1.325 10.684 0 17.54-5.043 17.54-18.677V1.831h-9.41z" fill="#fff"/>
    </mask>
    <g mask="url(#ft8vt8xora)">
        <path fill-rule="evenodd" clip-rule="evenodd" d="M16.774 1.831v33.157c0 8.933-3.367 11.522-9.087 11.522-2.507 0-4.795-.493-6.435-1.058L0 52.825c2.232.81 5.887 1.325 8.645 1.325 10.684 0 17.54-5.043 17.54-18.677V1.831h-9.41z" fill="url(#sr6ddyut1b)"/>
    </g>
    <mask id="mmvnr6kdlc" style="mask-type:luminance" maskUnits="userSpaceOnUse" x="76" y="17" width="31" height="38">
        <path fill-rule="evenodd" clip-rule="evenodd" d="M76.67 36.543c0 9.99 7.204 17.607 18.114 17.607 5.847 0 9.984-1.796 11.481-2.516l-.998-2.802c-1.997.862-5.063 2.299-9.985 2.299-8.7 0-15.118-6.036-15.118-15.019 0-8.41 5.491-15.164 15.69-15.164 4.42 0 7.416 1.15 9.413 2.3l1.284-2.876c-1.427-1.006-5.349-2.443-10.413-2.443-10.982 0-19.467 7.116-19.467 18.614" fill="#fff"/>
    </mask>
    <g mask="url(#mmvnr6kdlc)">
        <path fill-rule="evenodd" clip-rule="evenodd" d="M76.67 36.543c0 9.99 7.204 17.607 18.114 17.607 5.847 0 9.984-1.796 11.481-2.516l-.998-2.802c-1.997.862-5.063 2.299-9.985 2.299-8.7 0-15.118-6.036-15.118-15.019 0-8.41 5.491-15.164 15.69-15.164 4.42 0 7.416 1.15 9.413 2.3l1.284-2.876c-1.427-1.006-5.349-2.443-10.413-2.443-10.982 0-19.467 7.116-19.467 18.614" fill="url(#61x9egat3d)"/>
    </g>
    <path fill-rule="evenodd" clip-rule="evenodd" d="M116.012 53.28h3.955V2.793h-3.955v50.485z" fill="url(#zdi404ib3e)"/>
    <mask id="5i1q331xbf" style="mask-type:luminance" maskUnits="userSpaceOnUse" x="128" y="17" width="28" height="38">
        <path fill-rule="evenodd" clip-rule="evenodd" d="m130.652 21.235 1.141 2.516c2.853-2.013 6.418-2.875 9.841-2.875 9.128-.073 9.699 7.69 9.699 10.277v.79c-15.975-.216-23.177 4.887-23.177 12.72 0 4.169 3.137 9.487 10.91 9.487 6.276 0 10.627-3.521 12.41-6.181h.141l.571 5.319h3.209c-.428-2.803-.57-5.534-.57-8.337V32.447c0-5.463-1.284-14.518-12.907-14.518-3.281 0-7.489.791-11.268 3.306m1.212 22.782c0-7.977 10.412-9.415 19.469-9.127v7.33c0 .575-.143 1.294-.428 2.012-1.355 3.09-4.921 7.044-11.553 7.044-3.994 0-7.488-2.372-7.488-7.259" fill="#fff"/>
    </mask>
    <g mask="url(#5i1q331xbf)">
        <path fill-rule="evenodd" clip-rule="evenodd" d="m130.652 21.235 1.141 2.516c2.853-2.013 6.418-2.875 9.841-2.875 9.128-.073 9.699 7.69 9.699 10.277v.79c-15.975-.216-23.177 4.887-23.177 12.72 0 4.169 3.137 9.487 10.91 9.487 6.276 0 10.627-3.521 12.41-6.181h.141l.571 5.319h3.209c-.428-2.803-.57-5.534-.57-8.337V32.447c0-5.463-1.284-14.518-12.907-14.518-3.281 0-7.489.791-11.268 3.306m1.212 22.782c0-7.977 10.412-9.415 19.469-9.127v7.33c0 .575-.143 1.294-.428 2.012-1.355 3.09-4.921 7.044-11.553 7.044-3.994 0-7.488-2.372-7.488-7.259" fill="url(#9t9ihv3cpg)"/>
    </g>
    <mask id="6o3dt9j6ah" style="mask-type:luminance" maskUnits="userSpaceOnUse" x="165" y="5" width="6" height="49">
        <path fill-rule="evenodd" clip-rule="evenodd" d="M165.005 8.63c0 1.601 1.141 3.133 2.781 3.133 1.854 0 2.996-1.532 2.996-3.133 0-1.677-1.213-3.133-2.852-3.133-1.642 0-2.925 1.529-2.925 3.133zm1.141 45.313h3.494V18.975h-3.494v34.968z" fill="#fff"/>
    </mask>
    <g mask="url(#6o3dt9j6ah)">
        <path fill-rule="evenodd" clip-rule="evenodd" d="M165.005 8.63c0 1.601 1.141 3.133 2.781 3.133 1.854 0 2.996-1.532 2.996-3.133 0-1.677-1.213-3.133-2.852-3.133-1.642 0-2.925 1.529-2.925 3.133zm1.141 45.313h3.494V18.975h-3.494v34.968z" fill="url(#l43o9d1gni)"/>
    </g>
    <mask id="cbg58h4anj" style="mask-type:luminance" maskUnits="userSpaceOnUse" x="182" y="17" width="53" height="36">
        <path fill-rule="evenodd" clip-rule="evenodd" d="M212.702 21.236c-1.268 1.129-2.535 2.681-3.521 4.728h-.141c-1.479-4.305-5.282-8.045-10.636-8.045-6.198 0-9.72 3.176-12.185 7.41h-.141l-.282-6.562h-3.239c.212 2.751.282 5.432.282 8.184v25.684h3.451V32.032c0-1.2.281-2.4.634-3.317 1.479-3.739 5.353-7.831 10.494-7.831 5.705 0 9.298 4.515 9.298 11.148v20.604h3.451V31.044c0-1.27.352-2.4.704-3.316 1.479-3.458 5.141-6.844 9.861-6.844 6.198 0 9.861 4.374 9.861 12.911v18.84h3.45v-18.91c0-14.112-8.944-15.806-12.115-15.806-4.225 0-6.761 1.2-9.226 3.317" fill="#fff"/>
    </mask>
    <g mask="url(#cbg58h4anj)">
        <path fill-rule="evenodd" clip-rule="evenodd" d="M212.702 21.236c-1.268 1.129-2.535 2.681-3.521 4.728h-.141c-1.479-4.305-5.282-8.045-10.636-8.045-6.198 0-9.72 3.176-12.185 7.41h-.141l-.282-6.562h-3.239c.212 2.751.282 5.432.282 8.184v25.684h3.451V32.032c0-1.2.281-2.4.634-3.317 1.479-3.739 5.353-7.831 10.494-7.831 5.705 0 9.298 4.515 9.298 11.148v20.604h3.451V31.044c0-1.27.352-2.4.704-3.316 1.479-3.458 5.141-6.844 9.861-6.844 6.198 0 9.861 4.374 9.861 12.911v18.84h3.45v-18.91c0-14.112-8.944-15.806-12.115-15.806-4.225 0-6.761 1.2-9.226 3.317" fill="url(#3rzhrqn8rk)"/>
    </g>
    <mask id="5q601f20ul" style="mask-type:luminance" maskUnits="userSpaceOnUse" x="244" y="17" width="22" height="38">
        <path fill-rule="evenodd" clip-rule="evenodd" d="M245.247 27.487c0 4.097 3.066 7.331 9.271 9.343 5.349 1.725 8.058 3.665 8.058 7.69 0 3.522-2.639 6.683-8.629 6.683-3.423 0-6.489-1.292-8.557-2.586l-1.284 3.017c2.567 1.51 5.919 2.516 9.556 2.516 7.773 0 12.338-4.311 12.338-9.918 0-5.174-3.067-7.905-9.343-10.062-5.063-1.723-7.987-3.234-7.987-7.114 0-3.305 2.496-6.18 7.203-6.18 3.922 0 6.418 1.438 7.559 2.228l1.354-2.875c-1.995-1.366-4.919-2.3-8.271-2.3-7.417 0-11.268 4.672-11.268 9.558" fill="#fff"/>
    </mask>
    <g mask="url(#5q601f20ul)">
        <path fill-rule="evenodd" clip-rule="evenodd" d="M245.247 27.487c0 4.097 3.066 7.331 9.271 9.343 5.349 1.725 8.058 3.665 8.058 7.69 0 3.522-2.639 6.683-8.629 6.683-3.423 0-6.489-1.292-8.557-2.586l-1.284 3.017c2.567 1.51 5.919 2.516 9.556 2.516 7.773 0 12.338-4.311 12.338-9.918 0-5.174-3.067-7.905-9.343-10.062-5.063-1.723-7.987-3.234-7.987-7.114 0-3.305 2.496-6.18 7.203-6.18 3.922 0 6.418 1.438 7.559 2.228l1.354-2.875c-1.995-1.366-4.919-2.3-8.271-2.3-7.417 0-11.268 4.672-11.268 9.558" fill="url(#x07lt7rhhm)"/>
    </g>
    <mask id="m1058aos7n" style="mask-type:luminance" maskUnits="userSpaceOnUse" x="41" y="17" width="17" height="7">
        <path fill-rule="evenodd" clip-rule="evenodd" d="M41.47 19.768c.767-.2 1.59-.33 2.45-.33 2.542 0 4.784 1.11 6.311 3.127.092.12.173.245.244.375l.317.578c.47-.051.956-.086 1.467-.086.227 0 .437.022.655.033a97.398 97.398 0 0 1 4.677-5.555 27.089 27.089 0 0 0-5.037-.474c-4.235 0-7.977.84-11.084 2.332" fill="#fff"/>
    </mask>
    <g mask="url(#m1058aos7n)">
        <path fill-rule="evenodd" clip-rule="evenodd" d="M41.47 19.768c.767-.2 1.59-.33 2.45-.33 2.542 0 4.784 1.11 6.311 3.127.092.12.173.245.244.375l.317.578c.47-.051.956-.086 1.467-.086.227 0 .437.022.655.033a97.398 97.398 0 0 1 4.677-5.555 27.089 27.089 0 0 0-5.037-.474c-4.235 0-7.977.84-11.084 2.332" fill="url(#fqy253c18o)"/>
    </g>
    <mask id="asrm7z8yxp" style="mask-type:luminance" maskUnits="userSpaceOnUse" x="33" y="23" width="40" height="32">
        <path fill-rule="evenodd" clip-rule="evenodd" d="M62.071 31.411c.404 1.384.602 2.85.602 4.29 0 7.628-4.446 11.853-9.987 11.853-5.809 0-9.995-4.685-9.995-11.698 0-.861.07-1.713.197-2.546-.229-.469-.469-.934-.735-1.384-.508-.856-1.087-1.68-1.817-2.366-.36-.335-.76-.683-1.216-.874-.504-.212-1.045-.403-1.474-.746a3.454 3.454 0 0 1-1.175-1.784 3.389 3.389 0 0 1-.11-1.01c-2.137 2.99-3.333 6.717-3.333 10.967 0 11.023 8.574 18.037 19.358 18.037 10.25 0 19.949-6.342 19.949-18.787 0-4.816-1.702-9.032-4.674-12.174-2.005 2.598-3.919 5.359-5.59 8.222" fill="#fff"/>
    </mask>
    <g mask="url(#asrm7z8yxp)">
        <path fill-rule="evenodd" clip-rule="evenodd" d="M62.071 31.411c.404 1.384.602 2.85.602 4.29 0 7.628-4.446 11.853-9.987 11.853-5.809 0-9.995-4.685-9.995-11.698 0-.861.07-1.713.197-2.546-.229-.469-.469-.934-.735-1.384-.508-.856-1.087-1.68-1.817-2.366-.36-.335-.76-.683-1.216-.874-.504-.212-1.045-.403-1.474-.746a3.454 3.454 0 0 1-1.175-1.784 3.389 3.389 0 0 1-.11-1.01c-2.137 2.99-3.333 6.717-3.333 10.967 0 11.023 8.574 18.037 19.358 18.037 10.25 0 19.949-6.342 19.949-18.787 0-4.816-1.702-9.032-4.674-12.174-2.005 2.598-3.919 5.359-5.59 8.222" fill="url(#rfq7yrlluq)"/>
    </g>
    <mask id="yl78fvknar" style="mask-type:luminance" maskUnits="userSpaceOnUse" x="39" y="0" width="44" height="43">
        <path fill-rule="evenodd" clip-rule="evenodd" d="m51.394 33.053-3.804-8.077c-2.928-4.486-7.904.3-7.904.3 6.147 1.495 9.659 17.348 9.659 17.348l4.683-3.29c6.439-19.742 28.39-37.689 28.39-37.689L81.54.15C61.93 12.414 51.394 33.053 51.394 33.053" fill="#fff"/>
    </mask>
    <g mask="url(#yl78fvknar)">
        <path fill-rule="evenodd" clip-rule="evenodd" d="m51.394 33.053-3.804-8.077c-2.928-4.486-7.904.3-7.904.3 6.147 1.495 9.659 17.348 9.659 17.348l4.683-3.29c6.439-19.742 28.39-37.689 28.39-37.689L81.54.15C61.93 12.414 51.394 33.053 51.394 33.053" fill="url(#j2e4ghbh1s)"/>
    </g>
    <defs>
        <linearGradient id="sr6ddyut1b" x1="-5.261" y1="310.036" x2="277.063" y2="310.036" gradientUnits="userSpaceOnUse">
            <stop stop-color="#1C6DC3"/>
            <stop offset="1" stop-color="#00BAB6"/>
        </linearGradient>
        <linearGradient id="61x9egat3d" x1="-5.789" y1="202.883" x2="269.477" y2="202.883" gradientUnits="userSpaceOnUse">
            <stop stop-color="#1C6DC3"/>
            <stop offset="1" stop-color="#00BAB6"/>
        </linearGradient>
        <linearGradient id="zdi404ib3e" x1="-21.148" y1="2016.6" x2="290.416" y2="2016.6" gradientUnits="userSpaceOnUse">
            <stop stop-color="#1C6DC3"/>
            <stop offset="1" stop-color="#00BAB6"/>
        </linearGradient>
        <linearGradient id="9t9ihv3cpg" x1="-5.789" y1="219.044" x2="269.477" y2="219.044" gradientUnits="userSpaceOnUse">
            <stop stop-color="#1C6DC3"/>
            <stop offset="1" stop-color="#00BAB6"/>
        </linearGradient>
        <linearGradient id="l43o9d1gni" x1="-6.448" y1="1184.08" x2="268.818" y2="1184.08" gradientUnits="userSpaceOnUse">
            <stop stop-color="#1C6DC3"/>
            <stop offset="1" stop-color="#00BAB6"/>
        </linearGradient>
        <linearGradient id="3rzhrqn8rk" x1="-3.471" y1="126.935" x2="268.397" y2="126.935" gradientUnits="userSpaceOnUse">
            <stop stop-color="#1C6DC3"/>
            <stop offset="1" stop-color="#00BAB6"/>
        </linearGradient>
        <linearGradient id="x07lt7rhhm" x1="-5.789" y1="263.738" x2="269.477" y2="263.738" gradientUnits="userSpaceOnUse">
            <stop stop-color="#1C6DC3"/>
            <stop offset="1" stop-color="#00BAB6"/>
        </linearGradient>
        <linearGradient id="fqy253c18o" x1="41.47" y1="23.518" x2="57.591" y2="23.518" gradientUnits="userSpaceOnUse">
            <stop stop-color="#1C6DC3"/>
            <stop offset="1" stop-color="#00BAB6"/>
        </linearGradient>
        <linearGradient id="rfq7yrlluq" x1="33.028" y1="54.15" x2="72.334" y2="54.15" gradientUnits="userSpaceOnUse">
            <stop stop-color="#1C6DC3"/>
            <stop offset="1" stop-color="#00BAB6"/>
        </linearGradient>
        <linearGradient id="j2e4ghbh1s" x1="39.686" y1="42.624" x2="82.418" y2="42.624" gradientUnits="userSpaceOnUse">
            <stop stop-color="#FDBC11"/>
            <stop offset="1" stop-color="#F6931D"/>
        </linearGradient>
    </defs>
</svg>
