<svg width="190" height="340" viewBox="0 0 190 340" fill="none" xmlns="http://www.w3.org/2000/svg">
    <rect x=".5" y=".5" width="189" height="339" rx="3.5" fill="#fff" stroke="#EDEDED"/>
    <path d="m67.183 253.057-6.594 1.932c-3.727 1.092-6.722 3.784-8.118 7.301-2.312 5.829-5.387 15.013-6.923 21.559-1.906 8.118-3.229 13.375-3.229 25.151M67.686 276.909c.01 2.41 2.52 3.881 4.487 2.442 5.95-4.333 9.303-8.88 11.792-12.116 1.516-1.988 4.39-2.336 6.323-.75.045.041.087.073.14.116 2.276 1.977 2.04 3.891-.01 6.978-1.838 2.76-4.24 5.804-5.737 8.142-1.527 2.367-2.722 4.905-3.781 7.518-3.365 8.289-8.76 11.841-12.53 13.353-2.619 1.057-4.295 3.605-4.295 6.397V309M74.953 309h59.719c3.923 0 7.102-3.262 7.102-7.287v-5.145" stroke="#3D4E76" stroke-width="1.457" stroke-linecap="round" stroke-linejoin="round"/>
    <path d="M141.774 298.122v-77.783c0-4.245-3.542-7.686-7.913-7.686H75.097c-4.372 0-7.914 3.441-7.914 7.686v57.221" stroke="#3D4E76" stroke-width="1.457" stroke-linecap="round" stroke-linejoin="round"/>
    <path d="M90.493 212.653v3.688c0 2.255 1.94 4.082 4.335 4.082h19.302c2.394 0 4.334-1.827 4.334-4.082v-3.688" stroke="#3D4E76" stroke-width="1.457" stroke-linecap="round" stroke-linejoin="round"/>
    <path clip-rule="evenodd" d="m103.702 245.287-16.317-9.324 16.317-9.324 16.316 9.324-16.316 9.324z" stroke="#3D4E76" stroke-width="1.457" stroke-linecap="round" stroke-linejoin="round"/>
    <path fill-rule="evenodd" clip-rule="evenodd" d="m96.709 236.74 6.993-3.885 6.993 3.885-6.993 3.885-6.993-3.885z" fill="#01B8B6"/>
    <path d="M120.018 235.963v18.648l-16.317 9.324-16.316-9.324v-18.648M103.702 245.287v12.432M95.155 280.251h23.309M90.493 292.683h27.971" stroke="#3D4E76" stroke-width="1.457" stroke-linecap="round" stroke-linejoin="round"/>
    <path d="M35.064 37.072H30.64v-2.8h4.424v-4.984h3.276v4.984h4.452v2.8H38.34V42h-3.276v-4.928zM44.81 42v-3.108c.449-.504 1.046-1.185 1.793-2.044a113.612 113.612 0 0 0 2.604-2.968c1.25-1.493 2.034-2.51 2.351-3.052.318-.56.476-1.176.476-1.848 0-.56-.205-1.027-.616-1.4-.41-.373-.933-.56-1.568-.56-1.1 0-2.314.448-3.64 1.344l-1.54-2.24c1.867-1.475 3.818-2.212 5.853-2.212 1.623 0 2.92.439 3.892 1.316.951.859 1.428 2.044 1.428 3.556 0 1.12-.374 2.296-1.12 3.528-.729 1.213-2.157 3.024-4.285 5.432L49.29 39.06h6.356V42H44.81zm13.631 2.94-.896-1.652c.822-.317 1.232-.747 1.232-1.288-.896 0-1.344-.532-1.344-1.596 0-.541.178-.99.532-1.344.374-.355.85-.532 1.428-.532.58 0 1.055.233 1.428.7.374.448.56 1.017.56 1.708 0 .99-.28 1.857-.84 2.604-.54.747-1.24 1.213-2.1 1.4zm13.266-11.956c2.446.653 3.668 2.165 3.668 4.536 0 1.624-.69 2.875-2.072 3.752-1.138.71-2.548 1.064-4.228 1.064-1.96 0-3.528-.467-4.704-1.4-1.101-.859-1.652-2.007-1.652-3.444 0-1.344.476-2.464 1.428-3.36.71-.672 1.503-1.064 2.38-1.176-2.034-.616-3.052-1.913-3.052-3.892 0-1.68.654-2.996 1.96-3.948 1.046-.784 2.324-1.176 3.836-1.176 1.718 0 3.127.523 4.228 1.568 1.027.99 1.54 2.24 1.54 3.752 0 .877-.317 1.661-.952 2.352-.616.69-1.409 1.148-2.38 1.372zm-2.492-1.288a3.105 3.105 0 0 0 1.568-1.036c.411-.523.616-1.073.616-1.652 0-.672-.196-1.213-.588-1.624-.373-.41-.858-.616-1.456-.616-.69 0-1.25.215-1.68.644-.41.41-.616.961-.616 1.652 0 1.27.719 2.147 2.156 2.632zm.084 2.52c-.84.205-1.512.588-2.016 1.148-.504.541-.756 1.167-.756 1.876 0 .653.243 1.195.728 1.624.486.41 1.102.616 1.848.616.71 0 1.288-.196 1.736-.588.467-.41.7-.933.7-1.568 0-.71-.214-1.353-.644-1.932a3.03 3.03 0 0 0-1.596-1.176zm14.99-10.276c2.165 0 3.9 1.036 5.207 3.108 1.102 1.717 1.652 3.761 1.652 6.132 0 2.856-.7 5.143-2.1 6.86-1.232 1.53-2.818 2.296-4.76 2.296-2.221 0-3.957-.99-5.208-2.968-1.045-1.643-1.568-3.705-1.568-6.188 0-2.763.69-5.03 2.072-6.804 1.25-1.624 2.819-2.436 4.704-2.436zm.055 3.136c-2.016 0-3.024 1.979-3.024 5.936 0 1.997.29 3.565.868 4.704.523 1.027 1.214 1.54 2.072 1.54.952 0 1.699-.55 2.24-1.652.56-1.12.84-2.65.84-4.592 0-3.957-.998-5.936-2.996-5.936zm15.722-3.136c2.165 0 3.901 1.036 5.208 3.108 1.101 1.717 1.652 3.761 1.652 6.132 0 2.856-.7 5.143-2.1 6.86-1.232 1.53-2.819 2.296-4.76 2.296-2.222 0-3.958-.99-5.208-2.968-1.046-1.643-1.568-3.705-1.568-6.188 0-2.763.69-5.03 2.072-6.804 1.25-1.624 2.818-2.436 4.704-2.436zm.056 3.136c-2.016 0-3.024 1.979-3.024 5.936 0 1.997.289 3.565.868 4.704.522 1.027 1.213 1.54 2.072 1.54.952 0 1.698-.55 2.24-1.652.56-1.12.84-2.65.84-4.592 0-3.957-.999-5.936-2.996-5.936zm9.589 17.864-.896-1.652c.821-.317 1.232-.747 1.232-1.288-.896 0-1.344-.532-1.344-1.596 0-.541.177-.99.532-1.344.373-.355.849-.532 1.428-.532s1.055.233 1.428.7c.373.448.56 1.017.56 1.708 0 .99-.28 1.857-.84 2.604-.541.747-1.241 1.213-2.1 1.4zm11.054-21c2.165 0 3.901 1.036 5.208 3.108 1.101 1.717 1.652 3.761 1.652 6.132 0 2.856-.7 5.143-2.1 6.86-1.232 1.53-2.819 2.296-4.76 2.296-2.222 0-3.958-.99-5.208-2.968-1.046-1.643-1.568-3.705-1.568-6.188 0-2.763.69-5.03 2.072-6.804 1.25-1.624 2.818-2.436 4.704-2.436zm.056 3.136c-2.016 0-3.024 1.979-3.024 5.936 0 1.997.289 3.565.868 4.704.522 1.027 1.213 1.54 2.072 1.54.952 0 1.698-.55 2.24-1.652.56-1.12.84-2.65.84-4.592 0-3.957-.999-5.936-2.996-5.936zm15.721-3.136c2.166 0 3.902 1.036 5.208 3.108 1.102 1.717 1.652 3.761 1.652 6.132 0 2.856-.7 5.143-2.1 6.86-1.232 1.53-2.818 2.296-4.76 2.296-2.221 0-3.957-.99-5.208-2.968-1.045-1.643-1.568-3.705-1.568-6.188 0-2.763.691-5.03 2.072-6.804 1.251-1.624 2.819-2.436 4.704-2.436zm.056 3.136c-2.016 0-3.024 1.979-3.024 5.936 0 1.997.29 3.565.868 4.704.523 1.027 1.214 1.54 2.072 1.54.952 0 1.699-.55 2.24-1.652.56-1.12.84-2.65.84-4.592 0-3.957-.998-5.936-2.996-5.936zm15.722-3.136c2.165 0 3.901 1.036 5.208 3.108 1.101 1.717 1.652 3.761 1.652 6.132 0 2.856-.7 5.143-2.1 6.86-1.232 1.53-2.819 2.296-4.76 2.296-2.222 0-3.958-.99-5.208-2.968-1.046-1.643-1.568-3.705-1.568-6.188 0-2.763.69-5.03 2.072-6.804 1.25-1.624 2.818-2.436 4.704-2.436zm.056 3.136c-2.016 0-3.024 1.979-3.024 5.936 0 1.997.289 3.565.868 4.704.522 1.027 1.213 1.54 2.072 1.54.952 0 1.698-.55 2.24-1.652.56-1.12.84-2.65.84-4.592 0-3.957-.999-5.936-2.996-5.936z" fill="url(#bzuma7nuwa)"/>
    <path d="M38.723 150.24v-1.05h1.005v-.96c0-1.27.58-1.905 1.74-1.905.64 0 1.235.205 1.785.615l-.45.69c-.34-.2-.685-.3-1.035-.3-.5 0-.75.33-.75.99v.87h1.815v1.05h-1.815V156h-1.29v-5.76h-1.005zm7.16-.375h.06c.47-.57 1.02-.855 1.65-.855.8 0 1.39.31 1.77.93l-1.08.675c-.33-.33-.69-.495-1.08-.495-.5 0-.92.255-1.26.765V156h-1.29v-6.81h1.11l.12.675zm7.378 6.315c-1.03 0-1.865-.385-2.505-1.155-.55-.66-.825-1.465-.825-2.415 0-1.1.335-1.99 1.005-2.67.6-.62 1.37-.93 2.31-.93 1.08 0 1.93.395 2.55 1.185.51.66.765 1.465.765 2.415 0 1.09-.35 1.98-1.05 2.67-.62.6-1.37.9-2.25.9zm-.03-1.02c.6 0 1.075-.23 1.425-.69.36-.46.54-1.08.54-1.86 0-.81-.19-1.455-.57-1.935-.35-.45-.81-.675-1.38-.675-.58 0-1.05.24-1.41.72-.36.48-.54 1.11-.54 1.89 0 .84.2 1.49.6 1.95.35.4.795.6 1.335.6zm6.421-5.295h.075c.51-.57 1.215-.855 2.115-.855 1.13 0 1.865.405 2.205 1.215.58-.81 1.405-1.215 2.475-1.215 1.64 0 2.46.97 2.46 2.91V156h-1.29v-3.795c0-.75-.135-1.285-.405-1.605-.26-.32-.7-.48-1.32-.48-.62 0-1.185.275-1.695.825.06.28.09.605.09.975V156h-1.29v-3.9c0-.69-.14-1.19-.42-1.5-.27-.32-.71-.48-1.32-.48-.29 0-.59.075-.9.225-.31.15-.54.33-.69.54V156h-1.29v-6.81h1.08l.12.675zM74.322 156v-1.215l2.384-2.655c.72-.8 1.205-1.42 1.455-1.86.26-.45.39-.9.39-1.35 0-.42-.15-.76-.45-1.02-.3-.26-.7-.39-1.2-.39-.6 0-1.235.22-1.905.66l-.585-.84c.89-.68 1.8-1.02 2.73-1.02.87 0 1.575.255 2.115.765.51.47.765 1.085.765 1.845 0 .49-.115.965-.345 1.425-.23.45-.63 1-1.2 1.65l-2.49 2.85h3.825V156h-5.49zm10.656.18c-1.15 0-2.04-.52-2.67-1.56-.54-.88-.81-1.995-.81-3.345 0-1.51.355-2.735 1.065-3.675.63-.85 1.435-1.275 2.415-1.275 1.11 0 2 .545 2.67 1.635.55.91.825 2.015.825 3.315 0 1.55-.35 2.78-1.05 3.69-.63.81-1.445 1.215-2.445 1.215zm0-8.655c-.64 0-1.135.32-1.485.96-.35.63-.525 1.53-.525 2.7 0 1.22.19 2.175.57 2.865.36.62.835.93 1.425.93.64 0 1.14-.335 1.5-1.005.36-.68.54-1.61.54-2.79 0-1.22-.19-2.15-.57-2.79-.35-.58-.835-.87-1.455-.87zM90.01 156v-1.215l2.385-2.655c.72-.8 1.205-1.42 1.455-1.86.26-.45.39-.9.39-1.35 0-.42-.15-.76-.45-1.02-.3-.26-.7-.39-1.2-.39-.6 0-1.235.22-1.905.66l-.585-.84c.89-.68 1.8-1.02 2.73-1.02.87 0 1.575.255 2.115.765.51.47.765 1.085.765 1.845 0 .49-.115.965-.345 1.425-.23.45-.63 1-1.2 1.65l-2.49 2.85H95.5V156h-5.49zm10.732-9.495V156h-1.395v-7.965l-1.755 1.02-.675-1.035 2.43-1.515h1.395zm7.791 3.735-.015 3.96c0 .66.25.99.75.99.35 0 .695-.1 1.035-.3l.45.69c-.55.41-1.145.615-1.785.615-1.16 0-1.74-.635-1.74-1.905v-4.05h-1.005v-1.05h1.02v-1.395l1.29-.675v2.07h2.04v1.05h-2.04zm6.749 5.94c-1.03 0-1.865-.385-2.505-1.155-.55-.66-.825-1.465-.825-2.415 0-1.1.335-1.99 1.005-2.67.6-.62 1.37-.93 2.31-.93 1.08 0 1.93.395 2.55 1.185.51.66.765 1.465.765 2.415 0 1.09-.35 1.98-1.05 2.67-.62.6-1.37.9-2.25.9zm-.03-1.02c.6 0 1.075-.23 1.425-.69.36-.46.54-1.08.54-1.86 0-.81-.19-1.455-.57-1.935-.35-.45-.81-.675-1.38-.675-.58 0-1.05.24-1.41.72-.36.48-.54 1.11-.54 1.89 0 .84.2 1.49.6 1.95.35.4.795.6 1.335.6zm8.303.84v-1.215l2.385-2.655c.72-.8 1.205-1.42 1.455-1.86.26-.45.39-.9.39-1.35 0-.42-.15-.76-.45-1.02-.3-.26-.7-.39-1.2-.39-.6 0-1.235.22-1.905.66l-.585-.84c.89-.68 1.8-1.02 2.73-1.02.87 0 1.575.255 2.115.765.51.47.765 1.085.765 1.845 0 .49-.115.965-.345 1.425-.23.45-.63 1-1.2 1.65l-2.49 2.85h3.825V156h-5.49zm10.657.18c-1.15 0-2.04-.52-2.67-1.56-.54-.88-.81-1.995-.81-3.345 0-1.51.355-2.735 1.065-3.675.63-.85 1.435-1.275 2.415-1.275 1.11 0 2 .545 2.67 1.635.55.91.825 2.015.825 3.315 0 1.55-.35 2.78-1.05 3.69-.63.81-1.445 1.215-2.445 1.215zm0-8.655c-.64 0-1.135.32-1.485.96-.35.63-.525 1.53-.525 2.7 0 1.22.19 2.175.57 2.865.36.62.835.93 1.425.93.64 0 1.14-.335 1.5-1.005.36-.68.54-1.61.54-2.79 0-1.22-.19-2.15-.57-2.79-.35-.58-.835-.87-1.455-.87zm5.031 8.475v-1.215l2.385-2.655c.72-.8 1.205-1.42 1.455-1.86.26-.45.39-.9.39-1.35 0-.42-.15-.76-.45-1.02-.3-.26-.7-.39-1.2-.39-.6 0-1.235.22-1.905.66l-.585-.84c.89-.68 1.8-1.02 2.73-1.02.87 0 1.575.255 2.115.765.51.47.765 1.085.765 1.845 0 .49-.115.965-.345 1.425-.23.45-.63 1-1.2 1.65l-2.49 2.85h3.825V156h-5.49zm7.207 0v-1.215l2.385-2.655c.72-.8 1.205-1.42 1.455-1.86.26-.45.39-.9.39-1.35 0-.42-.15-.76-.45-1.02-.3-.26-.7-.39-1.2-.39-.6 0-1.235.22-1.905.66l-.585-.84c.89-.68 1.8-1.02 2.73-1.02.87 0 1.575.255 2.115.765.51.47.765 1.085.765 1.845 0 .49-.115.965-.345 1.425-.23.45-.63 1-1.2 1.65l-2.49 2.85h3.825V156h-5.49zM23.666 103V91.624c.168-.036.642-.084 1.422-.144.78-.06 1.374-.09 1.782-.09 2.904 0 4.356 1.188 4.356 3.564 0 1.476-.504 2.556-1.512 3.24-.672.468-1.464.702-2.376.702-.72 0-1.158-.048-1.314-.144V103h-2.358zm2.358-9.594v3.438c.312.12.702.18 1.17.18.48 0 .858-.168 1.134-.504.276-.348.414-.822.414-1.422 0-1.212-.534-1.818-1.602-1.818-.612 0-.984.042-1.116.126zm16.146 4.806c0 3.336-1.464 5.004-4.392 5.004-2.928 0-4.392-1.668-4.392-5.004v-6.606h2.376v6.93c0 1.8.672 2.7 2.016 2.7 1.368 0 2.052-.9 2.052-2.7v-6.93h2.34v6.606zM45.058 103V91.624c.168-.036.642-.084 1.422-.144.78-.06 1.374-.09 1.782-.09 2.904 0 4.356 1.188 4.356 3.564 0 1.284-.522 2.376-1.566 3.276.432.996 1.17 2.586 2.214 4.77H50.89c-.588-1.284-1.224-2.664-1.908-4.14a3.17 3.17 0 0 1-.54.036c-.528 0-.87-.048-1.026-.144V103h-2.358zm2.358-9.594v3.438c.36.108.75.162 1.17.162 1.032 0 1.548-.684 1.548-2.052 0-1.116-.534-1.674-1.602-1.674-.612 0-.984.042-1.116.126zm15.235 8.316c-.996.996-2.166 1.494-3.51 1.494-1.932 0-3.372-.72-4.32-2.16-.684-1.032-1.026-2.244-1.026-3.636 0-1.812.468-3.27 1.404-4.374.924-1.104 2.208-1.656 3.852-1.656 1.152 0 2.304.486 3.456 1.458l-.918 1.494c-.864-.624-1.65-.936-2.358-.936-.984 0-1.746.414-2.286 1.242-.468.708-.702 1.632-.702 2.772 0 1.008.276 1.872.828 2.592.588.756 1.374 1.134 2.358 1.134.648 0 1.416-.282 2.304-.846l.918 1.422zM67.138 103h-2.322V91.606h2.322v4.572h4.896v-4.572h2.358V103h-2.358v-4.932h-4.896V103zm12.985-11.394h1.98L86.297 103h-2.394c-.204-.6-.456-1.392-.756-2.376H79.06c-.168.54-.426 1.332-.774 2.376h-2.358l4.194-11.394zm1.008 3.078c-.336.948-.798 2.28-1.386 3.996h2.736a679.004 679.004 0 0 1-1.35-3.996zm13.75-2.142c-.215.324-.551.81-1.007 1.458-.96-.42-1.818-.63-2.574-.63-.996 0-1.494.372-1.494 1.116 0 .336.114.6.342.792.228.192.702.426 1.422.702 1.296.504 2.226 1.05 2.79 1.638.576.588.864 1.296.864 2.124 0 1.164-.438 2.064-1.314 2.7-.72.516-1.614.774-2.682.774-1.26 0-2.604-.456-4.032-1.368l1.044-1.458c.696.468 1.59.702 2.682.702 1.236 0 1.854-.498 1.854-1.494 0-.648-.666-1.2-1.998-1.656-2.148-.72-3.222-1.872-3.222-3.456 0-.96.36-1.722 1.08-2.286.672-.54 1.566-.81 2.682-.81 1.272 0 2.46.384 3.564 1.152zm2.307-.936h7.452v1.89h-5.094v2.682h4.248v1.89h-4.248v3.042h5.328V103h-7.686V91.606zm9.394.018c.588-.156 1.626-.234 3.114-.234 2.052 0 3.618.6 4.698 1.8.924 1.02 1.386 2.352 1.386 3.996 0 2.052-.588 3.594-1.764 4.626-1.068.936-2.556 1.404-4.464 1.404-1.2 0-2.19-.078-2.97-.234V91.624zm2.358 9.648c.24.06.54.09.9.09 2.316 0 3.474-1.368 3.474-4.104 0-1.356-.384-2.394-1.152-3.114-.624-.576-1.416-.864-2.376-.864-.276 0-.558.03-.846.09v7.902zM122.261 103V91.624c.168-.036.642-.084 1.422-.144.78-.06 1.374-.09 1.782-.09 2.904 0 4.356 1.188 4.356 3.564 0 1.476-.504 2.556-1.512 3.24-.672.468-1.464.702-2.376.702-.72 0-1.158-.048-1.314-.144V103h-2.358zm2.358-9.594v3.438c.312.12.702.18 1.17.18.48 0 .858-.168 1.134-.504.276-.348.414-.822.414-1.422 0-1.212-.534-1.818-1.602-1.818-.612 0-.984.042-1.116.126zm9.029-1.8h1.98L139.822 103h-2.394c-.204-.6-.456-1.392-.756-2.376h-4.086c-.168.54-.426 1.332-.774 2.376h-2.358l4.194-11.394zm1.008 3.078c-.336.948-.798 2.28-1.386 3.996h2.736a679.004 679.004 0 0 1-1.35-3.996zm6.695 8.316V91.624c.168-.036.642-.084 1.422-.144.78-.06 1.374-.09 1.782-.09 2.904 0 4.356 1.188 4.356 3.564 0 1.284-.522 2.376-1.566 3.276.432.996 1.17 2.586 2.214 4.77h-2.376c-.588-1.284-1.224-2.664-1.908-4.14a3.17 3.17 0 0 1-.54.036c-.528 0-.87-.048-1.026-.144V103h-2.358zm2.358-9.594v3.438c.36.108.75.162 1.17.162 1.032 0 1.548-.684 1.548-2.052 0-1.116-.534-1.674-1.602-1.674-.612 0-.984.042-1.116.126zm9.223.09h-3.294v-1.89h9.216v1.89h-3.546V103h-2.376v-9.504zm14.688-.954c-.216.324-.552.81-1.008 1.458-.96-.42-1.818-.63-2.574-.63-.996 0-1.494.372-1.494 1.116 0 .336.114.6.342.792.228.192.702.426 1.422.702 1.296.504 2.226 1.05 2.79 1.638.576.588.864 1.296.864 2.124 0 1.164-.438 2.064-1.314 2.7-.72.516-1.614.774-2.682.774-1.26 0-2.604-.456-4.032-1.368l1.044-1.458c.696.468 1.59.702 2.682.702 1.236 0 1.854-.498 1.854-1.494 0-.648-.666-1.2-1.998-1.656-2.148-.72-3.222-1.872-3.222-3.456 0-.96.36-1.722 1.08-2.286.672-.54 1.566-.81 2.682-.81 1.272 0 2.46.384 3.564 1.152z" fill="#3D4E76"/>
    <defs>
        <linearGradient id="bzuma7nuwa" x1="25.001" y1="76" x2="165" y2="76" gradientUnits="userSpaceOnUse">
            <stop stop-color="#FDBC11"/>
            <stop offset="1" stop-color="#F6931D"/>
        </linearGradient>
    </defs>
</svg>
