<svg width="215" height="340" viewBox="0 0 215 340" fill="none" xmlns="http://www.w3.org/2000/svg">
    <rect x=".5" y=".5" width="214" height="339" rx="3.5" fill="#fff" stroke="#EDEDED"/>
    <path d="m141.221 242.036-29.609 16.45M95.163 260.13l-29.609-17.341 9.832-5.688M113.257 301.011l-9.254 5.177-38.449-21.505v-26.197M140.399 260.13v21.384M102.565 273.29v19.739M103.388 263.558l14.693 8.087 37.944-20.884-14.691-8.086-10.111-5.574" stroke="#3D4E76" stroke-width="1.18" stroke-linecap="round" stroke-linejoin="round"/>
    <path d="m65.443 242.036-14.693 8.265 37.945 21.344 14.693-8.265" stroke="#3D4E76" stroke-width="1.18" stroke-linecap="round" stroke-linejoin="round"/>
    <path d="M77.051 248.614a26.248 26.248 0 0 1-1.627-9.122c0-14.947 12.52-27.064 27.964-27.064 15.444 0 27.963 12.117 27.963 27.064 0 3.203-.573 6.273-1.627 9.124" stroke="#3D4E76" stroke-width="1.18" stroke-linecap="round" stroke-linejoin="round"/>
    <path clip-rule="evenodd" d="M109.967 240.391a6.58 6.58 0 1 1-6.579-6.579 6.578 6.578 0 0 1 6.579 6.579z" stroke="#3D4E76" stroke-width="1.18" stroke-linecap="round" stroke-linejoin="round"/>
    <path clip-rule="evenodd" d="M118.192 239.569c0 7.722-6.629 13.982-14.805 13.982-8.177 0-14.804-6.26-14.804-13.982 0-7.722 6.627-13.982 14.804-13.982 8.176 0 14.805 6.26 14.805 13.982z" stroke="#3D4E76" stroke-width="1.18" stroke-linecap="round" stroke-linejoin="round"/>
    <path d="m96.808 227.232-4.935-11.515M109.967 227.232l4.935-11.515M130.5 284c8.008 0 14.5 6.268 14.5 14s-6.492 14-14.5 14-14.5-6.268-14.5-14c0-6.68 4.844-12.267 11.326-13.664M140 284a17.953 17.953 0 0 1 4 3" stroke="#3D4E76" stroke-width="1.18" stroke-linecap="round" stroke-linejoin="round"/>
    <path d="M128 285v-2.832c0-.645.487-1.168 1.088-1.168h3.823c.602 0 1.089.523 1.089 1.168V285" stroke="#3D4E76" stroke-width="1.18" stroke-linecap="round" stroke-linejoin="round"/>
    <path clip-rule="evenodd" d="M141 298.5c0 5.8-4.702 10.5-10.5 10.5-5.8 0-10.5-4.7-10.5-10.5s4.7-10.5 10.5-10.5c5.798 0 10.5 4.7 10.5 10.5z" stroke="#3D4E76" stroke-width="1.18" stroke-linecap="round" stroke-linejoin="round"/>
    <path d="m142 285-2 2M121 284a17.953 17.953 0 0 0-4 3M119 285l2 2M130.5 291v2M127.057 292l.886 2M124 295.057l2 .886M123 298.5h2M124 301.943l2-.886M127.057 305l.886-2M130.5 306v-2M134.943 305l-.886-2M138 301.943l-2-.886M139 298.5h-2M138 295.057l-2 .886M135 292l-4 7" stroke="#3D4E76" stroke-width="1.18" stroke-linecap="round" stroke-linejoin="round"/>
    <path fill-rule="evenodd" clip-rule="evenodd" d="m146.156 251.159-4.436-2.543-26.818 15.719 4.143 2.375 27.111-15.551zM62.264 251.159l4.437-2.543 26.817 15.719-4.142 2.375-27.112-15.551z" fill="#01B8B6"/>
    <path d="M50.716 60.2h-7.9v-5h7.9v-8.9h5.85v8.9h7.95v5h-7.95V69h-5.85v-8.8zm36.302-17.6h-11.05V49c.4-.167.95-.25 1.65-.25 3.667 0 6.517.917 8.55 2.75 1.933 1.767 2.9 4.183 2.9 7.25 0 3.233-1.2 5.917-3.6 8.05-2.1 1.867-4.65 2.8-7.65 2.8-4 0-7.483-1.45-10.45-4.35l2.7-4.15c2.433 1.833 4.784 2.75 7.05 2.75 3.5 0 5.25-1.567 5.25-4.7 0-3.5-2.25-5.25-6.75-5.25-1.566 0-3.617.283-6.15.85v-17.4h17.55v5.25zm24.854 0h-11.05V49c.4-.167.95-.25 1.65-.25 3.666 0 6.516.917 8.55 2.75 1.933 1.767 2.9 4.183 2.9 7.25 0 3.233-1.2 5.917-3.6 8.05-2.1 1.867-4.65 2.8-7.65 2.8-4 0-7.484-1.45-10.45-4.35l2.7-4.15c2.433 1.833 4.783 2.75 7.05 2.75 3.5 0 5.25-1.567 5.25-4.7 0-3.5-2.25-5.25-6.75-5.25-1.567 0-3.617.283-6.15.85v-17.4h17.55v5.25zm17.953-5.85c3.867 0 6.967 1.85 9.3 5.55 1.967 3.067 2.95 6.717 2.95 10.95 0 5.1-1.25 9.183-3.75 12.25-2.2 2.733-5.033 4.1-8.5 4.1-3.966 0-7.066-1.767-9.3-5.3-1.866-2.933-2.8-6.617-2.8-11.05 0-4.933 1.234-8.983 3.7-12.15 2.234-2.9 5.034-4.35 8.4-4.35zm.1 5.6c-3.6 0-5.4 3.533-5.4 10.6 0 3.567.517 6.367 1.55 8.4.934 1.833 2.167 2.75 3.7 2.75 1.7 0 3.034-.983 4-2.95 1-2 1.5-4.733 1.5-8.2 0-7.067-1.783-10.6-5.35-10.6zm24.274-5V50.4c4.4-5.967 7.6-10.317 9.6-13.05h8.05c-3.433 4.5-7.233 9.467-11.4 14.9A1428.91 1428.91 0 0 1 174.199 69h-8.7c-3.067-4.1-6.783-9.033-11.15-14.8h-.15V69h-6.2V37.35h6.2z" fill="url(#l4rfackcxa)"/>
    <path d="M45.914 160.856v-1.12h1.072v-1.024c0-1.355.619-2.032 1.856-2.032.683 0 1.318.219 1.904.656l-.48.736a2.159 2.159 0 0 0-1.104-.32c-.533 0-.8.352-.8 1.056v.928h1.936v1.12h-1.936V167h-1.376v-6.144h-1.072zm7.638-.4h.064c.502-.608 1.088-.912 1.76-.912.854 0 1.483.331 1.888.992l-1.152.72c-.352-.352-.736-.528-1.152-.528-.533 0-.981.272-1.344.816V167H52.24v-7.264h1.184l.128.72zm7.87 6.736c-1.1 0-1.99-.411-2.672-1.232-.587-.704-.88-1.563-.88-2.576 0-1.173.357-2.123 1.072-2.848.64-.661 1.46-.992 2.464-.992 1.152 0 2.058.421 2.72 1.264.544.704.816 1.563.816 2.576 0 1.163-.374 2.112-1.12 2.848-.662.64-1.462.96-2.4.96zm-.032-1.088c.64 0 1.146-.245 1.52-.736.384-.491.576-1.152.576-1.984 0-.864-.203-1.552-.608-2.064a1.775 1.775 0 0 0-1.472-.72c-.62 0-1.12.256-1.504.768-.384.512-.576 1.184-.576 2.016 0 .896.213 1.589.64 2.08.373.427.848.64 1.424.64zm6.849-5.648h.08c.544-.608 1.296-.912 2.256-.912 1.205 0 1.99.432 2.352 1.296.619-.864 1.499-1.296 2.64-1.296 1.75 0 2.624 1.035 2.624 3.104V167h-1.376v-4.048c0-.8-.144-1.371-.432-1.712-.277-.341-.747-.512-1.408-.512-.661 0-1.264.293-1.808.88.064.299.096.645.096 1.04V167h-1.376v-4.16c0-.736-.15-1.269-.448-1.6-.288-.341-.757-.512-1.408-.512-.31 0-.63.08-.96.24-.33.16-.576.352-.736.576V167h-1.376v-7.264h1.152l.128.72zM83.886 167v-1.296l2.544-2.832c.768-.853 1.285-1.515 1.552-1.984.277-.48.416-.96.416-1.44 0-.448-.16-.811-.48-1.088-.32-.277-.747-.416-1.28-.416-.64 0-1.317.235-2.032.704l-.624-.896c.95-.725 1.92-1.088 2.912-1.088.928 0 1.68.272 2.256.816.544.501.816 1.157.816 1.968a3.36 3.36 0 0 1-.368 1.52c-.245.48-.672 1.067-1.28 1.76l-2.656 3.04h4.08V167h-5.856zm11.367.192c-1.226 0-2.176-.555-2.848-1.664-.576-.939-.864-2.128-.864-3.568 0-1.611.38-2.917 1.136-3.92.672-.907 1.531-1.36 2.576-1.36 1.184 0 2.134.581 2.848 1.744.587.971.88 2.149.88 3.536 0 1.653-.373 2.965-1.12 3.936-.672.864-1.54 1.296-2.608 1.296zm0-9.232c-.682 0-1.21.341-1.584 1.024-.373.672-.56 1.632-.56 2.88 0 1.301.203 2.32.608 3.056.384.661.891.992 1.52.992.683 0 1.216-.357 1.6-1.072.384-.725.576-1.717.576-2.976 0-1.301-.202-2.293-.608-2.976-.373-.619-.89-.928-1.552-.928zm5.367 9.04v-1.296l2.544-2.832c.768-.853 1.286-1.515 1.552-1.984.278-.48.416-.96.416-1.44 0-.448-.16-.811-.48-1.088-.32-.277-.746-.416-1.28-.416-.64 0-1.317.235-2.032.704l-.624-.896c.95-.725 1.92-1.088 2.912-1.088.928 0 1.68.272 2.256.816.544.501.816 1.157.816 1.968 0 .523-.122 1.029-.368 1.52-.245.48-.672 1.067-1.28 1.76l-2.656 3.04h4.08V167h-5.856zm11.368.192c-1.227 0-2.176-.555-2.848-1.664-.576-.939-.864-2.128-.864-3.568 0-1.611.378-2.917 1.136-3.92.672-.907 1.53-1.36 2.576-1.36 1.184 0 2.133.581 2.848 1.744.586.971.88 2.149.88 3.536 0 1.653-.374 2.965-1.12 3.936-.672.864-1.542 1.296-2.608 1.296zm0-9.232c-.683 0-1.211.341-1.584 1.024-.374.672-.56 1.632-.56 2.88 0 1.301.202 2.32.608 3.056.384.661.89.992 1.52.992.682 0 1.216-.357 1.6-1.072.384-.725.576-1.717.576-2.976 0-1.301-.203-2.293-.608-2.976-.374-.619-.891-.928-1.552-.928zm11.437 2.896-.016 4.224c0 .704.267 1.056.8 1.056a2.16 2.16 0 0 0 1.104-.32l.48.736c-.587.437-1.221.656-1.904.656-1.237 0-1.856-.677-1.856-2.032v-4.32h-1.072v-1.12h1.088v-1.488l1.376-.72v2.208h2.176v1.12h-2.176zm7.2 6.336c-1.099 0-1.99-.411-2.672-1.232-.587-.704-.88-1.563-.88-2.576 0-1.173.357-2.123 1.072-2.848.64-.661 1.461-.992 2.464-.992 1.152 0 2.058.421 2.72 1.264.544.704.816 1.563.816 2.576 0 1.163-.374 2.112-1.12 2.848-.662.64-1.462.96-2.4.96zm-.032-1.088c.64 0 1.146-.245 1.52-.736.384-.491.576-1.152.576-1.984 0-.864-.203-1.552-.608-2.064a1.776 1.776 0 0 0-1.472-.72c-.619 0-1.12.256-1.504.768-.384.512-.576 1.184-.576 2.016 0 .896.213 1.589.64 2.08.373.427.848.64 1.424.64zm8.855.896v-1.296l2.544-2.832c.768-.853 1.286-1.515 1.552-1.984.278-.48.416-.96.416-1.44 0-.448-.16-.811-.48-1.088-.32-.277-.746-.416-1.28-.416-.64 0-1.317.235-2.032.704l-.624-.896c.95-.725 1.92-1.088 2.912-1.088.928 0 1.68.272 2.256.816.544.501.816 1.157.816 1.968 0 .523-.122 1.029-.368 1.52-.245.48-.672 1.067-1.28 1.76l-2.656 3.04h4.08V167h-5.856zm11.368.192c-1.227 0-2.176-.555-2.848-1.664-.576-.939-.864-2.128-.864-3.568 0-1.611.379-2.917 1.136-3.92.672-.907 1.531-1.36 2.576-1.36 1.184 0 2.133.581 2.848 1.744.587.971.88 2.149.88 3.536 0 1.653-.373 2.965-1.12 3.936-.672.864-1.541 1.296-2.608 1.296zm0-9.232c-.683 0-1.211.341-1.584 1.024-.373.672-.56 1.632-.56 2.88 0 1.301.203 2.32.608 3.056.384.661.891.992 1.52.992.683 0 1.216-.357 1.6-1.072.384-.725.576-1.717.576-2.976 0-1.301-.203-2.293-.608-2.976-.373-.619-.891-.928-1.552-.928zm5.367 9.04v-1.296l2.544-2.832c.768-.853 1.285-1.515 1.552-1.984.277-.48.416-.96.416-1.44 0-.448-.16-.811-.48-1.088-.32-.277-.747-.416-1.28-.416-.64 0-1.318.235-2.032.704l-.624-.896c.949-.725 1.92-1.088 2.912-1.088.928 0 1.68.272 2.256.816.544.501.816 1.157.816 1.968 0 .523-.123 1.029-.368 1.52-.246.48-.672 1.067-1.28 1.76l-2.656 3.04h4.08V167h-5.856zm7.687 0v-1.296l2.544-2.832c.768-.853 1.286-1.515 1.552-1.984.278-.48.416-.96.416-1.44 0-.448-.16-.811-.48-1.088-.32-.277-.746-.416-1.28-.416-.64 0-1.317.235-2.032.704l-.624-.896c.95-.725 1.92-1.088 2.912-1.088.928 0 1.68.272 2.256.816.544.501.816 1.157.816 1.968 0 .523-.122 1.029-.368 1.52-.245.48-.672 1.067-1.28 1.76l-2.656 3.04h4.08V167h-5.856zM27.684 104V91.36c.187-.04.713-.093 1.58-.16.867-.067 1.527-.1 1.98-.1 3.227 0 4.84 1.32 4.84 3.96 0 1.64-.56 2.84-1.68 3.6-.747.52-1.627.78-2.64.78-.8 0-1.287-.053-1.46-.16V104h-2.62zm2.62-10.66v3.82c.347.133.78.2 1.3.2.533 0 .953-.187 1.26-.56.307-.387.46-.913.46-1.58 0-1.347-.593-2.02-1.78-2.02-.68 0-1.093.047-1.24.14zm17.94 5.34c0 3.707-1.626 5.56-4.88 5.56-3.253 0-4.88-1.853-4.88-5.56v-7.34h2.64v7.7c0 2 .747 3 2.24 3 1.52 0 2.28-1 2.28-3v-7.7h2.6v7.34zm3.21 5.32V91.36c.186-.04.713-.093 1.58-.16.866-.067 1.526-.1 1.98-.1 3.226 0 4.84 1.32 4.84 3.96 0 1.427-.58 2.64-1.74 3.64.48 1.107 1.3 2.873 2.46 5.3h-2.64c-.654-1.427-1.36-2.96-2.12-4.6-.147.027-.347.04-.6.04-.587 0-.967-.053-1.14-.16V104h-2.62zm2.62-10.66v3.82c.4.12.833.18 1.3.18 1.146 0 1.72-.76 1.72-2.28 0-1.24-.594-1.86-1.78-1.86-.68 0-1.094.047-1.24.14zM71 102.58c-1.106 1.107-2.406 1.66-3.9 1.66-2.146 0-3.746-.8-4.8-2.4-.76-1.147-1.14-2.493-1.14-4.04 0-2.013.52-3.633 1.56-4.86 1.027-1.227 2.454-1.84 4.28-1.84 1.28 0 2.56.54 3.84 1.62l-1.02 1.66c-.96-.693-1.833-1.04-2.62-1.04-1.093 0-1.94.46-2.54 1.38-.52.787-.78 1.813-.78 3.08 0 1.12.307 2.08.92 2.88.654.84 1.527 1.26 2.62 1.26.72 0 1.574-.313 2.56-.94l1.02 1.58zm4.986 1.42h-2.58V91.34h2.58v5.08h5.44v-5.08h2.62V104h-2.62v-5.48h-5.44V104zm14.427-12.66h2.2l4.66 12.66h-2.66a91.453 91.453 0 0 1-.84-2.64h-4.54c-.186.6-.473 1.48-.86 2.64h-2.62l4.66-12.66zm1.12 3.42a477.025 477.025 0 0 0-1.54 4.44h3.04c-.626-1.84-1.126-3.32-1.5-4.44zm15.279-2.38c-.24.36-.613.9-1.12 1.62-1.067-.467-2.02-.7-2.86-.7-1.107 0-1.66.413-1.66 1.24 0 .373.127.667.38.88.253.213.78.473 1.58.78 1.44.56 2.473 1.167 3.1 1.82.64.653.96 1.44.96 2.36 0 1.293-.487 2.293-1.46 3-.8.573-1.793.86-2.98.86-1.4 0-2.893-.507-4.48-1.52l1.16-1.62c.773.52 1.767.78 2.98.78 1.373 0 2.06-.553 2.06-1.66 0-.72-.74-1.333-2.22-1.84-2.387-.8-3.58-2.08-3.58-3.84 0-1.067.4-1.913 1.2-2.54.747-.6 1.74-.9 2.98-.9 1.413 0 2.733.427 3.96 1.28zm2.563-1.04h8.28v2.1h-5.66v2.98h4.72v2.1h-4.72v3.38h5.92v2.1h-8.54V91.34zm10.437.02c.653-.173 1.807-.26 3.46-.26 2.28 0 4.02.667 5.22 2 1.027 1.133 1.54 2.613 1.54 4.44 0 2.28-.653 3.993-1.96 5.14-1.187 1.04-2.84 1.56-4.96 1.56-1.333 0-2.433-.087-3.3-.26V91.36zm2.62 10.72c.267.067.6.1 1 .1 2.573 0 3.86-1.52 3.86-4.56 0-1.507-.427-2.66-1.28-3.46-.693-.64-1.573-.96-2.64-.96-.307 0-.62.033-.94.1v8.78zm14.802 1.92V91.36c.186-.04.713-.093 1.58-.16a27.89 27.89 0 0 1 1.98-.1c3.226 0 4.84 1.32 4.84 3.96 0 1.64-.56 2.84-1.68 3.6-.747.52-1.627.78-2.64.78-.8 0-1.287-.053-1.46-.16V104h-2.62zm2.62-10.66v3.82c.346.133.78.2 1.3.2.533 0 .953-.187 1.26-.56.306-.387.46-.913.46-1.58 0-1.347-.594-2.02-1.78-2.02-.68 0-1.094.047-1.24.14zm10.032-2h2.2l4.66 12.66h-2.66a89.597 89.597 0 0 1-.84-2.64h-4.54c-.187.6-.473 1.48-.86 2.64h-2.62l4.66-12.66zm1.12 3.42a477.025 477.025 0 0 0-1.54 4.44h3.04c-.627-1.84-1.127-3.32-1.5-4.44zm7.439 9.24V91.36c.186-.04.713-.093 1.58-.16a27.89 27.89 0 0 1 1.98-.1c3.226 0 4.84 1.32 4.84 3.96 0 1.427-.58 2.64-1.74 3.64.48 1.107 1.3 2.873 2.46 5.3h-2.64c-.654-1.427-1.36-2.96-2.12-4.6-.147.027-.347.04-.6.04-.587 0-.967-.053-1.14-.16V104h-2.62zm2.62-10.66v3.82c.4.12.833.18 1.3.18 1.146 0 1.72-.76 1.72-2.28 0-1.24-.594-1.86-1.78-1.86-.68 0-1.094.047-1.24.14zm10.248.1h-3.66v-2.1h10.24v2.1h-3.94V104h-2.64V93.44zm16.319-1.06c-.24.36-.613.9-1.12 1.62-1.066-.467-2.02-.7-2.86-.7-1.106 0-1.66.413-1.66 1.24 0 .373.127.667.38.88.254.213.78.473 1.58.78 1.44.56 2.474 1.167 3.1 1.82.64.653.96 1.44.96 2.36 0 1.293-.486 2.293-1.46 3-.8.573-1.793.86-2.98.86-1.4 0-2.893-.507-4.48-1.52l1.16-1.62c.774.52 1.767.78 2.98.78 1.374 0 2.06-.553 2.06-1.66 0-.72-.74-1.333-2.22-1.84-2.386-.8-3.58-2.08-3.58-3.84 0-1.067.4-1.913 1.2-2.54.747-.6 1.74-.9 2.98-.9 1.414 0 2.734.427 3.96 1.28z" fill="#3D4E76"/>
    <defs>
        <linearGradient id="l4rfackcxa" x1="41.001" y1="80" x2="174" y2="80" gradientUnits="userSpaceOnUse">
            <stop stop-color="#FDBC11"/>
            <stop offset="1" stop-color="#F6931D"/>
        </linearGradient>
    </defs>
</svg>
