<svg width="343" height="232" viewBox="0 0 343 232" fill="none" xmlns="http://www.w3.org/2000/svg">
    <g clip-path="url(#n38z7h283a)">
        <rect width="343" height="231.492" rx="7" transform="matrix(-1 0 0 1 343 .46)" fill="#fff" stroke="#E9E9E9" stroke-width="1.4"/>
        <mask id="o3ce0lrupb" style="mask-type:luminance" maskUnits="userSpaceOnUse" x="-1" y="-1" width="345" height="234">
            <rect width="343" height="231.492" rx="7" transform="matrix(-1 0 0 1 343 .46)" fill="#fff" stroke="#fff" stroke-width="1.4"/>
        </mask>
        <g mask="url(#o3ce0lrupb)">
            <path d="M51.51 111.418v-10.112a17.789 17.789 0 0 1 2.592-.208c2.454 0 3.68 1.035 3.68 3.104 0 1.12-.373 1.968-1.12 2.544-.608.469-1.386.704-2.336.704a7.66 7.66 0 0 1-1.328-.112v4.08H51.51zm1.488-9.024v3.744c.427.075.87.112 1.328.112 1.259 0 1.888-.683 1.888-2.048 0-1.28-.677-1.92-2.032-1.92-.49 0-.885.037-1.184.112zm7.028 9.024v-10.112a17.789 17.789 0 0 1 2.592-.208c2.453 0 3.68 1.035 3.68 3.104 0 1.344-.555 2.293-1.664 2.848l2.016 4.368h-1.504l-1.824-4a4.357 4.357 0 0 1-.608.032c-.373 0-.773-.037-1.2-.112v4.08h-1.488zm1.488-9.024v3.744c.427.075.827.112 1.2.112 1.344 0 2.016-.683 2.016-2.048 0-1.28-.677-1.92-2.032-1.92-.49 0-.885.037-1.184.112zm8.453-1.104v10.128h-1.472V101.29h1.472zm9.735 9.152c-.896.779-1.872 1.168-2.928 1.168-1.536 0-2.725-.592-3.568-1.776-.661-.939-.992-2.064-.992-3.376 0-1.493.41-2.768 1.232-3.824.81-1.024 1.84-1.536 3.088-1.536 1.11 0 2.123.368 3.04 1.104l-.592.896c-.725-.48-1.445-.72-2.16-.72-.97 0-1.733.4-2.288 1.2-.501.725-.752 1.685-.752 2.88 0 1.184.315 2.133.944 2.848.576.661 1.323.992 2.24.992.693 0 1.408-.251 2.144-.752l.592.896zm2.118-9.152h6.176v1.232h-4.688v3.024h3.936v1.232h-3.936v3.408h4.896v1.232H81.82V101.29zm8.55.016c.8-.139 1.648-.208 2.544-.208 1.76 0 3.109.528 4.048 1.584.8.896 1.2 2.085 1.2 3.568 0 1.803-.502 3.173-1.504 4.112-.886.832-2.102 1.248-3.648 1.248-.96 0-1.84-.069-2.64-.208v-10.096zm1.488 9.008c.341.075.725.112 1.152.112 1.205 0 2.117-.384 2.736-1.152.565-.704.848-1.691.848-2.96 0-1.365-.395-2.411-1.184-3.136-.64-.597-1.456-.896-2.448-.896-.438 0-.806.037-1.104.112v7.92zm12.277 1.104v-10.112a17.795 17.795 0 0 1 2.592-.208c2.454 0 3.68 1.035 3.68 3.104 0 1.12-.373 1.968-1.12 2.544-.608.469-1.386.704-2.336.704-.458 0-.901-.037-1.328-.112v4.08h-1.488zm1.488-9.024v3.744c.427.075.87.112 1.328.112 1.259 0 1.888-.683 1.888-2.048 0-1.28-.677-1.92-2.032-1.92-.49 0-.885.037-1.184.112zm8.445-1.104h1.408l3.664 10.128h-1.52l-.768-2.288h-4.144l-.784 2.288h-1.52l3.664-10.128zm.704 1.792-1.648 4.816h3.296l-1.648-4.816zm6.051 8.336v-10.112a17.774 17.774 0 0 1 2.592-.208c2.453 0 3.68 1.035 3.68 3.104 0 1.344-.555 2.293-1.664 2.848l2.016 4.368h-1.504l-1.824-4a4.368 4.368 0 0 1-.608.032c-.374 0-.774-.037-1.2-.112v4.08h-1.488zm1.488-9.024v3.744c.426.075.826.112 1.2.112 1.344 0 2.016-.683 2.016-2.048 0-1.28-.678-1.92-2.032-1.92-.491 0-.886.037-1.184.112zm8.981.128h-3.04v-1.232h7.808v1.232h-3.28v8.896h-1.488v-8.896zm11.601.384c-.725-.363-1.456-.544-2.192-.544-.523 0-.949.123-1.28.368-.331.235-.496.539-.496.912 0 .672.443 1.173 1.328 1.504 1.323.491 2.261 1.008 2.816 1.552.555.533.832 1.195.832 1.984 0 .96-.368 1.712-1.104 2.256-.597.448-1.339.672-2.224.672-1.056 0-2.155-.363-3.296-1.088l.64-.912c.715.437 1.547.656 2.496.656 1.301 0 1.952-.549 1.952-1.648 0-.853-.549-1.467-1.648-1.84-1.152-.395-1.989-.832-2.512-1.312-.512-.48-.768-1.061-.768-1.744 0-.811.315-1.461.944-1.952.576-.448 1.333-.672 2.272-.672 1.056 0 2.016.299 2.88.896l-.64.912z" fill="#3D4E76"/>
            <path d="m217.369 69.653-7.438 2.18c-4.205 1.232-7.585 4.268-9.158 8.237-2.609 6.575-6.078 16.936-7.811 24.321-2.15 9.158-3.643 15.089-3.643 28.374M217.936 96.562c.012 2.719 2.844 4.378 5.063 2.755 6.711-4.89 10.495-10.019 13.303-13.67 1.71-2.242 4.953-2.634 7.134-.845.05.046.097.082.158.13 2.567 2.23 2.301 4.39-.013 7.873-2.073 3.114-4.783 6.548-6.472 9.185-1.722 2.671-3.071 5.534-4.265 8.482-3.796 9.351-9.883 13.358-14.137 15.064-2.953 1.192-4.844 4.067-4.844 7.217v.012M226.135 132.765h67.372c4.426 0 8.012-3.68 8.012-8.221v-5.804" stroke="#3D4E76" stroke-width="1.457" stroke-linecap="round" stroke-linejoin="round"/>
            <path d="M301.519 120.493v-87.75c0-4.79-3.996-8.672-8.927-8.672h-66.295c-4.931 0-8.928 3.882-8.928 8.671v64.554" stroke="#3D4E76" stroke-width="1.457" stroke-linecap="round" stroke-linejoin="round"/>
            <path d="M243.666 24.071v4.16c0 2.545 2.189 4.606 4.891 4.606h21.775c2.702 0 4.891-2.061 4.891-4.606v-4.16" stroke="#3D4E76" stroke-width="1.457" stroke-linecap="round" stroke-linejoin="round"/>
            <path clip-rule="evenodd" d="M258.568 60.887 240.16 50.368l18.408-10.519 18.408 10.52-18.408 10.518z" stroke="#3D4E76" stroke-width="1.457" stroke-linecap="round" stroke-linejoin="round"/>
            <path fill-rule="evenodd" clip-rule="evenodd" d="m250.679 51.245 7.889-4.383 7.889 4.383-7.889 4.382-7.889-4.382z" fill="#01B8B6"/>
            <path d="M276.976 50.368v21.038l-18.409 10.518-18.407-10.518V50.368M258.568 60.887v14.025M248.926 100.332h26.296M243.666 114.357h31.557" stroke="#3D4E76" stroke-width="1.457" stroke-linecap="round" stroke-linejoin="round"/>
            <path d="M28.7 79.138h-4.74v-3h4.74v-5.34h3.51v5.34h4.77v3h-4.77v5.28H28.7v-5.28zm10.441 5.28v-3.33c.48-.54 1.12-1.27 1.92-2.19 1.26-1.4 2.19-2.46 2.79-3.18 1.34-1.6 2.18-2.69 2.52-3.27.34-.6.51-1.26.51-1.98 0-.6-.22-1.1-.66-1.5-.44-.4-1-.6-1.68-.6-1.18 0-2.48.48-3.9 1.44l-1.65-2.4c2-1.58 4.09-2.37 6.27-2.37 1.74 0 3.13.47 4.17 1.41 1.02.92 1.53 2.19 1.53 3.81 0 1.2-.4 2.46-1.2 3.78-.78 1.3-2.31 3.24-4.59 5.82-.56.64-.97 1.11-1.23 1.41h6.81v3.15h-11.61zm14.605 3.15-.96-1.77c.88-.34 1.32-.8 1.32-1.38-.96 0-1.44-.57-1.44-1.71 0-.58.19-1.06.57-1.44.4-.38.91-.57 1.53-.57s1.13.25 1.53.75c.4.48.6 1.09.6 1.83 0 1.06-.3 1.99-.9 2.79-.58.8-1.33 1.3-2.25 1.5zm14.214-12.81c2.62.7 3.93 2.32 3.93 4.86 0 1.74-.74 3.08-2.22 4.02-1.22.76-2.73 1.14-4.53 1.14-2.1 0-3.78-.5-5.04-1.5-1.18-.92-1.77-2.15-1.77-3.69 0-1.44.51-2.64 1.53-3.6.76-.72 1.61-1.14 2.55-1.26-2.18-.66-3.27-2.05-3.27-4.17 0-1.8.7-3.21 2.1-4.23 1.12-.84 2.49-1.26 4.11-1.26 1.84 0 3.35.56 4.53 1.68 1.1 1.06 1.65 2.4 1.65 4.02 0 .94-.34 1.78-1.02 2.52-.66.74-1.51 1.23-2.55 1.47zm-2.67-1.38c.68-.2 1.24-.57 1.68-1.11.44-.56.66-1.15.66-1.77 0-.72-.21-1.3-.63-1.74-.4-.44-.92-.66-1.56-.66-.74 0-1.34.23-1.8.69-.44.44-.66 1.03-.66 1.77 0 1.36.77 2.3 2.31 2.82zm.09 2.7c-.9.22-1.62.63-2.16 1.23-.54.58-.81 1.25-.81 2.01 0 .7.26 1.28.78 1.74.52.44 1.18.66 1.98.66.76 0 1.38-.21 1.86-.63.5-.44.75-1 .75-1.68 0-.76-.23-1.45-.69-2.07a3.247 3.247 0 0 0-1.71-1.26zm16.06-11.01c2.32 0 4.18 1.11 5.58 3.33 1.18 1.84 1.77 4.03 1.77 6.57 0 3.06-.75 5.51-2.25 7.35-1.32 1.64-3.02 2.46-5.1 2.46-2.38 0-4.24-1.06-5.58-3.18-1.12-1.76-1.68-3.97-1.68-6.63 0-2.96.74-5.39 2.22-7.29 1.34-1.74 3.02-2.61 5.04-2.61zm.06 3.36c-2.16 0-3.24 2.12-3.24 6.36 0 2.14.31 3.82.93 5.04.56 1.1 1.3 1.65 2.22 1.65 1.02 0 1.82-.59 2.4-1.77.6-1.2.9-2.84.9-4.92 0-4.24-1.07-6.36-3.21-6.36zm16.843-3.36c2.32 0 4.18 1.11 5.58 3.33 1.18 1.84 1.77 4.03 1.77 6.57 0 3.06-.75 5.51-2.25 7.35-1.32 1.64-3.02 2.46-5.1 2.46-2.38 0-4.24-1.06-5.58-3.18-1.12-1.76-1.68-3.97-1.68-6.63 0-2.96.74-5.39 2.22-7.29 1.34-1.74 3.02-2.61 5.04-2.61zm.06 3.36c-2.16 0-3.24 2.12-3.24 6.36 0 2.14.31 3.82.93 5.04.56 1.1 1.3 1.65 2.22 1.65 1.02 0 1.82-.59 2.4-1.77.6-1.2.9-2.84.9-4.92 0-4.24-1.07-6.36-3.21-6.36zm10.275 19.14-.96-1.77c.88-.34 1.32-.8 1.32-1.38-.96 0-1.44-.57-1.44-1.71 0-.58.19-1.06.57-1.44.4-.38.91-.57 1.53-.57s1.13.25 1.53.75c.4.48.6 1.09.6 1.83 0 1.06-.3 1.99-.9 2.79-.58.8-1.33 1.3-2.25 1.5zm11.843-22.5c2.32 0 4.18 1.11 5.58 3.33 1.18 1.84 1.77 4.03 1.77 6.57 0 3.06-.75 5.51-2.25 7.35-1.32 1.64-3.02 2.46-5.1 2.46-2.38 0-4.24-1.06-5.58-3.18-1.12-1.76-1.68-3.97-1.68-6.63 0-2.96.74-5.39 2.22-7.29 1.34-1.74 3.02-2.61 5.04-2.61zm.06 3.36c-2.16 0-3.24 2.12-3.24 6.36 0 2.14.31 3.82.93 5.04.56 1.1 1.3 1.65 2.22 1.65 1.02 0 1.82-.59 2.4-1.77.6-1.2.9-2.84.9-4.92 0-4.24-1.07-6.36-3.21-6.36zm16.844-3.36c2.32 0 4.18 1.11 5.58 3.33 1.18 1.84 1.77 4.03 1.77 6.57 0 3.06-.75 5.51-2.25 7.35-1.32 1.64-3.02 2.46-5.1 2.46-2.38 0-4.24-1.06-5.58-3.18-1.12-1.76-1.68-3.97-1.68-6.63 0-2.96.74-5.39 2.22-7.29 1.34-1.74 3.02-2.61 5.04-2.61zm.06 3.36c-2.16 0-3.24 2.12-3.24 6.36 0 2.14.31 3.82.93 5.04.56 1.1 1.3 1.65 2.22 1.65 1.02 0 1.82-.59 2.4-1.77.6-1.2.9-2.84.9-4.92 0-4.24-1.07-6.36-3.21-6.36zm16.845-3.36c2.32 0 4.18 1.11 5.58 3.33 1.18 1.84 1.77 4.03 1.77 6.57 0 3.06-.75 5.51-2.25 7.35-1.32 1.64-3.02 2.46-5.1 2.46-2.38 0-4.24-1.06-5.58-3.18-1.12-1.76-1.68-3.97-1.68-6.63 0-2.96.74-5.39 2.22-7.29 1.34-1.74 3.02-2.61 5.04-2.61zm.06 3.36c-2.16 0-3.24 2.12-3.24 6.36 0 2.14.31 3.82.93 5.04.56 1.1 1.3 1.65 2.22 1.65 1.02 0 1.82-.59 2.4-1.77.6-1.2.9-2.84.9-4.92 0-4.24-1.07-6.36-3.21-6.36z" fill="url(#9liyxb4ewc)"/>
            <path d="M110.546 206.461v-10.128h6.176v1.232h-4.688v3.04h3.936v1.232h-3.936v4.624h-1.488zm10.571.192c-1.099 0-1.989-.411-2.672-1.232-.587-.704-.88-1.563-.88-2.576 0-1.173.357-2.123 1.072-2.848.64-.661 1.461-.992 2.464-.992 1.152 0 2.059.421 2.72 1.264.544.704.816 1.563.816 2.576 0 1.163-.373 2.112-1.12 2.848-.661.64-1.461.96-2.4.96zm-.032-1.088c.64 0 1.147-.245 1.52-.736.384-.491.576-1.152.576-1.984 0-.864-.203-1.552-.608-2.064a1.775 1.775 0 0 0-1.472-.72c-.619 0-1.12.256-1.504.768-.384.512-.576 1.184-.576 2.016 0 .896.213 1.589.64 2.08.373.427.848.64 1.424.64zm6.881-5.648h.064c.502-.608 1.088-.912 1.76-.912.854 0 1.483.331 1.888.992l-1.152.72c-.352-.352-.736-.528-1.152-.528-.533 0-.981.272-1.344.816v5.456h-1.376v-7.264h1.184l.128.72zm6.328 0h.08c.544-.608 1.296-.912 2.256-.912 1.205 0 1.989.432 2.352 1.296.618-.864 1.498-1.296 2.64-1.296 1.749 0 2.624 1.035 2.624 3.104v4.352h-1.376v-4.048c0-.8-.144-1.371-.432-1.712-.278-.341-.747-.512-1.408-.512-.662 0-1.264.293-1.808.88.064.299.096.645.096 1.04v4.352h-1.376v-4.16c0-.736-.15-1.269-.448-1.6-.288-.341-.758-.512-1.408-.512-.31 0-.63.08-.96.24-.331.16-.576.352-.736.576v5.456h-1.376v-7.264h1.152l.128.72zm15.647 6.544v-1.296l2.544-2.832c.768-.853 1.285-1.515 1.552-1.984.277-.48.416-.96.416-1.44 0-.448-.16-.811-.48-1.088-.32-.277-.747-.416-1.28-.416-.64 0-1.318.235-2.032.704l-.624-.896c.949-.725 1.92-1.088 2.912-1.088.928 0 1.68.272 2.256.816.544.501.816 1.157.816 1.968 0 .523-.123 1.029-.368 1.52-.246.48-.672 1.067-1.28 1.76l-2.656 3.04h4.08v1.232h-5.856zm11.367.192c-1.227 0-2.176-.555-2.848-1.664-.576-.939-.864-2.128-.864-3.568 0-1.611.379-2.917 1.136-3.92.672-.907 1.531-1.36 2.576-1.36 1.184 0 2.133.581 2.848 1.744.587.971.88 2.149.88 3.536 0 1.653-.373 2.965-1.12 3.936-.672.864-1.541 1.296-2.608 1.296zm0-9.232c-.683 0-1.211.341-1.584 1.024-.373.672-.56 1.632-.56 2.88 0 1.301.203 2.32.608 3.056.384.661.891.992 1.52.992.683 0 1.216-.357 1.6-1.072.384-.725.576-1.717.576-2.976 0-1.301-.203-2.293-.608-2.976-.373-.619-.891-.928-1.552-.928zm5.367 9.04v-1.296l2.544-2.832c.768-.853 1.285-1.515 1.552-1.984.277-.48.416-.96.416-1.44 0-.448-.16-.811-.48-1.088-.32-.277-.747-.416-1.28-.416-.64 0-1.317.235-2.032.704l-.624-.896c.949-.725 1.92-1.088 2.912-1.088.928 0 1.68.272 2.256.816.544.501.816 1.157.816 1.968 0 .523-.123 1.029-.368 1.52-.245.48-.672 1.067-1.28 1.76l-2.656 3.04h4.08v1.232h-5.856zm11.448-10.128v10.128h-1.488v-8.496l-1.872 1.088-.72-1.104 2.592-1.616h1.488zm8.31 3.984-.016 4.224c0 .704.267 1.056.8 1.056a2.16 2.16 0 0 0 1.104-.32l.48.736c-.587.437-1.221.656-1.904.656-1.237 0-1.856-.677-1.856-2.032v-4.32h-1.072v-1.12h1.088v-1.488l1.376-.72v2.208h2.176v1.12h-2.176zm7.2 6.336c-1.099 0-1.99-.411-2.672-1.232-.587-.704-.88-1.563-.88-2.576 0-1.173.357-2.123 1.072-2.848.64-.661 1.461-.992 2.464-.992 1.152 0 2.058.421 2.72 1.264.544.704.816 1.563.816 2.576 0 1.163-.374 2.112-1.12 2.848-.662.64-1.462.96-2.4.96zm-.032-1.088c.64 0 1.146-.245 1.52-.736.384-.491.576-1.152.576-1.984 0-.864-.203-1.552-.608-2.064a1.776 1.776 0 0 0-1.472-.72c-.619 0-1.12.256-1.504.768-.384.512-.576 1.184-.576 2.016 0 .896.213 1.589.64 2.08.373.427.848.64 1.424.64zm8.855.896v-1.296l2.544-2.832c.768-.853 1.286-1.515 1.552-1.984.278-.48.416-.96.416-1.44 0-.448-.16-.811-.48-1.088-.32-.277-.746-.416-1.28-.416-.64 0-1.317.235-2.032.704l-.624-.896c.95-.725 1.92-1.088 2.912-1.088.928 0 1.68.272 2.256.816.544.501.816 1.157.816 1.968 0 .523-.122 1.029-.368 1.52-.245.48-.672 1.067-1.28 1.76l-2.656 3.04h4.08v1.232h-5.856zm11.368.192c-1.227 0-2.176-.555-2.848-1.664-.576-.939-.864-2.128-.864-3.568 0-1.611.378-2.917 1.136-3.92.672-.907 1.53-1.36 2.576-1.36 1.184 0 2.133.581 2.848 1.744.586.971.88 2.149.88 3.536 0 1.653-.374 2.965-1.12 3.936-.672.864-1.542 1.296-2.608 1.296zm0-9.232c-.683 0-1.211.341-1.584 1.024-.374.672-.56 1.632-.56 2.88 0 1.301.202 2.32.608 3.056.384.661.89.992 1.52.992.682 0 1.216-.357 1.6-1.072.384-.725.576-1.717.576-2.976 0-1.301-.203-2.293-.608-2.976-.374-.619-.891-.928-1.552-.928zm5.367 9.04v-1.296l2.544-2.832c.768-.853 1.285-1.515 1.552-1.984.277-.48.416-.96.416-1.44 0-.448-.16-.811-.48-1.088-.32-.277-.747-.416-1.28-.416-.64 0-1.318.235-2.032.704l-.624-.896c.949-.725 1.92-1.088 2.912-1.088.928 0 1.68.272 2.256.816.544.501.816 1.157.816 1.968 0 .523-.123 1.029-.368 1.52-.246.48-.672 1.067-1.28 1.76l-2.656 3.04h4.08v1.232h-5.856zm7.687 0v-1.296l2.544-2.832c.768-.853 1.285-1.515 1.552-1.984.277-.48.416-.96.416-1.44 0-.448-.16-.811-.48-1.088-.32-.277-.747-.416-1.28-.416-.64 0-1.317.235-2.032.704l-.624-.896c.949-.725 1.92-1.088 2.912-1.088.928 0 1.68.272 2.256.816.544.501.816 1.157.816 1.968 0 .523-.123 1.029-.368 1.52-.245.48-.672 1.067-1.28 1.76l-2.656 3.04h4.08v1.232h-5.856z" fill="#3D4E76"/>
            <path d="M-272.574-132.757a150.447 150.447 0 0 0-60.649-12.717c-86.175 0-156.037 72.473-156.037 161.867 0 89.398 69.862 161.867 156.037 161.867 57.753 0 108.064-32.635 135.046-81.019 41.362 49.542 102.308 81.019 170.447 81.019 47.464 0 91.45-15.273 127.787-41.243 30.912 25.753 70.112 41.243 112.855 41.243 99.669 0 180.476-83.818 180.476-187.215 0-103.405-80.807-187.223-180.476-187.223a174.479 174.479 0 0 0-54.243 8.631C118.048-249.253 49.734-289.789-27.73-289.789c-48.848 0-94.022 16.13-130.898 43.529" stroke="url(#hrzk79sw2d)" stroke-width="1.935" stroke-linecap="round" stroke-linejoin="round"/>
        </g>
    </g>
    <defs>
        <linearGradient id="9liyxb4ewc" x1="23.002" y1="89.418" x2="172" y2="89.418" gradientUnits="userSpaceOnUse">
            <stop stop-color="#FDBC11"/>
            <stop offset="1" stop-color="#F6931D"/>
        </linearGradient>
        <linearGradient id="hrzk79sw2d" x1="-469.099" y1="-88.133" x2="339.273" y2="-150.066" gradientUnits="userSpaceOnUse">
            <stop stop-color="#1C6FC4"/>
            <stop offset="1" stop-color="#01B8B6"/>
        </linearGradient>
        <clipPath id="n38z7h283a">
            <path fill="#fff" transform="matrix(-1 0 0 1 343 .46)" d="M0 0h343v231.492H0z"/>
        </clipPath>
    </defs>
</svg>
