<svg width="215" height="340" viewBox="0 0 215 340" fill="none" xmlns="http://www.w3.org/2000/svg">
    <rect x=".5" y=".5" width="214" height="339" rx="3.5" fill="#fff" stroke="#EDEDED"/>
    <path d="m141.221 242.036-29.609 16.45M95.163 260.13l-29.609-17.341 9.832-5.688M113.257 301.011l-9.254 5.177-38.449-21.505v-26.197M140.399 260.13v21.384M102.565 273.29v19.739M103.388 263.558l14.693 8.087 37.944-20.884-14.691-8.086-10.111-5.574" stroke="#3D4E76" stroke-width="1.18" stroke-linecap="round" stroke-linejoin="round"/>
    <path d="m65.443 242.036-14.693 8.265 37.945 21.344 14.693-8.265" stroke="#3D4E76" stroke-width="1.18" stroke-linecap="round" stroke-linejoin="round"/>
    <path d="M77.051 248.614a26.248 26.248 0 0 1-1.627-9.122c0-14.947 12.52-27.064 27.964-27.064 15.444 0 27.963 12.117 27.963 27.064 0 3.203-.573 6.273-1.627 9.124" stroke="#3D4E76" stroke-width="1.18" stroke-linecap="round" stroke-linejoin="round"/>
    <path clip-rule="evenodd" d="M109.967 240.391a6.58 6.58 0 1 1-6.579-6.579 6.578 6.578 0 0 1 6.579 6.579z" stroke="#3D4E76" stroke-width="1.18" stroke-linecap="round" stroke-linejoin="round"/>
    <path clip-rule="evenodd" d="M118.192 239.569c0 7.722-6.629 13.982-14.805 13.982-8.177 0-14.804-6.26-14.804-13.982 0-7.722 6.627-13.982 14.804-13.982 8.176 0 14.805 6.26 14.805 13.982z" stroke="#3D4E76" stroke-width="1.18" stroke-linecap="round" stroke-linejoin="round"/>
    <path d="m96.808 227.232-4.935-11.515M109.967 227.232l4.935-11.515M130.5 284c8.008 0 14.5 6.268 14.5 14s-6.492 14-14.5 14-14.5-6.268-14.5-14c0-6.68 4.844-12.267 11.326-13.664M140 284a17.953 17.953 0 0 1 4 3" stroke="#3D4E76" stroke-width="1.18" stroke-linecap="round" stroke-linejoin="round"/>
    <path d="M128 285v-2.832c0-.645.487-1.168 1.088-1.168h3.823c.602 0 1.089.523 1.089 1.168V285" stroke="#3D4E76" stroke-width="1.18" stroke-linecap="round" stroke-linejoin="round"/>
    <path clip-rule="evenodd" d="M141 298.5c0 5.8-4.702 10.5-10.5 10.5-5.8 0-10.5-4.7-10.5-10.5s4.7-10.5 10.5-10.5c5.798 0 10.5 4.7 10.5 10.5z" stroke="#3D4E76" stroke-width="1.18" stroke-linecap="round" stroke-linejoin="round"/>
    <path d="m142 285-2 2M121 284a17.953 17.953 0 0 0-4 3M119 285l2 2M130.5 291v2M127.057 292l.886 2M124 295.057l2 .886M123 298.5h2M124 301.943l2-.886M127.057 305l.886-2M130.5 306v-2M134.943 305l-.886-2M138 301.943l-2-.886M139 298.5h-2M138 295.057l-2 .886M135 292l-4 7" stroke="#3D4E76" stroke-width="1.18" stroke-linecap="round" stroke-linejoin="round"/>
    <path fill-rule="evenodd" clip-rule="evenodd" d="m146.156 251.159-4.436-2.543-26.818 15.719 4.143 2.375 27.111-15.551zM62.264 251.159l4.437-2.543 26.817 15.719-4.142 2.375-27.112-15.551z" fill="#01B8B6"/>
    <path d="M50.716 60.2h-7.9v-5h7.9v-8.9h5.85v8.9h7.95v5h-7.95V69h-5.85v-8.8zm36.302-17.6h-11.05V49c.4-.167.95-.25 1.65-.25 3.667 0 6.517.917 8.55 2.75 1.933 1.767 2.9 4.183 2.9 7.25 0 3.233-1.2 5.917-3.6 8.05-2.1 1.867-4.65 2.8-7.65 2.8-4 0-7.483-1.45-10.45-4.35l2.7-4.15c2.433 1.833 4.784 2.75 7.05 2.75 3.5 0 5.25-1.567 5.25-4.7 0-3.5-2.25-5.25-6.75-5.25-1.566 0-3.617.283-6.15.85v-17.4h17.55v5.25zm24.854 0h-11.05V49c.4-.167.95-.25 1.65-.25 3.666 0 6.516.917 8.55 2.75 1.933 1.767 2.9 4.183 2.9 7.25 0 3.233-1.2 5.917-3.6 8.05-2.1 1.867-4.65 2.8-7.65 2.8-4 0-7.484-1.45-10.45-4.35l2.7-4.15c2.433 1.833 4.783 2.75 7.05 2.75 3.5 0 5.25-1.567 5.25-4.7 0-3.5-2.25-5.25-6.75-5.25-1.567 0-3.617.283-6.15.85v-17.4h17.55v5.25zm17.953-5.85c3.867 0 6.967 1.85 9.3 5.55 1.967 3.067 2.95 6.717 2.95 10.95 0 5.1-1.25 9.183-3.75 12.25-2.2 2.733-5.033 4.1-8.5 4.1-3.966 0-7.066-1.767-9.3-5.3-1.866-2.933-2.8-6.617-2.8-11.05 0-4.933 1.234-8.983 3.7-12.15 2.234-2.9 5.034-4.35 8.4-4.35zm.1 5.6c-3.6 0-5.4 3.533-5.4 10.6 0 3.567.517 6.367 1.55 8.4.934 1.833 2.167 2.75 3.7 2.75 1.7 0 3.034-.983 4-2.95 1-2 1.5-4.733 1.5-8.2 0-7.067-1.783-10.6-5.35-10.6zm24.274-5V50.4c4.4-5.967 7.6-10.317 9.6-13.05h8.05c-3.433 4.5-7.233 9.467-11.4 14.9A1428.91 1428.91 0 0 1 174.199 69h-8.7c-3.067-4.1-6.783-9.033-11.15-14.8h-.15V69h-6.2V37.35h6.2z" fill="url(#9pa1w5x12a)"/>
    <path d="M49.823 167v-1.296l2.544-2.832c.768-.853 1.286-1.515 1.552-1.984.278-.48.416-.96.416-1.44 0-.448-.16-.811-.48-1.088-.32-.277-.746-.416-1.28-.416-.64 0-1.317.235-2.032.704l-.624-.896c.95-.725 1.92-1.088 2.912-1.088.928 0 1.68.272 2.256.816.544.501.816 1.157.816 1.968a3.36 3.36 0 0 1-.368 1.52c-.245.48-.672 1.067-1.28 1.76l-2.656 3.04h4.08V167h-5.856zm11.368.192c-1.227 0-2.176-.555-2.848-1.664-.576-.939-.864-2.128-.864-3.568 0-1.611.379-2.917 1.136-3.92.672-.907 1.53-1.36 2.576-1.36 1.184 0 2.133.581 2.848 1.744.587.971.88 2.149.88 3.536 0 1.653-.373 2.965-1.12 3.936-.672.864-1.541 1.296-2.608 1.296zm0-9.232c-.683 0-1.21.341-1.584 1.024-.373.672-.56 1.632-.56 2.88 0 1.301.203 2.32.608 3.056.384.661.89.992 1.52.992.683 0 1.216-.357 1.6-1.072.384-.725.576-1.717.576-2.976 0-1.301-.203-2.293-.608-2.976-.373-.619-.89-.928-1.552-.928zm5.367 9.04v-1.296l2.544-2.832c.768-.853 1.285-1.515 1.552-1.984.277-.48.416-.96.416-1.44 0-.448-.16-.811-.48-1.088-.32-.277-.747-.416-1.28-.416-.64 0-1.317.235-2.032.704l-.624-.896c.95-.725 1.92-1.088 2.912-1.088.928 0 1.68.272 2.256.816.544.501.816 1.157.816 1.968a3.36 3.36 0 0 1-.368 1.52c-.245.48-.672 1.067-1.28 1.76l-2.656 3.04h4.08V167h-5.856zm7.687 0v-1.296l2.544-2.832c.768-.853 1.286-1.515 1.552-1.984.278-.48.416-.96.416-1.44 0-.448-.16-.811-.48-1.088-.32-.277-.746-.416-1.28-.416-.64 0-1.317.235-2.032.704l-.624-.896c.95-.725 1.92-1.088 2.912-1.088.928 0 1.68.272 2.256.816.544.501.816 1.157.816 1.968a3.36 3.36 0 0 1-.368 1.52c-.245.48-.672 1.067-1.28 1.76l-2.656 3.04h4.08V167h-5.856zm21.294 0c-.106.939-.618 1.691-1.536 2.256-.853.523-1.941.784-3.264.784-1.685 0-2.955-.491-3.808-1.472-.63-.725-.944-1.621-.944-2.688 0-.896.224-1.664.672-2.304l1.328-.288a4.488 4.488 0 0 0-.72 2.448c0 .949.31 1.696.928 2.24.608.544 1.456.816 2.544.816.917 0 1.675-.16 2.272-.48.598-.32.96-.757 1.088-1.312h-1.6l.672-1.296h2.416V167h-.048zm-.792 0v-1.296h.848c1.109 0 1.664-.581 1.664-1.744v-6.544l1.392-.736v7.296c0 .949-.283 1.701-.848 2.256-.534.512-1.232.768-2.096.768h-.96zm6.779 0v-9.584l1.376-.736V167h-1.376zm-.848 3.984.368-.688h.432a1.231 1.231 0 0 1-.16-.608c0-.309.117-.581.352-.816.235-.224.512-.336.832-.336.267 0 .523.085.768.256v.704c-.235-.181-.459-.272-.672-.272-.395 0-.592.176-.592.528 0 .181.075.363.224.544h1.456l-.368.688h-2.64zM108.87 167v-1.296l2.544-2.832c.768-.853 1.286-1.515 1.552-1.984.278-.48.416-.96.416-1.44 0-.448-.16-.811-.48-1.088-.32-.277-.746-.416-1.28-.416-.64 0-1.317.235-2.032.704l-.624-.896c.95-.725 1.92-1.088 2.912-1.088.928 0 1.68.272 2.256.816.544.501.816 1.157.816 1.968 0 .523-.122 1.029-.368 1.52-.245.48-.672 1.067-1.28 1.76l-2.656 3.04h4.08V167h-5.856zm11.368.192c-1.227 0-2.176-.555-2.848-1.664-.576-.939-.864-2.128-.864-3.568 0-1.611.378-2.917 1.136-3.92.672-.907 1.53-1.36 2.576-1.36 1.184 0 2.133.581 2.848 1.744.586.971.88 2.149.88 3.536 0 1.653-.374 2.965-1.12 3.936-.672.864-1.542 1.296-2.608 1.296zm0-9.232c-.683 0-1.211.341-1.584 1.024-.374.672-.56 1.632-.56 2.88 0 1.301.202 2.32.608 3.056.384.661.89.992 1.52.992.682 0 1.216-.357 1.6-1.072.384-.725.576-1.717.576-2.976 0-1.301-.203-2.293-.608-2.976-.374-.619-.891-.928-1.552-.928zm5.367 9.04v-1.296l2.544-2.832c.768-.853 1.285-1.515 1.552-1.984.277-.48.416-.96.416-1.44 0-.448-.16-.811-.48-1.088-.32-.277-.747-.416-1.28-.416-.64 0-1.318.235-2.032.704l-.624-.896c.949-.725 1.92-1.088 2.912-1.088.928 0 1.68.272 2.256.816.544.501.816 1.157.816 1.968 0 .523-.123 1.029-.368 1.52-.246.48-.672 1.067-1.28 1.76l-2.656 3.04h4.08V167h-5.856zm11.367.192c-1.226 0-2.176-.555-2.848-1.664-.576-.939-.864-2.128-.864-3.568 0-1.611.379-2.917 1.136-3.92.672-.907 1.531-1.36 2.576-1.36 1.184 0 2.134.581 2.848 1.744.587.971.88 2.149.88 3.536 0 1.653-.373 2.965-1.12 3.936-.672.864-1.541 1.296-2.608 1.296zm0-9.232c-.682 0-1.21.341-1.584 1.024-.373.672-.56 1.632-.56 2.88 0 1.301.203 2.32.608 3.056.384.661.891.992 1.52.992.683 0 1.216-.357 1.6-1.072.384-.725.576-1.717.576-2.976 0-1.301-.202-2.293-.608-2.976-.373-.619-.89-.928-1.552-.928zm13.453 1.824c-.522 0-.784-.267-.784-.8 0-.523.262-.784.784-.784.512 0 .768.261.768.784 0 .533-.256.8-.768.8zm5.84 5.92h1.056V167h-1.216c-.554 0-1.034-.112-1.44-.336-.128 1.088-.602 1.936-1.424 2.544-.736.555-1.648.832-2.736.832-1.386 0-2.464-.491-3.232-1.472-.586-.757-.88-1.653-.88-2.688 0-.896.224-1.664.672-2.304l1.328-.288a4.488 4.488 0 0 0-.72 2.448c0 .896.278 1.632.832 2.208.523.533 1.19.8 2 .8.939 0 1.664-.272 2.176-.816.427-.459.64-1.056.64-1.792v-5.344l1.376-.736v4.048c0 1.067.523 1.6 1.568 1.6zm2.715-3.04c0-.928.277-1.648.832-2.16.491-.437 1.131-.656 1.92-.656 1.013 0 1.792.373 2.336 1.12.469.629.704 1.451.704 2.464 0 1.152-.299 2.053-.896 2.704-.523.576-1.205.864-2.048.864-.96 0-1.691-.267-2.192-.8-.512.533-1.2.8-2.064.8h-1.216v-1.296h1.056c1.045 0 1.568-.533 1.568-1.6v-1.44zm1.376 1.552c0 .992.485 1.488 1.456 1.488.501 0 .891-.203 1.168-.608.288-.405.432-.971.432-1.696 0-.715-.149-1.269-.448-1.664-.299-.405-.709-.608-1.232-.608-.917 0-1.376.533-1.376 1.6v1.488zM22.77 104c-1.16 0-2.053-.373-2.68-1.12-.533-.64-.8-1.453-.8-2.44v-8.42l1.72-.92v9.28c0 1.333.654 2 1.96 2h1.32V104h-1.52zm2.712-5.94c.333-1.227.966-2.167 1.9-2.82.76-.52 1.62-.78 2.58-.78 1.413 0 2.58.48 3.5 1.44.866.907 1.3 2.073 1.3 3.5v1.06c0 1.16-.36 2.06-1.08 2.7-.627.56-1.44.84-2.44.84h-2.16c-.454 0-.88-.067-1.28-.2-.414.133-.84.2-1.28.2h-3.44v-1.62h2.58a3.783 3.783 0 0 1-.76-2.32c0-.787.193-1.453.58-2zm7.54 2.24v-.9c0-1.107-.354-1.967-1.06-2.58-.574-.507-1.26-.76-2.06-.76-.92 0-1.64.3-2.16.9h.06c.88 0 1.58.287 2.1.86.533.56.8 1.307.8 2.24 0 .893-.26 1.667-.78 2.32h1.26c.653 0 1.12-.16 1.4-.48.293-.333.44-.867.44-1.6zm-5.22 1.9c1.093-.373 1.64-1.12 1.64-2.24 0-.56-.154-1.007-.46-1.34-.294-.347-.687-.52-1.18-.52-.494 0-.894.173-1.2.52-.294.333-.44.78-.44 1.34 0 1.12.546 1.867 1.64 2.24zm14.82-10.3-.46.86h-3.3l.46-.86h.54c-.133-.24-.2-.493-.2-.76 0-.387.147-.72.44-1 .293-.293.64-.44 1.04-.44.333 0 .653.107.96.32v.88c-.28-.227-.56-.34-.84-.34-.493 0-.74.22-.74.66 0 .227.093.453.28.68h1.82zm.26 11.46c-.507.2-1.127.3-1.86.3-1.187 0-2.12-.447-2.8-1.34-.573-.76-.86-1.713-.86-2.86 0-1.413.38-2.52 1.14-3.32.68-.72 1.573-1.08 2.68-1.08 1.133 0 2.007.353 2.62 1.06.547.627.82 1.447.82 2.46v4.36c0 1.507-.393 2.7-1.18 3.58-.747.827-1.74 1.24-2.98 1.24a4.941 4.941 0 0 1-2.34-.58v-1.52c.707.373 1.407.56 2.1.56.787 0 1.413-.253 1.88-.76.467-.493.727-1.193.78-2.1zm0-4.7c0-1.333-.567-2-1.7-2-.667 0-1.193.247-1.58.74-.373.493-.56 1.167-.56 2.02 0 .84.18 1.513.54 2.02.373.493.873.74 1.5.74.88 0 1.48-.247 1.8-.74v-2.78zm5.139 5.34V92.02l1.72-.92V104h-1.72zm11.52-1.62h1.32V104h-1.52c-.68 0-1.266-.133-1.76-.4-.12 1.32-.58 2.373-1.38 3.16-.733.72-1.653 1.08-2.76 1.08-.8 0-1.58-.2-2.34-.6v-1.5c.68.373 1.36.56 2.04.56.854 0 1.52-.287 2-.86s.72-1.367.72-2.38v-6.82l1.72-.92v.02l.02-.02v5.46c.12 1.067.767 1.6 1.94 1.6zm11.123-11.32c-.587 0-.88-.3-.88-.9 0-.587.293-.88.88-.88.586 0 .88.293.88.88 0 .6-.294.9-.88.9zm-1.26 2.38c-.654 0-.98-.333-.98-1 0-.653.326-.98.98-.98.64 0 .96.327.96.98 0 .667-.32 1-.96 1zm2.54 0c-.654 0-.98-.333-.98-1 0-.653.326-.98.98-.98.64 0 .96.327.96.98 0 .667-.32 1-.96 1zM59.664 104v-1.62h1.8c1.293 0 1.94-.667 1.94-2v-2.8l1.72-.92v3.72c0 1.333.653 2 1.96 2h.92c1.306 0 1.96-.667 1.96-2V96.9l1.72-.9v4.38c0 1.333.646 2 1.94 2h.94c1.306 0 1.96-.667 1.96-2v-4.14l1.72-.92v5.12c0 1.133-.34 2.02-1.02 2.66-.6.587-1.4.887-2.4.9h-1.38c-1.174 0-2.047-.393-2.62-1.18-.574.773-1.427 1.167-2.56 1.18h-1.38c-1.147 0-2.02-.393-2.62-1.18-.574.787-1.447 1.18-2.62 1.18h-1.98zm37.173-1.62h1.34V104h-1.52c-1.08 0-1.94-.333-2.58-1-.627.64-1.513.973-2.66 1h-2.62c-1.307 0-1.96.667-1.96 2v3.38l-1.72.92v-4.36c0-1.107.32-1.98.96-2.62.573-.587 1.333-.9 2.28-.94-.48-.773-.72-1.72-.72-2.84 0-1.453.38-2.587 1.14-3.4.68-.72 1.573-1.08 2.68-1.08 1.133 0 2.007.353 2.62 1.06.547.627.82 1.447.82 2.46v1.8c0 1.333.646 2 1.94 2zm-3.66-1.86v-1.86c0-1.333-.574-2-1.72-2-.667 0-1.187.253-1.56.76-.36.493-.54 1.187-.54 2.08 0 .907.173 1.613.52 2.12.347.507.833.76 1.46.76 1.227 0 1.84-.62 1.84-1.86zm5.331-7.62c-.653 0-.98-.333-.98-1 0-.653.327-.98.98-.98.64 0 .96.327.96.98 0 .667-.32 1-.96 1zm2.54 0c-.653 0-.98-.333-.98-1 0-.653.327-.98.98-.98.64 0 .96.327.96.98 0 .667-.32 1-.96 1zm-4.08 11.1v-1.62h1.32c1.307 0 1.96-.667 1.96-2v-4.14l1.72-.92v5.12c0 1.133-.34 2.027-1.02 2.68-.626.587-1.446.88-2.46.88h-1.52zm16.22-1.06c0 1.493-.394 2.693-1.18 3.6-.747.867-1.74 1.3-2.98 1.3-.8 0-1.58-.2-2.34-.6v-1.5c.68.373 1.36.56 2.04.56.853 0 1.52-.287 2-.86s.72-1.367.72-2.38v-6.82l1.74-.92v7.62zm7.082 1.06c-1.16 0-2.053-.373-2.68-1.12-.533-.64-.8-1.453-.8-2.44v-8.42l1.72-.92v9.28c0 1.333.654 2 1.96 2h1.32V104h-1.52zm7.272-1.62h1.32V104h-1.52c-1.107 0-1.98-.353-2.62-1.06-.64.707-1.514 1.06-2.62 1.06h-1.52v-1.62h1.32c1.306 0 1.96-.667 1.96-2v-4.14l1.72-.92v5.06c0 1.333.653 2 1.96 2zm-4.78 3.62c.64 0 .96.333.96 1 0 .653-.32.98-.96.98-.654 0-.98-.327-.98-.98 0-.667.326-1 .98-1zm2.54 0c.64 0 .96.333.96 1 0 .653-.32.98-.96.98-.654 0-.98-.327-.98-.98 0-.667.326-1 .98-1zm8.81-13.1c-.653 0-.98-.333-.98-1 0-.653.327-.98.98-.98.64 0 .96.327.96.98 0 .667-.32 1-.96 1zm4.32 9.48V104h-10.78v-1.62h3.46c-.653-.84-.98-1.873-.98-3.1 0-1.36.467-2.44 1.4-3.24.76-.64 1.64-.967 2.64-.98 1.413 0 2.513.567 3.3 1.7v1.62c-.853-1.147-1.887-1.72-3.1-1.72-.76 0-1.373.247-1.84.74-.453.48-.68 1.127-.68 1.94 0 .92.273 1.66.82 2.22.56.547 1.3.82 2.22.82h3.54zm9.2-9.68c-.654 0-.98-.333-.98-1 0-.653.326-.98.98-.98.64 0 .96.327.96.98 0 .667-.32 1-.96 1zm2.54 0c-.654 0-.98-.333-.98-1 0-.653.326-.98.98-.98.64 0 .96.327.96.98 0 .667-.32 1-.96 1zm3.72 9.68h1.32V104h-1.52c-1.374 0-2.36-.507-2.96-1.52-.64.613-1.434.92-2.38.92-1.174 0-2.107-.44-2.8-1.32-.574-.747-.86-1.66-.86-2.74 0-1.293.393-2.333 1.18-3.12.666-.68 1.48-1.02 2.44-1.02.733 0 1.366.187 1.9.56v-.86l1.74-.92v6.4c0 1.333.646 2 1.94 2zm-3.68-4.76c-.494-.547-1.1-.82-1.82-.82-.587 0-1.067.24-1.44.72-.374.467-.56 1.08-.56 1.84 0 .773.186 1.393.56 1.86.373.467.86.7 1.46.7.746 0 1.36-.307 1.84-.92a5.33 5.33 0 0 1-.04-.56v-2.82zm13.687 4.76h5.28V104h-5.44c-.72 0-1.433-.14-2.14-.42a5.82 5.82 0 0 1-2.16.42h-5.42v-1.62H159.579c-.96-.787-1.947-1.94-2.96-3.46v-.88c.64-.92 1.4-1.647 2.28-2.18.893-.533 1.787-.8 2.68-.8.893 0 1.787.273 2.68.82.893.533 1.667 1.267 2.32 2.2v.84c-1.013 1.52-2.007 2.673-2.98 3.46h.3zm-5.68-3.88c1.227 1.68 2.353 2.787 3.38 3.32 1.027-.547 2.153-1.66 3.38-3.34-1-1.213-2.133-1.827-3.4-1.84-1.267 0-2.387.62-3.36 1.86zm27.645 3.88h1.32V104h-1.52c-1.067 0-1.9-.313-2.5-.94-.547.627-1.32.94-2.32.94h-12.86v-1.62h3.72l.06-.22V92.02l1.72-.92v7.32c1.52-2.24 3.407-3.36 5.66-3.36 1.507 0 2.713.527 3.62 1.58.773.893 1.16 1.993 1.16 3.3v.48c0 1.307.647 1.96 1.94 1.96zm-3.68-1.88v-.56c0-1.04-.32-1.867-.96-2.48-.547-.533-1.233-.8-2.06-.8-1.373 0-2.613.62-3.72 1.86-.827.933-1.48 2.1-1.96 3.5v.36h7.22c.573 0 .96-.133 1.16-.4.213-.267.32-.76.32-1.48zm9.028-7.46c-.654 0-.98-.333-.98-1 0-.653.326-.98.98-.98.64 0 .96.327.96.98 0 .667-.32 1-.96 1zm2.54 0c-.654 0-.98-.333-.98-1 0-.653.326-.98.98-.98.64 0 .96.327.96.98 0 .667-.32 1-.96 1zm-7.76 10.96v-1.62h3.6c-.614-.68-.92-1.627-.92-2.84 0-1.453.38-2.587 1.14-3.4.666-.72 1.553-1.08 2.66-1.08 1.133 0 2.013.353 2.64 1.06.533.627.8 1.447.8 2.46v1.9c-.014 1.107-.34 1.98-.98 2.62-.627.6-1.46.9-2.5.9h-6.44zm8.2-5.34c0-1.333-.574-2-1.72-2-.654 0-1.167.253-1.54.76-.374.493-.56 1.187-.56 2.08 0 .88.18 1.58.54 2.1.36.52.84.78 1.44.78 1.226 0 1.84-.64 1.84-1.92v-1.8z" fill="#3D4E76"/>
    <defs>
        <linearGradient id="9pa1w5x12a" x1="41.001" y1="80" x2="174" y2="80" gradientUnits="userSpaceOnUse">
            <stop stop-color="#FDBC11"/>
            <stop offset="1" stop-color="#F6931D"/>
        </linearGradient>
    </defs>
</svg>
