<svg width="191" height="340" viewBox="0 0 191 340" fill="none" xmlns="http://www.w3.org/2000/svg">
    <rect x="1" y=".5" width="189" height="339" rx="3.5" fill="#fff" stroke="#EDEDED"/>
    <path d="m66.683 253.057-6.594 1.932c-3.727 1.092-6.722 3.784-8.118 7.301-2.312 5.829-5.387 15.013-6.923 21.559-1.906 8.118-3.229 13.375-3.229 25.151M67.186 276.909c.01 2.41 2.52 3.881 4.487 2.442 5.95-4.333 9.303-8.88 11.792-12.116 1.516-1.988 4.39-2.336 6.323-.75.045.041.087.073.14.116 2.276 1.977 2.04 3.891-.01 6.978-1.838 2.76-4.24 5.804-5.737 8.142-1.527 2.367-2.722 4.905-3.781 7.518-3.365 8.289-8.76 11.841-12.53 13.353-2.619 1.057-4.295 3.605-4.295 6.397V309M74.453 309h59.719c3.923 0 7.102-3.262 7.102-7.287v-5.145" stroke="#3D4E76" stroke-width="1.457" stroke-linecap="round" stroke-linejoin="round"/>
    <path d="M141.274 298.122v-77.783c0-4.245-3.542-7.686-7.913-7.686H74.597c-4.372 0-7.914 3.441-7.914 7.686v57.221" stroke="#3D4E76" stroke-width="1.457" stroke-linecap="round" stroke-linejoin="round"/>
    <path d="M89.993 212.653v3.688c0 2.255 1.94 4.082 4.335 4.082h19.302c2.394 0 4.334-1.827 4.334-4.082v-3.688" stroke="#3D4E76" stroke-width="1.457" stroke-linecap="round" stroke-linejoin="round"/>
    <path clip-rule="evenodd" d="m103.202 245.287-16.317-9.324 16.317-9.324 16.316 9.324-16.316 9.324z" stroke="#3D4E76" stroke-width="1.457" stroke-linecap="round" stroke-linejoin="round"/>
    <path fill-rule="evenodd" clip-rule="evenodd" d="m96.209 236.74 6.993-3.885 6.993 3.885-6.993 3.885-6.993-3.885z" fill="#01B8B6"/>
    <path d="M119.518 235.963v18.648l-16.317 9.324-16.316-9.324v-18.648M103.202 245.287v12.432M94.655 280.251h23.309M89.993 292.683h27.971" stroke="#3D4E76" stroke-width="1.457" stroke-linecap="round" stroke-linejoin="round"/>
    <path d="M35.064 40.072H30.64v-2.8h4.424v-4.984h3.276v4.984h4.452v2.8H38.34V45h-3.276v-4.928zM44.81 45v-3.108c.449-.504 1.046-1.185 1.793-2.044a113.612 113.612 0 0 0 2.604-2.968c1.25-1.493 2.034-2.51 2.351-3.052.318-.56.476-1.176.476-1.848 0-.56-.205-1.027-.616-1.4-.41-.373-.933-.56-1.568-.56-1.1 0-2.314.448-3.64 1.344l-1.54-2.24c1.867-1.475 3.818-2.212 5.853-2.212 1.623 0 2.92.439 3.892 1.316.951.859 1.428 2.044 1.428 3.556 0 1.12-.374 2.296-1.12 3.528-.729 1.213-2.157 3.024-4.285 5.432L49.29 42.06h6.356V45H44.81zm13.631 2.94-.896-1.652c.822-.317 1.232-.747 1.232-1.288-.896 0-1.344-.532-1.344-1.596 0-.541.178-.99.532-1.344.374-.355.85-.532 1.428-.532.58 0 1.055.233 1.428.7.374.448.56 1.017.56 1.708 0 .99-.28 1.857-.84 2.604-.54.747-1.24 1.213-2.1 1.4zm13.266-11.956c2.446.653 3.668 2.165 3.668 4.536 0 1.624-.69 2.875-2.072 3.752-1.138.71-2.548 1.064-4.228 1.064-1.96 0-3.528-.467-4.704-1.4-1.101-.859-1.652-2.007-1.652-3.444 0-1.344.476-2.464 1.428-3.36.71-.672 1.503-1.064 2.38-1.176-2.034-.616-3.052-1.913-3.052-3.892 0-1.68.654-2.996 1.96-3.948 1.046-.784 2.324-1.176 3.836-1.176 1.718 0 3.127.523 4.228 1.568 1.027.99 1.54 2.24 1.54 3.752 0 .877-.317 1.661-.952 2.352-.616.69-1.409 1.148-2.38 1.372zm-2.492-1.288a3.105 3.105 0 0 0 1.568-1.036c.411-.523.616-1.073.616-1.652 0-.672-.196-1.213-.588-1.624-.373-.41-.858-.616-1.456-.616-.69 0-1.25.215-1.68.644-.41.41-.616.961-.616 1.652 0 1.27.719 2.147 2.156 2.632zm.084 2.52c-.84.205-1.512.588-2.016 1.148-.504.541-.756 1.167-.756 1.876 0 .653.243 1.195.728 1.624.486.41 1.102.616 1.848.616.71 0 1.288-.196 1.736-.588.467-.41.7-.933.7-1.568 0-.71-.214-1.353-.644-1.932a3.03 3.03 0 0 0-1.596-1.176zm14.99-10.276c2.165 0 3.9 1.036 5.207 3.108 1.102 1.717 1.652 3.761 1.652 6.132 0 2.856-.7 5.143-2.1 6.86-1.232 1.53-2.818 2.296-4.76 2.296-2.221 0-3.957-.99-5.208-2.968-1.045-1.643-1.568-3.705-1.568-6.188 0-2.763.69-5.03 2.072-6.804 1.25-1.624 2.819-2.436 4.704-2.436zm.055 3.136c-2.016 0-3.024 1.979-3.024 5.936 0 1.997.29 3.565.868 4.704.523 1.027 1.214 1.54 2.072 1.54.952 0 1.699-.55 2.24-1.652.56-1.12.84-2.65.84-4.592 0-3.957-.998-5.936-2.996-5.936zm15.722-3.136c2.165 0 3.901 1.036 5.208 3.108 1.101 1.717 1.652 3.761 1.652 6.132 0 2.856-.7 5.143-2.1 6.86-1.232 1.53-2.819 2.296-4.76 2.296-2.222 0-3.958-.99-5.208-2.968-1.046-1.643-1.568-3.705-1.568-6.188 0-2.763.69-5.03 2.072-6.804 1.25-1.624 2.818-2.436 4.704-2.436zm.056 3.136c-2.016 0-3.024 1.979-3.024 5.936 0 1.997.289 3.565.868 4.704.522 1.027 1.213 1.54 2.072 1.54.952 0 1.698-.55 2.24-1.652.56-1.12.84-2.65.84-4.592 0-3.957-.999-5.936-2.996-5.936zm9.589 17.864-.896-1.652c.821-.317 1.232-.747 1.232-1.288-.896 0-1.344-.532-1.344-1.596 0-.541.177-.99.532-1.344.373-.355.849-.532 1.428-.532s1.055.233 1.428.7c.373.448.56 1.017.56 1.708 0 .99-.28 1.857-.84 2.604-.541.747-1.241 1.213-2.1 1.4zm11.054-21c2.165 0 3.901 1.036 5.208 3.108 1.101 1.717 1.652 3.761 1.652 6.132 0 2.856-.7 5.143-2.1 6.86-1.232 1.53-2.819 2.296-4.76 2.296-2.222 0-3.958-.99-5.208-2.968-1.046-1.643-1.568-3.705-1.568-6.188 0-2.763.69-5.03 2.072-6.804 1.25-1.624 2.818-2.436 4.704-2.436zm.056 3.136c-2.016 0-3.024 1.979-3.024 5.936 0 1.997.289 3.565.868 4.704.522 1.027 1.213 1.54 2.072 1.54.952 0 1.698-.55 2.24-1.652.56-1.12.84-2.65.84-4.592 0-3.957-.999-5.936-2.996-5.936zm15.721-3.136c2.166 0 3.902 1.036 5.208 3.108 1.102 1.717 1.652 3.761 1.652 6.132 0 2.856-.7 5.143-2.1 6.86-1.232 1.53-2.818 2.296-4.76 2.296-2.221 0-3.957-.99-5.208-2.968-1.045-1.643-1.568-3.705-1.568-6.188 0-2.763.691-5.03 2.072-6.804 1.251-1.624 2.819-2.436 4.704-2.436zm.056 3.136c-2.016 0-3.024 1.979-3.024 5.936 0 1.997.29 3.565.868 4.704.523 1.027 1.214 1.54 2.072 1.54.952 0 1.699-.55 2.24-1.652.56-1.12.84-2.65.84-4.592 0-3.957-.998-5.936-2.996-5.936zm15.722-3.136c2.165 0 3.901 1.036 5.208 3.108 1.101 1.717 1.652 3.761 1.652 6.132 0 2.856-.7 5.143-2.1 6.86-1.232 1.53-2.819 2.296-4.76 2.296-2.222 0-3.958-.99-5.208-2.968-1.046-1.643-1.568-3.705-1.568-6.188 0-2.763.69-5.03 2.072-6.804 1.25-1.624 2.818-2.436 4.704-2.436zm.056 3.136c-2.016 0-3.024 1.979-3.024 5.936 0 1.997.289 3.565.868 4.704.522 1.027 1.213 1.54 2.072 1.54.952 0 1.698-.55 2.24-1.652.56-1.12.84-2.65.84-4.592 0-3.957-.999-5.936-2.996-5.936z" fill="url(#mapw7yclua)"/>
    <path d="M38.847 167v-1.296l2.544-2.832c.768-.853 1.285-1.515 1.552-1.984.277-.48.416-.96.416-1.44 0-.448-.16-.811-.48-1.088-.32-.277-.747-.416-1.28-.416-.64 0-1.317.235-2.032.704l-.624-.896c.95-.725 1.92-1.088 2.912-1.088.928 0 1.68.272 2.256.816.544.501.816 1.157.816 1.968a3.36 3.36 0 0 1-.368 1.52c-.245.48-.672 1.067-1.28 1.76l-2.656 3.04h4.08V167h-5.856zm11.367.192c-1.226 0-2.176-.555-2.848-1.664-.576-.939-.864-2.128-.864-3.568 0-1.611.379-2.917 1.136-3.92.672-.907 1.531-1.36 2.576-1.36 1.184 0 2.134.581 2.848 1.744.587.971.88 2.149.88 3.536 0 1.653-.373 2.965-1.12 3.936-.672.864-1.541 1.296-2.608 1.296zm0-9.232c-.682 0-1.21.341-1.584 1.024-.373.672-.56 1.632-.56 2.88 0 1.301.203 2.32.608 3.056.384.661.891.992 1.52.992.683 0 1.216-.357 1.6-1.072.384-.725.576-1.717.576-2.976 0-1.301-.202-2.293-.608-2.976-.373-.619-.89-.928-1.552-.928zm5.367 9.04v-1.296l2.544-2.832c.768-.853 1.286-1.515 1.552-1.984.278-.48.416-.96.416-1.44 0-.448-.16-.811-.48-1.088-.32-.277-.746-.416-1.28-.416-.64 0-1.317.235-2.032.704l-.624-.896c.95-.725 1.92-1.088 2.912-1.088.928 0 1.68.272 2.256.816.544.501.816 1.157.816 1.968a3.36 3.36 0 0 1-.368 1.52c-.245.48-.672 1.067-1.28 1.76l-2.656 3.04h4.08V167h-5.856zm7.688 0v-1.296l2.544-2.832c.768-.853 1.285-1.515 1.552-1.984.277-.48.416-.96.416-1.44 0-.448-.16-.811-.48-1.088-.32-.277-.747-.416-1.28-.416-.64 0-1.318.235-2.032.704l-.624-.896c.95-.725 1.92-1.088 2.912-1.088.928 0 1.68.272 2.256.816.544.501.816 1.157.816 1.968a3.36 3.36 0 0 1-.368 1.52c-.246.48-.672 1.067-1.28 1.76l-2.656 3.04h4.08V167h-5.856zm21.294 0c-.107.939-.619 1.691-1.536 2.256-.854.523-1.942.784-3.264.784-1.686 0-2.955-.491-3.808-1.472-.63-.725-.944-1.621-.944-2.688 0-.896.224-1.664.672-2.304l1.328-.288a4.488 4.488 0 0 0-.72 2.448c0 .949.309 1.696.928 2.24.608.544 1.456.816 2.544.816.917 0 1.674-.16 2.272-.48.597-.32.96-.757 1.088-1.312h-1.6l.672-1.296h2.416V167h-.048zm-.793 0v-1.296h.848c1.11 0 1.664-.581 1.664-1.744v-6.544l1.392-.736v7.296c0 .949-.283 1.701-.848 2.256-.533.512-1.232.768-2.096.768h-.96zm6.78 0v-9.584l1.375-.736V167H90.55zm-.849 3.984.368-.688h.432a1.234 1.234 0 0 1-.16-.608c0-.309.118-.581.352-.816.235-.224.512-.336.832-.336.267 0 .523.085.768.256v.704c-.234-.181-.458-.272-.672-.272-.394 0-.592.176-.592.528 0 .181.075.363.224.544h1.456l-.368.688h-2.64zM97.894 167v-1.296l2.544-2.832c.768-.853 1.285-1.515 1.552-1.984.277-.48.416-.96.416-1.44 0-.448-.16-.811-.48-1.088-.32-.277-.747-.416-1.28-.416-.64 0-1.318.235-2.032.704l-.624-.896c.95-.725 1.92-1.088 2.912-1.088.928 0 1.68.272 2.256.816.544.501.816 1.157.816 1.968 0 .523-.123 1.029-.368 1.52-.246.48-.672 1.067-1.28 1.76l-2.656 3.04h4.08V167h-5.856zm11.367.192c-1.226 0-2.176-.555-2.848-1.664-.576-.939-.864-2.128-.864-3.568 0-1.611.379-2.917 1.136-3.92.672-.907 1.531-1.36 2.576-1.36 1.184 0 2.134.581 2.848 1.744.587.971.88 2.149.88 3.536 0 1.653-.373 2.965-1.12 3.936-.672.864-1.541 1.296-2.608 1.296zm0-9.232c-.682 0-1.21.341-1.584 1.024-.373.672-.56 1.632-.56 2.88 0 1.301.203 2.32.608 3.056.384.661.891.992 1.52.992.683 0 1.216-.357 1.6-1.072.384-.725.576-1.717.576-2.976 0-1.301-.202-2.293-.608-2.976-.373-.619-.89-.928-1.552-.928zm5.367 9.04v-1.296l2.544-2.832c.768-.853 1.285-1.515 1.552-1.984.277-.48.416-.96.416-1.44 0-.448-.16-.811-.48-1.088-.32-.277-.747-.416-1.28-.416-.64 0-1.317.235-2.032.704l-.624-.896c.949-.725 1.92-1.088 2.912-1.088.928 0 1.68.272 2.256.816.544.501.816 1.157.816 1.968 0 .523-.123 1.029-.368 1.52-.245.48-.672 1.067-1.28 1.76l-2.656 3.04h4.08V167h-5.856zm11.448-10.128V167h-1.488v-8.496l-1.872 1.088-.72-1.104 2.592-1.616h1.488zm10.326 2.912c-.523 0-.784-.267-.784-.8 0-.523.261-.784.784-.784.512 0 .768.261.768.784 0 .533-.256.8-.768.8zm5.84 5.92h1.056V167h-1.216c-.555 0-1.035-.112-1.44-.336-.128 1.088-.603 1.936-1.424 2.544-.736.555-1.648.832-2.736.832-1.387 0-2.464-.491-3.232-1.472-.587-.757-.88-1.653-.88-2.688 0-.896.224-1.664.672-2.304l1.328-.288a4.488 4.488 0 0 0-.72 2.448c0 .896.277 1.632.832 2.208.523.533 1.189.8 2 .8.939 0 1.664-.272 2.176-.816.427-.459.64-1.056.64-1.792v-5.344l1.376-.736v4.048c0 1.067.523 1.6 1.568 1.6zm2.715-3.04c0-.928.277-1.648.832-2.16.49-.437 1.13-.656 1.92-.656 1.013 0 1.792.373 2.336 1.12.469.629.704 1.451.704 2.464 0 1.152-.299 2.053-.896 2.704-.523.576-1.206.864-2.048.864-.96 0-1.691-.267-2.192-.8-.512.533-1.2.8-2.064.8h-1.217v-1.296h1.057c1.045 0 1.568-.533 1.568-1.6v-1.44zm1.376 1.552c0 .992.485 1.488 1.456 1.488.501 0 .89-.203 1.168-.608.288-.405.432-.971.432-1.696 0-.715-.15-1.269-.448-1.664-.299-.405-.71-.608-1.232-.608-.918 0-1.376.533-1.376 1.6v1.488zM19.532 101c-.97 0-1.722-.309-2.256-.928-.458-.533-.688-1.221-.688-2.064v-6.272l2.016-1.056v7.232c0 .416.086.715.256.896.171.17.46.256.864.256h1.44V101h-1.632zm2.556-4.896c.266-.896.741-1.6 1.424-2.112.693-.512 1.493-.768 2.4-.768 1.216 0 2.213.4 2.992 1.2.725.747 1.088 1.712 1.088 2.896v.704c0 .97-.304 1.728-.912 2.272-.534.469-1.227.704-2.08.704h-2.016c-.363 0-.704-.053-1.024-.16-.331.107-.672.16-1.024.16H20.2v-1.936h1.632a3.067 3.067 0 0 1-.272-1.296c0-.661.176-1.216.528-1.664zm5.904 1.792v-.576c0-.672-.198-1.21-.592-1.616-.384-.405-.896-.608-1.536-.608-.438 0-.816.096-1.136.288.501.15.896.437 1.184.864.298.427.448.933.448 1.52 0 .47-.091.901-.272 1.296h.88c.394 0 .661-.08.8-.24.149-.17.224-.48.224-.928zM23.96 98.92c.682-.224 1.024-.667 1.024-1.328 0-.33-.096-.592-.288-.784-.182-.203-.427-.304-.736-.304-.31 0-.56.101-.752.304-.182.192-.272.453-.272.784 0 .661.341 1.104 1.024 1.328zm12.535.144h1.44V101h-1.632c-.363 0-.699-.048-1.008-.144-.139 1.024-.55 1.835-1.232 2.432-.619.533-1.36.8-2.224.8a4.139 4.139 0 0 1-1.968-.512v-1.76c.555.309 1.099.464 1.632.464.587 0 1.04-.192 1.36-.576.33-.373.496-.896.496-1.568v-5.184l1.312-.688.688-.368v.016l.016-.016v4.016c0 .416.085.715.256.896.17.17.459.256.864.256zm6.182 0h1.44V101h-1.632c-.779 0-1.424-.208-1.936-.624-.512.416-1.157.624-1.936.624H36.98v-1.936h1.44c.405 0 .693-.085.864-.256.17-.181.256-.48.256-.896v-2.96l2.016-1.056v4.016c0 .416.085.715.256.896.17.17.459.256.864.256zm-4.144 3.392c.32 0 .57.091.752.272.192.192.288.448.288.768 0 .715-.347 1.072-1.04 1.072-.32 0-.576-.096-.768-.288-.192-.192-.288-.453-.288-.784 0-.693.352-1.04 1.056-1.04zm2.464 0c.32 0 .57.091.752.272.192.192.288.448.288.768 0 .715-.347 1.072-1.04 1.072-.32 0-.576-.096-.768-.288-.192-.192-.288-.453-.288-.784 0-.693.352-1.04 1.056-1.04zm10.012-3.392h4.4L55.44 101h-4.624a3.11 3.11 0 0 1-1.536-.4c-.502.267-1.014.4-1.536.4h-4.592v-1.936h4.352c-.48-.33-.88-.645-1.2-.944-.181-.16-.459-.459-.832-.896-.117-.139-.213-.25-.288-.336v-.912a5.339 5.339 0 0 1 1.808-1.712c.746-.427 1.51-.64 2.288-.64.768 0 1.525.219 2.272.656a5.528 5.528 0 0 1 1.856 1.728v.88a10.99 10.99 0 0 1-2.4 2.176zm-1.744-.768c.8-.63 1.392-1.264 1.776-1.904-.64-.597-1.243-.896-1.808-.896-.544 0-1.11.299-1.696.896.416.736.992 1.37 1.728 1.904zM54.48 101v-1.936h1.696c.405 0 .693-.085.864-.256.181-.181.272-.48.272-.896V95.8l2.016-1.056v3.168c0 .416.085.715.256.896.17.17.459.256.864.256h1.088c.405 0 .693-.085.864-.256.17-.181.256-.48.256-.896v-2.528l2.016-1.072v3.6c0 .416.085.715.256.896.181.17.475.256.88.256h1.088c.405 0 .693-.085.864-.256.17-.181.256-.48.256-.896v-2.96l2.016-1.056v3.76c0 .512.101.875.304 1.088.213.213.565.32 1.056.32h1.472V101H71.28c-.896 0-1.616-.256-2.16-.768-.48.501-1.125.757-1.936.768H65.6c-.79 0-1.435-.235-1.936-.704-.459.459-1.067.693-1.824.704h-1.584c-.79 0-1.435-.235-1.936-.704-.501.469-1.147.704-1.936.704H54.48zm18.574-8.72c-.32 0-.576-.096-.768-.288-.192-.192-.288-.453-.288-.784 0-.693.352-1.04 1.056-1.04.32 0 .57.096.752.288.192.181.288.432.288.752 0 .715-.347 1.072-1.04 1.072zm2.464 0c-.32 0-.576-.096-.768-.288-.192-.192-.288-.453-.288-.784 0-.693.352-1.04 1.056-1.04.32 0 .57.096.752.288.192.181.288.432.288.752 0 .715-.347 1.072-1.04 1.072zM71.903 101v-1.936h1.44c.405 0 .693-.085.864-.256.17-.181.256-.48.256-.896v-2.96l2.016-1.056v4.112c0 .97-.299 1.728-.896 2.272-.523.48-1.206.72-2.048.72h-1.632zm19.679-1.936h1.424V101h-1.632c-.725 0-1.344-.187-1.856-.56-.544.373-1.237.56-2.08.56h-2.224c-.406 0-.694.085-.864.256-.17.181-.256.48-.256.896v2.832l-2.016 1.056v-3.984c0-.843.23-1.531.688-2.064.47-.533 1.099-.837 1.888-.912-.213-.523-.32-1.115-.32-1.776 0-1.173.32-2.101.96-2.784.565-.597 1.312-.896 2.24-.896.95 0 1.69.304 2.224.912.459.523.688 1.205.688 2.048v1.328c0 .416.085.715.256.896.181.17.475.256.88.256zm-3.152-.896v-1.616c0-.704-.299-1.056-.896-1.056-.384 0-.688.155-.912.464-.213.31-.32.736-.32 1.28 0 1.216.4 1.824 1.2 1.824.619 0 .928-.299.928-.896zm4.765-5.888c-.32 0-.576-.096-.768-.288-.192-.192-.288-.453-.288-.784 0-.693.352-1.04 1.056-1.04.32 0 .571.096.752.288.192.181.288.432.288.752 0 .715-.346 1.072-1.04 1.072zm2.464 0c-.32 0-.576-.096-.768-.288-.192-.192-.288-.453-.288-.784 0-.693.352-1.04 1.056-1.04.32 0 .571.096.752.288.192.181.288.432.288.752 0 .715-.346 1.072-1.04 1.072zM92.043 101v-1.936h1.44c.406 0 .694-.085.864-.256.171-.181.256-.48.256-.896v-2.96l2.016-1.056v4.112c0 .97-.298 1.728-.896 2.272-.522.48-1.205.72-2.048.72h-1.632zm14.175-.992c0 1.237-.341 2.24-1.024 3.008-.629.715-1.461 1.072-2.496 1.072a4.139 4.139 0 0 1-1.968-.512v-1.76c.555.309 1.099.464 1.632.464.587 0 1.04-.192 1.36-.576.331-.373.496-.896.496-1.568v-5.168l2-1.072v6.112zm5.83.992c-.971 0-1.723-.309-2.256-.928-.459-.533-.688-1.221-.688-2.064v-6.272l2.016-1.056v7.232c0 .416.085.715.256.896.171.17.459.256.864.256h1.44V101h-1.632zm6.363-1.936h1.44V101h-1.632c-.778 0-1.424-.208-1.936-.624-.512.416-1.157.624-1.936.624h-1.632v-1.936h1.44c.406 0 .694-.085.864-.256.171-.181.256-.48.256-.896v-2.96l2.016-1.056v4.016c0 .416.086.715.256.896.171.17.459.256.864.256zm-4.144 3.392c.32 0 .571.091.752.272.192.192.288.448.288.768 0 .715-.346 1.072-1.04 1.072-.32 0-.576-.096-.768-.288-.192-.192-.288-.453-.288-.784 0-.693.352-1.04 1.056-1.04zm2.464 0c.32 0 .571.091.752.272.192.192.288.448.288.768 0 .715-.346 1.072-1.04 1.072-.32 0-.576-.096-.768-.288-.192-.192-.288-.453-.288-.784 0-.693.352-1.04 1.056-1.04zm7.468-10.176c-.32 0-.576-.096-.768-.288-.192-.192-.288-.453-.288-.784 0-.31.096-.56.288-.752.192-.192.448-.288.768-.288s.571.096.752.288c.192.181.288.432.288.752 0 .715-.346 1.072-1.04 1.072zm3.552 6.784V101h-8.864v-1.936h2.368a4.248 4.248 0 0 1-.448-1.952c0-1.13.395-2.027 1.184-2.688.64-.533 1.382-.8 2.224-.8 1.142 0 2.064.49 2.768 1.472v1.776c-.778-.917-1.626-1.376-2.544-1.376-.49 0-.885.155-1.184.464-.288.299-.432.704-.432 1.216 0 .587.182 1.05.544 1.392.374.33.88.496 1.52.496h2.864zm7.207-7.104c-.32 0-.576-.096-.768-.288-.192-.192-.288-.453-.288-.784 0-.693.352-1.04 1.056-1.04.32 0 .571.096.752.288.192.181.288.432.288.752 0 .715-.346 1.072-1.04 1.072zm2.464 0c-.32 0-.576-.096-.768-.288-.192-.192-.288-.453-.288-.784 0-.693.352-1.04 1.056-1.04.32 0 .571.096.752.288.192.181.288.432.288.752 0 .715-.346 1.072-1.04 1.072zm2.704 7.104h1.44V101h-1.632c-.992 0-1.76-.331-2.304-.992-.458.352-1.018.528-1.68.528-.981 0-1.765-.368-2.352-1.104-.48-.608-.72-1.339-.72-2.192 0-1.056.342-1.915 1.024-2.576.576-.555 1.243-.832 2-.832.395 0 .758.075 1.088.224v-.416l2-1.056v5.328c0 .416.086.715.256.896.182.17.475.256.88.256zm-3.136-2.992a1.42 1.42 0 0 0-.944-.352c-.352 0-.64.144-.864.432-.213.288-.32.667-.32 1.136 0 .47.107.843.32 1.12.214.277.507.416.88.416.406 0 .72-.139.944-.416a3.742 3.742 0 0 1-.016-.4v-1.936zm11.472 2.992h4.4l.032 1.936h-4.624a3.11 3.11 0 0 1-1.536-.4 3.23 3.23 0 0 1-1.536.4h-4.592v-1.936h4.352c-.48-.33-.88-.645-1.2-.944-.181-.16-.459-.459-.832-.896-.117-.139-.213-.25-.288-.336v-.912a5.336 5.336 0 0 1 1.808-1.712c.747-.427 1.509-.64 2.288-.64.768 0 1.525.219 2.272.656a5.528 5.528 0 0 1 1.856 1.728v.88a11.003 11.003 0 0 1-2.4 2.176zm-1.744-.768c.8-.63 1.392-1.264 1.776-1.904-.64-.597-1.243-.896-1.808-.896-.544 0-1.109.299-1.696.896.416.736.992 1.37 1.728 1.904zm19.152.768h1.44V101h-1.632c-.768 0-1.397-.197-1.888-.592-.491.395-1.104.592-1.84.592h-10.016v-1.936h2.864l.192-.544v-6.768l2.016-1.072v4.608c1.088-1.11 2.336-1.664 3.744-1.664 1.269 0 2.277.437 3.024 1.312.64.736.96 1.648.96 2.736v.336c0 .704.379 1.056 1.136 1.056zm-4 0c.352 0 .581-.07.688-.208.117-.139.176-.432.176-.88v-.304c0-.64-.187-1.163-.56-1.568-.363-.405-.832-.608-1.408-.608-.736 0-1.44.272-2.112.816-.661.544-1.211 1.296-1.648 2.256v.496h4.864zm8.566-6.576c-.32 0-.576-.096-.768-.288-.192-.192-.288-.453-.288-.784 0-.693.352-1.04 1.056-1.04.32 0 .571.096.752.288.192.181.288.432.288.752 0 .715-.347 1.072-1.04 1.072zm2.464 0c-.32 0-.576-.096-.768-.288-.192-.192-.288-.453-.288-.784 0-.693.352-1.04 1.056-1.04.32 0 .571.096.752.288.192.181.288.432.288.752 0 .715-.347 1.072-1.04 1.072zM166.356 101v-1.936h2.56c-.32-.47-.48-1.056-.48-1.76 0-1.173.32-2.101.96-2.784.576-.597 1.328-.896 2.256-.896.949 0 1.685.304 2.208.912.469.523.704 1.205.704 2.048v1.44c-.011.917-.283 1.643-.816 2.176-.523.533-1.232.8-2.128.8h-5.264zm6.192-4.448c0-.704-.299-1.056-.896-1.056-.821 0-1.232.581-1.232 1.744 0 1.216.395 1.824 1.184 1.824.629 0 .944-.341.944-1.024v-1.488z" fill="#3D4E76"/>
    <defs>
        <linearGradient id="mapw7yclua" x1="29.501" y1="58" x2="160.5" y2="58" gradientUnits="userSpaceOnUse">
            <stop stop-color="#FDBC11"/>
            <stop offset="1" stop-color="#F6931D"/>
        </linearGradient>
    </defs>
</svg>
