<svg width="343" height="232" viewBox="0 0 343 232" fill="none" xmlns="http://www.w3.org/2000/svg">
    <g clip-path="url(#wpxgh4deza)">
        <rect y=".461" width="343" height="231.492" rx="7" fill="#fff" stroke="#E9E9E9" stroke-width="1.4"/>
        <mask id="vv78f2xuab" style="mask-type:luminance" maskUnits="userSpaceOnUse" x="-1" y="-1" width="345" height="234">
            <rect y=".461" width="343" height="231.492" rx="7" fill="#fff" stroke="#fff" stroke-width="1.4"/>
        </mask>
        <g mask="url(#vv78f2xuab)">
            <path d="M180.186 111.418c-.893 0-1.581-.287-2.063-.862-.411-.493-.616-1.119-.616-1.879v-6.484l1.324-.708v7.146c0 1.026.503 1.54 1.509 1.54h1.017v1.247h-1.171zm2.088-4.574c.257-.944.744-1.668 1.463-2.171a3.43 3.43 0 0 1 1.987-.601c1.088 0 1.986.37 2.695 1.109.667.698 1.001 1.596 1.001 2.695v.816c0 .893-.278 1.586-.832 2.079-.483.431-1.109.647-1.879.647h-1.663a3.09 3.09 0 0 1-.986-.154 3.175 3.175 0 0 1-.985.154h-2.649v-1.247h1.987a2.91 2.91 0 0 1-.586-1.787c0-.606.149-1.119.447-1.54zm5.806 1.725v-.693c0-.852-.272-1.514-.816-1.987a2.317 2.317 0 0 0-1.587-.585c-.708 0-1.262.231-1.663.693h.046c.678 0 1.217.221 1.617.662.411.432.616 1.007.616 1.725 0 .688-.2 1.284-.6 1.787h.97c.503 0 .862-.124 1.078-.37.226-.257.339-.667.339-1.232zm-4.02 1.463c.842-.287 1.263-.862 1.263-1.725 0-.431-.118-.775-.354-1.032-.226-.267-.529-.4-.909-.4-.379 0-.687.133-.924.4-.225.257-.338.601-.338 1.032 0 .863.421 1.438 1.262 1.725zm11.597.139h1.016v1.247h-1.17c-.524 0-.975-.103-1.355-.308-.093 1.016-.447 1.827-1.063 2.433-.565.555-1.273.832-2.125.832a3.825 3.825 0 0 1-1.802-.462v-1.155c.524.287 1.047.431 1.571.431.657 0 1.17-.221 1.54-.662.37-.442.554-1.053.554-1.833v-5.251l1.325-.709v.016l.015-.016v4.205c.093.821.59 1.232 1.494 1.232zm5.453 0h1.016v1.247h-1.17c-.852 0-1.525-.272-2.017-.816-.493.544-1.166.816-2.018.816h-1.17v-1.247h1.016c1.006 0 1.509-.514 1.509-1.54v-3.188l1.325-.709v3.897c0 1.026.503 1.54 1.509 1.54zm-3.681 2.787c.493 0 .74.257.74.77 0 .503-.247.755-.74.755-.503 0-.754-.252-.754-.755 0-.513.251-.77.754-.77zm1.956 0c.493 0 .739.257.739.77 0 .503-.246.755-.739.755-.503 0-.754-.252-.754-.755 0-.513.251-.77.754-.77zm9.418-2.787h4.065v1.247h-4.189a4.45 4.45 0 0 1-1.647-.323 4.497 4.497 0 0 1-1.664.323h-4.173v-1.247h4.281c-.739-.606-1.499-1.494-2.279-2.665v-.677a5.794 5.794 0 0 1 1.756-1.679c.687-.41 1.375-.616 2.063-.616.688 0 1.376.211 2.064.632.688.41 1.283.975 1.786 1.694v.646c-.78 1.171-1.545 2.059-2.294 2.665h.231zm-4.374-2.988c.944 1.294 1.812 2.146 2.603 2.556.79-.421 1.658-1.278 2.602-2.571-.77-.935-1.643-1.407-2.618-1.417-.975 0-1.838.477-2.587 1.432zm7.519 4.235v-1.247h1.386c.996 0 1.494-.514 1.494-1.54v-2.156l1.324-.709v2.865c0 1.026.503 1.54 1.509 1.54h.709c1.006 0 1.509-.514 1.509-1.54v-2.68l1.324-.693v3.373c0 1.026.498 1.54 1.494 1.54h.724c1.006 0 1.509-.514 1.509-1.54v-3.188l1.324-.709v3.758c0 1.119.534 1.679 1.602 1.679h1.278v1.247h-1.386c-.924 0-1.627-.313-2.11-.939-.431.616-1.103.929-2.017.939h-1.063c-.903 0-1.575-.303-2.017-.909-.441.596-1.098.899-1.971.909h-1.063c-.883 0-1.555-.303-2.017-.909-.442.606-1.114.909-2.018.909h-1.524zm17.443-8.547c-.503 0-.755-.257-.755-.77 0-.503.252-.755.755-.755.493 0 .739.252.739.755 0 .513-.246.77-.739.77zm1.956 0c-.503 0-.755-.257-.755-.77 0-.503.252-.755.755-.755.492 0 .739.252.739.755 0 .513-.247.77-.739.77zm-3.142 8.547v-1.247h1.016c1.007 0 1.51-.514 1.51-1.54v-3.188l1.324-.709v3.943c0 .872-.262 1.56-.785 2.063-.483.452-1.114.678-1.895.678h-1.17zm18.156-1.247h1.032v1.247h-1.17c-.832 0-1.494-.257-1.987-.77-.483.493-1.165.749-2.048.77h-2.018c-1.006 0-1.509.513-1.509 1.54v2.603l-1.324.708v-3.357c0-.852.246-1.525.739-2.018.441-.451 1.027-.693 1.756-.723-.37-.596-.555-1.325-.555-2.187 0-1.119.293-1.992.878-2.618.524-.555 1.211-.832 2.064-.832.872 0 1.545.272 2.017.816.421.483.631 1.114.631 1.895v1.386c0 1.026.498 1.54 1.494 1.54zm-2.818-1.433v-1.432c0-1.026-.441-1.54-1.324-1.54-.514 0-.914.195-1.202.585-.277.38-.415.914-.415 1.602 0 .698.133 1.242.4 1.632.267.391.642.586 1.124.586.945 0 1.417-.478 1.417-1.433zm4.105-5.867c-.503 0-.754-.257-.754-.77 0-.503.251-.755.754-.755.493 0 .74.252.74.755 0 .513-.247.77-.74.77zm1.956 0c-.503 0-.754-.257-.754-.77 0-.503.251-.755.754-.755.493 0 .739.252.739.755 0 .513-.246.77-.739.77zm-3.141 8.547v-1.247h1.016c1.006 0 1.509-.514 1.509-1.54v-3.188l1.325-.709v3.943c0 .872-.262 1.56-.786 2.063-.482.452-1.114.678-1.894.678h-1.17zm12.488-.816c0 1.15-.302 2.074-.908 2.772-.575.667-1.34 1.001-2.295 1.001a3.828 3.828 0 0 1-1.802-.462v-1.155c.524.287 1.048.431 1.571.431.657 0 1.171-.221 1.54-.662.37-.442.555-1.053.555-1.833v-5.251l1.339-.709v5.868zm5.454.816c-.893 0-1.581-.287-2.064-.862-.41-.493-.616-1.119-.616-1.879v-6.484l1.325-.708v7.146c0 1.026.503 1.54 1.509 1.54h1.016v1.247h-1.17zm5.599-1.247h1.016v1.247h-1.17c-.852 0-1.525-.272-2.017-.816-.493.544-1.166.816-2.018.816h-1.17v-1.247h1.016c1.006 0 1.509-.514 1.509-1.54v-3.188l1.325-.709v3.897c0 1.026.503 1.54 1.509 1.54zm-3.681 2.787c.493 0 .74.257.74.77 0 .503-.247.755-.74.755-.503 0-.754-.252-.754-.755 0-.513.251-.77.754-.77zm1.956 0c.493 0 .739.257.739.77 0 .503-.246.755-.739.755-.503 0-.754-.252-.754-.755 0-.513.251-.77.754-.77zm6.784-10.087c-.503 0-.755-.257-.755-.77 0-.503.252-.755.755-.755.493 0 .739.252.739.755 0 .513-.246.77-.739.77zm3.326 7.3v1.247h-8.3v-1.247h2.664c-.503-.647-.755-1.443-.755-2.387 0-1.048.36-1.879 1.078-2.495a3.13 3.13 0 0 1 2.033-.755c1.089 0 1.936.437 2.541 1.309v1.248c-.657-.883-1.452-1.325-2.387-1.325-.585 0-1.057.19-1.417.57-.349.37-.523.868-.523 1.494 0 .708.21 1.278.631 1.709.431.421 1.001.632 1.71.632h2.725zm7.084-7.454c-.503 0-.754-.257-.754-.77 0-.503.251-.755.754-.755.493 0 .74.252.74.755 0 .513-.247.77-.74.77zm1.956 0c-.503 0-.754-.257-.754-.77 0-.503.251-.755.754-.755.493 0 .739.252.739.755 0 .513-.246.77-.739.77zm2.865 7.454h1.016v1.247h-1.17c-1.058 0-1.818-.39-2.28-1.17-.492.472-1.103.708-1.832.708-.904 0-1.622-.339-2.156-1.016-.442-.575-.662-1.279-.662-2.11 0-.996.302-1.797.908-2.403a2.533 2.533 0 0 1 1.879-.785c.565 0 1.052.144 1.463.431v-.662l1.34-.708v4.928c0 1.026.498 1.54 1.494 1.54zm-2.834-3.666a1.814 1.814 0 0 0-1.401-.631c-.452 0-.822.185-1.109.554-.288.36-.431.832-.431 1.417 0 .596.143 1.073.431 1.432.287.36.662.539 1.124.539.575 0 1.047-.236 1.417-.708a4.066 4.066 0 0 1-.031-.431v-2.172zm10.539 3.666h4.066v1.247h-4.189a4.454 4.454 0 0 1-1.648-.323 4.488 4.488 0 0 1-1.663.323h-4.173v-1.247H294.673c-.739-.606-1.499-1.494-2.279-2.665v-.677a5.79 5.79 0 0 1 1.755-1.679c.688-.41 1.376-.616 2.064-.616.688 0 1.376.211 2.063.632.688.41 1.284.975 1.787 1.694v.646c-.78 1.171-1.545 2.059-2.295 2.665h.231zm-4.373-2.988c.944 1.294 1.812 2.146 2.602 2.556.791-.421 1.658-1.278 2.603-2.571-.77-.935-1.643-1.407-2.618-1.417-.976 0-1.838.477-2.587 1.432zm21.286 2.988h1.017v1.247h-1.171c-.821 0-1.463-.241-1.925-.724-.421.483-1.016.724-1.786.724h-9.902v-1.247h2.864l.046-.17v-7.808l1.325-.708v5.636c1.17-1.724 2.623-2.587 4.358-2.587 1.16 0 2.089.406 2.787 1.217.596.688.893 1.535.893 2.541v.369c0 1.007.498 1.51 1.494 1.51zm-2.833-1.448v-.431c0-.801-.247-1.438-.74-1.91-.421-.41-.949-.616-1.586-.616-1.057 0-2.012.478-2.864 1.432-.637.719-1.14 1.617-1.509 2.695v.278h5.559c.441 0 .739-.103.893-.308.164-.206.247-.586.247-1.14zm6.951-5.744c-.503 0-.755-.257-.755-.77 0-.503.252-.755.755-.755.493 0 .739.252.739.755 0 .513-.246.77-.739.77zm1.956 0c-.503 0-.755-.257-.755-.77 0-.503.252-.755.755-.755.493 0 .739.252.739.755 0 .513-.246.77-.739.77zm-5.975 8.439v-1.247h2.772c-.473-.524-.709-1.253-.709-2.187 0-1.119.293-1.992.878-2.618.513-.555 1.196-.832 2.048-.832.873 0 1.55.272 2.033.816.411.483.616 1.114.616 1.895v1.463c-.01.852-.262 1.524-.755 2.017-.482.462-1.124.693-1.925.693h-4.958zm6.314-4.112c0-1.026-.442-1.54-1.325-1.54-.503 0-.898.195-1.186.585-.287.38-.431.914-.431 1.602 0 .678.139 1.217.416 1.617.277.4.647.601 1.109.601.944 0 1.417-.493 1.417-1.479v-1.386z" fill="#3D4E76"/>
            <path d="m69.53 69.653-7.438 2.18c-4.205 1.232-7.584 4.268-9.158 8.237-2.608 6.575-6.078 16.936-7.81 24.321-2.151 9.158-3.643 15.089-3.643 28.374M70.097 96.562c.013 2.719 2.845 4.378 5.064 2.755 6.71-4.89 10.494-10.019 13.302-13.67 1.71-2.242 4.954-2.634 7.134-.845.05.046.097.082.158.13 2.567 2.23 2.302 4.39-.012 7.873-2.073 3.114-4.784 6.548-6.472 9.185-1.723 2.671-3.071 5.534-4.266 8.482-3.795 9.351-9.883 13.358-14.136 15.064-2.954 1.192-4.845 4.067-4.845 7.217v.012M78.296 132.765h67.373c4.425 0 8.012-3.68 8.012-8.221v-5.804" stroke="#3D4E76" stroke-width="1.457" stroke-linecap="round" stroke-linejoin="round"/>
            <path d="M153.681 120.493v-87.75c0-4.79-3.996-8.672-8.928-8.672H78.458c-4.931 0-8.927 3.882-8.927 8.671v64.554" stroke="#3D4E76" stroke-width="1.457" stroke-linecap="round" stroke-linejoin="round"/>
            <path d="M95.828 24.071v4.16c0 2.545 2.188 4.606 4.89 4.606h21.776c2.701 0 4.89-2.061 4.89-4.606v-4.16" stroke="#3D4E76" stroke-width="1.457" stroke-linecap="round" stroke-linejoin="round"/>
            <path clip-rule="evenodd" d="M110.729 60.887 92.321 50.368 110.73 39.85l18.408 10.52-18.408 10.518z" stroke="#3D4E76" stroke-width="1.457" stroke-linecap="round" stroke-linejoin="round"/>
            <path fill-rule="evenodd" clip-rule="evenodd" d="m102.84 51.245 7.889-4.383 7.889 4.383-7.889 4.382-7.889-4.382z" fill="#01B8B6"/>
            <path d="M129.137 50.368v21.038l-18.409 10.518-18.407-10.518V50.368M110.729 60.887v14.025M101.087 100.332h26.297M95.828 114.357h31.556" stroke="#3D4E76" stroke-width="1.457" stroke-linecap="round" stroke-linejoin="round"/>
            <path d="M177.7 79.138h-4.74v-3h4.74v-5.34h3.51v5.34h4.77v3h-4.77v5.28h-3.51v-5.28zm10.441 5.28v-3.33c.48-.54 1.12-1.27 1.92-2.19 1.26-1.4 2.19-2.46 2.79-3.18 1.34-1.6 2.18-2.69 2.52-3.27.34-.6.51-1.26.51-1.98 0-.6-.22-1.1-.66-1.5-.44-.4-1-.6-1.68-.6-1.18 0-2.48.48-3.9 1.44l-1.65-2.4c2-1.58 4.09-2.37 6.27-2.37 1.74 0 3.13.47 4.17 1.41 1.02.92 1.53 2.19 1.53 3.81 0 1.2-.4 2.46-1.2 3.78-.78 1.3-2.31 3.24-4.59 5.82-.56.64-.97 1.11-1.23 1.41h6.81v3.15h-11.61zm14.605 3.15-.96-1.77c.88-.34 1.32-.8 1.32-1.38-.96 0-1.44-.57-1.44-1.71 0-.58.19-1.06.57-1.44.4-.38.91-.57 1.53-.57s1.13.25 1.53.75c.4.48.6 1.09.6 1.83 0 1.06-.3 1.99-.9 2.79-.58.8-1.33 1.3-2.25 1.5zm14.213-12.81c2.62.7 3.93 2.32 3.93 4.86 0 1.74-.74 3.08-2.22 4.02-1.22.76-2.73 1.14-4.53 1.14-2.1 0-3.78-.5-5.04-1.5-1.18-.92-1.77-2.15-1.77-3.69 0-1.44.51-2.64 1.53-3.6.76-.72 1.61-1.14 2.55-1.26-2.18-.66-3.27-2.05-3.27-4.17 0-1.8.7-3.21 2.1-4.23 1.12-.84 2.49-1.26 4.11-1.26 1.84 0 3.35.56 4.53 1.68 1.1 1.06 1.65 2.4 1.65 4.02 0 .94-.34 1.78-1.02 2.52-.66.74-1.51 1.23-2.55 1.47zm-2.67-1.38c.68-.2 1.24-.57 1.68-1.11.44-.56.66-1.15.66-1.77 0-.72-.21-1.3-.63-1.74-.4-.44-.92-.66-1.56-.66-.74 0-1.34.23-1.8.69-.44.44-.66 1.03-.66 1.77 0 1.36.77 2.3 2.31 2.82zm.09 2.7c-.9.22-1.62.63-2.16 1.23-.54.58-.81 1.25-.81 2.01 0 .7.26 1.28.78 1.74.52.44 1.18.66 1.98.66.76 0 1.38-.21 1.86-.63.5-.44.75-1 .75-1.68 0-.76-.23-1.45-.69-2.07a3.247 3.247 0 0 0-1.71-1.26zm16.06-11.01c2.32 0 4.18 1.11 5.58 3.33 1.18 1.84 1.77 4.03 1.77 6.57 0 3.06-.75 5.51-2.25 7.35-1.32 1.64-3.02 2.46-5.1 2.46-2.38 0-4.24-1.06-5.58-3.18-1.12-1.76-1.68-3.97-1.68-6.63 0-2.96.74-5.39 2.22-7.29 1.34-1.74 3.02-2.61 5.04-2.61zm.06 3.36c-2.16 0-3.24 2.12-3.24 6.36 0 2.14.31 3.82.93 5.04.56 1.1 1.3 1.65 2.22 1.65 1.02 0 1.82-.59 2.4-1.77.6-1.2.9-2.84.9-4.92 0-4.24-1.07-6.36-3.21-6.36zm16.844-3.36c2.32 0 4.18 1.11 5.58 3.33 1.18 1.84 1.77 4.03 1.77 6.57 0 3.06-.75 5.51-2.25 7.35-1.32 1.64-3.02 2.46-5.1 2.46-2.38 0-4.24-1.06-5.58-3.18-1.12-1.76-1.68-3.97-1.68-6.63 0-2.96.74-5.39 2.22-7.29 1.34-1.74 3.02-2.61 5.04-2.61zm.06 3.36c-2.16 0-3.24 2.12-3.24 6.36 0 2.14.31 3.82.93 5.04.56 1.1 1.3 1.65 2.22 1.65 1.02 0 1.82-.59 2.4-1.77.6-1.2.9-2.84.9-4.92 0-4.24-1.07-6.36-3.21-6.36zm10.275 19.14-.96-1.77c.88-.34 1.32-.8 1.32-1.38-.96 0-1.44-.57-1.44-1.71 0-.58.19-1.06.57-1.44.4-.38.91-.57 1.53-.57s1.13.25 1.53.75c.4.48.6 1.09.6 1.83 0 1.06-.3 1.99-.9 2.79-.58.8-1.33 1.3-2.25 1.5zm11.843-22.5c2.32 0 4.18 1.11 5.58 3.33 1.18 1.84 1.77 4.03 1.77 6.57 0 3.06-.75 5.51-2.25 7.35-1.32 1.64-3.02 2.46-5.1 2.46-2.38 0-4.24-1.06-5.58-3.18-1.12-1.76-1.68-3.97-1.68-6.63 0-2.96.74-5.39 2.22-7.29 1.34-1.74 3.02-2.61 5.04-2.61zm.06 3.36c-2.16 0-3.24 2.12-3.24 6.36 0 2.14.31 3.82.93 5.04.56 1.1 1.3 1.65 2.22 1.65 1.02 0 1.82-.59 2.4-1.77.6-1.2.9-2.84.9-4.92 0-4.24-1.07-6.36-3.21-6.36zm16.844-3.36c2.32 0 4.18 1.11 5.58 3.33 1.18 1.84 1.77 4.03 1.77 6.57 0 3.06-.75 5.51-2.25 7.35-1.32 1.64-3.02 2.46-5.1 2.46-2.38 0-4.24-1.06-5.58-3.18-1.12-1.76-1.68-3.97-1.68-6.63 0-2.96.74-5.39 2.22-7.29 1.34-1.74 3.02-2.61 5.04-2.61zm.06 3.36c-2.16 0-3.24 2.12-3.24 6.36 0 2.14.31 3.82.93 5.04.56 1.1 1.3 1.65 2.22 1.65 1.02 0 1.82-.59 2.4-1.77.6-1.2.9-2.84.9-4.92 0-4.24-1.07-6.36-3.21-6.36zm16.845-3.36c2.32 0 4.18 1.11 5.58 3.33 1.18 1.84 1.77 4.03 1.77 6.57 0 3.06-.75 5.51-2.25 7.35-1.32 1.64-3.02 2.46-5.1 2.46-2.38 0-4.24-1.06-5.58-3.18-1.12-1.76-1.68-3.97-1.68-6.63 0-2.96.74-5.39 2.22-7.29 1.34-1.74 3.02-2.61 5.04-2.61zm.06 3.36c-2.16 0-3.24 2.12-3.24 6.36 0 2.14.31 3.82.93 5.04.56 1.1 1.3 1.65 2.22 1.65 1.02 0 1.82-.59 2.4-1.77.6-1.2.9-2.84.9-4.92 0-4.24-1.07-6.36-3.21-6.36z" fill="url(#95suqlki8c)"/>
            <path d="M115.347 206.477v-1.296l2.544-2.832c.768-.854 1.285-1.515 1.552-1.984.277-.48.416-.96.416-1.44 0-.448-.16-.811-.48-1.088-.32-.278-.747-.416-1.28-.416-.64 0-1.317.234-2.032.704l-.624-.896c.949-.726 1.92-1.088 2.912-1.088.928 0 1.68.272 2.256.816.544.501.816 1.157.816 1.968 0 .522-.123 1.029-.368 1.52-.245.48-.672 1.066-1.28 1.76l-2.656 3.04h4.08v1.232h-5.856zm11.367.192c-1.226 0-2.176-.555-2.848-1.664-.576-.939-.864-2.128-.864-3.568 0-1.611.379-2.918 1.136-3.92.672-.907 1.531-1.36 2.576-1.36 1.184 0 2.134.581 2.848 1.744.587.97.88 2.149.88 3.536 0 1.653-.373 2.965-1.12 3.936-.672.864-1.541 1.296-2.608 1.296zm0-9.232c-.682 0-1.21.341-1.584 1.024-.373.672-.56 1.632-.56 2.88 0 1.301.203 2.32.608 3.056.384.661.891.992 1.52.992.683 0 1.216-.358 1.6-1.072.384-.726.576-1.718.576-2.976 0-1.302-.202-2.294-.608-2.976-.373-.619-.89-.928-1.552-.928zm5.367 9.04v-1.296l2.544-2.832c.768-.854 1.286-1.515 1.552-1.984.278-.48.416-.96.416-1.44 0-.448-.16-.811-.48-1.088-.32-.278-.746-.416-1.28-.416-.64 0-1.317.234-2.032.704l-.624-.896c.95-.726 1.92-1.088 2.912-1.088.928 0 1.68.272 2.256.816.544.501.816 1.157.816 1.968 0 .522-.122 1.029-.368 1.52-.245.48-.672 1.066-1.28 1.76l-2.656 3.04h4.08v1.232h-5.856zm7.688 0v-1.296l2.544-2.832c.768-.854 1.285-1.515 1.552-1.984.277-.48.416-.96.416-1.44 0-.448-.16-.811-.48-1.088-.32-.278-.747-.416-1.28-.416-.64 0-1.318.234-2.032.704l-.624-.896c.949-.726 1.92-1.088 2.912-1.088.928 0 1.68.272 2.256.816.544.501.816 1.157.816 1.968 0 .522-.123 1.029-.368 1.52-.246.48-.672 1.066-1.28 1.76l-2.656 3.04h4.08v1.232h-5.856zm21.294 0c-.107.938-.619 1.69-1.536 2.256-.854.522-1.942.784-3.264.784-1.686 0-2.955-.491-3.808-1.472-.63-.726-.944-1.622-.944-2.688 0-.896.224-1.664.672-2.304l1.328-.288a4.488 4.488 0 0 0-.72 2.448c0 .949.309 1.696.928 2.24.608.544 1.456.816 2.544.816.917 0 1.674-.16 2.272-.48.597-.32.96-.758 1.088-1.312h-1.6l.672-1.296h2.416v1.296h-.048zm-.793 0v-1.296h.848c1.109 0 1.664-.582 1.664-1.744v-6.544l1.392-.736v7.296c0 .949-.283 1.701-.848 2.256-.533.512-1.232.768-2.096.768h-.96zm6.779 0v-9.584l1.376-.736v10.32h-1.376zm-.848 3.984.368-.688h.432a1.242 1.242 0 0 1-.16-.608c0-.31.118-.582.352-.816.235-.224.512-.336.832-.336.267 0 .523.085.768.256v.704c-.234-.182-.458-.272-.672-.272-.394 0-.592.176-.592.528 0 .181.075.362.224.544h1.456l-.368.688h-2.64zm8.193-3.984v-1.296l2.544-2.832c.768-.854 1.285-1.515 1.552-1.984.277-.48.416-.96.416-1.44 0-.448-.16-.811-.48-1.088-.32-.278-.747-.416-1.28-.416-.64 0-1.318.234-2.032.704l-.624-.896c.949-.726 1.92-1.088 2.912-1.088.928 0 1.68.272 2.256.816.544.501.816 1.157.816 1.968 0 .522-.123 1.029-.368 1.52-.246.48-.672 1.066-1.28 1.76l-2.656 3.04h4.08v1.232h-5.856zm11.367.192c-1.226 0-2.176-.555-2.848-1.664-.576-.939-.864-2.128-.864-3.568 0-1.611.379-2.918 1.136-3.92.672-.907 1.531-1.36 2.576-1.36 1.184 0 2.134.581 2.848 1.744.587.97.88 2.149.88 3.536 0 1.653-.373 2.965-1.12 3.936-.672.864-1.541 1.296-2.608 1.296zm0-9.232c-.682 0-1.21.341-1.584 1.024-.373.672-.56 1.632-.56 2.88 0 1.301.203 2.32.608 3.056.384.661.891.992 1.52.992.683 0 1.216-.358 1.6-1.072.384-.726.576-1.718.576-2.976 0-1.302-.202-2.294-.608-2.976-.373-.619-.89-.928-1.552-.928zm5.367 9.04v-1.296l2.544-2.832c.768-.854 1.285-1.515 1.552-1.984.277-.48.416-.96.416-1.44 0-.448-.16-.811-.48-1.088-.32-.278-.747-.416-1.28-.416-.64 0-1.317.234-2.032.704l-.624-.896c.949-.726 1.92-1.088 2.912-1.088.928 0 1.68.272 2.256.816.544.501.816 1.157.816 1.968 0 .522-.123 1.029-.368 1.52-.245.48-.672 1.066-1.28 1.76l-2.656 3.04h4.08v1.232h-5.856zm11.448-10.128v10.128h-1.488v-8.496l-1.872 1.088-.72-1.104 2.592-1.616h1.488zm10.326 2.912c-.523 0-.784-.267-.784-.8 0-.523.261-.784.784-.784.512 0 .768.261.768.784 0 .533-.256.8-.768.8zm5.84 5.92h1.056v1.296h-1.216c-.555 0-1.035-.112-1.44-.336-.128 1.088-.603 1.936-1.424 2.544-.736.554-1.648.832-2.736.832-1.387 0-2.464-.491-3.232-1.472-.587-.758-.88-1.654-.88-2.688 0-.896.224-1.664.672-2.304l1.328-.288a4.488 4.488 0 0 0-.72 2.448c0 .896.277 1.632.832 2.208.523.533 1.189.8 2 .8.939 0 1.664-.272 2.176-.816.427-.459.64-1.056.64-1.792v-5.344l1.376-.736v4.048c0 1.066.523 1.6 1.568 1.6zm2.715-3.04c0-.928.277-1.648.832-2.16.49-.438 1.13-.656 1.92-.656 1.013 0 1.792.373 2.336 1.12.469.629.704 1.45.704 2.464 0 1.152-.299 2.053-.896 2.704-.523.576-1.206.864-2.048.864-.96 0-1.691-.267-2.192-.8-.512.533-1.2.8-2.064.8h-1.217v-1.296h1.057c1.045 0 1.568-.534 1.568-1.6v-1.44zm1.376 1.552c0 .992.485 1.488 1.456 1.488.501 0 .89-.203 1.168-.608.288-.406.432-.971.432-1.696 0-.715-.15-1.27-.448-1.664-.299-.406-.71-.608-1.232-.608-.918 0-1.376.533-1.376 1.6v1.488z" fill="#3D4E76"/>
            <path d="M615.574-132.757a150.447 150.447 0 0 1 60.649-12.717c86.175 0 156.037 72.473 156.037 161.867 0 89.398-69.862 161.867-156.037 161.867-57.753 0-108.064-32.635-135.046-81.019-41.362 49.542-102.308 81.019-170.447 81.019-47.464 0-91.45-15.273-127.787-41.243-30.912 25.753-70.112 41.243-112.855 41.243-99.67 0-180.476-83.818-180.476-187.215 0-103.405 80.807-187.223 180.476-187.223 18.904 0 37.122 3.043 54.243 8.631 40.621-61.706 108.935-102.242 186.399-102.242 48.848 0 94.022 16.13 130.898 43.529" stroke="url(#354w46eu6d)" stroke-width="1.935" stroke-linecap="round" stroke-linejoin="round"/>
        </g>
    </g>
    <defs>
        <linearGradient id="95suqlki8c" x1="172.002" y1="89.418" x2="321" y2="89.418" gradientUnits="userSpaceOnUse">
            <stop stop-color="#FDBC11"/>
            <stop offset="1" stop-color="#F6931D"/>
        </linearGradient>
        <linearGradient id="354w46eu6d" x1="812.099" y1="-88.133" x2="3.727" y2="-150.066" gradientUnits="userSpaceOnUse">
            <stop stop-color="#1C6FC4"/>
            <stop offset="1" stop-color="#01B8B6"/>
        </linearGradient>
        <clipPath id="wpxgh4deza">
            <path fill="#fff" transform="translate(0 .46)" d="M0 0h343v231.492H0z"/>
        </clipPath>
    </defs>
</svg>
