<svg width="190" height="340" viewBox="0 0 190 340" fill="none" xmlns="http://www.w3.org/2000/svg">
    <rect x=".5" y=".5" width="189" height="339" rx="3.5" fill="#fff" stroke="#EDEDED"/>
    <path d="M81.193 229.5h4.159c1.462 0 2.648 1.144 2.648 2.553v75.892c0 1.411-1.186 2.555-2.648 2.555H45.646c-1.462 0-2.646-1.144-2.646-2.555v-75.892c0-1.409 1.184-2.553 2.646-2.553h4.16" stroke="#3D4E76" stroke-width="1.18" stroke-linecap="round" stroke-linejoin="round"/>
    <path clip-rule="evenodd" d="M49 267h31.5v-13.5H49V267z" stroke="#3D4E76" stroke-width="1.18" stroke-linecap="round" stroke-linejoin="round"/>
    <path fill-rule="evenodd" clip-rule="evenodd" d="M55 262.5h21V258H55v4.5z" fill="#01B8B6"/>
    <path d="M49 240.75h31.5M49 220.5v-4.383c0-3.379 2.845-6.117 6.358-6.117h18.784c3.51 0 6.358 2.738 6.358 6.117v4.383M79.75 220.5V237M49.75 237v-16.5M55 222.75h19.5M59.5 228.75h12M87.5 246h9.183a2.827 2.827 0 0 1 2.817 2.837v46.826a2.827 2.827 0 0 1-2.817 2.837H87.5M55 281.25h3M64 281.25h3M71.5 281.25h3M55 288.75h3M64 288.75h3M71.5 288.75h3M55 296.25h3M64 296.25h3M71.5 296.25h3" stroke="#3D4E76" stroke-width="1.18" stroke-linecap="round" stroke-linejoin="round"/>
    <path clip-rule="evenodd" d="M118.75 285a3.75 3.75 0 1 1 0 7.5 3.75 3.75 0 0 1 0-7.5z" stroke="#3D4E76" stroke-width="1.18" stroke-linecap="round" stroke-linejoin="round"/>
    <path clip-rule="evenodd" d="M146.5 245.797v48.406c0 2.373-1.947 4.297-4.349 4.297h-27.302c-2.402 0-4.349-1.924-4.349-4.297v-48.406c0-2.373 1.947-4.297 4.349-4.297h27.302c2.402 0 4.349 1.924 4.349 4.297z" stroke="#3D4E76" stroke-width="1.18" stroke-linecap="round" stroke-linejoin="round"/>
    <path fill-rule="evenodd" clip-rule="evenodd" d="M122.5 251.791v3.418c0 1.541-1.403 2.791-3.134 2.791h-1.232c-1.731 0-3.134-1.25-3.134-2.791v-3.418c0-1.541 1.403-2.791 3.134-2.791h1.232c1.731 0 3.134 1.25 3.134 2.791" fill="#01B8B6"/>
    <path d="M122.5 280.5c0-1.657-1.679-3-3.75-3-2.071 0-3.75 1.343-3.75 3M138.25 291v-6M138.25 279v-6M138.25 268.5v-6M138.25 256.5v-6" stroke="#3D4E76" stroke-width="1.18" stroke-linecap="round" stroke-linejoin="round"/>
    <path d="M23.11 38.184h-4.284V35.16h4.284v-4.872h3.556v4.872h4.312v3.024h-4.312V43H23.11v-4.816zm9.274-1.708c2.352-3.603 4.806-7.336 7.364-11.2h3.864v11.2h2.856v3.136h-2.856V43h-3.92v-3.388h-7.308v-3.136zm3.36 0h3.948v-6.188c-.448.69-1.008 1.568-1.68 2.632-.99 1.55-1.746 2.735-2.268 3.556zM48.45 43v-3.332L52.76 34.6c1.27-1.475 2.044-2.445 2.325-2.912.28-.467.42-1.017.42-1.652 0-.523-.187-.952-.56-1.288-.374-.336-.84-.504-1.4-.504-1.102 0-2.325.457-3.669 1.372l-1.652-2.408c1.923-1.53 3.94-2.296 6.048-2.296 1.624 0 2.912.43 3.864 1.288.953.84 1.428 2.035 1.428 3.584 0 1.605-.709 3.37-2.127 5.292-.542.728-1.933 2.324-4.172 4.788h6.16V43H48.448zm14.065 1.008c.709-.243 1.148-.504 1.316-.784-.84-.168-1.26-.812-1.26-1.932 0-.635.224-1.167.672-1.596.448-.43 1.017-.644 1.708-.644.672 0 1.232.27 1.68.812.448.523.672 1.176.672 1.96 0 1.4-.495 2.557-1.484 3.472-.467.43-1.158.756-2.072.98l-1.232-2.268zM76.822 24.94c2.166 0 3.92 1.036 5.264 3.108 1.12 1.717 1.68 3.761 1.68 6.132 0 2.837-.709 5.115-2.128 6.832-1.269 1.55-2.874 2.324-4.816 2.324-2.258 0-4.013-.99-5.264-2.968-1.064-1.661-1.596-3.724-1.596-6.188 0-2.763.7-5.03 2.1-6.804 1.251-1.624 2.838-2.436 4.76-2.436zm.056 3.36c-1.885 0-2.828 1.904-2.828 5.712 0 1.923.271 3.435.812 4.536.486.99 1.13 1.484 1.932 1.484.896 0 1.596-.532 2.1-1.596.523-1.064.784-2.539.784-4.424 0-3.808-.933-5.712-2.8-5.712zm15.75-3.36c2.164 0 3.92 1.036 5.263 3.108 1.12 1.717 1.68 3.761 1.68 6.132 0 2.837-.71 5.115-2.128 6.832-1.27 1.55-2.875 2.324-4.816 2.324-2.259 0-4.013-.99-5.264-2.968-1.064-1.661-1.596-3.724-1.596-6.188 0-2.763.7-5.03 2.1-6.804 1.25-1.624 2.837-2.436 4.76-2.436zm.055 3.36c-1.885 0-2.828 1.904-2.828 5.712 0 1.923.27 3.435.812 4.536.485.99 1.13 1.484 1.932 1.484.896 0 1.596-.532 2.1-1.596.523-1.064.784-2.539.784-4.424 0-3.808-.933-5.712-2.8-5.712zm15.749-3.36c2.165 0 3.92 1.036 5.264 3.108 1.12 1.717 1.68 3.761 1.68 6.132 0 2.837-.71 5.115-2.128 6.832-1.27 1.55-2.875 2.324-4.816 2.324-2.259 0-4.014-.99-5.264-2.968-1.064-1.661-1.596-3.724-1.596-6.188 0-2.763.7-5.03 2.1-6.804 1.25-1.624 2.837-2.436 4.76-2.436zm.056 3.36c-1.886 0-2.828 1.904-2.828 5.712 0 1.923.27 3.435.812 4.536.485.99 1.129 1.484 1.932 1.484.896 0 1.596-.532 2.1-1.596.522-1.064.784-2.539.784-4.424 0-3.808-.934-5.712-2.8-5.712zm9.616 15.708c.71-.243 1.148-.504 1.316-.784-.84-.168-1.26-.812-1.26-1.932 0-.635.224-1.167.672-1.596.448-.43 1.018-.644 1.708-.644.672 0 1.232.27 1.68.812.448.523.672 1.176.672 1.96 0 1.4-.494 2.557-1.484 3.472-.466.43-1.157.756-2.072.98l-1.232-2.268zm14.308-19.068c2.166 0 3.92 1.036 5.264 3.108 1.12 1.717 1.68 3.761 1.68 6.132 0 2.837-.709 5.115-2.128 6.832-1.269 1.55-2.874 2.324-4.816 2.324-2.258 0-4.013-.99-5.264-2.968-1.064-1.661-1.596-3.724-1.596-6.188 0-2.763.7-5.03 2.1-6.804 1.251-1.624 2.838-2.436 4.76-2.436zm.056 3.36c-1.885 0-2.828 1.904-2.828 5.712 0 1.923.271 3.435.812 4.536.486.99 1.13 1.484 1.932 1.484.896 0 1.596-.532 2.1-1.596.523-1.064.784-2.539.784-4.424 0-3.808-.933-5.712-2.8-5.712zm15.749-3.36c2.165 0 3.92 1.036 5.264 3.108 1.12 1.717 1.68 3.761 1.68 6.132 0 2.837-.709 5.115-2.128 6.832-1.269 1.55-2.875 2.324-4.816 2.324-2.259 0-4.013-.99-5.264-2.968-1.064-1.661-1.596-3.724-1.596-6.188 0-2.763.7-5.03 2.1-6.804 1.251-1.624 2.837-2.436 4.76-2.436zm.056 3.36c-1.885 0-2.828 1.904-2.828 5.712 0 1.923.271 3.435.812 4.536.485.99 1.129 1.484 1.932 1.484.896 0 1.596-.532 2.1-1.596.523-1.064.784-2.539.784-4.424 0-3.808-.933-5.712-2.8-5.712zm15.749-3.36c2.165 0 3.92 1.036 5.264 3.108 1.12 1.717 1.68 3.761 1.68 6.132 0 2.837-.71 5.115-2.128 6.832-1.27 1.55-2.875 2.324-4.816 2.324-2.259 0-4.014-.99-5.264-2.968-1.064-1.661-1.596-3.724-1.596-6.188 0-2.763.7-5.03 2.1-6.804 1.25-1.624 2.837-2.436 4.76-2.436zm.056 3.36c-1.886 0-2.828 1.904-2.828 5.712 0 1.923.27 3.435.812 4.536.485.99 1.129 1.484 1.932 1.484.896 0 1.596-.532 2.1-1.596.522-1.064.784-2.539.784-4.424 0-3.808-.934-5.712-2.8-5.712zM87.023 63.616c0 4.448-1.952 6.672-5.856 6.672s-5.856-2.224-5.856-6.672v-8.808h3.168v9.24c0 2.4.896 3.6 2.688 3.6 1.824 0 2.736-1.2 2.736-3.6v-9.24h3.12v8.808zm12.907-7.56c-.288.432-.736 1.08-1.344 1.944-1.28-.56-2.424-.84-3.432-.84-1.328 0-1.992.496-1.992 1.488 0 .448.152.8.456 1.056.304.256.936.568 1.896.936 1.728.672 2.968 1.4 3.72 2.184.768.784 1.152 1.728 1.152 2.832 0 1.552-.584 2.752-1.752 3.6-.96.688-2.152 1.032-3.576 1.032-1.68 0-3.472-.608-5.376-1.824l1.392-1.944c.928.624 2.12.936 3.576.936 1.648 0 2.472-.664 2.472-1.992 0-.864-.888-1.6-2.664-2.208-2.864-.96-4.296-2.496-4.296-4.608 0-1.28.48-2.296 1.44-3.048.896-.72 2.088-1.08 3.576-1.08 1.696 0 3.28.512 4.752 1.536zm3.459-1.224c.784-.208 2.168-.312 4.152-.312 2.736 0 4.824.8 6.264 2.4 1.232 1.36 1.848 3.136 1.848 5.328 0 2.736-.784 4.792-2.352 6.168-1.424 1.248-3.408 1.872-5.952 1.872-1.6 0-2.92-.104-3.96-.312V54.832zm3.144 12.864c.32.08.72.12 1.2.12 3.088 0 4.632-1.824 4.632-5.472 0-1.808-.512-3.192-1.536-4.152-.832-.768-1.888-1.152-3.168-1.152-.368 0-.744.04-1.128.12v10.536z" fill="url(#rk9l0d1x5a)"/>
    <path d="M23.666 103V91.624c.168-.036.642-.084 1.422-.144.78-.06 1.374-.09 1.782-.09 2.904 0 4.356 1.188 4.356 3.564 0 1.476-.504 2.556-1.512 3.24-.672.468-1.464.702-2.376.702-.72 0-1.158-.048-1.314-.144V103h-2.358zm2.358-9.594v3.438c.312.12.702.18 1.17.18.48 0 .858-.168 1.134-.504.276-.348.414-.822.414-1.422 0-1.212-.534-1.818-1.602-1.818-.612 0-.984.042-1.116.126zm16.146 4.806c0 3.336-1.464 5.004-4.392 5.004-2.928 0-4.392-1.668-4.392-5.004v-6.606h2.376v6.93c0 1.8.672 2.7 2.016 2.7 1.368 0 2.052-.9 2.052-2.7v-6.93h2.34v6.606zM45.058 103V91.624c.168-.036.642-.084 1.422-.144.78-.06 1.374-.09 1.782-.09 2.904 0 4.356 1.188 4.356 3.564 0 1.284-.522 2.376-1.566 3.276.432.996 1.17 2.586 2.214 4.77H50.89c-.588-1.284-1.224-2.664-1.908-4.14a3.17 3.17 0 0 1-.54.036c-.528 0-.87-.048-1.026-.144V103h-2.358zm2.358-9.594v3.438c.36.108.75.162 1.17.162 1.032 0 1.548-.684 1.548-2.052 0-1.116-.534-1.674-1.602-1.674-.612 0-.984.042-1.116.126zm15.235 8.316c-.996.996-2.166 1.494-3.51 1.494-1.932 0-3.372-.72-4.32-2.16-.684-1.032-1.026-2.244-1.026-3.636 0-1.812.468-3.27 1.404-4.374.924-1.104 2.208-1.656 3.852-1.656 1.152 0 2.304.486 3.456 1.458l-.918 1.494c-.864-.624-1.65-.936-2.358-.936-.984 0-1.746.414-2.286 1.242-.468.708-.702 1.632-.702 2.772 0 1.008.276 1.872.828 2.592.588.756 1.374 1.134 2.358 1.134.648 0 1.416-.282 2.304-.846l.918 1.422zM67.138 103h-2.322V91.606h2.322v4.572h4.896v-4.572h2.358V103h-2.358v-4.932h-4.896V103zm12.985-11.394h1.98L86.297 103h-2.394c-.204-.6-.456-1.392-.756-2.376H79.06c-.168.54-.426 1.332-.774 2.376h-2.358l4.194-11.394zm1.008 3.078c-.336.948-.798 2.28-1.386 3.996h2.736a679.004 679.004 0 0 1-1.35-3.996zm13.75-2.142c-.215.324-.551.81-1.007 1.458-.96-.42-1.818-.63-2.574-.63-.996 0-1.494.372-1.494 1.116 0 .336.114.6.342.792.228.192.702.426 1.422.702 1.296.504 2.226 1.05 2.79 1.638.576.588.864 1.296.864 2.124 0 1.164-.438 2.064-1.314 2.7-.72.516-1.614.774-2.682.774-1.26 0-2.604-.456-4.032-1.368l1.044-1.458c.696.468 1.59.702 2.682.702 1.236 0 1.854-.498 1.854-1.494 0-.648-.666-1.2-1.998-1.656-2.148-.72-3.222-1.872-3.222-3.456 0-.96.36-1.722 1.08-2.286.672-.54 1.566-.81 2.682-.81 1.272 0 2.46.384 3.564 1.152zm2.307-.936h7.452v1.89h-5.094v2.682h4.248v1.89h-4.248v3.042h5.328V103h-7.686V91.606zm9.394.018c.588-.156 1.626-.234 3.114-.234 2.052 0 3.618.6 4.698 1.8.924 1.02 1.386 2.352 1.386 3.996 0 2.052-.588 3.594-1.764 4.626-1.068.936-2.556 1.404-4.464 1.404-1.2 0-2.19-.078-2.97-.234V91.624zm2.358 9.648c.24.06.54.09.9.09 2.316 0 3.474-1.368 3.474-4.104 0-1.356-.384-2.394-1.152-3.114-.624-.576-1.416-.864-2.376-.864-.276 0-.558.03-.846.09v7.902zM122.261 103V91.624c.168-.036.642-.084 1.422-.144.78-.06 1.374-.09 1.782-.09 2.904 0 4.356 1.188 4.356 3.564 0 1.476-.504 2.556-1.512 3.24-.672.468-1.464.702-2.376.702-.72 0-1.158-.048-1.314-.144V103h-2.358zm2.358-9.594v3.438c.312.12.702.18 1.17.18.48 0 .858-.168 1.134-.504.276-.348.414-.822.414-1.422 0-1.212-.534-1.818-1.602-1.818-.612 0-.984.042-1.116.126zm9.029-1.8h1.98L139.822 103h-2.394c-.204-.6-.456-1.392-.756-2.376h-4.086c-.168.54-.426 1.332-.774 2.376h-2.358l4.194-11.394zm1.008 3.078c-.336.948-.798 2.28-1.386 3.996h2.736a679.004 679.004 0 0 1-1.35-3.996zm6.695 8.316V91.624c.168-.036.642-.084 1.422-.144.78-.06 1.374-.09 1.782-.09 2.904 0 4.356 1.188 4.356 3.564 0 1.284-.522 2.376-1.566 3.276.432.996 1.17 2.586 2.214 4.77h-2.376c-.588-1.284-1.224-2.664-1.908-4.14a3.17 3.17 0 0 1-.54.036c-.528 0-.87-.048-1.026-.144V103h-2.358zm2.358-9.594v3.438c.36.108.75.162 1.17.162 1.032 0 1.548-.684 1.548-2.052 0-1.116-.534-1.674-1.602-1.674-.612 0-.984.042-1.116.126zm9.223.09h-3.294v-1.89h9.216v1.89h-3.546V103h-2.376v-9.504zm14.688-.954c-.216.324-.552.81-1.008 1.458-.96-.42-1.818-.63-2.574-.63-.996 0-1.494.372-1.494 1.116 0 .336.114.6.342.792.228.192.702.426 1.422.702 1.296.504 2.226 1.05 2.79 1.638.576.588.864 1.296.864 2.124 0 1.164-.438 2.064-1.314 2.7-.72.516-1.614.774-2.682.774-1.26 0-2.604-.456-4.032-1.368l1.044-1.458c.696.468 1.59.702 2.682.702 1.236 0 1.854-.498 1.854-1.494 0-.648-.666-1.2-1.998-1.656-2.148-.72-3.222-1.872-3.222-3.456 0-.96.36-1.722 1.08-2.286.672-.54 1.566-.81 2.682-.81 1.272 0 2.46.384 3.564 1.152zM35.925 119.078h2.268v.702c0 1.116-.3 2.136-.9 3.06a96.542 96.542 0 0 0 1.98 2.16h-2.592a2.638 2.638 0 0 1-.252-.306 5.262 5.262 0 0 0-.306-.342c-.624.576-1.536.864-2.736.864-1.176 0-2.076-.372-2.7-1.116-.48-.564-.72-1.248-.72-2.052 0-1.236.552-2.304 1.656-3.204-.864-.864-1.296-1.734-1.296-2.61 0-.876.27-1.566.81-2.07.54-.516 1.278-.774 2.214-.774.948 0 1.932.384 2.952 1.152a96.5 96.5 0 0 0-.666.99 6.656 6.656 0 0 1-.234.36c-.684-.36-1.338-.54-1.962-.54-.348 0-.63.09-.846.27a.87.87 0 0 0-.324.702c0 .372.216.816.648 1.332a98.113 98.113 0 0 1 1.098 1.35 70.874 70.874 0 0 0 1.692 2.07c.144-.228.216-.672.216-1.332v-.666zm-3.186 1.152c-.3.348-.45.84-.45 1.476 0 .984.444 1.476 1.332 1.476.504 0 .882-.15 1.134-.45a27.4 27.4 0 0 0-.954-1.188 22.435 22.435 0 0 1-1.062-1.314zM45.717 125v-11.376c.168-.036.642-.084 1.422-.144.78-.06 1.374-.09 1.782-.09 2.904 0 4.356 1.188 4.356 3.564 0 1.284-.522 2.376-1.566 3.276.432.996 1.17 2.586 2.214 4.77H51.55c-.588-1.284-1.224-2.664-1.908-4.14a3.17 3.17 0 0 1-.54.036c-.528 0-.87-.048-1.026-.144V125h-2.358zm2.358-9.594v3.438c.36.108.75.162 1.17.162 1.032 0 1.548-.684 1.548-2.052 0-1.116-.534-1.674-1.602-1.674-.612 0-.984.042-1.116.126zm6.811-1.8h7.452v1.89h-5.094v2.682h4.248v1.89h-4.248v3.042h5.328V125h-7.686v-11.394zM64.28 125v-11.376c.168-.036.642-.084 1.422-.144.78-.06 1.374-.09 1.782-.09 2.904 0 4.356 1.188 4.356 3.564 0 1.476-.504 2.556-1.512 3.24-.672.468-1.464.702-2.376.702-.72 0-1.158-.048-1.314-.144V125H64.28zm2.358-9.594v3.438c.312.12.702.18 1.17.18.48 0 .858-.168 1.134-.504.276-.348.414-.822.414-1.422 0-1.212-.534-1.818-1.602-1.818-.612 0-.984.042-1.116.126zm9.029-1.8h1.98L81.84 125h-2.394c-.204-.6-.456-1.392-.756-2.376h-4.086c-.168.54-.426 1.332-.774 2.376h-2.358l4.194-11.394zm1.008 3.078c-.336.948-.798 2.28-1.386 3.996h2.736a679.004 679.004 0 0 1-1.35-3.996zm9.017-3.078V125H83.37v-11.394h2.322zM88.572 125v-11.376c.169-.036.643-.084 1.423-.144.78-.06 1.374-.09 1.782-.09 2.904 0 4.356 1.188 4.356 3.564 0 1.284-.522 2.376-1.566 3.276.432.996 1.17 2.586 2.214 4.77h-2.376c-.588-1.284-1.224-2.664-1.908-4.14a3.17 3.17 0 0 1-.54.036c-.528 0-.87-.048-1.026-.144V125h-2.358zm2.359-9.594v3.438c.36.108.75.162 1.17.162 1.032 0 1.548-.684 1.548-2.052 0-1.116-.534-1.674-1.602-1.674-.612 0-.984.042-1.116.126zm15.869-2.016c1.752 0 3.102.696 4.05 2.088.744 1.092 1.116 2.412 1.116 3.96 0 1.776-.486 3.198-1.458 4.266-.924 1.008-2.16 1.512-3.708 1.512-1.776 0-3.126-.648-4.05-1.944-.744-1.02-1.116-2.298-1.116-3.834 0-1.8.486-3.27 1.458-4.41.924-1.092 2.16-1.638 3.708-1.638zm0 9.846c.864 0 1.53-.324 1.998-.972.468-.66.702-1.602.702-2.826 0-1.308-.258-2.328-.774-3.06-.48-.648-1.122-.972-1.926-.972-.864 0-1.536.354-2.016 1.062-.468.708-.702 1.698-.702 2.97 0 2.532.906 3.798 2.718 3.798zm7.331 1.764v-11.376c.168-.036.642-.084 1.422-.144.78-.06 1.374-.09 1.782-.09 2.904 0 4.356 1.188 4.356 3.564 0 1.284-.522 2.376-1.566 3.276.432.996 1.17 2.586 2.214 4.77h-2.376c-.588-1.284-1.224-2.664-1.908-4.14a3.17 3.17 0 0 1-.54.036c-.528 0-.87-.048-1.026-.144V125h-2.358zm2.358-9.594v3.438c.36.108.75.162 1.17.162 1.032 0 1.548-.684 1.548-2.052 0-1.116-.534-1.674-1.602-1.674-.612 0-.984.042-1.116.126zm7.099-1.782c.588-.156 1.626-.234 3.114-.234 2.052 0 3.618.6 4.698 1.8.924 1.02 1.386 2.352 1.386 3.996 0 2.052-.588 3.594-1.764 4.626-1.068.936-2.556 1.404-4.464 1.404-1.2 0-2.19-.078-2.97-.234v-11.358zm2.358 9.648c.24.06.54.09.9.09 2.316 0 3.474-1.368 3.474-4.104 0-1.356-.384-2.394-1.152-3.114-.624-.576-1.416-.864-2.376-.864-.276 0-.558.03-.846.09v7.902zm8.71-9.666h7.452v1.89h-5.094v2.682h4.248v1.89h-4.248v3.042h5.328V125h-7.686v-11.394zM144.049 125v-11.376c.168-.036.642-.084 1.422-.144.78-.06 1.374-.09 1.782-.09 2.904 0 4.356 1.188 4.356 3.564 0 1.284-.522 2.376-1.566 3.276.432.996 1.17 2.586 2.214 4.77h-2.376c-.588-1.284-1.224-2.664-1.908-4.14a3.17 3.17 0 0 1-.54.036c-.528 0-.87-.048-1.026-.144V125h-2.358zm2.358-9.594v3.438c.36.108.75.162 1.17.162 1.032 0 1.548-.684 1.548-2.052 0-1.116-.534-1.674-1.602-1.674-.612 0-.984.042-1.116.126zm14.155-.864c-.216.324-.552.81-1.008 1.458-.96-.42-1.818-.63-2.574-.63-.996 0-1.494.372-1.494 1.116 0 .336.114.6.342.792.228.192.702.426 1.422.702 1.296.504 2.226 1.05 2.79 1.638.576.588.864 1.296.864 2.124 0 1.164-.438 2.064-1.314 2.7-.72.516-1.614.774-2.682.774-1.26 0-2.604-.456-4.032-1.368l1.044-1.458c.696.468 1.59.702 2.682.702 1.236 0 1.854-.498 1.854-1.494 0-.648-.666-1.2-1.998-1.656-2.148-.72-3.222-1.872-3.222-3.456 0-.96.36-1.722 1.08-2.286.672-.54 1.566-.81 2.682-.81 1.272 0 2.46.384 3.564 1.152zM38.723 150.24v-1.05h1.005v-.96c0-1.27.58-1.905 1.74-1.905.64 0 1.235.205 1.785.615l-.45.69c-.34-.2-.685-.3-1.035-.3-.5 0-.75.33-.75.99v.87h1.815v1.05h-1.815V156h-1.29v-5.76h-1.005zm7.16-.375h.06c.47-.57 1.02-.855 1.65-.855.8 0 1.39.31 1.77.93l-1.08.675c-.33-.33-.69-.495-1.08-.495-.5 0-.92.255-1.26.765V156h-1.29v-6.81h1.11l.12.675zm7.378 6.315c-1.03 0-1.865-.385-2.505-1.155-.55-.66-.825-1.465-.825-2.415 0-1.1.335-1.99 1.005-2.67.6-.62 1.37-.93 2.31-.93 1.08 0 1.93.395 2.55 1.185.51.66.765 1.465.765 2.415 0 1.09-.35 1.98-1.05 2.67-.62.6-1.37.9-2.25.9zm-.03-1.02c.6 0 1.075-.23 1.425-.69.36-.46.54-1.08.54-1.86 0-.81-.19-1.455-.57-1.935-.35-.45-.81-.675-1.38-.675-.58 0-1.05.24-1.41.72-.36.48-.54 1.11-.54 1.89 0 .84.2 1.49.6 1.95.35.4.795.6 1.335.6zm6.421-5.295h.075c.51-.57 1.215-.855 2.115-.855 1.13 0 1.865.405 2.205 1.215.58-.81 1.405-1.215 2.475-1.215 1.64 0 2.46.97 2.46 2.91V156h-1.29v-3.795c0-.75-.135-1.285-.405-1.605-.26-.32-.7-.48-1.32-.48-.62 0-1.185.275-1.695.825.06.28.09.605.09.975V156h-1.29v-3.9c0-.69-.14-1.19-.42-1.5-.27-.32-.71-.48-1.32-.48-.29 0-.59.075-.9.225-.31.15-.54.33-.69.54V156h-1.29v-6.81h1.08l.12.675zM74.322 156v-1.215l2.384-2.655c.72-.8 1.205-1.42 1.455-1.86.26-.45.39-.9.39-1.35 0-.42-.15-.76-.45-1.02-.3-.26-.7-.39-1.2-.39-.6 0-1.235.22-1.905.66l-.585-.84c.89-.68 1.8-1.02 2.73-1.02.87 0 1.575.255 2.115.765.51.47.765 1.085.765 1.845 0 .49-.115.965-.345 1.425-.23.45-.63 1-1.2 1.65l-2.49 2.85h3.825V156h-5.49zm10.656.18c-1.15 0-2.04-.52-2.67-1.56-.54-.88-.81-1.995-.81-3.345 0-1.51.355-2.735 1.065-3.675.63-.85 1.435-1.275 2.415-1.275 1.11 0 2 .545 2.67 1.635.55.91.825 2.015.825 3.315 0 1.55-.35 2.78-1.05 3.69-.63.81-1.445 1.215-2.445 1.215zm0-8.655c-.64 0-1.135.32-1.485.96-.35.63-.525 1.53-.525 2.7 0 1.22.19 2.175.57 2.865.36.62.835.93 1.425.93.64 0 1.14-.335 1.5-1.005.36-.68.54-1.61.54-2.79 0-1.22-.19-2.15-.57-2.79-.35-.58-.835-.87-1.455-.87zM90.01 156v-1.215l2.385-2.655c.72-.8 1.205-1.42 1.455-1.86.26-.45.39-.9.39-1.35 0-.42-.15-.76-.45-1.02-.3-.26-.7-.39-1.2-.39-.6 0-1.235.22-1.905.66l-.585-.84c.89-.68 1.8-1.02 2.73-1.02.87 0 1.575.255 2.115.765.51.47.765 1.085.765 1.845 0 .49-.115.965-.345 1.425-.23.45-.63 1-1.2 1.65l-2.49 2.85H95.5V156h-5.49zm10.732-9.495V156h-1.395v-7.965l-1.755 1.02-.675-1.035 2.43-1.515h1.395zm7.791 3.735-.015 3.96c0 .66.25.99.75.99.35 0 .695-.1 1.035-.3l.45.69c-.55.41-1.145.615-1.785.615-1.16 0-1.74-.635-1.74-1.905v-4.05h-1.005v-1.05h1.02v-1.395l1.29-.675v2.07h2.04v1.05h-2.04zm6.749 5.94c-1.03 0-1.865-.385-2.505-1.155-.55-.66-.825-1.465-.825-2.415 0-1.1.335-1.99 1.005-2.67.6-.62 1.37-.93 2.31-.93 1.08 0 1.93.395 2.55 1.185.51.66.765 1.465.765 2.415 0 1.09-.35 1.98-1.05 2.67-.62.6-1.37.9-2.25.9zm-.03-1.02c.6 0 1.075-.23 1.425-.69.36-.46.54-1.08.54-1.86 0-.81-.19-1.455-.57-1.935-.35-.45-.81-.675-1.38-.675-.58 0-1.05.24-1.41.72-.36.48-.54 1.11-.54 1.89 0 .84.2 1.49.6 1.95.35.4.795.6 1.335.6zm8.303.84v-1.215l2.385-2.655c.72-.8 1.205-1.42 1.455-1.86.26-.45.39-.9.39-1.35 0-.42-.15-.76-.45-1.02-.3-.26-.7-.39-1.2-.39-.6 0-1.235.22-1.905.66l-.585-.84c.89-.68 1.8-1.02 2.73-1.02.87 0 1.575.255 2.115.765.51.47.765 1.085.765 1.845 0 .49-.115.965-.345 1.425-.23.45-.63 1-1.2 1.65l-2.49 2.85h3.825V156h-5.49zm10.657.18c-1.15 0-2.04-.52-2.67-1.56-.54-.88-.81-1.995-.81-3.345 0-1.51.355-2.735 1.065-3.675.63-.85 1.435-1.275 2.415-1.275 1.11 0 2 .545 2.67 1.635.55.91.825 2.015.825 3.315 0 1.55-.35 2.78-1.05 3.69-.63.81-1.445 1.215-2.445 1.215zm0-8.655c-.64 0-1.135.32-1.485.96-.35.63-.525 1.53-.525 2.7 0 1.22.19 2.175.57 2.865.36.62.835.93 1.425.93.64 0 1.14-.335 1.5-1.005.36-.68.54-1.61.54-2.79 0-1.22-.19-2.15-.57-2.79-.35-.58-.835-.87-1.455-.87zm5.031 8.475v-1.215l2.385-2.655c.72-.8 1.205-1.42 1.455-1.86.26-.45.39-.9.39-1.35 0-.42-.15-.76-.45-1.02-.3-.26-.7-.39-1.2-.39-.6 0-1.235.22-1.905.66l-.585-.84c.89-.68 1.8-1.02 2.73-1.02.87 0 1.575.255 2.115.765.51.47.765 1.085.765 1.845 0 .49-.115.965-.345 1.425-.23.45-.63 1-1.2 1.65l-2.49 2.85h3.825V156h-5.49zm7.207 0v-1.215l2.385-2.655c.72-.8 1.205-1.42 1.455-1.86.26-.45.39-.9.39-1.35 0-.42-.15-.76-.45-1.02-.3-.26-.7-.39-1.2-.39-.6 0-1.235.22-1.905.66l-.585-.84c.89-.68 1.8-1.02 2.73-1.02.87 0 1.575.255 2.115.765.51.47.765 1.085.765 1.845 0 .49-.115.965-.345 1.425-.23.45-.63 1-1.2 1.65l-2.49 2.85h3.825V156h-5.49z" fill="#3D4E76"/>
    <defs>
        <linearGradient id="rk9l0d1x5a" x1="18.002" y1="80" x2="172" y2="80" gradientUnits="userSpaceOnUse">
            <stop stop-color="#FDBC11"/>
            <stop offset="1" stop-color="#F6931D"/>
        </linearGradient>
    </defs>
</svg>
