<svg width="343" height="232" viewBox="0 0 343 232" fill="none" xmlns="http://www.w3.org/2000/svg">
    <g clip-path="url(#bwpmf47r7a)">
        <rect y=".477" width="343" height="231.492" rx="7" fill="#fff" stroke="#E9E9E9" stroke-width="1.4"/>
        <mask id="auo8zxdosb" style="mask-type:luminance" maskUnits="userSpaceOnUse" x="-1" y="-1" width="345" height="234">
            <rect y=".477" width="343" height="231.492" rx="7" fill="#fff" stroke="#fff" stroke-width="1.4"/>
        </mask>
        <g mask="url(#auo8zxdosb)">
            <path d="M161.804 50.138h-4.74v-3h4.74v-5.34h3.51v5.34h4.77v3h-4.77v5.28h-3.51v-5.28zm10.201-1.56c2.7-4.12 5.36-8.17 7.98-12.15h3.87v12.15h3.12v3.15h-3.12v3.69h-3.9v-3.69h-7.95v-3.15zm3.39 0h4.56v-7.11l-4.56 7.11zm13.754 6.84v-3.33c.48-.54 1.12-1.27 1.92-2.19 1.26-1.4 2.19-2.46 2.79-3.18 1.34-1.6 2.18-2.69 2.52-3.27.34-.6.51-1.26.51-1.98 0-.6-.22-1.1-.66-1.5-.44-.4-1-.6-1.68-.6-1.18 0-2.48.48-3.9 1.44l-1.65-2.4c2-1.58 4.09-2.37 6.27-2.37 1.74 0 3.13.47 4.17 1.41 1.02.92 1.53 2.19 1.53 3.81 0 1.2-.4 2.46-1.2 3.78-.78 1.3-2.31 3.24-4.59 5.82-.56.64-.97 1.11-1.23 1.41h6.81v3.15h-11.61zm14.605 3.15-.96-1.77c.88-.34 1.32-.8 1.32-1.38-.96 0-1.44-.57-1.44-1.71 0-.58.19-1.06.57-1.44.4-.38.91-.57 1.53-.57s1.13.25 1.53.75c.4.48.6 1.09.6 1.83 0 1.06-.3 1.99-.9 2.79-.58.8-1.33 1.3-2.25 1.5zm11.843-22.5c2.32 0 4.18 1.11 5.58 3.33 1.18 1.84 1.77 4.03 1.77 6.57 0 3.06-.75 5.51-2.25 7.35-1.32 1.64-3.02 2.46-5.1 2.46-2.38 0-4.24-1.06-5.58-3.18-1.12-1.76-1.68-3.97-1.68-6.63 0-2.96.74-5.39 2.22-7.29 1.34-1.74 3.02-2.61 5.04-2.61zm.06 3.36c-2.16 0-3.24 2.12-3.24 6.36 0 2.14.31 3.82.93 5.04.56 1.1 1.3 1.65 2.22 1.65 1.02 0 1.82-.59 2.4-1.77.6-1.2.9-2.84.9-4.92 0-4.24-1.07-6.36-3.21-6.36zm16.845-3.36c2.32 0 4.18 1.11 5.58 3.33 1.18 1.84 1.77 4.03 1.77 6.57 0 3.06-.75 5.51-2.25 7.35-1.32 1.64-3.02 2.46-5.1 2.46-2.38 0-4.24-1.06-5.58-3.18-1.12-1.76-1.68-3.97-1.68-6.63 0-2.96.74-5.39 2.22-7.29 1.34-1.74 3.02-2.61 5.04-2.61zm.06 3.36c-2.16 0-3.24 2.12-3.24 6.36 0 2.14.31 3.82.93 5.04.56 1.1 1.3 1.65 2.22 1.65 1.02 0 1.82-.59 2.4-1.77.6-1.2.9-2.84.9-4.92 0-4.24-1.07-6.36-3.21-6.36zm16.844-3.36c2.32 0 4.18 1.11 5.58 3.33 1.18 1.84 1.77 4.03 1.77 6.57 0 3.06-.75 5.51-2.25 7.35-1.32 1.64-3.02 2.46-5.1 2.46-2.38 0-4.24-1.06-5.58-3.18-1.12-1.76-1.68-3.97-1.68-6.63 0-2.96.74-5.39 2.22-7.29 1.34-1.74 3.02-2.61 5.04-2.61zm.06 3.36c-2.16 0-3.24 2.12-3.24 6.36 0 2.14.31 3.82.93 5.04.56 1.1 1.3 1.65 2.22 1.65 1.02 0 1.82-.59 2.4-1.77.6-1.2.9-2.84.9-4.92 0-4.24-1.07-6.36-3.21-6.36zm10.274 19.14-.96-1.77c.88-.34 1.32-.8 1.32-1.38-.96 0-1.44-.57-1.44-1.71 0-.58.19-1.06.57-1.44.4-.38.91-.57 1.53-.57s1.13.25 1.53.75c.4.48.6 1.09.6 1.83 0 1.06-.3 1.99-.9 2.79-.58.8-1.33 1.3-2.25 1.5zm11.844-22.5c2.32 0 4.18 1.11 5.58 3.33 1.18 1.84 1.77 4.03 1.77 6.57 0 3.06-.75 5.51-2.25 7.35-1.32 1.64-3.02 2.46-5.1 2.46-2.38 0-4.24-1.06-5.58-3.18-1.12-1.76-1.68-3.97-1.68-6.63 0-2.96.74-5.39 2.22-7.29 1.34-1.74 3.02-2.61 5.04-2.61zm.06 3.36c-2.16 0-3.24 2.12-3.24 6.36 0 2.14.31 3.82.93 5.04.56 1.1 1.3 1.65 2.22 1.65 1.02 0 1.82-.59 2.4-1.77.6-1.2.9-2.84.9-4.92 0-4.24-1.07-6.36-3.21-6.36zm16.844-3.36c2.32 0 4.18 1.11 5.58 3.33 1.18 1.84 1.77 4.03 1.77 6.57 0 3.06-.75 5.51-2.25 7.35-1.32 1.64-3.02 2.46-5.1 2.46-2.38 0-4.24-1.06-5.58-3.18-1.12-1.76-1.68-3.97-1.68-6.63 0-2.96.74-5.39 2.22-7.29 1.34-1.74 3.02-2.61 5.04-2.61zm.06 3.36c-2.16 0-3.24 2.12-3.24 6.36 0 2.14.31 3.82.93 5.04.56 1.1 1.3 1.65 2.22 1.65 1.02 0 1.82-.59 2.4-1.77.6-1.2.9-2.84.9-4.92 0-4.24-1.07-6.36-3.21-6.36zm16.844-3.36c2.32 0 4.18 1.11 5.58 3.33 1.18 1.84 1.77 4.03 1.77 6.57 0 3.06-.75 5.51-2.25 7.35-1.32 1.64-3.02 2.46-5.1 2.46-2.38 0-4.24-1.06-5.58-3.18-1.12-1.76-1.68-3.97-1.68-6.63 0-2.96.74-5.39 2.22-7.29 1.34-1.74 3.02-2.61 5.04-2.61zm.06 3.36c-2.16 0-3.24 2.12-3.24 6.36 0 2.14.31 3.82.93 5.04.56 1.1 1.3 1.65 2.22 1.65 1.02 0 1.82-.59 2.4-1.77.6-1.2.9-2.84.9-4.92 0-4.24-1.07-6.36-3.21-6.36zm-77.1 33.67c0 3.707-1.626 5.56-4.88 5.56-3.253 0-4.88-1.853-4.88-5.56v-7.34h2.64v7.7c0 2 .747 3 2.24 3 1.52 0 2.28-1 2.28-3v-7.7h2.6v7.34zm10.756-6.3c-.24.36-.613.9-1.12 1.62-1.067-.467-2.02-.7-2.86-.7-1.107 0-1.66.413-1.66 1.24 0 .373.127.667.38.88.253.213.78.473 1.58.78 1.44.56 2.473 1.167 3.1 1.82.64.653.96 1.44.96 2.36 0 1.293-.487 2.293-1.46 3-.8.573-1.793.86-2.98.86-1.4 0-2.893-.507-4.48-1.52l1.16-1.62c.773.52 1.767.78 2.98.78 1.373 0 2.06-.553 2.06-1.66 0-.72-.74-1.333-2.22-1.84-2.387-.8-3.58-2.08-3.58-3.84 0-1.067.4-1.913 1.2-2.54.747-.6 1.74-.9 2.98-.9 1.413 0 2.733.427 3.96 1.28zm2.883-1.02c.653-.173 1.806-.26 3.46-.26 2.28 0 4.02.667 5.22 2 1.026 1.133 1.54 2.613 1.54 4.44 0 2.28-.654 3.993-1.96 5.14-1.187 1.04-2.84 1.56-4.96 1.56-1.334 0-2.434-.087-3.3-.26v-12.62zm2.62 10.72c.266.067.6.1 1 .1 2.573 0 3.86-1.52 3.86-4.56 0-1.507-.427-2.66-1.28-3.46-.694-.64-1.574-.96-2.64-.96-.307 0-.62.033-.94.1v8.78z" fill="url(#2xf4pfbenc)"/>
            <path d="M182.707 110.418v-9.733c.903-.133 1.735-.2 2.495-.2 2.361 0 3.542.996 3.542 2.988 0 1.078-.36 1.894-1.078 2.448-.585.452-1.335.678-2.249.678-.441 0-.867-.036-1.278-.108v3.927h-1.432zm1.432-8.686v3.604c.411.072.837.108 1.278.108 1.212 0 1.818-.657 1.818-1.971 0-1.232-.652-1.848-1.956-1.848-.472 0-.852.036-1.14.107zm13.91 4.605c0 2.844-1.191 4.266-3.573 4.266-2.382 0-3.573-1.422-3.573-4.266v-5.667h1.448v5.99c0 1.807.708 2.711 2.125 2.711s2.125-.904 2.125-2.711v-5.99h1.448v5.667zm2.765 4.081v-9.733c.903-.133 1.735-.2 2.495-.2 2.361 0 3.542.996 3.542 2.988 0 1.293-.534 2.207-1.602 2.741l1.941 4.204h-1.448l-1.756-3.85a4.058 4.058 0 0 1-.585.031c-.359 0-.744-.036-1.155-.108v3.927h-1.432zm1.432-8.686v3.604c.411.072.796.108 1.155.108 1.294 0 1.941-.657 1.941-1.971 0-1.232-.652-1.848-1.956-1.848-.472 0-.852.036-1.14.107zm13.31 7.747c-.862.749-1.801 1.124-2.818 1.124-1.478 0-2.623-.57-3.434-1.71-.637-.903-.955-1.986-.955-3.249 0-1.437.395-2.664 1.186-3.681.78-.985 1.771-1.478 2.972-1.478 1.068 0 2.043.354 2.926 1.063l-.57.862c-.698-.462-1.391-.693-2.079-.693-.934 0-1.668.385-2.202 1.155-.482.698-.724 1.622-.724 2.772 0 1.14.303 2.053.909 2.741.554.637 1.273.955 2.156.955.667 0 1.355-.241 2.064-.724l.569.863zm3.579.939h-1.417v-9.748h1.417v4.096h4.697v-4.096h1.432v9.748h-1.432v-4.466h-4.697v4.466zm11.271-9.748h1.356l3.526 9.748h-1.463l-.739-2.202h-3.989l-.754 2.202h-1.463l3.526-9.748zm.678 1.725-1.586 4.635h3.172l-1.586-4.635zm10.629-.17c-.699-.349-1.402-.523-2.11-.523-.503 0-.914.118-1.232.354-.318.226-.478.518-.478.878 0 .646.426 1.129 1.279 1.447 1.273.472 2.176.97 2.71 1.494.534.513.801 1.15.801 1.91 0 .924-.354 1.647-1.063 2.171-.575.431-1.288.647-2.14.647-1.017 0-2.074-.349-3.173-1.047l.616-.878c.688.421 1.489.631 2.403.631 1.252 0 1.878-.529 1.878-1.586 0-.821-.528-1.412-1.586-1.771-1.109-.38-1.915-.801-2.418-1.263-.492-.462-.739-1.021-.739-1.678 0-.781.303-1.407.909-1.879.554-.431 1.283-.647 2.187-.647 1.016 0 1.94.287 2.772.862l-.616.878zm3.223-1.555h5.944v1.186h-4.512v2.91h3.788v1.186h-3.788v3.28h4.712v1.186h-6.144v-9.748zm8.229.015c.77-.133 1.586-.2 2.449-.2 1.694 0 2.992.508 3.896 1.525.77.862 1.155 2.007 1.155 3.434 0 1.735-.483 3.054-1.448 3.958-.852.8-2.022 1.201-3.511 1.201a14.97 14.97 0 0 1-2.541-.2v-9.718zm1.432 8.67a5.2 5.2 0 0 0 1.109.108c1.16 0 2.038-.369 2.633-1.109.545-.677.817-1.627.817-2.849 0-1.314-.38-2.32-1.14-3.018-.616-.575-1.401-.862-2.356-.862-.421 0-.775.036-1.063.107v7.623zm11.817 1.063v-9.733c.904-.133 1.735-.2 2.495-.2 2.362 0 3.542.996 3.542 2.988 0 1.078-.359 1.894-1.078 2.448-.585.452-1.334.678-2.248.678-.442 0-.868-.036-1.278-.108v3.927h-1.433zm1.433-8.686v3.604c.41.072.836.108 1.278.108 1.211 0 1.817-.657 1.817-1.971 0-1.232-.652-1.848-1.956-1.848-.472 0-.852.036-1.139.107zm8.128-1.062h1.355l3.526 9.748h-1.463l-.739-2.202h-3.988l-.755 2.202h-1.463l3.527-9.748zm.677 1.725-1.586 4.635h3.172l-1.586-4.635zm5.824 8.023v-9.733c.904-.133 1.735-.2 2.495-.2 2.361 0 3.542.996 3.542 2.988 0 1.293-.534 2.207-1.602 2.741l1.941 4.204h-1.448l-1.755-3.85a4.083 4.083 0 0 1-.586.031c-.359 0-.744-.036-1.155-.108v3.927h-1.432zm1.432-8.686v3.604c.411.072.796.108 1.155.108 1.294 0 1.941-.657 1.941-1.971 0-1.232-.652-1.848-1.956-1.848-.472 0-.852.036-1.14.107zm8.644.124h-2.926v-1.186h7.516v1.186h-3.157v8.562h-1.433v-8.562zm11.167.369c-.699-.349-1.402-.523-2.11-.523-.503 0-.914.118-1.232.354-.318.226-.478.518-.478.878 0 .646.426 1.129 1.279 1.447 1.273.472 2.176.97 2.71 1.494.534.513.801 1.15.801 1.91 0 .924-.354 1.647-1.063 2.171-.575.431-1.288.647-2.14.647-1.017 0-2.074-.349-3.173-1.047l.616-.878c.688.421 1.489.631 2.403.631 1.252 0 1.878-.529 1.878-1.586 0-.821-.528-1.412-1.586-1.771-1.109-.38-1.915-.801-2.418-1.263-.492-.462-.739-1.021-.739-1.678 0-.781.303-1.407.909-1.879.554-.431 1.283-.647 2.187-.647 1.016 0 1.94.287 2.772.862l-.616.878zm-110.364 21.126h1.386v.601c0 1.17-.216 2.084-.647 2.741l1.54 1.725h-1.586l-.678-.739c-.575.616-1.37.924-2.387.924-.955 0-1.714-.303-2.279-.909-.472-.503-.708-1.114-.708-1.832 0-.524.138-1.037.415-1.54a3.351 3.351 0 0 1 1.094-1.202l-.185-.2c-.708-.78-1.063-1.504-1.063-2.171 0-.678.226-1.222.678-1.633.462-.41 1.068-.616 1.817-.616.698 0 1.438.267 2.218.801l-.601.847a3.412 3.412 0 0 0-1.632-.431c-.791 0-1.186.329-1.186.986 0 .482.323 1.103.97 1.863l2.634 3.065c.133-.267.2-.745.2-1.433v-.847zm-3.142.586c-.215.174-.4.426-.554.754a2.314 2.314 0 0 0-.216.924c0 .524.149.945.447 1.263.298.318.688.477 1.17.477.627 0 1.109-.22 1.448-.662l-2.295-2.756zm10.473 4.481v-9.733c.904-.133 1.735-.2 2.495-.2 2.361 0 3.542.996 3.542 2.988 0 1.293-.534 2.207-1.602 2.741l1.941 4.204h-1.448l-1.755-3.85a4.083 4.083 0 0 1-.586.031c-.359 0-.744-.036-1.155-.108v3.927h-1.432zm1.432-8.686v3.604c.411.072.796.108 1.155.108 1.294 0 1.941-.657 1.941-1.971 0-1.232-.652-1.848-1.956-1.848-.472 0-.852.036-1.14.107zm6.596-1.062h5.945v1.186h-4.513v2.91h3.789v1.186h-3.789v3.28h4.713v1.186h-6.145v-9.748zm8.229 9.748v-9.733c.904-.133 1.735-.2 2.495-.2 2.362 0 3.542.996 3.542 2.988 0 1.078-.359 1.894-1.078 2.448-.585.452-1.334.678-2.248.678-.442 0-.868-.036-1.278-.108v3.927h-1.433zm1.433-8.686v3.604c.41.072.836.108 1.278.108 1.211 0 1.817-.657 1.817-1.971 0-1.232-.652-1.848-1.956-1.848-.472 0-.852.036-1.139.107zm8.128-1.062h1.355l3.526 9.748h-1.463l-.739-2.202h-3.988l-.755 2.202h-1.463l3.527-9.748zm.677 1.725-1.586 4.635h3.172l-1.586-4.635zm7.241-1.725v9.748h-1.417v-9.748h1.417zm2.779 9.748v-9.733c.904-.133 1.735-.2 2.495-.2 2.361 0 3.542.996 3.542 2.988 0 1.293-.534 2.207-1.602 2.741l1.941 4.204h-1.448l-1.756-3.85a4.058 4.058 0 0 1-.585.031c-.359 0-.744-.036-1.155-.108v3.927h-1.432zm1.432-8.686v3.604c.411.072.796.108 1.155.108 1.294 0 1.941-.657 1.941-1.971 0-1.232-.652-1.848-1.956-1.848-.472 0-.852.036-1.14.107zm13.963 8.871c-1.447 0-2.561-.57-3.341-1.71-.616-.903-.924-2.002-.924-3.295 0-1.52.405-2.762 1.216-3.727.77-.924 1.787-1.386 3.049-1.386 1.438 0 2.552.59 3.342 1.771.616.924.924 2.038.924 3.342 0 1.509-.405 2.731-1.216 3.665-.77.893-1.787 1.34-3.05 1.34zm0-1.232c.955 0 1.674-.395 2.156-1.186.401-.657.601-1.519.601-2.587 0-1.242-.262-2.213-.785-2.911-.483-.647-1.14-.97-1.972-.97-.944 0-1.663.416-2.156 1.247-.4.678-.6 1.556-.6 2.634 0 1.232.262 2.181.785 2.849.483.616 1.14.924 1.971.924zm6.427 1.047v-9.733c.903-.133 1.735-.2 2.495-.2 2.361 0 3.542.996 3.542 2.988 0 1.293-.534 2.207-1.602 2.741l1.94 4.204h-1.447l-1.756-3.85a4.058 4.058 0 0 1-.585.031c-.359 0-.744-.036-1.155-.108v3.927h-1.432zm1.432-8.686v3.604c.411.072.796.108 1.155.108 1.294 0 1.94-.657 1.94-1.971 0-1.232-.652-1.848-1.955-1.848-.473 0-.853.036-1.14.107zm6.719-1.047c.77-.133 1.586-.2 2.448-.2 1.694 0 2.993.508 3.897 1.525.77.862 1.155 2.007 1.155 3.434 0 1.735-.483 3.054-1.448 3.958-.852.8-2.022 1.201-3.511 1.201a14.97 14.97 0 0 1-2.541-.2v-9.718zm1.432 8.67a5.2 5.2 0 0 0 1.109.108c1.16 0 2.038-.369 2.633-1.109.544-.677.816-1.627.816-2.849 0-1.314-.379-2.32-1.139-3.018-.616-.575-1.402-.862-2.356-.862-.421 0-.775.036-1.063.107v7.623zm8.1-8.685h5.944v1.186h-4.512v2.91h3.788v1.186h-3.788v3.28h4.712v1.186h-6.144v-9.748zm8.229 9.748v-9.733c.903-.133 1.735-.2 2.495-.2 2.361 0 3.542.996 3.542 2.988 0 1.293-.534 2.207-1.602 2.741l1.941 4.204h-1.448l-1.756-3.85a4.058 4.058 0 0 1-.585.031c-.359 0-.744-.036-1.155-.108v3.927h-1.432zm1.432-8.686v3.604c.411.072.796.108 1.155.108 1.294 0 1.941-.657 1.941-1.971 0-1.232-.652-1.848-1.956-1.848-.472 0-.852.036-1.14.107zm11.524.493c-.698-.349-1.401-.523-2.11-.523-.503 0-.914.118-1.232.354-.318.226-.477.518-.477.878 0 .646.426 1.129 1.278 1.447 1.273.472 2.177.97 2.71 1.494.534.513.801 1.15.801 1.91 0 .924-.354 1.647-1.062 2.171-.575.431-1.289.647-2.141.647-1.016 0-2.074-.349-3.172-1.047l.616-.878c.687.421 1.488.631 2.402.631 1.253 0 1.879-.529 1.879-1.586 0-.821-.529-1.412-1.586-1.771-1.109-.38-1.915-.801-2.418-1.263-.493-.462-.739-1.021-.739-1.678 0-.781.302-1.407.908-1.879.555-.431 1.284-.647 2.187-.647 1.016 0 1.94.287 2.772.862l-.616.878z" fill="#3D4E76"/>
            <path d="M73.573 60.035h4.963c1.745 0 3.16 1.365 3.16 3.046v90.557c0 1.684-1.415 3.049-3.16 3.049H31.158c-1.745 0-3.158-1.365-3.158-3.049V63.081c0-1.681 1.413-3.047 3.158-3.047h4.963" stroke="#3D4E76" stroke-width="1.408" stroke-linecap="round" stroke-linejoin="round"/>
            <path clip-rule="evenodd" d="M35.16 104.781h37.586V88.672H35.16v16.109z" stroke="#3D4E76" stroke-width="1.408" stroke-linecap="round" stroke-linejoin="round"/>
            <path fill-rule="evenodd" clip-rule="evenodd" d="M42.319 99.411h25.058v-5.37H42.319v5.37z" fill="#01B8B6"/>
            <path d="M35.16 73.458h37.586M35.16 49.295v-5.23c0-4.031 3.395-7.298 7.586-7.298H65.16c4.19 0 7.586 3.267 7.586 7.298v5.23M71.852 49.295v19.689M36.054 68.984V49.295M42.319 51.98h23.268M47.688 59.14h14.32M80.906 79.723h10.958c1.856 0 3.36 1.516 3.36 3.385v55.874c0 1.87-1.504 3.386-3.36 3.386H80.906M42.319 121.785h3.58M53.058 121.785h3.58M62.007 121.785h3.58M42.319 130.734h3.58M53.058 130.734h3.58M62.007 130.734h3.58M42.319 139.683h3.58M53.058 139.683h3.58M62.007 139.683h3.58" stroke="#3D4E76" stroke-width="1.408" stroke-linecap="round" stroke-linejoin="round"/>
            <path clip-rule="evenodd" d="M118.388 126.259a4.475 4.475 0 1 1-.002 8.95 4.475 4.475 0 0 1 .002-8.95z" stroke="#3D4E76" stroke-width="1.408" stroke-linecap="round" stroke-linejoin="round"/>
            <path clip-rule="evenodd" d="M151.5 79.481v57.759c0 2.832-2.324 5.128-5.189 5.128h-32.578c-2.866 0-5.19-2.296-5.19-5.128V79.481c0-2.832 2.324-5.128 5.19-5.128h32.578c2.865 0 5.189 2.296 5.189 5.128z" stroke="#3D4E76" stroke-width="1.408" stroke-linecap="round" stroke-linejoin="round"/>
            <path fill-rule="evenodd" clip-rule="evenodd" d="M122.862 86.633v4.078c0 1.839-1.674 3.33-3.74 3.33h-1.469c-2.066 0-3.74-1.491-3.74-3.33v-4.078c0-1.839 1.674-3.33 3.74-3.33h1.469c2.066 0 3.74 1.491 3.74 3.33" fill="#01B8B6"/>
            <path d="M122.862 120.89c0-1.977-2.003-3.58-4.474-3.58s-4.475 1.603-4.475 3.58M141.656 133.419v-7.16M141.656 119.1v-7.16M141.656 106.571v-7.16M141.656 92.252v-7.16" stroke="#3D4E76" stroke-width="1.408" stroke-linecap="round" stroke-linejoin="round"/>
            <path d="M110.546 208.461v-10.128h6.176v1.232h-4.688v3.04h3.936v1.232h-3.936v4.624h-1.488zm10.571.192c-1.099 0-1.989-.411-2.672-1.232-.587-.704-.88-1.563-.88-2.576 0-1.173.357-2.123 1.072-2.848.64-.661 1.461-.992 2.464-.992 1.152 0 2.059.421 2.72 1.264.544.704.816 1.563.816 2.576 0 1.163-.373 2.112-1.12 2.848-.661.64-1.461.96-2.4.96zm-.032-1.088c.64 0 1.147-.245 1.52-.736.384-.491.576-1.152.576-1.984 0-.864-.203-1.552-.608-2.064a1.775 1.775 0 0 0-1.472-.72c-.619 0-1.12.256-1.504.768-.384.512-.576 1.184-.576 2.016 0 .896.213 1.589.64 2.08.373.427.848.64 1.424.64zm6.881-5.648h.064c.502-.608 1.088-.912 1.76-.912.854 0 1.483.331 1.888.992l-1.152.72c-.352-.352-.736-.528-1.152-.528-.533 0-.981.272-1.344.816v5.456h-1.376v-7.264h1.184l.128.72zm6.328 0h.08c.544-.608 1.296-.912 2.256-.912 1.205 0 1.989.432 2.352 1.296.618-.864 1.498-1.296 2.64-1.296 1.749 0 2.624 1.035 2.624 3.104v4.352h-1.376v-4.048c0-.8-.144-1.371-.432-1.712-.278-.341-.747-.512-1.408-.512-.662 0-1.264.293-1.808.88.064.299.096.645.096 1.04v4.352h-1.376v-4.16c0-.736-.15-1.269-.448-1.6-.288-.341-.758-.512-1.408-.512-.31 0-.63.08-.96.24-.331.16-.576.352-.736.576v5.456h-1.376v-7.264h1.152l.128.72zm15.647 6.544v-1.296l2.544-2.832c.768-.853 1.285-1.515 1.552-1.984.277-.48.416-.96.416-1.44 0-.448-.16-.811-.48-1.088-.32-.277-.747-.416-1.28-.416-.64 0-1.318.235-2.032.704l-.624-.896c.949-.725 1.92-1.088 2.912-1.088.928 0 1.68.272 2.256.816.544.501.816 1.157.816 1.968 0 .523-.123 1.029-.368 1.52-.246.48-.672 1.067-1.28 1.76l-2.656 3.04h4.08v1.232h-5.856zm11.367.192c-1.227 0-2.176-.555-2.848-1.664-.576-.939-.864-2.128-.864-3.568 0-1.611.379-2.917 1.136-3.92.672-.907 1.531-1.36 2.576-1.36 1.184 0 2.133.581 2.848 1.744.587.971.88 2.149.88 3.536 0 1.653-.373 2.965-1.12 3.936-.672.864-1.541 1.296-2.608 1.296zm0-9.232c-.683 0-1.211.341-1.584 1.024-.373.672-.56 1.632-.56 2.88 0 1.301.203 2.32.608 3.056.384.661.891.992 1.52.992.683 0 1.216-.357 1.6-1.072.384-.725.576-1.717.576-2.976 0-1.301-.203-2.293-.608-2.976-.373-.619-.891-.928-1.552-.928zm5.367 9.04v-1.296l2.544-2.832c.768-.853 1.285-1.515 1.552-1.984.277-.48.416-.96.416-1.44 0-.448-.16-.811-.48-1.088-.32-.277-.747-.416-1.28-.416-.64 0-1.317.235-2.032.704l-.624-.896c.949-.725 1.92-1.088 2.912-1.088.928 0 1.68.272 2.256.816.544.501.816 1.157.816 1.968 0 .523-.123 1.029-.368 1.52-.245.48-.672 1.067-1.28 1.76l-2.656 3.04h4.08v1.232h-5.856zm11.448-10.128v10.128h-1.488v-8.496l-1.872 1.088-.72-1.104 2.592-1.616h1.488zm8.31 3.984-.016 4.224c0 .704.267 1.056.8 1.056a2.16 2.16 0 0 0 1.104-.32l.48.736c-.587.437-1.221.656-1.904.656-1.237 0-1.856-.677-1.856-2.032v-4.32h-1.072v-1.12h1.088v-1.488l1.376-.72v2.208h2.176v1.12h-2.176zm7.2 6.336c-1.099 0-1.99-.411-2.672-1.232-.587-.704-.88-1.563-.88-2.576 0-1.173.357-2.123 1.072-2.848.64-.661 1.461-.992 2.464-.992 1.152 0 2.058.421 2.72 1.264.544.704.816 1.563.816 2.576 0 1.163-.374 2.112-1.12 2.848-.662.64-1.462.96-2.4.96zm-.032-1.088c.64 0 1.146-.245 1.52-.736.384-.491.576-1.152.576-1.984 0-.864-.203-1.552-.608-2.064a1.776 1.776 0 0 0-1.472-.72c-.619 0-1.12.256-1.504.768-.384.512-.576 1.184-.576 2.016 0 .896.213 1.589.64 2.08.373.427.848.64 1.424.64zm8.855.896v-1.296l2.544-2.832c.768-.853 1.286-1.515 1.552-1.984.278-.48.416-.96.416-1.44 0-.448-.16-.811-.48-1.088-.32-.277-.746-.416-1.28-.416-.64 0-1.317.235-2.032.704l-.624-.896c.95-.725 1.92-1.088 2.912-1.088.928 0 1.68.272 2.256.816.544.501.816 1.157.816 1.968 0 .523-.122 1.029-.368 1.52-.245.48-.672 1.067-1.28 1.76l-2.656 3.04h4.08v1.232h-5.856zm11.368.192c-1.227 0-2.176-.555-2.848-1.664-.576-.939-.864-2.128-.864-3.568 0-1.611.378-2.917 1.136-3.92.672-.907 1.53-1.36 2.576-1.36 1.184 0 2.133.581 2.848 1.744.586.971.88 2.149.88 3.536 0 1.653-.374 2.965-1.12 3.936-.672.864-1.542 1.296-2.608 1.296zm0-9.232c-.683 0-1.211.341-1.584 1.024-.374.672-.56 1.632-.56 2.88 0 1.301.202 2.32.608 3.056.384.661.89.992 1.52.992.682 0 1.216-.357 1.6-1.072.384-.725.576-1.717.576-2.976 0-1.301-.203-2.293-.608-2.976-.374-.619-.891-.928-1.552-.928zm5.367 9.04v-1.296l2.544-2.832c.768-.853 1.285-1.515 1.552-1.984.277-.48.416-.96.416-1.44 0-.448-.16-.811-.48-1.088-.32-.277-.747-.416-1.28-.416-.64 0-1.318.235-2.032.704l-.624-.896c.949-.725 1.92-1.088 2.912-1.088.928 0 1.68.272 2.256.816.544.501.816 1.157.816 1.968 0 .523-.123 1.029-.368 1.52-.246.48-.672 1.067-1.28 1.76l-2.656 3.04h4.08v1.232h-5.856zm7.687 0v-1.296l2.544-2.832c.768-.853 1.285-1.515 1.552-1.984.277-.48.416-.96.416-1.44 0-.448-.16-.811-.48-1.088-.32-.277-.747-.416-1.28-.416-.64 0-1.317.235-2.032.704l-.624-.896c.949-.725 1.92-1.088 2.912-1.088.928 0 1.68.272 2.256.816.544.501.816 1.157.816 1.968 0 .523-.123 1.029-.368 1.52-.245.48-.672 1.067-1.28 1.76l-2.656 3.04h4.08v1.232h-5.856z" fill="#3D4E76"/>
            <path d="M567.962-123.919a150.446 150.446 0 0 1 60.649-12.716c86.175 0 156.037 72.472 156.037 161.866 0 89.399-69.862 161.867-156.037 161.867-57.753 0-108.064-32.635-135.046-81.018-41.362 49.541-102.308 81.018-170.447 81.018-47.464 0-91.45-15.273-127.787-41.243-30.912 25.754-70.111 41.243-112.855 41.243C-17.194 187.098-98 103.28-98-.117c0-103.404 80.807-187.222 180.476-187.222 18.904 0 37.122 3.043 54.243 8.63 40.621-61.706 108.935-102.242 186.399-102.242 48.848 0 94.022 16.13 130.898 43.529" stroke="url(#bwtcf6gvjd)" stroke-width="1.935" stroke-linecap="round" stroke-linejoin="round"/>
        </g>
    </g>
    <defs>
        <linearGradient id="2xf4pfbenc" x1="156.002" y1="87.418" x2="314" y2="87.418" gradientUnits="userSpaceOnUse">
            <stop stop-color="#FDBC11"/>
            <stop offset="1" stop-color="#F6931D"/>
        </linearGradient>
        <linearGradient id="bwtcf6gvjd" x1="764.487" y1="-79.295" x2="-43.884" y2="-141.228" gradientUnits="userSpaceOnUse">
            <stop stop-color="#1C6FC4"/>
            <stop offset="1" stop-color="#01B8B6"/>
        </linearGradient>
        <clipPath id="bwpmf47r7a">
            <path fill="#fff" transform="translate(0 .477)" d="M0 0h343v231.492H0z"/>
        </clipPath>
    </defs>
</svg>
