<svg width="215" height="340" viewBox="0 0 215 340" fill="none" xmlns="http://www.w3.org/2000/svg">
    <rect x=".5" y=".5" width="214" height="339" rx="3.5" fill="#fff" stroke="#EDEDED"/>
    <path d="M101.193 229.5h4.159c1.462 0 2.648 1.144 2.648 2.553v75.892c0 1.411-1.186 2.555-2.648 2.555H65.646c-1.462 0-2.646-1.144-2.646-2.555v-75.892c0-1.409 1.184-2.553 2.646-2.553h4.16" stroke="#3D4E76" stroke-width="1.18" stroke-linecap="round" stroke-linejoin="round"/>
    <path clip-rule="evenodd" d="M69 267h31.5v-13.5H69V267z" stroke="#3D4E76" stroke-width="1.18" stroke-linecap="round" stroke-linejoin="round"/>
    <path fill-rule="evenodd" clip-rule="evenodd" d="M75 262.5h21V258H75v4.5z" fill="#01B8B6"/>
    <path d="M69 240.75h31.5M69 220.5v-4.383c0-3.379 2.845-6.117 6.358-6.117h18.784c3.51 0 6.358 2.738 6.358 6.117v4.383M99.75 220.5V237M69.75 237v-16.5M75 222.75h19.5M79.5 228.75h12M107.5 246h9.183a2.827 2.827 0 0 1 2.817 2.837v46.826a2.827 2.827 0 0 1-2.817 2.837H107.5M75 281.25h3M84 281.25h3M91.5 281.25h3M75 288.75h3M84 288.75h3M91.5 288.75h3M75 296.25h3M84 296.25h3M91.5 296.25h3" stroke="#3D4E76" stroke-width="1.18" stroke-linecap="round" stroke-linejoin="round"/>
    <path clip-rule="evenodd" d="M138.75 285a3.75 3.75 0 1 1 0 7.5 3.75 3.75 0 0 1 0-7.5z" stroke="#3D4E76" stroke-width="1.18" stroke-linecap="round" stroke-linejoin="round"/>
    <path clip-rule="evenodd" d="M166.5 245.797v48.406c0 2.373-1.947 4.297-4.349 4.297h-27.302c-2.402 0-4.349-1.924-4.349-4.297v-48.406c0-2.373 1.947-4.297 4.349-4.297h27.302c2.402 0 4.349 1.924 4.349 4.297z" stroke="#3D4E76" stroke-width="1.18" stroke-linecap="round" stroke-linejoin="round"/>
    <path fill-rule="evenodd" clip-rule="evenodd" d="M142.5 251.791v3.418c0 1.541-1.403 2.791-3.134 2.791h-1.232c-1.731 0-3.134-1.25-3.134-2.791v-3.418c0-1.541 1.403-2.791 3.134-2.791h1.232c1.731 0 3.134 1.25 3.134 2.791" fill="#01B8B6"/>
    <path d="M142.5 280.5c0-1.657-1.679-3-3.75-3-2.071 0-3.75 1.343-3.75 3M158.25 291v-6M158.25 279v-6M158.25 268.5v-6M158.25 256.5v-6" stroke="#3D4E76" stroke-width="1.18" stroke-linecap="round" stroke-linejoin="round"/>
    <path d="M24.783 57.6c4.5-6.867 8.933-13.617 13.3-20.25h6.45V57.6h5.2v5.25h-5.2V69h-6.5v-6.15h-13.25V57.6zm5.65 0h7.6V45.75l-7.6 11.85zM53.356 69v-5.55c.8-.9 1.867-2.117 3.2-3.65 2.1-2.333 3.65-4.1 4.65-5.3 2.234-2.667 3.634-4.483 4.2-5.45.567-1 .85-2.1.85-3.3 0-1-.366-1.833-1.1-2.5-.733-.667-1.666-1-2.8-1-1.966 0-4.133.8-6.5 2.4l-2.75-4c3.334-2.633 6.817-3.95 10.45-3.95 2.9 0 5.217.783 6.95 2.35 1.7 1.533 2.55 3.65 2.55 6.35 0 2-.666 4.1-2 6.3-1.3 2.167-3.85 5.4-7.65 9.7a750.21 750.21 0 0 0-2.05 2.35h11.35V69h-19.35zm30.791-8.8h-7.9v-5h7.9v-8.9h5.85v8.9h7.95v5h-7.95V69h-5.85v-8.8zm36.253 1.3c1.866-6.833 4.366-14.883 7.5-24.15h9.5V69h-6.6V43.3c-1.567 6.767-4.134 15.333-7.7 25.7h-5.45c-3.767-11.433-6.317-19.917-7.65-25.45V69h-6.45V37.35h9.1c3.133 8.533 5.716 16.583 7.75 24.15zm36.9.052c0 5.19-2.278 7.784-6.832 7.784-4.555 0-6.832-2.595-6.832-7.784V51.276h3.696v10.78c0 2.8 1.045 4.2 3.136 4.2 2.128 0 3.192-1.4 3.192-4.2v-10.78h3.64v10.276zm15.058-8.82c-.336.504-.859 1.26-1.568 2.268-1.494-.653-2.828-.98-4.004-.98-1.55 0-2.324.579-2.324 1.736 0 .523.177.933.532 1.232.354.299 1.092.663 2.212 1.092 2.016.784 3.462 1.633 4.34 2.548.896.915 1.344 2.016 1.344 3.304 0 1.81-.682 3.21-2.044 4.2-1.12.803-2.511 1.204-4.172 1.204-1.96 0-4.051-.71-6.272-2.128l1.624-2.268c1.082.728 2.473 1.092 4.172 1.092 1.922 0 2.884-.775 2.884-2.324 0-1.008-1.036-1.867-3.108-2.576-3.342-1.12-5.012-2.912-5.012-5.376 0-1.493.56-2.679 1.68-3.556 1.045-.84 2.436-1.26 4.172-1.26 1.978 0 3.826.597 5.544 1.792zm4.035-1.428c.915-.243 2.53-.364 4.844-.364 3.192 0 5.628.933 7.308 2.8 1.438 1.587 2.156 3.659 2.156 6.216 0 3.192-.914 5.59-2.744 7.196-1.661 1.456-3.976 2.184-6.944 2.184-1.866 0-3.406-.121-4.62-.364V51.304zm3.668 15.008c.374.093.84.14 1.4.14 3.603 0 5.404-2.128 5.404-6.384 0-2.11-.597-3.724-1.792-4.844-.97-.896-2.202-1.344-3.696-1.344-.429 0-.868.047-1.316.14v12.292z" fill="url(#dt8ad3uuya)"/>
    <path d="M27.684 104V91.36c.187-.04.713-.093 1.58-.16.867-.067 1.527-.1 1.98-.1 3.227 0 4.84 1.32 4.84 3.96 0 1.64-.56 2.84-1.68 3.6-.747.52-1.627.78-2.64.78-.8 0-1.287-.053-1.46-.16V104h-2.62zm2.62-10.66v3.82c.347.133.78.2 1.3.2.533 0 .953-.187 1.26-.56.307-.387.46-.913.46-1.58 0-1.347-.593-2.02-1.78-2.02-.68 0-1.093.047-1.24.14zm17.94 5.34c0 3.707-1.626 5.56-4.88 5.56-3.253 0-4.88-1.853-4.88-5.56v-7.34h2.64v7.7c0 2 .747 3 2.24 3 1.52 0 2.28-1 2.28-3v-7.7h2.6v7.34zm3.21 5.32V91.36c.186-.04.713-.093 1.58-.16.866-.067 1.526-.1 1.98-.1 3.226 0 4.84 1.32 4.84 3.96 0 1.427-.58 2.64-1.74 3.64.48 1.107 1.3 2.873 2.46 5.3h-2.64c-.654-1.427-1.36-2.96-2.12-4.6-.147.027-.347.04-.6.04-.587 0-.967-.053-1.14-.16V104h-2.62zm2.62-10.66v3.82c.4.12.833.18 1.3.18 1.146 0 1.72-.76 1.72-2.28 0-1.24-.594-1.86-1.78-1.86-.68 0-1.094.047-1.24.14zM71 102.58c-1.106 1.107-2.406 1.66-3.9 1.66-2.146 0-3.746-.8-4.8-2.4-.76-1.147-1.14-2.493-1.14-4.04 0-2.013.52-3.633 1.56-4.86 1.027-1.227 2.454-1.84 4.28-1.84 1.28 0 2.56.54 3.84 1.62l-1.02 1.66c-.96-.693-1.833-1.04-2.62-1.04-1.093 0-1.94.46-2.54 1.38-.52.787-.78 1.813-.78 3.08 0 1.12.307 2.08.92 2.88.654.84 1.527 1.26 2.62 1.26.72 0 1.574-.313 2.56-.94l1.02 1.58zm4.986 1.42h-2.58V91.34h2.58v5.08h5.44v-5.08h2.62V104h-2.62v-5.48h-5.44V104zm14.427-12.66h2.2l4.66 12.66h-2.66a91.453 91.453 0 0 1-.84-2.64h-4.54c-.186.6-.473 1.48-.86 2.64h-2.62l4.66-12.66zm1.12 3.42a477.025 477.025 0 0 0-1.54 4.44h3.04c-.626-1.84-1.126-3.32-1.5-4.44zm15.279-2.38c-.24.36-.613.9-1.12 1.62-1.067-.467-2.02-.7-2.86-.7-1.107 0-1.66.413-1.66 1.24 0 .373.127.667.38.88.253.213.78.473 1.58.78 1.44.56 2.473 1.167 3.1 1.82.64.653.96 1.44.96 2.36 0 1.293-.487 2.293-1.46 3-.8.573-1.793.86-2.98.86-1.4 0-2.893-.507-4.48-1.52l1.16-1.62c.773.52 1.767.78 2.98.78 1.373 0 2.06-.553 2.06-1.66 0-.72-.74-1.333-2.22-1.84-2.387-.8-3.58-2.08-3.58-3.84 0-1.067.4-1.913 1.2-2.54.747-.6 1.74-.9 2.98-.9 1.413 0 2.733.427 3.96 1.28zm2.563-1.04h8.28v2.1h-5.66v2.98h4.72v2.1h-4.72v3.38h5.92v2.1h-8.54V91.34zm10.437.02c.653-.173 1.807-.26 3.46-.26 2.28 0 4.02.667 5.22 2 1.027 1.133 1.54 2.613 1.54 4.44 0 2.28-.653 3.993-1.96 5.14-1.187 1.04-2.84 1.56-4.96 1.56-1.333 0-2.433-.087-3.3-.26V91.36zm2.62 10.72c.267.067.6.1 1 .1 2.573 0 3.86-1.52 3.86-4.56 0-1.507-.427-2.66-1.28-3.46-.693-.64-1.573-.96-2.64-.96-.307 0-.62.033-.94.1v8.78zm14.802 1.92V91.36c.186-.04.713-.093 1.58-.16a27.89 27.89 0 0 1 1.98-.1c3.226 0 4.84 1.32 4.84 3.96 0 1.64-.56 2.84-1.68 3.6-.747.52-1.627.78-2.64.78-.8 0-1.287-.053-1.46-.16V104h-2.62zm2.62-10.66v3.82c.346.133.78.2 1.3.2.533 0 .953-.187 1.26-.56.306-.387.46-.913.46-1.58 0-1.347-.594-2.02-1.78-2.02-.68 0-1.094.047-1.24.14zm10.032-2h2.2l4.66 12.66h-2.66a89.597 89.597 0 0 1-.84-2.64h-4.54c-.187.6-.473 1.48-.86 2.64h-2.62l4.66-12.66zm1.12 3.42a477.025 477.025 0 0 0-1.54 4.44h3.04c-.627-1.84-1.127-3.32-1.5-4.44zm7.439 9.24V91.36c.186-.04.713-.093 1.58-.16a27.89 27.89 0 0 1 1.98-.1c3.226 0 4.84 1.32 4.84 3.96 0 1.427-.58 2.64-1.74 3.64.48 1.107 1.3 2.873 2.46 5.3h-2.64c-.654-1.427-1.36-2.96-2.12-4.6-.147.027-.347.04-.6.04-.587 0-.967-.053-1.14-.16V104h-2.62zm2.62-10.66v3.82c.4.12.833.18 1.3.18 1.146 0 1.72-.76 1.72-2.28 0-1.24-.594-1.86-1.78-1.86-.68 0-1.094.047-1.24.14zm10.248.1h-3.66v-2.1h10.24v2.1h-3.94V104h-2.64V93.44zm16.319-1.06c-.24.36-.613.9-1.12 1.62-1.066-.467-2.02-.7-2.86-.7-1.106 0-1.66.413-1.66 1.24 0 .373.127.667.38.88.254.213.78.473 1.58.78 1.44.56 2.474 1.167 3.1 1.82.64.653.96 1.44.96 2.36 0 1.293-.486 2.293-1.46 3-.8.573-1.793.86-2.98.86-1.4 0-2.893-.507-4.48-1.52l1.16-1.62c.774.52 1.767.78 2.98.78 1.374 0 2.06-.553 2.06-1.66 0-.72-.74-1.333-2.22-1.84-2.386-.8-3.58-2.08-3.58-3.84 0-1.067.4-1.913 1.2-2.54.747-.6 1.74-.9 2.98-.9 1.414 0 2.734.427 3.96 1.28zM41.306 121.42h2.52v.78c0 1.24-.334 2.373-1 3.4.613.693 1.346 1.493 2.2 2.4h-2.88a2.896 2.896 0 0 1-.28-.34 5.788 5.788 0 0 0-.34-.38c-.694.64-1.707.96-3.04.96-1.307 0-2.307-.413-3-1.24-.534-.627-.8-1.387-.8-2.28 0-1.373.613-2.56 1.84-3.56-.96-.96-1.44-1.927-1.44-2.9 0-.973.3-1.74.9-2.3.6-.573 1.42-.86 2.46-.86 1.053 0 2.146.427 3.28 1.28-.147.213-.394.58-.74 1.1a7.457 7.457 0 0 1-.26.4c-.76-.4-1.487-.6-2.18-.6-.387 0-.7.1-.94.3-.24.2-.36.46-.36.78 0 .413.24.907.72 1.48a115.94 115.94 0 0 1 1.22 1.5 78.126 78.126 0 0 0 1.88 2.3c.16-.253.24-.747.24-1.48v-.74zm-3.54 1.28c-.334.387-.5.933-.5 1.64 0 1.093.493 1.64 1.48 1.64.56 0 .98-.167 1.26-.5-.227-.307-.58-.747-1.06-1.32-.547-.64-.94-1.127-1.18-1.46zm14.42 5.3v-12.64c.187-.04.713-.093 1.58-.16.867-.067 1.527-.1 1.98-.1 3.227 0 4.84 1.32 4.84 3.96 0 1.427-.58 2.64-1.74 3.64.48 1.107 1.3 2.873 2.46 5.3h-2.64c-.653-1.427-1.36-2.96-2.12-4.6-.147.027-.347.04-.6.04-.587 0-.967-.053-1.14-.16V128h-2.62zm2.62-10.66v3.82c.4.12.833.18 1.3.18 1.147 0 1.72-.76 1.72-2.28 0-1.24-.593-1.86-1.78-1.86-.68 0-1.093.047-1.24.14zm7.568-2h8.28v2.1h-5.66v2.98h4.72v2.1h-4.72v3.38h5.92v2.1h-8.54v-12.66zM72.81 128v-12.64c.187-.04.713-.093 1.58-.16.867-.067 1.527-.1 1.98-.1 3.227 0 4.84 1.32 4.84 3.96 0 1.64-.56 2.84-1.68 3.6-.747.52-1.627.78-2.64.78-.8 0-1.287-.053-1.46-.16V128h-2.62zm2.62-10.66v3.82c.347.133.78.2 1.3.2.533 0 .953-.187 1.26-.56.307-.387.46-.913.46-1.58 0-1.347-.593-2.02-1.78-2.02-.68 0-1.093.047-1.24.14zm10.032-2h2.2l4.66 12.66h-2.66a92.089 92.089 0 0 1-.84-2.64h-4.54c-.186.6-.473 1.48-.86 2.64h-2.62l4.66-12.66zm1.12 3.42a473.81 473.81 0 0 0-1.54 4.44h3.04c-.626-1.84-1.126-3.32-1.5-4.44zm10.019-3.42V128h-2.58v-12.66h2.58zM99.803 128v-12.64c.187-.04.713-.093 1.58-.16.867-.067 1.527-.1 1.98-.1 3.227 0 4.84 1.32 4.84 3.96 0 1.427-.58 2.64-1.74 3.64.48 1.107 1.3 2.873 2.46 5.3h-2.64c-.653-1.427-1.36-2.96-2.12-4.6-.147.027-.347.04-.6.04-.587 0-.967-.053-1.14-.16V128h-2.62zm2.62-10.66v3.82c.4.12.833.18 1.3.18 1.147 0 1.72-.76 1.72-2.28 0-1.24-.593-1.86-1.78-1.86-.68 0-1.093.047-1.24.14zm17.633-2.24c1.946 0 3.446.773 4.5 2.32.826 1.213 1.24 2.68 1.24 4.4 0 1.973-.54 3.553-1.62 4.74-1.027 1.12-2.4 1.68-4.12 1.68-1.974 0-3.474-.72-4.5-2.16-.827-1.133-1.24-2.553-1.24-4.26 0-2 .54-3.633 1.62-4.9 1.026-1.213 2.4-1.82 4.12-1.82zm0 10.94c.96 0 1.7-.36 2.22-1.08.52-.733.78-1.78.78-3.14 0-1.453-.287-2.587-.86-3.4-.534-.72-1.247-1.08-2.14-1.08-.96 0-1.707.393-2.24 1.18-.52.787-.78 1.887-.78 3.3 0 2.813 1.006 4.22 3.02 4.22zm8.146 1.96v-12.64c.186-.04.713-.093 1.58-.16.866-.067 1.526-.1 1.98-.1 3.226 0 4.84 1.32 4.84 3.96 0 1.427-.58 2.64-1.74 3.64.48 1.107 1.3 2.873 2.46 5.3h-2.64c-.654-1.427-1.36-2.96-2.12-4.6-.147.027-.347.04-.6.04-.587 0-.967-.053-1.14-.16V128h-2.62zm2.62-10.66v3.82c.4.12.833.18 1.3.18 1.146 0 1.72-.76 1.72-2.28 0-1.24-.594-1.86-1.78-1.86-.68 0-1.094.047-1.24.14zm7.567-2h8.28v2.1h-5.66v2.98h4.72v2.1h-4.72v3.38h5.92v2.1h-8.54v-12.66zm10.438.02c.653-.173 1.806-.26 3.46-.26 2.28 0 4.02.667 5.22 2 1.026 1.133 1.54 2.613 1.54 4.44 0 2.28-.654 3.993-1.96 5.14-1.187 1.04-2.84 1.56-4.96 1.56-1.334 0-2.434-.087-3.3-.26v-12.62zm2.62 10.72c.266.067.6.1 1 .1 2.573 0 3.86-1.52 3.86-4.56 0-1.507-.427-2.66-1.28-3.46-.694-.64-1.574-.96-2.64-.96-.307 0-.62.033-.94.1v8.78zm9.997 1.92v-12.64c.186-.04.713-.093 1.58-.16.866-.067 1.526-.1 1.98-.1 3.226 0 4.84 1.32 4.84 3.96 0 1.427-.58 2.64-1.74 3.64.48 1.107 1.3 2.873 2.46 5.3h-2.64c-.654-1.427-1.36-2.96-2.12-4.6-.147.027-.347.04-.6.04-.587 0-.967-.053-1.14-.16V128h-2.62zm2.62-10.66v3.82c.4.12.833.18 1.3.18 1.146 0 1.72-.76 1.72-2.28 0-1.24-.594-1.86-1.78-1.86-.68 0-1.094.047-1.24.14zm15.728-.96c-.24.36-.614.9-1.12 1.62-1.067-.467-2.02-.7-2.86-.7-1.107 0-1.66.413-1.66 1.24 0 .373.126.667.38.88.253.213.78.473 1.58.78 1.44.56 2.473 1.167 3.1 1.82.64.653.96 1.44.96 2.36 0 1.293-.487 2.293-1.46 3-.8.573-1.794.86-2.98.86-1.4 0-2.894-.507-4.48-1.52l1.16-1.62c.773.52 1.766.78 2.98.78 1.373 0 2.06-.553 2.06-1.66 0-.72-.74-1.333-2.22-1.84-2.387-.8-3.58-2.08-3.58-3.84 0-1.067.4-1.913 1.2-2.54.746-.6 1.74-.9 2.98-.9 1.413 0 2.733.427 3.96 1.28zM27.836 160.856v-1.12h1.072v-1.024c0-1.355.619-2.032 1.856-2.032.683 0 1.317.219 1.904.656l-.48.736a2.159 2.159 0 0 0-1.104-.32c-.533 0-.8.352-.8 1.056v.928h1.936v1.12h-1.936V167h-1.376v-6.144h-1.072zm7.638-.4h.064c.501-.608 1.088-.912 1.76-.912.853 0 1.483.331 1.888.992l-1.152.72c-.352-.352-.736-.528-1.152-.528-.533 0-.981.272-1.344.816V167h-1.376v-7.264h1.184l.128.72zm7.87 6.736c-1.1 0-1.99-.411-2.673-1.232-.586-.704-.88-1.563-.88-2.576 0-1.173.358-2.123 1.072-2.848.64-.661 1.462-.992 2.464-.992 1.152 0 2.06.421 2.72 1.264.544.704.816 1.563.816 2.576 0 1.163-.373 2.112-1.12 2.848-.66.64-1.46.96-2.4.96zm-.033-1.088c.64 0 1.147-.245 1.52-.736.384-.491.576-1.152.576-1.984 0-.864-.202-1.552-.608-2.064a1.775 1.775 0 0 0-1.472-.72c-.618 0-1.12.256-1.504.768-.384.512-.576 1.184-.576 2.016 0 .896.214 1.589.64 2.08.374.427.848.64 1.424.64zm6.85-5.648h.08c.544-.608 1.296-.912 2.256-.912 1.205 0 1.99.432 2.352 1.296.619-.864 1.498-1.296 2.64-1.296 1.75 0 2.624 1.035 2.624 3.104V167h-1.376v-4.048c0-.8-.144-1.371-.432-1.712-.277-.341-.747-.512-1.408-.512-.661 0-1.264.293-1.808.88.064.299.096.645.096 1.04V167h-1.376v-4.16c0-.736-.15-1.269-.448-1.6-.288-.341-.758-.512-1.408-.512-.31 0-.63.08-.96.24-.33.16-.576.352-.736.576V167H48.88v-7.264h1.152l.128.72zM65.808 167v-1.296l2.544-2.832c.768-.853 1.285-1.515 1.552-1.984.277-.48.416-.96.416-1.44 0-.448-.16-.811-.48-1.088-.32-.277-.747-.416-1.28-.416-.64 0-1.317.235-2.032.704l-.624-.896c.95-.725 1.92-1.088 2.912-1.088.928 0 1.68.272 2.256.816.544.501.816 1.157.816 1.968a3.36 3.36 0 0 1-.368 1.52c-.245.48-.672 1.067-1.28 1.76l-2.656 3.04h4.08V167h-5.856zm11.367.192c-1.226 0-2.176-.555-2.848-1.664-.576-.939-.864-2.128-.864-3.568 0-1.611.379-2.917 1.136-3.92.672-.907 1.531-1.36 2.576-1.36 1.184 0 2.134.581 2.848 1.744.587.971.88 2.149.88 3.536 0 1.653-.373 2.965-1.12 3.936-.672.864-1.541 1.296-2.608 1.296zm0-9.232c-.682 0-1.21.341-1.584 1.024-.373.672-.56 1.632-.56 2.88 0 1.301.203 2.32.608 3.056.384.661.891.992 1.52.992.683 0 1.216-.357 1.6-1.072.384-.725.576-1.717.576-2.976 0-1.301-.202-2.293-.608-2.976-.373-.619-.89-.928-1.552-.928zm5.367 9.04v-1.296l2.544-2.832c.768-.853 1.285-1.515 1.552-1.984.277-.48.416-.96.416-1.44 0-.448-.16-.811-.48-1.088-.32-.277-.746-.416-1.28-.416-.64 0-1.317.235-2.032.704l-.624-.896c.95-.725 1.92-1.088 2.912-1.088.928 0 1.68.272 2.256.816.544.501.816 1.157.816 1.968a3.36 3.36 0 0 1-.368 1.52c-.245.48-.672 1.067-1.28 1.76l-2.656 3.04h4.08V167h-5.856zm11.368.192c-1.227 0-2.176-.555-2.848-1.664-.576-.939-.864-2.128-.864-3.568 0-1.611.378-2.917 1.136-3.92.672-.907 1.53-1.36 2.576-1.36 1.184 0 2.133.581 2.848 1.744.586.971.88 2.149.88 3.536 0 1.653-.374 2.965-1.12 3.936-.672.864-1.542 1.296-2.608 1.296zm0-9.232c-.683 0-1.211.341-1.584 1.024-.374.672-.56 1.632-.56 2.88 0 1.301.202 2.32.608 3.056.384.661.89.992 1.52.992.682 0 1.216-.357 1.6-1.072.384-.725.576-1.717.576-2.976 0-1.301-.203-2.293-.608-2.976-.374-.619-.891-.928-1.552-.928zm11.437 2.896-.016 4.224c0 .704.267 1.056.8 1.056a2.16 2.16 0 0 0 1.104-.32l.48.736c-.587.437-1.221.656-1.904.656-1.237 0-1.856-.677-1.856-2.032v-4.32h-1.072v-1.12h1.088v-1.488l1.376-.72v2.208h2.176v1.12h-2.176zm7.2 6.336c-1.099 0-1.99-.411-2.672-1.232-.587-.704-.88-1.563-.88-2.576 0-1.173.357-2.123 1.072-2.848.64-.661 1.461-.992 2.464-.992 1.152 0 2.058.421 2.72 1.264.544.704.816 1.563.816 2.576 0 1.163-.374 2.112-1.12 2.848-.662.64-1.462.96-2.4.96zm-.032-1.088c.64 0 1.146-.245 1.52-.736.384-.491.576-1.152.576-1.984 0-.864-.203-1.552-.608-2.064a1.776 1.776 0 0 0-1.472-.72c-.619 0-1.12.256-1.504.768-.384.512-.576 1.184-.576 2.016 0 .896.213 1.589.64 2.08.373.427.848.64 1.424.64zm11.959-9.232h1.408L129.546 167h-1.52l-.768-2.288h-4.144L122.33 167h-1.52l3.664-10.128zm.704 1.792-1.648 4.816h3.296l-1.648-4.816zm5.859 1.072h1.072l.16.752c.597-.629 1.333-.944 2.208-.944 1.077 0 1.925.395 2.544 1.184.523.661.784 1.493.784 2.496 0 1.323-.384 2.347-1.152 3.072-.619.597-1.371.896-2.256.896-.843 0-1.504-.256-1.984-.768v3.44h-1.376v-10.128zm1.376 2.256v2.912c.075.331.283.619.624.864s.709.368 1.104.368c.651 0 1.179-.256 1.584-.768s.608-1.173.608-1.984c0-.928-.213-1.637-.64-2.128-.373-.427-.853-.64-1.44-.64-.395 0-.779.144-1.152.432-.373.277-.603.592-.688.944zm8.717-1.536h.064c.502-.608 1.088-.912 1.76-.912.854 0 1.483.331 1.888.992l-1.152.72c-.352-.352-.736-.528-1.152-.528-.533 0-.981.272-1.344.816V167h-1.376v-7.264h1.184l.128.72zm6.456-.72V167h-1.376v-7.264h1.376zm-1.488-2.24c0-.224.08-.416.24-.576.16-.16.352-.24.576-.24.224 0 .416.08.576.24.17.16.256.352.256.576 0 .235-.08.432-.24.592a.805.805 0 0 1-.592.24.804.804 0 0 1-.592-.24.831.831 0 0 1-.224-.592zm5.393-.816V167h-1.376v-9.584l1.376-.736zm5.786 10.32v-1.296l2.544-2.832c.768-.853 1.285-1.515 1.552-1.984.277-.48.416-.96.416-1.44 0-.448-.16-.811-.48-1.088-.32-.277-.747-.416-1.28-.416-.64 0-1.318.235-2.032.704l-.624-.896c.949-.725 1.92-1.088 2.912-1.088.928 0 1.68.272 2.256.816.544.501.816 1.157.816 1.968 0 .523-.123 1.029-.368 1.52-.246.48-.672 1.067-1.28 1.76l-2.656 3.04h4.08V167h-5.856zm11.367.192c-1.227 0-2.176-.555-2.848-1.664-.576-.939-.864-2.128-.864-3.568 0-1.611.379-2.917 1.136-3.92.672-.907 1.531-1.36 2.576-1.36 1.184 0 2.133.581 2.848 1.744.587.971.88 2.149.88 3.536 0 1.653-.373 2.965-1.12 3.936-.672.864-1.541 1.296-2.608 1.296zm0-9.232c-.683 0-1.211.341-1.584 1.024-.373.672-.56 1.632-.56 2.88 0 1.301.203 2.32.608 3.056.384.661.891.992 1.52.992.683 0 1.216-.357 1.6-1.072.384-.725.576-1.717.576-2.976 0-1.301-.203-2.293-.608-2.976-.373-.619-.891-.928-1.552-.928zm5.367 9.04v-1.296l2.544-2.832c.768-.853 1.285-1.515 1.552-1.984.277-.48.416-.96.416-1.44 0-.448-.16-.811-.48-1.088-.32-.277-.747-.416-1.28-.416-.64 0-1.317.235-2.032.704l-.624-.896c.949-.725 1.92-1.088 2.912-1.088.928 0 1.68.272 2.256.816.544.501.816 1.157.816 1.968 0 .523-.123 1.029-.368 1.52-.245.48-.672 1.067-1.28 1.76l-2.656 3.04h4.08V167h-5.856zm10.327-4.768h-1.44V161h1.44c1.142 0 1.712-.517 1.712-1.552 0-.48-.149-.853-.448-1.12-.288-.267-.688-.4-1.2-.4-.64 0-1.317.256-2.032.768l-.576-.912c.79-.736 1.728-1.104 2.816-1.104.886 0 1.616.256 2.192.768.544.491.816 1.12.816 1.888 0 .533-.144.992-.432 1.376-.277.384-.661.645-1.152.784 1.323.363 1.984 1.211 1.984 2.544 0 1.109-.41 1.947-1.232 2.512-.608.416-1.328.624-2.16.624-1.066 0-2.058-.384-2.976-1.152l.624-.88c.64.491 1.376.736 2.208.736.598 0 1.072-.171 1.424-.512.363-.341.544-.789.544-1.344 0-1.195-.704-1.792-2.112-1.792z" fill="#3D4E76"/>
    <defs>
        <linearGradient id="dt8ad3uuya" x1="23.002" y1="80" x2="192" y2="80" gradientUnits="userSpaceOnUse">
            <stop stop-color="#FDBC11"/>
            <stop offset="1" stop-color="#F6931D"/>
        </linearGradient>
    </defs>
</svg>
