<svg width="191" height="340" viewBox="0 0 191 340" fill="none" xmlns="http://www.w3.org/2000/svg">
    <rect x="1" y=".5" width="189" height="339" rx="3.5" fill="#fff" stroke="#EDEDED"/>
    <path d="M81.443 229.5h4.159c1.462 0 2.648 1.144 2.648 2.553v75.892c0 1.411-1.186 2.555-2.648 2.555H45.896c-1.462 0-2.646-1.144-2.646-2.555v-75.892c0-1.409 1.184-2.553 2.646-2.553h4.16" stroke="#3D4E76" stroke-width="1.18" stroke-linecap="round" stroke-linejoin="round"/>
    <path clip-rule="evenodd" d="M49.25 267h31.5v-13.5h-31.5V267z" stroke="#3D4E76" stroke-width="1.18" stroke-linecap="round" stroke-linejoin="round"/>
    <path fill-rule="evenodd" clip-rule="evenodd" d="M55.25 262.5h21V258h-21v4.5z" fill="#01B8B6"/>
    <path d="M49.25 240.75h31.5M49.25 220.5v-4.383c0-3.379 2.845-6.117 6.358-6.117h18.784c3.51 0 6.358 2.738 6.358 6.117v4.383M80 220.5V237M50 237v-16.5M55.25 222.75h19.5M59.75 228.75h12M87.75 246h9.183a2.827 2.827 0 0 1 2.817 2.837v46.826a2.827 2.827 0 0 1-2.817 2.837H87.75M55.25 281.25h3M64.25 281.25h3M71.75 281.25h3M55.25 288.75h3M64.25 288.75h3M71.75 288.75h3M55.25 296.25h3M64.25 296.25h3M71.75 296.25h3" stroke="#3D4E76" stroke-width="1.18" stroke-linecap="round" stroke-linejoin="round"/>
    <path clip-rule="evenodd" d="M119 285a3.75 3.75 0 1 1 0 7.5 3.75 3.75 0 0 1 0-7.5z" stroke="#3D4E76" stroke-width="1.18" stroke-linecap="round" stroke-linejoin="round"/>
    <path clip-rule="evenodd" d="M146.75 245.797v48.406c0 2.373-1.947 4.297-4.349 4.297h-27.302c-2.402 0-4.349-1.924-4.349-4.297v-48.406c0-2.373 1.947-4.297 4.349-4.297h27.302c2.402 0 4.349 1.924 4.349 4.297z" stroke="#3D4E76" stroke-width="1.18" stroke-linecap="round" stroke-linejoin="round"/>
    <path fill-rule="evenodd" clip-rule="evenodd" d="M122.75 251.791v3.418c0 1.541-1.403 2.791-3.134 2.791h-1.232c-1.731 0-3.134-1.25-3.134-2.791v-3.418c0-1.541 1.403-2.791 3.134-2.791h1.232c1.731 0 3.134 1.25 3.134 2.791" fill="#01B8B6"/>
    <path d="M122.75 280.5c0-1.657-1.679-3-3.75-3-2.071 0-3.75 1.343-3.75 3M138.5 291v-6M138.5 279v-6M138.5 268.5v-6M138.5 256.5v-6" stroke="#3D4E76" stroke-width="1.18" stroke-linecap="round" stroke-linejoin="round"/>
    <path d="M23.61 39.184h-4.284V36.16h4.284v-4.872h3.556v4.872h4.312v3.024h-4.312V44H23.61v-4.816zm9.274-1.708c2.352-3.603 4.806-7.336 7.364-11.2h3.864v11.2h2.856v3.136h-2.856V44h-3.92v-3.388h-7.308v-3.136zm3.36 0h3.948v-6.188c-.448.69-1.008 1.568-1.68 2.632-.99 1.55-1.746 2.735-2.268 3.556zM48.95 44v-3.332L53.26 35.6c1.27-1.475 2.044-2.445 2.325-2.912.28-.467.42-1.017.42-1.652 0-.523-.187-.952-.56-1.288-.374-.336-.84-.504-1.4-.504-1.102 0-2.325.457-3.669 1.372l-1.652-2.408c1.923-1.53 3.94-2.296 6.048-2.296 1.624 0 2.912.43 3.864 1.288.953.84 1.428 2.035 1.428 3.584 0 1.605-.709 3.37-2.127 5.292-.542.728-1.933 2.324-4.172 4.788h6.16V44H48.948zm14.065 1.008c.709-.243 1.148-.504 1.316-.784-.84-.168-1.26-.812-1.26-1.932 0-.635.224-1.167.672-1.596.448-.43 1.017-.644 1.708-.644.672 0 1.232.27 1.68.812.448.523.672 1.176.672 1.96 0 1.4-.495 2.557-1.484 3.472-.467.43-1.158.756-2.072.98l-1.232-2.268zM77.322 25.94c2.166 0 3.92 1.036 5.264 3.108 1.12 1.717 1.68 3.761 1.68 6.132 0 2.837-.709 5.115-2.128 6.832-1.269 1.55-2.874 2.324-4.816 2.324-2.258 0-4.013-.99-5.264-2.968-1.064-1.661-1.596-3.724-1.596-6.188 0-2.763.7-5.03 2.1-6.804 1.251-1.624 2.838-2.436 4.76-2.436zm.056 3.36c-1.885 0-2.828 1.904-2.828 5.712 0 1.923.271 3.435.812 4.536.486.99 1.13 1.484 1.932 1.484.896 0 1.596-.532 2.1-1.596.523-1.064.784-2.539.784-4.424 0-3.808-.933-5.712-2.8-5.712zm15.75-3.36c2.164 0 3.92 1.036 5.263 3.108 1.12 1.717 1.68 3.761 1.68 6.132 0 2.837-.71 5.115-2.128 6.832-1.27 1.55-2.875 2.324-4.816 2.324-2.259 0-4.013-.99-5.264-2.968-1.064-1.661-1.596-3.724-1.596-6.188 0-2.763.7-5.03 2.1-6.804 1.25-1.624 2.837-2.436 4.76-2.436zm.055 3.36c-1.885 0-2.828 1.904-2.828 5.712 0 1.923.27 3.435.812 4.536.485.99 1.13 1.484 1.932 1.484.896 0 1.596-.532 2.1-1.596.523-1.064.784-2.539.784-4.424 0-3.808-.933-5.712-2.8-5.712zm15.749-3.36c2.165 0 3.92 1.036 5.264 3.108 1.12 1.717 1.68 3.761 1.68 6.132 0 2.837-.71 5.115-2.128 6.832-1.27 1.55-2.875 2.324-4.816 2.324-2.259 0-4.014-.99-5.264-2.968-1.064-1.661-1.596-3.724-1.596-6.188 0-2.763.7-5.03 2.1-6.804 1.25-1.624 2.837-2.436 4.76-2.436zm.056 3.36c-1.886 0-2.828 1.904-2.828 5.712 0 1.923.27 3.435.812 4.536.485.99 1.129 1.484 1.932 1.484.896 0 1.596-.532 2.1-1.596.522-1.064.784-2.539.784-4.424 0-3.808-.934-5.712-2.8-5.712zm9.616 15.708c.71-.243 1.148-.504 1.316-.784-.84-.168-1.26-.812-1.26-1.932 0-.635.224-1.167.672-1.596.448-.43 1.018-.644 1.708-.644.672 0 1.232.27 1.68.812.448.523.672 1.176.672 1.96 0 1.4-.494 2.557-1.484 3.472-.466.43-1.157.756-2.072.98l-1.232-2.268zm14.308-19.068c2.166 0 3.92 1.036 5.264 3.108 1.12 1.717 1.68 3.761 1.68 6.132 0 2.837-.709 5.115-2.128 6.832-1.269 1.55-2.874 2.324-4.816 2.324-2.258 0-4.013-.99-5.264-2.968-1.064-1.661-1.596-3.724-1.596-6.188 0-2.763.7-5.03 2.1-6.804 1.251-1.624 2.838-2.436 4.76-2.436zm.056 3.36c-1.885 0-2.828 1.904-2.828 5.712 0 1.923.271 3.435.812 4.536.486.99 1.13 1.484 1.932 1.484.896 0 1.596-.532 2.1-1.596.523-1.064.784-2.539.784-4.424 0-3.808-.933-5.712-2.8-5.712zm15.749-3.36c2.165 0 3.92 1.036 5.264 3.108 1.12 1.717 1.68 3.761 1.68 6.132 0 2.837-.709 5.115-2.128 6.832-1.269 1.55-2.875 2.324-4.816 2.324-2.259 0-4.013-.99-5.264-2.968-1.064-1.661-1.596-3.724-1.596-6.188 0-2.763.7-5.03 2.1-6.804 1.251-1.624 2.837-2.436 4.76-2.436zm.056 3.36c-1.885 0-2.828 1.904-2.828 5.712 0 1.923.271 3.435.812 4.536.485.99 1.129 1.484 1.932 1.484.896 0 1.596-.532 2.1-1.596.523-1.064.784-2.539.784-4.424 0-3.808-.933-5.712-2.8-5.712zm15.749-3.36c2.165 0 3.92 1.036 5.264 3.108 1.12 1.717 1.68 3.761 1.68 6.132 0 2.837-.71 5.115-2.128 6.832-1.27 1.55-2.875 2.324-4.816 2.324-2.259 0-4.014-.99-5.264-2.968-1.064-1.661-1.596-3.724-1.596-6.188 0-2.763.7-5.03 2.1-6.804 1.25-1.624 2.837-2.436 4.76-2.436zm.056 3.36c-1.886 0-2.828 1.904-2.828 5.712 0 1.923.27 3.435.812 4.536.485.99 1.129 1.484 1.932 1.484.896 0 1.596-.532 2.1-1.596.522-1.064.784-2.539.784-4.424 0-3.808-.934-5.712-2.8-5.712zM56.511 66.884c0 1.392-.384 2.52-1.152 3.384-.708.804-1.644 1.206-2.808 1.206-.756 0-1.494-.192-2.214-.576v-1.98c.624.348 1.236.522 1.836.522.66 0 1.17-.216 1.53-.648.372-.42.558-1.008.558-1.764v-5.814l2.25-1.206v6.876zm10.177-9.288 2.268-1.206v7.866c0 1.164-.354 2.094-1.062 2.79-.66.636-1.53.954-2.61.954h-6.786l1.134-2.178h2.376v-5.886l2.268-1.206v7.092h.882c.552 0 .942-.12 1.17-.36.24-.24.36-.648.36-1.224v-6.642zm9.565 9.882a6.05 6.05 0 0 1-1.152.108c-1.104 0-1.986-.414-2.646-1.242-.54-.696-.81-1.536-.81-2.52 0-1.32.36-2.358 1.08-3.114.636-.672 1.476-1.008 2.52-1.008 1.068 0 1.902.342 2.502 1.026.516.588.774 1.356.774 2.304v3.852c0 1.416-.372 2.532-1.116 3.348-.696.768-1.644 1.152-2.844 1.152-.756 0-1.494-.204-2.214-.612V68.81c.648.372 1.296.558 1.944.558 1.164 0 1.818-.63 1.962-1.89zm.018-4.482c0-.792-.342-1.188-1.026-1.188a1.2 1.2 0 0 0-1.026.522c-.24.348-.36.822-.36 1.422 0 1.272.456 1.908 1.368 1.908.48 0 .828-.12 1.044-.36v-2.304zM80.15 68l1.134-2.178h2.844c.612 0 .918-.354.918-1.062 0-1.332-.636-2.352-1.908-3.06l1.116-1.908c2.04 1.2 3.06 2.868 3.06 5.004 0 2.136-.924 3.204-2.772 3.204H80.15zm18.698-7.794c-.36 0-.648-.108-.864-.324-.216-.216-.324-.51-.324-.882 0-.348.108-.63.324-.846.216-.216.504-.324.864-.324s.642.108.846.324c.216.204.324.486.324.846 0 .804-.39 1.206-1.17 1.206zm4.986 6.642c0 1.44-.498 2.586-1.494 3.438-.888.756-2.022 1.134-3.402 1.134-1.62 0-2.874-.57-3.762-1.71-.696-.888-1.044-1.932-1.044-3.132 0-.948.222-1.776.666-2.484l2.16-.45a5.001 5.001 0 0 0-.72 2.574c0 .912.258 1.65.774 2.214.492.54 1.134.81 1.926.81.828 0 1.47-.21 1.926-.63.468-.42.702-1.008.702-1.764v-5.652l2.268-1.188v6.84zm11.794-1.026V68h-2.214c-.084 1.08-.564 1.944-1.44 2.592-.72.528-1.56.792-2.52.792-.756 0-1.494-.204-2.214-.612V68.81c.648.372 1.296.558 1.944.558.504 0 .948-.138 1.332-.414.396-.276.612-.606.648-.99a7.637 7.637 0 0 0-.45-.036l-.468-.054c-1.236-.132-2.19-.618-2.862-1.458-.564-.708-.846-1.566-.846-2.574 0-1.32.36-2.364 1.08-3.132.636-.672 1.476-1.008 2.52-1.008 1.068 0 1.902.342 2.502 1.026.516.588.774 1.356.774 2.304v2.79h2.214zm-4.464-2.826c0-.792-.342-1.188-1.026-1.188-.912 0-1.368.654-1.368 1.962 0 1.164.528 1.812 1.584 1.944.168.036.438.066.81.09v-2.808zm9.795 2.826h1.62V68h-1.836c-.876 0-1.602-.234-2.178-.702-.576.468-1.302.702-2.178.702h-1.836v-2.178h1.62c.456 0 .78-.096.972-.288.192-.204.288-.54.288-1.008v-3.33l2.268-1.188v4.518c0 .468.096.804.288 1.008.192.192.516.288.972.288zm-4.662 3.816c.36 0 .642.102.846.306.216.216.324.504.324.864 0 .804-.39 1.206-1.17 1.206-.36 0-.648-.108-.864-.324-.216-.216-.324-.51-.324-.882 0-.78.396-1.17 1.188-1.17zm2.772 0c.36 0 .642.102.846.306.216.216.324.504.324.864 0 .804-.39 1.206-1.17 1.206-.36 0-.648-.108-.864-.324-.216-.216-.324-.51-.324-.882 0-.78.396-1.17 1.188-1.17zm8.617-3.816h1.62V68h-1.836c-.936 0-1.698-.264-2.286-.792-.66.528-1.47.792-2.43.792h-1.26v-2.178h1.134c.552 0 .942-.12 1.17-.36.24-.24.36-.648.36-1.224v-6.642l2.25-1.206v3.636l.018-.018v4.518c0 .468.096.804.288 1.008.192.192.516.288.972.288zm3.421-2.79c0-1.08.336-1.926 1.008-2.538.588-.528 1.344-.792 2.268-.792 1.188 0 2.112.438 2.772 1.314.564.732.846 1.674.846 2.826 0 1.332-.354 2.382-1.062 3.15-.636.672-1.446 1.008-2.43 1.008-.96 0-1.746-.21-2.358-.63-.576.42-1.272.63-2.088.63h-1.836v-2.178h1.62c.456 0 .78-.096.972-.288.192-.204.288-.54.288-1.008v-1.494zm2.268 1.782c0 .672.354 1.008 1.062 1.008.888 0 1.332-.684 1.332-2.052 0-1.308-.462-1.962-1.386-1.962-.672 0-1.008.396-1.008 1.188v1.818z" fill="url(#tpmhpa15pa)"/>
    <path d="M30.8 106.104c-.928.597-1.98.896-3.152.896-1.28 0-2.304-.405-3.072-1.216-.736-.779-1.104-1.803-1.104-3.072 0-1.333.389-2.379 1.168-3.136.34-.33.709-.581 1.104-.752.405-.17 1.12-.379 2.144-.624.928-.224 1.584-.485 1.968-.784-.736-1.29-1.622-1.936-2.656-1.936-.875 0-1.808.464-2.8 1.392v-1.776c.885-.981 1.893-1.472 3.024-1.472.842 0 1.658.304 2.448.912.789.608 1.488 1.472 2.096 2.592v.8c-.32.555-.731.976-1.232 1.264-.491.288-1.275.56-2.352.816-1.142.267-1.904.571-2.288.912-.46.427-.688 1.029-.688 1.808 0 1.557.816 2.336 2.448 2.336a5.44 5.44 0 0 0 2.944-.864v1.904zm12.71-7.04h1.44V101h-1.633c-.832 0-1.509-.235-2.032-.704-.586.469-1.306.704-2.16.704h-6.032l1.008-1.936h2.112v-5.232l2.016-1.072v6.304h.784c.491 0 .838-.107 1.04-.32.214-.213.32-.576.32-1.088v-5.904l2.016-1.072v7.232c0 .416.086.715.256.896.171.17.46.256.864.256zm5.879-.016c.512-1.557 1.258-2.821 2.24-3.792 1.088-1.088 2.336-1.632 3.744-1.632 1.258 0 2.266.437 3.024 1.312.64.736.96 1.648.96 2.736v.352c0 .97-.304 1.728-.912 2.272-.523.469-1.2.704-2.032.704H49.5c-.78 0-1.424-.208-1.936-.624-.512.416-1.158.624-1.936.624h-1.632v-1.936h1.44c.405 0 .693-.085.864-.256.17-.181.256-.48.256-.896V95.8l2.016-1.056v3.168c0 .683.272 1.061.816 1.136zm7.952-1.152v-.224c0-.64-.182-1.163-.544-1.568-.363-.405-.832-.608-1.408-.608-.832 0-1.611.32-2.336.96-.715.64-1.28 1.51-1.696 2.608h4.976c.384 0 .645-.08.784-.24.149-.17.224-.48.224-.928zM61.838 101v-9.248l2.016-1.072V101h-2.016zm-.72 4.352.512-.928h.48a1.345 1.345 0 0 1-.176-.656c0-.341.123-.635.368-.88.256-.245.56-.368.912-.368.32 0 .62.112.896.336v.928c-.256-.224-.512-.336-.768-.336-.352 0-.528.16-.528.48 0 .16.07.325.208.496h1.584l-.512.928h-2.976zm13.07-4.816c-.33.064-.671.096-1.023.096-.982 0-1.766-.368-2.352-1.104-.48-.619-.72-1.365-.72-2.24 0-1.173.32-2.096.96-2.768.565-.597 1.312-.896 2.24-.896.95 0 1.69.304 2.224.912.459.523.688 1.205.688 2.048v3.424c0 1.259-.33 2.251-.992 2.976-.619.683-1.462 1.024-2.528 1.024-.672 0-1.328-.181-1.968-.544v-1.744c.576.331 1.152.496 1.728.496 1.035 0 1.616-.56 1.744-1.68zm.017-3.984c0-.704-.304-1.056-.912-1.056-.384 0-.688.155-.912.464-.213.31-.32.73-.32 1.264 0 1.13.405 1.696 1.216 1.696.427 0 .736-.107.928-.32v-2.048zm7.69 5.488v-1.936c.428-.267.892-.459 1.393-.576a4.289 4.289 0 0 1-.512-2.016c0-1.088.315-1.952.944-2.592.576-.587 1.323-.88 2.24-.88.939 0 1.728.368 2.368 1.104v1.872c-.779-.768-1.52-1.152-2.224-1.152-.395 0-.715.15-.96.448-.245.288-.368.667-.368 1.136 0 .715.23 1.301.688 1.76.075 0 .192-.005.352-.016a2.1 2.1 0 0 0 .288-.016c1.205-.075 2.24-.4 3.104-.976l-.016 1.824c-.896.651-2.112.976-3.648.976-1.461 0-2.677.347-3.648 1.04zm9.553-1.04v-9.248l2.016-1.072V101h-2.016zm9.953-1.936h1.44V101h-1.632c-.362 0-.698-.048-1.008-.144-.138 1.024-.549 1.835-1.232 2.432-.618.533-1.36.8-2.224.8a4.139 4.139 0 0 1-1.968-.512v-1.76c.555.309 1.099.464 1.632.464.587 0 1.04-.192 1.36-.576.331-.373.496-.896.496-1.568v-5.184l1.312-.688.688-.368v.016l.016-.016v4.016c0 .416.086.715.256.896.171.17.459.256.864.256zm9.574-8.928c-.64 0-.96-.325-.96-.976 0-.63.32-.944.96-.944.63 0 .944.315.944.944 0 .65-.314.976-.944.976zm-1.216 2.352c-.32 0-.576-.096-.768-.288-.192-.192-.288-.453-.288-.784 0-.31.096-.56.288-.752.192-.192.448-.288.768-.288s.571.096.752.288c.192.181.288.432.288.752 0 .715-.346 1.072-1.04 1.072zm2.464 0c-.32 0-.576-.096-.768-.288-.192-.192-.288-.453-.288-.784 0-.31.096-.56.288-.752.192-.192.448-.288.768-.288s.571.096.752.288c.192.181.288.432.288.752 0 .715-.346 1.072-1.04 1.072zM101.887 101v-1.936h1.696c.406 0 .694-.085.864-.256.182-.181.272-.48.272-.896V95.8l2.016-1.056v3.168c0 .416.086.715.256.896.171.17.459.256.864.256h1.088c.406 0 .694-.085.864-.256.171-.181.256-.48.256-.896v-2.528l2.016-1.072v3.6c0 .416.086.715.256.896.182.17.475.256.88.256h1.088c.406 0 .694-.085.864-.256.171-.181.256-.48.256-.896v-2.96l2.016-1.056v4.112c0 .95-.288 1.696-.864 2.24-.501.48-1.162.731-1.984.752h-1.584c-.789 0-1.434-.235-1.936-.704-.458.459-1.066.693-1.824.704h-1.584c-.789 0-1.434-.235-1.936-.704-.501.469-1.146.704-1.936.704h-1.904zm26.632-7.44c-.32 0-.576-.096-.768-.288-.192-.203-.288-.464-.288-.784 0-.31.096-.56.288-.752.192-.192.448-.288.768-.288s.57.096.752.288c.192.181.288.432.288.752 0 .715-.347 1.072-1.04 1.072zm2.464 0c-.32 0-.576-.096-.768-.288-.192-.192-.288-.453-.288-.784 0-.693.352-1.04 1.056-1.04.32 0 .57.096.752.288.192.181.288.432.288.752 0 .715-.347 1.072-1.04 1.072zm-4 7.44c-.907 0-1.616-.304-2.128-.912-.459-.533-.688-1.221-.688-2.064v-1.632l2-1.056v2.56c0 .427.085.73.256.912.181.17.474.256.88.256h5.216c.405 0 .693-.09.864-.272.17-.181.256-.48.256-.896v-2.944l2.016-1.056v4.128c0 .97-.304 1.728-.912 2.272-.534.469-1.216.704-2.048.704h-5.712zm14.503 0c-.971 0-1.723-.309-2.256-.928-.459-.533-.688-1.221-.688-2.064v-6.272l2.016-1.056v7.232c0 .416.085.715.256.896.17.17.458.256.864.256h1.44V101h-1.632zm6.363-1.936h1.44V101h-1.632c-.779 0-1.424-.208-1.936-.624-.512.416-1.158.624-1.936.624h-1.632v-1.936h1.44c.405 0 .693-.085.864-.256.17-.181.256-.48.256-.896v-2.96l2.016-1.056v4.016c0 .416.085.715.256.896.17.17.458.256.864.256zm-2.032 3.392c.32 0 .57.091.752.272.192.192.288.448.288.768 0 .715-.347 1.072-1.04 1.072-.32 0-.576-.096-.768-.288-.192-.192-.288-.453-.288-.784 0-.309.096-.56.288-.752.192-.192.448-.288.768-.288zm8.012-3.392h1.44V101h-1.632c-.832 0-1.51-.235-2.032-.704-.587.469-1.307.704-2.16.704h-1.12v-1.936h1.008c.49 0 .837-.107 1.04-.32.213-.213.32-.576.32-1.088v-5.904l2-1.072v3.232l.016-.016v4.016c0 .416.085.715.256.896.17.17.458.256.864.256zm5.536-3.76c1.099-1.12 2.352-1.68 3.76-1.68 1.269 0 2.277.437 3.024 1.312.64.736.96 1.648.96 2.736v.384c0 1.003-.288 1.765-.864 2.288-.48.437-1.12.656-1.92.656h-10.016v-1.936h2.864c.043-.15.101-.315.176-.496v-6.816l2.016-1.072v4.624zm5.744 2.672v-.304c0-.64-.187-1.163-.56-1.568-.363-.405-.832-.608-1.408-.608-.747 0-1.456.277-2.128.832-.661.544-1.211 1.301-1.648 2.272v.464h4.88c.352 0 .581-.07.688-.208.117-.139.176-.432.176-.88zM39.097 167v-1.296l2.544-2.832c.768-.853 1.285-1.515 1.552-1.984.277-.48.416-.96.416-1.44 0-.448-.16-.811-.48-1.088-.32-.277-.747-.416-1.28-.416-.64 0-1.317.235-2.032.704l-.624-.896c.95-.725 1.92-1.088 2.912-1.088.928 0 1.68.272 2.256.816.544.501.816 1.157.816 1.968a3.36 3.36 0 0 1-.368 1.52c-.245.48-.672 1.067-1.28 1.76l-2.656 3.04h4.08V167h-5.856zm11.367.192c-1.226 0-2.176-.555-2.848-1.664-.576-.939-.864-2.128-.864-3.568 0-1.611.379-2.917 1.136-3.92.672-.907 1.531-1.36 2.576-1.36 1.184 0 2.134.581 2.848 1.744.587.971.88 2.149.88 3.536 0 1.653-.373 2.965-1.12 3.936-.672.864-1.541 1.296-2.608 1.296zm0-9.232c-.682 0-1.21.341-1.584 1.024-.373.672-.56 1.632-.56 2.88 0 1.301.203 2.32.608 3.056.384.661.891.992 1.52.992.683 0 1.216-.357 1.6-1.072.384-.725.576-1.717.576-2.976 0-1.301-.202-2.293-.608-2.976-.373-.619-.89-.928-1.552-.928zm5.367 9.04v-1.296l2.544-2.832c.768-.853 1.286-1.515 1.552-1.984.278-.48.416-.96.416-1.44 0-.448-.16-.811-.48-1.088-.32-.277-.746-.416-1.28-.416-.64 0-1.317.235-2.032.704l-.624-.896c.95-.725 1.92-1.088 2.912-1.088.928 0 1.68.272 2.256.816.544.501.816 1.157.816 1.968a3.36 3.36 0 0 1-.368 1.52c-.245.48-.672 1.067-1.28 1.76l-2.656 3.04h4.08V167h-5.856zm7.688 0v-1.296l2.544-2.832c.768-.853 1.285-1.515 1.552-1.984.277-.48.416-.96.416-1.44 0-.448-.16-.811-.48-1.088-.32-.277-.747-.416-1.28-.416-.64 0-1.318.235-2.032.704l-.624-.896c.95-.725 1.92-1.088 2.912-1.088.928 0 1.68.272 2.256.816.544.501.816 1.157.816 1.968a3.36 3.36 0 0 1-.368 1.52c-.246.48-.672 1.067-1.28 1.76l-2.656 3.04h4.08V167h-5.856zm21.294 0c-.107.939-.619 1.691-1.536 2.256-.854.523-1.942.784-3.264.784-1.686 0-2.955-.491-3.808-1.472-.63-.725-.944-1.621-.944-2.688 0-.896.224-1.664.672-2.304l1.328-.288a4.488 4.488 0 0 0-.72 2.448c0 .949.309 1.696.928 2.24.608.544 1.456.816 2.544.816.917 0 1.674-.16 2.272-.48.597-.32.96-.757 1.088-1.312h-1.6l.672-1.296h2.416V167h-.048zm-.793 0v-1.296h.848c1.11 0 1.664-.581 1.664-1.744v-6.544l1.392-.736v7.296c0 .949-.283 1.701-.848 2.256-.533.512-1.232.768-2.096.768h-.96zm6.78 0v-9.584l1.375-.736V167H90.8zm-.849 3.984.368-.688h.432a1.234 1.234 0 0 1-.16-.608c0-.309.118-.581.352-.816.235-.224.512-.336.832-.336.267 0 .523.085.768.256v.704c-.234-.181-.458-.272-.672-.272-.394 0-.592.176-.592.528 0 .181.075.363.224.544h1.456l-.368.688h-2.64zM98.144 167v-1.296l2.544-2.832c.768-.853 1.285-1.515 1.552-1.984.277-.48.416-.96.416-1.44 0-.448-.16-.811-.48-1.088-.32-.277-.747-.416-1.28-.416-.64 0-1.318.235-2.032.704l-.624-.896c.95-.725 1.92-1.088 2.912-1.088.928 0 1.68.272 2.256.816.544.501.816 1.157.816 1.968 0 .523-.123 1.029-.368 1.52-.246.48-.672 1.067-1.28 1.76l-2.656 3.04H104V167h-5.856zm11.367.192c-1.226 0-2.176-.555-2.848-1.664-.576-.939-.864-2.128-.864-3.568 0-1.611.379-2.917 1.136-3.92.672-.907 1.531-1.36 2.576-1.36 1.184 0 2.134.581 2.848 1.744.587.971.88 2.149.88 3.536 0 1.653-.373 2.965-1.12 3.936-.672.864-1.541 1.296-2.608 1.296zm0-9.232c-.682 0-1.21.341-1.584 1.024-.373.672-.56 1.632-.56 2.88 0 1.301.203 2.32.608 3.056.384.661.891.992 1.52.992.683 0 1.216-.357 1.6-1.072.384-.725.576-1.717.576-2.976 0-1.301-.202-2.293-.608-2.976-.373-.619-.89-.928-1.552-.928zm5.367 9.04v-1.296l2.544-2.832c.768-.853 1.285-1.515 1.552-1.984.277-.48.416-.96.416-1.44 0-.448-.16-.811-.48-1.088-.32-.277-.747-.416-1.28-.416-.64 0-1.317.235-2.032.704l-.624-.896c.949-.725 1.92-1.088 2.912-1.088.928 0 1.68.272 2.256.816.544.501.816 1.157.816 1.968 0 .523-.123 1.029-.368 1.52-.245.48-.672 1.067-1.28 1.76l-2.656 3.04h4.08V167h-5.856zm11.448-10.128V167h-1.488v-8.496l-1.872 1.088-.72-1.104 2.592-1.616h1.488zm10.326 2.912c-.523 0-.784-.267-.784-.8 0-.523.261-.784.784-.784.512 0 .768.261.768.784 0 .533-.256.8-.768.8zm5.84 5.92h1.056V167h-1.216c-.555 0-1.035-.112-1.44-.336-.128 1.088-.603 1.936-1.424 2.544-.736.555-1.648.832-2.736.832-1.387 0-2.464-.491-3.232-1.472-.587-.757-.88-1.653-.88-2.688 0-.896.224-1.664.672-2.304l1.328-.288a4.488 4.488 0 0 0-.72 2.448c0 .896.277 1.632.832 2.208.523.533 1.189.8 2 .8.939 0 1.664-.272 2.176-.816.427-.459.64-1.056.64-1.792v-5.344l1.376-.736v4.048c0 1.067.523 1.6 1.568 1.6zm2.715-3.04c0-.928.277-1.648.832-2.16.49-.437 1.13-.656 1.92-.656 1.013 0 1.792.373 2.336 1.12.469.629.704 1.451.704 2.464 0 1.152-.299 2.053-.896 2.704-.523.576-1.206.864-2.048.864-.96 0-1.691-.267-2.192-.8-.512.533-1.2.8-2.064.8h-1.217v-1.296h1.057c1.045 0 1.568-.533 1.568-1.6v-1.44zm1.376 1.552c0 .992.485 1.488 1.456 1.488.501 0 .89-.203 1.168-.608.288-.405.432-.971.432-1.696 0-.715-.15-1.269-.448-1.664-.299-.405-.71-.608-1.232-.608-.918 0-1.376.533-1.376 1.6v1.488z" fill="#3D4E76"/>
    <defs>
        <linearGradient id="tpmhpa15pa" x1="18.502" y1="77" x2="172.5" y2="77" gradientUnits="userSpaceOnUse">
            <stop stop-color="#FDBC11"/>
            <stop offset="1" stop-color="#F6931D"/>
        </linearGradient>
    </defs>
</svg>
