<svg width="343" height="232" viewBox="0 0 343 232" fill="none" xmlns="http://www.w3.org/2000/svg">
    <g clip-path="url(#gab5xgpgva)">
        <rect y=".477" width="343" height="231.492" rx="7" fill="#fff" stroke="#E9E9E9" stroke-width="1.4"/>
        <mask id="ubskj2xrhb" style="mask-type:luminance" maskUnits="userSpaceOnUse" x="-1" y="-1" width="345" height="234">
            <rect y=".477" width="343" height="231.492" rx="7" fill="#fff" stroke="#fff" stroke-width="1.4"/>
        </mask>
        <g mask="url(#ubskj2xrhb)">
            <path d="M161.804 51.138h-4.74v-3h4.74v-5.34h3.51v5.34h4.77v3h-4.77v5.28h-3.51v-5.28zm10.201-1.56c2.7-4.12 5.36-8.17 7.98-12.15h3.87v12.15h3.12v3.15h-3.12v3.69h-3.9v-3.69h-7.95v-3.15zm3.39 0h4.56v-7.11l-4.56 7.11zm13.754 6.84v-3.33c.48-.54 1.12-1.27 1.92-2.19 1.26-1.4 2.19-2.46 2.79-3.18 1.34-1.6 2.18-2.69 2.52-3.27.34-.6.51-1.26.51-1.98 0-.6-.22-1.1-.66-1.5-.44-.4-1-.6-1.68-.6-1.18 0-2.48.48-3.9 1.44l-1.65-2.4c2-1.58 4.09-2.37 6.27-2.37 1.74 0 3.13.47 4.17 1.41 1.02.92 1.53 2.19 1.53 3.81 0 1.2-.4 2.46-1.2 3.78-.78 1.3-2.31 3.24-4.59 5.82-.56.64-.97 1.11-1.23 1.41h6.81v3.15h-11.61zm14.605 3.15-.96-1.77c.88-.34 1.32-.8 1.32-1.38-.96 0-1.44-.57-1.44-1.71 0-.58.19-1.06.57-1.44.4-.38.91-.57 1.53-.57s1.13.25 1.53.75c.4.48.6 1.09.6 1.83 0 1.06-.3 1.99-.9 2.79-.58.8-1.33 1.3-2.25 1.5zm11.843-22.5c2.32 0 4.18 1.11 5.58 3.33 1.18 1.84 1.77 4.03 1.77 6.57 0 3.06-.75 5.51-2.25 7.35-1.32 1.64-3.02 2.46-5.1 2.46-2.38 0-4.24-1.06-5.58-3.18-1.12-1.76-1.68-3.97-1.68-6.63 0-2.96.74-5.39 2.22-7.29 1.34-1.74 3.02-2.61 5.04-2.61zm.06 3.36c-2.16 0-3.24 2.12-3.24 6.36 0 2.14.31 3.82.93 5.04.56 1.1 1.3 1.65 2.22 1.65 1.02 0 1.82-.59 2.4-1.77.6-1.2.9-2.84.9-4.92 0-4.24-1.07-6.36-3.21-6.36zm16.845-3.36c2.32 0 4.18 1.11 5.58 3.33 1.18 1.84 1.77 4.03 1.77 6.57 0 3.06-.75 5.51-2.25 7.35-1.32 1.64-3.02 2.46-5.1 2.46-2.38 0-4.24-1.06-5.58-3.18-1.12-1.76-1.68-3.97-1.68-6.63 0-2.96.74-5.39 2.22-7.29 1.34-1.74 3.02-2.61 5.04-2.61zm.06 3.36c-2.16 0-3.24 2.12-3.24 6.36 0 2.14.31 3.82.93 5.04.56 1.1 1.3 1.65 2.22 1.65 1.02 0 1.82-.59 2.4-1.77.6-1.2.9-2.84.9-4.92 0-4.24-1.07-6.36-3.21-6.36zm16.844-3.36c2.32 0 4.18 1.11 5.58 3.33 1.18 1.84 1.77 4.03 1.77 6.57 0 3.06-.75 5.51-2.25 7.35-1.32 1.64-3.02 2.46-5.1 2.46-2.38 0-4.24-1.06-5.58-3.18-1.12-1.76-1.68-3.97-1.68-6.63 0-2.96.74-5.39 2.22-7.29 1.34-1.74 3.02-2.61 5.04-2.61zm.06 3.36c-2.16 0-3.24 2.12-3.24 6.36 0 2.14.31 3.82.93 5.04.56 1.1 1.3 1.65 2.22 1.65 1.02 0 1.82-.59 2.4-1.77.6-1.2.9-2.84.9-4.92 0-4.24-1.07-6.36-3.21-6.36zm10.274 19.14-.96-1.77c.88-.34 1.32-.8 1.32-1.38-.96 0-1.44-.57-1.44-1.71 0-.58.19-1.06.57-1.44.4-.38.91-.57 1.53-.57s1.13.25 1.53.75c.4.48.6 1.09.6 1.83 0 1.06-.3 1.99-.9 2.79-.58.8-1.33 1.3-2.25 1.5zm11.844-22.5c2.32 0 4.18 1.11 5.58 3.33 1.18 1.84 1.77 4.03 1.77 6.57 0 3.06-.75 5.51-2.25 7.35-1.32 1.64-3.02 2.46-5.1 2.46-2.38 0-4.24-1.06-5.58-3.18-1.12-1.76-1.68-3.97-1.68-6.63 0-2.96.74-5.39 2.22-7.29 1.34-1.74 3.02-2.61 5.04-2.61zm.06 3.36c-2.16 0-3.24 2.12-3.24 6.36 0 2.14.31 3.82.93 5.04.56 1.1 1.3 1.65 2.22 1.65 1.02 0 1.82-.59 2.4-1.77.6-1.2.9-2.84.9-4.92 0-4.24-1.07-6.36-3.21-6.36zm16.844-3.36c2.32 0 4.18 1.11 5.58 3.33 1.18 1.84 1.77 4.03 1.77 6.57 0 3.06-.75 5.51-2.25 7.35-1.32 1.64-3.02 2.46-5.1 2.46-2.38 0-4.24-1.06-5.58-3.18-1.12-1.76-1.68-3.97-1.68-6.63 0-2.96.74-5.39 2.22-7.29 1.34-1.74 3.02-2.61 5.04-2.61zm.06 3.36c-2.16 0-3.24 2.12-3.24 6.36 0 2.14.31 3.82.93 5.04.56 1.1 1.3 1.65 2.22 1.65 1.02 0 1.82-.59 2.4-1.77.6-1.2.9-2.84.9-4.92 0-4.24-1.07-6.36-3.21-6.36zm16.844-3.36c2.32 0 4.18 1.11 5.58 3.33 1.18 1.84 1.77 4.03 1.77 6.57 0 3.06-.75 5.51-2.25 7.35-1.32 1.64-3.02 2.46-5.1 2.46-2.38 0-4.24-1.06-5.58-3.18-1.12-1.76-1.68-3.97-1.68-6.63 0-2.96.74-5.39 2.22-7.29 1.34-1.74 3.02-2.61 5.04-2.61zm.06 3.36c-2.16 0-3.24 2.12-3.24 6.36 0 2.14.31 3.82.93 5.04.56 1.1 1.3 1.65 2.22 1.65 1.02 0 1.82-.59 2.4-1.77.6-1.2.9-2.84.9-4.92 0-4.24-1.07-6.36-3.21-6.36zM193.845 78.24c0 1.47-.405 2.66-1.216 3.572-.747.849-1.735 1.273-2.964 1.273-.798 0-1.577-.203-2.337-.608v-2.09c.659.367 1.305.551 1.938.551.697 0 1.235-.228 1.615-.684.393-.443.589-1.064.589-1.862v-6.137l2.375-1.273v7.258zm10.742-9.804 2.394-1.273v8.303c0 1.229-.374 2.21-1.121 2.945-.697.671-1.615 1.007-2.755 1.007h-7.163l1.197-2.299h2.508v-6.213l2.394-1.273v7.486h.931c.583 0 .994-.127 1.235-.38.253-.253.38-.684.38-1.292v-7.011zm10.097 10.431a6.38 6.38 0 0 1-1.216.114c-1.165 0-2.096-.437-2.793-1.311-.57-.735-.855-1.621-.855-2.66 0-1.393.38-2.489 1.14-3.287.672-.71 1.558-1.064 2.66-1.064 1.128 0 2.008.361 2.641 1.083.545.62.817 1.431.817 2.432v4.066c0 1.495-.392 2.673-1.178 3.534-.734.81-1.735 1.216-3.002 1.216-.798 0-1.577-.215-2.337-.646v-2.071c.684.393 1.368.589 2.052.589 1.229 0 1.919-.665 2.071-1.995zm.019-4.731c0-.836-.361-1.254-1.083-1.254-.456 0-.817.184-1.083.551-.253.367-.38.868-.38 1.501 0 1.343.482 2.014 1.444 2.014.507 0 .874-.127 1.102-.38v-2.432zm4.094 5.282 1.197-2.299h3.002c.646 0 .969-.374.969-1.121 0-1.406-.671-2.483-2.014-3.23l1.178-2.014c2.153 1.267 3.23 3.027 3.23 5.282s-.975 3.382-2.926 3.382h-4.636zm19.737-8.227c-.38 0-.684-.114-.912-.342-.228-.228-.342-.538-.342-.931 0-.367.114-.665.342-.893.228-.228.532-.342.912-.342s.678.114.893.342c.228.215.342.513.342.893 0 .849-.412 1.273-1.235 1.273zm5.263 7.011c0 1.52-.526 2.73-1.577 3.629-.937.798-2.134 1.197-3.591 1.197-1.71 0-3.034-.602-3.971-1.805-.735-.937-1.102-2.04-1.102-3.306 0-1 .234-1.875.703-2.622l2.28-.475c-.507.861-.76 1.767-.76 2.717 0 .963.272 1.742.817 2.337.519.57 1.197.855 2.033.855.874 0 1.552-.222 2.033-.665.494-.443.741-1.064.741-1.862v-5.966l2.394-1.254v7.22zm12.449-1.083v2.299h-2.337c-.088 1.14-.595 2.052-1.52 2.736-.76.557-1.646.836-2.66.836-.798 0-1.577-.215-2.337-.646v-2.071c.684.393 1.368.589 2.052.589.532 0 1.001-.146 1.406-.437.418-.291.646-.64.684-1.045a7.9 7.9 0 0 0-.475-.038l-.494-.057c-1.304-.14-2.311-.652-3.021-1.539-.595-.747-.893-1.653-.893-2.717 0-1.393.38-2.495 1.14-3.306.672-.71 1.558-1.064 2.66-1.064 1.128 0 2.008.361 2.641 1.083.545.62.817 1.431.817 2.432v2.945h2.337zm-4.712-2.983c0-.836-.361-1.254-1.083-1.254-.962 0-1.444.69-1.444 2.071 0 1.229.558 1.913 1.672 2.052.178.038.463.07.855.095v-2.964zm10.339 2.983h1.71v2.299h-1.938c-.924 0-1.691-.247-2.299-.741-.608.494-1.374.741-2.299.741h-1.938v-2.299h1.71c.482 0 .824-.101 1.026-.304.203-.215.304-.57.304-1.064v-3.515l2.394-1.254v4.769c0 .494.102.849.304 1.064.203.203.545.304 1.026.304zm-4.921 4.028c.38 0 .678.108.893.323.228.228.342.532.342.912 0 .849-.411 1.273-1.235 1.273-.38 0-.684-.114-.912-.342-.228-.228-.342-.538-.342-.931 0-.823.418-1.235 1.254-1.235zm2.926 0c.38 0 .678.108.893.323.228.228.342.532.342.912 0 .849-.411 1.273-1.235 1.273-.38 0-.684-.114-.912-.342-.228-.228-.342-.538-.342-.931 0-.823.418-1.235 1.254-1.235zm9.096-4.028h1.71v2.299h-1.938c-.988 0-1.792-.279-2.413-.836-.696.557-1.551.836-2.565.836h-1.33v-2.299h1.197c.583 0 .995-.127 1.235-.38.254-.253.38-.684.38-1.292v-7.011l2.375-1.273v3.838l.019-.019v4.769c0 .494.102.849.304 1.064.203.203.545.304 1.026.304zm3.611-2.945c0-1.14.354-2.033 1.064-2.679.62-.557 1.418-.836 2.394-.836 1.254 0 2.229.462 2.926 1.387.595.773.893 1.767.893 2.983 0 1.406-.374 2.514-1.121 3.325-.672.71-1.527 1.064-2.565 1.064-1.014 0-1.843-.222-2.489-.665-.608.443-1.343.665-2.204.665h-1.938v-2.299h1.71c.481 0 .823-.101 1.026-.304.202-.215.304-.57.304-1.064v-1.577zm2.394 1.881c0 .71.373 1.064 1.121 1.064.937 0 1.406-.722 1.406-2.166 0-1.38-.488-2.071-1.463-2.071-.71 0-1.064.418-1.064 1.254v1.919z" fill="url(#25qkkd42zc)"/>
            <path d="M184.102 115.377c-.872.544-1.853.816-2.941.816-1.17 0-2.115-.39-2.834-1.17-.646-.699-.97-1.597-.97-2.695 0-1.181.349-2.12 1.047-2.819a3.42 3.42 0 0 1 1.063-.723c.4-.175 1.006-.349 1.817-.524.77-.164 1.335-.323 1.694-.477a2.7 2.7 0 0 0 .955-.663c-.842-1.581-1.879-2.371-3.111-2.371-.821 0-1.684.441-2.587 1.324v-1.232c.862-.872 1.781-1.309 2.757-1.309.78 0 1.54.288 2.279.863.739.575 1.391 1.386 1.956 2.433v.677c-.339.514-.75.904-1.232 1.171-.483.256-1.232.493-2.249.708-1.201.257-2.002.58-2.402.97-.493.473-.739 1.135-.739 1.987 0 .862.282 1.53.847 2.002.472.4 1.078.601 1.817.601 1.129-.011 2.074-.283 2.833-.817v1.248zm11.825-6.206h1.017v1.247h-1.171c-.883 0-1.565-.282-2.048-.847-.513.565-1.222.847-2.125.847h-5.298l.647-1.247h2.249v-5.976l1.324-.708v6.684h.97c1.068 0 1.602-.56 1.602-1.679v-6.299l1.34-.708v7.022c0 .596.113 1.022.338 1.279.237.256.622.385 1.155.385zm4.939-.047c.41-1.55 1.088-2.843 2.032-3.88 1.058-1.14 2.29-1.71 3.696-1.71 1.171 0 2.105.406 2.803 1.217.585.688.878 1.535.878 2.541v.4c0 .893-.272 1.586-.816 2.079-.472.431-1.094.647-1.864.647h-6.375c-.852 0-1.525-.272-2.018-.816-.492.544-1.165.816-2.017.816h-1.17v-1.247h1.016c1.006 0 1.509-.514 1.509-1.54v-2.156l1.325-.709v2.865c0 .862.333 1.36 1.001 1.493zm8.085-1.555v-.277c0-.801-.247-1.438-.74-1.91-.431-.41-.965-.616-1.601-.616-1.088 0-2.069.503-2.942 1.509-.667.77-1.18 1.735-1.54 2.896h5.39c.955 0 1.433-.534 1.433-1.602zm3.785 2.849v-9.225l1.325-.708v9.933h-1.325zm-.816 3.835.354-.663h.416a1.18 1.18 0 0 1-.154-.585c0-.298.113-.559.339-.785a1.12 1.12 0 0 1 .801-.324c.256 0 .503.083.739.247v.677c-.226-.174-.442-.261-.647-.261-.38 0-.57.169-.57.508 0 .174.072.349.216.523h1.401l-.354.663h-2.541zm12.29-4.328c-.39.154-.868.231-1.433.231-.913 0-1.632-.344-2.156-1.032-.441-.585-.662-1.319-.662-2.202 0-1.088.293-1.94.878-2.556.524-.555 1.212-.832 2.064-.832.872 0 1.545.272 2.017.816.421.483.631 1.114.631 1.895v3.357c0 1.16-.302 2.079-.908 2.756-.575.637-1.34.955-2.295.955a3.82 3.82 0 0 1-1.802-.446v-1.171c.545.288 1.084.431 1.617.431.606 0 1.089-.195 1.448-.585.359-.38.56-.919.601-1.617zm0-3.619c0-1.026-.437-1.54-1.309-1.54-.514 0-.919.19-1.217.57-.287.38-.431.898-.431 1.555 0 .647.138 1.166.416 1.556.287.38.672.57 1.155.57.677 0 1.139-.19 1.386-.57v-2.141zm6.704 5.005v-1.278c.369-.277.878-.477 1.524-.601-.462-.698-.693-1.437-.693-2.217 0-.976.283-1.761.847-2.356.514-.555 1.181-.832 2.002-.832.894 0 1.633.359 2.218 1.078v1.278c-.657-.76-1.376-1.139-2.156-1.139-.483 0-.868.174-1.155.523-.288.339-.431.801-.431 1.386 0 .842.292 1.54.878 2.095a8.21 8.21 0 0 1 .569-.031c1.314-.041 2.357-.344 3.127-.909v1.232c-.873.585-2.013.878-3.419.878-1.376 0-2.48.298-3.311.893zm8.893-.893v-9.225l1.324-.708v9.933h-1.324zm8.871-1.247h1.016v1.247h-1.17c-.524 0-.975-.103-1.355-.308-.093 1.016-.447 1.827-1.063 2.433-.565.555-1.273.832-2.125.832a3.825 3.825 0 0 1-1.802-.462v-1.155c.524.287 1.047.431 1.571.431.657 0 1.17-.221 1.54-.662.369-.442.554-1.053.554-1.833v-5.251l1.325-.709v.016l.015-.016v4.205c.092.821.59 1.232 1.494 1.232zm8.564-8.717c-.452 0-.678-.231-.678-.693 0-.452.226-.677.678-.677.451 0 .677.225.677.677 0 .462-.226.693-.677.693zm-.971 1.833c-.503 0-.754-.257-.754-.77 0-.503.251-.755.754-.755.493 0 .74.252.74.755 0 .513-.247.77-.74.77zm1.956 0c-.503 0-.754-.257-.754-.77 0-.503.251-.755.754-.755.493 0 .739.252.739.755 0 .513-.246.77-.739.77zm-9.455 8.131v-1.247h1.386c.996 0 1.493-.514 1.493-1.54v-2.156l1.325-.709v2.865c0 1.026.503 1.54 1.509 1.54h.708c1.007 0 1.51-.514 1.51-1.54v-2.68l1.324-.693v3.373c0 1.026.498 1.54 1.494 1.54h.724c1.006 0 1.509-.514 1.509-1.54v-3.188l1.324-.709v3.943c0 .872-.262 1.555-.785 2.048-.462.452-1.078.683-1.848.693h-1.063c-.903 0-1.576-.303-2.017-.909-.442.596-1.099.899-1.971.909h-1.063c-.883 0-1.555-.303-2.017-.909-.442.606-1.114.909-2.018.909h-1.524zm24.804-7.161c-.503 0-.755-.257-.755-.77 0-.503.252-.755.755-.755.493 0 .739.252.739.755 0 .513-.246.77-.739.77zm1.956 0c-.503 0-.755-.257-.755-.77 0-.503.252-.755.755-.755.492 0 .739.252.739.755 0 .513-.247.77-.739.77zm-3.512 7.161c-.831 0-1.483-.277-1.955-.832-.411-.482-.616-1.114-.616-1.894v-1.863l1.324-.709v2.449c0 1.068.498 1.602 1.494 1.602h5.113c.995 0 1.493-.534 1.493-1.602v-3.126l1.325-.709v3.958c0 .893-.272 1.586-.816 2.079-.483.431-1.104.647-1.864.647h-5.498zm13.328 0c-.894 0-1.582-.287-2.064-.862-.411-.493-.616-1.119-.616-1.879v-6.484l1.324-.708v7.146c0 1.026.503 1.54 1.51 1.54h1.016v1.247h-1.17zm5.599-1.247h1.016v1.247h-1.17c-.853 0-1.525-.272-2.018-.816-.493.544-1.165.816-2.017.816h-1.171v-1.247h1.017c1.006 0 1.509-.514 1.509-1.54v-3.188l1.324-.709v3.897c0 1.026.503 1.54 1.51 1.54zm-2.264 2.787c.493 0 .739.252.739.755 0 .513-.246.77-.739.77-.503 0-.755-.257-.755-.77 0-.503.252-.755.755-.755zm7.6-2.787h1.016v1.247h-1.17c-.883 0-1.566-.282-2.048-.847-.514.565-1.222.847-2.126.847h-.924v-1.247h.817c1.067 0 1.601-.56 1.601-1.679v-6.299l1.34-.708v7.022c0 .596.113 1.022.339 1.279.236.256.621.385 1.155.385zm4.322-3.05c1.171-1.724 2.623-2.587 4.359-2.587 1.16 0 2.089.406 2.787 1.217.595.688.893 1.535.893 2.541v.493c0 .841-.205 1.493-.616 1.955-.411.452-.996.678-1.755.678h-9.903v-1.247h2.865l.046-.17v-7.808l1.324-.708v5.636zm6.699 1.602v-.431c0-.801-.246-1.438-.739-1.91-.421-.41-.95-.616-1.586-.616-1.058 0-2.012.478-2.864 1.432-.637.719-1.14 1.617-1.51 2.695v.278h5.56c.441 0 .739-.103.893-.308.164-.206.246-.586.246-1.14z" fill="#3D4E76"/>
            <path d="M73.573 60.035h4.963c1.745 0 3.16 1.365 3.16 3.046v90.557c0 1.684-1.415 3.049-3.16 3.049H31.158c-1.745 0-3.158-1.365-3.158-3.049V63.081c0-1.681 1.413-3.047 3.158-3.047h4.963" stroke="#3D4E76" stroke-width="1.408" stroke-linecap="round" stroke-linejoin="round"/>
            <path clip-rule="evenodd" d="M35.16 104.781h37.586V88.672H35.16v16.109z" stroke="#3D4E76" stroke-width="1.408" stroke-linecap="round" stroke-linejoin="round"/>
            <path fill-rule="evenodd" clip-rule="evenodd" d="M42.319 99.411h25.058v-5.37H42.319v5.37z" fill="#01B8B6"/>
            <path d="M35.16 73.458h37.586M35.16 49.295v-5.23c0-4.031 3.395-7.298 7.586-7.298H65.16c4.19 0 7.586 3.267 7.586 7.298v5.23M71.852 49.295v19.689M36.054 68.984V49.295M42.319 51.98h23.268M47.688 59.14h14.32M80.906 79.723h10.958c1.856 0 3.36 1.516 3.36 3.385v55.874c0 1.87-1.504 3.386-3.36 3.386H80.906M42.319 121.785h3.58M53.058 121.785h3.58M62.007 121.785h3.58M42.319 130.734h3.58M53.058 130.734h3.58M62.007 130.734h3.58M42.319 139.683h3.58M53.058 139.683h3.58M62.007 139.683h3.58" stroke="#3D4E76" stroke-width="1.408" stroke-linecap="round" stroke-linejoin="round"/>
            <path clip-rule="evenodd" d="M118.388 126.259a4.475 4.475 0 1 1-.002 8.95 4.475 4.475 0 0 1 .002-8.95z" stroke="#3D4E76" stroke-width="1.408" stroke-linecap="round" stroke-linejoin="round"/>
            <path clip-rule="evenodd" d="M151.5 79.481v57.759c0 2.832-2.324 5.128-5.189 5.128h-32.578c-2.866 0-5.19-2.296-5.19-5.128V79.481c0-2.832 2.324-5.128 5.19-5.128h32.578c2.865 0 5.189 2.296 5.189 5.128z" stroke="#3D4E76" stroke-width="1.408" stroke-linecap="round" stroke-linejoin="round"/>
            <path fill-rule="evenodd" clip-rule="evenodd" d="M122.862 86.633v4.078c0 1.839-1.674 3.33-3.74 3.33h-1.469c-2.066 0-3.74-1.491-3.74-3.33v-4.078c0-1.839 1.674-3.33 3.74-3.33h1.469c2.066 0 3.74 1.491 3.74 3.33" fill="#01B8B6"/>
            <path d="M122.862 120.89c0-1.977-2.003-3.58-4.474-3.58s-4.475 1.603-4.475 3.58M141.656 133.419v-7.16M141.656 119.1v-7.16M141.656 106.571v-7.16M141.656 92.252v-7.16" stroke="#3D4E76" stroke-width="1.408" stroke-linecap="round" stroke-linejoin="round"/>
            <path d="M110.546 208.461v-10.128h6.176v1.232h-4.688v3.04h3.936v1.232h-3.936v4.624h-1.488zm10.571.192c-1.099 0-1.989-.411-2.672-1.232-.587-.704-.88-1.563-.88-2.576 0-1.173.357-2.123 1.072-2.848.64-.661 1.461-.992 2.464-.992 1.152 0 2.059.421 2.72 1.264.544.704.816 1.563.816 2.576 0 1.163-.373 2.112-1.12 2.848-.661.64-1.461.96-2.4.96zm-.032-1.088c.64 0 1.147-.245 1.52-.736.384-.491.576-1.152.576-1.984 0-.864-.203-1.552-.608-2.064a1.775 1.775 0 0 0-1.472-.72c-.619 0-1.12.256-1.504.768-.384.512-.576 1.184-.576 2.016 0 .896.213 1.589.64 2.08.373.427.848.64 1.424.64zm6.881-5.648h.064c.502-.608 1.088-.912 1.76-.912.854 0 1.483.331 1.888.992l-1.152.72c-.352-.352-.736-.528-1.152-.528-.533 0-.981.272-1.344.816v5.456h-1.376v-7.264h1.184l.128.72zm6.328 0h.08c.544-.608 1.296-.912 2.256-.912 1.205 0 1.989.432 2.352 1.296.618-.864 1.498-1.296 2.64-1.296 1.749 0 2.624 1.035 2.624 3.104v4.352h-1.376v-4.048c0-.8-.144-1.371-.432-1.712-.278-.341-.747-.512-1.408-.512-.662 0-1.264.293-1.808.88.064.299.096.645.096 1.04v4.352h-1.376v-4.16c0-.736-.15-1.269-.448-1.6-.288-.341-.758-.512-1.408-.512-.31 0-.63.08-.96.24-.331.16-.576.352-.736.576v5.456h-1.376v-7.264h1.152l.128.72zm15.647 6.544v-1.296l2.544-2.832c.768-.853 1.285-1.515 1.552-1.984.277-.48.416-.96.416-1.44 0-.448-.16-.811-.48-1.088-.32-.277-.747-.416-1.28-.416-.64 0-1.318.235-2.032.704l-.624-.896c.949-.725 1.92-1.088 2.912-1.088.928 0 1.68.272 2.256.816.544.501.816 1.157.816 1.968 0 .523-.123 1.029-.368 1.52-.246.48-.672 1.067-1.28 1.76l-2.656 3.04h4.08v1.232h-5.856zm11.367.192c-1.227 0-2.176-.555-2.848-1.664-.576-.939-.864-2.128-.864-3.568 0-1.611.379-2.917 1.136-3.92.672-.907 1.531-1.36 2.576-1.36 1.184 0 2.133.581 2.848 1.744.587.971.88 2.149.88 3.536 0 1.653-.373 2.965-1.12 3.936-.672.864-1.541 1.296-2.608 1.296zm0-9.232c-.683 0-1.211.341-1.584 1.024-.373.672-.56 1.632-.56 2.88 0 1.301.203 2.32.608 3.056.384.661.891.992 1.52.992.683 0 1.216-.357 1.6-1.072.384-.725.576-1.717.576-2.976 0-1.301-.203-2.293-.608-2.976-.373-.619-.891-.928-1.552-.928zm5.367 9.04v-1.296l2.544-2.832c.768-.853 1.285-1.515 1.552-1.984.277-.48.416-.96.416-1.44 0-.448-.16-.811-.48-1.088-.32-.277-.747-.416-1.28-.416-.64 0-1.317.235-2.032.704l-.624-.896c.949-.725 1.92-1.088 2.912-1.088.928 0 1.68.272 2.256.816.544.501.816 1.157.816 1.968 0 .523-.123 1.029-.368 1.52-.245.48-.672 1.067-1.28 1.76l-2.656 3.04h4.08v1.232h-5.856zm11.448-10.128v10.128h-1.488v-8.496l-1.872 1.088-.72-1.104 2.592-1.616h1.488zm8.31 3.984-.016 4.224c0 .704.267 1.056.8 1.056a2.16 2.16 0 0 0 1.104-.32l.48.736c-.587.437-1.221.656-1.904.656-1.237 0-1.856-.677-1.856-2.032v-4.32h-1.072v-1.12h1.088v-1.488l1.376-.72v2.208h2.176v1.12h-2.176zm7.2 6.336c-1.099 0-1.99-.411-2.672-1.232-.587-.704-.88-1.563-.88-2.576 0-1.173.357-2.123 1.072-2.848.64-.661 1.461-.992 2.464-.992 1.152 0 2.058.421 2.72 1.264.544.704.816 1.563.816 2.576 0 1.163-.374 2.112-1.12 2.848-.662.64-1.462.96-2.4.96zm-.032-1.088c.64 0 1.146-.245 1.52-.736.384-.491.576-1.152.576-1.984 0-.864-.203-1.552-.608-2.064a1.776 1.776 0 0 0-1.472-.72c-.619 0-1.12.256-1.504.768-.384.512-.576 1.184-.576 2.016 0 .896.213 1.589.64 2.08.373.427.848.64 1.424.64zm8.855.896v-1.296l2.544-2.832c.768-.853 1.286-1.515 1.552-1.984.278-.48.416-.96.416-1.44 0-.448-.16-.811-.48-1.088-.32-.277-.746-.416-1.28-.416-.64 0-1.317.235-2.032.704l-.624-.896c.95-.725 1.92-1.088 2.912-1.088.928 0 1.68.272 2.256.816.544.501.816 1.157.816 1.968 0 .523-.122 1.029-.368 1.52-.245.48-.672 1.067-1.28 1.76l-2.656 3.04h4.08v1.232h-5.856zm11.368.192c-1.227 0-2.176-.555-2.848-1.664-.576-.939-.864-2.128-.864-3.568 0-1.611.378-2.917 1.136-3.92.672-.907 1.53-1.36 2.576-1.36 1.184 0 2.133.581 2.848 1.744.586.971.88 2.149.88 3.536 0 1.653-.374 2.965-1.12 3.936-.672.864-1.542 1.296-2.608 1.296zm0-9.232c-.683 0-1.211.341-1.584 1.024-.374.672-.56 1.632-.56 2.88 0 1.301.202 2.32.608 3.056.384.661.89.992 1.52.992.682 0 1.216-.357 1.6-1.072.384-.725.576-1.717.576-2.976 0-1.301-.203-2.293-.608-2.976-.374-.619-.891-.928-1.552-.928zm5.367 9.04v-1.296l2.544-2.832c.768-.853 1.285-1.515 1.552-1.984.277-.48.416-.96.416-1.44 0-.448-.16-.811-.48-1.088-.32-.277-.747-.416-1.28-.416-.64 0-1.318.235-2.032.704l-.624-.896c.949-.725 1.92-1.088 2.912-1.088.928 0 1.68.272 2.256.816.544.501.816 1.157.816 1.968 0 .523-.123 1.029-.368 1.52-.246.48-.672 1.067-1.28 1.76l-2.656 3.04h4.08v1.232h-5.856zm7.687 0v-1.296l2.544-2.832c.768-.853 1.285-1.515 1.552-1.984.277-.48.416-.96.416-1.44 0-.448-.16-.811-.48-1.088-.32-.277-.747-.416-1.28-.416-.64 0-1.317.235-2.032.704l-.624-.896c.949-.725 1.92-1.088 2.912-1.088.928 0 1.68.272 2.256.816.544.501.816 1.157.816 1.968 0 .523-.123 1.029-.368 1.52-.245.48-.672 1.067-1.28 1.76l-2.656 3.04h4.08v1.232h-5.856z" fill="#3D4E76"/>
            <path d="M567.962-123.919a150.446 150.446 0 0 1 60.649-12.716c86.175 0 156.037 72.472 156.037 161.866 0 89.399-69.862 161.867-156.037 161.867-57.753 0-108.064-32.635-135.046-81.018-41.362 49.541-102.308 81.018-170.447 81.018-47.464 0-91.45-15.273-127.787-41.243-30.912 25.754-70.111 41.243-112.855 41.243C-17.194 187.098-98 103.28-98-.117c0-103.404 80.807-187.222 180.476-187.222 18.904 0 37.122 3.043 54.243 8.63 40.621-61.706 108.935-102.242 186.399-102.242 48.848 0 94.022 16.13 130.898 43.529" stroke="url(#zx3zt34iod)" stroke-width="1.935" stroke-linecap="round" stroke-linejoin="round"/>
        </g>
    </g>
    <defs>
        <linearGradient id="25qkkd42zc" x1="156.002" y1="84.418" x2="314" y2="84.418" gradientUnits="userSpaceOnUse">
            <stop stop-color="#FDBC11"/>
            <stop offset="1" stop-color="#F6931D"/>
        </linearGradient>
        <linearGradient id="zx3zt34iod" x1="764.487" y1="-79.295" x2="-43.884" y2="-141.228" gradientUnits="userSpaceOnUse">
            <stop stop-color="#1C6FC4"/>
            <stop offset="1" stop-color="#01B8B6"/>
        </linearGradient>
        <clipPath id="gab5xgpgva">
            <path fill="#fff" transform="translate(0 .477)" d="M0 0h343v231.492H0z"/>
        </clipPath>
    </defs>
</svg>
