<svg width="215" height="340" viewBox="0 0 215 340" fill="none" xmlns="http://www.w3.org/2000/svg">
    <rect x=".5" y=".5" width="214" height="339" rx="3.5" fill="#fff" stroke="#EDEDED"/>
    <path d="M101.193 229.5h4.159c1.462 0 2.648 1.144 2.648 2.553v75.892c0 1.411-1.186 2.555-2.648 2.555H65.646c-1.462 0-2.646-1.144-2.646-2.555v-75.892c0-1.409 1.184-2.553 2.646-2.553h4.16" stroke="#3D4E76" stroke-width="1.18" stroke-linecap="round" stroke-linejoin="round"/>
    <path clip-rule="evenodd" d="M69 267h31.5v-13.5H69V267z" stroke="#3D4E76" stroke-width="1.18" stroke-linecap="round" stroke-linejoin="round"/>
    <path fill-rule="evenodd" clip-rule="evenodd" d="M75 262.5h21V258H75v4.5z" fill="#01B8B6"/>
    <path d="M69 240.75h31.5M69 220.5v-4.383c0-3.379 2.845-6.117 6.358-6.117h18.784c3.51 0 6.358 2.738 6.358 6.117v4.383M99.75 220.5V237M69.75 237v-16.5M75 222.75h19.5M79.5 228.75h12M107.5 246h9.183a2.827 2.827 0 0 1 2.817 2.837v46.826a2.827 2.827 0 0 1-2.817 2.837H107.5M75 281.25h3M84 281.25h3M91.5 281.25h3M75 288.75h3M84 288.75h3M91.5 288.75h3M75 296.25h3M84 296.25h3M91.5 296.25h3" stroke="#3D4E76" stroke-width="1.18" stroke-linecap="round" stroke-linejoin="round"/>
    <path clip-rule="evenodd" d="M138.75 285a3.75 3.75 0 1 1 0 7.5 3.75 3.75 0 0 1 0-7.5z" stroke="#3D4E76" stroke-width="1.18" stroke-linecap="round" stroke-linejoin="round"/>
    <path clip-rule="evenodd" d="M166.5 245.797v48.406c0 2.373-1.947 4.297-4.349 4.297h-27.302c-2.402 0-4.349-1.924-4.349-4.297v-48.406c0-2.373 1.947-4.297 4.349-4.297h27.302c2.402 0 4.349 1.924 4.349 4.297z" stroke="#3D4E76" stroke-width="1.18" stroke-linecap="round" stroke-linejoin="round"/>
    <path fill-rule="evenodd" clip-rule="evenodd" d="M142.5 251.791v3.418c0 1.541-1.403 2.791-3.134 2.791h-1.232c-1.731 0-3.134-1.25-3.134-2.791v-3.418c0-1.541 1.403-2.791 3.134-2.791h1.232c1.731 0 3.134 1.25 3.134 2.791" fill="#01B8B6"/>
    <path d="M142.5 280.5c0-1.657-1.679-3-3.75-3-2.071 0-3.75 1.343-3.75 3M158.25 291v-6M158.25 279v-6M158.25 268.5v-6M158.25 256.5v-6" stroke="#3D4E76" stroke-width="1.18" stroke-linecap="round" stroke-linejoin="round"/>
    <path d="M123.816 46.2h-7.9v-5h7.9v-8.9h5.85v8.9h7.95v5h-7.95V55h-5.85v-8.8zm17.003-2.6c4.5-6.867 8.933-13.617 13.3-20.25h6.45V43.6h5.2v5.25h-5.2V55h-6.5v-6.15h-13.25V43.6zm5.65 0h7.6V31.75l-7.6 11.85zM169.393 55v-5.55c.8-.9 1.866-2.117 3.2-3.65 2.1-2.333 3.65-4.1 4.65-5.3 2.233-2.667 3.633-4.483 4.2-5.45.566-1 .85-2.1.85-3.3 0-1-.367-1.833-1.1-2.5-.734-.667-1.667-1-2.8-1-1.967 0-4.134.8-6.5 2.4l-2.75-4c3.333-2.633 6.816-3.95 10.45-3.95 2.9 0 5.216.783 6.95 2.35 1.7 1.533 2.55 3.65 2.55 6.35 0 2-.667 4.1-2 6.3-1.3 2.167-3.85 5.4-7.65 9.7a625.975 625.975 0 0 0-2.05 2.35h11.35V55h-19.35z" fill="url(#mfriv7m1ka)"/>
    <path d="M23.345 50.822c0 1.47-.405 2.66-1.216 3.572-.747.849-1.735 1.273-2.964 1.273-.798 0-1.577-.203-2.337-.608v-2.09c.659.367 1.305.551 1.938.551.697 0 1.235-.228 1.615-.684.393-.443.59-1.064.59-1.862v-6.137l2.374-1.273v7.258zm10.742-9.804 2.394-1.273v8.303c0 1.229-.374 2.21-1.121 2.945-.697.671-1.615 1.007-2.755 1.007h-7.163l1.197-2.299h2.508v-6.213l2.394-1.273v7.486h.931c.583 0 .994-.127 1.235-.38.253-.253.38-.684.38-1.292v-7.011zm10.097 10.431a6.386 6.386 0 0 1-1.216.114c-1.165 0-2.096-.437-2.793-1.311-.57-.735-.855-1.621-.855-2.66 0-1.393.38-2.489 1.14-3.287.672-.71 1.558-1.064 2.66-1.064 1.128 0 2.008.361 2.641 1.083.545.62.817 1.431.817 2.432v4.066c0 1.495-.393 2.673-1.178 3.534-.734.81-1.735 1.216-3.002 1.216-.798 0-1.577-.215-2.337-.646v-2.071c.684.393 1.368.589 2.052.589 1.229 0 1.92-.665 2.071-1.995zm.02-4.731c0-.836-.362-1.254-1.084-1.254-.456 0-.817.184-1.083.551-.253.367-.38.868-.38 1.501 0 1.343.482 2.014 1.444 2.014.507 0 .874-.127 1.102-.38v-2.432zM48.296 52l1.197-2.299h3.002c.646 0 .969-.374.969-1.121 0-1.406-.671-2.483-2.014-3.23l1.178-2.014c2.153 1.267 3.23 3.027 3.23 5.282S54.884 52 52.933 52h-4.636zm19.737-8.227c-.38 0-.684-.114-.912-.342-.228-.228-.342-.538-.342-.931 0-.367.114-.665.342-.893.228-.228.532-.342.912-.342s.678.114.893.342c.228.215.342.513.342.893 0 .849-.412 1.273-1.235 1.273zm5.263 7.011c0 1.52-.526 2.73-1.577 3.629-.937.798-2.134 1.197-3.59 1.197-1.71 0-3.035-.602-3.972-1.805-.735-.937-1.102-2.04-1.102-3.306 0-1 .234-1.875.703-2.622l2.28-.475c-.507.861-.76 1.767-.76 2.717 0 .963.272 1.742.817 2.337.52.57 1.197.855 2.033.855.874 0 1.552-.222 2.033-.665.494-.443.741-1.064.741-1.862v-5.966l2.394-1.254v7.22zm12.45-1.083V52h-2.338c-.088 1.14-.595 2.052-1.52 2.736-.76.557-1.646.836-2.66.836-.798 0-1.577-.215-2.337-.646v-2.071c.684.393 1.368.589 2.052.589.532 0 1-.146 1.406-.437.418-.291.646-.64.684-1.045a8.054 8.054 0 0 0-.475-.038 88.87 88.87 0 0 0-.494-.057c-1.304-.14-2.311-.652-3.02-1.539-.596-.747-.894-1.653-.894-2.717 0-1.393.38-2.495 1.14-3.306.672-.71 1.558-1.064 2.66-1.064 1.128 0 2.008.361 2.641 1.083.545.62.817 1.431.817 2.432v2.945h2.337zm-4.713-2.983c0-.836-.36-1.254-1.083-1.254-.962 0-1.444.69-1.444 2.071 0 1.229.558 1.913 1.672 2.052.178.038.463.07.855.095v-2.964zm10.34 2.983h1.71V52h-1.939c-.924 0-1.69-.247-2.299-.741-.608.494-1.374.741-2.299.741H84.61v-2.299h1.71c.481 0 .823-.101 1.026-.304.203-.215.304-.57.304-1.064v-3.515l2.394-1.254v4.769c0 .494.101.849.304 1.064.203.203.545.304 1.026.304zm-4.922 4.028c.38 0 .678.108.893.323.228.228.342.532.342.912 0 .849-.412 1.273-1.235 1.273-.38 0-.684-.114-.912-.342-.228-.228-.342-.538-.342-.931 0-.823.418-1.235 1.254-1.235zm2.926 0c.38 0 .678.108.893.323.228.228.342.532.342.912 0 .849-.412 1.273-1.235 1.273-.38 0-.684-.114-.912-.342-.228-.228-.342-.538-.342-.931 0-.823.418-1.235 1.254-1.235zm9.096-4.028h1.71V52h-1.938c-.988 0-1.792-.279-2.413-.836-.696.557-1.551.836-2.565.836h-1.33v-2.299h1.197c.583 0 .995-.127 1.235-.38.254-.253.38-.684.38-1.292v-7.011l2.375-1.273v3.838l.02-.019v4.769c0 .494.1.849.303 1.064.203.203.545.304 1.026.304zm3.611-2.945c0-1.14.354-2.033 1.064-2.679.62-.557 1.418-.836 2.394-.836 1.254 0 2.229.462 2.926 1.387.595.773.893 1.767.893 2.983 0 1.406-.374 2.514-1.121 3.325-.672.71-1.527 1.064-2.565 1.064-1.014 0-1.843-.222-2.489-.665-.608.443-1.343.665-2.204.665h-1.938v-2.299h1.71c.481 0 .823-.101 1.026-.304.202-.215.304-.57.304-1.064v-1.577zm2.394 1.881c0 .71.373 1.064 1.121 1.064.937 0 1.406-.722 1.406-2.166 0-1.38-.488-2.071-1.463-2.071-.71 0-1.064.418-1.064 1.254v1.919z" fill="url(#d6b8okk7jb)"/>
    <path d="M30.51 110.44c-1.134.707-2.407 1.06-3.82 1.06-1.52 0-2.747-.507-3.68-1.52-.84-.907-1.26-2.073-1.26-3.5 0-1.533.453-2.753 1.36-3.66.4-.4.86-.713 1.38-.94.52-.227 1.306-.453 2.36-.68 1-.213 1.733-.42 2.2-.62.48-.2.893-.487 1.24-.86-1.094-2.053-2.44-3.08-4.04-3.08-1.067 0-2.187.573-3.36 1.72v-1.6c1.12-1.133 2.313-1.7 3.58-1.7 1.013 0 2 .373 2.96 1.12.96.747 1.806 1.8 2.54 3.16v.88c-.44.667-.974 1.173-1.6 1.52-.627.333-1.6.64-2.92.92-1.56.333-2.6.753-3.12 1.26-.64.613-.96 1.473-.96 2.58 0 1.12.366 1.987 1.1 2.6.613.52 1.4.78 2.36.78 1.466-.013 2.693-.367 3.68-1.06v1.62zm15.357-8.06h1.32V104h-1.52c-1.147 0-2.034-.367-2.66-1.1-.667.733-1.587 1.1-2.76 1.1h-6.88l.84-1.62h2.92v-7.76l1.72-.92v8.68h1.26c1.386 0 2.08-.727 2.08-2.18v-8.18l1.74-.92v9.12c0 .773.147 1.327.44 1.66.306.333.806.5 1.5.5zm6.413-.06c.533-2.013 1.413-3.693 2.64-5.04 1.373-1.48 2.973-2.22 4.8-2.22 1.52 0 2.733.527 3.64 1.58.76.893 1.14 1.993 1.14 3.3v.52c0 1.16-.353 2.06-1.06 2.7-.613.56-1.42.84-2.42.84h-8.28c-1.107 0-1.98-.353-2.62-1.06-.64.707-1.513 1.06-2.62 1.06h-1.52v-1.62h1.32c1.307 0 1.96-.667 1.96-2v-2.8l1.72-.92v3.72c0 1.12.433 1.767 1.3 1.94zm10.5-2.02v-.36c0-1.04-.32-1.867-.96-2.48-.56-.533-1.253-.8-2.08-.8-1.413 0-2.687.653-3.82 1.96-.867 1-1.533 2.253-2 3.76h7c1.24 0 1.86-.693 1.86-2.08zm4.916 3.7V92.02l1.72-.92V104h-1.72zm-1.06 4.98.46-.86h.54c-.133-.24-.2-.493-.2-.76 0-.387.147-.727.44-1.02.294-.28.64-.42 1.04-.42.334 0 .654.107.96.32v.88c-.293-.227-.573-.34-.84-.34-.493 0-.74.22-.74.66 0 .227.094.453.28.68h1.82l-.46.86h-3.3zm15.961-5.62c-.507.2-1.127.3-1.86.3-1.187 0-2.12-.447-2.8-1.34-.573-.76-.86-1.713-.86-2.86 0-1.413.38-2.52 1.14-3.32.68-.72 1.573-1.08 2.68-1.08 1.133 0 2.007.353 2.62 1.06.547.627.82 1.447.82 2.46v4.36c0 1.507-.393 2.7-1.18 3.58-.747.827-1.74 1.24-2.98 1.24a4.941 4.941 0 0 1-2.34-.58v-1.52c.707.373 1.407.56 2.1.56.787 0 1.413-.253 1.88-.76.467-.493.727-1.193.78-2.1zm0-4.7c0-1.333-.567-2-1.7-2-.667 0-1.193.247-1.58.74-.373.493-.56 1.167-.56 2.02 0 .84.18 1.513.54 2.02.373.493.873.74 1.5.74.88 0 1.48-.247 1.8-.74v-2.78zm8.707 6.5v-1.66c.48-.36 1.14-.62 1.98-.78-.6-.907-.9-1.867-.9-2.88 0-1.267.366-2.287 1.1-3.06.666-.72 1.533-1.08 2.6-1.08 1.16 0 2.12.467 2.88 1.4v1.66c-.854-.987-1.787-1.48-2.8-1.48-.627 0-1.127.227-1.5.68-.374.44-.56 1.04-.56 1.8 0 1.093.38 2 1.14 2.72.346-.027.593-.04.74-.04 1.706-.053 3.06-.447 4.06-1.18v1.6c-1.134.76-2.614 1.14-4.44 1.14-1.787 0-3.22.387-4.3 1.16zm11.549-1.16V92.02l1.72-.92V104h-1.72zm11.521-1.62h1.32V104h-1.52c-.68 0-1.267-.133-1.76-.4-.12 1.32-.58 2.373-1.38 3.16-.734.72-1.654 1.08-2.76 1.08-.8 0-1.58-.2-2.34-.6v-1.5c.68.373 1.36.56 2.04.56.853 0 1.52-.287 2-.86s.72-1.367.72-2.38v-6.82l1.72-.92v.02l.02-.02v5.46c.12 1.067.766 1.6 1.94 1.6zm11.122-11.32c-.587 0-.88-.3-.88-.9 0-.587.293-.88.88-.88.586 0 .88.293.88.88 0 .6-.294.9-.88.9zm-1.26 2.38c-.654 0-.98-.333-.98-1 0-.653.326-.98.98-.98.64 0 .96.327.96.98 0 .667-.32 1-.96 1zm2.54 0c-.654 0-.98-.333-.98-1 0-.653.326-.98.98-.98.64 0 .96.327.96.98 0 .667-.32 1-.96 1zM114.496 104v-1.62h1.8c1.293 0 1.94-.667 1.94-2v-2.8l1.72-.92v3.72c0 1.333.653 2 1.96 2h.92c1.306 0 1.96-.667 1.96-2V96.9l1.72-.9v4.38c0 1.333.646 2 1.94 2h.94c1.306 0 1.96-.667 1.96-2v-4.14l1.72-.92v5.12c0 1.133-.34 2.02-1.02 2.66-.6.587-1.4.887-2.4.9h-1.38c-1.174 0-2.047-.393-2.62-1.18-.574.773-1.427 1.167-2.56 1.18h-1.38c-1.147 0-2.02-.393-2.62-1.18-.574.787-1.447 1.18-2.62 1.18h-1.98zm32.213-9.3c-.654 0-.98-.333-.98-1 0-.653.326-.98.98-.98.64 0 .96.327.96.98 0 .667-.32 1-.96 1zm2.54 0c-.654 0-.98-.333-.98-1 0-.653.326-.98.98-.98.64 0 .96.327.96.98 0 .667-.32 1-.96 1zm-4.56 9.3c-1.08 0-1.927-.36-2.54-1.08-.534-.627-.8-1.447-.8-2.46v-2.42l1.72-.92v3.18c0 1.387.646 2.08 1.94 2.08h6.64c1.293 0 1.94-.693 1.94-2.08v-4.06l1.72-.92v5.14c0 1.16-.354 2.06-1.06 2.7-.627.56-1.434.84-2.42.84h-7.14zm17.308 0c-1.16 0-2.054-.373-2.68-1.12-.534-.64-.8-1.453-.8-2.44v-8.42l1.72-.92v9.28c0 1.333.653 2 1.96 2h1.32V104h-1.52zm7.271-1.62h1.32V104h-1.52c-1.106 0-1.98-.353-2.62-1.06-.64.707-1.513 1.06-2.62 1.06h-1.52v-1.62h1.32c1.307 0 1.96-.667 1.96-2v-4.14l1.72-.92v5.06c0 1.333.654 2 1.96 2zm-2.94 3.62c.64 0 .96.327.96.98 0 .667-.32 1-.96 1-.653 0-.98-.333-.98-1 0-.653.327-.98.98-.98zm9.871-3.62h1.32V104h-1.52c-1.147 0-2.034-.367-2.66-1.1-.667.733-1.587 1.1-2.76 1.1h-1.2v-1.62h1.06c1.386 0 2.08-.727 2.08-2.18v-8.18l1.74-.92v9.12c0 .773.146 1.327.44 1.66.306.333.806.5 1.5.5zm5.613-3.96c1.52-2.24 3.407-3.36 5.66-3.36 1.507 0 2.713.527 3.62 1.58.773.893 1.16 1.993 1.16 3.3v.64c0 1.093-.267 1.94-.8 2.54-.533.587-1.293.88-2.28.88h-12.86v-1.62h3.72l.06-.22V92.02l1.72-.92v7.32zm8.7 2.08v-.56c0-1.04-.32-1.867-.96-2.48-.547-.533-1.233-.8-2.06-.8-1.373 0-2.613.62-3.72 1.86-.827.933-1.48 2.1-1.96 3.5v.36h7.22c.573 0 .96-.133 1.16-.4.213-.267.32-.76.32-1.48zM26.175 165v-1.296l2.544-2.832c.768-.853 1.285-1.515 1.552-1.984.277-.48.416-.96.416-1.44 0-.448-.16-.811-.48-1.088-.32-.277-.747-.416-1.28-.416-.64 0-1.317.235-2.032.704l-.624-.896c.95-.725 1.92-1.088 2.912-1.088.928 0 1.68.272 2.256.816.544.501.816 1.157.816 1.968a3.36 3.36 0 0 1-.368 1.52c-.245.48-.672 1.067-1.28 1.76l-2.656 3.04h4.08V165h-5.856zm11.367.192c-1.226 0-2.175-.555-2.848-1.664-.576-.939-.864-2.128-.864-3.568 0-1.611.38-2.917 1.137-3.92.672-.907 1.53-1.36 2.575-1.36 1.184 0 2.134.581 2.849 1.744.586.971.88 2.149.88 3.536 0 1.653-.374 2.965-1.12 3.936-.673.864-1.542 1.296-2.609 1.296zm0-9.232c-.682 0-1.21.341-1.584 1.024-.373.672-.56 1.632-.56 2.88 0 1.301.203 2.32.608 3.056.385.661.891.992 1.52.992.683 0 1.216-.357 1.6-1.072.385-.725.577-1.717.577-2.976 0-1.301-.203-2.293-.609-2.976-.373-.619-.89-.928-1.552-.928zM42.91 165v-1.296l2.544-2.832c.768-.853 1.286-1.515 1.552-1.984.278-.48.416-.96.416-1.44 0-.448-.16-.811-.48-1.088-.32-.277-.746-.416-1.28-.416-.64 0-1.317.235-2.032.704l-.624-.896c.95-.725 1.92-1.088 2.912-1.088.928 0 1.68.272 2.256.816.544.501.816 1.157.816 1.968a3.36 3.36 0 0 1-.368 1.52c-.245.48-.672 1.067-1.28 1.76l-2.656 3.04h4.08V165H42.91zm10.328-4.768h-1.44V159h1.44c1.141 0 1.712-.517 1.712-1.552 0-.48-.15-.853-.448-1.12-.288-.267-.688-.4-1.2-.4-.64 0-1.318.256-2.032.768l-.576-.912c.79-.736 1.728-1.104 2.816-1.104.885 0 1.616.256 2.192.768.544.491.816 1.12.816 1.888 0 .533-.144.992-.432 1.376-.278.384-.662.645-1.152.784 1.322.363 1.984 1.211 1.984 2.544 0 1.109-.41 1.947-1.232 2.512-.608.416-1.328.624-2.16.624-1.067 0-2.059-.384-2.976-1.152l.624-.88c.64.491 1.376.736 2.208.736.597 0 1.072-.171 1.424-.512.362-.341.544-.789.544-1.344 0-1.195-.704-1.792-2.112-1.792zm13.464-2.32c-.523 0-.784-.267-.784-.8 0-.523.261-.784.784-.784.512 0 .768.261.768.784 0 .533-.256.8-.768.8zm4.192 6.224c0 1.227-.427 2.203-1.28 2.928-.758.651-1.728.976-2.912.976-1.387 0-2.464-.491-3.232-1.472-.587-.757-.88-1.653-.88-2.688 0-.896.224-1.664.672-2.304l1.328-.288a4.488 4.488 0 0 0-.72 2.448c0 .896.277 1.632.832 2.208.522.533 1.19.8 2 .8.938 0 1.664-.272 2.176-.816.426-.459.64-1.056.64-1.792v-5.344l1.376-.736v6.08zm5.66.864c-.929 0-1.644-.299-2.145-.896-.427-.512-.64-1.163-.64-1.952v-6.736l1.376-.736v7.424c0 1.067.523 1.6 1.568 1.6h1.056V165h-1.216zm.248 0v-1.296h1.44c1.035 0 1.552-.533 1.552-1.6v-2.24l1.376-.736v2.976c0 1.067.523 1.6 1.568 1.6h.736c1.046 0 1.568-.533 1.568-1.6v-2.784l1.376-.72v3.504c0 1.067.518 1.6 1.552 1.6h.752c1.046 0 1.568-.533 1.568-1.6v-3.312l1.376-.736v3.904c0 1.163.555 1.744 1.664 1.744h1.328V165h-1.44c-.96 0-1.69-.325-2.192-.976-.448.64-1.146.965-2.096.976h-1.104c-.938 0-1.637-.315-2.096-.944-.458.619-1.141.933-2.048.944h-1.104c-.917 0-1.616-.315-2.096-.944-.458.629-1.157.944-2.096.944h-1.584zm22.459-1.296h1.056V165H99.1c-.885 0-1.584-.283-2.096-.848-.512.565-1.21.848-2.096.848h-1.216v-1.296h1.056c1.045 0 1.568-.533 1.568-1.6v-3.312l1.376-.736v4.048c0 1.067.523 1.6 1.568 1.6zm-3.824 2.896c.512 0 .768.267.768.8 0 .523-.256.784-.768.784-.523 0-.784-.261-.784-.784 0-.533.261-.8.784-.8zm2.032 0c.512 0 .768.267.768.8 0 .523-.256.784-.768.784-.523 0-.784-.261-.784-.784 0-.533.261-.8.784-.8zm5.144-10.48c-.523 0-.784-.267-.784-.8 0-.523.261-.784.784-.784.512 0 .768.261.768.784 0 .533-.256.8-.768.8zM99.348 165v-1.296h1.056c1.045 0 1.568-.533 1.568-1.6v-3.312l1.376-.736v4.096c0 .907-.272 1.621-.816 2.144-.501.469-1.157.704-1.968.704h-1.216zm19.84 0c-.107.939-.619 1.691-1.536 2.256-.854.523-1.942.784-3.264.784-1.686 0-2.955-.491-3.808-1.472-.63-.725-.944-1.621-.944-2.688 0-.896.224-1.664.672-2.304l1.328-.288a4.488 4.488 0 0 0-.72 2.448c0 .949.309 1.696.928 2.24.608.544 1.456.816 2.544.816.917 0 1.674-.16 2.272-.48.597-.32.96-.757 1.088-1.312h-1.6l.672-1.296h2.416V165h-.048zm-.793 0v-1.296h.848c1.109 0 1.664-.581 1.664-1.744v-6.544l1.392-.736v7.296c0 .949-.283 1.701-.848 2.256-.533.512-1.232.768-2.096.768h-.96zm6.779 0v-9.584l1.376-.736V165h-1.376zm-.848 3.984.368-.688h.432a1.242 1.242 0 0 1-.16-.608c0-.309.118-.581.352-.816.235-.224.512-.336.832-.336.267 0 .523.085.768.256v.704c-.234-.181-.458-.272-.672-.272-.394 0-.592.176-.592.528 0 .181.075.363.224.544h1.456l-.368.688h-2.64zm8.193-3.984v-1.296l2.544-2.832c.768-.853 1.285-1.515 1.552-1.984.277-.48.416-.96.416-1.44 0-.448-.16-.811-.48-1.088-.32-.277-.747-.416-1.28-.416-.64 0-1.318.235-2.032.704l-.624-.896c.949-.725 1.92-1.088 2.912-1.088.928 0 1.68.272 2.256.816.544.501.816 1.157.816 1.968 0 .523-.123 1.029-.368 1.52-.246.48-.672 1.067-1.28 1.76l-2.656 3.04h4.08V165h-5.856zm11.367.192c-1.226 0-2.176-.555-2.848-1.664-.576-.939-.864-2.128-.864-3.568 0-1.611.379-2.917 1.136-3.92.672-.907 1.531-1.36 2.576-1.36 1.184 0 2.134.581 2.848 1.744.587.971.88 2.149.88 3.536 0 1.653-.373 2.965-1.12 3.936-.672.864-1.541 1.296-2.608 1.296zm0-9.232c-.682 0-1.21.341-1.584 1.024-.373.672-.56 1.632-.56 2.88 0 1.301.203 2.32.608 3.056.384.661.891.992 1.52.992.683 0 1.216-.357 1.6-1.072.384-.725.576-1.717.576-2.976 0-1.301-.202-2.293-.608-2.976-.373-.619-.89-.928-1.552-.928zm5.367 9.04v-1.296l2.544-2.832c.768-.853 1.285-1.515 1.552-1.984.277-.48.416-.96.416-1.44 0-.448-.16-.811-.48-1.088-.32-.277-.747-.416-1.28-.416-.64 0-1.317.235-2.032.704l-.624-.896c.949-.725 1.92-1.088 2.912-1.088.928 0 1.68.272 2.256.816.544.501.816 1.157.816 1.968 0 .523-.123 1.029-.368 1.52-.245.48-.672 1.067-1.28 1.76l-2.656 3.04h4.08V165h-5.856zm11.368.192c-1.227 0-2.176-.555-2.848-1.664-.576-.939-.864-2.128-.864-3.568 0-1.611.378-2.917 1.136-3.92.672-.907 1.53-1.36 2.576-1.36 1.184 0 2.133.581 2.848 1.744.586.971.88 2.149.88 3.536 0 1.653-.374 2.965-1.12 3.936-.672.864-1.542 1.296-2.608 1.296zm0-9.232c-.683 0-1.211.341-1.584 1.024-.374.672-.56 1.632-.56 2.88 0 1.301.202 2.32.608 3.056.384.661.89.992 1.52.992.682 0 1.216-.357 1.6-1.072.384-.725.576-1.717.576-2.976 0-1.301-.203-2.293-.608-2.976-.374-.619-.891-.928-1.552-.928zm13.453 1.824c-.523 0-.784-.267-.784-.8 0-.523.261-.784.784-.784.512 0 .768.261.768.784 0 .533-.256.8-.768.8zm5.84 5.92h1.056V165h-1.216c-.555 0-1.035-.112-1.44-.336-.128 1.088-.603 1.936-1.424 2.544-.736.555-1.648.832-2.736.832-1.387 0-2.464-.491-3.232-1.472-.587-.757-.88-1.653-.88-2.688 0-.896.224-1.664.672-2.304l1.328-.288a4.488 4.488 0 0 0-.72 2.448c0 .896.277 1.632.832 2.208.523.533 1.189.8 2 .8.939 0 1.664-.272 2.176-.816.427-.459.64-1.056.64-1.792v-5.344l1.376-.736v4.048c0 1.067.523 1.6 1.568 1.6zm2.714-3.04c0-.928.278-1.648.832-2.16.491-.437 1.131-.656 1.92-.656 1.014 0 1.792.373 2.336 1.12.47.629.704 1.451.704 2.464 0 1.152-.298 2.053-.896 2.704-.522.576-1.205.864-2.048.864-.96 0-1.69-.267-2.192-.8-.512.533-1.2.8-2.064.8h-1.216v-1.296h1.056c1.046 0 1.568-.533 1.568-1.6v-1.44zm1.376 1.552c0 .992.486 1.488 1.456 1.488.502 0 .891-.203 1.168-.608.288-.405.432-.971.432-1.696 0-.715-.149-1.269-.448-1.664-.298-.405-.709-.608-1.232-.608-.917 0-1.376.533-1.376 1.6v1.488z" fill="#3D4E76"/>
    <defs>
        <linearGradient id="mfriv7m1ka" x1="114.001" y1="66" x2="191" y2="66" gradientUnits="userSpaceOnUse">
            <stop stop-color="#FDBC11"/>
            <stop offset="1" stop-color="#F6931D"/>
        </linearGradient>
        <linearGradient id="d6b8okk7jb" x1="18.001" y1="68" x2="111" y2="68" gradientUnits="userSpaceOnUse">
            <stop stop-color="#FDBC11"/>
            <stop offset="1" stop-color="#F6931D"/>
        </linearGradient>
    </defs>
</svg>
