<svg width="343" height="233" viewBox="0 0 343 233" fill="none" xmlns="http://www.w3.org/2000/svg">
    <g clip-path="url(#ysmtraes0a)">
        <rect y=".969" width="343" height="231.492" rx="7" fill="#fff" stroke="#E9E9E9" stroke-width="1.4"/>
        <mask id="6c5i00dzpb" style="mask-type:luminance" maskUnits="userSpaceOnUse" x="-1" y="0" width="345" height="234">
            <rect y=".969" width="343" height="231.492" rx="7" fill="#fff" stroke="#fff" stroke-width="1.4"/>
        </mask>
        <g mask="url(#6c5i00dzpb)">
            <path d="M198.258 111.687c-.893 0-1.581-.288-2.064-.863-.41-.492-.616-1.119-.616-1.878v-6.484l1.325-.708v7.145c0 1.027.503 1.54 1.509 1.54h1.016v1.248h-1.17zm2.088-4.574c.257-.945.744-1.668 1.463-2.171a3.43 3.43 0 0 1 1.986-.601c1.089 0 1.987.37 2.695 1.109.668.698 1.001 1.596 1.001 2.695v.816c0 .893-.277 1.586-.831 2.079-.483.431-1.109.647-1.879.647h-1.663c-.349 0-.678-.052-.986-.154a3.21 3.21 0 0 1-.985.154h-2.649v-1.248h1.986a2.912 2.912 0 0 1-.585-1.786c0-.606.149-1.119.447-1.54zm5.806 1.725v-.693c0-.852-.272-1.515-.817-1.987-.441-.39-.97-.585-1.586-.585-.708 0-1.263.231-1.663.693h.046c.678 0 1.217.221 1.617.662.411.431.616 1.006.616 1.725 0 .688-.2 1.283-.6 1.786h.97c.503 0 .862-.123 1.078-.369.226-.257.339-.668.339-1.232zm-4.02 1.463c.842-.288 1.263-.863 1.263-1.725 0-.431-.118-.775-.354-1.032-.226-.267-.529-.4-.909-.4s-.688.133-.924.4c-.226.257-.339.601-.339 1.032 0 .862.421 1.437 1.263 1.725zm11.412-7.931-.354.662h-2.541l.354-.662h.416a1.185 1.185 0 0 1-.154-.585c0-.298.113-.555.339-.77.225-.226.492-.339.8-.339.257 0 .503.082.74.246v.678c-.216-.175-.432-.262-.647-.262-.38 0-.57.169-.57.508 0 .175.072.349.216.524h1.401zm.2 8.824c-.39.154-.867.231-1.432.231-.914 0-1.632-.344-2.156-1.032-.441-.585-.662-1.319-.662-2.202 0-1.088.292-1.94.878-2.556.523-.555 1.211-.832 2.063-.832.873 0 1.545.272 2.018.816.421.483.631 1.114.631 1.894v3.358c0 1.16-.303 2.079-.909 2.756-.575.637-1.339.955-2.294.955a3.805 3.805 0 0 1-1.802-.447v-1.17c.544.287 1.083.431 1.617.431.606 0 1.088-.195 1.448-.585.359-.38.559-.919.6-1.617zm0-3.619c0-1.027-.436-1.54-1.309-1.54-.513 0-.919.19-1.216.57-.288.38-.432.898-.432 1.555 0 .647.139 1.165.416 1.556.288.379.673.569 1.155.569.678 0 1.14-.19 1.386-.569v-2.141zm3.957 4.112v-9.225l1.324-.708v9.933h-1.324zm8.871-1.248h1.017v1.248h-1.171c-.523 0-.975-.103-1.355-.308-.092 1.016-.447 1.827-1.063 2.433-.564.554-1.273.832-2.125.832a3.828 3.828 0 0 1-1.802-.462v-1.155c.524.287 1.048.431 1.571.431.657 0 1.171-.221 1.54-.662.37-.442.555-1.053.555-1.833v-5.251l1.324-.709v.016l.015-.016v4.204c.093.822.591 1.232 1.494 1.232zm8.564-8.716c-.452 0-.678-.231-.678-.693 0-.452.226-.678.678-.678.452 0 .678.226.678.678 0 .462-.226.693-.678.693zm-.97 1.833c-.503 0-.755-.257-.755-.77 0-.503.252-.755.755-.755.493 0 .739.252.739.755 0 .513-.246.77-.739.77zm1.956 0c-.503 0-.755-.257-.755-.77 0-.503.252-.755.755-.755.492 0 .739.252.739.755 0 .513-.247.77-.739.77zm-9.456 8.131v-1.248h1.386c.996 0 1.494-.513 1.494-1.54v-2.156l1.324-.708v2.864c0 1.027.503 1.54 1.509 1.54h.709c1.006 0 1.509-.513 1.509-1.54v-2.679l1.324-.693v3.372c0 1.027.498 1.54 1.494 1.54h.724c1.006 0 1.509-.513 1.509-1.54v-3.187l1.325-.709v3.943c0 .872-.262 1.555-.786 2.048-.462.452-1.078.683-1.848.693h-1.062c-.904 0-1.576-.303-2.018-.909-.441.596-1.098.899-1.971.909h-1.063c-.883 0-1.555-.303-2.017-.909-.441.606-1.114.909-2.017.909h-1.525zm28.623-1.248h1.032v1.248h-1.17c-.832 0-1.494-.257-1.987-.77-.482.493-1.165.749-2.048.77h-2.017c-1.007 0-1.51.513-1.51 1.54v2.602l-1.324.709v-3.357c0-.853.246-1.525.739-2.018.442-.452 1.027-.693 1.756-.724-.37-.595-.555-1.324-.555-2.186 0-1.119.293-1.992.878-2.618.524-.555 1.212-.832 2.064-.832.872 0 1.545.272 2.017.816.421.483.632 1.114.632 1.894v1.386c0 1.027.497 1.54 1.493 1.54zm-2.818-1.432v-1.432c0-1.027-.441-1.54-1.324-1.54-.514 0-.914.195-1.201.585-.278.38-.416.914-.416 1.602 0 .698.133 1.242.4 1.632.267.39.642.585 1.124.585.945 0 1.417-.477 1.417-1.432zm4.105-5.867c-.503 0-.754-.257-.754-.77 0-.503.251-.755.754-.755.493 0 .74.252.74.755 0 .513-.247.77-.74.77zm1.956 0c-.503 0-.754-.257-.754-.77 0-.503.251-.755.754-.755.493 0 .739.252.739.755 0 .513-.246.77-.739.77zm-3.141 8.547v-1.248h1.016c1.006 0 1.509-.513 1.509-1.54v-3.187l1.325-.709v3.943c0 .872-.262 1.56-.786 2.063-.482.452-1.114.678-1.894.678h-1.17zm12.489-.816c0 1.149-.303 2.073-.909 2.772-.575.667-1.34 1.001-2.295 1.001a3.821 3.821 0 0 1-1.801-.462v-1.155c.523.287 1.047.431 1.57.431.657 0 1.171-.221 1.54-.662.37-.442.555-1.053.555-1.833v-5.251l1.34-.709v5.868zm5.453.816c-.893 0-1.581-.288-2.064-.863-.41-.492-.616-1.119-.616-1.878v-6.484l1.325-.708v7.145c0 1.027.503 1.54 1.509 1.54h1.016v1.248h-1.17zm5.599-1.248h1.016v1.248h-1.17c-.852 0-1.525-.272-2.017-.816-.493.544-1.166.816-2.018.816h-1.17v-1.248h1.016c1.006 0 1.509-.513 1.509-1.54v-3.187l1.325-.709v3.896c0 1.027.503 1.54 1.509 1.54zm-3.681 2.788c.493 0 .74.256.74.77 0 .503-.247.754-.74.754-.503 0-.754-.251-.754-.754 0-.514.251-.77.754-.77zm1.956 0c.493 0 .739.256.739.77 0 .503-.246.754-.739.754-.503 0-.754-.251-.754-.754 0-.514.251-.77.754-.77zm6.784-10.087c-.503 0-.754-.257-.754-.77 0-.503.251-.755.754-.755.493 0 .739.252.739.755 0 .513-.246.77-.739.77zm3.327 7.299v1.248h-8.301v-1.248h2.664c-.503-.646-.754-1.442-.754-2.387 0-1.047.359-1.878 1.078-2.494a3.126 3.126 0 0 1 2.032-.755c1.089 0 1.936.436 2.541 1.309v1.247c-.657-.883-1.452-1.324-2.387-1.324-.585 0-1.057.19-1.416.57-.349.369-.524.867-.524 1.494 0 .708.21 1.278.631 1.709.432.421 1.001.631 1.71.631h2.726zm7.083-7.453c-.503 0-.754-.257-.754-.77 0-.503.251-.755.754-.755.493 0 .74.252.74.755 0 .513-.247.77-.74.77zm1.956 0c-.503 0-.754-.257-.754-.77 0-.503.251-.755.754-.755.493 0 .739.252.739.755 0 .513-.246.77-.739.77zm2.865 7.453h1.016v1.248h-1.17c-1.058 0-1.818-.39-2.28-1.171-.492.473-1.103.709-1.832.709-.904 0-1.622-.339-2.156-1.017-.442-.575-.662-1.278-.662-2.109 0-.996.303-1.797.908-2.403a2.535 2.535 0 0 1 1.879-.785c.565 0 1.052.144 1.463.431v-.662l1.34-.709v4.928c0 1.027.498 1.54 1.494 1.54zm-2.834-3.665a1.814 1.814 0 0 0-1.401-.631c-.452 0-.822.185-1.109.554-.288.36-.431.832-.431 1.417 0 .595.143 1.073.431 1.432.287.36.662.539 1.124.539.575 0 1.047-.236 1.417-.708a4.066 4.066 0 0 1-.031-.431v-2.172zm10.539 3.665h4.066v1.248h-4.189a4.436 4.436 0 0 1-1.648-.324 4.47 4.47 0 0 1-1.663.324h-4.173v-1.248H303.601c-.739-.605-1.499-1.493-2.279-2.664v-.677a5.802 5.802 0 0 1 1.755-1.679c.688-.411 1.376-.616 2.064-.616.688 0 1.376.21 2.064.631.687.411 1.283.976 1.786 1.694v.647c-.78 1.171-1.545 2.059-2.295 2.664h.231zm-4.373-2.987c.944 1.293 1.812 2.146 2.602 2.556.791-.421 1.658-1.278 2.603-2.572-.77-.934-1.643-1.406-2.618-1.416-.975 0-1.838.477-2.587 1.432zm21.286 2.987h1.017v1.248h-1.171c-.821 0-1.463-.241-1.925-.724-.421.483-1.016.724-1.786.724h-9.902v-1.248h2.864l.046-.169v-7.808l1.325-.708v5.636c1.17-1.725 2.623-2.587 4.358-2.587 1.16 0 2.089.406 2.787 1.217.596.687.893 1.534.893 2.541v.369c0 1.006.498 1.509 1.494 1.509zm-2.833-1.447v-.431c0-.801-.247-1.438-.74-1.91-.42-.411-.949-.616-1.586-.616-1.057 0-2.012.477-2.864 1.432-.637.719-1.14 1.617-1.509 2.695v.277h5.559c.442 0 .739-.102.893-.308.165-.205.247-.585.247-1.139zm6.951-5.744c-.503 0-.755-.257-.755-.77 0-.503.252-.755.755-.755.493 0 .739.252.739.755 0 .513-.246.77-.739.77zm1.956 0c-.503 0-.755-.257-.755-.77 0-.503.252-.755.755-.755.493 0 .739.252.739.755 0 .513-.246.77-.739.77zm-5.975 8.439v-1.248h2.772c-.473-.523-.709-1.252-.709-2.186 0-1.119.293-1.992.878-2.618.513-.555 1.196-.832 2.048-.832.873 0 1.551.272 2.033.816.411.483.616 1.114.616 1.894v1.463c-.01.853-.262 1.525-.755 2.018-.482.462-1.124.693-1.925.693h-4.958zm6.314-4.112c0-1.027-.442-1.54-1.325-1.54-.503 0-.898.195-1.186.585-.287.38-.431.914-.431 1.602 0 .677.139 1.216.416 1.617.277.4.647.6 1.109.6.944 0 1.417-.492 1.417-1.478v-1.386z" fill="#3D4E76"/>
            <path d="M168.273 56.74 130.22 77.88M109.08 79.995 71.027 57.707l12.635-7.31M132.334 132.535l-11.893 6.653-49.414-27.639V77.88M167.216 79.995v27.482M118.593 96.907v25.369M119.65 84.4l18.884 10.393 48.766-26.84-18.882-10.392-12.994-7.163" stroke="#3D4E76" stroke-width="1.517" stroke-linecap="round" stroke-linejoin="round"/>
            <path d="M70.884 56.74 52 67.362l48.766 27.431 18.884-10.622" stroke="#3D4E76" stroke-width="1.517" stroke-linecap="round" stroke-linejoin="round"/>
            <path d="M85.802 65.194a33.734 33.734 0 0 1-2.091-11.724c0-19.21 16.09-34.783 35.939-34.783 19.848 0 35.939 15.573 35.939 34.783 0 4.116-.737 8.063-2.091 11.726" stroke="#3D4E76" stroke-width="1.517" stroke-linecap="round" stroke-linejoin="round"/>
            <path clip-rule="evenodd" d="M128.106 54.626a8.456 8.456 0 1 1-16.912 0 8.457 8.457 0 0 1 8.456-8.456 8.456 8.456 0 0 1 8.456 8.456z" stroke="#3D4E76" stroke-width="1.517" stroke-linecap="round" stroke-linejoin="round"/>
            <path clip-rule="evenodd" d="M138.677 53.569c0 9.924-8.519 17.97-19.028 17.97-10.509 0-19.025-8.046-19.025-17.97s8.516-17.97 19.025-17.97c10.509 0 19.028 8.046 19.028 17.97z" stroke="#3D4E76" stroke-width="1.517" stroke-linecap="round" stroke-linejoin="round"/>
            <path d="m111.194 37.713-6.342-14.798M128.106 37.713l6.342-14.798M154.495 110.672c10.292 0 18.635 8.055 18.635 17.993 0 9.937-8.343 17.992-18.635 17.992-10.292 0-18.636-8.055-18.636-17.992 0-8.585 6.226-15.766 14.556-17.561M166.704 110.672a23.058 23.058 0 0 1 5.141 3.855" stroke="#3D4E76" stroke-width="1.517" stroke-linecap="round" stroke-linejoin="round"/>
            <path d="M151.282 111.957v-3.64c0-.828.626-1.501 1.398-1.501h4.914c.773 0 1.399.673 1.399 1.501v3.64" stroke="#3D4E76" stroke-width="1.517" stroke-linecap="round" stroke-linejoin="round"/>
            <path clip-rule="evenodd" d="M167.989 129.307c0 7.454-6.042 13.495-13.494 13.495-7.454 0-13.495-6.041-13.495-13.495 0-7.453 6.041-13.494 13.495-13.494 7.452 0 13.494 6.041 13.494 13.494z" stroke="#3D4E76" stroke-width="1.517" stroke-linecap="round" stroke-linejoin="round"/>
            <path d="m169.275 111.957-2.571 2.57M142.285 110.672a23.03 23.03 0 0 0-5.14 3.855M139.715 111.957l2.57 2.57M154.495 119.668v2.571M150.07 120.953l1.138 2.571M146.141 124.882l2.57 1.139M144.856 129.307h2.57M146.141 133.732l2.57-1.138M150.07 137.661l1.138-2.571M154.495 138.946v-2.57M160.205 137.661l-1.139-2.57M164.134 133.732l-2.571-1.138M165.419 129.307h-2.57M164.134 124.882l-2.571 1.139M160.278 120.953l-5.141 8.997" stroke="#3D4E76" stroke-width="1.517" stroke-linecap="round" stroke-linejoin="round"/>
            <path fill-rule="evenodd" clip-rule="evenodd" d="m174.616 68.465-5.701-3.269L134.448 85.4l5.324 3.052 34.844-19.986zM66.798 68.465l5.701-3.269L106.966 85.4l-5.324 3.052-34.844-19.986z" fill="#01B8B6"/>
            <path d="M204.7 81.689h-4.74v-3h4.74v-5.34h3.51v5.34h4.77v3h-4.77v5.28h-3.51v-5.28zm21.781-10.56h-6.63v3.84c.24-.1.57-.15.99-.15 2.2 0 3.91.55 5.13 1.65 1.16 1.06 1.74 2.51 1.74 4.35 0 1.94-.72 3.55-2.16 4.83-1.26 1.12-2.79 1.68-4.59 1.68-2.4 0-4.49-.87-6.27-2.61l1.62-2.49c1.46 1.1 2.87 1.65 4.23 1.65 2.1 0 3.15-.94 3.15-2.82 0-2.1-1.35-3.15-4.05-3.15-.94 0-2.17.17-3.69.51v-10.44h10.53v3.15zm14.913 0h-6.63v3.84c.24-.1.57-.15.99-.15 2.2 0 3.91.55 5.13 1.65 1.16 1.06 1.74 2.51 1.74 4.35 0 1.94-.72 3.55-2.16 4.83-1.26 1.12-2.79 1.68-4.59 1.68-2.4 0-4.49-.87-6.27-2.61l1.62-2.49c1.46 1.1 2.87 1.65 4.23 1.65 2.1 0 3.15-.94 3.15-2.82 0-2.1-1.35-3.15-4.05-3.15-.94 0-2.17.17-3.69.51v-10.44h10.53v3.15zm10.772-3.51c2.32 0 4.18 1.11 5.58 3.33 1.18 1.84 1.77 4.03 1.77 6.57 0 3.06-.75 5.51-2.25 7.35-1.32 1.64-3.02 2.46-5.1 2.46-2.38 0-4.24-1.06-5.58-3.18-1.12-1.76-1.68-3.97-1.68-6.63 0-2.96.74-5.39 2.22-7.29 1.34-1.74 3.02-2.61 5.04-2.61zm.06 3.36c-2.16 0-3.24 2.12-3.24 6.36 0 2.14.31 3.82.93 5.04.56 1.1 1.3 1.65 2.22 1.65 1.02 0 1.82-.59 2.4-1.77.6-1.2.9-2.84.9-4.92 0-4.24-1.07-6.36-3.21-6.36zm10.274 19.14-.96-1.77c.88-.34 1.32-.8 1.32-1.38-.96 0-1.44-.57-1.44-1.71 0-.58.19-1.06.57-1.44.4-.38.91-.57 1.53-.57s1.13.25 1.53.75c.4.48.6 1.09.6 1.83 0 1.06-.3 1.99-.9 2.79-.58.8-1.33 1.3-2.25 1.5zm11.843-22.5c2.32 0 4.18 1.11 5.58 3.33 1.18 1.84 1.77 4.03 1.77 6.57 0 3.06-.75 5.51-2.25 7.35-1.32 1.64-3.02 2.46-5.1 2.46-2.38 0-4.24-1.06-5.58-3.18-1.12-1.76-1.68-3.97-1.68-6.63 0-2.96.74-5.39 2.22-7.29 1.34-1.74 3.02-2.61 5.04-2.61zm.06 3.36c-2.16 0-3.24 2.12-3.24 6.36 0 2.14.31 3.82.93 5.04.56 1.1 1.3 1.65 2.22 1.65 1.02 0 1.82-.59 2.4-1.77.6-1.2.9-2.84.9-4.92 0-4.24-1.07-6.36-3.21-6.36zm16.845-3.36c2.32 0 4.18 1.11 5.58 3.33 1.18 1.84 1.77 4.03 1.77 6.57 0 3.06-.75 5.51-2.25 7.35-1.32 1.64-3.02 2.46-5.1 2.46-2.38 0-4.24-1.06-5.58-3.18-1.12-1.76-1.68-3.97-1.68-6.63 0-2.96.74-5.39 2.22-7.29 1.34-1.74 3.02-2.61 5.04-2.61zm.06 3.36c-2.16 0-3.24 2.12-3.24 6.36 0 2.14.31 3.82.93 5.04.56 1.1 1.3 1.65 2.22 1.65 1.02 0 1.82-.59 2.4-1.77.6-1.2.9-2.84.9-4.92 0-4.24-1.07-6.36-3.21-6.36zm16.844-3.36c2.32 0 4.18 1.11 5.58 3.33 1.18 1.84 1.77 4.03 1.77 6.57 0 3.06-.75 5.51-2.25 7.35-1.32 1.64-3.02 2.46-5.1 2.46-2.38 0-4.24-1.06-5.58-3.18-1.12-1.76-1.68-3.97-1.68-6.63 0-2.96.74-5.39 2.22-7.29 1.34-1.74 3.02-2.61 5.04-2.61zm.06 3.36c-2.16 0-3.24 2.12-3.24 6.36 0 2.14.31 3.82.93 5.04.56 1.1 1.3 1.65 2.22 1.65 1.02 0 1.82-.59 2.4-1.77.6-1.2.9-2.84.9-4.92 0-4.24-1.07-6.36-3.21-6.36z" fill="url(#jd4dgu854c)"/>
            <path d="M115.347 207.477v-1.296l2.544-2.832c.768-.854 1.285-1.515 1.552-1.984.277-.48.416-.96.416-1.44 0-.448-.16-.811-.48-1.088-.32-.278-.747-.416-1.28-.416-.64 0-1.317.234-2.032.704l-.624-.896c.949-.726 1.92-1.088 2.912-1.088.928 0 1.68.272 2.256.816.544.501.816 1.157.816 1.968 0 .522-.123 1.029-.368 1.52-.245.48-.672 1.066-1.28 1.76l-2.656 3.04h4.08v1.232h-5.856zm11.367.192c-1.226 0-2.176-.555-2.848-1.664-.576-.939-.864-2.128-.864-3.568 0-1.611.379-2.918 1.136-3.92.672-.907 1.531-1.36 2.576-1.36 1.184 0 2.134.581 2.848 1.744.587.97.88 2.149.88 3.536 0 1.653-.373 2.965-1.12 3.936-.672.864-1.541 1.296-2.608 1.296zm0-9.232c-.682 0-1.21.341-1.584 1.024-.373.672-.56 1.632-.56 2.88 0 1.301.203 2.32.608 3.056.384.661.891.992 1.52.992.683 0 1.216-.358 1.6-1.072.384-.726.576-1.718.576-2.976 0-1.302-.202-2.294-.608-2.976-.373-.619-.89-.928-1.552-.928zm5.367 9.04v-1.296l2.544-2.832c.768-.854 1.286-1.515 1.552-1.984.278-.48.416-.96.416-1.44 0-.448-.16-.811-.48-1.088-.32-.278-.746-.416-1.28-.416-.64 0-1.317.234-2.032.704l-.624-.896c.95-.726 1.92-1.088 2.912-1.088.928 0 1.68.272 2.256.816.544.501.816 1.157.816 1.968 0 .522-.122 1.029-.368 1.52-.245.48-.672 1.066-1.28 1.76l-2.656 3.04h4.08v1.232h-5.856zm7.688 0v-1.296l2.544-2.832c.768-.854 1.285-1.515 1.552-1.984.277-.48.416-.96.416-1.44 0-.448-.16-.811-.48-1.088-.32-.278-.747-.416-1.28-.416-.64 0-1.318.234-2.032.704l-.624-.896c.949-.726 1.92-1.088 2.912-1.088.928 0 1.68.272 2.256.816.544.501.816 1.157.816 1.968 0 .522-.123 1.029-.368 1.52-.246.48-.672 1.066-1.28 1.76l-2.656 3.04h4.08v1.232h-5.856zm21.294 0c-.107.938-.619 1.69-1.536 2.256-.854.522-1.942.784-3.264.784-1.686 0-2.955-.491-3.808-1.472-.63-.726-.944-1.622-.944-2.688 0-.896.224-1.664.672-2.304l1.328-.288a4.488 4.488 0 0 0-.72 2.448c0 .949.309 1.696.928 2.24.608.544 1.456.816 2.544.816.917 0 1.674-.16 2.272-.48.597-.32.96-.758 1.088-1.312h-1.6l.672-1.296h2.416v1.296h-.048zm-.793 0v-1.296h.848c1.109 0 1.664-.582 1.664-1.744v-6.544l1.392-.736v7.296c0 .949-.283 1.701-.848 2.256-.533.512-1.232.768-2.096.768h-.96zm6.779 0v-9.584l1.376-.736v10.32h-1.376zm-.848 3.984.368-.688h.432a1.242 1.242 0 0 1-.16-.608c0-.31.118-.582.352-.816.235-.224.512-.336.832-.336.267 0 .523.085.768.256v.704c-.234-.182-.458-.272-.672-.272-.394 0-.592.176-.592.528 0 .181.075.362.224.544h1.456l-.368.688h-2.64zm8.193-3.984v-1.296l2.544-2.832c.768-.854 1.285-1.515 1.552-1.984.277-.48.416-.96.416-1.44 0-.448-.16-.811-.48-1.088-.32-.278-.747-.416-1.28-.416-.64 0-1.318.234-2.032.704l-.624-.896c.949-.726 1.92-1.088 2.912-1.088.928 0 1.68.272 2.256.816.544.501.816 1.157.816 1.968 0 .522-.123 1.029-.368 1.52-.246.48-.672 1.066-1.28 1.76l-2.656 3.04h4.08v1.232h-5.856zm11.367.192c-1.226 0-2.176-.555-2.848-1.664-.576-.939-.864-2.128-.864-3.568 0-1.611.379-2.918 1.136-3.92.672-.907 1.531-1.36 2.576-1.36 1.184 0 2.134.581 2.848 1.744.587.97.88 2.149.88 3.536 0 1.653-.373 2.965-1.12 3.936-.672.864-1.541 1.296-2.608 1.296zm0-9.232c-.682 0-1.21.341-1.584 1.024-.373.672-.56 1.632-.56 2.88 0 1.301.203 2.32.608 3.056.384.661.891.992 1.52.992.683 0 1.216-.358 1.6-1.072.384-.726.576-1.718.576-2.976 0-1.302-.202-2.294-.608-2.976-.373-.619-.89-.928-1.552-.928zm5.367 9.04v-1.296l2.544-2.832c.768-.854 1.285-1.515 1.552-1.984.277-.48.416-.96.416-1.44 0-.448-.16-.811-.48-1.088-.32-.278-.747-.416-1.28-.416-.64 0-1.317.234-2.032.704l-.624-.896c.949-.726 1.92-1.088 2.912-1.088.928 0 1.68.272 2.256.816.544.501.816 1.157.816 1.968 0 .522-.123 1.029-.368 1.52-.245.48-.672 1.066-1.28 1.76l-2.656 3.04h4.08v1.232h-5.856zm11.448-10.128v10.128h-1.488v-8.496l-1.872 1.088-.72-1.104 2.592-1.616h1.488zm10.326 2.912c-.523 0-.784-.267-.784-.8 0-.523.261-.784.784-.784.512 0 .768.261.768.784 0 .533-.256.8-.768.8zm5.84 5.92h1.056v1.296h-1.216c-.555 0-1.035-.112-1.44-.336-.128 1.088-.603 1.936-1.424 2.544-.736.554-1.648.832-2.736.832-1.387 0-2.464-.491-3.232-1.472-.587-.758-.88-1.654-.88-2.688 0-.896.224-1.664.672-2.304l1.328-.288a4.488 4.488 0 0 0-.72 2.448c0 .896.277 1.632.832 2.208.523.533 1.189.8 2 .8.939 0 1.664-.272 2.176-.816.427-.459.64-1.056.64-1.792v-5.344l1.376-.736v4.048c0 1.066.523 1.6 1.568 1.6zm2.715-3.04c0-.928.277-1.648.832-2.16.49-.438 1.13-.656 1.92-.656 1.013 0 1.792.373 2.336 1.12.469.629.704 1.45.704 2.464 0 1.152-.299 2.053-.896 2.704-.523.576-1.206.864-2.048.864-.96 0-1.691-.267-2.192-.8-.512.533-1.2.8-2.064.8h-1.217v-1.296h1.057c1.045 0 1.568-.534 1.568-1.6v-1.44zm1.376 1.552c0 .992.485 1.488 1.456 1.488.501 0 .89-.203 1.168-.608.288-.406.432-.971.432-1.696 0-.715-.15-1.27-.448-1.664-.299-.406-.71-.608-1.232-.608-.918 0-1.376.533-1.376 1.6v1.488z" fill="#3D4E76"/>
            <path d="M646.574-139.249a150.447 150.447 0 0 1 60.649-12.717c86.175 0 156.037 72.472 156.037 161.867 0 89.398-69.862 161.867-156.037 161.867-57.753 0-108.064-32.636-135.046-81.019-41.362 49.542-102.308 81.019-170.447 81.019-47.464 0-91.45-15.273-127.787-41.243-30.912 25.753-70.112 41.243-112.855 41.243-99.67 0-180.476-83.819-180.476-187.215 0-103.405 80.807-187.223 180.476-187.223 18.904 0 37.122 3.043 54.243 8.631 40.621-61.706 108.935-102.242 186.399-102.242 48.848 0 94.022 16.13 130.898 43.529" stroke="url(#ayvdrzpjdd)" stroke-width="1.935" stroke-linecap="round" stroke-linejoin="round"/>
        </g>
    </g>
    <defs>
        <linearGradient id="jd4dgu854c" x1="199.001" y1="92.969" x2="317" y2="92.969" gradientUnits="userSpaceOnUse">
            <stop stop-color="#FDBC11"/>
            <stop offset="1" stop-color="#F6931D"/>
        </linearGradient>
        <linearGradient id="ayvdrzpjdd" x1="843.099" y1="-94.625" x2="34.727" y2="-156.559" gradientUnits="userSpaceOnUse">
            <stop stop-color="#1C6FC4"/>
            <stop offset="1" stop-color="#01B8B6"/>
        </linearGradient>
        <clipPath id="ysmtraes0a">
            <path fill="#fff" transform="translate(0 .969)" d="M0 0h343v231.492H0z"/>
        </clipPath>
    </defs>
</svg>
