<svg width="190" height="340" viewBox="0 0 190 340" fill="none" xmlns="http://www.w3.org/2000/svg">
    <rect x=".5" y=".5" width="189" height="339" rx="3.5" fill="#fff" stroke="#EDEDED"/>
    <path d="m132.471 242.036-29.609 16.45M86.413 260.13l-29.609-17.341 9.832-5.688M104.507 301.011l-9.254 5.177-38.449-21.505v-26.197M131.649 260.13v21.384M93.815 273.29v19.739M94.638 263.558l14.693 8.087 37.944-20.884-14.691-8.086-10.111-5.574" stroke="#3D4E76" stroke-width="1.18" stroke-linecap="round" stroke-linejoin="round"/>
    <path d="M56.693 242.036 42 250.301l37.945 21.344 14.693-8.265" stroke="#3D4E76" stroke-width="1.18" stroke-linecap="round" stroke-linejoin="round"/>
    <path d="M68.301 248.614a26.248 26.248 0 0 1-1.627-9.122c0-14.947 12.52-27.064 27.964-27.064 15.444 0 27.963 12.117 27.963 27.064 0 3.203-.573 6.273-1.627 9.124" stroke="#3D4E76" stroke-width="1.18" stroke-linecap="round" stroke-linejoin="round"/>
    <path clip-rule="evenodd" d="M101.217 240.391a6.58 6.58 0 1 1-13.159.001 6.58 6.58 0 0 1 13.159-.001z" stroke="#3D4E76" stroke-width="1.18" stroke-linecap="round" stroke-linejoin="round"/>
    <path clip-rule="evenodd" d="M109.442 239.569c0 7.722-6.629 13.982-14.805 13.982-8.177 0-14.804-6.26-14.804-13.982 0-7.722 6.627-13.982 14.804-13.982 8.176 0 14.805 6.26 14.805 13.982z" stroke="#3D4E76" stroke-width="1.18" stroke-linecap="round" stroke-linejoin="round"/>
    <path d="m88.058 227.232-4.935-11.515M101.217 227.232l4.935-11.515M121.75 284c8.008 0 14.5 6.268 14.5 14s-6.492 14-14.5 14-14.5-6.268-14.5-14c0-6.68 4.844-12.267 11.326-13.664M131.25 284a17.953 17.953 0 0 1 4 3" stroke="#3D4E76" stroke-width="1.18" stroke-linecap="round" stroke-linejoin="round"/>
    <path d="M119.25 285v-2.832c0-.645.487-1.168 1.088-1.168h3.823c.602 0 1.089.523 1.089 1.168V285" stroke="#3D4E76" stroke-width="1.18" stroke-linecap="round" stroke-linejoin="round"/>
    <path clip-rule="evenodd" d="M132.25 298.5c0 5.8-4.702 10.5-10.5 10.5-5.8 0-10.5-4.7-10.5-10.5s4.7-10.5 10.5-10.5c5.798 0 10.5 4.7 10.5 10.5z" stroke="#3D4E76" stroke-width="1.18" stroke-linecap="round" stroke-linejoin="round"/>
    <path d="m133.25 285-2 2M112.25 284a17.953 17.953 0 0 0-4 3M110.25 285l2 2M121.75 291v2M118.307 292l.886 2M115.25 295.057l2 .886M114.25 298.5h2M115.25 301.943l2-.886M118.307 305l.886-2M121.75 306v-2M126.193 305l-.886-2M129.25 301.943l-2-.886M130.25 298.5h-2M129.25 295.057l-2 .886M126.25 292l-4 7" stroke="#3D4E76" stroke-width="1.18" stroke-linecap="round" stroke-linejoin="round"/>
    <path fill-rule="evenodd" clip-rule="evenodd" d="m137.406 251.159-4.436-2.543-26.818 15.719 4.143 2.375 27.111-15.551zM53.514 251.159l4.436-2.543 26.818 15.719-4.142 2.375-27.112-15.551z" fill="#01B8B6"/>
    <path d="M45.914 38.072H41.49v-2.8h4.424v-4.984h3.276v4.984h4.452v2.8H49.19V43h-3.276v-4.928zm20.33-9.856h-6.189V31.8c.224-.093.532-.14.924-.14 2.053 0 3.65.513 4.788 1.54 1.083.99 1.624 2.343 1.624 4.06 0 1.81-.672 3.313-2.016 4.508-1.176 1.045-2.604 1.568-4.284 1.568-2.24 0-4.19-.812-5.852-2.436l1.512-2.324c1.363 1.027 2.679 1.54 3.948 1.54 1.96 0 2.94-.877 2.94-2.632 0-1.96-1.26-2.94-3.78-2.94-.877 0-2.025.159-3.444.476v-9.744h9.828v2.94zm13.917 0h-6.188V31.8c.224-.093.532-.14.924-.14 2.053 0 3.65.513 4.788 1.54 1.083.99 1.624 2.343 1.624 4.06 0 1.81-.672 3.313-2.016 4.508-1.176 1.045-2.604 1.568-4.284 1.568-2.24 0-4.19-.812-5.852-2.436l1.512-2.324c1.363 1.027 2.679 1.54 3.948 1.54 1.96 0 2.94-.877 2.94-2.632 0-1.96-1.26-2.94-3.78-2.94-.877 0-2.025.159-3.444.476v-9.744h9.828v2.94zm10.054-3.276c2.165 0 3.901 1.036 5.208 3.108 1.101 1.717 1.652 3.761 1.652 6.132 0 2.856-.7 5.143-2.1 6.86-1.232 1.53-2.819 2.296-4.76 2.296-2.221 0-3.957-.99-5.208-2.968-1.045-1.643-1.568-3.705-1.568-6.188 0-2.763.69-5.03 2.072-6.804 1.25-1.624 2.819-2.436 4.704-2.436zm.056 3.136c-2.016 0-3.024 1.979-3.024 5.936 0 1.997.29 3.565.868 4.704.523 1.027 1.213 1.54 2.072 1.54.952 0 1.699-.55 2.24-1.652.56-1.12.84-2.65.84-4.592 0-3.957-.999-5.936-2.996-5.936zm9.59 17.864-.897-1.652c.822-.317 1.232-.747 1.232-1.288-.896 0-1.344-.532-1.344-1.596 0-.541.178-.99.532-1.344.374-.355.85-.532 1.428-.532.579 0 1.055.233 1.428.7.374.448.56 1.017.56 1.708 0 .99-.28 1.857-.84 2.604-.541.747-1.241 1.213-2.1 1.4zm11.053-21c2.166 0 3.902 1.036 5.208 3.108 1.102 1.717 1.652 3.761 1.652 6.132 0 2.856-.7 5.143-2.1 6.86-1.232 1.53-2.818 2.296-4.76 2.296-2.221 0-3.957-.99-5.208-2.968-1.045-1.643-1.568-3.705-1.568-6.188 0-2.763.691-5.03 2.072-6.804 1.251-1.624 2.819-2.436 4.704-2.436zm.056 3.136c-2.016 0-3.024 1.979-3.024 5.936 0 1.997.29 3.565.868 4.704.523 1.027 1.214 1.54 2.072 1.54.952 0 1.699-.55 2.24-1.652.56-1.12.84-2.65.84-4.592 0-3.957-.998-5.936-2.996-5.936zm15.722-3.136c2.165 0 3.901 1.036 5.208 3.108 1.101 1.717 1.652 3.761 1.652 6.132 0 2.856-.7 5.143-2.1 6.86-1.232 1.53-2.819 2.296-4.76 2.296-2.222 0-3.958-.99-5.208-2.968-1.046-1.643-1.568-3.705-1.568-6.188 0-2.763.69-5.03 2.072-6.804 1.25-1.624 2.818-2.436 4.704-2.436zm.056 3.136c-2.016 0-3.024 1.979-3.024 5.936 0 1.997.289 3.565.868 4.704.522 1.027 1.213 1.54 2.072 1.54.952 0 1.698-.55 2.24-1.652.56-1.12.84-2.65.84-4.592 0-3.957-.999-5.936-2.996-5.936zm15.721-3.136c2.165 0 3.901 1.036 5.208 3.108 1.101 1.717 1.652 3.761 1.652 6.132 0 2.856-.7 5.143-2.1 6.86-1.232 1.53-2.819 2.296-4.76 2.296-2.221 0-3.957-.99-5.208-2.968-1.045-1.643-1.568-3.705-1.568-6.188 0-2.763.691-5.03 2.072-6.804 1.251-1.624 2.819-2.436 4.704-2.436zm.056 3.136c-2.016 0-3.024 1.979-3.024 5.936 0 1.997.289 3.565.868 4.704.523 1.027 1.213 1.54 2.072 1.54.952 0 1.699-.55 2.24-1.652.56-1.12.84-2.65.84-4.592 0-3.957-.999-5.936-2.996-5.936z" fill="url(#14whl89kva)"/>
    <path d="M38.723 150.24v-1.05h1.005v-.96c0-1.27.58-1.905 1.74-1.905.64 0 1.235.205 1.785.615l-.45.69c-.34-.2-.685-.3-1.035-.3-.5 0-.75.33-.75.99v.87h1.815v1.05h-1.815V156h-1.29v-5.76h-1.005zm7.16-.375h.06c.47-.57 1.02-.855 1.65-.855.8 0 1.39.31 1.77.93l-1.08.675c-.33-.33-.69-.495-1.08-.495-.5 0-.92.255-1.26.765V156h-1.29v-6.81h1.11l.12.675zm7.378 6.315c-1.03 0-1.865-.385-2.505-1.155-.55-.66-.825-1.465-.825-2.415 0-1.1.335-1.99 1.005-2.67.6-.62 1.37-.93 2.31-.93 1.08 0 1.93.395 2.55 1.185.51.66.765 1.465.765 2.415 0 1.09-.35 1.98-1.05 2.67-.62.6-1.37.9-2.25.9zm-.03-1.02c.6 0 1.075-.23 1.425-.69.36-.46.54-1.08.54-1.86 0-.81-.19-1.455-.57-1.935-.35-.45-.81-.675-1.38-.675-.58 0-1.05.24-1.41.72-.36.48-.54 1.11-.54 1.89 0 .84.2 1.49.6 1.95.35.4.795.6 1.335.6zm6.421-5.295h.075c.51-.57 1.215-.855 2.115-.855 1.13 0 1.865.405 2.205 1.215.58-.81 1.405-1.215 2.475-1.215 1.64 0 2.46.97 2.46 2.91V156h-1.29v-3.795c0-.75-.135-1.285-.405-1.605-.26-.32-.7-.48-1.32-.48-.62 0-1.185.275-1.695.825.06.28.09.605.09.975V156h-1.29v-3.9c0-.69-.14-1.19-.42-1.5-.27-.32-.71-.48-1.32-.48-.29 0-.59.075-.9.225-.31.15-.54.33-.69.54V156h-1.29v-6.81h1.08l.12.675zM74.322 156v-1.215l2.384-2.655c.72-.8 1.205-1.42 1.455-1.86.26-.45.39-.9.39-1.35 0-.42-.15-.76-.45-1.02-.3-.26-.7-.39-1.2-.39-.6 0-1.235.22-1.905.66l-.585-.84c.89-.68 1.8-1.02 2.73-1.02.87 0 1.575.255 2.115.765.51.47.765 1.085.765 1.845 0 .49-.115.965-.345 1.425-.23.45-.63 1-1.2 1.65l-2.49 2.85h3.825V156h-5.49zm10.656.18c-1.15 0-2.04-.52-2.67-1.56-.54-.88-.81-1.995-.81-3.345 0-1.51.355-2.735 1.065-3.675.63-.85 1.435-1.275 2.415-1.275 1.11 0 2 .545 2.67 1.635.55.91.825 2.015.825 3.315 0 1.55-.35 2.78-1.05 3.69-.63.81-1.445 1.215-2.445 1.215zm0-8.655c-.64 0-1.135.32-1.485.96-.35.63-.525 1.53-.525 2.7 0 1.22.19 2.175.57 2.865.36.62.835.93 1.425.93.64 0 1.14-.335 1.5-1.005.36-.68.54-1.61.54-2.79 0-1.22-.19-2.15-.57-2.79-.35-.58-.835-.87-1.455-.87zM90.01 156v-1.215l2.385-2.655c.72-.8 1.205-1.42 1.455-1.86.26-.45.39-.9.39-1.35 0-.42-.15-.76-.45-1.02-.3-.26-.7-.39-1.2-.39-.6 0-1.235.22-1.905.66l-.585-.84c.89-.68 1.8-1.02 2.73-1.02.87 0 1.575.255 2.115.765.51.47.765 1.085.765 1.845 0 .49-.115.965-.345 1.425-.23.45-.63 1-1.2 1.65l-2.49 2.85H95.5V156h-5.49zm10.732-9.495V156h-1.395v-7.965l-1.755 1.02-.675-1.035 2.43-1.515h1.395zm7.791 3.735-.015 3.96c0 .66.25.99.75.99.35 0 .695-.1 1.035-.3l.45.69c-.55.41-1.145.615-1.785.615-1.16 0-1.74-.635-1.74-1.905v-4.05h-1.005v-1.05h1.02v-1.395l1.29-.675v2.07h2.04v1.05h-2.04zm6.749 5.94c-1.03 0-1.865-.385-2.505-1.155-.55-.66-.825-1.465-.825-2.415 0-1.1.335-1.99 1.005-2.67.6-.62 1.37-.93 2.31-.93 1.08 0 1.93.395 2.55 1.185.51.66.765 1.465.765 2.415 0 1.09-.35 1.98-1.05 2.67-.62.6-1.37.9-2.25.9zm-.03-1.02c.6 0 1.075-.23 1.425-.69.36-.46.54-1.08.54-1.86 0-.81-.19-1.455-.57-1.935-.35-.45-.81-.675-1.38-.675-.58 0-1.05.24-1.41.72-.36.48-.54 1.11-.54 1.89 0 .84.2 1.49.6 1.95.35.4.795.6 1.335.6zm8.303.84v-1.215l2.385-2.655c.72-.8 1.205-1.42 1.455-1.86.26-.45.39-.9.39-1.35 0-.42-.15-.76-.45-1.02-.3-.26-.7-.39-1.2-.39-.6 0-1.235.22-1.905.66l-.585-.84c.89-.68 1.8-1.02 2.73-1.02.87 0 1.575.255 2.115.765.51.47.765 1.085.765 1.845 0 .49-.115.965-.345 1.425-.23.45-.63 1-1.2 1.65l-2.49 2.85h3.825V156h-5.49zm10.657.18c-1.15 0-2.04-.52-2.67-1.56-.54-.88-.81-1.995-.81-3.345 0-1.51.355-2.735 1.065-3.675.63-.85 1.435-1.275 2.415-1.275 1.11 0 2 .545 2.67 1.635.55.91.825 2.015.825 3.315 0 1.55-.35 2.78-1.05 3.69-.63.81-1.445 1.215-2.445 1.215zm0-8.655c-.64 0-1.135.32-1.485.96-.35.63-.525 1.53-.525 2.7 0 1.22.19 2.175.57 2.865.36.62.835.93 1.425.93.64 0 1.14-.335 1.5-1.005.36-.68.54-1.61.54-2.79 0-1.22-.19-2.15-.57-2.79-.35-.58-.835-.87-1.455-.87zm5.031 8.475v-1.215l2.385-2.655c.72-.8 1.205-1.42 1.455-1.86.26-.45.39-.9.39-1.35 0-.42-.15-.76-.45-1.02-.3-.26-.7-.39-1.2-.39-.6 0-1.235.22-1.905.66l-.585-.84c.89-.68 1.8-1.02 2.73-1.02.87 0 1.575.255 2.115.765.51.47.765 1.085.765 1.845 0 .49-.115.965-.345 1.425-.23.45-.63 1-1.2 1.65l-2.49 2.85h3.825V156h-5.49zm7.207 0v-1.215l2.385-2.655c.72-.8 1.205-1.42 1.455-1.86.26-.45.39-.9.39-1.35 0-.42-.15-.76-.45-1.02-.3-.26-.7-.39-1.2-.39-.6 0-1.235.22-1.905.66l-.585-.84c.89-.68 1.8-1.02 2.73-1.02.87 0 1.575.255 2.115.765.51.47.765 1.085.765 1.845 0 .49-.115.965-.345 1.425-.23.45-.63 1-1.2 1.65l-2.49 2.85h3.825V156h-5.49zM23.666 103V91.624c.168-.036.642-.084 1.422-.144.78-.06 1.374-.09 1.782-.09 2.904 0 4.356 1.188 4.356 3.564 0 1.476-.504 2.556-1.512 3.24-.672.468-1.464.702-2.376.702-.72 0-1.158-.048-1.314-.144V103h-2.358zm2.358-9.594v3.438c.312.12.702.18 1.17.18.48 0 .858-.168 1.134-.504.276-.348.414-.822.414-1.422 0-1.212-.534-1.818-1.602-1.818-.612 0-.984.042-1.116.126zm16.146 4.806c0 3.336-1.464 5.004-4.392 5.004-2.928 0-4.392-1.668-4.392-5.004v-6.606h2.376v6.93c0 1.8.672 2.7 2.016 2.7 1.368 0 2.052-.9 2.052-2.7v-6.93h2.34v6.606zM45.058 103V91.624c.168-.036.642-.084 1.422-.144.78-.06 1.374-.09 1.782-.09 2.904 0 4.356 1.188 4.356 3.564 0 1.284-.522 2.376-1.566 3.276.432.996 1.17 2.586 2.214 4.77H50.89c-.588-1.284-1.224-2.664-1.908-4.14a3.17 3.17 0 0 1-.54.036c-.528 0-.87-.048-1.026-.144V103h-2.358zm2.358-9.594v3.438c.36.108.75.162 1.17.162 1.032 0 1.548-.684 1.548-2.052 0-1.116-.534-1.674-1.602-1.674-.612 0-.984.042-1.116.126zm15.235 8.316c-.996.996-2.166 1.494-3.51 1.494-1.932 0-3.372-.72-4.32-2.16-.684-1.032-1.026-2.244-1.026-3.636 0-1.812.468-3.27 1.404-4.374.924-1.104 2.208-1.656 3.852-1.656 1.152 0 2.304.486 3.456 1.458l-.918 1.494c-.864-.624-1.65-.936-2.358-.936-.984 0-1.746.414-2.286 1.242-.468.708-.702 1.632-.702 2.772 0 1.008.276 1.872.828 2.592.588.756 1.374 1.134 2.358 1.134.648 0 1.416-.282 2.304-.846l.918 1.422zM67.138 103h-2.322V91.606h2.322v4.572h4.896v-4.572h2.358V103h-2.358v-4.932h-4.896V103zm12.985-11.394h1.98L86.297 103h-2.394c-.204-.6-.456-1.392-.756-2.376H79.06c-.168.54-.426 1.332-.774 2.376h-2.358l4.194-11.394zm1.008 3.078c-.336.948-.798 2.28-1.386 3.996h2.736a679.004 679.004 0 0 1-1.35-3.996zm13.75-2.142c-.215.324-.551.81-1.007 1.458-.96-.42-1.818-.63-2.574-.63-.996 0-1.494.372-1.494 1.116 0 .336.114.6.342.792.228.192.702.426 1.422.702 1.296.504 2.226 1.05 2.79 1.638.576.588.864 1.296.864 2.124 0 1.164-.438 2.064-1.314 2.7-.72.516-1.614.774-2.682.774-1.26 0-2.604-.456-4.032-1.368l1.044-1.458c.696.468 1.59.702 2.682.702 1.236 0 1.854-.498 1.854-1.494 0-.648-.666-1.2-1.998-1.656-2.148-.72-3.222-1.872-3.222-3.456 0-.96.36-1.722 1.08-2.286.672-.54 1.566-.81 2.682-.81 1.272 0 2.46.384 3.564 1.152zm2.307-.936h7.452v1.89h-5.094v2.682h4.248v1.89h-4.248v3.042h5.328V103h-7.686V91.606zm9.394.018c.588-.156 1.626-.234 3.114-.234 2.052 0 3.618.6 4.698 1.8.924 1.02 1.386 2.352 1.386 3.996 0 2.052-.588 3.594-1.764 4.626-1.068.936-2.556 1.404-4.464 1.404-1.2 0-2.19-.078-2.97-.234V91.624zm2.358 9.648c.24.06.54.09.9.09 2.316 0 3.474-1.368 3.474-4.104 0-1.356-.384-2.394-1.152-3.114-.624-.576-1.416-.864-2.376-.864-.276 0-.558.03-.846.09v7.902zM122.261 103V91.624c.168-.036.642-.084 1.422-.144.78-.06 1.374-.09 1.782-.09 2.904 0 4.356 1.188 4.356 3.564 0 1.476-.504 2.556-1.512 3.24-.672.468-1.464.702-2.376.702-.72 0-1.158-.048-1.314-.144V103h-2.358zm2.358-9.594v3.438c.312.12.702.18 1.17.18.48 0 .858-.168 1.134-.504.276-.348.414-.822.414-1.422 0-1.212-.534-1.818-1.602-1.818-.612 0-.984.042-1.116.126zm9.029-1.8h1.98L139.822 103h-2.394c-.204-.6-.456-1.392-.756-2.376h-4.086c-.168.54-.426 1.332-.774 2.376h-2.358l4.194-11.394zm1.008 3.078c-.336.948-.798 2.28-1.386 3.996h2.736a679.004 679.004 0 0 1-1.35-3.996zm6.695 8.316V91.624c.168-.036.642-.084 1.422-.144.78-.06 1.374-.09 1.782-.09 2.904 0 4.356 1.188 4.356 3.564 0 1.284-.522 2.376-1.566 3.276.432.996 1.17 2.586 2.214 4.77h-2.376c-.588-1.284-1.224-2.664-1.908-4.14a3.17 3.17 0 0 1-.54.036c-.528 0-.87-.048-1.026-.144V103h-2.358zm2.358-9.594v3.438c.36.108.75.162 1.17.162 1.032 0 1.548-.684 1.548-2.052 0-1.116-.534-1.674-1.602-1.674-.612 0-.984.042-1.116.126zm9.223.09h-3.294v-1.89h9.216v1.89h-3.546V103h-2.376v-9.504zm14.688-.954c-.216.324-.552.81-1.008 1.458-.96-.42-1.818-.63-2.574-.63-.996 0-1.494.372-1.494 1.116 0 .336.114.6.342.792.228.192.702.426 1.422.702 1.296.504 2.226 1.05 2.79 1.638.576.588.864 1.296.864 2.124 0 1.164-.438 2.064-1.314 2.7-.72.516-1.614.774-2.682.774-1.26 0-2.604-.456-4.032-1.368l1.044-1.458c.696.468 1.59.702 2.682.702 1.236 0 1.854-.498 1.854-1.494 0-.648-.666-1.2-1.998-1.656-2.148-.72-3.222-1.872-3.222-3.456 0-.96.36-1.722 1.08-2.286.672-.54 1.566-.81 2.682-.81 1.272 0 2.46.384 3.564 1.152z" fill="#3D4E76"/>
    <defs>
        <linearGradient id="14whl89kva" x1="38.001" y1="76" x2="153" y2="76" gradientUnits="userSpaceOnUse">
            <stop stop-color="#FDBC11"/>
            <stop offset="1" stop-color="#F6931D"/>
        </linearGradient>
    </defs>
</svg>
