<svg width="343" height="233" viewBox="0 0 343 233" fill="none" xmlns="http://www.w3.org/2000/svg">
    <g clip-path="url(#eqlkyzogba)">
        <rect y=".969" width="343" height="231.492" rx="7" fill="#fff" stroke="#E9E9E9" stroke-width="1.4"/>
        <mask id="jlyxgk92bb" style="mask-type:luminance" maskUnits="userSpaceOnUse" x="-1" y="0" width="345" height="234">
            <rect y=".969" width="343" height="231.492" rx="7" fill="#fff" stroke="#fff" stroke-width="1.4"/>
        </mask>
        <g mask="url(#jlyxgk92bb)">
            <path d="M199.838 112.687v-10.112a17.795 17.795 0 0 1 2.592-.208c2.454 0 3.68 1.034 3.68 3.104 0 1.12-.373 1.968-1.12 2.544-.608.469-1.386.704-2.336.704-.458 0-.901-.038-1.328-.112v4.08h-1.488zm1.488-9.024v3.744c.427.074.87.112 1.328.112 1.259 0 1.888-.683 1.888-2.048 0-1.28-.677-1.92-2.032-1.92-.49 0-.885.037-1.184.112zm14.452 4.784c0 2.954-1.237 4.432-3.712 4.432s-3.712-1.478-3.712-4.432v-5.888h1.504v6.224c0 1.877.736 2.816 2.208 2.816 1.472 0 2.208-.939 2.208-2.816v-6.224h1.504v5.888zm2.873 4.24v-10.112a17.795 17.795 0 0 1 2.592-.208c2.453 0 3.68 1.034 3.68 3.104 0 1.344-.555 2.293-1.664 2.848l2.016 4.368h-1.504l-1.824-4a4.358 4.358 0 0 1-.608.032c-.373 0-.773-.038-1.2-.112v4.08h-1.488zm1.488-9.024v3.744c.427.074.827.112 1.2.112 1.344 0 2.016-.683 2.016-2.048 0-1.28-.677-1.92-2.032-1.92-.491 0-.885.037-1.184.112zm13.829 8.048c-.896.778-1.872 1.168-2.928 1.168-1.536 0-2.726-.592-3.568-1.776-.662-.939-.992-2.064-.992-3.376 0-1.494.41-2.768 1.232-3.824.81-1.024 1.84-1.536 3.088-1.536 1.109 0 2.122.368 3.04 1.104l-.592.896c-.726-.48-1.446-.72-2.16-.72-.971 0-1.734.4-2.288 1.2-.502.725-.752 1.685-.752 2.88 0 1.184.314 2.133.944 2.848.576.661 1.322.992 2.24.992.693 0 1.408-.251 2.144-.752l.592.896zm3.717.976h-1.472v-10.128h1.472v4.256h4.88v-4.256h1.488v10.128h-1.488v-4.64h-4.88v4.64zm11.711-10.128h1.408l3.664 10.128h-1.52l-.768-2.288h-4.144l-.784 2.288h-1.52l3.664-10.128zm.704 1.792-1.648 4.816h3.296l-1.648-4.816zm11.043-.176c-.725-.363-1.456-.544-2.192-.544-.523 0-.949.122-1.28.368-.331.234-.496.538-.496.912 0 .672.443 1.173 1.328 1.504 1.323.49 2.261 1.008 2.816 1.552.555.533.832 1.194.832 1.984 0 .96-.368 1.712-1.104 2.256-.597.448-1.339.672-2.224.672-1.056 0-2.155-.363-3.296-1.088l.64-.912c.715.437 1.547.656 2.496.656 1.301 0 1.952-.55 1.952-1.648 0-.854-.549-1.467-1.648-1.84-1.152-.395-1.989-.832-2.512-1.312-.512-.48-.768-1.062-.768-1.744 0-.811.315-1.462.944-1.952.576-.448 1.333-.672 2.272-.672 1.056 0 2.016.298 2.88.896l-.64.912zm3.349-1.616h6.176v1.232h-4.688v3.024h3.936v1.232h-3.936v3.408h4.896v1.232h-6.384v-10.128zm8.55.016c.8-.139 1.648-.208 2.544-.208 1.76 0 3.109.528 4.048 1.584.8.896 1.2 2.085 1.2 3.568 0 1.802-.502 3.173-1.504 4.112-.886.832-2.102 1.248-3.648 1.248-.96 0-1.84-.07-2.64-.208v-10.096zm1.488 9.008c.341.074.725.112 1.152.112 1.205 0 2.117-.384 2.736-1.152.565-.704.848-1.691.848-2.96 0-1.366-.395-2.411-1.184-3.136-.64-.598-1.456-.896-2.448-.896-.438 0-.806.037-1.104.112v7.92zm12.277 1.104v-10.112a17.795 17.795 0 0 1 2.592-.208c2.454 0 3.68 1.034 3.68 3.104 0 1.12-.373 1.968-1.12 2.544-.608.469-1.386.704-2.336.704-.458 0-.901-.038-1.328-.112v4.08h-1.488zm1.488-9.024v3.744c.427.074.87.112 1.328.112 1.259 0 1.888-.683 1.888-2.048 0-1.28-.677-1.92-2.032-1.92-.49 0-.885.037-1.184.112zm8.445-1.104h1.408l3.664 10.128h-1.52l-.768-2.288h-4.144l-.784 2.288h-1.52l3.664-10.128zm.704 1.792-1.648 4.816h3.296l-1.648-4.816zm6.051 8.336v-10.112a17.774 17.774 0 0 1 2.592-.208c2.453 0 3.68 1.034 3.68 3.104 0 1.344-.555 2.293-1.664 2.848l2.016 4.368h-1.504l-1.824-4a4.368 4.368 0 0 1-.608.032c-.374 0-.774-.038-1.2-.112v4.08h-1.488zm1.488-9.024v3.744c.426.074.826.112 1.2.112 1.344 0 2.016-.683 2.016-2.048 0-1.28-.678-1.92-2.032-1.92-.491 0-.886.037-1.184.112zm8.98.128h-3.04v-1.232h7.808v1.232h-3.28v8.896h-1.488v-8.896zm11.602.384c-.726-.363-1.456-.544-2.192-.544-.523 0-.95.122-1.28.368-.331.234-.496.538-.496.912 0 .672.442 1.173 1.328 1.504 1.322.49 2.261 1.008 2.816 1.552.554.533.832 1.194.832 1.984 0 .96-.368 1.712-1.104 2.256-.598.448-1.339.672-2.224.672-1.056 0-2.155-.363-3.296-1.088l.64-.912c.714.437 1.546.656 2.496.656 1.301 0 1.952-.55 1.952-1.648 0-.854-.55-1.467-1.648-1.84-1.152-.395-1.99-.832-2.512-1.312-.512-.48-.768-1.062-.768-1.744 0-.811.314-1.462.944-1.952.576-.448 1.333-.672 2.272-.672 1.056 0 2.016.298 2.88.896l-.64.912z" fill="#3D4E76"/>
            <path d="M168.273 56.74 130.22 77.88M109.08 79.995 71.027 57.707l12.635-7.31M132.334 132.535l-11.893 6.653-49.414-27.639V77.88M167.216 79.995v27.482M118.593 96.907v25.369M119.65 84.4l18.884 10.393 48.766-26.84-18.882-10.392-12.994-7.163" stroke="#3D4E76" stroke-width="1.517" stroke-linecap="round" stroke-linejoin="round"/>
            <path d="M70.884 56.74 52 67.362l48.766 27.431 18.884-10.622" stroke="#3D4E76" stroke-width="1.517" stroke-linecap="round" stroke-linejoin="round"/>
            <path d="M85.802 65.194a33.734 33.734 0 0 1-2.091-11.724c0-19.21 16.09-34.783 35.939-34.783 19.848 0 35.939 15.573 35.939 34.783 0 4.116-.737 8.063-2.091 11.726" stroke="#3D4E76" stroke-width="1.517" stroke-linecap="round" stroke-linejoin="round"/>
            <path clip-rule="evenodd" d="M128.106 54.626a8.456 8.456 0 1 1-16.912 0 8.457 8.457 0 0 1 8.456-8.456 8.456 8.456 0 0 1 8.456 8.456z" stroke="#3D4E76" stroke-width="1.517" stroke-linecap="round" stroke-linejoin="round"/>
            <path clip-rule="evenodd" d="M138.677 53.569c0 9.924-8.519 17.97-19.028 17.97-10.509 0-19.025-8.046-19.025-17.97s8.516-17.97 19.025-17.97c10.509 0 19.028 8.046 19.028 17.97z" stroke="#3D4E76" stroke-width="1.517" stroke-linecap="round" stroke-linejoin="round"/>
            <path d="m111.194 37.713-6.342-14.798M128.106 37.713l6.342-14.798M154.495 110.672c10.292 0 18.635 8.055 18.635 17.993 0 9.937-8.343 17.992-18.635 17.992-10.292 0-18.636-8.055-18.636-17.992 0-8.585 6.226-15.766 14.556-17.561M166.704 110.672a23.058 23.058 0 0 1 5.141 3.855" stroke="#3D4E76" stroke-width="1.517" stroke-linecap="round" stroke-linejoin="round"/>
            <path d="M151.282 111.957v-3.64c0-.828.626-1.501 1.398-1.501h4.914c.773 0 1.399.673 1.399 1.501v3.64" stroke="#3D4E76" stroke-width="1.517" stroke-linecap="round" stroke-linejoin="round"/>
            <path clip-rule="evenodd" d="M167.989 129.307c0 7.454-6.042 13.495-13.494 13.495-7.454 0-13.495-6.041-13.495-13.495 0-7.453 6.041-13.494 13.495-13.494 7.452 0 13.494 6.041 13.494 13.494z" stroke="#3D4E76" stroke-width="1.517" stroke-linecap="round" stroke-linejoin="round"/>
            <path d="m169.275 111.957-2.571 2.57M142.285 110.672a23.03 23.03 0 0 0-5.14 3.855M139.715 111.957l2.57 2.57M154.495 119.668v2.571M150.07 120.953l1.138 2.571M146.141 124.882l2.57 1.139M144.856 129.307h2.57M146.141 133.732l2.57-1.138M150.07 137.661l1.138-2.571M154.495 138.946v-2.57M160.205 137.661l-1.139-2.57M164.134 133.732l-2.571-1.138M165.419 129.307h-2.57M164.134 124.882l-2.571 1.139M160.278 120.953l-5.141 8.997" stroke="#3D4E76" stroke-width="1.517" stroke-linecap="round" stroke-linejoin="round"/>
            <path fill-rule="evenodd" clip-rule="evenodd" d="m174.616 68.465-5.701-3.269L134.448 85.4l5.324 3.052 34.844-19.986zM66.798 68.465l5.701-3.269L106.966 85.4l-5.324 3.052-34.844-19.986z" fill="#01B8B6"/>
            <path d="M206.7 81.689h-4.74v-3h4.74v-5.34h3.51v5.34h4.77v3h-4.77v5.28h-3.51v-5.28zm21.781-10.56h-6.63v3.84c.24-.1.57-.15.99-.15 2.2 0 3.91.55 5.13 1.65 1.16 1.06 1.74 2.51 1.74 4.35 0 1.94-.72 3.55-2.16 4.83-1.26 1.12-2.79 1.68-4.59 1.68-2.4 0-4.49-.87-6.27-2.61l1.62-2.49c1.46 1.1 2.87 1.65 4.23 1.65 2.1 0 3.15-.94 3.15-2.82 0-2.1-1.35-3.15-4.05-3.15-.94 0-2.17.17-3.69.51v-10.44h10.53v3.15zm14.913 0h-6.63v3.84c.24-.1.57-.15.99-.15 2.2 0 3.91.55 5.13 1.65 1.16 1.06 1.74 2.51 1.74 4.35 0 1.94-.72 3.55-2.16 4.83-1.26 1.12-2.79 1.68-4.59 1.68-2.4 0-4.49-.87-6.27-2.61l1.62-2.49c1.46 1.1 2.87 1.65 4.23 1.65 2.1 0 3.15-.94 3.15-2.82 0-2.1-1.35-3.15-4.05-3.15-.94 0-2.17.17-3.69.51v-10.44h10.53v3.15zm10.772-3.51c2.32 0 4.18 1.11 5.58 3.33 1.18 1.84 1.77 4.03 1.77 6.57 0 3.06-.75 5.51-2.25 7.35-1.32 1.64-3.02 2.46-5.1 2.46-2.38 0-4.24-1.06-5.58-3.18-1.12-1.76-1.68-3.97-1.68-6.63 0-2.96.74-5.39 2.22-7.29 1.34-1.74 3.02-2.61 5.04-2.61zm.06 3.36c-2.16 0-3.24 2.12-3.24 6.36 0 2.14.31 3.82.93 5.04.56 1.1 1.3 1.65 2.22 1.65 1.02 0 1.82-.59 2.4-1.77.6-1.2.9-2.84.9-4.92 0-4.24-1.07-6.36-3.21-6.36zm10.274 19.14-.96-1.77c.88-.34 1.32-.8 1.32-1.38-.96 0-1.44-.57-1.44-1.71 0-.58.19-1.06.57-1.44.4-.38.91-.57 1.53-.57s1.13.25 1.53.75c.4.48.6 1.09.6 1.83 0 1.06-.3 1.99-.9 2.79-.58.8-1.33 1.3-2.25 1.5zm11.843-22.5c2.32 0 4.18 1.11 5.58 3.33 1.18 1.84 1.77 4.03 1.77 6.57 0 3.06-.75 5.51-2.25 7.35-1.32 1.64-3.02 2.46-5.1 2.46-2.38 0-4.24-1.06-5.58-3.18-1.12-1.76-1.68-3.97-1.68-6.63 0-2.96.74-5.39 2.22-7.29 1.34-1.74 3.02-2.61 5.04-2.61zm.06 3.36c-2.16 0-3.24 2.12-3.24 6.36 0 2.14.31 3.82.93 5.04.56 1.1 1.3 1.65 2.22 1.65 1.02 0 1.82-.59 2.4-1.77.6-1.2.9-2.84.9-4.92 0-4.24-1.07-6.36-3.21-6.36zm16.845-3.36c2.32 0 4.18 1.11 5.58 3.33 1.18 1.84 1.77 4.03 1.77 6.57 0 3.06-.75 5.51-2.25 7.35-1.32 1.64-3.02 2.46-5.1 2.46-2.38 0-4.24-1.06-5.58-3.18-1.12-1.76-1.68-3.97-1.68-6.63 0-2.96.74-5.39 2.22-7.29 1.34-1.74 3.02-2.61 5.04-2.61zm.06 3.36c-2.16 0-3.24 2.12-3.24 6.36 0 2.14.31 3.82.93 5.04.56 1.1 1.3 1.65 2.22 1.65 1.02 0 1.82-.59 2.4-1.77.6-1.2.9-2.84.9-4.92 0-4.24-1.07-6.36-3.21-6.36zm16.844-3.36c2.32 0 4.18 1.11 5.58 3.33 1.18 1.84 1.77 4.03 1.77 6.57 0 3.06-.75 5.51-2.25 7.35-1.32 1.64-3.02 2.46-5.1 2.46-2.38 0-4.24-1.06-5.58-3.18-1.12-1.76-1.68-3.97-1.68-6.63 0-2.96.74-5.39 2.22-7.29 1.34-1.74 3.02-2.61 5.04-2.61zm.06 3.36c-2.16 0-3.24 2.12-3.24 6.36 0 2.14.31 3.82.93 5.04.56 1.1 1.3 1.65 2.22 1.65 1.02 0 1.82-.59 2.4-1.77.6-1.2.9-2.84.9-4.92 0-4.24-1.07-6.36-3.21-6.36z" fill="url(#hvsad1ijmc)"/>
            <path d="M110.546 207.461v-10.128h6.176v1.232h-4.688v3.04h3.936v1.232h-3.936v4.624h-1.488zm10.571.192c-1.099 0-1.989-.411-2.672-1.232-.587-.704-.88-1.563-.88-2.576 0-1.173.357-2.123 1.072-2.848.64-.661 1.461-.992 2.464-.992 1.152 0 2.059.421 2.72 1.264.544.704.816 1.563.816 2.576 0 1.163-.373 2.112-1.12 2.848-.661.64-1.461.96-2.4.96zm-.032-1.088c.64 0 1.147-.245 1.52-.736.384-.491.576-1.152.576-1.984 0-.864-.203-1.552-.608-2.064a1.775 1.775 0 0 0-1.472-.72c-.619 0-1.12.256-1.504.768-.384.512-.576 1.184-.576 2.016 0 .896.213 1.589.64 2.08.373.427.848.64 1.424.64zm6.881-5.648h.064c.502-.608 1.088-.912 1.76-.912.854 0 1.483.331 1.888.992l-1.152.72c-.352-.352-.736-.528-1.152-.528-.533 0-.981.272-1.344.816v5.456h-1.376v-7.264h1.184l.128.72zm6.328 0h.08c.544-.608 1.296-.912 2.256-.912 1.205 0 1.989.432 2.352 1.296.618-.864 1.498-1.296 2.64-1.296 1.749 0 2.624 1.035 2.624 3.104v4.352h-1.376v-4.048c0-.8-.144-1.371-.432-1.712-.278-.341-.747-.512-1.408-.512-.662 0-1.264.293-1.808.88.064.299.096.645.096 1.04v4.352h-1.376v-4.16c0-.736-.15-1.269-.448-1.6-.288-.341-.758-.512-1.408-.512-.31 0-.63.08-.96.24-.331.16-.576.352-.736.576v5.456h-1.376v-7.264h1.152l.128.72zm15.647 6.544v-1.296l2.544-2.832c.768-.853 1.285-1.515 1.552-1.984.277-.48.416-.96.416-1.44 0-.448-.16-.811-.48-1.088-.32-.277-.747-.416-1.28-.416-.64 0-1.318.235-2.032.704l-.624-.896c.949-.725 1.92-1.088 2.912-1.088.928 0 1.68.272 2.256.816.544.501.816 1.157.816 1.968 0 .523-.123 1.029-.368 1.52-.246.48-.672 1.067-1.28 1.76l-2.656 3.04h4.08v1.232h-5.856zm11.367.192c-1.227 0-2.176-.555-2.848-1.664-.576-.939-.864-2.128-.864-3.568 0-1.611.379-2.917 1.136-3.92.672-.907 1.531-1.36 2.576-1.36 1.184 0 2.133.581 2.848 1.744.587.971.88 2.149.88 3.536 0 1.653-.373 2.965-1.12 3.936-.672.864-1.541 1.296-2.608 1.296zm0-9.232c-.683 0-1.211.341-1.584 1.024-.373.672-.56 1.632-.56 2.88 0 1.301.203 2.32.608 3.056.384.661.891.992 1.52.992.683 0 1.216-.357 1.6-1.072.384-.725.576-1.717.576-2.976 0-1.301-.203-2.293-.608-2.976-.373-.619-.891-.928-1.552-.928zm5.367 9.04v-1.296l2.544-2.832c.768-.853 1.285-1.515 1.552-1.984.277-.48.416-.96.416-1.44 0-.448-.16-.811-.48-1.088-.32-.277-.747-.416-1.28-.416-.64 0-1.317.235-2.032.704l-.624-.896c.949-.725 1.92-1.088 2.912-1.088.928 0 1.68.272 2.256.816.544.501.816 1.157.816 1.968 0 .523-.123 1.029-.368 1.52-.245.48-.672 1.067-1.28 1.76l-2.656 3.04h4.08v1.232h-5.856zm11.448-10.128v10.128h-1.488v-8.496l-1.872 1.088-.72-1.104 2.592-1.616h1.488zm8.31 3.984-.016 4.224c0 .704.267 1.056.8 1.056a2.16 2.16 0 0 0 1.104-.32l.48.736c-.587.437-1.221.656-1.904.656-1.237 0-1.856-.677-1.856-2.032v-4.32h-1.072v-1.12h1.088v-1.488l1.376-.72v2.208h2.176v1.12h-2.176zm7.2 6.336c-1.099 0-1.99-.411-2.672-1.232-.587-.704-.88-1.563-.88-2.576 0-1.173.357-2.123 1.072-2.848.64-.661 1.461-.992 2.464-.992 1.152 0 2.058.421 2.72 1.264.544.704.816 1.563.816 2.576 0 1.163-.374 2.112-1.12 2.848-.662.64-1.462.96-2.4.96zm-.032-1.088c.64 0 1.146-.245 1.52-.736.384-.491.576-1.152.576-1.984 0-.864-.203-1.552-.608-2.064a1.776 1.776 0 0 0-1.472-.72c-.619 0-1.12.256-1.504.768-.384.512-.576 1.184-.576 2.016 0 .896.213 1.589.64 2.08.373.427.848.64 1.424.64zm8.855.896v-1.296l2.544-2.832c.768-.853 1.286-1.515 1.552-1.984.278-.48.416-.96.416-1.44 0-.448-.16-.811-.48-1.088-.32-.277-.746-.416-1.28-.416-.64 0-1.317.235-2.032.704l-.624-.896c.95-.725 1.92-1.088 2.912-1.088.928 0 1.68.272 2.256.816.544.501.816 1.157.816 1.968 0 .523-.122 1.029-.368 1.52-.245.48-.672 1.067-1.28 1.76l-2.656 3.04h4.08v1.232h-5.856zm11.368.192c-1.227 0-2.176-.555-2.848-1.664-.576-.939-.864-2.128-.864-3.568 0-1.611.378-2.917 1.136-3.92.672-.907 1.53-1.36 2.576-1.36 1.184 0 2.133.581 2.848 1.744.586.971.88 2.149.88 3.536 0 1.653-.374 2.965-1.12 3.936-.672.864-1.542 1.296-2.608 1.296zm0-9.232c-.683 0-1.211.341-1.584 1.024-.374.672-.56 1.632-.56 2.88 0 1.301.202 2.32.608 3.056.384.661.89.992 1.52.992.682 0 1.216-.357 1.6-1.072.384-.725.576-1.717.576-2.976 0-1.301-.203-2.293-.608-2.976-.374-.619-.891-.928-1.552-.928zm5.367 9.04v-1.296l2.544-2.832c.768-.853 1.285-1.515 1.552-1.984.277-.48.416-.96.416-1.44 0-.448-.16-.811-.48-1.088-.32-.277-.747-.416-1.28-.416-.64 0-1.318.235-2.032.704l-.624-.896c.949-.725 1.92-1.088 2.912-1.088.928 0 1.68.272 2.256.816.544.501.816 1.157.816 1.968 0 .523-.123 1.029-.368 1.52-.246.48-.672 1.067-1.28 1.76l-2.656 3.04h4.08v1.232h-5.856zm7.687 0v-1.296l2.544-2.832c.768-.853 1.285-1.515 1.552-1.984.277-.48.416-.96.416-1.44 0-.448-.16-.811-.48-1.088-.32-.277-.747-.416-1.28-.416-.64 0-1.317.235-2.032.704l-.624-.896c.949-.725 1.92-1.088 2.912-1.088.928 0 1.68.272 2.256.816.544.501.816 1.157.816 1.968 0 .523-.123 1.029-.368 1.52-.245.48-.672 1.067-1.28 1.76l-2.656 3.04h4.08v1.232h-5.856z" fill="#3D4E76"/>
            <path d="M646.574-139.249a150.447 150.447 0 0 1 60.649-12.717c86.175 0 156.037 72.472 156.037 161.867 0 89.398-69.862 161.867-156.037 161.867-57.753 0-108.064-32.636-135.046-81.019-41.362 49.542-102.308 81.019-170.447 81.019-47.464 0-91.45-15.273-127.787-41.243-30.912 25.753-70.112 41.243-112.855 41.243-99.67 0-180.476-83.819-180.476-187.215 0-103.405 80.807-187.223 180.476-187.223 18.904 0 37.122 3.043 54.243 8.631 40.621-61.706 108.935-102.242 186.399-102.242 48.848 0 94.022 16.13 130.898 43.529" stroke="url(#8n8lwjuipd)" stroke-width="1.935" stroke-linecap="round" stroke-linejoin="round"/>
        </g>
    </g>
    <defs>
        <linearGradient id="hvsad1ijmc" x1="201.001" y1="92.969" x2="319" y2="92.969" gradientUnits="userSpaceOnUse">
            <stop stop-color="#FDBC11"/>
            <stop offset="1" stop-color="#F6931D"/>
        </linearGradient>
        <linearGradient id="8n8lwjuipd" x1="843.099" y1="-94.625" x2="34.727" y2="-156.559" gradientUnits="userSpaceOnUse">
            <stop stop-color="#1C6FC4"/>
            <stop offset="1" stop-color="#01B8B6"/>
        </linearGradient>
        <clipPath id="eqlkyzogba">
            <path fill="#fff" transform="translate(0 .969)" d="M0 0h343v231.492H0z"/>
        </clipPath>
    </defs>
</svg>
