<svg width="118" height="100" viewBox="0 0 118 100" fill="none" xmlns="http://www.w3.org/2000/svg">
    <g clip-path="url(#vt9pkxseqa)">
        <path d="m30.483 48.282.357-.626.357.626 16.009-9.071V22.197l.779-.43-.779-.422v-.284h-.517L30.84 12.42 14.991 21.06h-.516v.284l-.78.423.78.43V39.21l16.009 9.07zm15.281-9.916L30.84 46.82l-14.924-8.453V22.998l13.432 7.447h-.015v10.95h1.442V31.239l.058.036 14.924-8.277v15.368h.008zM30.84 14.058l14.146 7.717-14.146 7.848-14.145-7.848 14.145-7.717zM89.504 31.29c-1.755 0-3.19-1.252-3.19-2.796h-1.44c0 2.337 2.074 4.245 4.63 4.245 2.555 0 4.637-1.9 4.637-4.245 0-2.562-2.242-3.567-4.434-4.215-3.043-.895-3.392-2.046-3.392-2.832 0-1.543 1.427-2.795 3.189-2.795 1.761 0 3.188 1.252 3.188 2.795h1.442c0-2.111-1.697-3.866-3.91-4.186v-.895h-1.441v.895c-2.213.32-3.91 2.068-3.91 4.186 0 2.905 3.335 3.888 4.427 4.215 2.439.714 3.392 1.507 3.392 2.825 0 1.544-1.434 2.796-3.188 2.796v.007zM90.224 33.576h-1.441v1.565h1.441v-1.565z" fill="#01B8B6"/>
        <path fill-rule="evenodd" clip-rule="evenodd" d="M107.296 13.38a5.855 5.855 0 0 0-4.783-2.43h-11.51V7.257c0-3.946-3.24-7.149-7.222-7.149H62.123v1.442h21.658c3.19 0 5.78 2.562 5.78 5.707v3.691h-26.98l-2.715-7.083c-.91-2.25-3.218-3.757-5.751-3.757h-2.941v1.442h2.94c1.952 0 3.721 1.143 4.405 2.839l2.934 7.644.03-.014 9.194 27.86a7.8 7.8 0 0 0 7.426 5.359h11.466v13.177c0 3.152-2.606 5.715-5.802 5.715H9.204C6 64.13 3.4 61.568 3.4 58.416V7.156c0-3.152 2.607-5.715 5.803-5.715h41.598V0H9.204C5.207 0 1.96 3.21 1.96 7.156v51.267c0 3.946 3.254 7.156 7.251 7.156h13.614l-4.026 9.385h55.38l-4.026-9.385H83.76c3.996 0 7.25-3.21 7.25-7.156V45.246h15.471v-1.441H78.096a6.353 6.353 0 0 1-6.05-4.361L63.12 12.398h39.386c1.449 0 2.767.67 3.611 1.835a4.421 4.421 0 0 1 .641 3.982l-6.356 19.7H77.79v1.441h23.661l6.683-20.704a5.829 5.829 0 0 0-.845-5.271h.007zM71.973 73.523h-50.99l3.4-7.943h44.19l3.4 7.943zm8.058-23.489a4.591 4.591 0 0 1 4.587 4.587 4.596 4.596 0 0 1-4.587 4.586 4.596 4.596 0 0 1-4.586-4.586 4.596 4.596 0 0 1 4.586-4.587zm.006 1.428c-1.855 0-3.366 1.414-3.366 3.159 0 1.745 1.517 3.158 3.366 3.158 1.85 0 3.36-1.413 3.36-3.158 0-1.745-1.504-3.159-3.36-3.159zm14.587 3.159a4.596 4.596 0 0 1 4.587-4.587 4.596 4.596 0 0 1 4.586 4.587 4.596 4.596 0 0 1-4.587 4.586 4.596 4.596 0 0 1-4.586-4.586zm1.22 0c0 1.745 1.511 3.158 3.367 3.158 1.849 0 3.359-1.413 3.359-3.158 0-1.745-1.504-3.159-3.36-3.159-1.855 0-3.365 1.414-3.365 3.159zM8.812 81.348h75.342l7.92 13.243a3.438 3.438 0 0 1 .044 3.487c-.67 1.187-1.98 1.922-3.407 1.922H4.26c-1.426 0-2.737-.735-3.407-1.922a3.438 3.438 0 0 1 .044-3.487l7.914-13.243zm79.892 17.21c.924 0 1.733-.444 2.155-1.193h.007a1.975 1.975 0 0 0-.029-2.032l-7.499-12.536H9.641L2.142 95.333a1.975 1.975 0 0 0-.03 2.032c.423.75 1.224 1.194 2.149 1.194h84.442zm-20.326-41.46H48.043v1.442h20.334v-1.442zM48.043 49.28h10.95v1.442h-10.95v-1.442z" fill="#3D4E76"/>
    </g>
    <defs>
        <clipPath id="vt9pkxseqa">
            <path fill="#fff" transform="translate(.395)" d="M0 0h117.21v100H0z"/>
        </clipPath>
    </defs>
</svg>
