<svg width="343" height="233" viewBox="0 0 343 233" fill="none" xmlns="http://www.w3.org/2000/svg">
    <g clip-path="url(#2rf4g33l5a)">
        <rect y=".984" width="343" height="231.492" rx="7" fill="#fff" stroke="#E9E9E9" stroke-width="1.4"/>
        <mask id="5gaxw0lhtb" style="mask-type:luminance" maskUnits="userSpaceOnUse" x="-1" y="0" width="345" height="234">
            <rect y=".984" width="343" height="231.492" rx="7" fill="#fff" stroke="#fff" stroke-width="1.4"/>
        </mask>
        <g mask="url(#5gaxw0lhtb)">
            <path d="M47.7 50.369h-4.74v-3h4.74v-5.34h3.51v5.34h4.77v3h-4.77v5.28H47.7v-5.28zm16.051-3.21h-2.85v-3.18h2.85c.8 0 1.35-.11 1.65-.33.46-.34.69-.95.69-1.83 0-.68-.2-1.22-.6-1.62-.4-.42-.94-.63-1.62-.63-1.22 0-2.49.56-3.81 1.68l-1.44-2.52c1.66-1.62 3.54-2.43 5.64-2.43 1.76 0 3.2.49 4.32 1.47 1.08.96 1.62 2.2 1.62 3.72 0 1.88-.78 3.14-2.34 3.78 2.02.78 3.03 2.28 3.03 4.5 0 2.34-.8 4.04-2.4 5.1-1.12.74-2.52 1.11-4.2 1.11-.92 0-1.97-.24-3.15-.72-1.16-.5-2.11-1.1-2.85-1.8l1.59-2.37c1.08.98 2.46 1.47 4.14 1.47.86 0 1.54-.24 2.04-.72.5-.5.75-1.17.75-2.01 0-1.78-1.02-2.67-3.06-2.67zm16.678-10.86c2.32 0 4.18 1.11 5.58 3.33 1.18 1.84 1.77 4.03 1.77 6.57 0 3.06-.75 5.51-2.25 7.35-1.32 1.64-3.02 2.46-5.1 2.46-2.38 0-4.24-1.06-5.58-3.18-1.12-1.76-1.68-3.97-1.68-6.63 0-2.96.74-5.39 2.22-7.29 1.34-1.74 3.02-2.61 5.04-2.61zm.06 3.36c-2.16 0-3.24 2.12-3.24 6.36 0 2.14.31 3.82.93 5.04.56 1.1 1.3 1.65 2.22 1.65 1.02 0 1.82-.59 2.4-1.77.6-1.2.9-2.84.9-4.92 0-4.24-1.07-6.36-3.21-6.36zm16.845-3.36c2.32 0 4.18 1.11 5.58 3.33 1.18 1.84 1.77 4.03 1.77 6.57 0 3.06-.75 5.51-2.25 7.35-1.32 1.64-3.02 2.46-5.1 2.46-2.38 0-4.24-1.06-5.58-3.18-1.12-1.76-1.68-3.97-1.68-6.63 0-2.96.74-5.39 2.22-7.29 1.34-1.74 3.02-2.61 5.04-2.61zm.06 3.36c-2.16 0-3.24 2.12-3.24 6.36 0 2.14.31 3.82.93 5.04.56 1.1 1.3 1.65 2.22 1.65 1.02 0 1.82-.59 2.4-1.77.6-1.2.9-2.84.9-4.92 0-4.24-1.07-6.36-3.21-6.36z" fill="url(#fgl71tuxwc)"/>
            <path d="M89.803 200.856v10.128H88.33v-10.128h1.472zm3.975 3.584h.08c.544-.608 1.301-.912 2.272-.912 1.781 0 2.672 1.046 2.672 3.136v4.32h-1.376v-4.24c0-1.354-.597-2.032-1.792-2.032-.33 0-.667.08-1.008.24-.341.16-.592.352-.752.576v5.456h-1.376v-7.264h1.152l.128.72zm13.829-3.584h1.408l3.664 10.128h-1.52l-.768-2.288h-4.144l-.784 2.288h-1.52l3.664-10.128zm.704 1.792-1.648 4.816h3.296l-1.648-4.816zm7.139 1.792h.08c.544-.608 1.296-.912 2.256-.912 1.205 0 1.989.432 2.352 1.296.619-.864 1.499-1.296 2.64-1.296 1.749 0 2.624 1.035 2.624 3.104v4.352h-1.376v-4.048c0-.8-.144-1.37-.432-1.712-.277-.341-.747-.512-1.408-.512-.661 0-1.264.294-1.808.88.064.299.096.646.096 1.04v4.352h-1.376v-4.16c0-.736-.149-1.269-.448-1.6-.288-.341-.757-.512-1.408-.512-.309 0-.629.08-.96.24-.331.16-.576.352-.736.576v5.456h-1.376v-7.264h1.152l.128.72zm13.641 0h.08c.544-.608 1.296-.912 2.256-.912 1.205 0 1.989.432 2.352 1.296.618-.864 1.498-1.296 2.64-1.296 1.749 0 2.624 1.035 2.624 3.104v4.352h-1.376v-4.048c0-.8-.144-1.37-.432-1.712-.278-.341-.747-.512-1.408-.512-.662 0-1.264.294-1.808.88.064.299.096.646.096 1.04v4.352h-1.376v-4.16c0-.736-.15-1.269-.448-1.6-.288-.341-.758-.512-1.408-.512-.31 0-.63.08-.96.24-.331.16-.576.352-.736.576v5.456h-1.376v-7.264h1.152l.128.72zm17.864 6.544h-1.072l-.16-.752c-.576.63-1.355.944-2.336.944-.747 0-1.339-.202-1.776-.608-.427-.416-.64-.976-.64-1.68 0-.8.325-1.413.976-1.84.661-.437 1.595-.656 2.8-.656h.848v-.08c0-1.109-.56-1.664-1.68-1.664-.715 0-1.381.23-2 .688l-.416-.736c.832-.714 1.787-1.072 2.864-1.072 1.728 0 2.592 1.03 2.592 3.088v4.368zm-1.376-3.664h-.704c-1.643 0-2.464.491-2.464 1.472 0 .406.117.726.352.96.245.235.571.352.976.352s.784-.101 1.136-.304c.352-.213.587-.48.704-.8v-1.68zm5.074-2.88h.08c.544-.608 1.301-.912 2.272-.912 1.781 0 2.672 1.046 2.672 3.136v4.32h-1.376v-4.24c0-1.354-.597-2.032-1.792-2.032-.331 0-.667.08-1.008.24-.341.16-.592.352-.752.576v5.456h-1.376v-7.264h1.152l.128.72zm7.375 8.192-.32-.624c.416-.266.624-.565.624-.896v-.064a.311.311 0 0 1-.144.032.634.634 0 0 1-.48-.224.869.869 0 0 1-.192-.56c0-.245.08-.448.24-.608a.781.781 0 0 1 .592-.256c.64 0 .96.448.96 1.344 0 .416-.118.795-.352 1.136a1.868 1.868 0 0 1-.928.72zm12.123-10.16c-.726-.362-1.456-.544-2.192-.544-.523 0-.95.123-1.28.368-.331.235-.496.539-.496.912 0 .672.442 1.174 1.328 1.504 1.322.491 2.261 1.008 2.816 1.552.554.534.832 1.195.832 1.984 0 .96-.368 1.712-1.104 2.256-.598.448-1.339.672-2.224.672-1.056 0-2.155-.362-3.296-1.088l.64-.912c.714.438 1.546.656 2.496.656 1.301 0 1.952-.549 1.952-1.648 0-.853-.55-1.466-1.648-1.84-1.152-.394-1.99-.832-2.512-1.312-.512-.48-.768-1.061-.768-1.744 0-.81.314-1.461.944-1.952.576-.448 1.333-.672 2.272-.672 1.056 0 2.016.299 2.88.896l-.64.912zm8.789 8.512h-1.072l-.16-.752c-.576.63-1.355.944-2.336.944-.747 0-1.339-.202-1.776-.608-.427-.416-.64-.976-.64-1.68 0-.8.325-1.413.976-1.84.661-.437 1.594-.656 2.8-.656h.848v-.08c0-1.109-.56-1.664-1.68-1.664-.715 0-1.382.23-2 .688l-.416-.736c.832-.714 1.786-1.072 2.864-1.072 1.728 0 2.592 1.03 2.592 3.088v4.368zm-1.376-3.664h-.704c-1.643 0-2.464.491-2.464 1.472 0 .406.117.726.352.96.245.235.57.352.976.352.405 0 .784-.101 1.136-.304.352-.213.586-.48.704-.8v-1.68zm5.169-6.656v10.32h-1.376V201.4l1.376-.736zm4.387 4.176-.016 4.224c0 .704.267 1.056.8 1.056.374 0 .742-.106 1.104-.32l.48.736c-.586.438-1.221.656-1.904.656-1.237 0-1.856-.677-1.856-2.032v-4.32h-1.072v-1.12h1.088v-1.488l1.376-.72v2.208h2.176v1.12h-2.176zm4.22 7.792-.32-.624c.416-.266.624-.565.624-.896v-.064a.305.305 0 0 1-.144.032.637.637 0 0 1-.48-.224.869.869 0 0 1-.192-.56c0-.245.08-.448.24-.608a.783.783 0 0 1 .592-.256c.64 0 .96.448.96 1.344 0 .416-.117.795-.352 1.136a1.864 1.864 0 0 1-.928.72zm12.827-10.48a120.335 120.335 0 0 0-4.064 6.256c-.469.768-.757 1.216-.864 1.344h5.04v1.232h-6.848v-1.136c1.067-1.536 2.39-3.552 3.968-6.048.651-1.034 1.024-1.605 1.12-1.712h-4.944v-1.232h6.592v1.296zm7.257 8.832h-1.072l-.16-.752c-.576.63-1.355.944-2.336.944-.747 0-1.339-.202-1.776-.608-.427-.416-.64-.976-.64-1.68 0-.8.325-1.413.976-1.84.661-.437 1.595-.656 2.8-.656h.848v-.08c0-1.109-.56-1.664-1.68-1.664-.715 0-1.381.23-2 .688l-.416-.736c.832-.714 1.787-1.072 2.864-1.072 1.728 0 2.592 1.03 2.592 3.088v4.368zm-1.376-3.664h-.704c-1.643 0-2.464.491-2.464 1.472 0 .406.117.726.352.96.245.235.571.352.976.352s.784-.101 1.136-.304c.352-.213.587-.48.704-.8v-1.68zm5.106-2.88h.064c.501-.608 1.088-.912 1.76-.912.853 0 1.482.331 1.888.992l-1.152.72c-.352-.352-.736-.528-1.152-.528-.534 0-.982.272-1.344.816v5.456h-1.376v-7.264h1.184l.128.72zm10.107-.72h1.072v10.128h-1.376v-3.632c-.48.64-1.168.96-2.064.96-1.077 0-1.925-.394-2.544-1.184-.523-.661-.784-1.493-.784-2.496 0-1.322.384-2.346 1.152-3.072.619-.597 1.371-.896 2.256-.896.427 0 .848.096 1.264.288.416.182.704.4.864.656l.16-.752zm-.304 4.976v-2.88c-.075-.33-.288-.618-.64-.864a1.856 1.856 0 0 0-1.104-.368c-.651 0-1.179.256-1.584.768s-.608 1.174-.608 1.984c0 .928.213 1.638.64 2.128.373.427.853.64 1.44.64.405 0 .784-.133 1.136-.4.363-.277.603-.613.72-1.008zm9.373 2.288h-1.072l-.16-.752c-.576.63-1.355.944-2.336.944-.747 0-1.339-.202-1.776-.608-.427-.416-.64-.976-.64-1.68 0-.8.325-1.413.976-1.84.661-.437 1.595-.656 2.8-.656h.848v-.08c0-1.109-.56-1.664-1.68-1.664-.715 0-1.381.23-2 .688l-.416-.736c.832-.714 1.787-1.072 2.864-1.072 1.728 0 2.592 1.03 2.592 3.088v4.368zm-1.376-3.664h-.704c-1.643 0-2.464.491-2.464 1.472 0 .406.117.726.352.96.245.235.571.352.976.352s.784-.101 1.136-.304c.352-.213.587-.48.704-.8v-1.68zm3.73 5.312-.32-.624c.416-.266.624-.565.624-.896v-.064a.311.311 0 0 1-.144.032.637.637 0 0 1-.48-.224.869.869 0 0 1-.192-.56c0-.245.08-.448.24-.608a.781.781 0 0 1 .592-.256c.64 0 .96.448.96 1.344 0 .416-.117.795-.352 1.136a1.868 1.868 0 0 1-.928.72zm7.147-2.416v-.032c.021-.533.304-.8.848-.8.565 0 .848.278.848.832 0 .566-.283.848-.848.848s-.848-.282-.848-.848zm4.578 0v-.032c.021-.533.304-.8.848-.8.565 0 .848.278.848.832 0 .566-.283.848-.848.848s-.848-.282-.848-.848zm4.578 0v-.032c.022-.533.304-.8.848-.8.566 0 .848.278.848.832 0 .566-.282.848-.848.848-.565 0-.848-.282-.848-.848z" fill="#3D4E76"/>
            <path d="M178.606-136.447a150.463 150.463 0 0 1 60.649-12.716c86.175 0 156.037 72.472 156.037 161.867 0 89.398-69.862 161.866-156.037 161.866-57.753 0-108.064-32.635-135.045-81.018C62.848 143.094 1.9 174.57-66.238 174.57c-47.464 0-91.45-15.273-127.787-41.242-30.912 25.753-70.111 41.242-112.855 41.242-99.669 0-180.476-83.818-180.476-187.214 0-103.405 80.807-187.223 180.476-187.223 18.904 0 37.122 3.043 54.243 8.631 40.621-61.706 108.935-102.242 186.399-102.242 48.848 0 94.022 16.13 130.898 43.529" stroke="url(#c4i3gyhpad)" stroke-width="1.935" stroke-linecap="round" stroke-linejoin="round"/>
            <path fill-rule="evenodd" clip-rule="evenodd" d="M162.58 53.849h14.694V43.733H162.58v10.116zM292.726 53.849h14.694V43.733h-14.694v10.116z" fill="#fff"/>
            <path d="M293.426 62.616V26.872H177.974v35.744" stroke="#3D4E76" stroke-width="1.482" stroke-linecap="round" stroke-linejoin="round"/>
            <path d="M176.731 33.616H162.58v29.675h145.539V39.889M307.42 33.665h-9.097M168.912 69.36v70.14M177.309 69.36l.315 77.222M293.46 69.36v80.257M302.557 69.36v71.489" stroke="#3D4E76" stroke-width="1.482" stroke-linecap="round" stroke-linejoin="round"/>
            <mask id="mmzpf1ofqe" fill="#fff">
                <path fill-rule="evenodd" clip-rule="evenodd" d="M253.542 136.736a.741.741 0 0 0-.741.741v11.465c0 .41.332.741.741.741h32.886a.74.74 0 0 0 .742-.741v-9.745a.742.742 0 0 0-.919-.719l-17.098 4.218-13.344-3.215a.714.714 0 1 0-.335 1.388l10.667 2.57-10.415 2.57a.742.742 0 0 0 .355 1.439l13.191-3.254 14.19 3.419a.714.714 0 1 0 .335-1.388l-11.513-2.774 13.403-3.307v8.057h-31.404v-9.983h27.76a.741.741 0 0 0 0-1.482h-28.501z"/>
            </mask>
            <path d="m286.251 138.478.354 1.437-.354-1.437zm-17.098 4.218-.347 1.439c.231.056.471.055.702-.002l-.355-1.437zm-13.344-3.215-.347 1.438v.001l.347-1.439zm-.862.527 1.439.346-1.439-.346zm.527.861-.347 1.439.347-1.439zm10.667 2.57.355 1.437a1.479 1.479 0 0 0-.008-2.875l-.347 1.438zm-10.415 2.57-.354-1.437.354 1.437zm-.542.897-1.437.355 1.437-.355zm.897.542-.354-1.437.354 1.437zm13.191-3.254.346-1.439a1.47 1.47 0 0 0-.701.002l.355 1.437zm14.19 3.419.347-1.439-.347 1.439zm.862-.527-1.439-.346 1.439.346zm-.527-.861-.347 1.439.347-1.439zm-11.513-2.774-.355-1.437a1.479 1.479 0 0 0 .008 2.875l.347-1.438zm13.403-3.307h1.48a1.479 1.479 0 0 0-1.834-1.437l.354 1.437zm0 8.057v1.48a1.48 1.48 0 0 0 1.48-1.48h-1.48zm-31.404 0h-1.48c0 .818.663 1.48 1.48 1.48v-1.48zm0-9.983v-1.48a1.48 1.48 0 0 0-1.48 1.48h1.48zm-.002-.741a.74.74 0 0 1-.739.739v-2.96a2.22 2.22 0 0 0-2.221 2.221h2.96zm0 11.465v-11.465h-2.96v11.465h2.96zm-.739-.739a.74.74 0 0 1 .739.739h-2.96a2.22 2.22 0 0 0 2.221 2.221v-2.96zm32.886 0h-32.886v2.96h32.886v-2.96zm-.738.739c0-.408.33-.739.738-.739v2.96a2.221 2.221 0 0 0 2.222-2.221h-2.96zm0-9.745v9.745h2.96v-9.745h-2.96zm.283.582a.737.737 0 0 1-.283-.582h2.96a2.22 2.22 0 0 0-.852-1.748l-1.825 2.33zm.632.136a.74.74 0 0 1-.632-.136l1.825-2.33a2.22 2.22 0 0 0-1.902-.408l.709 2.874zm-17.097 4.218 17.097-4.218-.709-2.874-17.097 4.218.709 2.874zm-14.046-3.213 13.344 3.215.694-2.878-13.345-3.215-.693 2.878zm.924-.566a.765.765 0 0 1-.924.565l.693-2.877a2.194 2.194 0 0 0-2.647 1.619l2.878.693zm-.565-.924a.766.766 0 0 1 .565.924l-2.878-.693a2.195 2.195 0 0 0 1.619 2.647l.694-2.878zm10.667 2.571-10.667-2.571-.694 2.878 10.667 2.57.694-2.877zm-10.407 5.445 10.415-2.57-.709-2.874-10.415 2.57.709 2.874zm.54-.894a.738.738 0 0 1-.54.894l-.709-2.874a2.222 2.222 0 0 0-1.625 2.689l2.874-.709zm-.894-.541a.738.738 0 0 1 .894.541l-2.874.709a2.221 2.221 0 0 0 2.689 1.624l-.709-2.874zm13.19-3.254-13.19 3.254.709 2.874 13.19-3.254-.709-2.874zm14.892 3.417-14.191-3.419-.693 2.878 14.191 3.419.693-2.878zm-.924.566a.766.766 0 0 1 .924-.566l-.693 2.878a2.194 2.194 0 0 0 2.647-1.619l-2.878-.693zm.565.924a.766.766 0 0 1-.565-.924l2.878.693a2.195 2.195 0 0 0-1.619-2.647l-.694 2.878zm-11.513-2.775 11.513 2.775.694-2.878-11.514-2.774-.693 2.877zm13.396-6.182-13.404 3.307.709 2.874 13.404-3.307-.709-2.874zm1.834 9.494v-8.057h-2.96v8.057h2.96zm-32.884 1.48h31.404v-2.96h-31.404v2.96zm-1.48-11.463v9.983h2.96v-9.983h-2.96zm29.24-1.48h-27.76v2.96h27.76v-2.96zm-.739.739a.74.74 0 0 1 .739-.739v2.96a2.221 2.221 0 0 0 2.221-2.221h-2.96zm.739.739a.74.74 0 0 1-.739-.739h2.96a2.221 2.221 0 0 0-2.221-2.221v2.96zm-28.501 0h28.501v-2.96h-28.501v2.96z" fill="#3D4E76" mask="url(#mmzpf1ofqe)"/>
            <mask id="rwrscarsdf" fill="#fff">
                <path fill-rule="evenodd" clip-rule="evenodd" d="M215.758 136.736a.741.741 0 0 0-.741.741v11.465c0 .41.332.741.741.741h32.886a.74.74 0 0 0 .741-.741v-9.745a.739.739 0 0 0-.918-.719l-17.098 4.218-13.345-3.215a.713.713 0 1 0-.334 1.388l10.667 2.57-10.415 2.57a.74.74 0 1 0 .355 1.439l13.191-3.254 14.19 3.419a.714.714 0 1 0 .335-1.388l-11.513-2.774 13.403-3.307v8.057h-31.404v-9.983h27.76a.741.741 0 0 0 0-1.482h-28.501z"/>
            </mask>
            <path d="m248.467 138.478.354 1.437-.354-1.437zm-17.098 4.218-.347 1.439c.231.056.471.055.701-.002l-.354-1.437zm-13.345-3.215-.346 1.438v.001l.346-1.439zm-.861.527 1.439.346-1.439-.346zm.527.861-.347 1.439.347-1.439zm10.667 2.57.354 1.437a1.479 1.479 0 0 0-.007-2.875l-.347 1.438zm-10.415 2.57-.355-1.437.355 1.437zm-.542.897-1.437.355 1.437-.355zm.897.542-.355-1.437.355 1.437zm13.191-3.254.346-1.439a1.47 1.47 0 0 0-.701.002l.355 1.437zm14.19 3.419.347-1.439-.347 1.439zm.862-.527-1.439-.346 1.439.346zm-.527-.861-.347 1.439.347-1.439zm-11.513-2.774-.355-1.437a1.479 1.479 0 0 0 .008 2.875l.347-1.438zm13.403-3.307h1.48a1.479 1.479 0 0 0-1.834-1.437l.354 1.437zm0 8.057v1.48a1.48 1.48 0 0 0 1.48-1.48h-1.48zm-31.404 0h-1.48c0 .818.663 1.48 1.48 1.48v-1.48zm0-9.983v-1.48a1.48 1.48 0 0 0-1.48 1.48h1.48zm-.002-.741a.74.74 0 0 1-.739.739v-2.96a2.22 2.22 0 0 0-2.221 2.221h2.96zm0 11.465v-11.465h-2.96v11.465h2.96zm-.739-.739a.74.74 0 0 1 .739.739h-2.96a2.22 2.22 0 0 0 2.221 2.221v-2.96zm32.886 0h-32.886v2.96h32.886v-2.96zm-.739.739a.74.74 0 0 1 .739-.739v2.96a2.22 2.22 0 0 0 2.221-2.221h-2.96zm0-9.745v9.745h2.96v-9.745h-2.96zm.284.582a.738.738 0 0 1-.284-.582h2.96c0-.682-.314-1.327-.851-1.748l-1.825 2.33zm.632.136a.74.74 0 0 1-.632-.136l1.825-2.33a2.22 2.22 0 0 0-1.902-.408l.709 2.874zm-17.098 4.218 17.098-4.218-.709-2.874-17.098 4.218.709 2.874zm-14.045-3.213 13.344 3.215.694-2.878-13.345-3.215-.693 2.878zm.924-.566a.765.765 0 0 1-.924.565l.693-2.877a2.194 2.194 0 0 0-2.647 1.619l2.878.693zm-.565-.924a.766.766 0 0 1 .565.924l-2.878-.693a2.194 2.194 0 0 0 1.619 2.647l.694-2.878zm10.667 2.571-10.667-2.571-.694 2.878 10.667 2.57.694-2.877zm-10.408 5.445 10.415-2.57-.709-2.874-10.415 2.57.709 2.874zm.541-.894a.74.74 0 0 1-.541.894l-.709-2.874a2.221 2.221 0 0 0-1.624 2.689l2.874-.709zm-.895-.541a.739.739 0 0 1 .895.541l-2.874.709a2.22 2.22 0 0 0 2.688 1.624l-.709-2.874zm13.191-3.254-13.191 3.254.709 2.874 13.191-3.254-.709-2.874zm14.892 3.417-14.191-3.419-.693 2.878 14.191 3.419.693-2.878zm-.924.566a.766.766 0 0 1 .924-.566l-.693 2.878a2.193 2.193 0 0 0 2.646-1.619l-2.877-.693zm.565.924a.766.766 0 0 1-.565-.924l2.877.693a2.194 2.194 0 0 0-1.619-2.647l-.693 2.878zm-11.513-2.775 11.513 2.775.693-2.878-11.513-2.774-.693 2.877zm13.396-6.182-13.404 3.307.709 2.874 13.404-3.307-.709-2.874zm1.834 9.494v-8.057h-2.96v8.057h2.96zm-32.884 1.48h31.404v-2.96h-31.404v2.96zm-1.48-11.463v9.983h2.96v-9.983h-2.96zm29.24-1.48h-27.76v2.96h27.76v-2.96zm-.739.739a.74.74 0 0 1 .739-.739v2.96a2.221 2.221 0 0 0 2.221-2.221h-2.96zm.739.739a.74.74 0 0 1-.739-.739h2.96a2.221 2.221 0 0 0-2.221-2.221v2.96zm-28.501 0h28.501v-2.96h-28.501v2.96z" fill="#3D4E76" mask="url(#rwrscarsdf)"/>
            <mask id="i1bkifaijg" fill="#fff">
                <path fill-rule="evenodd" clip-rule="evenodd" d="M221.198 107.554a.71.71 0 0 0-.214 1.007l6.551 9.706a.773.773 0 0 0 1.043.222l27.504-17.186a.71.71 0 0 0 .214-1.007l-5.569-8.25a.77.77 0 0 0-1.186-.105l-11.878 12.495-13.008 4.256a.688.688 0 0 0-.443.89.74.74 0 0 0 .925.442l10.471-3.426-7.292 7.67a.714.714 0 0 0 .051 1.031.77.77 0 0 0 1.064-.035l9.169-9.645 13.818-4.521a.688.688 0 0 0 .443-.89.74.74 0 0 0-.925-.442l-11.281 3.691 9.349-9.834 4.62 6.844-26.247 16.4-5.721-8.478 23.207-14.5a.71.71 0 0 0 .214-1.007.774.774 0 0 0-1.044-.222l-23.835 14.894z"/>
            </mask>
            <path d="m220.984 108.561-1.255.788 1.255-.788zm.214-1.007-.827-1.231.827 1.231zm6.337 10.713 1.255-.788-1.255.788zm1.043.222-.826-1.231.826 1.231zm27.504-17.186.826 1.231-.826-1.231zm.214-1.007 1.255-.788-1.255.788zm-5.569-8.25-1.255.788 1.255-.788zm-.57-.333-.117 1.454.117-1.454zm-.616.228 1.113.998-1.113-.998zm-11.878 12.495.498 1.384a1.49 1.49 0 0 0 .614-.386l-1.112-.998zm-13.008 4.256.498 1.384-.498-1.384zm.482 1.332.498 1.384-.498-1.384zm10.471-3.426 1.112.998a1.423 1.423 0 0 0 .142-1.787 1.543 1.543 0 0 0-1.752-.595l.498 1.384zm-7.292 7.67 1.112.998-1.112-.998zm1.115.996-1.112-.997 1.112.997zm9.169-9.645-.498-1.384a1.49 1.49 0 0 0-.614.386l1.112.998zm13.818-4.521-.498-1.384.498 1.384zm.443-.89-1.419.467 1.419-.467zm-.925-.442-.497-1.384.497 1.384zm-11.281 3.691-1.112-.998a1.422 1.422 0 0 0-.142 1.787c.38.563 1.102.808 1.752.595l-.498-1.384zm9.349-9.834 1.255-.789a1.536 1.536 0 0 0-1.138-.665 1.511 1.511 0 0 0-1.229.456l1.112.998zm4.62 6.844.826 1.231c.334-.209.567-.539.647-.918a1.432 1.432 0 0 0-.218-1.101l-1.255.788zm-26.247 16.4-1.255.788a1.543 1.543 0 0 0 2.082.443l-.827-1.231zm-5.721-8.478-.827-1.23a1.434 1.434 0 0 0-.647.917c-.081.379-.002.775.218 1.102l1.256-.789zm23.207-14.5-.827-1.23.827 1.23zm.214-1.007 1.255-.789-1.255.789zm-1.044-.222.827 1.23-.827-1.23zm-22.794 15.112a.715.715 0 0 1-.215 1.012l-1.653-2.461a2.135 2.135 0 0 0-.642 3.026l2.51-1.577zm6.551 9.707-6.551-9.707-2.51 1.577 6.551 9.706 2.51-1.576zm-1.038-.221a.768.768 0 0 1 1.038.221l-2.51 1.576a2.316 2.316 0 0 0 3.125.664l-1.653-2.461zm27.503-17.185-27.503 17.185 1.653 2.461 27.503-17.185-1.653-2.461zm-.215 1.011a.714.714 0 0 1 .215-1.011l1.653 2.461a2.135 2.135 0 0 0 .643-3.026l-2.511 1.576zm-5.568-8.25 5.568 8.25 2.511-1.576-5.568-8.25-2.511 1.576zm.568.332a.767.767 0 0 1-.568-.332l2.511-1.576a2.308 2.308 0 0 0-1.709-.999l-.234 2.907zm.614-.227a.755.755 0 0 1-.614.228l.234-2.908a2.267 2.267 0 0 0-1.845.684l2.225 1.996zm-11.879 12.495 11.879-12.495-2.225-1.996-11.878 12.496 2.224 1.995zm-13.622 4.642 13.008-4.256-.996-2.768-13.008 4.256.996 2.768zm.478-.961a.743.743 0 0 1-.478.961l-.996-2.768c-1.161.381-1.774 1.607-1.364 2.741l2.838-.934zm-.992-.475a.795.795 0 0 1 .992.475l-2.838.934c.409 1.132 1.682 1.739 2.842 1.359l-.996-2.768zm10.471-3.426-10.471 3.426.996 2.768 10.47-3.426-.995-2.768zm-5.682 10.052 7.292-7.67-2.225-1.995-7.291 7.67 2.224 1.995zm-.05-1.035a.718.718 0 0 1 .05 1.035l-2.224-1.995c-.841.884-.771 2.271.152 3.096l2.022-2.136zm-1.059.036a.765.765 0 0 1 1.059-.036l-2.022 2.136c.921.823 2.347.778 3.187-.105l-2.224-1.995zm9.169-9.646-9.169 9.646 2.224 1.995 9.169-9.645-2.224-1.996zm14.432-4.907-13.818 4.521.996 2.768 13.818-4.521-.996-2.768zm-.478.961a.744.744 0 0 1 .478-.961l.996 2.768c1.162-.381 1.774-1.607 1.364-2.741l-2.838.934zm.992.475a.796.796 0 0 1-.992-.475l2.838-.934c-.409-1.132-1.682-1.739-2.841-1.36l.995 2.769zm-11.281 3.691 11.281-3.691-.995-2.768-11.282 3.691.996 2.768zm7.739-12.216-9.349 9.834 2.224 1.996 9.349-9.835-2.224-1.995zm6.987 7.054-4.62-6.845-2.51 1.577 4.62 6.845 2.51-1.577zm-26.675 18.419 26.246-16.4-1.653-2.461-26.246 16.4 1.653 2.461zm-7.804-8.92 5.722 8.477 2.511-1.576-5.722-8.478-2.511 1.577zm23.636-16.52-23.207 14.501 1.653 2.461 23.207-14.5-1.653-2.462zm-.215 1.012a.715.715 0 0 1 .215-1.012l1.653 2.461a2.134 2.134 0 0 0 .643-3.026l-2.511 1.577zm1.039.22a.77.77 0 0 1-1.039-.22l2.511-1.577a2.316 2.316 0 0 0-3.125-.663l1.653 2.46zm-23.836 14.894L245.86 93.89l-1.653-2.46-23.836 14.893 1.653 2.461z" fill="#3D4E76" mask="url(#i1bkifaijg)"/>
            <path d="M265.618 121.887h-11.676v11.465h13.994v-9.745l-11.538 7.451" stroke="#3D4E76" stroke-width="1.482" stroke-linecap="round" stroke-linejoin="round"/>
            <path d="m256.041 123.91 9.796 7.419" stroke="#3D4E76" stroke-width="1.344" stroke-linecap="round"/>
            <path d="M227.618 121.887h-11.676v11.465h13.994v-9.745l-11.538 7.451" stroke="#3D4E76" stroke-width="1.482" stroke-linecap="round" stroke-linejoin="round"/>
            <path d="m218.041 123.91 9.796 7.419" stroke="#3D4E76" stroke-width="1.344" stroke-linecap="round"/>
            <path d="M274.618 91.02h-11.676v11.466h13.994v-9.745l-11.538 7.451" stroke="#3D4E76" stroke-width="1.482" stroke-linecap="round" stroke-linejoin="round"/>
            <path d="m265.041 93.044 9.796 7.419" stroke="#3D4E76" stroke-width="1.344" stroke-linecap="round"/>
            <path d="M208.542 137.477h-11.676v11.465h13.994v-9.745l-11.538 7.452" stroke="#3D4E76" stroke-width="1.482" stroke-linecap="round" stroke-linejoin="round"/>
            <path d="m198.965 139.5 9.796 7.419" stroke="#3D4E76" stroke-width="1.344" stroke-linecap="round"/>
            <path d="M266.618 106.454h-11.676v11.465h13.994v-9.745l-11.538 7.451" stroke="#3D4E76" stroke-width="1.482" stroke-linecap="round" stroke-linejoin="round"/>
            <path d="m257.041 108.477 9.796 7.419" stroke="#3D4E76" stroke-width="1.344" stroke-linecap="round"/>
            <path d="M283.618 121.887h-11.676v11.465h13.994v-9.745l-11.538 7.451" stroke="#3D4E76" stroke-width="1.482" stroke-linecap="round" stroke-linejoin="round"/>
            <path d="m274.041 123.91 9.796 7.419" stroke="#3D4E76" stroke-width="1.344" stroke-linecap="round"/>
            <path d="M246.618 121.887h-11.676v11.465h13.994v-9.745l-11.538 7.451" stroke="#3D4E76" stroke-width="1.482" stroke-linecap="round" stroke-linejoin="round"/>
            <path d="m237.041 123.91 9.796 7.419" stroke="#3D4E76" stroke-width="1.344" stroke-linecap="round"/>
            <path d="M284.618 106.454h-11.676v11.465h13.994v-9.745l-11.538 7.451" stroke="#3D4E76" stroke-width="1.482" stroke-linecap="round" stroke-linejoin="round"/>
            <path d="m275.041 108.477 9.796 7.419" stroke="#3D4E76" stroke-width="1.344" stroke-linecap="round"/>
            <path d="M163.28 53.223h13.994M293.426 53.223h13.994M163.28 43.107h13.994M293.426 43.107h13.994" stroke="#3D4E76" stroke-width="1.482" stroke-linecap="round" stroke-linejoin="round"/>
            <path fill-rule="evenodd" clip-rule="evenodd" d="M179.373 61.942h111.953V28.22H179.373v33.72z" fill="#fff"/>
            <g clip-path="url(#u3cjh5jy8h)">
                <path d="M208.636 39.564c-.698-.349-1.402-.524-2.11-.524-.503 0-.914.118-1.232.355-.318.225-.477.518-.477.877 0 .647.426 1.13 1.278 1.448 1.273.472 2.176.97 2.71 1.494.534.513.801 1.15.801 1.91 0 .923-.354 1.647-1.063 2.17-.575.432-1.288.648-2.14.648-1.017 0-2.074-.35-3.173-1.048l.616-.877c.688.42 1.489.631 2.403.631 1.252 0 1.879-.529 1.879-1.586 0-.822-.529-1.412-1.587-1.771-1.108-.38-1.914-.801-2.417-1.263-.493-.462-.74-1.021-.74-1.679 0-.78.303-1.406.909-1.878.554-.432 1.283-.647 2.187-.647 1.016 0 1.94.287 2.772.862l-.616.878zm10.492 4.112c0 2.844-1.191 4.266-3.573 4.266-2.382 0-3.573-1.422-3.573-4.266v-5.667h1.448v5.99c0 1.807.708 2.71 2.125 2.71s2.125-.903 2.125-2.71v-5.99h1.448v5.667zm2.765 4.08v-9.732a17.17 17.17 0 0 1 2.495-.2c2.361 0 3.542.996 3.542 2.987 0 1.078-.36 1.895-1.078 2.449-.586.452-1.335.678-2.249.678-.441 0-.867-.036-1.278-.108v3.927h-1.432zm1.432-8.685v3.604c.411.072.837.108 1.278.108 1.212 0 1.817-.657 1.817-1.972 0-1.232-.651-1.848-1.955-1.848-.473 0-.852.036-1.14.108zm6.764 8.686v-9.733a17.18 17.18 0 0 1 2.495-.2c2.361 0 3.542.996 3.542 2.987 0 1.078-.359 1.895-1.078 2.449-.585.452-1.335.678-2.248.678-.442 0-.868-.036-1.279-.108v3.927h-1.432zm1.432-8.686v3.604c.411.072.837.108 1.279.108 1.211 0 1.817-.657 1.817-1.972 0-1.232-.652-1.848-1.956-1.848-.472 0-.852.036-1.14.108zm6.764 8.686v-9.748h1.433v8.562h3.773v1.186h-5.206zm8.696-9.748v9.748h-1.417v-9.748h1.417zm2.656 0h5.944v1.185h-4.512v2.911h3.789v1.186h-3.789v3.28h4.713v1.186h-6.145v-9.748zm8.229 9.748v-9.733a17.18 17.18 0 0 1 2.495-.2c2.361 0 3.542.996 3.542 2.987 0 1.294-.534 2.208-1.602 2.742l1.941 4.204h-1.448l-1.755-3.85a4.15 4.15 0 0 1-.586.03c-.359 0-.744-.035-1.155-.107v3.927h-1.432zm1.432-8.686v3.604c.411.072.796.108 1.155.108 1.294 0 1.941-.657 1.941-1.972 0-1.232-.652-1.848-1.956-1.848-.472 0-.852.036-1.14.108zm11.524.493c-.698-.349-1.401-.524-2.11-.524-.503 0-.913.118-1.232.355-.318.225-.477.518-.477.877 0 .647.426 1.13 1.278 1.448 1.273.472 2.177.97 2.711 1.494.534.513.8 1.15.8 1.91 0 .923-.354 1.647-1.062 2.17-.575.432-1.289.648-2.141.648-1.016 0-2.074-.35-3.172-1.048l.616-.877c.688.42 1.489.631 2.402.631 1.253 0 1.879-.529 1.879-1.586 0-.822-.529-1.412-1.586-1.771-1.109-.38-1.915-.801-2.418-1.263-.493-.462-.739-1.021-.739-1.679 0-.78.303-1.406.908-1.878.555-.432 1.284-.647 2.187-.647 1.017 0 1.941.287 2.772.862l-.616.878z" fill="#01B8B6"/>
            </g>
            <path d="M44.522 67.36c-.698-.35-1.401-.524-2.11-.524-.503 0-.914.118-1.232.354-.318.226-.477.519-.477.878 0 .647.426 1.13 1.278 1.448 1.273.472 2.176.97 2.71 1.493.534.514.801 1.15.801 1.91 0 .924-.354 1.648-1.062 2.171-.575.432-1.289.647-2.141.647-1.016 0-2.074-.349-3.172-1.047l.616-.878c.687.421 1.488.632 2.402.632 1.253 0 1.879-.53 1.879-1.587 0-.821-.529-1.411-1.586-1.77-1.11-.38-1.915-.801-2.418-1.263-.493-.462-.74-1.022-.74-1.679 0-.78.303-1.407.91-1.879.554-.431 1.282-.647 2.186-.647 1.016 0 1.94.288 2.772.863l-.616.878zm10.492 4.111c0 2.844-1.191 4.266-3.573 4.266-2.382 0-3.573-1.422-3.573-4.266v-5.667h1.448v5.99c0 1.808.708 2.711 2.125 2.711s2.125-.903 2.125-2.71v-5.99h1.448v5.666zm2.765 4.081V65.82a17.16 17.16 0 0 1 2.495-.2c2.361 0 3.542.995 3.542 2.987 0 1.078-.36 1.894-1.078 2.449-.585.451-1.335.677-2.248.677a7.41 7.41 0 0 1-1.279-.108v3.927H57.78zm1.432-8.685v3.603c.41.072.837.108 1.279.108 1.21 0 1.817-.657 1.817-1.971 0-1.232-.652-1.848-1.956-1.848-.472 0-.852.036-1.14.108zm6.764 8.685V65.82a17.16 17.16 0 0 1 2.495-.2c2.362 0 3.542.995 3.542 2.987 0 1.078-.36 1.894-1.078 2.449-.585.451-1.334.677-2.248.677a7.41 7.41 0 0 1-1.278-.108v3.927h-1.433zm1.433-8.685v3.603c.41.072.836.108 1.278.108 1.211 0 1.817-.657 1.817-1.971 0-1.232-.652-1.848-1.956-1.848-.472 0-.852.036-1.14.108zm6.764 8.685v-9.748h1.432v8.563h3.773v1.185h-5.205zm8.695-9.748v9.748h-1.416v-9.748h1.416zm2.656 0h5.945v1.186h-4.513v2.91h3.789v1.186h-3.789v3.28h4.713v1.186h-6.145v-9.748zm8.23 9.748V65.82c.903-.134 1.735-.2 2.494-.2 2.362 0 3.542.995 3.542 2.987 0 1.294-.534 2.207-1.601 2.741l1.94 4.204H98.68l-1.755-3.85a4.15 4.15 0 0 1-.585.031c-.36 0-.745-.036-1.155-.108v3.927h-1.433zm1.432-8.685v3.603c.41.072.795.108 1.155.108 1.293 0 1.94-.657 1.94-1.971 0-1.232-.652-1.848-1.956-1.848-.472 0-.852.036-1.14.108zm11.523.493c-.698-.35-1.401-.524-2.109-.524-.503 0-.914.118-1.232.354-.319.226-.478.519-.478.878 0 .647.426 1.13 1.278 1.448 1.274.472 2.177.97 2.711 1.493.534.514.801 1.15.801 1.91 0 .924-.355 1.648-1.063 2.171-.575.432-1.288.647-2.141.647-1.016 0-2.073-.349-3.172-1.047l.616-.878c.688.421 1.489.632 2.402.632 1.253 0 1.879-.53 1.879-1.587 0-.821-.528-1.411-1.586-1.77-1.109-.38-1.915-.801-2.418-1.263-.493-.462-.739-1.022-.739-1.679 0-.78.303-1.407.909-1.879.554-.431 1.283-.647 2.186-.647 1.017 0 1.941.288 2.772.863l-.616.878z" fill="#3D4E76"/>
        </g>
    </g>
    <defs>
        <linearGradient id="fgl71tuxwc" x1="42.001" y1="61.649" x2="106" y2="61.649" gradientUnits="userSpaceOnUse">
            <stop stop-color="#FDBC11"/>
            <stop offset="1" stop-color="#F6931D"/>
        </linearGradient>
        <linearGradient id="c4i3gyhpad" x1="375.131" y1="-91.822" x2="-433.24" y2="-153.756" gradientUnits="userSpaceOnUse">
            <stop stop-color="#1C6FC4"/>
            <stop offset="1" stop-color="#01B8B6"/>
        </linearGradient>
        <clipPath id="2rf4g33l5a">
            <path fill="#fff" transform="translate(0 .984)" d="M0 0h343v231.492H0z"/>
        </clipPath>
        <clipPath id="u3cjh5jy8h">
            <path fill="#fff" transform="translate(204.114 37.757)" d="M0 0h66v14.468H0z"/>
        </clipPath>
    </defs>
</svg>
