<svg width="215" height="340" viewBox="0 0 215 340" fill="none" xmlns="http://www.w3.org/2000/svg">
    <rect x=".5" y=".5" width="214" height="339" rx="3.5" fill="#fff" stroke="#EDEDED"/>
    <path d="M63.802 61.2h-7.9v-5h7.9v-8.9h5.85v8.9h7.95v5h-7.95V70h-5.85v-8.8zm26.752-5.35h-4.75v-5.3h4.75c1.333 0 2.25-.183 2.75-.55.767-.567 1.15-1.583 1.15-3.05 0-1.133-.333-2.033-1-2.7-.667-.7-1.567-1.05-2.7-1.05-2.033 0-4.15.933-6.35 2.8l-2.4-4.2c2.767-2.7 5.9-4.05 9.4-4.05 2.933 0 5.333.817 7.2 2.45 1.8 1.6 2.7 3.667 2.7 6.2 0 3.133-1.3 5.233-3.9 6.3 3.367 1.3 5.05 3.8 5.05 7.5 0 3.9-1.333 6.733-4 8.5-1.867 1.233-4.2 1.85-7 1.85-1.533 0-3.283-.4-5.25-1.2-1.933-.833-3.517-1.833-4.75-3l2.65-3.95c1.8 1.633 4.1 2.45 6.9 2.45 1.433 0 2.567-.4 3.4-1.2.833-.833 1.25-1.95 1.25-3.35 0-2.967-1.7-4.45-5.1-4.45zm27.797-18.1c3.866 0 6.966 1.85 9.3 5.55 1.966 3.067 2.95 6.717 2.95 10.95 0 5.1-1.25 9.183-3.75 12.25-2.2 2.733-5.034 4.1-8.5 4.1-3.967 0-7.067-1.767-9.3-5.3-1.867-2.933-2.8-6.617-2.8-11.05 0-4.933 1.233-8.983 3.7-12.15 2.233-2.9 5.033-4.35 8.4-4.35zm.1 5.6c-3.6 0-5.4 3.533-5.4 10.6 0 3.567.516 6.367 1.55 8.4.933 1.833 2.166 2.75 3.7 2.75 1.7 0 3.033-.983 4-2.95 1-2 1.5-4.733 1.5-8.2 0-7.067-1.784-10.6-5.35-10.6zm28.073-5.6c3.867 0 6.967 1.85 9.3 5.55 1.967 3.067 2.95 6.717 2.95 10.95 0 5.1-1.25 9.183-3.75 12.25-2.2 2.733-5.033 4.1-8.5 4.1-3.966 0-7.066-1.767-9.3-5.3-1.866-2.933-2.8-6.617-2.8-11.05 0-4.933 1.234-8.983 3.7-12.15 2.234-2.9 5.034-4.35 8.4-4.35zm.1 5.6c-3.6 0-5.4 3.533-5.4 10.6 0 3.567.517 6.367 1.55 8.4.934 1.833 2.167 2.75 3.7 2.75 1.7 0 3.034-.983 4-2.95 1-2 1.5-4.733 1.5-8.2 0-7.067-1.783-10.6-5.35-10.6z" fill="url(#7clc9s5ysa)"/>
    <path d="M34.941 157.96c-.522 0-.784-.267-.784-.8 0-.523.262-.784.784-.784.512 0 .768.261.768.784 0 .533-.256.8-.768.8zm2.032 0c-.522 0-.784-.267-.784-.8 0-.523.262-.784.784-.784.512 0 .768.261.768.784 0 .533-.256.8-.768.8zm2.976 7.744h1.056V167H39.79c-1.098 0-1.888-.405-2.368-1.216-.512.491-1.146.736-1.904.736-.938 0-1.685-.352-2.24-1.056-.458-.597-.688-1.328-.688-2.192 0-1.035.315-1.867.944-2.496a2.63 2.63 0 0 1 1.952-.816c.587 0 1.094.149 1.52.448v-.688l1.392-.736v5.12c0 1.067.518 1.6 1.552 1.6zm-2.944-3.808a1.886 1.886 0 0 0-1.456-.656c-.469 0-.853.192-1.152.576-.298.373-.448.864-.448 1.472 0 .619.15 1.115.448 1.488.299.373.688.56 1.168.56.598 0 1.088-.245 1.472-.736a4.31 4.31 0 0 1-.032-.448v-2.256zm11.798 3.808h.912V167H48.66c-.896 0-1.594-.277-2.096-.832-.501.555-1.2.832-2.096.832h-4.416v-1.296h4.288c1.024 0 1.536-.539 1.536-1.616v-.144c0-.8-.31-1.408-.928-1.824-.49-.341-1.093-.512-1.808-.512-.565 0-1.13.107-1.696.32v-1.36l3.504-3.888h1.408l-3.152 3.552h.096c1.216 0 2.198.368 2.944 1.104.672.683 1.008 1.547 1.008 2.592v.176c0 1.067.518 1.6 1.552 1.6zm5.407 0h1.056V167H54.05c-.917 0-1.626-.293-2.128-.88-.533.587-1.269.88-2.208.88h-.96v-1.296h.848c1.11 0 1.664-.581 1.664-1.744v-6.544l1.392-.736v7.296c0 .619.118 1.061.352 1.328.246.267.646.4 1.2.4zm10.395 0h1.072V167h-1.216c-.885 0-1.584-.283-2.096-.848-.544.779-1.338 1.168-2.384 1.168-1.045 0-1.834-.384-2.368-1.152-.501.555-1.2.832-2.096.832h-1.216v-1.296h1.056c1.046 0 1.568-.533 1.568-1.6v-.528c0-1.237.304-2.187.912-2.848.534-.587 1.248-.88 2.144-.88 1.024 0 1.814.379 2.368 1.136.47.651.704 1.515.704 2.592v.528c0 1.067.518 1.6 1.552 1.6zm-4.624.32c.523 0 .934-.219 1.232-.656.31-.437.464-1.04.464-1.808 0-1.621-.565-2.432-1.696-2.432-1.12 0-1.68.811-1.68 2.432 0 1.643.56 2.464 1.68 2.464zm15.046-.32H76.1V167h-1.216c-.885 0-1.584-.283-2.096-.848-.544.779-1.339 1.168-2.384 1.168s-1.835-.384-2.368-1.152c-.501.555-1.2.832-2.096.832h-1.216v-1.296h1.056c1.046 0 1.568-.533 1.568-1.6v-.528c0-1.237.304-2.187.912-2.848.534-.587 1.248-.88 2.144-.88 1.024 0 1.813.379 2.368 1.136.47.651.704 1.515.704 2.592v.528c0 1.067.518 1.6 1.552 1.6zm-4.624.32c.523 0 .933-.219 1.232-.656.31-.437.464-1.04.464-1.808 0-1.621-.565-2.432-1.696-2.432-1.12 0-1.68.811-1.68 2.432 0 1.643.56 2.464 1.68 2.464zm4.742.976v-1.296h.848c1.11 0 1.664-.581 1.664-1.744v-6.544l1.392-.736v7.296c0 .949-.283 1.701-.848 2.256-.533.512-1.232.768-2.096.768h-.96zm6.78 0v-9.584l1.375-.736V167h-1.376zm7.104.928V166.6c.384-.288.912-.496 1.584-.624-.48-.725-.72-1.493-.72-2.304 0-1.013.293-1.829.88-2.448.533-.576 1.226-.864 2.08-.864.928 0 1.696.373 2.304 1.12v1.328c-.683-.789-1.43-1.184-2.24-1.184-.502 0-.902.181-1.2.544-.299.352-.448.832-.448 1.44 0 .875.304 1.6.912 2.176.277-.021.474-.032.592-.032 1.365-.043 2.448-.357 3.248-.944v1.28c-.907.608-2.09.912-3.552.912-1.43 0-2.576.309-3.44.928zm12.023-.928c-.928 0-1.643-.299-2.144-.896-.427-.512-.64-1.163-.64-1.952v-6.736l1.376-.736v7.424c0 1.067.523 1.6 1.568 1.6h1.056V167h-1.216zm10.681-1.296h1.04V167h-1.056c-.864 0-1.557-.096-2.08-.288-.522-.203-1.008-.555-1.456-1.056-1.344.896-2.912 1.344-4.704 1.344h-2.176v-1.296h2.192c2.166 0 3.878-.715 5.136-2.144-.885-1.632-1.962-2.448-3.232-2.448-.864 0-1.754.459-2.672 1.376v-1.28c.896-.907 1.846-1.36 2.848-1.36.822 0 1.616.299 2.384.896.768.587 1.446 1.429 2.032 2.528v.704c-.33.416-.645.752-.944 1.008.576.48 1.472.72 2.688.72zm3.348-7.584c-.523 0-.784-.267-.784-.8 0-.523.261-.784.784-.784.512 0 .768.261.768.784 0 .533-.256.8-.768.8zm-3.264 8.88v-1.296h1.056c1.045 0 1.568-.533 1.568-1.6v-3.312l1.376-.736v4.096c0 .907-.272 1.621-.816 2.144-.501.469-1.157.704-1.968.704h-1.216zm6.025-10.544.368-.688h.432a1.2 1.2 0 0 1-.16-.592c0-.32.117-.592.352-.816.235-.235.512-.352.832-.352.267 0 .523.085.768.256v.704c-.235-.181-.459-.272-.672-.272-.395 0-.592.176-.592.528 0 .181.075.363.224.544h1.456l-.368.688h-2.64zM118.69 167v-8.944l1.376-.736V167h-1.376zm11.568-.384c-1.013.608-1.626 1.024-1.84 1.248-.426.416-.64.933-.64 1.552 0 .683.235 1.232.704 1.648.47.427 1.078.64 1.824.64 1.174-.011 2.155-.293 2.944-.848v1.296a5.627 5.627 0 0 1-3.008.848c-1.184 0-2.133-.389-2.848-1.168-.618-.661-.928-1.477-.928-2.448 0-.725.192-1.344.576-1.856.384-.501 1.062-1.029 2.032-1.584-.874-.64-1.77-1.643-2.688-3.008v-.704c.523-.747 1.136-1.328 1.84-1.744.704-.427 1.419-.64 2.144-.64.715 0 1.43.219 2.144.656.715.427 1.328 1.013 1.84 1.76v.672c-.544.821-1.445 1.733-2.704 2.736.235.021.422.032.56.032h4.224l.016 1.296h-4.352a4.631 4.631 0 0 1-1.84-.384zm-2.592-4.016c.96 1.312 1.835 2.181 2.624 2.608a12.258 12.258 0 0 0 2.784-2.64c-.789-.96-1.69-1.445-2.704-1.456-1.024 0-1.925.496-2.704 1.488zm13.391 3.104h1.056V167h-1.216c-.886 0-1.584-.283-2.096-.848-.512.565-1.211.848-2.096.848h-1.216v-1.296h1.056c1.045 0 1.568-.533 1.568-1.6v-3.312l1.376-.736v4.048c0 1.067.522 1.6 1.568 1.6zm-3.824 2.896c.512 0 .768.267.768.8 0 .523-.256.784-.768.784-.523 0-.784-.261-.784-.784 0-.533.261-.8.784-.8zm2.032 0c.512 0 .768.267.768.8 0 .523-.256.784-.768.784-.523 0-.784-.261-.784-.784 0-.533.261-.8.784-.8zm12.184-2.896h1.072V167h-1.216c-.885 0-1.584-.283-2.096-.848-.544.779-1.339 1.168-2.384 1.168s-1.835-.384-2.368-1.152c-.501.555-1.2.832-2.096.832h-1.216v-1.296h1.056c1.045 0 1.568-.533 1.568-1.6v-.528c0-1.237.304-2.187.912-2.848.533-.587 1.248-.88 2.144-.88 1.024 0 1.813.379 2.368 1.136.469.651.704 1.515.704 2.592v.528c0 1.067.517 1.6 1.552 1.6zm-4.624.32c.523 0 .933-.219 1.232-.656.309-.437.464-1.04.464-1.808 0-1.621-.565-2.432-1.696-2.432-1.12 0-1.68.811-1.68 2.432 0 1.643.56 2.464 1.68 2.464zm4.742.976v-1.296h2.192c2.165 0 3.877-.715 5.136-2.144-.885-1.632-1.963-2.448-3.232-2.448-.864 0-1.755.459-2.672 1.376v-1.28c.896-.907 1.845-1.36 2.848-1.36.821 0 1.616.299 2.384.896.768.587 1.445 1.429 2.032 2.528v.704c-1.568 2.016-3.739 3.024-6.512 3.024h-2.176zm4.688 3.184c-.523 0-.784-.267-.784-.8 0-.523.261-.784.784-.784.512 0 .768.261.768.784 0 .533-.256.8-.768.8zM175.469 167c-.107.939-.619 1.691-1.536 2.256-.853.523-1.941.784-3.264.784-1.685 0-2.955-.491-3.808-1.472-.629-.725-.944-1.621-.944-2.688 0-.896.224-1.664.672-2.304l1.328-.288a4.488 4.488 0 0 0-.72 2.448c0 .949.309 1.696.928 2.24.608.544 1.456.816 2.544.816.917 0 1.675-.16 2.272-.48.597-.32.96-.757 1.088-1.312h-1.6l.672-1.296h2.416V167h-.048zm-5.872 5.872c-.523 0-.784-.267-.784-.8 0-.523.261-.784.784-.784.512 0 .768.261.768.784 0 .533-.256.8-.768.8zm2.032 0c-.523 0-.784-.267-.784-.8 0-.523.261-.784.784-.784.512 0 .768.261.768.784 0 .533-.256.8-.768.8zm8.263-14.656c-.522 0-.784-.267-.784-.8 0-.523.262-.784.784-.784.512 0 .768.261.768.784 0 .533-.256.8-.768.8zM174.676 167v-1.296h2.88c-.49-.544-.736-1.301-.736-2.272 0-1.163.304-2.069.912-2.72.534-.576 1.243-.864 2.128-.864.907 0 1.611.283 2.112.848.427.501.64 1.157.64 1.968v1.52c-.01.885-.272 1.584-.784 2.096-.501.48-1.168.72-2 .72h-5.152zm6.56-4.272c0-1.067-.458-1.6-1.376-1.6-.522 0-.933.203-1.232.608-.298.395-.448.949-.448 1.664 0 .704.144 1.264.432 1.68.288.416.672.624 1.152.624.982 0 1.472-.512 1.472-1.536v-1.44zM72.417 103.52c-1.267.76-2.034 1.28-2.3 1.56-.534.52-.8 1.167-.8 1.94 0 .853.293 1.54.88 2.06.586.533 1.346.8 2.28.8 1.466-.013 2.693-.367 3.68-1.06v1.62a7.028 7.028 0 0 1-3.76 1.06c-1.48 0-2.667-.487-3.56-1.46-.774-.827-1.16-1.847-1.16-3.06 0-.907.24-1.68.72-2.32.48-.627 1.326-1.287 2.54-1.98-1.094-.8-2.214-2.053-3.36-3.76v-.88c.653-.933 1.42-1.66 2.3-2.18.88-.533 1.773-.8 2.68-.8.893 0 1.786.273 2.68.82.893.533 1.66 1.267 2.3 2.2v.84c-.68 1.027-1.807 2.167-3.38 3.42.293.027.526.04.7.04h5.28l.02 1.62h-5.44c-.787 0-1.554-.16-2.3-.48zm-3.24-5.02c1.2 1.64 2.293 2.727 3.28 3.26 1.293-.88 2.453-1.98 3.48-3.3-.987-1.2-2.114-1.807-3.38-1.82-1.28 0-2.407.62-3.38 1.86zm27.658 3.88h1.32V104h-1.52c-1.067 0-1.9-.313-2.5-.94-.547.627-1.32.94-2.32.94h-12.86v-1.62h3.72l.06-.22V92.02l1.72-.92v7.32c1.52-2.24 3.406-3.36 5.66-3.36 1.506 0 2.713.527 3.62 1.58.773.893 1.16 1.993 1.16 3.3v.48c0 1.307.646 1.96 1.94 1.96zm-3.68-1.88v-.56c0-1.04-.32-1.867-.96-2.48-.547-.533-1.234-.8-2.06-.8-1.374 0-2.614.62-3.72 1.86-.827.933-1.48 2.1-1.96 3.5v.36h7.22c.573 0 .96-.133 1.16-.4.213-.267.32-.76.32-1.48zm9.028-7.46c-.654 0-.98-.333-.98-1 0-.653.326-.98.98-.98.64 0 .96.327.96.98 0 .667-.32 1-.96 1zm2.54 0c-.654 0-.98-.333-.98-1 0-.653.326-.98.98-.98.64 0 .96.327.96.98 0 .667-.32 1-.96 1zM96.963 104v-1.62h3.6c-.614-.68-.92-1.627-.92-2.84 0-1.453.38-2.587 1.14-3.4.666-.72 1.553-1.08 2.659-1.08 1.134 0 2.014.353 2.641 1.06.533.627.8 1.447.8 2.46v1.9c-.014 1.107-.34 1.98-.98 2.62-.627.6-1.46.9-2.5.9h-6.44zm8.2-5.34c0-1.333-.574-2-1.721-2-.653 0-1.166.253-1.539.76-.374.493-.56 1.187-.56 2.08 0 .88.18 1.58.54 2.1.36.52.84.78 1.44.78 1.226 0 1.84-.64 1.84-1.92v-1.8zm8.185 5.34.84-1.62h3.56c.534 0 .907-.133 1.12-.4.227-.267.34-.727.34-1.38 0-1.787-.806-3.14-2.42-4.06l.84-1.42c2.2 1.253 3.3 3.087 3.3 5.5 0 2.253-.96 3.38-2.88 3.38h-4.7zm13.927-14.66.96-.54v1.62c0 .373-.126.68-.38.92-.253.24-.58.36-.98.36-.346 0-.646-.093-.9-.28-.253.187-.553.28-.9.28-.4 0-.733-.12-1-.36a1.213 1.213 0 0 1-.38-.92v-.62l.98-.54v1.1c0 .267.134.4.4.4.267 0 .4-.113.4-.34v-.88l.98-.54v1.42c0 .227.14.34.42.34.267 0 .4-.133.4-.4v-1.02zm-.187 13.6c0 1.493-.393 2.693-1.18 3.6-.747.867-1.74 1.3-2.98 1.3-.8 0-1.58-.2-2.34-.6v-1.5c.68.373 1.36.56 2.04.56.853 0 1.52-.287 2-.86s.72-1.367.72-2.38v-6.82l1.74-.92v7.62zm12.943-.56V104h-2.48c-.054 1.147-.547 2.093-1.48 2.84-.787.613-1.68.92-2.68.92a4.94 4.94 0 0 1-2.34-.58v-1.52c.706.373 1.406.56 2.1.56.706 0 1.32-.22 1.84-.66.533-.44.806-.967.82-1.58a41.028 41.028 0 0 1-1.54-.08c-1.44-.08-2.527-.567-3.26-1.46-.614-.747-.92-1.713-.92-2.9 0-1.453.386-2.587 1.16-3.4.693-.72 1.606-1.08 2.74-1.08 1.186 0 2.1.353 2.74 1.06.546.627.82 1.447.82 2.46v3.8h2.48zm-4.22-3.68c0-1.36-.607-2.04-1.82-2.04-.694 0-1.234.253-1.62.76-.387.493-.58 1.187-.58 2.08 0 1.747.853 2.673 2.56 2.78.32.04.806.073 1.46.1V98.7zm6.307-.12c0-1.16.346-2.06 1.04-2.7.613-.547 1.413-.82 2.4-.82 1.266 0 2.24.467 2.92 1.4.586.787.88 1.813.88 3.08 0 1.44-.374 2.567-1.12 3.38-.654.72-1.507 1.08-2.56 1.08-1.2 0-2.114-.333-2.74-1-.64.667-1.5 1-2.58 1h-1.521v-1.62h1.321c1.306 0 1.96-.667 1.96-2v-1.8zm1.72 1.94c0 1.24.606 1.86 1.82 1.86.626 0 1.113-.253 1.46-.76.36-.507.54-1.213.54-2.12 0-.893-.187-1.587-.56-2.08-.374-.507-.887-.76-1.54-.76-1.147 0-1.72.667-1.72 2v1.86z" fill="#3D4E76"/>
    <path fill-rule="evenodd" clip-rule="evenodd" d="M32 220.916h15.18v-10.843H32v10.843zM166.459 220.916h15.181v-10.843h-15.181v10.843z" fill="#fff"/>
    <path d="M167.182 230.314V192H47.904v38.314" stroke="#3D4E76" stroke-width="1.18" stroke-linecap="round" stroke-linejoin="round"/>
    <path d="M46.62 199.229H32v31.808h150.363v-25.084M181.64 199.265h-9.398M38.542 237.543v83.404M47.217 237.543l.325 82.772M167.218 237.543v86.025M176.616 237.543v86.025" stroke="#3D4E76" stroke-width="1.18" stroke-linecap="round" stroke-linejoin="round"/>
    <path fill-rule="evenodd" clip-rule="evenodd" d="M125.977 308.955a.6.6 0 0 0-.6.6v12.29a.6.6 0 0 0 .6.6h33.976a.6.6 0 0 0 .6-.6v-10.446a.602.602 0 0 0-.749-.581l-17.639 4.515-13.874-3.468a.6.6 0 0 0-.291 1.164l11.72 2.93-11.452 2.932a.6.6 0 0 0 .297 1.162l13.603-3.482 14.748 3.687a.6.6 0 0 0 .291-1.164l-12.594-3.149 14.74-3.773v9.073h-32.776v-11.09h28.845a.6.6 0 1 0 0-1.2h-29.445zM86.94 308.955a.6.6 0 0 0-.6.6v12.29a.6.6 0 0 0 .6.6h33.977a.6.6 0 0 0 .6-.6v-10.446a.6.6 0 0 0-.749-.581l-17.64 4.515-13.873-3.468a.6.6 0 0 0-.291 1.164l11.72 2.93-11.453 2.932a.6.6 0 1 0 .298 1.162l13.603-3.482 14.747 3.687a.6.6 0 1 0 .291-1.164l-12.594-3.149 14.741-3.773v9.073H87.54v-11.09h28.845a.6.6 0 1 0 0-1.2H86.94z" fill="#3D4E76"/>
    <path d="m117.681 262.193.48.36a.6.6 0 0 0-.807-.863l.327.503zM92.986 278.23l-.327-.503a.602.602 0 0 0-.176.83l.503-.327zm14.646-2.622-.48-.36.48.36zm-7.199 9.61-.48-.36a.6.6 0 0 0 .922.766l-.442-.406zm9.615-10.44-.441-.407.441.407zm12.437-13.506.504-.327a.602.602 0 0 0-.945-.08l.441.407zm5.689 8.76.327.503a.604.604 0 0 0 .177-.83l-.504.327zm-28.495 18.505-.503.327a.6.6 0 0 0 .83.176l-.326-.503zm17.675-26.847-24.695 16.037.654 1.006 24.695-16.037-.654-1.006zm-9.241 14.277 10.048-13.414-.96-.72-10.049 13.415.961.719zm-7.2 9.611 7.2-9.611-.961-.719-7.199 9.61.96.72zm8.694-11.207-9.615 10.441.883.812 9.614-10.44-.882-.813zm12.437-13.506-12.437 13.506.882.813 12.438-13.506-.883-.813zm6.634 8.84-5.689-8.76-1.007.654 5.689 8.76 1.007-.654zm-28.672 19.335 28.495-18.505-.653-1.006-28.495 18.505.653 1.006zm-7.523-10.483 6.693 10.307 1.007-.654-6.694-10.307-1.006.654z" fill="#3D4E76"/>
    <path fill-rule="evenodd" clip-rule="evenodd" d="M125.977 292.329a.6.6 0 0 0-.6.6v12.289a.6.6 0 0 0 .6.6h14.458a.6.6 0 0 0 .6-.6v-10.445a.6.6 0 0 0-.934-.499l-6.104 4.09-4.758-3.738a.599.599 0 1 0-.741.943l4.451 3.497-4.768 3.195a.6.6 0 1 0 .668.997l5.092-3.412 4.677 3.675a.6.6 0 1 0 .742-.943l-4.371-3.434 4.846-3.247v8.721h-13.258v-11.089h11.463a.6.6 0 0 0 0-1.2h-12.063zM86.94 292.329a.6.6 0 0 0-.6.6v12.289a.6.6 0 0 0 .6.6h14.458a.6.6 0 0 0 .6-.6v-10.445a.602.602 0 0 0-.934-.499l-6.103 4.09-4.758-3.738a.6.6 0 1 0-.742.943l4.451 3.497-4.768 3.195a.6.6 0 1 0 .668.997l5.092-3.412 4.678 3.675a.599.599 0 1 0 .741-.943l-4.37-3.434 4.845-3.247v8.721H87.54v-11.089h11.464a.6.6 0 0 0 0-1.2H86.94zM136.097 259.075a.6.6 0 0 0-.6.6v12.29a.6.6 0 0 0 .6.6h14.458a.6.6 0 0 0 .6-.6v-10.446a.6.6 0 0 0-.934-.498l-6.494 4.351-5.09-4a.6.6 0 0 0-.742.944l4.784 3.758-4.378 2.934a.6.6 0 1 0 .668.997l4.702-3.151 4.345 3.414a.6.6 0 1 0 .741-.944l-4.037-3.172 5.235-3.508v8.721h-13.258v-11.09h11.464a.6.6 0 1 0 0-1.2h-12.064z" fill="#3D4E76"/>
    <path d="M79.485 309.555H67.422v12.29H81.88v-10.446l-11.92 7.987" stroke="#3D4E76" stroke-width="1.2" stroke-linecap="round" stroke-linejoin="round"/>
    <path d="m69.59 311.724 10.121 7.952" stroke="#3D4E76" stroke-width="1.2" stroke-linecap="round"/>
    <path d="M139.486 276.302h-12.063v12.289h14.458v-10.445l-11.921 7.987" stroke="#3D4E76" stroke-width="1.2" stroke-linecap="round" stroke-linejoin="round"/>
    <path d="m129.591 278.471 10.121 7.952" stroke="#3D4E76" stroke-width="1.2" stroke-linecap="round"/>
    <path fill-rule="evenodd" clip-rule="evenodd" d="M145.495 292.329a.6.6 0 0 0-.6.6v12.289a.6.6 0 0 0 .6.6h14.458a.6.6 0 0 0 .6-.6v-10.445a.6.6 0 0 0-.934-.499l-6.494 4.351-5.091-3.999a.599.599 0 1 0-.741.943l4.784 3.759-4.378 2.933a.6.6 0 0 0 .668.997l4.702-3.151 4.345 3.414a.599.599 0 1 0 .741-.943l-4.038-3.173 5.236-3.508v8.721h-13.258v-11.089h11.463a.6.6 0 1 0 0-1.2h-12.063zM106.458 292.329a.6.6 0 0 0-.6.6v12.289a.6.6 0 0 0 .6.6h14.458a.6.6 0 0 0 .6-.6v-10.445a.602.602 0 0 0-.934-.499l-6.494 4.351-5.09-3.999a.6.6 0 1 0-.742.943l4.784 3.759-4.378 2.933a.6.6 0 1 0 .668.997l4.702-3.151 4.345 3.414a.599.599 0 1 0 .741-.943l-4.037-3.173 5.235-3.508v8.721h-13.258v-11.089h11.464a.6.6 0 0 0 0-1.2h-12.064zM146.218 275.702a.6.6 0 0 0-.6.6v12.289a.6.6 0 0 0 .6.6h14.458a.6.6 0 0 0 .6-.6v-10.445a.598.598 0 0 0-.934-.498l-6.494 4.351-5.091-4a.6.6 0 1 0-.741.944l4.784 3.758-4.378 2.933a.6.6 0 1 0 .668.997l4.702-3.15 4.344 3.413a.6.6 0 1 0 .742-.943l-4.038-3.173 5.236-3.508v8.721h-13.258v-11.089h11.463a.6.6 0 1 0 0-1.2h-12.063z" fill="#3D4E76"/>
    <path d="M32.723 220.229H47.18M167.182 220.229h14.458M32.723 209.386H47.18M167.182 209.386h14.458" stroke="#3D4E76" stroke-width="1.18" stroke-linecap="round" stroke-linejoin="round"/>
    <path fill-rule="evenodd" clip-rule="evenodd" d="M49.35 229.591h115.663v-36.145H49.35v36.145z" fill="#fff"/>
    <path d="M85.574 219.809c-.912.593-1.935.89-3.07.89-1.25 0-2.263-.392-3.037-1.177-.71-.721-1.066-1.638-1.066-2.751 0-.774.196-1.447.589-2.02.403-.572 1.055-1.118 1.956-1.638-.615-.371-1.363-1.081-2.243-2.131a7.701 7.701 0 0 1-.27-.334v-.907a5.455 5.455 0 0 1 1.813-1.701c.742-.424 1.495-.636 2.258-.636.764 0 1.517.217 2.259.652a5.492 5.492 0 0 1 1.845 1.717v.875c-.658.785-1.469 1.479-2.434 2.083.36.053.69.08.986.08h3.452l.015 1.924h-4.596a3.127 3.127 0 0 1-1.59-.413c-.764.35-1.31.715-1.638 1.097-.318.382-.477.838-.477 1.368 0 .604.206 1.087.62 1.447.424.361.991.541 1.702.541a5.403 5.403 0 0 0 2.926-.859v1.893zm-3.085-7.762c.795-.625 1.383-1.256 1.765-1.892-.636-.594-1.23-.891-1.781-.891-.541 0-1.108.297-1.702.891a6.186 6.186 0 0 0 1.718 1.892zm19.029.764h1.432v1.924h-1.622c-.764 0-1.39-.196-1.877-.588-.488.392-1.097.588-1.829.588h-9.956v-1.924h2.847l.19-.541v-6.727l2.005-1.066v4.581c1.081-1.103 2.322-1.654 3.721-1.654 1.262 0 2.264.434 3.006 1.304.636.731.954 1.638.954 2.719v.334c0 .7.377 1.05 1.129 1.05zm-3.975 0c.35 0 .577-.069.683-.207.117-.138.175-.429.175-.875v-.302c0-.636-.185-1.155-.556-1.558-.36-.403-.827-.605-1.4-.605-.731 0-1.431.271-2.1.811-.656.541-1.203 1.289-1.637 2.243v.493h4.835zm8.514-6.537c-.318 0-.573-.095-.763-.286-.191-.191-.287-.45-.287-.779 0-.689.35-1.034 1.05-1.034.318 0 .567.096.747.286.191.181.287.43.287.748 0 .71-.345 1.065-1.034 1.065zm2.449 0c-.318 0-.572-.095-.763-.286-.191-.191-.287-.45-.287-.779 0-.689.35-1.034 1.05-1.034.318 0 .567.096.748.286.19.181.286.43.286.748 0 .71-.345 1.065-1.034 1.065zm-6.505 8.461v-1.924h2.545c-.318-.467-.477-1.05-.477-1.75 0-1.166.318-2.088.954-2.767.573-.594 1.32-.89 2.243-.89.943 0 1.675.302 2.194.906.467.52.7 1.198.7 2.036v1.431c-.011.912-.281 1.633-.811 2.163-.52.53-1.225.795-2.115.795h-5.233zm6.155-4.421c0-.7-.297-1.05-.89-1.05-.817 0-1.225.578-1.225 1.734 0 1.209.392 1.813 1.177 1.813.625 0 .938-.339.938-1.018v-1.479zm7.264 4.421 1.002-1.924h2.512c.541 0 .811-.313.811-.938 0-1.177-.561-2.079-1.685-2.704l.986-1.686c1.802 1.06 2.703 2.534 2.703 4.421 0 1.888-.816 2.831-2.449 2.831h-3.88zm11.627-12.244 1.13-.62v1.638c0 .361-.133.657-.398.891-.255.233-.583.35-.986.35-.329 0-.604-.075-.827-.223a1.482 1.482 0 0 1-.811.223c-.403 0-.732-.117-.986-.35a1.155 1.155 0 0 1-.382-.891v-.684l1.113-.62v1.24c0 .149.09.223.271.223.169 0 .254-.069.254-.207v-.811l1.113-.62v1.431c0 .138.085.207.255.207.17 0 .254-.074.254-.223v-.954zm.087 11.258c0 1.23-.34 2.227-1.018 2.99-.626.71-1.453 1.066-2.481 1.066-.668 0-1.32-.17-1.956-.509v-1.75c.551.308 1.092.462 1.622.462.583 0 1.034-.191 1.352-.573.328-.371.493-.891.493-1.559v-5.136l1.988-1.066v6.075zm10.422-.938v1.924H135.6c-.074.954-.498 1.718-1.272 2.29-.636.467-1.379.7-2.227.7-.668 0-1.32-.18-1.956-.541v-1.733c.573.329 1.145.493 1.718.493.445 0 .837-.122 1.177-.366.349-.244.54-.535.572-.875a6.921 6.921 0 0 0-.397-.031c-.181-.022-.319-.037-.414-.048-1.092-.117-1.935-.546-2.529-1.288-.498-.626-.747-1.384-.747-2.275 0-1.166.318-2.088.954-2.767.562-.594 1.304-.89 2.227-.89.943 0 1.68.302 2.21.906.456.52.684 1.198.684 2.036v2.465h1.956zm-3.944-2.497c0-.7-.302-1.05-.906-1.05-.806 0-1.209.578-1.209 1.734 0 1.028.466 1.601 1.399 1.717.149.032.387.059.716.08v-2.481zm5.537.032c0-.954.297-1.702.891-2.243.519-.466 1.187-.699 2.004-.699 1.049 0 1.866.387 2.449 1.161.498.646.747 1.479.747 2.496 0 1.177-.312 2.105-.938 2.784-.562.593-1.278.89-2.147.89-.848 0-1.543-.185-2.083-.556-.509.371-1.124.556-1.845.556h-1.622v-1.924h1.431c.403 0 .689-.085.859-.255.169-.18.254-.477.254-.89v-1.32zm2.004 1.574c0 .594.313.891.938.891.785 0 1.177-.604 1.177-1.813 0-1.156-.408-1.734-1.224-1.734-.594 0-.891.35-.891 1.05v1.606z" fill="#01B8B6"/>
    <defs>
        <linearGradient id="7clc9s5ysa" x1="54.001" y1="80" x2="161" y2="80" gradientUnits="userSpaceOnUse">
            <stop stop-color="#FDBC11"/>
            <stop offset="1" stop-color="#F6931D"/>
        </linearGradient>
    </defs>
</svg>
