<svg width="215" height="340" viewBox="0 0 215 340" fill="none" xmlns="http://www.w3.org/2000/svg">
    <rect x=".5" y=".5" width="214" height="339" rx="3.5" fill="#fff" stroke="#EDEDED"/>
    <path d="M63.802 61.2h-7.9v-5h7.9v-8.9h5.85v8.9h7.95v5h-7.95V70h-5.85v-8.8zm26.752-5.35h-4.75v-5.3h4.75c1.333 0 2.25-.183 2.75-.55.767-.567 1.15-1.583 1.15-3.05 0-1.133-.333-2.033-1-2.7-.667-.7-1.567-1.05-2.7-1.05-2.033 0-4.15.933-6.35 2.8l-2.4-4.2c2.767-2.7 5.9-4.05 9.4-4.05 2.933 0 5.333.817 7.2 2.45 1.8 1.6 2.7 3.667 2.7 6.2 0 3.133-1.3 5.233-3.9 6.3 3.367 1.3 5.05 3.8 5.05 7.5 0 3.9-1.333 6.733-4 8.5-1.867 1.233-4.2 1.85-7 1.85-1.533 0-3.283-.4-5.25-1.2-1.933-.833-3.517-1.833-4.75-3l2.65-3.95c1.8 1.633 4.1 2.45 6.9 2.45 1.433 0 2.567-.4 3.4-1.2.833-.833 1.25-1.95 1.25-3.35 0-2.967-1.7-4.45-5.1-4.45zm27.797-18.1c3.866 0 6.966 1.85 9.3 5.55 1.966 3.067 2.95 6.717 2.95 10.95 0 5.1-1.25 9.183-3.75 12.25-2.2 2.733-5.034 4.1-8.5 4.1-3.967 0-7.067-1.767-9.3-5.3-1.867-2.933-2.8-6.617-2.8-11.05 0-4.933 1.233-8.983 3.7-12.15 2.233-2.9 5.033-4.35 8.4-4.35zm.1 5.6c-3.6 0-5.4 3.533-5.4 10.6 0 3.567.516 6.367 1.55 8.4.933 1.833 2.166 2.75 3.7 2.75 1.7 0 3.033-.983 4-2.95 1-2 1.5-4.733 1.5-8.2 0-7.067-1.784-10.6-5.35-10.6zm28.073-5.6c3.867 0 6.967 1.85 9.3 5.55 1.967 3.067 2.95 6.717 2.95 10.95 0 5.1-1.25 9.183-3.75 12.25-2.2 2.733-5.033 4.1-8.5 4.1-3.966 0-7.066-1.767-9.3-5.3-1.866-2.933-2.8-6.617-2.8-11.05 0-4.933 1.234-8.983 3.7-12.15 2.234-2.9 5.034-4.35 8.4-4.35zm.1 5.6c-3.6 0-5.4 3.533-5.4 10.6 0 3.567.517 6.367 1.55 8.4.934 1.833 2.167 2.75 3.7 2.75 1.7 0 3.034-.983 4-2.95 1-2 1.5-4.733 1.5-8.2 0-7.067-1.783-10.6-5.35-10.6z" fill="url(#mqy4r9a8qa)"/>
    <path d="M26.303 156.872V167H24.83v-10.128h1.472zm3.975 3.584h.08c.544-.608 1.301-.912 2.272-.912 1.781 0 2.672 1.045 2.672 3.136V167h-1.376v-4.24c0-1.355-.597-2.032-1.792-2.032-.33 0-.667.08-1.008.24-.341.16-.592.352-.752.576V167h-1.376v-7.264h1.152l.128.72zm13.83-3.584h1.407L49.18 167h-1.52l-.768-2.288h-4.144L41.963 167h-1.52l3.664-10.128zm.703 1.792-1.648 4.816h3.296l-1.648-4.816zm7.139 1.792h.08c.544-.608 1.296-.912 2.256-.912 1.205 0 1.99.432 2.352 1.296.619-.864 1.498-1.296 2.64-1.296 1.75 0 2.624 1.035 2.624 3.104V167h-1.376v-4.048c0-.8-.144-1.371-.432-1.712-.278-.341-.747-.512-1.408-.512-.661 0-1.264.293-1.808.88.064.299.096.645.096 1.04V167h-1.376v-4.16c0-.736-.15-1.269-.448-1.6-.288-.341-.758-.512-1.408-.512-.31 0-.63.08-.96.24-.33.16-.576.352-.736.576V167H50.67v-7.264h1.152l.128.72zm13.64 0h.08c.544-.608 1.296-.912 2.257-.912 1.205 0 1.989.432 2.351 1.296.62-.864 1.5-1.296 2.64-1.296 1.75 0 2.624 1.035 2.624 3.104V167h-1.376v-4.048c0-.8-.144-1.371-.431-1.712-.278-.341-.747-.512-1.409-.512-.66 0-1.263.293-1.807.88.063.299.096.645.096 1.04V167h-1.376v-4.16c0-.736-.15-1.269-.449-1.6-.288-.341-.757-.512-1.408-.512-.309 0-.629.08-.96.24-.33.16-.575.352-.736.576V167H64.31v-7.264h1.153l.128.72zM83.456 167h-1.072l-.16-.752c-.576.629-1.355.944-2.336.944-.746 0-1.338-.203-1.776-.608-.427-.416-.64-.976-.64-1.68 0-.8.325-1.413.976-1.84.662-.437 1.595-.656 2.8-.656h.848v-.08c0-1.109-.56-1.664-1.68-1.664-.715 0-1.381.229-2 .688l-.416-.736c.832-.715 1.787-1.072 2.864-1.072 1.728 0 2.592 1.029 2.592 3.088V167zm-1.376-3.664h-.704c-1.642 0-2.464.491-2.464 1.472 0 .405.117.725.352.96.245.235.57.352.976.352.405 0 .784-.101 1.136-.304.352-.213.587-.48.704-.8v-1.68zm5.074-2.88h.08c.544-.608 1.301-.912 2.272-.912 1.781 0 2.672 1.045 2.672 3.136V167h-1.376v-4.24c0-1.355-.597-2.032-1.792-2.032-.33 0-.667.08-1.008.24-.341.16-.592.352-.752.576V167h-1.376v-7.264h1.152l.128.72zm7.375 8.192-.32-.624c.416-.267.624-.565.624-.896v-.064a.322.322 0 0 1-.144.032.639.639 0 0 1-.48-.224.87.87 0 0 1-.192-.56c0-.245.08-.448.24-.608a.778.778 0 0 1 .592-.256c.64 0 .96.448.96 1.344 0 .416-.118.795-.352 1.136a1.878 1.878 0 0 1-.928.72zm12.123-10.16c-.726-.363-1.456-.544-2.192-.544-.523 0-.95.123-1.28.368-.331.235-.496.539-.496.912 0 .672.442 1.173 1.328 1.504 1.322.491 2.261 1.008 2.816 1.552.554.533.832 1.195.832 1.984 0 .96-.368 1.712-1.104 2.256-.598.448-1.339.672-2.224.672-1.056 0-2.155-.363-3.296-1.088l.64-.912c.714.437 1.546.656 2.496.656 1.301 0 1.952-.549 1.952-1.648 0-.853-.55-1.467-1.648-1.84-1.152-.395-1.99-.832-2.512-1.312-.512-.48-.768-1.061-.768-1.744 0-.811.314-1.461.944-1.952.576-.448 1.333-.672 2.272-.672 1.056 0 2.016.299 2.88.896l-.64.912zM115.44 167h-1.072l-.16-.752c-.576.629-1.355.944-2.336.944-.747 0-1.339-.203-1.776-.608-.427-.416-.64-.976-.64-1.68 0-.8.325-1.413.976-1.84.661-.437 1.594-.656 2.8-.656h.848v-.08c0-1.109-.56-1.664-1.68-1.664-.715 0-1.382.229-2 .688l-.416-.736c.832-.715 1.786-1.072 2.864-1.072 1.728 0 2.592 1.029 2.592 3.088V167zm-1.376-3.664h-.704c-1.643 0-2.464.491-2.464 1.472 0 .405.117.725.352.96.245.235.57.352.976.352.405 0 .784-.101 1.136-.304.352-.213.586-.48.704-.8v-1.68zm5.169-6.656V167h-1.376v-9.584l1.376-.736zm4.387 4.176-.016 4.224c0 .704.267 1.056.8 1.056.374 0 .742-.107 1.104-.32l.48.736c-.586.437-1.221.656-1.904.656-1.237 0-1.856-.677-1.856-2.032v-4.32h-1.072v-1.12h1.088v-1.488l1.376-.72v2.208h2.176v1.12h-2.176zm4.22 7.792-.32-.624c.416-.267.624-.565.624-.896v-.064a.318.318 0 0 1-.144.032.64.64 0 0 1-.48-.224.87.87 0 0 1-.192-.56c0-.245.08-.448.24-.608a.78.78 0 0 1 .592-.256c.64 0 .96.448.96 1.344 0 .416-.117.795-.352 1.136a1.875 1.875 0 0 1-.928.72zm12.827-10.48a119.91 119.91 0 0 0-4.064 6.256c-.469.768-.757 1.216-.864 1.344h5.04V167h-6.848v-1.136c1.067-1.536 2.39-3.552 3.968-6.048.651-1.035 1.024-1.605 1.12-1.712h-4.944v-1.232h6.592v1.296zm7.257 8.832h-1.072l-.16-.752c-.576.629-1.355.944-2.336.944-.747 0-1.339-.203-1.776-.608-.427-.416-.64-.976-.64-1.68 0-.8.325-1.413.976-1.84.661-.437 1.595-.656 2.8-.656h.848v-.08c0-1.109-.56-1.664-1.68-1.664-.715 0-1.381.229-2 .688l-.416-.736c.832-.715 1.787-1.072 2.864-1.072 1.728 0 2.592 1.029 2.592 3.088V167zm-1.376-3.664h-.704c-1.643 0-2.464.491-2.464 1.472 0 .405.117.725.352.96.245.235.571.352.976.352s.784-.101 1.136-.304c.352-.213.587-.48.704-.8v-1.68zm5.106-2.88h.064c.501-.608 1.088-.912 1.76-.912.853 0 1.482.331 1.888.992l-1.152.72c-.352-.352-.736-.528-1.152-.528-.534 0-.982.272-1.344.816V167h-1.376v-7.264h1.184l.128.72zm10.107-.72h1.072v10.128h-1.376v-3.632c-.48.64-1.168.96-2.064.96-1.077 0-1.925-.395-2.544-1.184-.523-.661-.784-1.493-.784-2.496 0-1.323.384-2.347 1.152-3.072.619-.597 1.371-.896 2.256-.896.427 0 .848.096 1.264.288.416.181.704.4.864.656l.16-.752zm-.304 4.976v-2.88c-.075-.331-.288-.619-.64-.864a1.856 1.856 0 0 0-1.104-.368c-.651 0-1.179.256-1.584.768s-.608 1.173-.608 1.984c0 .928.213 1.637.64 2.128.373.427.853.64 1.44.64.405 0 .784-.133 1.136-.4.363-.277.603-.613.72-1.008zM170.83 167h-1.072l-.16-.752c-.576.629-1.355.944-2.336.944-.747 0-1.339-.203-1.776-.608-.427-.416-.64-.976-.64-1.68 0-.8.325-1.413.976-1.84.661-.437 1.595-.656 2.8-.656h.848v-.08c0-1.109-.56-1.664-1.68-1.664-.715 0-1.381.229-2 .688l-.416-.736c.832-.715 1.787-1.072 2.864-1.072 1.728 0 2.592 1.029 2.592 3.088V167zm-1.376-3.664h-.704c-1.643 0-2.464.491-2.464 1.472 0 .405.117.725.352.96.245.235.571.352.976.352s.784-.101 1.136-.304c.352-.213.587-.48.704-.8v-1.68zm3.73 5.312-.32-.624c.416-.267.624-.565.624-.896v-.064a.324.324 0 0 1-.144.032.64.64 0 0 1-.48-.224.87.87 0 0 1-.192-.56c0-.245.08-.448.24-.608a.778.778 0 0 1 .592-.256c.64 0 .96.448.96 1.344 0 .416-.117.795-.352 1.136a1.88 1.88 0 0 1-.928.72zm7.147-2.416v-.032c.021-.533.304-.8.848-.8.565 0 .848.277.848.832 0 .565-.283.848-.848.848s-.848-.283-.848-.848zm4.578 0v-.032c.021-.533.304-.8.848-.8.565 0 .848.277.848.832 0 .565-.283.848-.848.848s-.848-.283-.848-.848zm4.578 0v-.032c.022-.533.304-.8.848-.8.566 0 .848.277.848.832 0 .565-.282.848-.848.848-.565 0-.848-.283-.848-.848zM71.6 92.38c-.24.36-.613.9-1.12 1.62-1.067-.467-2.02-.7-2.86-.7-1.107 0-1.66.413-1.66 1.24 0 .373.127.667.38.88.254.213.78.473 1.58.78 1.44.56 2.474 1.167 3.1 1.82.64.653.96 1.44.96 2.36 0 1.293-.487 2.293-1.46 3-.8.573-1.793.86-2.98.86-1.4 0-2.893-.507-4.48-1.52l1.16-1.62c.773.52 1.767.78 2.98.78 1.373 0 2.06-.553 2.06-1.66 0-.72-.74-1.333-2.22-1.84-2.387-.8-3.58-2.08-3.58-3.84 0-1.067.4-1.913 1.2-2.54.747-.6 1.74-.9 2.98-.9 1.413 0 2.734.427 3.96 1.28zm12.643 6.3c0 3.707-1.627 5.56-4.88 5.56-3.254 0-4.88-1.853-4.88-5.56v-7.34h2.64v7.7c0 2 .746 3 2.24 3 1.52 0 2.28-1 2.28-3v-7.7h2.6v7.34zm3.209 5.32V91.36c.186-.04.713-.093 1.58-.16.866-.067 1.526-.1 1.98-.1 3.226 0 4.84 1.32 4.84 3.96 0 1.64-.56 2.84-1.68 3.6-.747.52-1.627.78-2.64.78-.8 0-1.287-.053-1.46-.16V104h-2.62zm2.62-10.66v3.82c.346.133.78.2 1.3.2.533 0 .953-.187 1.26-.56.306-.387.46-.913.46-1.58 0-1.347-.594-2.02-1.78-2.02-.68 0-1.094.047-1.24.14zm8.18 10.66V91.36c.187-.04.714-.093 1.58-.16a27.93 27.93 0 0 1 1.98-.1c3.227 0 4.84 1.32 4.84 3.96 0 1.64-.56 2.84-1.68 3.6-.746.52-1.626.78-2.64.78-.8 0-1.286-.053-1.46-.16V104h-2.62zm2.62-10.66v3.82c.347.133.78.2 1.3.2.534 0 .954-.187 1.26-.56.307-.387.46-.913.46-1.58 0-1.347-.593-2.02-1.78-2.02-.68 0-1.093.047-1.24.14zm8.181 10.66V91.34h2.62v10.56h4.74v2.1h-7.36zm11.838-12.66V104h-2.58V91.34h2.58zm2.881 0h8.28v2.1h-5.66v2.98h4.72v2.1h-4.72v3.38h5.92v2.1h-8.54V91.34zM134.209 104V91.36c.187-.04.714-.093 1.58-.16.867-.067 1.527-.1 1.98-.1 3.227 0 4.84 1.32 4.84 3.96 0 1.427-.58 2.64-1.74 3.64.48 1.107 1.3 2.873 2.46 5.3h-2.64c-.653-1.427-1.36-2.96-2.12-4.6-.146.027-.346.04-.6.04-.586 0-.966-.053-1.14-.16V104h-2.62zm2.62-10.66v3.82c.4.12.834.18 1.3.18 1.147 0 1.72-.76 1.72-2.28 0-1.24-.593-1.86-1.78-1.86-.68 0-1.093.047-1.24.14zm15.728-.96c-.24.36-.613.9-1.12 1.62-1.066-.467-2.02-.7-2.86-.7-1.106 0-1.66.413-1.66 1.24 0 .373.127.667.38.88.254.213.78.473 1.58.78 1.44.56 2.474 1.167 3.1 1.82.64.653.96 1.44.96 2.36 0 1.293-.486 2.293-1.46 3-.8.573-1.793.86-2.98.86-1.4 0-2.893-.507-4.48-1.52l1.16-1.62c.774.52 1.767.78 2.98.78 1.374 0 2.06-.553 2.06-1.66 0-.72-.74-1.333-2.22-1.84-2.386-.8-3.58-2.08-3.58-3.84 0-1.067.4-1.913 1.2-2.54.747-.6 1.74-.9 2.98-.9 1.414 0 2.734.427 3.96 1.28z" fill="#3D4E76"/>
    <path fill-rule="evenodd" clip-rule="evenodd" d="M33 220.916h15.18v-10.843H33v10.843zM167.459 220.916h15.181v-10.843h-15.181v10.843z" fill="#fff"/>
    <path d="M168.182 230.314V192H48.904v38.314" stroke="#3D4E76" stroke-width="1.18" stroke-linecap="round" stroke-linejoin="round"/>
    <path d="M47.62 199.229H33v31.808h150.363v-25.084M182.64 199.265h-9.398M39.542 237.543v83.404M48.217 237.543l.325 82.772M168.218 237.543v86.025M177.616 237.543v86.025" stroke="#3D4E76" stroke-width="1.18" stroke-linecap="round" stroke-linejoin="round"/>
    <path fill-rule="evenodd" clip-rule="evenodd" d="M126.977 308.955a.6.6 0 0 0-.6.6v12.29a.6.6 0 0 0 .6.6h33.976a.6.6 0 0 0 .6-.6v-10.446a.602.602 0 0 0-.749-.581l-17.639 4.515-13.874-3.468a.601.601 0 0 0-.291 1.164l11.72 2.93-11.452 2.932a.6.6 0 0 0 .297 1.162l13.603-3.482 14.748 3.687a.6.6 0 0 0 .291-1.164l-12.594-3.149 14.74-3.773v9.073h-32.776v-11.09h28.845a.6.6 0 1 0 0-1.2h-29.445zM87.94 308.955a.6.6 0 0 0-.6.6v12.29a.6.6 0 0 0 .6.6h33.976a.6.6 0 0 0 .6-.6v-10.446a.6.6 0 0 0-.748-.581l-17.64 4.515-13.874-3.468a.6.6 0 0 0-.29 1.164l11.719 2.93-11.452 2.932a.6.6 0 1 0 .298 1.162l13.603-3.482 14.747 3.687a.6.6 0 1 0 .291-1.164l-12.594-3.149 14.74-3.773v9.073H88.54v-11.09h28.845a.6.6 0 1 0 0-1.2H87.94z" fill="#3D4E76"/>
    <path d="m118.681 262.193.48.36a.6.6 0 0 0-.807-.863l.327.503zM93.986 278.23l-.326-.503a.6.6 0 0 0-.177.83l.503-.327zm14.646-2.622-.48-.36.48.36zm-7.199 9.61-.48-.36a.6.6 0 0 0 .922.766l-.442-.406zm9.615-10.44-.441-.407.441.407zm12.438-13.506.503-.327a.602.602 0 0 0-.945-.08l.442.407zm5.688 8.76.327.503a.604.604 0 0 0 .177-.83l-.504.327zm-28.494 18.505-.504.327a.6.6 0 0 0 .83.176l-.326-.503zm17.674-26.847L93.66 277.727l.653 1.006 24.695-16.037-.654-1.006zm-9.241 14.277 10.048-13.414-.96-.72-10.049 13.415.961.719zm-7.199 9.611 7.199-9.611-.961-.719-7.199 9.61.961.72zm8.693-11.207-9.615 10.441.883.812 9.614-10.44-.882-.813zm12.437-13.506-12.437 13.506.882.813 12.438-13.506-.883-.813zm6.634 8.84-5.689-8.76-1.007.654 5.689 8.76 1.007-.654zm-28.672 19.335 28.495-18.505-.653-1.006-28.495 18.505.653 1.006zm-7.523-10.483 6.693 10.307 1.007-.654-6.693-10.307-1.007.654z" fill="#3D4E76"/>
    <path fill-rule="evenodd" clip-rule="evenodd" d="M126.977 292.329a.6.6 0 0 0-.6.6v12.289a.6.6 0 0 0 .6.6h14.458a.6.6 0 0 0 .6-.6v-10.445a.6.6 0 0 0-.934-.499l-6.104 4.09-4.758-3.738a.599.599 0 1 0-.741.943l4.451 3.497-4.768 3.195a.6.6 0 1 0 .668.997l5.092-3.412 4.677 3.675a.6.6 0 1 0 .742-.943l-4.371-3.434 4.846-3.247v8.721h-13.258v-11.089h11.463a.6.6 0 1 0 0-1.2h-12.063zM87.94 292.329a.6.6 0 0 0-.6.6v12.289a.6.6 0 0 0 .6.6h14.458a.6.6 0 0 0 .6-.6v-10.445a.602.602 0 0 0-.934-.499l-6.104 4.09-4.757-3.738a.6.6 0 1 0-.742.943l4.451 3.497-4.768 3.195a.6.6 0 1 0 .668.997l5.092-3.412 4.678 3.675a.599.599 0 1 0 .741-.943l-4.37-3.434 4.845-3.247v8.721H88.54v-11.089h11.464a.6.6 0 0 0 0-1.2H87.94zM137.097 259.075a.6.6 0 0 0-.6.6v12.29a.6.6 0 0 0 .6.6h14.458a.6.6 0 0 0 .6-.6v-10.446a.6.6 0 0 0-.934-.498l-6.494 4.351-5.09-4a.602.602 0 0 0-.843.101.602.602 0 0 0 .101.843l4.784 3.758-4.378 2.934a.6.6 0 1 0 .668.997l4.702-3.151 4.345 3.414a.6.6 0 1 0 .741-.944l-4.037-3.172 5.235-3.508v8.721h-13.258v-11.09h11.464a.6.6 0 1 0 0-1.2h-12.064z" fill="#3D4E76"/>
    <path d="M80.485 309.555H68.422v12.29H82.88v-10.446l-11.92 7.987" stroke="#3D4E76" stroke-width="1.2" stroke-linecap="round" stroke-linejoin="round"/>
    <path d="m70.59 311.724 10.121 7.952" stroke="#3D4E76" stroke-width="1.2" stroke-linecap="round"/>
    <path d="M140.486 276.302h-12.063v12.289h14.458v-10.445l-11.921 7.987" stroke="#3D4E76" stroke-width="1.2" stroke-linecap="round" stroke-linejoin="round"/>
    <path d="m130.591 278.471 10.121 7.952" stroke="#3D4E76" stroke-width="1.2" stroke-linecap="round"/>
    <path fill-rule="evenodd" clip-rule="evenodd" d="M146.495 292.329a.6.6 0 0 0-.6.6v12.289a.6.6 0 0 0 .6.6h14.458a.6.6 0 0 0 .6-.6v-10.445a.6.6 0 0 0-.934-.499l-6.494 4.351-5.091-3.999a.599.599 0 1 0-.741.943l4.784 3.759-4.378 2.933a.6.6 0 0 0 .668.997l4.702-3.151 4.345 3.414a.599.599 0 1 0 .741-.943l-4.038-3.173 5.236-3.508v8.721h-13.258v-11.089h11.463a.6.6 0 1 0 0-1.2h-12.063zM107.459 292.329a.6.6 0 0 0-.6.6v12.289a.6.6 0 0 0 .6.6h14.457a.6.6 0 0 0 .6-.6v-10.445a.602.602 0 0 0-.934-.499l-6.494 4.351-5.09-3.999a.6.6 0 1 0-.741.943l4.783 3.759-4.378 2.933a.6.6 0 1 0 .668.997l4.702-3.151 4.345 3.414a.6.6 0 1 0 .741-.943l-4.037-3.173 5.235-3.508v8.721h-13.257v-11.089h11.463a.6.6 0 0 0 0-1.2h-12.063zM147.218 275.702a.6.6 0 0 0-.6.6v12.289a.6.6 0 0 0 .6.6h14.458a.6.6 0 0 0 .6-.6v-10.445a.6.6 0 0 0-.934-.498l-6.494 4.351-5.091-4a.6.6 0 1 0-.741.944l4.784 3.758-4.378 2.933a.6.6 0 1 0 .668.997l4.702-3.15 4.344 3.413a.6.6 0 1 0 .742-.943l-4.038-3.173 5.236-3.508v8.721h-13.258v-11.089h11.463a.6.6 0 1 0 0-1.2h-12.063z" fill="#3D4E76"/>
    <path d="M33.723 220.229H48.18M168.182 220.229h14.458M33.723 209.386H48.18M168.182 209.386h14.458" stroke="#3D4E76" stroke-width="1.18" stroke-linecap="round" stroke-linejoin="round"/>
    <path fill-rule="evenodd" clip-rule="evenodd" d="M50.35 229.591h115.663v-36.145H50.35v36.145z" fill="#fff"/>
    <g clip-path="url(#9fntw6xprb)">
        <path d="M81.399 208.495c-.19.286-.488.716-.89 1.288-.849-.371-1.607-.556-2.275-.556-.88 0-1.32.328-1.32.986 0 .297.1.53.302.699.202.17.62.377 1.257.621 1.145.445 1.966.927 2.465 1.447.509.519.763 1.145.763 1.877 0 1.028-.387 1.823-1.16 2.385-.637.456-1.427.684-2.37.684-1.114 0-2.301-.403-3.563-1.209l.922-1.288c.615.414 1.405.62 2.37.62 1.092 0 1.638-.44 1.638-1.32 0-.572-.588-1.06-1.765-1.463-1.898-.636-2.847-1.654-2.847-3.053 0-.849.318-1.522.954-2.02.594-.477 1.384-.716 2.37-.716 1.124 0 2.174.34 3.149 1.018zm10.053 5.01c0 2.947-1.293 4.421-3.88 4.421-2.587 0-3.88-1.474-3.88-4.421v-5.837h2.099v6.123c0 1.59.593 2.386 1.78 2.386 1.21 0 1.814-.796 1.814-2.386v-6.123h2.067v5.837zm2.552 4.23v-10.051c.148-.032.567-.074 1.256-.127.69-.053 1.214-.08 1.575-.08 2.566 0 3.848 1.05 3.848 3.149 0 1.304-.445 2.259-1.336 2.863-.593.413-1.293.62-2.099.62-.636 0-1.023-.042-1.16-.127v3.753h-2.084zm2.083-8.477v3.038c.276.106.62.159 1.034.159.424 0 .758-.148 1.002-.445.244-.308.366-.726.366-1.257 0-1.07-.472-1.606-1.416-1.606-.54 0-.87.037-.986.111zm6.506 8.477v-10.051c.148-.032.567-.074 1.256-.127.689-.053 1.214-.08 1.574-.08 2.566 0 3.849 1.05 3.849 3.149 0 1.304-.445 2.259-1.336 2.863-.594.413-1.293.62-2.099.62-.636 0-1.023-.042-1.161-.127v3.753h-2.083zm2.083-8.477v3.038c.276.106.62.159 1.034.159.424 0 .758-.148 1.002-.445.243-.308.365-.726.365-1.257 0-1.07-.471-1.606-1.415-1.606-.541 0-.869.037-.986.111zm6.505 8.477v-10.067h2.084v8.397h3.769v1.67h-5.853zm9.413-10.067v10.067h-2.051v-10.067h2.051zm2.292 0h6.584v1.67h-4.501v2.37h3.753v1.67h-3.753v2.687h4.708v1.67h-6.791v-10.067zm8.299 10.067v-10.051c.149-.032.567-.074 1.257-.127.689-.053 1.214-.08 1.574-.08 2.566 0 3.849 1.05 3.849 3.149 0 1.135-.461 2.099-1.384 2.895.382.88 1.034 2.285 1.956 4.214h-2.099c-.52-1.134-1.082-2.354-1.686-3.658a2.715 2.715 0 0 1-.477.032c-.466 0-.769-.042-.906-.127v3.753h-2.084zm2.084-8.477v3.038c.318.096.662.143 1.033.143.912 0 1.368-.604 1.368-1.813 0-.986-.472-1.479-1.415-1.479-.541 0-.87.037-.986.111zm12.506-.763c-.191.286-.488.716-.891 1.288-.848-.371-1.606-.556-2.274-.556-.88 0-1.32.328-1.32.986 0 .297.101.53.302.699.202.17.621.377 1.257.621 1.145.445 1.967.927 2.465 1.447.509.519.763 1.145.763 1.877 0 1.028-.387 1.823-1.161 2.385-.636.456-1.426.684-2.369.684-1.114 0-2.301-.403-3.563-1.209l.923-1.288c.615.414 1.404.62 2.369.62 1.092 0 1.638-.44 1.638-1.32 0-.572-.588-1.06-1.765-1.463-1.898-.636-2.847-1.654-2.847-3.053 0-.849.318-1.522.954-2.02.594-.477 1.384-.716 2.37-.716 1.124 0 2.174.34 3.149 1.018z" fill="#01B8B6"/>
    </g>
    <defs>
        <linearGradient id="mqy4r9a8qa" x1="54.001" y1="80" x2="161" y2="80" gradientUnits="userSpaceOnUse">
            <stop stop-color="#FDBC11"/>
            <stop offset="1" stop-color="#F6931D"/>
        </linearGradient>
        <clipPath id="9fntw6xprb">
            <path fill="#fff" transform="translate(73.12 205.735)" d="M0 0h73.736v15.904H0z"/>
        </clipPath>
    </defs>
</svg>
