<svg width="190" height="340" viewBox="0 0 190 340" fill="none" xmlns="http://www.w3.org/2000/svg">
    <rect x=".5" y=".5" width="189" height="339" rx="3.5" fill="#fff" stroke="#EDEDED"/>
    <path d="M71.029 38.072h-4.424v-2.8h4.424v-4.984h3.276v4.984h4.452v2.8h-4.452V43h-3.276v-4.928zm14.981-2.996h-2.66v-2.968h2.66c.747 0 1.26-.103 1.54-.308.43-.317.644-.887.644-1.708 0-.635-.186-1.139-.56-1.512-.373-.392-.877-.588-1.512-.588-1.138 0-2.324.523-3.556 1.568l-1.344-2.352c1.55-1.512 3.304-2.268 5.264-2.268 1.643 0 2.987.457 4.032 1.372 1.008.896 1.512 2.053 1.512 3.472 0 1.755-.728 2.93-2.184 3.528 1.886.728 2.828 2.128 2.828 4.2 0 2.184-.746 3.77-2.24 4.76-1.045.69-2.352 1.036-3.92 1.036-.858 0-1.838-.224-2.94-.672-1.082-.467-1.969-1.027-2.66-1.68l1.484-2.212c1.008.915 2.296 1.372 3.864 1.372.803 0 1.438-.224 1.904-.672.467-.467.7-1.092.7-1.876 0-1.661-.952-2.492-2.856-2.492zm15.566-10.136c2.166 0 3.902 1.036 5.208 3.108 1.102 1.717 1.652 3.761 1.652 6.132 0 2.856-.7 5.143-2.1 6.86-1.232 1.53-2.818 2.296-4.76 2.296-2.221 0-3.957-.99-5.208-2.968-1.045-1.643-1.568-3.705-1.568-6.188 0-2.763.691-5.03 2.072-6.804 1.251-1.624 2.819-2.436 4.704-2.436zm.056 3.136c-2.016 0-3.024 1.979-3.024 5.936 0 1.997.29 3.565.868 4.704.523 1.027 1.214 1.54 2.072 1.54.952 0 1.699-.55 2.24-1.652.56-1.12.84-2.65.84-4.592 0-3.957-.998-5.936-2.996-5.936zm15.722-3.136c2.165 0 3.901 1.036 5.208 3.108 1.101 1.717 1.652 3.761 1.652 6.132 0 2.856-.7 5.143-2.1 6.86-1.232 1.53-2.819 2.296-4.76 2.296-2.222 0-3.958-.99-5.208-2.968-1.046-1.643-1.568-3.705-1.568-6.188 0-2.763.69-5.03 2.072-6.804 1.25-1.624 2.818-2.436 4.704-2.436zm.056 3.136c-2.016 0-3.024 1.979-3.024 5.936 0 1.997.289 3.565.868 4.704.522 1.027 1.213 1.54 2.072 1.54.952 0 1.698-.55 2.24-1.652.56-1.12.84-2.65.84-4.592 0-3.957-.999-5.936-2.996-5.936z" fill="url(#xobcjqw9sa)"/>
    <path d="M18.909 146.505V156h-1.38v-9.495h1.38zm3.727 3.36h.075c.51-.57 1.22-.855 2.13-.855 1.67 0 2.505.98 2.505 2.94V156h-1.29v-3.975c0-1.27-.56-1.905-1.68-1.905-.31 0-.625.075-.945.225-.32.15-.555.33-.705.54V156h-1.29v-6.81h1.08l.12.675zm12.964-3.36h1.32L40.355 156H38.93l-.72-2.145h-3.885L33.59 156h-1.425l3.435-9.495zm.66 1.68-1.545 4.515h3.09l-1.545-4.515zm6.693 1.68h.075c.51-.57 1.215-.855 2.115-.855 1.13 0 1.865.405 2.205 1.215.58-.81 1.405-1.215 2.475-1.215 1.64 0 2.46.97 2.46 2.91V156h-1.29v-3.795c0-.75-.135-1.285-.405-1.605-.26-.32-.7-.48-1.32-.48-.62 0-1.185.275-1.695.825.06.28.09.605.09.975V156h-1.29v-3.9c0-.69-.14-1.19-.42-1.5-.27-.32-.71-.48-1.32-.48-.29 0-.59.075-.9.225-.31.15-.54.33-.69.54V156h-1.29v-6.81h1.08l.12.675zm12.788 0h.075c.51-.57 1.215-.855 2.115-.855 1.13 0 1.865.405 2.205 1.215.58-.81 1.405-1.215 2.475-1.215 1.64 0 2.46.97 2.46 2.91V156h-1.29v-3.795c0-.75-.135-1.285-.405-1.605-.26-.32-.7-.48-1.32-.48-.62 0-1.185.275-1.695.825.06.28.09.605.09.975V156h-1.29v-3.9c0-.69-.14-1.19-.42-1.5-.27-.32-.71-.48-1.32-.48-.29 0-.59.075-.9.225-.31.15-.54.33-.69.54V156h-1.29v-6.81h1.08l.12.675zM72.49 156h-1.005l-.15-.705c-.54.59-1.27.885-2.19.885-.7 0-1.255-.19-1.665-.57-.4-.39-.6-.915-.6-1.575 0-.75.305-1.325.915-1.725.62-.41 1.495-.615 2.625-.615h.795v-.075c0-1.04-.525-1.56-1.575-1.56-.67 0-1.295.215-1.875.645l-.39-.69c.78-.67 1.675-1.005 2.685-1.005 1.62 0 2.43.965 2.43 2.895V156zm-1.29-3.435h-.66c-1.54 0-2.31.46-2.31 1.38 0 .38.11.68.33.9.23.22.535.33.915.33s.735-.095 1.065-.285c.33-.2.55-.45.66-.75v-1.575zm4.757-2.7h.075c.51-.57 1.22-.855 2.13-.855 1.67 0 2.505.98 2.505 2.94V156h-1.29v-3.975c0-1.27-.56-1.905-1.68-1.905-.31 0-.625.075-.945.225-.32.15-.555.33-.705.54V156h-1.29v-6.81h1.08l.12.675zm6.914 7.68-.3-.585c.39-.25.585-.53.585-.84v-.06a.298.298 0 0 1-.135.03c-.17 0-.32-.07-.45-.21a.816.816 0 0 1-.18-.525c0-.23.075-.42.225-.57a.73.73 0 0 1 .555-.24c.6 0 .9.42.9 1.26 0 .39-.11.745-.33 1.065-.22.32-.51.545-.87.675zm11.365-9.525c-.68-.34-1.365-.51-2.055-.51-.49 0-.89.115-1.2.345-.31.22-.465.505-.465.855 0 .63.415 1.1 1.245 1.41 1.24.46 2.12.945 2.64 1.455.52.5.78 1.12.78 1.86 0 .9-.345 1.605-1.035 2.115-.56.42-1.255.63-2.085.63-.99 0-2.02-.34-3.09-1.02l.6-.855c.67.41 1.45.615 2.34.615 1.22 0 1.83-.515 1.83-1.545 0-.8-.515-1.375-1.545-1.725-1.08-.37-1.865-.78-2.355-1.23-.48-.45-.72-.995-.72-1.635 0-.76.295-1.37.885-1.83.54-.42 1.25-.63 2.13-.63.99 0 1.89.28 2.7.84l-.6.855zm8.24 7.98h-1.005l-.15-.705c-.54.59-1.27.885-2.19.885-.7 0-1.255-.19-1.665-.57-.4-.39-.6-.915-.6-1.575 0-.75.305-1.325.915-1.725.62-.41 1.495-.615 2.625-.615h.795v-.075c0-1.04-.525-1.56-1.576-1.56-.67 0-1.294.215-1.874.645l-.39-.69c.78-.67 1.674-1.005 2.685-1.005 1.62 0 2.43.965 2.43 2.895V156zm-1.29-3.435h-.66c-1.54 0-2.31.46-2.31 1.38 0 .38.11.68.33.9.23.22.534.33.915.33a2.1 2.1 0 0 0 1.065-.285c.33-.2.55-.45.66-.75v-1.575zm4.846-6.24V156h-1.29v-8.985l1.29-.69zm4.113 3.915-.015 3.96c0 .66.25.99.75.99.35 0 .695-.1 1.035-.3l.45.69c-.55.41-1.145.615-1.785.615-1.16 0-1.74-.635-1.74-1.905v-4.05h-1.005v-1.05h1.02v-1.395l1.29-.675v2.07h2.04v1.05h-2.04zm3.956 7.305-.3-.585c.39-.25.585-.53.585-.84v-.06a.298.298 0 0 1-.135.03c-.17 0-.32-.07-.45-.21a.816.816 0 0 1-.18-.525c0-.23.075-.42.225-.57a.73.73 0 0 1 .555-.24c.6 0 .9.42.9 1.26 0 .39-.11.745-.33 1.065-.22.32-.51.545-.87.675zm12.026-9.825a112.01 112.01 0 0 0-3.81 5.865c-.44.72-.71 1.14-.81 1.26h4.725V156h-6.42v-1.065c1-1.44 2.24-3.33 3.72-5.67.61-.97.96-1.505 1.05-1.605h-4.635v-1.155h6.18v1.215zm6.803 8.28h-1.005l-.15-.705c-.54.59-1.27.885-2.19.885-.7 0-1.255-.19-1.665-.57-.4-.39-.6-.915-.6-1.575 0-.75.305-1.325.915-1.725.62-.41 1.495-.615 2.625-.615h.795v-.075c0-1.04-.525-1.56-1.575-1.56-.67 0-1.295.215-1.875.645l-.39-.69c.78-.67 1.675-1.005 2.685-1.005 1.62 0 2.43.965 2.43 2.895V156zm-1.29-3.435h-.66c-1.54 0-2.31.46-2.31 1.38 0 .38.11.68.33.9.23.22.535.33.915.33s.735-.095 1.065-.285c.33-.2.55-.45.66-.75v-1.575zm4.786-2.7h.06c.47-.57 1.02-.855 1.65-.855.8 0 1.39.31 1.77.93l-1.08.675c-.33-.33-.69-.495-1.08-.495-.5 0-.92.255-1.26.765V156h-1.29v-6.81h1.11l.12.675zm9.476-.675h1.005v9.495h-1.29v-3.405c-.45.6-1.095.9-1.935.9-1.01 0-1.805-.37-2.385-1.11-.49-.62-.735-1.4-.735-2.34 0-1.24.36-2.2 1.08-2.88.58-.56 1.285-.84 2.115-.84.4 0 .795.09 1.185.27.39.17.66.375.81.615l.15-.705zm-.285 4.665v-2.7c-.07-.31-.27-.58-.6-.81a1.739 1.739 0 0 0-1.035-.345c-.61 0-1.105.24-1.485.72-.38.48-.57 1.1-.57 1.86 0 .87.2 1.535.6 1.995.35.4.8.6 1.35.6.38 0 .735-.125 1.065-.375.34-.26.565-.575.675-.945zm8.787 2.145h-1.005l-.15-.705c-.54.59-1.27.885-2.19.885-.7 0-1.255-.19-1.665-.57-.4-.39-.6-.915-.6-1.575 0-.75.305-1.325.915-1.725.62-.41 1.495-.615 2.625-.615h.795v-.075c0-1.04-.525-1.56-1.575-1.56-.67 0-1.295.215-1.875.645l-.39-.69c.78-.67 1.675-1.005 2.685-1.005 1.62 0 2.43.965 2.43 2.895V156zm-1.29-3.435h-.66c-1.54 0-2.31.46-2.31 1.38 0 .38.11.68.33.9.23.22.535.33.915.33s.735-.095 1.065-.285c.33-.2.55-.45.66-.75v-1.575zm3.497 4.98-.3-.585c.39-.25.585-.53.585-.84v-.06a.298.298 0 0 1-.135.03c-.17 0-.32-.07-.45-.21a.816.816 0 0 1-.18-.525c0-.23.075-.42.225-.57a.73.73 0 0 1 .555-.24c.6 0 .9.42.9 1.26 0 .39-.11.745-.33 1.065-.22.32-.51.545-.87.675zm6.7-2.265v-.03c.02-.5.285-.75.795-.75.53 0 .795.26.795.78 0 .53-.265.795-.795.795s-.795-.265-.795-.795zm4.292 0v-.03c.02-.5.285-.75.795-.75.53 0 .795.26.795.78 0 .53-.265.795-.795.795s-.795-.265-.795-.795zm4.292 0v-.03c.02-.5.285-.75.795-.75.53 0 .795.26.795.78 0 .53-.265.795-.795.795s-.795-.265-.795-.795zM62.74 92.542c-.216.324-.552.81-1.008 1.458-.96-.42-1.818-.63-2.574-.63-.996 0-1.494.372-1.494 1.116 0 .336.114.6.342.792.228.192.702.426 1.422.702 1.296.504 2.226 1.05 2.79 1.638.576.588.864 1.296.864 2.124 0 1.164-.438 2.064-1.314 2.7-.72.516-1.614.774-2.682.774-1.26 0-2.604-.456-4.032-1.368l1.044-1.458c.696.468 1.59.702 2.682.702 1.236 0 1.854-.498 1.854-1.494 0-.648-.666-1.2-1.998-1.656-2.148-.72-3.222-1.872-3.222-3.456 0-.96.36-1.722 1.08-2.286.672-.54 1.566-.81 2.682-.81 1.272 0 2.46.384 3.564 1.152zm11.378 5.67c0 3.336-1.463 5.004-4.391 5.004s-4.392-1.668-4.392-5.004v-6.606h2.376v6.93c0 1.8.671 2.7 2.016 2.7 1.367 0 2.051-.9 2.051-2.7v-6.93h2.34v6.606zM77.007 103V91.624c.168-.036.642-.084 1.422-.144.78-.06 1.374-.09 1.782-.09 2.904 0 4.356 1.188 4.356 3.564 0 1.476-.504 2.556-1.512 3.24-.672.468-1.464.702-2.376.702-.72 0-1.158-.048-1.314-.144V103h-2.358zm2.358-9.594v3.438c.312.12.702.18 1.17.18.48 0 .858-.168 1.134-.504.276-.348.414-.822.414-1.422 0-1.212-.534-1.818-1.602-1.818-.612 0-.984.042-1.116.126zM86.727 103V91.624c.168-.036.642-.084 1.422-.144.78-.06 1.374-.09 1.782-.09 2.904 0 4.356 1.188 4.356 3.564 0 1.476-.504 2.556-1.512 3.24-.672.468-1.464.702-2.376.702-.72 0-1.158-.048-1.314-.144V103h-2.358zm2.358-9.594v3.438c.312.12.702.18 1.17.18.48 0 .858-.168 1.134-.504.276-.348.414-.822.414-1.422 0-1.212-.534-1.818-1.602-1.818-.612 0-.984.042-1.116.126zM96.448 103V91.606h2.358v9.504h4.266V103h-6.624zm10.654-11.394V103h-2.322V91.606h2.322zm2.593 0h7.452v1.89h-5.094v2.682h4.248v1.89h-4.248v3.042h5.328V103h-7.686V91.606zM119.088 103V91.624c.168-.036.642-.084 1.422-.144.78-.06 1.374-.09 1.782-.09 2.904 0 4.356 1.188 4.356 3.564 0 1.284-.522 2.376-1.566 3.276.432.996 1.17 2.586 2.214 4.77h-2.376c-.588-1.284-1.224-2.664-1.908-4.14a3.17 3.17 0 0 1-.54.036c-.528 0-.87-.048-1.026-.144V103h-2.358zm2.358-9.594v3.438c.36.108.75.162 1.17.162 1.032 0 1.548-.684 1.548-2.052 0-1.116-.534-1.674-1.602-1.674-.612 0-.984.042-1.116.126zm14.155-.864c-.216.324-.552.81-1.008 1.458-.96-.42-1.818-.63-2.574-.63-.996 0-1.494.372-1.494 1.116 0 .336.114.6.342.792.228.192.702.426 1.422.702 1.296.504 2.226 1.05 2.79 1.638.576.588.864 1.296.864 2.124 0 1.164-.438 2.064-1.314 2.7-.72.516-1.614.774-2.682.774-1.26 0-2.604-.456-4.032-1.368l1.044-1.458c.696.468 1.59.702 2.682.702 1.236 0 1.854-.498 1.854-1.494 0-.648-.666-1.2-1.998-1.656-2.148-.72-3.222-1.872-3.222-3.456 0-.96.36-1.722 1.08-2.286.672-.54 1.566-.81 2.682-.81 1.272 0 2.46.384 3.564 1.152z" fill="#3D4E76"/>
    <path fill-rule="evenodd" clip-rule="evenodd" d="M20 220.916h15.18v-10.843H20v10.843zM154.459 220.916h15.181v-10.843h-15.181v10.843z" fill="#fff"/>
    <path d="M155.182 230.314V192H35.904v38.314" stroke="#3D4E76" stroke-width="1.18" stroke-linecap="round" stroke-linejoin="round"/>
    <path d="M34.62 199.229H20v31.808h150.363v-25.084M169.64 199.265h-9.398M26.542 237.543v83.404M35.217 237.543l.325 82.772M155.218 237.543v86.025M164.616 237.543v86.025" stroke="#3D4E76" stroke-width="1.18" stroke-linecap="round" stroke-linejoin="round"/>
    <path fill-rule="evenodd" clip-rule="evenodd" d="M113.977 308.955a.6.6 0 0 0-.6.6v12.29a.6.6 0 0 0 .6.6h33.976a.6.6 0 0 0 .6-.6v-10.446a.602.602 0 0 0-.749-.581l-17.639 4.515-13.874-3.468a.601.601 0 0 0-.291 1.164l11.72 2.93-11.452 2.932a.6.6 0 0 0 .297 1.162l13.603-3.482 14.748 3.687a.6.6 0 0 0 .291-1.164l-12.594-3.149 14.74-3.773v9.073h-32.776v-11.09h28.845a.6.6 0 1 0 0-1.2h-29.445zM74.94 308.955a.6.6 0 0 0-.6.6v12.29a.6.6 0 0 0 .6.6h33.976a.6.6 0 0 0 .6-.6v-10.446a.6.6 0 0 0-.748-.581l-17.64 4.515-13.874-3.468a.6.6 0 0 0-.29 1.164l11.72 2.93-11.453 2.932a.6.6 0 1 0 .298 1.162l13.603-3.482 14.747 3.687a.6.6 0 1 0 .291-1.164l-12.594-3.149 14.74-3.773v9.073H75.54v-11.09h28.845a.6.6 0 1 0 0-1.2H74.94zM113.977 292.329a.6.6 0 0 0-.6.6v12.289a.6.6 0 0 0 .6.6h14.458a.6.6 0 0 0 .6-.6v-10.445a.6.6 0 0 0-.934-.499l-6.104 4.09-4.758-3.738a.599.599 0 1 0-.741.943l4.451 3.497-4.768 3.195a.6.6 0 1 0 .668.997l5.092-3.412 4.677 3.675a.6.6 0 1 0 .742-.943l-4.371-3.434 4.846-3.247v8.721h-13.258v-11.089h11.463a.6.6 0 1 0 0-1.2h-12.063zM74.94 292.329a.6.6 0 0 0-.6.6v12.289a.6.6 0 0 0 .6.6h14.458a.6.6 0 0 0 .6-.6v-10.445a.601.601 0 0 0-.934-.499l-6.104 4.09-4.757-3.738a.6.6 0 1 0-.742.943l4.451 3.497-4.768 3.195a.6.6 0 1 0 .668.997l5.092-3.412 4.678 3.675a.6.6 0 1 0 .741-.943l-4.37-3.434 4.845-3.247v8.721H75.54v-11.089h11.464a.6.6 0 0 0 0-1.2H74.94zM124.097 259.075a.6.6 0 0 0-.6.6v12.29a.6.6 0 0 0 .6.6h14.458a.6.6 0 0 0 .6-.6v-10.446a.6.6 0 0 0-.934-.498l-6.494 4.351-5.09-4a.602.602 0 0 0-.843.101.602.602 0 0 0 .101.843l4.784 3.758-4.378 2.934a.6.6 0 1 0 .668.997l4.702-3.151 4.345 3.414a.6.6 0 1 0 .741-.944l-4.037-3.172 5.235-3.508v8.721h-13.258v-11.09h11.464a.6.6 0 1 0 0-1.2h-12.064z" fill="#3D4E76"/>
    <path d="M67.485 309.555H55.422v12.29H69.88v-10.446l-11.92 7.987" stroke="#3D4E76" stroke-width="1.2" stroke-linecap="round" stroke-linejoin="round"/>
    <path d="m57.59 311.724 10.121 7.952" stroke="#3D4E76" stroke-width="1.2" stroke-linecap="round"/>
    <path d="M127.486 276.302h-12.063v12.289h14.458v-10.445l-11.921 7.987" stroke="#3D4E76" stroke-width="1.2" stroke-linecap="round" stroke-linejoin="round"/>
    <path d="m117.591 278.471 10.121 7.952" stroke="#3D4E76" stroke-width="1.2" stroke-linecap="round"/>
    <path fill-rule="evenodd" clip-rule="evenodd" d="M133.495 292.329a.6.6 0 0 0-.6.6v12.289a.6.6 0 0 0 .6.6h14.458a.6.6 0 0 0 .6-.6v-10.445a.6.6 0 0 0-.934-.499l-6.494 4.351-5.091-3.999a.599.599 0 1 0-.741.943l4.784 3.759-4.378 2.933a.6.6 0 0 0 .668.997l4.702-3.151 4.345 3.414a.599.599 0 1 0 .741-.943l-4.038-3.173 5.236-3.508v8.721h-13.258v-11.089h11.463a.6.6 0 1 0 0-1.2h-12.063zM94.459 292.329a.6.6 0 0 0-.6.6v12.289a.6.6 0 0 0 .6.6h14.457a.6.6 0 0 0 .6-.6v-10.445a.6.6 0 0 0-.933-.499l-6.495 4.351-5.09-3.999a.6.6 0 1 0-.742.943l4.784 3.759-4.378 2.933a.6.6 0 1 0 .668.997l4.702-3.151 4.345 3.414a.6.6 0 1 0 .741-.943l-4.037-3.173 5.235-3.508v8.721H95.058v-11.089h11.464a.6.6 0 0 0 0-1.2H94.458zM134.218 275.702a.6.6 0 0 0-.6.6v12.289a.6.6 0 0 0 .6.6h14.458a.6.6 0 0 0 .6-.6v-10.445a.598.598 0 0 0-.934-.498l-6.494 4.351-5.091-4a.6.6 0 1 0-.741.944l4.784 3.758-4.378 2.933a.6.6 0 1 0 .668.997l4.702-3.15 4.344 3.413a.6.6 0 1 0 .742-.943l-4.038-3.173 5.236-3.508v8.721h-13.258v-11.089h11.463a.6.6 0 1 0 0-1.2h-12.063z" fill="#3D4E76"/>
    <path d="M20.723 220.229H35.18M155.182 220.229h14.458M20.723 209.386H35.18M155.182 209.386h14.458" stroke="#3D4E76" stroke-width="1.18" stroke-linecap="round" stroke-linejoin="round"/>
    <path fill-rule="evenodd" clip-rule="evenodd" d="M37.35 229.591h115.663v-36.145H37.35v36.145z" fill="#fff"/>
    <g clip-path="url(#61rzegnrmb)">
        <path d="M68.399 208.495c-.19.286-.488.716-.89 1.288-.849-.371-1.607-.556-2.275-.556-.88 0-1.32.328-1.32.986 0 .297.1.53.302.699.202.17.62.377 1.257.621 1.145.445 1.966.927 2.465 1.447.509.519.763 1.145.763 1.877 0 1.028-.387 1.823-1.16 2.385-.637.456-1.427.684-2.37.684-1.114 0-2.301-.403-3.563-1.209l.923-1.288c.614.414 1.404.62 2.37.62 1.091 0 1.637-.44 1.637-1.32 0-.572-.588-1.06-1.765-1.463-1.898-.636-2.847-1.654-2.847-3.053 0-.849.318-1.522.954-2.02.594-.477 1.384-.716 2.37-.716 1.124 0 2.174.34 3.149 1.018zm10.053 5.01c0 2.947-1.293 4.421-3.88 4.421-2.587 0-3.88-1.474-3.88-4.421v-5.837h2.099v6.123c0 1.59.593 2.386 1.78 2.386 1.21 0 1.814-.796 1.814-2.386v-6.123h2.067v5.837zm2.552 4.23v-10.051c.148-.032.567-.074 1.256-.127.69-.053 1.214-.08 1.575-.08 2.566 0 3.849 1.05 3.849 3.149 0 1.304-.446 2.259-1.337 2.863-.593.413-1.293.62-2.099.62-.636 0-1.023-.042-1.16-.127v3.753h-2.084zm2.083-8.477v3.038c.276.106.62.159 1.034.159.424 0 .758-.148 1.002-.445.244-.308.366-.726.366-1.257 0-1.07-.472-1.606-1.416-1.606-.54 0-.87.037-.986.111zm6.505 8.477v-10.051c.149-.032.568-.074 1.257-.127.69-.053 1.214-.08 1.574-.08 2.566 0 3.85 1.05 3.85 3.149 0 1.304-.446 2.259-1.337 2.863-.594.413-1.293.62-2.1.62-.635 0-1.022-.042-1.16-.127v3.753h-2.084zm2.084-8.477v3.038c.276.106.62.159 1.034.159.424 0 .758-.148 1.002-.445.243-.308.365-.726.365-1.257 0-1.07-.471-1.606-1.415-1.606-.54 0-.87.037-.986.111zm6.505 8.477v-10.067h2.084v8.397h3.769v1.67h-5.853zm9.413-10.067v10.067h-2.051v-10.067h2.051zm2.292 0h6.584v1.67h-4.501v2.37h3.753v1.67h-3.753v2.687h4.708v1.67h-6.791v-10.067zm8.299 10.067v-10.051c.149-.032.567-.074 1.257-.127.689-.053 1.214-.08 1.574-.08 2.566 0 3.849 1.05 3.849 3.149 0 1.135-.461 2.099-1.384 2.895.382.88 1.034 2.285 1.956 4.214h-2.099c-.52-1.134-1.082-2.354-1.686-3.658a2.715 2.715 0 0 1-.477.032c-.466 0-.769-.042-.906-.127v3.753h-2.084zm2.084-8.477v3.038c.318.096.662.143 1.033.143.912 0 1.368-.604 1.368-1.813 0-.986-.472-1.479-1.415-1.479-.541 0-.87.037-.986.111zm12.506-.763c-.191.286-.488.716-.891 1.288-.848-.371-1.606-.556-2.274-.556-.88 0-1.32.328-1.32.986 0 .297.101.53.302.699.202.17.621.377 1.257.621 1.145.445 1.967.927 2.465 1.447.509.519.763 1.145.763 1.877 0 1.028-.387 1.823-1.161 2.385-.636.456-1.426.684-2.369.684-1.114 0-2.301-.403-3.563-1.209l.923-1.288c.615.414 1.404.62 2.369.62 1.092 0 1.638-.44 1.638-1.32 0-.572-.588-1.06-1.765-1.463-1.898-.636-2.847-1.654-2.847-3.053 0-.849.318-1.522.954-2.02.594-.477 1.384-.716 2.37-.716 1.124 0 2.174.34 3.149 1.018z" fill="#01B8B6"/>
    </g>
    <defs>
        <linearGradient id="xobcjqw9sa" x1="42.001" y1="71" x2="149" y2="71" gradientUnits="userSpaceOnUse">
            <stop stop-color="#FDBC11"/>
            <stop offset="1" stop-color="#F6931D"/>
        </linearGradient>
        <clipPath id="61rzegnrmb">
            <path fill="#fff" transform="translate(60.12 205.735)" d="M0 0h73.736v15.904H0z"/>
        </clipPath>
    </defs>
</svg>
