<svg width="343" height="233" viewBox="0 0 343 233" fill="none" xmlns="http://www.w3.org/2000/svg">
    <g clip-path="url(#n8d57fxwya)">
        <rect y=".984" width="343" height="231.492" rx="7" fill="#fff" stroke="#E9E9E9" stroke-width="1.4"/>
        <mask id="2j47o1ul5b" style="mask-type:luminance" maskUnits="userSpaceOnUse" x="-1" y="0" width="345" height="234">
            <rect y=".984" width="343" height="231.492" rx="7" fill="#fff" stroke="#fff" stroke-width="1.4"/>
        </mask>
        <g mask="url(#2j47o1ul5b)">
            <path d="M47.7 50.369h-4.74v-3h4.74v-5.34h3.51v5.34h4.77v3h-4.77v5.28H47.7v-5.28zm16.051-3.21h-2.85v-3.18h2.85c.8 0 1.35-.11 1.65-.33.46-.34.69-.95.69-1.83 0-.68-.2-1.22-.6-1.62-.4-.42-.94-.63-1.62-.63-1.22 0-2.49.56-3.81 1.68l-1.44-2.52c1.66-1.62 3.54-2.43 5.64-2.43 1.76 0 3.2.49 4.32 1.47 1.08.96 1.62 2.2 1.62 3.72 0 1.88-.78 3.14-2.34 3.78 2.02.78 3.03 2.28 3.03 4.5 0 2.34-.8 4.04-2.4 5.1-1.12.74-2.52 1.11-4.2 1.11-.92 0-1.97-.24-3.15-.72-1.16-.5-2.11-1.1-2.85-1.8l1.59-2.37c1.08.98 2.46 1.47 4.14 1.47.86 0 1.54-.24 2.04-.72.5-.5.75-1.17.75-2.01 0-1.78-1.02-2.67-3.06-2.67zm16.678-10.86c2.32 0 4.18 1.11 5.58 3.33 1.18 1.84 1.77 4.03 1.77 6.57 0 3.06-.75 5.51-2.25 7.35-1.32 1.64-3.02 2.46-5.1 2.46-2.38 0-4.24-1.06-5.58-3.18-1.12-1.76-1.68-3.97-1.68-6.63 0-2.96.74-5.39 2.22-7.29 1.34-1.74 3.02-2.61 5.04-2.61zm.06 3.36c-2.16 0-3.24 2.12-3.24 6.36 0 2.14.31 3.82.93 5.04.56 1.1 1.3 1.65 2.22 1.65 1.02 0 1.82-.59 2.4-1.77.6-1.2.9-2.84.9-4.92 0-4.24-1.07-6.36-3.21-6.36zm16.845-3.36c2.32 0 4.18 1.11 5.58 3.33 1.18 1.84 1.77 4.03 1.77 6.57 0 3.06-.75 5.51-2.25 7.35-1.32 1.64-3.02 2.46-5.1 2.46-2.38 0-4.24-1.06-5.58-3.18-1.12-1.76-1.68-3.97-1.68-6.63 0-2.96.74-5.39 2.22-7.29 1.34-1.74 3.02-2.61 5.04-2.61zm.06 3.36c-2.16 0-3.24 2.12-3.24 6.36 0 2.14.31 3.82.93 5.04.56 1.1 1.3 1.65 2.22 1.65 1.02 0 1.82-.59 2.4-1.77.6-1.2.9-2.84.9-4.92 0-4.24-1.07-6.36-3.21-6.36z" fill="url(#ylpnjn9n2c)"/>
            <path d="M98.941 203.378c-.522 0-.784-.267-.784-.8 0-.523.262-.784.784-.784.512 0 .768.261.768.784 0 .533-.256.8-.768.8zm2.032 0c-.522 0-.784-.267-.784-.8 0-.523.262-.784.784-.784.512 0 .768.261.768.784 0 .533-.256.8-.768.8zm2.976 7.744h1.056v1.296h-1.216c-1.098 0-1.888-.405-2.368-1.216-.512.491-1.146.736-1.904.736-.938 0-1.685-.352-2.24-1.056-.458-.597-.688-1.328-.688-2.192 0-1.035.315-1.867.944-2.496a2.63 2.63 0 0 1 1.952-.816c.587 0 1.094.149 1.52.448v-.688l1.392-.736v5.12c0 1.067.518 1.6 1.552 1.6zm-2.944-3.808a1.885 1.885 0 0 0-1.456-.656c-.469 0-.853.192-1.152.576-.298.373-.448.864-.448 1.472 0 .619.15 1.115.448 1.488.299.373.688.56 1.168.56.598 0 1.088-.245 1.472-.736a4.425 4.425 0 0 1-.032-.448v-2.256zm11.798 3.808h.912v1.296h-1.056c-.896 0-1.594-.277-2.096-.832-.501.555-1.2.832-2.096.832h-4.416v-1.296h4.288c1.024 0 1.536-.539 1.536-1.616v-.144c0-.8-.309-1.408-.928-1.824-.49-.341-1.093-.512-1.808-.512-.565 0-1.13.107-1.696.32v-1.36l3.504-3.888h1.408l-3.152 3.552h.096c1.216 0 2.198.368 2.944 1.104.672.683 1.008 1.547 1.008 2.592v.176c0 1.067.518 1.6 1.552 1.6zm5.407 0h1.056v1.296h-1.216c-.917 0-1.626-.293-2.128-.88-.533.587-1.269.88-2.208.88h-.96v-1.296h.848c1.11 0 1.664-.581 1.664-1.744v-6.544l1.392-.736v7.296c0 .619.118 1.061.352 1.328.246.267.646.4 1.2.4zm10.395 0h1.072v1.296h-1.216c-.885 0-1.584-.283-2.096-.848-.544.779-1.338 1.168-2.384 1.168-1.045 0-1.834-.384-2.368-1.152-.501.555-1.2.832-2.096.832h-1.216v-1.296h1.056c1.046 0 1.568-.533 1.568-1.6v-.528c0-1.237.304-2.187.912-2.848.534-.587 1.248-.88 2.144-.88 1.024 0 1.814.379 2.368 1.136.47.651.704 1.515.704 2.592v.528c0 1.067.518 1.6 1.552 1.6zm-4.624.32c.523 0 .934-.219 1.232-.656.31-.437.464-1.04.464-1.808 0-1.621-.565-2.432-1.696-2.432-1.12 0-1.68.811-1.68 2.432 0 1.643.56 2.464 1.68 2.464zm15.046-.32h1.072v1.296h-1.216c-.885 0-1.584-.283-2.096-.848-.544.779-1.339 1.168-2.384 1.168s-1.835-.384-2.368-1.152c-.501.555-1.2.832-2.096.832h-1.216v-1.296h1.056c1.045 0 1.568-.533 1.568-1.6v-.528c0-1.237.304-2.187.912-2.848.533-.587 1.248-.88 2.144-.88 1.024 0 1.813.379 2.368 1.136.469.651.704 1.515.704 2.592v.528c0 1.067.517 1.6 1.552 1.6zm-4.624.32c.523 0 .933-.219 1.232-.656.309-.437.464-1.04.464-1.808 0-1.621-.565-2.432-1.696-2.432-1.12 0-1.68.811-1.68 2.432 0 1.643.56 2.464 1.68 2.464zm4.742.976v-1.296h.848c1.109 0 1.664-.581 1.664-1.744v-6.544l1.392-.736v7.296c0 .949-.283 1.701-.848 2.256-.533.512-1.232.768-2.096.768h-.96zm6.779 0v-9.584l1.376-.736v10.32h-1.376zm7.105.928v-1.328c.384-.288.912-.496 1.584-.624-.48-.725-.72-1.493-.72-2.304 0-1.013.293-1.829.88-2.448.533-.576 1.226-.864 2.08-.864.928 0 1.696.373 2.304 1.12v1.328c-.683-.789-1.43-1.184-2.24-1.184-.502 0-.902.181-1.2.544-.299.352-.448.832-.448 1.44 0 .875.304 1.6.912 2.176.277-.021.474-.032.592-.032 1.365-.043 2.448-.357 3.248-.944v1.28c-.907.608-2.091.912-3.552.912-1.43 0-2.576.309-3.44.928zm12.023-.928c-.928 0-1.643-.299-2.144-.896-.427-.512-.64-1.163-.64-1.952v-6.736l1.376-.736v7.424c0 1.067.523 1.6 1.568 1.6h1.056v1.296h-1.216zm10.681-1.296h1.04v1.296h-1.056c-.864 0-1.557-.096-2.08-.288-.522-.203-1.008-.555-1.456-1.056-1.344.896-2.912 1.344-4.704 1.344h-2.176v-1.296h2.192c2.166 0 3.878-.715 5.136-2.144-.885-1.632-1.962-2.448-3.232-2.448-.864 0-1.754.459-2.672 1.376v-1.28c.896-.907 1.846-1.36 2.848-1.36.822 0 1.616.299 2.384.896.768.587 1.446 1.429 2.032 2.528v.704c-.33.416-.645.752-.944 1.008.576.48 1.472.72 2.688.72zm3.348-7.584c-.523 0-.784-.267-.784-.8 0-.523.261-.784.784-.784.512 0 .768.261.768.784 0 .533-.256.8-.768.8zm-3.264 8.88v-1.296h1.056c1.045 0 1.568-.533 1.568-1.6v-3.312l1.376-.736v4.096c0 .907-.272 1.621-.816 2.144-.501.469-1.157.704-1.968.704h-1.216zm6.025-10.544.368-.688h.432a1.2 1.2 0 0 1-.16-.592c0-.32.117-.592.352-.816.235-.235.512-.352.832-.352.267 0 .523.085.768.256v.704c-.235-.181-.459-.272-.672-.272-.395 0-.592.176-.592.528 0 .181.075.363.224.544h1.456l-.368.688h-2.64zm.848 10.544v-8.944l1.376-.736v9.68h-1.376zm11.568-.384c-1.013.608-1.626 1.024-1.84 1.248-.426.416-.64.933-.64 1.552 0 .683.235 1.232.704 1.648.47.427 1.078.64 1.824.64 1.174-.011 2.155-.293 2.944-.848v1.296a5.627 5.627 0 0 1-3.008.848c-1.184 0-2.133-.389-2.848-1.168-.618-.661-.928-1.477-.928-2.448 0-.725.192-1.344.576-1.856.384-.501 1.062-1.029 2.032-1.584-.874-.64-1.77-1.643-2.688-3.008v-.704c.523-.747 1.136-1.328 1.84-1.744.704-.427 1.419-.64 2.144-.64.715 0 1.43.219 2.144.656.715.427 1.328 1.013 1.84 1.76v.672c-.544.821-1.445 1.733-2.704 2.736.235.021.422.032.56.032h4.224l.016 1.296h-4.352a4.631 4.631 0 0 1-1.84-.384zm-2.592-4.016c.96 1.312 1.835 2.181 2.624 2.608a12.258 12.258 0 0 0 2.784-2.64c-.789-.96-1.69-1.445-2.704-1.456-1.024 0-1.925.496-2.704 1.488zm13.391 3.104h1.056v1.296h-1.216c-.886 0-1.584-.283-2.096-.848-.512.565-1.211.848-2.096.848h-1.216v-1.296h1.056c1.045 0 1.568-.533 1.568-1.6v-3.312l1.376-.736v4.048c0 1.067.522 1.6 1.568 1.6zm-3.824 2.896c.512 0 .768.267.768.8 0 .523-.256.784-.768.784-.523 0-.784-.261-.784-.784 0-.533.261-.8.784-.8zm2.032 0c.512 0 .768.267.768.8 0 .523-.256.784-.768.784-.523 0-.784-.261-.784-.784 0-.533.261-.8.784-.8zm12.184-2.896h1.072v1.296h-1.216c-.885 0-1.584-.283-2.096-.848-.544.779-1.339 1.168-2.384 1.168s-1.835-.384-2.368-1.152c-.501.555-1.2.832-2.096.832h-1.216v-1.296h1.056c1.045 0 1.568-.533 1.568-1.6v-.528c0-1.237.304-2.187.912-2.848.533-.587 1.248-.88 2.144-.88 1.024 0 1.813.379 2.368 1.136.469.651.704 1.515.704 2.592v.528c0 1.067.517 1.6 1.552 1.6zm-4.624.32c.523 0 .933-.219 1.232-.656.309-.437.464-1.04.464-1.808 0-1.621-.565-2.432-1.696-2.432-1.12 0-1.68.811-1.68 2.432 0 1.643.56 2.464 1.68 2.464zm4.742.976v-1.296h2.192c2.165 0 3.877-.715 5.136-2.144-.885-1.632-1.963-2.448-3.232-2.448-.864 0-1.755.459-2.672 1.376v-1.28c.896-.907 1.845-1.36 2.848-1.36.821 0 1.616.299 2.384.896.768.587 1.445 1.429 2.032 2.528v.704c-1.568 2.016-3.739 3.024-6.512 3.024h-2.176zm4.688 3.184c-.523 0-.784-.267-.784-.8 0-.523.261-.784.784-.784.512 0 .768.261.768.784 0 .533-.256.8-.768.8zm19.214-3.184c-.107.939-.619 1.691-1.536 2.256-.853.523-1.941.784-3.264.784-1.685 0-2.955-.491-3.808-1.472-.629-.725-.944-1.621-.944-2.688 0-.896.224-1.664.672-2.304l1.328-.288a4.488 4.488 0 0 0-.72 2.448c0 .949.309 1.696.928 2.24.608.544 1.456.816 2.544.816.917 0 1.675-.16 2.272-.48.597-.32.96-.757 1.088-1.312h-1.6l.672-1.296h2.416v1.296h-.048zm-5.872 5.872c-.523 0-.784-.267-.784-.8 0-.523.261-.784.784-.784.512 0 .768.261.768.784 0 .533-.256.8-.768.8zm2.032 0c-.523 0-.784-.267-.784-.8 0-.523.261-.784.784-.784.512 0 .768.261.768.784 0 .533-.256.8-.768.8zm8.263-14.656c-.522 0-.784-.267-.784-.8 0-.523.262-.784.784-.784.512 0 .768.261.768.784 0 .533-.256.8-.768.8zm-5.216 8.784v-1.296h2.88c-.49-.544-.736-1.301-.736-2.272 0-1.163.304-2.069.912-2.72.534-.576 1.243-.864 2.128-.864.907 0 1.611.283 2.112.848.427.501.64 1.157.64 1.968v1.52c-.01.885-.272 1.584-.784 2.096-.501.48-1.168.72-2 .72h-5.152zm6.56-4.272c0-1.067-.458-1.6-1.376-1.6-.522 0-.933.203-1.232.608-.298.395-.448.949-.448 1.664 0 .704.144 1.264.432 1.68.288.416.672.624 1.152.624.982 0 1.472-.512 1.472-1.536v-1.44z" fill="#3D4E76"/>
            <path d="M178.606-136.447a150.463 150.463 0 0 1 60.649-12.716c86.175 0 156.037 72.472 156.037 161.867 0 89.398-69.862 161.866-156.037 161.866-57.753 0-108.064-32.635-135.045-81.018C62.848 143.094 1.9 174.57-66.238 174.57c-47.464 0-91.45-15.273-127.787-41.242-30.912 25.753-70.111 41.242-112.855 41.242-99.669 0-180.476-83.818-180.476-187.214 0-103.405 80.807-187.223 180.476-187.223 18.904 0 37.122 3.043 54.243 8.631 40.621-61.706 108.935-102.242 186.399-102.242 48.848 0 94.022 16.13 130.898 43.529" stroke="url(#6lsjjn6ytd)" stroke-width="1.935" stroke-linecap="round" stroke-linejoin="round"/>
            <path fill-rule="evenodd" clip-rule="evenodd" d="M162.58 53.849h14.694V43.733H162.58v10.116zM292.726 53.849h14.694V43.733h-14.694v10.116z" fill="#fff"/>
            <path d="M293.426 62.616V26.872H177.974v35.744" stroke="#3D4E76" stroke-width="1.482" stroke-linecap="round" stroke-linejoin="round"/>
            <path d="M176.731 33.616H162.58v29.675h145.539V39.889M307.42 33.665h-9.097M168.912 69.36v70.14M177.309 69.36l.315 77.222M293.46 69.36v80.257M302.557 69.36v71.489" stroke="#3D4E76" stroke-width="1.482" stroke-linecap="round" stroke-linejoin="round"/>
            <mask id="s3tpmz44de" fill="#fff">
                <path fill-rule="evenodd" clip-rule="evenodd" d="M253.542 136.736a.741.741 0 0 0-.741.741v11.465c0 .41.332.741.741.741h32.886a.74.74 0 0 0 .742-.741v-9.745a.742.742 0 0 0-.919-.719l-17.098 4.218-13.344-3.215a.714.714 0 1 0-.335 1.388l10.667 2.57-10.415 2.57a.742.742 0 0 0 .355 1.439l13.191-3.254 14.19 3.419a.714.714 0 1 0 .335-1.388l-11.513-2.774 13.403-3.307v8.057h-31.404v-9.983h27.76a.741.741 0 0 0 0-1.482h-28.501z"/>
            </mask>
            <path d="m286.251 138.478.354 1.437-.354-1.437zm-17.098 4.218-.347 1.439c.231.056.471.055.702-.002l-.355-1.437zm-13.344-3.215-.347 1.438v.001l.347-1.439zm-.862.527 1.439.346-1.439-.346zm.527.861-.347 1.439.347-1.439zm10.667 2.57.355 1.437a1.479 1.479 0 0 0-.008-2.875l-.347 1.438zm-10.415 2.57-.354-1.437.354 1.437zm-.542.897-1.437.355 1.437-.355zm.897.542-.354-1.437.354 1.437zm13.191-3.254.346-1.439a1.47 1.47 0 0 0-.701.002l.355 1.437zm14.19 3.419.347-1.439-.347 1.439zm.862-.527-1.439-.346 1.439.346zm-.527-.861-.347 1.439.347-1.439zm-11.513-2.774-.355-1.437a1.479 1.479 0 0 0 .008 2.875l.347-1.438zm13.403-3.307h1.48a1.479 1.479 0 0 0-1.834-1.437l.354 1.437zm0 8.057v1.48a1.48 1.48 0 0 0 1.48-1.48h-1.48zm-31.404 0h-1.48c0 .818.663 1.48 1.48 1.48v-1.48zm0-9.983v-1.48a1.48 1.48 0 0 0-1.48 1.48h1.48zm-.002-.741a.74.74 0 0 1-.739.739v-2.96a2.22 2.22 0 0 0-2.221 2.221h2.96zm0 11.465v-11.465h-2.96v11.465h2.96zm-.739-.739a.74.74 0 0 1 .739.739h-2.96a2.22 2.22 0 0 0 2.221 2.221v-2.96zm32.886 0h-32.886v2.96h32.886v-2.96zm-.738.739c0-.408.33-.739.738-.739v2.96a2.221 2.221 0 0 0 2.222-2.221h-2.96zm0-9.745v9.745h2.96v-9.745h-2.96zm.283.582a.737.737 0 0 1-.283-.582h2.96a2.22 2.22 0 0 0-.852-1.748l-1.825 2.33zm.632.136a.74.74 0 0 1-.632-.136l1.825-2.33a2.22 2.22 0 0 0-1.902-.408l.709 2.874zm-17.097 4.218 17.097-4.218-.709-2.874-17.097 4.218.709 2.874zm-14.046-3.213 13.344 3.215.694-2.878-13.345-3.215-.693 2.878zm.924-.566a.765.765 0 0 1-.924.565l.693-2.877a2.194 2.194 0 0 0-2.647 1.619l2.878.693zm-.565-.924a.766.766 0 0 1 .565.924l-2.878-.693a2.195 2.195 0 0 0 1.619 2.647l.694-2.878zm10.667 2.571-10.667-2.571-.694 2.878 10.667 2.57.694-2.877zm-10.407 5.445 10.415-2.57-.709-2.874-10.415 2.57.709 2.874zm.54-.894a.738.738 0 0 1-.54.894l-.709-2.874a2.222 2.222 0 0 0-1.625 2.689l2.874-.709zm-.894-.541a.738.738 0 0 1 .894.541l-2.874.709a2.221 2.221 0 0 0 2.689 1.624l-.709-2.874zm13.19-3.254-13.19 3.254.709 2.874 13.19-3.254-.709-2.874zm14.892 3.417-14.191-3.419-.693 2.878 14.191 3.419.693-2.878zm-.924.566a.766.766 0 0 1 .924-.566l-.693 2.878a2.194 2.194 0 0 0 2.647-1.619l-2.878-.693zm.565.924a.766.766 0 0 1-.565-.924l2.878.693a2.195 2.195 0 0 0-1.619-2.647l-.694 2.878zm-11.513-2.775 11.513 2.775.694-2.878-11.514-2.774-.693 2.877zm13.396-6.182-13.404 3.307.709 2.874 13.404-3.307-.709-2.874zm1.834 9.494v-8.057h-2.96v8.057h2.96zm-32.884 1.48h31.404v-2.96h-31.404v2.96zm-1.48-11.463v9.983h2.96v-9.983h-2.96zm29.24-1.48h-27.76v2.96h27.76v-2.96zm-.739.739a.74.74 0 0 1 .739-.739v2.96a2.221 2.221 0 0 0 2.221-2.221h-2.96zm.739.739a.74.74 0 0 1-.739-.739h2.96a2.221 2.221 0 0 0-2.221-2.221v2.96zm-28.501 0h28.501v-2.96h-28.501v2.96z" fill="#3D4E76" mask="url(#s3tpmz44de)"/>
            <mask id="1l0db6aidf" fill="#fff">
                <path fill-rule="evenodd" clip-rule="evenodd" d="M215.758 136.736a.741.741 0 0 0-.741.741v11.465c0 .41.332.741.741.741h32.886a.74.74 0 0 0 .741-.741v-9.745a.739.739 0 0 0-.918-.719l-17.098 4.218-13.345-3.215a.713.713 0 1 0-.334 1.388l10.667 2.57-10.415 2.57a.74.74 0 1 0 .355 1.439l13.191-3.254 14.19 3.419a.714.714 0 1 0 .335-1.388l-11.513-2.774 13.403-3.307v8.057h-31.404v-9.983h27.76a.741.741 0 0 0 0-1.482h-28.501z"/>
            </mask>
            <path d="m248.467 138.478.354 1.437-.354-1.437zm-17.098 4.218-.347 1.439c.231.056.471.055.701-.002l-.354-1.437zm-13.345-3.215-.346 1.438v.001l.346-1.439zm-.861.527 1.439.346-1.439-.346zm.527.861-.347 1.439.347-1.439zm10.667 2.57.354 1.437a1.479 1.479 0 0 0-.007-2.875l-.347 1.438zm-10.415 2.57-.355-1.437.355 1.437zm-.542.897-1.437.355 1.437-.355zm.897.542-.355-1.437.355 1.437zm13.191-3.254.346-1.439a1.47 1.47 0 0 0-.701.002l.355 1.437zm14.19 3.419.347-1.439-.347 1.439zm.862-.527-1.439-.346 1.439.346zm-.527-.861-.347 1.439.347-1.439zm-11.513-2.774-.355-1.437a1.479 1.479 0 0 0 .008 2.875l.347-1.438zm13.403-3.307h1.48a1.479 1.479 0 0 0-1.834-1.437l.354 1.437zm0 8.057v1.48a1.48 1.48 0 0 0 1.48-1.48h-1.48zm-31.404 0h-1.48c0 .818.663 1.48 1.48 1.48v-1.48zm0-9.983v-1.48a1.48 1.48 0 0 0-1.48 1.48h1.48zm-.002-.741a.74.74 0 0 1-.739.739v-2.96a2.22 2.22 0 0 0-2.221 2.221h2.96zm0 11.465v-11.465h-2.96v11.465h2.96zm-.739-.739a.74.74 0 0 1 .739.739h-2.96a2.22 2.22 0 0 0 2.221 2.221v-2.96zm32.886 0h-32.886v2.96h32.886v-2.96zm-.739.739a.74.74 0 0 1 .739-.739v2.96a2.22 2.22 0 0 0 2.221-2.221h-2.96zm0-9.745v9.745h2.96v-9.745h-2.96zm.284.582a.738.738 0 0 1-.284-.582h2.96c0-.682-.314-1.327-.851-1.748l-1.825 2.33zm.632.136a.74.74 0 0 1-.632-.136l1.825-2.33a2.22 2.22 0 0 0-1.902-.408l.709 2.874zm-17.098 4.218 17.098-4.218-.709-2.874-17.098 4.218.709 2.874zm-14.045-3.213 13.344 3.215.694-2.878-13.345-3.215-.693 2.878zm.924-.566a.765.765 0 0 1-.924.565l.693-2.877a2.194 2.194 0 0 0-2.647 1.619l2.878.693zm-.565-.924a.766.766 0 0 1 .565.924l-2.878-.693a2.194 2.194 0 0 0 1.619 2.647l.694-2.878zm10.667 2.571-10.667-2.571-.694 2.878 10.667 2.57.694-2.877zm-10.408 5.445 10.415-2.57-.709-2.874-10.415 2.57.709 2.874zm.541-.894a.74.74 0 0 1-.541.894l-.709-2.874a2.221 2.221 0 0 0-1.624 2.689l2.874-.709zm-.895-.541a.739.739 0 0 1 .895.541l-2.874.709a2.22 2.22 0 0 0 2.688 1.624l-.709-2.874zm13.191-3.254-13.191 3.254.709 2.874 13.191-3.254-.709-2.874zm14.892 3.417-14.191-3.419-.693 2.878 14.191 3.419.693-2.878zm-.924.566a.766.766 0 0 1 .924-.566l-.693 2.878a2.193 2.193 0 0 0 2.646-1.619l-2.877-.693zm.565.924a.766.766 0 0 1-.565-.924l2.877.693a2.194 2.194 0 0 0-1.619-2.647l-.693 2.878zm-11.513-2.775 11.513 2.775.693-2.878-11.513-2.774-.693 2.877zm13.396-6.182-13.404 3.307.709 2.874 13.404-3.307-.709-2.874zm1.834 9.494v-8.057h-2.96v8.057h2.96zm-32.884 1.48h31.404v-2.96h-31.404v2.96zm-1.48-11.463v9.983h2.96v-9.983h-2.96zm29.24-1.48h-27.76v2.96h27.76v-2.96zm-.739.739a.74.74 0 0 1 .739-.739v2.96a2.221 2.221 0 0 0 2.221-2.221h-2.96zm.739.739a.74.74 0 0 1-.739-.739h2.96a2.221 2.221 0 0 0-2.221-2.221v2.96zm-28.501 0h28.501v-2.96h-28.501v2.96z" fill="#3D4E76" mask="url(#1l0db6aidf)"/>
            <mask id="42x5x7t97g" fill="#fff">
                <path fill-rule="evenodd" clip-rule="evenodd" d="M221.198 107.554a.71.71 0 0 0-.214 1.007l6.551 9.706a.773.773 0 0 0 1.043.222l27.504-17.186a.71.71 0 0 0 .214-1.007l-5.569-8.25a.77.77 0 0 0-1.186-.105l-11.878 12.495-13.008 4.256a.688.688 0 0 0-.443.89.74.74 0 0 0 .925.442l10.471-3.426-7.292 7.67a.714.714 0 0 0 .051 1.031.77.77 0 0 0 1.064-.035l9.169-9.645 13.818-4.521a.688.688 0 0 0 .443-.89.74.74 0 0 0-.925-.442l-11.281 3.691 9.349-9.834 4.62 6.844-26.247 16.4-5.721-8.478 23.207-14.5a.71.71 0 0 0 .214-1.007.774.774 0 0 0-1.044-.222l-23.835 14.894z"/>
            </mask>
            <path d="m220.984 108.561-1.255.788 1.255-.788zm.214-1.007-.827-1.231.827 1.231zm6.337 10.713 1.255-.788-1.255.788zm1.043.222-.826-1.231.826 1.231zm27.504-17.186.826 1.231-.826-1.231zm.214-1.007 1.255-.788-1.255.788zm-5.569-8.25-1.255.788 1.255-.788zm-.57-.333-.117 1.454.117-1.454zm-.616.228 1.113.998-1.113-.998zm-11.878 12.495.498 1.384a1.49 1.49 0 0 0 .614-.386l-1.112-.998zm-13.008 4.256.498 1.384-.498-1.384zm.482 1.332.498 1.384-.498-1.384zm10.471-3.426 1.112.998a1.423 1.423 0 0 0 .142-1.787 1.543 1.543 0 0 0-1.752-.595l.498 1.384zm-7.292 7.67 1.112.998-1.112-.998zm1.115.996-1.112-.997 1.112.997zm9.169-9.645-.498-1.384a1.49 1.49 0 0 0-.614.386l1.112.998zm13.818-4.521-.498-1.384.498 1.384zm.443-.89-1.419.467 1.419-.467zm-.925-.442-.497-1.384.497 1.384zm-11.281 3.691-1.112-.998a1.422 1.422 0 0 0-.142 1.787c.38.563 1.102.808 1.752.595l-.498-1.384zm9.349-9.834 1.255-.789a1.536 1.536 0 0 0-1.138-.665 1.511 1.511 0 0 0-1.229.456l1.112.998zm4.62 6.844.826 1.231c.334-.209.567-.539.647-.918a1.432 1.432 0 0 0-.218-1.101l-1.255.788zm-26.247 16.4-1.255.788a1.543 1.543 0 0 0 2.082.443l-.827-1.231zm-5.721-8.478-.827-1.23a1.434 1.434 0 0 0-.647.917c-.081.379-.002.775.218 1.102l1.256-.789zm23.207-14.5-.827-1.23.827 1.23zm.214-1.007 1.255-.789-1.255.789zm-1.044-.222.827 1.23-.827-1.23zm-22.794 15.112a.715.715 0 0 1-.215 1.012l-1.653-2.461a2.135 2.135 0 0 0-.642 3.026l2.51-1.577zm6.551 9.707-6.551-9.707-2.51 1.577 6.551 9.706 2.51-1.576zm-1.038-.221a.768.768 0 0 1 1.038.221l-2.51 1.576a2.316 2.316 0 0 0 3.125.664l-1.653-2.461zm27.503-17.185-27.503 17.185 1.653 2.461 27.503-17.185-1.653-2.461zm-.215 1.011a.714.714 0 0 1 .215-1.011l1.653 2.461a2.135 2.135 0 0 0 .643-3.026l-2.511 1.576zm-5.568-8.25 5.568 8.25 2.511-1.576-5.568-8.25-2.511 1.576zm.568.332a.767.767 0 0 1-.568-.332l2.511-1.576a2.308 2.308 0 0 0-1.709-.999l-.234 2.907zm.614-.227a.755.755 0 0 1-.614.228l.234-2.908a2.267 2.267 0 0 0-1.845.684l2.225 1.996zm-11.879 12.495 11.879-12.495-2.225-1.996-11.878 12.496 2.224 1.995zm-13.622 4.642 13.008-4.256-.996-2.768-13.008 4.256.996 2.768zm.478-.961a.743.743 0 0 1-.478.961l-.996-2.768c-1.161.381-1.774 1.607-1.364 2.741l2.838-.934zm-.992-.475a.795.795 0 0 1 .992.475l-2.838.934c.409 1.132 1.682 1.739 2.842 1.359l-.996-2.768zm10.471-3.426-10.471 3.426.996 2.768 10.47-3.426-.995-2.768zm-5.682 10.052 7.292-7.67-2.225-1.995-7.291 7.67 2.224 1.995zm-.05-1.035a.718.718 0 0 1 .05 1.035l-2.224-1.995c-.841.884-.771 2.271.152 3.096l2.022-2.136zm-1.059.036a.765.765 0 0 1 1.059-.036l-2.022 2.136c.921.823 2.347.778 3.187-.105l-2.224-1.995zm9.169-9.646-9.169 9.646 2.224 1.995 9.169-9.645-2.224-1.996zm14.432-4.907-13.818 4.521.996 2.768 13.818-4.521-.996-2.768zm-.478.961a.744.744 0 0 1 .478-.961l.996 2.768c1.162-.381 1.774-1.607 1.364-2.741l-2.838.934zm.992.475a.796.796 0 0 1-.992-.475l2.838-.934c-.409-1.132-1.682-1.739-2.841-1.36l.995 2.769zm-11.281 3.691 11.281-3.691-.995-2.768-11.282 3.691.996 2.768zm7.739-12.216-9.349 9.834 2.224 1.996 9.349-9.835-2.224-1.995zm6.987 7.054-4.62-6.845-2.51 1.577 4.62 6.845 2.51-1.577zm-26.675 18.419 26.246-16.4-1.653-2.461-26.246 16.4 1.653 2.461zm-7.804-8.92 5.722 8.477 2.511-1.576-5.722-8.478-2.511 1.577zm23.636-16.52-23.207 14.501 1.653 2.461 23.207-14.5-1.653-2.462zm-.215 1.012a.715.715 0 0 1 .215-1.012l1.653 2.461a2.134 2.134 0 0 0 .643-3.026l-2.511 1.577zm1.039.22a.77.77 0 0 1-1.039-.22l2.511-1.577a2.316 2.316 0 0 0-3.125-.663l1.653 2.46zm-23.836 14.894L245.86 93.89l-1.653-2.46-23.836 14.893 1.653 2.461z" fill="#3D4E76" mask="url(#42x5x7t97g)"/>
            <path d="M265.618 121.887h-11.676v11.465h13.994v-9.745l-11.538 7.451" stroke="#3D4E76" stroke-width="1.482" stroke-linecap="round" stroke-linejoin="round"/>
            <path d="m256.041 123.91 9.796 7.419" stroke="#3D4E76" stroke-width="1.344" stroke-linecap="round"/>
            <path d="M227.618 121.887h-11.676v11.465h13.994v-9.745l-11.538 7.451" stroke="#3D4E76" stroke-width="1.482" stroke-linecap="round" stroke-linejoin="round"/>
            <path d="m218.041 123.91 9.796 7.419" stroke="#3D4E76" stroke-width="1.344" stroke-linecap="round"/>
            <path d="M274.618 91.02h-11.676v11.466h13.994v-9.745l-11.538 7.451" stroke="#3D4E76" stroke-width="1.482" stroke-linecap="round" stroke-linejoin="round"/>
            <path d="m265.041 93.044 9.796 7.419" stroke="#3D4E76" stroke-width="1.344" stroke-linecap="round"/>
            <path d="M208.542 137.477h-11.676v11.465h13.994v-9.745l-11.538 7.452" stroke="#3D4E76" stroke-width="1.482" stroke-linecap="round" stroke-linejoin="round"/>
            <path d="m198.965 139.5 9.796 7.419" stroke="#3D4E76" stroke-width="1.344" stroke-linecap="round"/>
            <path d="M266.618 106.454h-11.676v11.465h13.994v-9.745l-11.538 7.451" stroke="#3D4E76" stroke-width="1.482" stroke-linecap="round" stroke-linejoin="round"/>
            <path d="m257.041 108.477 9.796 7.419" stroke="#3D4E76" stroke-width="1.344" stroke-linecap="round"/>
            <path d="M283.618 121.887h-11.676v11.465h13.994v-9.745l-11.538 7.451" stroke="#3D4E76" stroke-width="1.482" stroke-linecap="round" stroke-linejoin="round"/>
            <path d="m274.041 123.91 9.796 7.419" stroke="#3D4E76" stroke-width="1.344" stroke-linecap="round"/>
            <path d="M246.618 121.887h-11.676v11.465h13.994v-9.745l-11.538 7.451" stroke="#3D4E76" stroke-width="1.482" stroke-linecap="round" stroke-linejoin="round"/>
            <path d="m237.041 123.91 9.796 7.419" stroke="#3D4E76" stroke-width="1.344" stroke-linecap="round"/>
            <path d="M284.618 106.454h-11.676v11.465h13.994v-9.745l-11.538 7.451" stroke="#3D4E76" stroke-width="1.482" stroke-linecap="round" stroke-linejoin="round"/>
            <path d="m275.041 108.477 9.796 7.419" stroke="#3D4E76" stroke-width="1.344" stroke-linecap="round"/>
            <path d="M163.28 53.223h13.994M293.426 53.223h13.994M163.28 43.107h13.994M293.426 43.107h13.994" stroke="#3D4E76" stroke-width="1.482" stroke-linecap="round" stroke-linejoin="round"/>
            <path fill-rule="evenodd" clip-rule="evenodd" d="M179.373 61.942h111.953V28.22H179.373v33.72z" fill="#fff"/>
            <g clip-path="url(#aqvakgfslh)">
                <path d="M209.33 47.387c-.976.585-1.566.986-1.771 1.201-.411.4-.616.899-.616 1.494 0 .657.226 1.186.677 1.586.452.411 1.037.616 1.756.616 1.129-.01 2.074-.282 2.833-.816v1.248a5.41 5.41 0 0 1-2.895.816c-1.139 0-2.053-.375-2.741-1.124-.595-.637-.893-1.422-.893-2.357 0-.698.185-1.293.554-1.786.37-.483 1.022-.99 1.956-1.525-.842-.616-1.704-1.58-2.587-2.895v-.677c.503-.719 1.093-1.279 1.771-1.679.677-.41 1.365-.616 2.063-.616.688 0 1.376.21 2.064.631.688.411 1.278.976 1.771 1.694v.647c-.524.79-1.391 1.669-2.603 2.634.226.02.406.03.539.03h4.066l.015 1.248h-4.188a4.454 4.454 0 0 1-1.771-.37zm-2.495-3.865c.924 1.263 1.766 2.1 2.525 2.51a11.799 11.799 0 0 0 2.68-2.541c-.76-.924-1.627-1.391-2.603-1.401-.985 0-1.853.477-2.602 1.432zm21.296 2.987h1.017v1.248h-1.171c-.821 0-1.463-.241-1.925-.724-.42.483-1.016.724-1.786.724h-9.902v-1.248h2.864l.046-.169v-7.808l1.325-.708v5.636c1.17-1.725 2.623-2.587 4.358-2.587 1.16 0 2.089.406 2.787 1.217.596.688.894 1.534.894 2.54V45c0 1.006.498 1.51 1.493 1.51zm-2.833-1.447v-.431c0-.801-.247-1.438-.739-1.91-.421-.41-.95-.616-1.587-.616-1.057 0-2.012.477-2.864 1.432-.636.719-1.14 1.617-1.509 2.695v.277h5.559c.442 0 .739-.102.893-.308.165-.205.247-.585.247-1.14zm6.951-5.744c-.503 0-.754-.257-.754-.77 0-.503.251-.755.754-.755.493 0 .739.252.739.755 0 .513-.246.77-.739.77zm1.956 0c-.503 0-.755-.257-.755-.77 0-.503.252-.755.755-.755.493 0 .739.252.739.755 0 .513-.246.77-.739.77zm-5.975 8.439v-1.248h2.772c-.472-.523-.709-1.252-.709-2.186 0-1.12.293-1.992.878-2.618.514-.555 1.196-.832 2.048-.832.873 0 1.551.272 2.033.816.411.483.616 1.114.616 1.894v1.463c-.01.853-.262 1.525-.754 2.018-.483.462-1.125.693-1.925.693h-4.959zm6.314-4.112c0-1.027-.442-1.54-1.325-1.54-.503 0-.898.195-1.185.585-.288.38-.432.914-.432 1.602 0 .677.139 1.216.416 1.617.277.4.647.6 1.109.6.945 0 1.417-.492 1.417-1.478v-1.386zm6.303 4.112.647-1.248h2.741c.411 0 .698-.102.862-.308.175-.205.262-.56.262-1.062 0-1.376-.621-2.418-1.863-3.126l.647-1.094c1.694.965 2.541 2.377 2.541 4.235 0 1.735-.74 2.603-2.218 2.603h-3.619zm10.724-10.518.739-.416v1.247a.933.933 0 0 1-.293.709c-.195.184-.446.277-.754.277-.267 0-.498-.072-.693-.216a1.135 1.135 0 0 1-.693.216c-.308 0-.565-.093-.77-.277a.933.933 0 0 1-.293-.709v-.477l.755-.416v.847c0 .205.102.308.308.308.205 0 .308-.087.308-.262v-.677l.754-.416v1.093c0 .175.108.262.324.262.205 0 .308-.103.308-.308v-.785zm-.144 9.702c0 1.15-.303 2.073-.909 2.772-.575.667-1.34 1-2.295 1a3.821 3.821 0 0 1-1.801-.461v-1.155c.523.287 1.047.43 1.57.43.657 0 1.171-.22 1.54-.661.37-.442.555-1.053.555-1.833v-5.251l1.34-.709v5.868zm9.965-.432v1.248h-1.909c-.041.883-.421 1.612-1.14 2.187a3.266 3.266 0 0 1-2.063.708 3.804 3.804 0 0 1-1.802-.447v-1.17c.544.288 1.083.431 1.617.431.544 0 1.016-.17 1.417-.508.41-.339.621-.744.631-1.217-.534-.02-.929-.04-1.186-.061-1.109-.062-1.945-.437-2.51-1.124-.472-.575-.708-1.32-.708-2.233 0-1.12.297-1.992.893-2.618.534-.555 1.237-.832 2.11-.832.913 0 1.617.272 2.109.816.421.483.632 1.114.632 1.894v2.926h1.909zm-3.249-2.833c0-1.047-.467-1.571-1.401-1.571-.534 0-.95.195-1.248.585-.298.38-.446.914-.446 1.602 0 1.345.657 2.058 1.971 2.14.246.031.621.057 1.124.077v-2.833zm4.856-.093c0-.893.267-1.586.801-2.079.472-.42 1.088-.631 1.848-.631.975 0 1.725.36 2.248 1.078.452.606.678 1.396.678 2.372 0 1.108-.287 1.976-.862 2.602-.503.555-1.16.832-1.972.832-.924 0-1.627-.257-2.109-.77-.493.513-1.155.77-1.987.77h-1.17v-1.248h1.016c1.006 0 1.509-.513 1.509-1.54v-1.386zm1.325 1.494c0 .955.467 1.432 1.401 1.432.483 0 .857-.195 1.124-.585.277-.39.416-.934.416-1.632 0-.688-.144-1.222-.431-1.602-.288-.39-.683-.585-1.186-.585-.883 0-1.324.513-1.324 1.54v1.432z" fill="#01B8B6"/>
            </g>
            <path d="M45.216 75.183c-.976.585-1.566.985-1.771 1.201-.41.4-.616.898-.616 1.494 0 .657.226 1.186.678 1.586.451.41 1.036.616 1.755.616 1.13-.01 2.074-.282 2.834-.816v1.247a5.414 5.414 0 0 1-2.895.816c-1.14 0-2.054-.374-2.742-1.124-.595-.636-.893-1.422-.893-2.356 0-.698.185-1.294.554-1.786.37-.483 1.022-.991 1.956-1.525-.842-.616-1.704-1.581-2.587-2.895v-.678c.503-.718 1.094-1.278 1.771-1.678.678-.411 1.366-.616 2.064-.616.688 0 1.375.21 2.063.631.688.41 1.279.975 1.771 1.694v.647c-.523.79-1.39 1.668-2.602 2.633.226.02.405.031.539.031h4.065l.016 1.247h-4.19a4.454 4.454 0 0 1-1.77-.37zm-2.495-3.866c.924 1.263 1.766 2.1 2.526 2.51a11.814 11.814 0 0 0 2.68-2.54c-.76-.924-1.628-1.392-2.603-1.402-.986 0-1.853.478-2.603 1.432zm21.297 2.988h1.016v1.247h-1.17c-.822 0-1.463-.24-1.925-.723-.421.482-1.017.723-1.787.723H50.25v-1.247h2.864l.047-.17v-7.807l1.324-.709v5.637c1.17-1.725 2.623-2.587 4.358-2.587 1.16 0 2.09.405 2.788 1.216.595.688.893 1.535.893 2.541v.37c0 1.006.498 1.509 1.494 1.509zm-2.834-1.448v-.43c0-.802-.246-1.438-.74-1.91-.42-.411-.949-.616-1.585-.616-1.058 0-2.013.477-2.865 1.432-.636.718-1.14 1.617-1.509 2.695v.277h5.56c.441 0 .739-.103.893-.308.164-.205.246-.585.246-1.14zm6.951-5.744c-.503 0-.754-.257-.754-.77 0-.503.251-.754.754-.754.493 0 .74.251.74.754 0 .513-.247.77-.74.77zm1.956 0c-.503 0-.754-.257-.754-.77 0-.503.251-.754.754-.754.493 0 .74.251.74.754 0 .513-.247.77-.74.77zm-5.975 8.44v-1.248h2.772c-.472-.524-.708-1.253-.708-2.187 0-1.119.292-1.992.877-2.618.514-.554 1.197-.831 2.049-.831.872 0 1.55.272 2.032.816.411.482.616 1.114.616 1.894v1.463c-.01.852-.261 1.525-.754 2.017-.483.462-1.124.693-1.925.693h-4.959zm6.314-4.112c0-1.027-.441-1.54-1.324-1.54-.503 0-.899.195-1.186.585-.288.38-.431.913-.431 1.601 0 .678.138 1.217.415 1.617.278.4.647.601 1.11.601.944 0 1.416-.493 1.416-1.478V71.44zm6.303 4.111.647-1.247h2.741c.411 0 .698-.103.863-.308.174-.205.262-.56.262-1.063 0-1.375-.622-2.417-1.864-3.126l.647-1.093c1.694.965 2.54 2.376 2.54 4.235 0 1.735-.738 2.602-2.217 2.602h-3.619zm10.724-10.518.74-.416v1.248a.933.933 0 0 1-.293.708c-.195.185-.447.277-.755.277-.267 0-.498-.072-.693-.215a1.136 1.136 0 0 1-.693.215c-.308 0-.565-.092-.77-.277a.933.933 0 0 1-.293-.708v-.478l.755-.415v.847c0 .205.103.308.308.308.205 0 .308-.088.308-.262v-.678l.755-.416v1.094c0 .174.107.262.323.262.205 0 .308-.103.308-.308v-.786zm-.144 9.702c0 1.15-.303 2.074-.909 2.772-.575.668-1.34 1.001-2.294 1.001a3.825 3.825 0 0 1-1.802-.462v-1.155c.523.288 1.047.431 1.57.431.658 0 1.171-.22 1.54-.662.37-.441.555-1.052.555-1.832v-5.252l1.34-.708v5.867zm9.966-.431v1.247h-1.91c-.041.883-.421 1.612-1.14 2.187a3.268 3.268 0 0 1-2.063.709A3.808 3.808 0 0 1 90.364 78v-1.17c.544.287 1.083.43 1.617.43.544 0 1.016-.169 1.417-.507.41-.34.62-.745.631-1.217-.534-.02-.929-.041-1.186-.062-1.108-.061-1.945-.436-2.51-1.124-.472-.575-.708-1.32-.708-2.233 0-1.119.297-1.992.893-2.618.534-.554 1.237-.831 2.11-.831.913 0 1.617.272 2.11.816.42.482.631 1.114.631 1.894v2.926h1.91zm-3.25-2.834c0-1.047-.467-1.57-1.401-1.57-.534 0-.95.195-1.248.585-.297.38-.446.913-.446 1.601 0 1.345.657 2.059 1.971 2.141.246.03.621.056 1.124.077v-2.834zm4.856-.092c0-.893.267-1.586.801-2.079.473-.421 1.089-.631 1.848-.631.976 0 1.725.359 2.249 1.078.451.605.677 1.396.677 2.371 0 1.109-.287 1.977-.862 2.603-.503.554-1.16.831-1.971.831-.924 0-1.628-.256-2.11-.77-.493.514-1.155.77-1.987.77h-1.17v-1.247h1.016c1.006 0 1.51-.513 1.51-1.54v-1.386zm1.325 1.494c0 .955.467 1.432 1.401 1.432.483 0 .858-.195 1.124-.585.278-.39.416-.934.416-1.633 0-.688-.143-1.221-.431-1.601-.287-.39-.683-.585-1.186-.585-.883 0-1.324.513-1.324 1.54v1.432z" fill="#3D4E76"/>
        </g>
    </g>
    <defs>
        <linearGradient id="ylpnjn9n2c" x1="42.001" y1="61.649" x2="106" y2="61.649" gradientUnits="userSpaceOnUse">
            <stop stop-color="#FDBC11"/>
            <stop offset="1" stop-color="#F6931D"/>
        </linearGradient>
        <linearGradient id="6lsjjn6ytd" x1="375.131" y1="-91.822" x2="-433.24" y2="-153.756" gradientUnits="userSpaceOnUse">
            <stop stop-color="#1C6FC4"/>
            <stop offset="1" stop-color="#01B8B6"/>
        </linearGradient>
        <clipPath id="n8d57fxwya">
            <path fill="#fff" transform="translate(0 .984)" d="M0 0h343v231.492H0z"/>
        </clipPath>
        <clipPath id="aqvakgfslh">
            <path fill="#fff" transform="translate(204.114 37.757)" d="M0 0h66v14.468H0z"/>
        </clipPath>
    </defs>
</svg>
