<svg width="191" height="340" viewBox="0 0 191 340" fill="none" xmlns="http://www.w3.org/2000/svg">
    <rect x="1" y=".5" width="189" height="339" rx="3.5" fill="#fff" stroke="#EDEDED"/>
    <path d="M70.529 40.072h-4.424v-2.8h4.424v-4.984h3.276v4.984h4.452v2.8h-4.452V45h-3.276v-4.928zm14.981-2.996h-2.66v-2.968h2.66c.747 0 1.26-.103 1.54-.308.43-.317.644-.887.644-1.708 0-.635-.186-1.139-.56-1.512-.373-.392-.877-.588-1.512-.588-1.138 0-2.324.523-3.556 1.568l-1.344-2.352c1.55-1.512 3.304-2.268 5.264-2.268 1.643 0 2.987.457 4.032 1.372 1.008.896 1.512 2.053 1.512 3.472 0 1.755-.728 2.93-2.184 3.528 1.886.728 2.828 2.128 2.828 4.2 0 2.184-.746 3.77-2.24 4.76-1.045.69-2.352 1.036-3.92 1.036-.858 0-1.838-.224-2.94-.672-1.082-.467-1.969-1.027-2.66-1.68l1.484-2.212c1.008.915 2.296 1.372 3.864 1.372.803 0 1.438-.224 1.904-.672.467-.467.7-1.092.7-1.876 0-1.661-.952-2.492-2.856-2.492zm15.566-10.136c2.166 0 3.902 1.036 5.208 3.108 1.102 1.717 1.652 3.761 1.652 6.132 0 2.856-.7 5.143-2.1 6.86-1.232 1.53-2.818 2.296-4.76 2.296-2.221 0-3.957-.99-5.208-2.968-1.045-1.643-1.568-3.705-1.568-6.188 0-2.763.691-5.03 2.072-6.804 1.251-1.624 2.819-2.436 4.704-2.436zm.056 3.136c-2.016 0-3.024 1.979-3.024 5.936 0 1.997.29 3.565.868 4.704.523 1.027 1.214 1.54 2.072 1.54.952 0 1.699-.55 2.24-1.652.56-1.12.84-2.65.84-4.592 0-3.957-.998-5.936-2.996-5.936zm15.722-3.136c2.165 0 3.901 1.036 5.208 3.108 1.101 1.717 1.652 3.761 1.652 6.132 0 2.856-.7 5.143-2.1 6.86-1.232 1.53-2.819 2.296-4.76 2.296-2.222 0-3.958-.99-5.208-2.968-1.046-1.643-1.568-3.705-1.568-6.188 0-2.763.69-5.03 2.072-6.804 1.25-1.624 2.818-2.436 4.704-2.436zm.056 3.136c-2.016 0-3.024 1.979-3.024 5.936 0 1.997.289 3.565.868 4.704.522 1.027 1.213 1.54 2.072 1.54.952 0 1.698-.55 2.24-1.652.56-1.12.84-2.65.84-4.592 0-3.957-.999-5.936-2.996-5.936z" fill="url(#uhpbqxo04a)"/>
    <path d="M22.441 157.96c-.522 0-.784-.267-.784-.8 0-.523.262-.784.784-.784.512 0 .768.261.768.784 0 .533-.256.8-.768.8zm2.032 0c-.522 0-.784-.267-.784-.8 0-.523.262-.784.784-.784.512 0 .768.261.768.784 0 .533-.256.8-.768.8zm2.976 7.744h1.056V167H27.29c-1.098 0-1.888-.405-2.368-1.216-.512.491-1.146.736-1.904.736-.938 0-1.685-.352-2.24-1.056-.458-.597-.688-1.328-.688-2.192 0-1.035.315-1.867.944-2.496a2.63 2.63 0 0 1 1.952-.816c.587 0 1.094.149 1.52.448v-.688l1.392-.736v5.12c0 1.067.518 1.6 1.552 1.6zm-2.944-3.808a1.886 1.886 0 0 0-1.456-.656c-.469 0-.853.192-1.152.576-.298.373-.448.864-.448 1.472 0 .619.15 1.115.448 1.488.299.373.688.56 1.168.56.598 0 1.088-.245 1.472-.736a4.31 4.31 0 0 1-.032-.448v-2.256zm11.798 3.808h.912V167H36.16c-.896 0-1.594-.277-2.096-.832-.501.555-1.2.832-2.096.832h-4.416v-1.296h4.288c1.024 0 1.536-.539 1.536-1.616v-.144c0-.8-.31-1.408-.928-1.824-.49-.341-1.093-.512-1.808-.512-.565 0-1.13.107-1.696.32v-1.36l3.504-3.888h1.408l-3.152 3.552h.096c1.216 0 2.198.368 2.944 1.104.672.683 1.008 1.547 1.008 2.592v.176c0 1.067.518 1.6 1.552 1.6zm5.407 0h1.056V167H41.55c-.917 0-1.626-.293-2.128-.88-.533.587-1.269.88-2.208.88h-.96v-1.296h.848c1.11 0 1.664-.581 1.664-1.744v-6.544l1.392-.736v7.296c0 .619.118 1.061.352 1.328.246.267.646.4 1.2.4zm10.395 0h1.072V167h-1.216c-.885 0-1.584-.283-2.096-.848-.544.779-1.338 1.168-2.384 1.168-1.045 0-1.834-.384-2.368-1.152-.501.555-1.2.832-2.096.832h-1.216v-1.296h1.056c1.046 0 1.568-.533 1.568-1.6v-.528c0-1.237.304-2.187.912-2.848.534-.587 1.248-.88 2.144-.88 1.024 0 1.814.379 2.368 1.136.47.651.704 1.515.704 2.592v.528c0 1.067.518 1.6 1.552 1.6zm-4.624.32c.523 0 .934-.219 1.232-.656.31-.437.464-1.04.464-1.808 0-1.621-.565-2.432-1.696-2.432-1.12 0-1.68.811-1.68 2.432 0 1.643.56 2.464 1.68 2.464zm15.046-.32H63.6V167h-1.216c-.885 0-1.584-.283-2.096-.848-.544.779-1.338 1.168-2.384 1.168-1.045 0-1.834-.384-2.368-1.152-.501.555-1.2.832-2.096.832h-1.216v-1.296h1.056c1.045 0 1.568-.533 1.568-1.6v-.528c0-1.237.304-2.187.912-2.848.533-.587 1.248-.88 2.144-.88 1.024 0 1.814.379 2.368 1.136.47.651.704 1.515.704 2.592v.528c0 1.067.517 1.6 1.552 1.6zm-4.624.32c.523 0 .934-.219 1.232-.656.31-.437.464-1.04.464-1.808 0-1.621-.565-2.432-1.696-2.432-1.12 0-1.68.811-1.68 2.432 0 1.643.56 2.464 1.68 2.464zm4.742.976v-1.296h.848c1.11 0 1.664-.581 1.664-1.744v-6.544l1.392-.736v7.296c0 .949-.283 1.701-.848 2.256-.533.512-1.232.768-2.096.768h-.96zm6.78 0v-9.584l1.375-.736V167h-1.376zm7.104.928V166.6c.384-.288.912-.496 1.584-.624-.48-.725-.72-1.493-.72-2.304 0-1.013.293-1.829.88-2.448.533-.576 1.226-.864 2.08-.864.928 0 1.696.373 2.304 1.12v1.328c-.683-.789-1.43-1.184-2.24-1.184-.502 0-.902.181-1.2.544-.299.352-.448.832-.448 1.44 0 .875.304 1.6.912 2.176.277-.021.474-.032.592-.032 1.365-.043 2.448-.357 3.248-.944v1.28c-.907.608-2.09.912-3.552.912-1.43 0-2.576.309-3.44.928zM88.552 167c-.928 0-1.643-.299-2.144-.896-.427-.512-.64-1.163-.64-1.952v-6.736l1.376-.736v7.424c0 1.067.523 1.6 1.568 1.6h1.056V167h-1.216zm10.681-1.296h1.04V167h-1.056c-.864 0-1.557-.096-2.08-.288-.522-.203-1.008-.555-1.456-1.056-1.344.896-2.912 1.344-4.704 1.344h-2.176v-1.296h2.192c2.166 0 3.878-.715 5.136-2.144-.885-1.632-1.962-2.448-3.232-2.448-.864 0-1.754.459-2.672 1.376v-1.28c.896-.907 1.846-1.36 2.848-1.36.822 0 1.616.299 2.384.896.768.587 1.446 1.429 2.032 2.528v.704c-.33.416-.645.752-.944 1.008.576.48 1.472.72 2.688.72zm3.348-7.584c-.523 0-.784-.267-.784-.8 0-.523.261-.784.784-.784.512 0 .768.261.768.784 0 .533-.256.8-.768.8zM99.317 167v-1.296h1.056c1.045 0 1.568-.533 1.568-1.6v-3.312l1.376-.736v4.096c0 .907-.272 1.621-.816 2.144-.501.469-1.157.704-1.968.704h-1.216zm6.025-10.544.368-.688h.432a1.2 1.2 0 0 1-.16-.592c0-.32.117-.592.352-.816.235-.235.512-.352.832-.352.267 0 .523.085.768.256v.704c-.235-.181-.459-.272-.672-.272-.395 0-.592.176-.592.528 0 .181.075.363.224.544h1.456l-.368.688h-2.64zM106.19 167v-8.944l1.376-.736V167h-1.376zm11.568-.384c-1.013.608-1.626 1.024-1.84 1.248-.426.416-.64.933-.64 1.552 0 .683.235 1.232.704 1.648.47.427 1.078.64 1.824.64 1.174-.011 2.155-.293 2.944-.848v1.296a5.627 5.627 0 0 1-3.008.848c-1.184 0-2.133-.389-2.848-1.168-.618-.661-.928-1.477-.928-2.448 0-.725.192-1.344.576-1.856.384-.501 1.062-1.029 2.032-1.584-.874-.64-1.77-1.643-2.688-3.008v-.704c.523-.747 1.136-1.328 1.84-1.744.704-.427 1.419-.64 2.144-.64.715 0 1.43.219 2.144.656.715.427 1.328 1.013 1.84 1.76v.672c-.544.821-1.445 1.733-2.704 2.736.235.021.422.032.56.032h4.224l.016 1.296h-4.352a4.631 4.631 0 0 1-1.84-.384zm-2.592-4.016c.96 1.312 1.835 2.181 2.624 2.608a12.258 12.258 0 0 0 2.784-2.64c-.789-.96-1.69-1.445-2.704-1.456-1.024 0-1.925.496-2.704 1.488zm13.391 3.104h1.056V167h-1.216c-.886 0-1.584-.283-2.096-.848-.512.565-1.211.848-2.096.848h-1.216v-1.296h1.056c1.045 0 1.568-.533 1.568-1.6v-3.312l1.376-.736v4.048c0 1.067.522 1.6 1.568 1.6zm-3.824 2.896c.512 0 .768.267.768.8 0 .523-.256.784-.768.784-.523 0-.784-.261-.784-.784 0-.533.261-.8.784-.8zm2.032 0c.512 0 .768.267.768.8 0 .523-.256.784-.768.784-.523 0-.784-.261-.784-.784 0-.533.261-.8.784-.8zm12.184-2.896h1.072V167h-1.216c-.885 0-1.584-.283-2.096-.848-.544.779-1.339 1.168-2.384 1.168s-1.835-.384-2.368-1.152c-.501.555-1.2.832-2.096.832h-1.216v-1.296h1.056c1.045 0 1.568-.533 1.568-1.6v-.528c0-1.237.304-2.187.912-2.848.533-.587 1.248-.88 2.144-.88 1.024 0 1.813.379 2.368 1.136.469.651.704 1.515.704 2.592v.528c0 1.067.517 1.6 1.552 1.6zm-4.624.32c.523 0 .933-.219 1.232-.656.309-.437.464-1.04.464-1.808 0-1.621-.565-2.432-1.696-2.432-1.12 0-1.68.811-1.68 2.432 0 1.643.56 2.464 1.68 2.464zm4.742.976v-1.296h2.192c2.165 0 3.877-.715 5.136-2.144-.885-1.632-1.963-2.448-3.232-2.448-.864 0-1.755.459-2.672 1.376v-1.28c.896-.907 1.845-1.36 2.848-1.36.821 0 1.616.299 2.384.896.768.587 1.445 1.429 2.032 2.528v.704c-1.568 2.016-3.739 3.024-6.512 3.024h-2.176zm4.688 3.184c-.523 0-.784-.267-.784-.8 0-.523.261-.784.784-.784.512 0 .768.261.768.784 0 .533-.256.8-.768.8zM162.969 167c-.107.939-.619 1.691-1.536 2.256-.853.523-1.941.784-3.264.784-1.685 0-2.955-.491-3.808-1.472-.629-.725-.944-1.621-.944-2.688 0-.896.224-1.664.672-2.304l1.328-.288a4.488 4.488 0 0 0-.72 2.448c0 .949.309 1.696.928 2.24.608.544 1.456.816 2.544.816.917 0 1.675-.16 2.272-.48.597-.32.96-.757 1.088-1.312h-1.6l.672-1.296h2.416V167h-.048zm-5.872 5.872c-.523 0-.784-.267-.784-.8 0-.523.261-.784.784-.784.512 0 .768.261.768.784 0 .533-.256.8-.768.8zm2.032 0c-.523 0-.784-.267-.784-.8 0-.523.261-.784.784-.784.512 0 .768.261.768.784 0 .533-.256.8-.768.8zm8.263-14.656c-.522 0-.784-.267-.784-.8 0-.523.262-.784.784-.784.512 0 .768.261.768.784 0 .533-.256.8-.768.8zM162.176 167v-1.296h2.88c-.49-.544-.736-1.301-.736-2.272 0-1.163.304-2.069.912-2.72.534-.576 1.243-.864 2.128-.864.907 0 1.611.283 2.112.848.427.501.64 1.157.64 1.968v1.52c-.01.885-.272 1.584-.784 2.096-.501.48-1.168.72-2 .72h-5.152zm6.56-4.272c0-1.067-.458-1.6-1.376-1.6-.522 0-.933.203-1.232.608-.298.395-.448.949-.448 1.664 0 .704.144 1.264.432 1.68.288.416.672.624 1.152.624.982 0 1.472-.512 1.472-1.536v-1.44zM68.071 106.104c-.917.597-1.947.896-3.088.896-1.259 0-2.277-.395-3.056-1.184-.715-.725-1.072-1.648-1.072-2.768 0-.779.198-1.456.592-2.032.405-.576 1.061-1.125 1.968-1.648-.618-.373-1.37-1.088-2.256-2.144a7.824 7.824 0 0 1-.272-.336v-.912a5.488 5.488 0 0 1 1.824-1.712c.747-.427 1.504-.64 2.272-.64.768 0 1.525.219 2.272.656a5.527 5.527 0 0 1 1.856 1.728v.88c-.661.79-1.477 1.488-2.448 2.096.363.053.694.08.992.08h3.472l.016 1.936H66.52c-.587 0-1.12-.139-1.6-.416-.768.352-1.317.72-1.648 1.104-.32.384-.48.843-.48 1.376 0 .608.208 1.093.624 1.456.427.363.997.544 1.712.544a5.44 5.44 0 0 0 2.944-.864v1.904zm-3.104-7.808c.8-.63 1.392-1.264 1.776-1.904-.64-.597-1.237-.896-1.792-.896-.544 0-1.114.299-1.712.896a6.233 6.233 0 0 0 1.728 1.904zm19.145.768h1.44V101H83.92c-.768 0-1.397-.197-1.888-.592-.49.395-1.104.592-1.84.592H70.176v-1.936h2.864l.192-.544v-6.768l2.016-1.072v4.608c1.088-1.11 2.336-1.664 3.744-1.664 1.27 0 2.278.437 3.024 1.312.64.736.96 1.648.96 2.736v.336c0 .704.379 1.056 1.136 1.056zm-4 0c.352 0 .582-.07.688-.208.118-.139.176-.432.176-.88v-.304c0-.64-.186-1.163-.56-1.568-.362-.405-.832-.608-1.408-.608-.736 0-1.44.272-2.112.816-.661.544-1.21 1.296-1.648 2.256v.496h4.864zm8.566-6.576c-.32 0-.576-.096-.768-.288-.192-.192-.288-.453-.288-.784 0-.693.352-1.04 1.056-1.04.32 0 .57.096.752.288.192.181.288.432.288.752 0 .715-.347 1.072-1.04 1.072zm2.464 0c-.32 0-.576-.096-.768-.288-.192-.192-.288-.453-.288-.784 0-.693.352-1.04 1.056-1.04.32 0 .57.096.752.288.192.181.288.432.288.752 0 .715-.347 1.072-1.04 1.072zM84.598 101v-1.936h2.56c-.32-.47-.48-1.056-.48-1.76 0-1.173.32-2.101.96-2.784.576-.597 1.328-.896 2.256-.896.95 0 1.685.304 2.208.912.47.523.704 1.205.704 2.048v1.44c-.01.917-.282 1.643-.816 2.176-.522.533-1.232.8-2.128.8h-5.264zm6.192-4.448c0-.704-.299-1.056-.896-1.056-.821 0-1.232.581-1.232 1.744 0 1.216.395 1.824 1.184 1.824.63 0 .944-.341.944-1.024v-1.488zM98.097 101l1.009-1.936h2.528c.544 0 .816-.315.816-.944 0-1.184-.566-2.09-1.696-2.72l.992-1.696c1.813 1.067 2.72 2.55 2.72 4.448 0 1.899-.822 2.848-2.464 2.848h-3.904zm11.699-12.312 1.136-.624v1.648c0 .363-.134.661-.4.896-.256.235-.587.352-.992.352-.331 0-.608-.075-.832-.224-.235.15-.507.224-.816.224-.406 0-.736-.117-.992-.352a1.162 1.162 0 0 1-.384-.896v-.688l1.12-.624v1.248c0 .15.09.224.272.224.17 0 .256-.07.256-.208v-.816l1.12-.624v1.44c0 .139.085.208.256.208.17 0 .256-.075.256-.224v-.96zm.087 11.32c0 1.237-.342 2.24-1.024 3.008-.63.715-1.462 1.072-2.496 1.072a4.143 4.143 0 0 1-1.969-.512v-1.76c.555.309 1.099.464 1.633.464.586 0 1.04-.192 1.36-.576.33-.373.496-.896.496-1.568v-5.168l2-1.072v6.112zm10.485-.944V101H118.4c-.075.96-.501 1.728-1.28 2.304-.64.469-1.387.704-2.24.704-.672 0-1.328-.181-1.968-.544v-1.744c.576.331 1.152.496 1.728.496.448 0 .843-.123 1.184-.368.352-.245.544-.539.576-.88a6.788 6.788 0 0 0-.4-.032l-.416-.048c-1.099-.117-1.947-.549-2.544-1.296-.501-.63-.752-1.392-.752-2.288 0-1.173.32-2.101.96-2.784.565-.597 1.312-.896 2.24-.896.949 0 1.691.304 2.224.912.459.523.688 1.205.688 2.048v2.48h1.968zm-3.968-2.512c0-.704-.304-1.056-.912-1.056-.811 0-1.216.581-1.216 1.744 0 1.035.469 1.61 1.408 1.728.149.032.389.059.72.08v-2.496zm5.571.032c0-.96.298-1.712.896-2.256.522-.47 1.194-.704 2.016-.704 1.056 0 1.877.39 2.464 1.168.501.65.752 1.488.752 2.512 0 1.184-.315 2.117-.944 2.8-.566.597-1.286.896-2.16.896-.854 0-1.552-.187-2.096-.56-.512.373-1.131.56-1.856.56h-1.632v-1.936h1.44c.405 0 .693-.085.864-.256.17-.181.256-.48.256-.896v-1.328zm2.016 1.584c0 .597.314.896.944.896.789 0 1.184-.608 1.184-1.824 0-1.163-.411-1.744-1.232-1.744-.598 0-.896.352-.896 1.056v1.616z" fill="#3D4E76"/>
    <path fill-rule="evenodd" clip-rule="evenodd" d="M19.5 220.916h15.18v-10.843H19.5v10.843zM153.959 220.916h15.181v-10.843h-15.181v10.843z" fill="#fff"/>
    <path d="M154.682 230.314V192H35.404v38.314" stroke="#3D4E76" stroke-width="1.18" stroke-linecap="round" stroke-linejoin="round"/>
    <path d="M34.12 199.229H19.5v31.808h150.363v-25.084M169.14 199.265h-9.398M26.042 237.543v83.404M34.717 237.543l.325 82.772M154.718 237.543v86.025M164.116 237.543v86.025" stroke="#3D4E76" stroke-width="1.18" stroke-linecap="round" stroke-linejoin="round"/>
    <path fill-rule="evenodd" clip-rule="evenodd" d="M113.477 308.955a.6.6 0 0 0-.6.6v12.29a.6.6 0 0 0 .6.6h33.976a.6.6 0 0 0 .6-.6v-10.446a.602.602 0 0 0-.749-.581l-17.639 4.515-13.874-3.468a.6.6 0 0 0-.291 1.164l11.72 2.93-11.452 2.932a.6.6 0 0 0 .297 1.162l13.603-3.482 14.748 3.687a.6.6 0 0 0 .291-1.164l-12.594-3.149 14.74-3.773v9.073h-32.776v-11.09h28.845a.6.6 0 1 0 0-1.2h-29.445zM74.44 308.955a.6.6 0 0 0-.6.6v12.29a.6.6 0 0 0 .6.6h33.977a.6.6 0 0 0 .6-.6v-10.446a.6.6 0 0 0-.749-.581l-17.64 4.515-13.873-3.468a.6.6 0 0 0-.291 1.164l11.72 2.93-11.453 2.932a.6.6 0 1 0 .298 1.162l13.603-3.482 14.747 3.687a.6.6 0 1 0 .291-1.164l-12.594-3.149 14.741-3.773v9.073H75.04v-11.09h28.845a.6.6 0 1 0 0-1.2H74.44z" fill="#3D4E76"/>
    <path d="m105.181 262.193.48.36a.6.6 0 0 0-.807-.863l.327.503zM80.486 278.23l-.327-.503a.602.602 0 0 0-.176.83l.503-.327zm14.646-2.622-.48-.36.48.36zm-7.199 9.61-.48-.36a.6.6 0 0 0 .922.766l-.442-.406zm9.615-10.44-.441-.407.441.407zm12.437-13.506.504-.327a.602.602 0 0 0-.945-.08l.441.407zm5.689 8.76.327.503a.604.604 0 0 0 .177-.83l-.504.327zm-28.495 18.505-.503.327a.6.6 0 0 0 .83.176l-.326-.503zm17.675-26.847-24.695 16.037.654 1.006 24.695-16.037-.654-1.006zm-9.241 14.277 10.048-13.414-.96-.72-10.049 13.415.96.719zm-7.2 9.611 7.2-9.611-.96-.719-7.2 9.61.96.72zm8.694-11.207-9.615 10.441.883.812 9.614-10.44-.882-.813zm12.437-13.506-12.437 13.506.882.813 12.438-13.506-.883-.813zm6.634 8.84-5.689-8.76-1.007.654 5.689 8.76 1.007-.654zM87.506 289.04l28.495-18.505-.653-1.006-28.495 18.505.653 1.006zm-7.523-10.483 6.693 10.307 1.007-.654-6.694-10.307-1.006.654z" fill="#3D4E76"/>
    <path fill-rule="evenodd" clip-rule="evenodd" d="M113.477 292.329a.6.6 0 0 0-.6.6v12.289a.6.6 0 0 0 .6.6h14.458a.6.6 0 0 0 .6-.6v-10.445a.6.6 0 0 0-.934-.499l-6.104 4.09-4.758-3.738a.599.599 0 1 0-.741.943l4.451 3.497-4.768 3.195a.6.6 0 1 0 .668.997l5.092-3.412 4.677 3.675a.6.6 0 1 0 .742-.943l-4.371-3.434 4.846-3.247v8.721h-13.258v-11.089h11.463a.6.6 0 0 0 0-1.2h-12.063zM74.44 292.329a.6.6 0 0 0-.6.6v12.289a.6.6 0 0 0 .6.6h14.458a.6.6 0 0 0 .6-.6v-10.445a.601.601 0 0 0-.934-.499l-6.103 4.09-4.758-3.738a.6.6 0 1 0-.742.943l4.451 3.497-4.768 3.195a.6.6 0 1 0 .668.997l5.092-3.412 4.678 3.675a.6.6 0 1 0 .741-.943l-4.37-3.434 4.845-3.247v8.721H75.04v-11.089h11.464a.6.6 0 0 0 0-1.2H74.44zM123.597 259.075a.6.6 0 0 0-.6.6v12.29a.6.6 0 0 0 .6.6h14.458a.6.6 0 0 0 .6-.6v-10.446a.6.6 0 0 0-.934-.498l-6.494 4.351-5.09-4a.6.6 0 0 0-.742.944l4.784 3.758-4.378 2.934a.6.6 0 1 0 .668.997l4.702-3.151 4.345 3.414a.6.6 0 1 0 .741-.944l-4.037-3.172 5.235-3.508v8.721h-13.258v-11.09h11.464a.6.6 0 1 0 0-1.2h-12.064z" fill="#3D4E76"/>
    <path d="M66.985 309.555H54.922v12.29H69.38v-10.446l-11.92 7.987" stroke="#3D4E76" stroke-width="1.2" stroke-linecap="round" stroke-linejoin="round"/>
    <path d="m57.09 311.724 10.121 7.952" stroke="#3D4E76" stroke-width="1.2" stroke-linecap="round"/>
    <path d="M126.986 276.302h-12.063v12.289h14.458v-10.445l-11.921 7.987" stroke="#3D4E76" stroke-width="1.2" stroke-linecap="round" stroke-linejoin="round"/>
    <path d="m117.091 278.471 10.121 7.952" stroke="#3D4E76" stroke-width="1.2" stroke-linecap="round"/>
    <path fill-rule="evenodd" clip-rule="evenodd" d="M132.995 292.329a.6.6 0 0 0-.6.6v12.289a.6.6 0 0 0 .6.6h14.458a.6.6 0 0 0 .6-.6v-10.445a.6.6 0 0 0-.934-.499l-6.494 4.351-5.091-3.999a.599.599 0 1 0-.741.943l4.784 3.759-4.378 2.933a.6.6 0 0 0 .668.997l4.702-3.151 4.345 3.414a.599.599 0 1 0 .741-.943l-4.038-3.173 5.236-3.508v8.721h-13.258v-11.089h11.463a.6.6 0 1 0 0-1.2h-12.063zM93.958 292.329a.6.6 0 0 0-.6.6v12.289a.6.6 0 0 0 .6.6h14.458a.6.6 0 0 0 .6-.6v-10.445a.602.602 0 0 0-.934-.499l-6.494 4.351-5.09-3.999a.6.6 0 1 0-.742.943l4.784 3.759-4.378 2.933a.6.6 0 1 0 .668.997l4.702-3.151 4.345 3.414a.599.599 0 1 0 .741-.943l-4.037-3.173 5.235-3.508v8.721H94.558v-11.089h11.464a.6.6 0 0 0 0-1.2H93.958zM133.718 275.702a.6.6 0 0 0-.6.6v12.289a.6.6 0 0 0 .6.6h14.458a.6.6 0 0 0 .6-.6v-10.445a.598.598 0 0 0-.934-.498l-6.494 4.351-5.091-4a.6.6 0 1 0-.741.944l4.784 3.758-4.378 2.933a.6.6 0 1 0 .668.997l4.702-3.15 4.344 3.413a.6.6 0 1 0 .742-.943l-4.038-3.173 5.236-3.508v8.721h-13.258v-11.089h11.463a.6.6 0 1 0 0-1.2h-12.063z" fill="#3D4E76"/>
    <path d="M20.223 220.229H34.68M154.682 220.229h14.458M20.223 209.386H34.68M154.682 209.386h14.458" stroke="#3D4E76" stroke-width="1.18" stroke-linecap="round" stroke-linejoin="round"/>
    <path fill-rule="evenodd" clip-rule="evenodd" d="M36.85 229.591h115.663v-36.145H36.85v36.145z" fill="#fff"/>
    <path d="M73.074 219.809c-.912.593-1.935.89-3.07.89-1.25 0-2.263-.392-3.037-1.177-.71-.721-1.066-1.638-1.066-2.751 0-.774.196-1.447.589-2.02.403-.572 1.055-1.118 1.956-1.638-.615-.371-1.363-1.081-2.243-2.131a7.701 7.701 0 0 1-.27-.334v-.907a5.455 5.455 0 0 1 1.813-1.701c.742-.424 1.495-.636 2.258-.636.764 0 1.517.217 2.259.652a5.492 5.492 0 0 1 1.845 1.717v.875c-.658.785-1.469 1.479-2.434 2.083.36.053.69.08.986.08h3.452l.015 1.924h-4.596a3.127 3.127 0 0 1-1.59-.413c-.764.35-1.31.715-1.638 1.097-.318.382-.477.838-.477 1.368 0 .604.206 1.087.62 1.447.424.361.991.541 1.702.541a5.403 5.403 0 0 0 2.926-.859v1.893zm-3.085-7.762c.795-.625 1.383-1.256 1.765-1.892-.636-.594-1.23-.891-1.781-.891-.541 0-1.108.297-1.702.891a6.186 6.186 0 0 0 1.718 1.892zm19.03.764h1.43v1.924h-1.621c-.764 0-1.39-.196-1.877-.588-.488.392-1.097.588-1.829.588h-9.956v-1.924h2.847l.19-.541v-6.727l2.005-1.066v4.581c1.081-1.103 2.322-1.654 3.721-1.654 1.262 0 2.264.434 3.006 1.304.636.731.954 1.638.954 2.719v.334c0 .7.377 1.05 1.13 1.05zm-3.977 0c.35 0 .578-.069.684-.207.117-.138.175-.429.175-.875v-.302c0-.636-.185-1.155-.556-1.558-.36-.403-.827-.605-1.4-.605-.731 0-1.431.271-2.1.811-.656.541-1.203 1.289-1.637 2.243v.493h4.835zm8.515-6.537c-.318 0-.573-.095-.764-.286-.19-.191-.286-.45-.286-.779 0-.689.35-1.034 1.05-1.034.318 0 .567.096.747.286.191.181.287.43.287.748 0 .71-.345 1.065-1.034 1.065zm2.45 0c-.319 0-.574-.095-.764-.286-.191-.191-.287-.45-.287-.779 0-.689.35-1.034 1.05-1.034.318 0 .567.096.748.286.19.181.286.43.286.748 0 .71-.345 1.065-1.034 1.065zm-6.506 8.461v-1.924h2.545c-.318-.467-.477-1.05-.477-1.75 0-1.166.318-2.088.954-2.767.573-.594 1.32-.89 2.243-.89.943 0 1.675.302 2.194.906.467.52.7 1.198.7 2.036v1.431c-.01.912-.28 1.633-.811 2.163-.52.53-1.225.795-2.115.795H89.5zm6.155-4.421c0-.7-.297-1.05-.89-1.05-.817 0-1.225.578-1.225 1.734 0 1.209.392 1.813 1.177 1.813.625 0 .938-.339.938-1.018v-1.479zm7.264 4.421 1.002-1.924h2.512c.541 0 .811-.313.811-.938 0-1.177-.561-2.079-1.685-2.704l.986-1.686c1.802 1.06 2.703 2.534 2.703 4.421 0 1.888-.816 2.831-2.449 2.831h-3.88zm11.627-12.244 1.13-.62v1.638c0 .361-.133.657-.398.891-.255.233-.583.35-.986.35-.329 0-.604-.075-.827-.223a1.482 1.482 0 0 1-.811.223c-.403 0-.732-.117-.986-.35a1.155 1.155 0 0 1-.382-.891v-.684l1.113-.62v1.24c0 .149.09.223.271.223.169 0 .254-.069.254-.207v-.811l1.113-.62v1.431c0 .138.085.207.255.207.17 0 .254-.074.254-.223v-.954zm.087 11.258c0 1.23-.34 2.227-1.018 2.99-.626.71-1.453 1.066-2.481 1.066-.668 0-1.32-.17-1.956-.509v-1.75c.551.308 1.092.462 1.622.462.583 0 1.034-.191 1.352-.573.328-.371.493-.891.493-1.559v-5.136l1.988-1.066v6.075zm10.422-.938v1.924H123.1c-.074.954-.498 1.718-1.272 2.29-.636.467-1.379.7-2.227.7-.668 0-1.32-.18-1.956-.541v-1.733c.573.329 1.145.493 1.718.493.445 0 .837-.122 1.177-.366.349-.244.54-.535.572-.875a6.921 6.921 0 0 0-.397-.031c-.181-.022-.319-.037-.414-.048-1.092-.117-1.935-.546-2.529-1.288-.498-.626-.747-1.384-.747-2.275 0-1.166.318-2.088.954-2.767.562-.594 1.304-.89 2.227-.89.943 0 1.68.302 2.21.906.456.52.684 1.198.684 2.036v2.465h1.956zm-3.944-2.497c0-.7-.302-1.05-.906-1.05-.806 0-1.209.578-1.209 1.734 0 1.028.466 1.601 1.399 1.717.149.032.387.059.716.08v-2.481zm5.537.032c0-.954.297-1.702.891-2.243.519-.466 1.187-.699 2.004-.699 1.049 0 1.866.387 2.449 1.161.498.646.747 1.479.747 2.496 0 1.177-.312 2.105-.938 2.784-.562.593-1.278.89-2.147.89-.848 0-1.543-.185-2.083-.556-.509.371-1.124.556-1.845.556h-1.622v-1.924h1.431c.403 0 .689-.085.859-.255.169-.18.254-.477.254-.89v-1.32zm2.004 1.574c0 .594.313.891.938.891.785 0 1.177-.604 1.177-1.813 0-1.156-.408-1.734-1.224-1.734-.594 0-.891.35-.891 1.05v1.606z" fill="#01B8B6"/>
    <defs>
        <linearGradient id="uhpbqxo04a" x1="41.501" y1="74" x2="148.5" y2="74" gradientUnits="userSpaceOnUse">
            <stop stop-color="#FDBC11"/>
            <stop offset="1" stop-color="#F6931D"/>
        </linearGradient>
    </defs>
</svg>
