<svg width="36" height="36" viewBox="0 0 36 36" fill="none" xmlns="http://www.w3.org/2000/svg">
    <circle cx="18.447" cy="17.65" r="16.704" fill="#F8F8F8" stroke="#fff" stroke-width="1.591"/>
    <path fill-rule="evenodd" clip-rule="evenodd" d="M25.229 13.55a3.587 3.587 0 0 0 1.506-1.999 6.645 6.645 0 0 1-2.177.877 3.336 3.336 0 0 0-2.501-1.142c-1.893 0-3.426 1.619-3.426 3.615 0 .283.028.559.087.823-2.847-.151-5.372-1.589-7.063-3.777a3.758 3.758 0 0 0-.464 1.818c0 1.253.605 2.36 1.525 3.01a3.306 3.306 0 0 1-1.553-.452v.044c0 1.752 1.18 3.213 2.75 3.544a3.19 3.19 0 0 1-.904.127c-.22 0-.437-.022-.644-.064.435 1.435 1.7 2.482 3.201 2.51a6.653 6.653 0 0 1-5.074 1.497 9.345 9.345 0 0 0 5.253 1.624c6.305 0 9.75-5.508 9.75-10.285 0-.157-.002-.313-.009-.467a7.163 7.163 0 0 0 1.71-1.872 6.566 6.566 0 0 1-1.967.569z" fill="#3D4E76"/>
</svg>
