<svg width="343" height="232" viewBox="0 0 343 232" fill="none" xmlns="http://www.w3.org/2000/svg">
    <g clip-path="url(#99e9nll0ka)">
        <rect y=".492" width="343" height="231.492" rx="7" fill="#fff" stroke="#E9E9E9" stroke-width="1.4"/>
        <mask id="7jmsynxu8b" style="mask-type:luminance" maskUnits="userSpaceOnUse" x="-1" y="-1" width="345" height="234">
            <rect y=".492" width="343" height="231.492" rx="7" fill="#fff" stroke="#fff" stroke-width="1.4"/>
        </mask>
        <g mask="url(#7jmsynxu8b)">
            <g clip-path="url(#mdb74oftec)">
                <path d="M126.998 38.078c-.503 0-.754-.257-.754-.77 0-.503.251-.755.754-.755.493 0 .74.252.74.755 0 .513-.247.77-.74.77zm1.956 0c-.503 0-.754-.257-.754-.77 0-.503.251-.755.754-.755.493 0 .739.252.739.755 0 .513-.246.77-.739.77zm2.865 7.453h1.016v1.248h-1.17c-1.058 0-1.818-.39-2.28-1.17-.492.472-1.103.708-1.832.708-.904 0-1.622-.34-2.156-1.017-.442-.575-.662-1.278-.662-2.11 0-.995.302-1.796.908-2.402a2.531 2.531 0 0 1 1.879-.785c.565 0 1.052.143 1.463.43v-.661l1.34-.709v4.928c0 1.027.498 1.54 1.494 1.54zm-2.834-3.665a1.814 1.814 0 0 0-1.401-.631c-.452 0-.822.184-1.109.554-.288.36-.431.832-.431 1.417 0 .595.143 1.073.431 1.432.287.36.662.54 1.124.54.575 0 1.047-.237 1.417-.71a4.053 4.053 0 0 1-.031-.43v-2.172zm6.073-3.634c-.503 0-.754-.257-.754-.77 0-.503.251-.755.754-.755.493 0 .739.252.739.755 0 .513-.246.77-.739.77zm-3.141 8.547V45.53h1.016c1.006 0 1.509-.513 1.509-1.54v-3.188l1.325-.708v3.943c0 .872-.262 1.56-.786 2.063-.482.452-1.114.678-1.894.678h-1.17zm9.295 0c-.894 0-1.582-.288-2.064-.863-.411-.492-.616-1.119-.616-1.878v-6.484l1.324-.708v7.145c0 1.027.503 1.54 1.51 1.54h1.016v1.248h-1.17zm5.599-1.248h1.016v1.248h-1.17c-.853 0-1.525-.272-2.018-.817-.493.545-1.165.817-2.017.817h-1.171V45.53h1.017c1.006 0 1.509-.513 1.509-1.54v-3.188l1.324-.708v3.896c0 1.027.503 1.54 1.51 1.54zm-3.681 2.788c.493 0 .739.256.739.77 0 .503-.246.754-.739.754-.503 0-.755-.251-.755-.754 0-.514.252-.77.755-.77zm1.956 0c.493 0 .739.256.739.77 0 .503-.246.754-.739.754-.503 0-.755-.251-.755-.754 0-.514.252-.77.755-.77zm6.66-2.834c.411-1.55 1.089-2.844 2.033-3.88 1.058-1.14 2.29-1.71 3.696-1.71 1.171 0 2.105.405 2.803 1.216.585.688.878 1.535.878 2.542v.4c0 .893-.272 1.586-.816 2.079-.473.431-1.094.647-1.864.647h-6.375c-.852 0-1.525-.272-2.018-.817-.493.545-1.165.817-2.017.817h-1.171V45.53h1.017c1.006 0 1.509-.513 1.509-1.54v-2.156l1.324-.708v2.864c0 .863.334 1.36 1.001 1.494zm8.085-1.555v-.277c0-.801-.246-1.438-.739-1.91-.431-.41-.965-.616-1.601-.616-1.089 0-2.069.503-2.942 1.51-.667.77-1.18 1.734-1.54 2.894h5.39c.955 0 1.432-.534 1.432-1.601zm8.72-5.852c-.503 0-.754-.257-.754-.77 0-.503.251-.755.754-.755.493 0 .739.252.739.755 0 .513-.246.77-.739.77zm1.956 0c-.503 0-.755-.257-.755-.77 0-.503.252-.755.755-.755.493 0 .739.252.739.755 0 .513-.246.77-.739.77zm2.864 7.453h1.017v1.248h-1.171c-1.057 0-1.817-.39-2.279-1.17-.493.472-1.103.708-1.832.708-.904 0-1.622-.34-2.156-1.017-.442-.575-.663-1.278-.663-2.11 0-.995.303-1.796.909-2.402a2.531 2.531 0 0 1 1.879-.785c.565 0 1.052.143 1.463.43v-.661l1.34-.709v4.928c0 1.027.498 1.54 1.493 1.54zm-2.833-3.665a1.815 1.815 0 0 0-1.402-.631c-.451 0-.821.184-1.108.554-.288.36-.432.832-.432 1.417 0 .595.144 1.073.432 1.432.287.36.662.54 1.124.54.575 0 1.047-.237 1.417-.71a4.053 4.053 0 0 1-.031-.43v-2.172zm11.401-5.051c-.451 0-.677-.231-.677-.693 0-.452.226-.678.677-.678.452 0 .678.226.678.678 0 .462-.226.693-.678.693zm-.97 1.833c-.503 0-.754-.257-.754-.77 0-.504.251-.755.754-.755.493 0 .739.251.739.755 0 .513-.246.77-.739.77zm1.956 0c-.503 0-.755-.257-.755-.77 0-.504.252-.755.755-.755.493 0 .739.251.739.755 0 .513-.246.77-.739.77zm-9.456 8.13v-1.247h1.386c.996 0 1.494-.513 1.494-1.54v-2.156l1.325-.708v2.864c0 1.027.503 1.54 1.509 1.54h.708c1.006 0 1.509-.513 1.509-1.54v-2.68l1.325-.692v3.372c0 1.027.498 1.54 1.494 1.54h.723c1.007 0 1.51-.513 1.51-1.54v-3.188l1.324-.708v3.943c0 .872-.262 1.555-.785 2.048-.462.451-1.078.682-1.848.693h-1.063c-.903 0-1.576-.303-2.017-.909-.442.596-1.099.898-1.972.909h-1.062c-.883 0-1.556-.303-2.018-.909-.441.606-1.113.909-2.017.909h-1.525zm19.362-.816c0 1.15-.303 2.074-.908 2.772-.575.668-1.34 1.002-2.295 1.002a3.825 3.825 0 0 1-1.802-.462v-1.156c.524.288 1.047.432 1.571.432.657 0 1.17-.221 1.54-.662.37-.442.554-1.053.554-1.833v-5.252l1.34-.708v5.867zm6.563.324c-.391.154-.868.23-1.433.23-.913 0-1.632-.343-2.156-1.03-.441-.586-.662-1.32-.662-2.203 0-1.088.293-1.94.878-2.556.524-.555 1.211-.832 2.064-.832.872 0 1.545.272 2.017.816.421.483.631 1.114.631 1.894v3.358c0 1.16-.302 2.078-.908 2.756-.575.637-1.34.955-2.295.955a3.811 3.811 0 0 1-1.802-.447v-1.17c.545.287 1.084.431 1.617.431.606 0 1.089-.195 1.448-.585.359-.38.56-.919.601-1.617zm0-3.62c0-1.026-.437-1.54-1.309-1.54-.514 0-.919.19-1.217.57-.287.38-.431.899-.431 1.556 0 .647.138 1.165.416 1.555.287.38.672.57 1.155.57.677 0 1.139-.19 1.386-.57v-2.14z" fill="#01B8B6"/>
            </g>
            <path d="M211.802 26.66H110.073M110.073 20.593h106.432v37.594H110.073v-31.26M117.102 63.455v76.24M124.365 63.455v82.31" stroke="#3D4E76" stroke-width="1.235" stroke-linecap="round" stroke-linejoin="round"/>
            <path clip-rule="evenodd" d="M158.034 107.76c0 1.163-.978 2.105-2.184 2.105-1.206 0-2.184-.942-2.184-2.105s.978-2.106 2.184-2.106c1.206 0 2.184.943 2.184 2.106zM176.656 107.76c0 1.163-.978 2.105-2.184 2.105-1.207 0-2.184-.942-2.184-2.105s.977-2.106 2.184-2.106c1.206 0 2.184.943 2.184 2.106z" stroke="#3D4E76" stroke-width=".824" stroke-linecap="round" stroke-linejoin="round"/>
            <path clip-rule="evenodd" d="M150.333 119.862h6.299v-5.785h-6.299v5.785zM173.184 119.862h6.299v-5.785h-6.299v5.785zM178.826 100.362v-2.391c0-5.868-3.416-10.668-9.502-10.668h-8.22c-6.086 0-9.502 4.8-9.502 10.668v2.391a.936.936 0 0 1-.478.811c-1.148.658-1.922 1.866-1.922 3.24v9.619h32.024v-9.619c0-1.374-.774-2.582-1.922-3.24a.936.936 0 0 1-.478-.811z" stroke="#3D4E76" stroke-width="1.235" stroke-linecap="round" stroke-linejoin="round"/>
            <path d="M158.586 100.246h13.564M203.72 63.455v90.403M189.49 104.558l.236 49.3M140.51 104.558l.236 49.3M144.009 123.442h41.982M210.983 63.455v85.682" stroke="#3D4E76" stroke-width="1.235" stroke-linecap="round" stroke-linejoin="round"/>
            <path d="M246.88 76.717c-.503 0-.755-.257-.755-.77 0-.503.252-.755.755-.755.493 0 .739.252.739.755 0 .513-.246.77-.739.77zm1.956 0c-.503 0-.755-.257-.755-.77 0-.503.252-.755.755-.755.493 0 .739.252.739.755 0 .513-.246.77-.739.77zm2.864 7.454h1.017v1.247h-1.171c-1.057 0-1.817-.39-2.279-1.17-.493.472-1.104.708-1.833.708-.903 0-1.622-.339-2.156-1.016-.441-.575-.662-1.279-.662-2.11 0-.996.303-1.797.909-2.403a2.53 2.53 0 0 1 1.879-.785c.564 0 1.052.144 1.463.431v-.662l1.339-.708v4.928c0 1.026.498 1.54 1.494 1.54zm-2.833-3.666a1.815 1.815 0 0 0-1.402-.631c-.452 0-.821.185-1.109.554-.287.36-.431.832-.431 1.417 0 .596.144 1.073.431 1.432.288.36.663.54 1.125.54.574 0 1.047-.237 1.416-.709a4.283 4.283 0 0 1-.03-.431v-2.172zm6.073-3.634c-.503 0-.755-.257-.755-.77 0-.503.252-.755.755-.755.493 0 .739.252.739.755 0 .513-.246.77-.739.77zm-3.142 8.547v-1.247h1.017c1.006 0 1.509-.514 1.509-1.54v-3.188l1.324-.709v3.943c0 .872-.262 1.56-.785 2.063-.483.452-1.114.678-1.894.678h-1.171zm9.295 0c-.893 0-1.581-.288-2.063-.862-.411-.493-.616-1.12-.616-1.88v-6.483l1.324-.708v7.146c0 1.026.503 1.54 1.509 1.54h1.017v1.247h-1.171zm5.599-1.247h1.017v1.247h-1.171c-.852 0-1.524-.272-2.017-.816-.493.544-1.166.816-2.018.816h-1.17v-1.247h1.016c1.006 0 1.51-.514 1.51-1.54v-3.188l1.324-.709v3.897c0 1.026.503 1.54 1.509 1.54zm-3.68 2.787c.492 0 .739.257.739.77 0 .503-.247.755-.739.755-.504 0-.755-.252-.755-.755 0-.513.251-.77.755-.77zm1.955 0c.493 0 .74.257.74.77 0 .503-.247.755-.74.755-.503 0-.754-.252-.754-.755 0-.513.251-.77.754-.77zm6.661-2.834c.411-1.55 1.088-2.843 2.033-3.88 1.057-1.14 2.289-1.71 3.696-1.71 1.17 0 2.105.406 2.803 1.217.585.688.877 1.535.877 2.54v.401c0 .893-.272 1.586-.816 2.08-.472.43-1.093.646-1.863.646h-6.376c-.852 0-1.524-.272-2.017-.816-.493.544-1.165.816-2.018.816h-1.17v-1.247h1.016c1.007 0 1.51-.514 1.51-1.54v-2.156l1.324-.709v2.865c0 .862.334 1.36 1.001 1.493zm8.085-1.555v-.277c0-.801-.246-1.438-.739-1.91-.431-.41-.965-.616-1.602-.616-1.088 0-2.068.503-2.941 1.51-.667.77-1.181 1.734-1.54 2.895h5.39c.955 0 1.432-.534 1.432-1.602zm8.72-5.852c-.503 0-.755-.257-.755-.77 0-.503.252-.755.755-.755.493 0 .739.252.739.755 0 .513-.246.77-.739.77zm1.956 0c-.503 0-.755-.257-.755-.77 0-.503.252-.755.755-.755.492 0 .739.252.739.755 0 .513-.247.77-.739.77zm2.864 7.454h1.016v1.247h-1.17c-1.057 0-1.817-.39-2.279-1.17-.493.472-1.104.708-1.833.708-.903 0-1.622-.339-2.156-1.016-.441-.575-.662-1.279-.662-2.11 0-.996.303-1.797.909-2.403a2.53 2.53 0 0 1 1.878-.785c.565 0 1.053.144 1.463.431v-.662l1.34-.708v4.928c0 1.026.498 1.54 1.494 1.54zm-2.834-3.666a1.813 1.813 0 0 0-1.401-.631c-.452 0-.821.185-1.109.554-.287.36-.431.832-.431 1.417 0 .596.144 1.073.431 1.432.288.36.662.54 1.124.54.575 0 1.048-.237 1.417-.709a4.343 4.343 0 0 1-.031-.431v-2.172zm11.402-5.05c-.452 0-.678-.232-.678-.694 0-.452.226-.677.678-.677.452 0 .678.225.678.677 0 .462-.226.693-.678.693zm-.97 1.832c-.503 0-.755-.257-.755-.77 0-.503.252-.755.755-.755.493 0 .739.252.739.755 0 .513-.246.77-.739.77zm1.956 0c-.503 0-.755-.257-.755-.77 0-.503.252-.755.755-.755.492 0 .739.252.739.755 0 .513-.247.77-.739.77zm-9.456 8.131v-1.247h1.386c.996 0 1.494-.514 1.494-1.54v-2.156l1.324-.709v2.865c0 1.026.503 1.54 1.509 1.54h.709c1.006 0 1.509-.514 1.509-1.54v-2.68l1.324-.693v3.373c0 1.026.498 1.54 1.494 1.54h.724c1.006 0 1.509-.514 1.509-1.54v-3.188l1.325-.709v3.943c0 .872-.262 1.555-.786 2.048-.462.452-1.078.683-1.848.693h-1.062c-.904 0-1.576-.303-2.018-.909-.441.596-1.098.899-1.971.909h-1.063c-.882 0-1.555-.303-2.017-.909-.441.606-1.114.909-2.017.909h-1.525zm19.362-.816c0 1.15-.303 2.074-.909 2.772-.575.667-1.34 1-2.294 1a3.825 3.825 0 0 1-1.802-.461v-1.155c.523.287 1.047.431 1.571.431.657 0 1.17-.22 1.54-.662.369-.442.554-1.053.554-1.833v-5.251l1.34-.709v5.868zm6.562.323c-.39.154-.867.231-1.432.231-.914 0-1.632-.344-2.156-1.032-.441-.585-.662-1.319-.662-2.202 0-1.088.292-1.94.878-2.556.523-.555 1.211-.832 2.063-.832.873 0 1.545.272 2.018.816.421.483.631 1.114.631 1.895v3.357c0 1.16-.303 2.079-.909 2.756-.575.637-1.339.955-2.294.955a3.809 3.809 0 0 1-1.802-.446v-1.17c.544.287 1.083.43 1.617.43.606 0 1.088-.195 1.448-.585.359-.38.559-.919.6-1.617zm0-3.619c0-1.026-.436-1.54-1.309-1.54-.513 0-.919.19-1.216.57-.288.38-.432.898-.432 1.555 0 .647.139 1.166.416 1.556.288.38.673.57 1.155.57.678 0 1.14-.19 1.386-.57v-2.14zM98.941 198.378c-.522 0-.784-.267-.784-.8 0-.523.262-.784.784-.784.512 0 .768.261.768.784 0 .533-.256.8-.768.8zm2.032 0c-.522 0-.784-.267-.784-.8 0-.523.262-.784.784-.784.512 0 .768.261.768.784 0 .533-.256.8-.768.8zm2.976 7.744h1.056v1.296h-1.216c-1.098 0-1.888-.405-2.368-1.216-.512.491-1.146.736-1.904.736-.938 0-1.685-.352-2.24-1.056-.458-.597-.688-1.328-.688-2.192 0-1.035.315-1.867.944-2.496a2.63 2.63 0 0 1 1.952-.816c.587 0 1.094.149 1.52.448v-.688l1.392-.736v5.12c0 1.067.518 1.6 1.552 1.6zm-2.944-3.808a1.885 1.885 0 0 0-1.456-.656c-.469 0-.853.192-1.152.576-.298.373-.448.864-.448 1.472 0 .619.15 1.115.448 1.488.299.373.688.56 1.168.56.598 0 1.088-.245 1.472-.736a4.425 4.425 0 0 1-.032-.448v-2.256zm11.798 3.808h.912v1.296h-1.056c-.896 0-1.594-.277-2.096-.832-.501.555-1.2.832-2.096.832h-4.416v-1.296h4.288c1.024 0 1.536-.539 1.536-1.616v-.144c0-.8-.309-1.408-.928-1.824-.49-.341-1.093-.512-1.808-.512-.565 0-1.13.107-1.696.32v-1.36l3.504-3.888h1.408l-3.152 3.552h.096c1.216 0 2.198.368 2.944 1.104.672.683 1.008 1.547 1.008 2.592v.176c0 1.067.518 1.6 1.552 1.6zm5.407 0h1.056v1.296h-1.216c-.917 0-1.626-.293-2.128-.88-.533.587-1.269.88-2.208.88h-.96v-1.296h.848c1.11 0 1.664-.581 1.664-1.744v-6.544l1.392-.736v7.296c0 .619.118 1.061.352 1.328.246.267.646.4 1.2.4zm10.395 0h1.072v1.296h-1.216c-.885 0-1.584-.283-2.096-.848-.544.779-1.338 1.168-2.384 1.168-1.045 0-1.834-.384-2.368-1.152-.501.555-1.2.832-2.096.832h-1.216v-1.296h1.056c1.046 0 1.568-.533 1.568-1.6v-.528c0-1.237.304-2.187.912-2.848.534-.587 1.248-.88 2.144-.88 1.024 0 1.814.379 2.368 1.136.47.651.704 1.515.704 2.592v.528c0 1.067.518 1.6 1.552 1.6zm-4.624.32c.523 0 .934-.219 1.232-.656.31-.437.464-1.04.464-1.808 0-1.621-.565-2.432-1.696-2.432-1.12 0-1.68.811-1.68 2.432 0 1.643.56 2.464 1.68 2.464zm15.046-.32h1.072v1.296h-1.216c-.885 0-1.584-.283-2.096-.848-.544.779-1.339 1.168-2.384 1.168s-1.835-.384-2.368-1.152c-.501.555-1.2.832-2.096.832h-1.216v-1.296h1.056c1.045 0 1.568-.533 1.568-1.6v-.528c0-1.237.304-2.187.912-2.848.533-.587 1.248-.88 2.144-.88 1.024 0 1.813.379 2.368 1.136.469.651.704 1.515.704 2.592v.528c0 1.067.517 1.6 1.552 1.6zm-4.624.32c.523 0 .933-.219 1.232-.656.309-.437.464-1.04.464-1.808 0-1.621-.565-2.432-1.696-2.432-1.12 0-1.68.811-1.68 2.432 0 1.643.56 2.464 1.68 2.464zm4.742.976v-1.296h.848c1.109 0 1.664-.581 1.664-1.744v-6.544l1.392-.736v7.296c0 .949-.283 1.701-.848 2.256-.533.512-1.232.768-2.096.768h-.96zm6.779 0v-9.584l1.376-.736v10.32h-1.376zm7.105.928v-1.328c.384-.288.912-.496 1.584-.624-.48-.725-.72-1.493-.72-2.304 0-1.013.293-1.829.88-2.448.533-.576 1.226-.864 2.08-.864.928 0 1.696.373 2.304 1.12v1.328c-.683-.789-1.43-1.184-2.24-1.184-.502 0-.902.181-1.2.544-.299.352-.448.832-.448 1.44 0 .875.304 1.6.912 2.176.277-.021.474-.032.592-.032 1.365-.043 2.448-.357 3.248-.944v1.28c-.907.608-2.091.912-3.552.912-1.43 0-2.576.309-3.44.928zm12.023-.928c-.928 0-1.643-.299-2.144-.896-.427-.512-.64-1.163-.64-1.952v-6.736l1.376-.736v7.424c0 1.067.523 1.6 1.568 1.6h1.056v1.296h-1.216zm10.681-1.296h1.04v1.296h-1.056c-.864 0-1.557-.096-2.08-.288-.522-.203-1.008-.555-1.456-1.056-1.344.896-2.912 1.344-4.704 1.344h-2.176v-1.296h2.192c2.166 0 3.878-.715 5.136-2.144-.885-1.632-1.962-2.448-3.232-2.448-.864 0-1.754.459-2.672 1.376v-1.28c.896-.907 1.846-1.36 2.848-1.36.822 0 1.616.299 2.384.896.768.587 1.446 1.429 2.032 2.528v.704c-.33.416-.645.752-.944 1.008.576.48 1.472.72 2.688.72zm3.348-7.584c-.523 0-.784-.267-.784-.8 0-.523.261-.784.784-.784.512 0 .768.261.768.784 0 .533-.256.8-.768.8zm-3.264 8.88v-1.296h1.056c1.045 0 1.568-.533 1.568-1.6v-3.312l1.376-.736v4.096c0 .907-.272 1.621-.816 2.144-.501.469-1.157.704-1.968.704h-1.216zm6.025-10.544.368-.688h.432a1.2 1.2 0 0 1-.16-.592c0-.32.117-.592.352-.816.235-.235.512-.352.832-.352.267 0 .523.085.768.256v.704c-.235-.181-.459-.272-.672-.272-.395 0-.592.176-.592.528 0 .181.075.363.224.544h1.456l-.368.688h-2.64zm.848 10.544v-8.944l1.376-.736v9.68h-1.376zm11.568-.384c-1.013.608-1.626 1.024-1.84 1.248-.426.416-.64.933-.64 1.552 0 .683.235 1.232.704 1.648.47.427 1.078.64 1.824.64 1.174-.011 2.155-.293 2.944-.848v1.296a5.627 5.627 0 0 1-3.008.848c-1.184 0-2.133-.389-2.848-1.168-.618-.661-.928-1.477-.928-2.448 0-.725.192-1.344.576-1.856.384-.501 1.062-1.029 2.032-1.584-.874-.64-1.77-1.643-2.688-3.008v-.704c.523-.747 1.136-1.328 1.84-1.744.704-.427 1.419-.64 2.144-.64.715 0 1.43.219 2.144.656.715.427 1.328 1.013 1.84 1.76v.672c-.544.821-1.445 1.733-2.704 2.736.235.021.422.032.56.032h4.224l.016 1.296h-4.352a4.631 4.631 0 0 1-1.84-.384zm-2.592-4.016c.96 1.312 1.835 2.181 2.624 2.608a12.258 12.258 0 0 0 2.784-2.64c-.789-.96-1.69-1.445-2.704-1.456-1.024 0-1.925.496-2.704 1.488zm13.391 3.104h1.056v1.296h-1.216c-.886 0-1.584-.283-2.096-.848-.512.565-1.211.848-2.096.848h-1.216v-1.296h1.056c1.045 0 1.568-.533 1.568-1.6v-3.312l1.376-.736v4.048c0 1.067.522 1.6 1.568 1.6zm-3.824 2.896c.512 0 .768.267.768.8 0 .523-.256.784-.768.784-.523 0-.784-.261-.784-.784 0-.533.261-.8.784-.8zm2.032 0c.512 0 .768.267.768.8 0 .523-.256.784-.768.784-.523 0-.784-.261-.784-.784 0-.533.261-.8.784-.8zm12.184-2.896h1.072v1.296h-1.216c-.885 0-1.584-.283-2.096-.848-.544.779-1.339 1.168-2.384 1.168s-1.835-.384-2.368-1.152c-.501.555-1.2.832-2.096.832h-1.216v-1.296h1.056c1.045 0 1.568-.533 1.568-1.6v-.528c0-1.237.304-2.187.912-2.848.533-.587 1.248-.88 2.144-.88 1.024 0 1.813.379 2.368 1.136.469.651.704 1.515.704 2.592v.528c0 1.067.517 1.6 1.552 1.6zm-4.624.32c.523 0 .933-.219 1.232-.656.309-.437.464-1.04.464-1.808 0-1.621-.565-2.432-1.696-2.432-1.12 0-1.68.811-1.68 2.432 0 1.643.56 2.464 1.68 2.464zm4.742.976v-1.296h2.192c2.165 0 3.877-.715 5.136-2.144-.885-1.632-1.963-2.448-3.232-2.448-.864 0-1.755.459-2.672 1.376v-1.28c.896-.907 1.845-1.36 2.848-1.36.821 0 1.616.299 2.384.896.768.587 1.445 1.429 2.032 2.528v.704c-1.568 2.016-3.739 3.024-6.512 3.024h-2.176zm4.688 3.184c-.523 0-.784-.267-.784-.8 0-.523.261-.784.784-.784.512 0 .768.261.768.784 0 .533-.256.8-.768.8zm19.214-3.184c-.107.939-.619 1.691-1.536 2.256-.853.523-1.941.784-3.264.784-1.685 0-2.955-.491-3.808-1.472-.629-.725-.944-1.621-.944-2.688 0-.896.224-1.664.672-2.304l1.328-.288a4.488 4.488 0 0 0-.72 2.448c0 .949.309 1.696.928 2.24.608.544 1.456.816 2.544.816.917 0 1.675-.16 2.272-.48.597-.32.96-.757 1.088-1.312h-1.6l.672-1.296h2.416v1.296h-.048zm-5.872 5.872c-.523 0-.784-.267-.784-.8 0-.523.261-.784.784-.784.512 0 .768.261.768.784 0 .533-.256.8-.768.8zm2.032 0c-.523 0-.784-.267-.784-.8 0-.523.261-.784.784-.784.512 0 .768.261.768.784 0 .533-.256.8-.768.8zm8.263-14.656c-.522 0-.784-.267-.784-.8 0-.523.262-.784.784-.784.512 0 .768.261.768.784 0 .533-.256.8-.768.8zm-5.216 8.784v-1.296h2.88c-.49-.544-.736-1.301-.736-2.272 0-1.163.304-2.069.912-2.72.534-.576 1.243-.864 2.128-.864.907 0 1.611.283 2.112.848.427.501.64 1.157.64 1.968v1.52c-.01.885-.272 1.584-.784 2.096-.501.48-1.168.72-2 .72h-5.152zm6.56-4.272c0-1.067-.458-1.6-1.376-1.6-.522 0-.933.203-1.232.608-.298.395-.448.949-.448 1.664 0 .704.144 1.264.432 1.68.288.416.672.624 1.152.624.982 0 1.472-.512 1.472-1.536v-1.44z" fill="#3D4E76"/>
            <path d="M665.574-142.726a150.447 150.447 0 0 1 60.649-12.717c86.175 0 156.037 72.473 156.037 161.867 0 89.398-69.862 161.867-156.037 161.867-57.753 0-108.064-32.635-135.046-81.018-41.362 49.541-102.308 81.018-170.447 81.018-47.464 0-91.45-15.273-127.787-41.243-30.912 25.754-70.112 41.243-112.855 41.243-99.67 0-180.476-83.818-180.476-187.215 0-103.405 80.807-187.223 180.476-187.223 18.904 0 37.122 3.043 54.243 8.631 40.621-61.706 108.935-102.242 186.399-102.242 48.848 0 94.022 16.13 130.898 43.529" stroke="url(#l5l5a4sv6d)" stroke-width="1.935" stroke-linecap="round" stroke-linejoin="round"/>
            <path d="M258.7 54.138h-4.74v-3h4.74v-5.34h3.51v5.34h4.77v3h-4.77v5.28h-3.51v-5.28zm16.051-3.21h-2.85v-3.18h2.85c.8 0 1.35-.11 1.65-.33.46-.34.69-.95.69-1.83 0-.68-.2-1.22-.6-1.62-.4-.42-.94-.63-1.62-.63-1.22 0-2.49.56-3.81 1.68l-1.44-2.52c1.66-1.62 3.54-2.43 5.64-2.43 1.76 0 3.2.49 4.32 1.47 1.08.96 1.62 2.2 1.62 3.72 0 1.88-.78 3.14-2.34 3.78 2.02.78 3.03 2.28 3.03 4.5 0 2.34-.8 4.04-2.4 5.1-1.12.74-2.52 1.11-4.2 1.11-.92 0-1.97-.24-3.15-.72-1.16-.5-2.11-1.1-2.85-1.8l1.59-2.37c1.08.98 2.46 1.47 4.14 1.47.86 0 1.54-.24 2.04-.72.5-.5.75-1.17.75-2.01 0-1.78-1.02-2.67-3.06-2.67zm20.818-7.35h-6.63v3.84c.24-.1.57-.15.99-.15 2.2 0 3.91.55 5.13 1.65 1.16 1.06 1.74 2.51 1.74 4.35 0 1.94-.72 3.55-2.16 4.83-1.26 1.12-2.79 1.68-4.59 1.68-2.4 0-4.49-.87-6.27-2.61l1.62-2.49c1.46 1.1 2.87 1.65 4.23 1.65 2.1 0 3.15-.94 3.15-2.82 0-2.1-1.35-3.15-4.05-3.15-.94 0-2.17.17-3.69.51v-10.44h10.53v3.15zm10.772-3.51c2.32 0 4.18 1.11 5.58 3.33 1.18 1.84 1.77 4.03 1.77 6.57 0 3.06-.75 5.51-2.25 7.35-1.32 1.64-3.02 2.46-5.1 2.46-2.38 0-4.24-1.06-5.58-3.18-1.12-1.76-1.68-3.97-1.68-6.63 0-2.96.74-5.39 2.22-7.29 1.34-1.74 3.02-2.61 5.04-2.61zm.06 3.36c-2.16 0-3.24 2.12-3.24 6.36 0 2.14.31 3.82.93 5.04.56 1.1 1.3 1.65 2.22 1.65 1.02 0 1.82-.59 2.4-1.77.6-1.2.9-2.84.9-4.92 0-4.24-1.07-6.36-3.21-6.36z" fill="url(#3uz8ka6fte)"/>
        </g>
    </g>
    <defs>
        <linearGradient id="l5l5a4sv6d" x1="862.099" y1="-98.102" x2="53.727" y2="-160.035" gradientUnits="userSpaceOnUse">
            <stop stop-color="#1C6FC4"/>
            <stop offset="1" stop-color="#01B8B6"/>
        </linearGradient>
        <linearGradient id="3uz8ka6fte" x1="253.001" y1="65.418" x2="315" y2="65.418" gradientUnits="userSpaceOnUse">
            <stop stop-color="#FDBC11"/>
            <stop offset="1" stop-color="#F6931D"/>
        </linearGradient>
        <clipPath id="99e9nll0ka">
            <path fill="#fff" transform="translate(0 .492)" d="M0 0h343v231.492H0z"/>
        </clipPath>
        <clipPath id="mdb74oftec">
            <path fill="#fff" transform="translate(121.118 36.779)" d="M0 0h85v14.468H0z"/>
        </clipPath>
    </defs>
</svg>
