<svg width="215" height="340" viewBox="0 0 215 340" fill="none" xmlns="http://www.w3.org/2000/svg">
    <rect x=".5" y=".5" width="214" height="339" rx="3.5" fill="#fff" stroke="#EDEDED"/>
    <g clip-path="url(#c6w7t2yuza)">
        <path d="M73.453 208.762c.67 2.619 1.21 4.696 1.624 6.232l1.197-6.232h1.993l-2.318 9.347h-1.595l-1.92-6.527-1.934 6.527h-1.61l-2.26-9.347h1.98l1.166 6.232c.709-2.58 1.265-4.657 1.669-6.232h2.008zm9.715-.177c1.437 0 2.544.571 3.322 1.713.61.896.916 1.978.916 3.248 0 1.457-.4 2.624-1.197 3.5-.758.827-1.772 1.241-3.041 1.241-1.458 0-2.565-.532-3.323-1.595-.61-.837-.916-1.885-.916-3.146 0-1.476.399-2.682 1.197-3.618.757-.895 1.771-1.343 3.041-1.343zm0 8.077c.708 0 1.255-.266 1.639-.797.384-.542.575-1.314.575-2.319 0-1.073-.211-1.909-.634-2.51-.394-.532-.92-.797-1.58-.797-.71 0-1.26.29-1.654.871-.384.581-.576 1.393-.576 2.436 0 2.078.743 3.116 2.23 3.116zm6.014 1.447v-9.332c.138-.03.527-.069 1.167-.118.64-.05 1.127-.074 1.462-.074 2.382 0 3.573.974 3.573 2.924 0 1.053-.428 1.949-1.284 2.687.354.817.96 2.122 1.816 3.913h-1.95a872.65 872.65 0 0 0-1.565-3.396c-.108.02-.256.03-.443.03-.433 0-.713-.04-.841-.119v3.485h-1.935zm1.934-7.87v2.82c.296.089.616.133.96.133.847 0 1.27-.561 1.27-1.683 0-.916-.438-1.374-1.314-1.374-.502 0-.807.035-.915.104zm7.656-1.477v3.854c1.299-1.762 2.244-3.047 2.835-3.854h2.377a2284.672 2284.672 0 0 1-3.366 4.4 429.753 429.753 0 0 1 4.06 4.947h-2.569a1040.77 1040.77 0 0 0-3.293-4.371h-.044v4.371H96.94v-9.347h1.832zm12.754.768a63.66 63.66 0 0 1-.827 1.196c-.788-.345-1.491-.517-2.112-.517-.817 0-1.225.305-1.225.916 0 .275.093.492.28.649.187.158.576.35 1.167.576 1.063.414 1.826.862 2.289 1.344.472.482.709 1.063.709 1.743 0 .955-.36 1.693-1.078 2.215-.591.423-1.325.635-2.201.635-1.033 0-2.136-.374-3.308-1.123l.857-1.196c.571.384 1.304.576 2.2.576 1.014 0 1.521-.408 1.521-1.226 0-.531-.546-.984-1.639-1.358-1.762-.591-2.643-1.536-2.643-2.835 0-.788.295-1.413.886-1.876.551-.443 1.285-.664 2.2-.664 1.044 0 2.018.315 2.924.945zm4.033 8.579h-1.905v-9.347h1.905v3.751h4.017v-3.751h1.934v9.347h-1.934v-4.046h-4.017v4.046zm11.967-9.524c1.438 0 2.545.571 3.323 1.713.61.896.915 1.978.915 3.248 0 1.457-.398 2.624-1.196 3.5-.758.827-1.772 1.241-3.042 1.241-1.457 0-2.564-.532-3.322-1.595-.611-.837-.916-1.885-.916-3.146 0-1.476.399-2.682 1.196-3.618.758-.895 1.772-1.343 3.042-1.343zm0 8.077c.709 0 1.255-.266 1.639-.797.384-.542.576-1.314.576-2.319 0-1.073-.211-1.909-.635-2.51-.393-.532-.92-.797-1.58-.797-.709 0-1.26.29-1.654.871-.384.581-.576 1.393-.576 2.436 0 2.078.744 3.116 2.23 3.116zm6.015 1.447v-9.332c.138-.03.527-.069 1.166-.118.64-.05 1.128-.074 1.462-.074 2.383 0 3.574.974 3.574 2.924 0 1.21-.413 2.096-1.24 2.658-.552.384-1.201.576-1.95.576-.59 0-.95-.04-1.078-.119v3.485h-1.934zm1.934-7.87v2.82c.256.099.576.148.96.148.394 0 .704-.138.931-.414.226-.285.339-.674.339-1.166 0-.995-.438-1.492-1.314-1.492-.502 0-.807.035-.916.104zm11.829-.709a63.66 63.66 0 0 1-.827 1.196c-.787-.345-1.491-.517-2.111-.517-.817 0-1.226.305-1.226.916 0 .275.094.492.281.649.187.158.575.35 1.166.576 1.063.414 1.826.862 2.289 1.344.473.482.709 1.063.709 1.743 0 .955-.359 1.693-1.078 2.215-.591.423-1.324.635-2.2.635-1.034 0-2.137-.374-3.308-1.123l.856-1.196c.571.384 1.305.576 2.201.576 1.014 0 1.521-.408 1.521-1.226 0-.531-.547-.984-1.64-1.358-1.762-.591-2.643-1.536-2.643-2.835 0-.788.295-1.413.886-1.876.551-.443 1.285-.664 2.2-.664 1.044 0 2.019.315 2.924.945z" fill="#01B8B6"/>
    </g>
    <path d="M153.588 197.04H56M56 191h102.1v37.416H56v-31.111M62.743 233.66v89.92M69.71 233.66v89.92" stroke="#3D4E76" stroke-width="1.185" stroke-linecap="round" stroke-linejoin="round"/>
    <path clip-rule="evenodd" d="M102.009 277.755a2.095 2.095 0 1 1-4.19 0 2.095 2.095 0 0 1 4.19 0zM119.872 277.755a2.095 2.095 0 1 1-4.19 0 2.095 2.095 0 0 1 4.19 0z" stroke="#3D4E76" stroke-width=".79" stroke-linecap="round" stroke-linejoin="round"/>
    <path clip-rule="evenodd" d="M94.621 289.799h6.043v-5.757h-6.043v5.757zM116.542 289.799h6.043v-5.757h-6.043v5.757zM121.955 270.392v-2.38c0-5.84-3.277-10.618-9.116-10.618h-7.885c-5.838 0-9.115 4.778-9.115 10.618v2.38a.94.94 0 0 1-.459.807 3.755 3.755 0 0 0-1.843 3.225v9.573h30.72v-9.573a3.754 3.754 0 0 0-1.844-3.225.94.94 0 0 1-.458-.807z" stroke="#3D4E76" stroke-width="1.185" stroke-linecap="round" stroke-linejoin="round"/>
    <path d="M102.538 270.277h13.012M145.835 233.66v89.92M132.184 274.568l.227 49.067M85.198 274.568l.227 49.067M88.555 293.362h40.273M152.803 233.66v89.92" stroke="#3D4E76" stroke-width="1.185" stroke-linecap="round" stroke-linejoin="round"/>
    <path d="M65.462 59.2h-7.9v-5h7.9v-8.9h5.85v8.9h7.95v5h-7.95V68h-5.85v-8.8zm26.752-5.35h-4.75v-5.3h4.75c1.334 0 2.25-.183 2.75-.55.767-.567 1.15-1.583 1.15-3.05 0-1.133-.333-2.033-1-2.7-.666-.7-1.566-1.05-2.7-1.05-2.033 0-4.15.933-6.35 2.8l-2.4-4.2c2.767-2.7 5.9-4.05 9.4-4.05 2.934 0 5.334.817 7.2 2.45 1.8 1.6 2.7 3.667 2.7 6.2 0 3.133-1.3 5.233-3.9 6.3 3.367 1.3 5.05 3.8 5.05 7.5 0 3.9-1.333 6.733-4 8.5-1.866 1.233-4.2 1.85-7 1.85-1.533 0-3.283-.4-5.25-1.2-1.933-.833-3.516-1.833-4.75-3l2.65-3.95c1.8 1.633 4.1 2.45 6.9 2.45 1.434 0 2.567-.4 3.4-1.2.834-.833 1.25-1.95 1.25-3.35 0-2.967-1.7-4.45-5.1-4.45zm34.697-12.25h-11.05V48c.4-.167.95-.25 1.65-.25 3.666 0 6.516.917 8.55 2.75 1.933 1.767 2.9 4.183 2.9 7.25 0 3.233-1.2 5.917-3.6 8.05-2.1 1.867-4.65 2.8-7.65 2.8-4 0-7.484-1.45-10.45-4.35l2.7-4.15c2.433 1.833 4.783 2.75 7.05 2.75 3.5 0 5.25-1.567 5.25-4.7 0-3.5-2.25-5.25-6.75-5.25-1.567 0-3.617.283-6.15.85v-17.4h17.55v5.25zm17.953-5.85c3.867 0 6.967 1.85 9.3 5.55 1.967 3.067 2.95 6.717 2.95 10.95 0 5.1-1.25 9.183-3.75 12.25-2.2 2.733-5.033 4.1-8.5 4.1-3.966 0-7.066-1.767-9.3-5.3-1.866-2.933-2.8-6.617-2.8-11.05 0-4.933 1.234-8.983 3.7-12.15 2.234-2.9 5.034-4.35 8.4-4.35zm.1 5.6c-3.6 0-5.4 3.533-5.4 10.6 0 3.567.517 6.367 1.55 8.4.934 1.833 2.167 2.75 3.7 2.75 1.7 0 3.034-.983 4-2.95 1-2 1.5-4.733 1.5-8.2 0-7.067-1.783-10.6-5.35-10.6z" fill="url(#ziwvc1370b)"/>
    <path d="M61.518 91.34c.906 3.547 1.64 6.36 2.2 8.44l1.62-8.44h2.7L64.898 104h-2.16l-2.6-8.84-2.62 8.84h-2.18l-3.06-12.66h2.68l1.58 8.44a527.17 527.17 0 0 0 2.26-8.44h2.72zm13.157-.24c1.946 0 3.446.773 4.5 2.32.826 1.213 1.24 2.68 1.24 4.4 0 1.973-.54 3.553-1.62 4.74-1.027 1.12-2.4 1.68-4.12 1.68-1.974 0-3.474-.72-4.5-2.16-.827-1.133-1.24-2.553-1.24-4.26 0-2 .54-3.633 1.62-4.9 1.026-1.213 2.4-1.82 4.12-1.82zm0 10.94c.96 0 1.7-.36 2.22-1.08.52-.733.78-1.78.78-3.14 0-1.453-.287-2.587-.86-3.4-.534-.72-1.247-1.08-2.14-1.08-.96 0-1.707.393-2.24 1.18-.52.787-.78 1.887-.78 3.3 0 2.813 1.006 4.22 3.02 4.22zM82.82 104V91.36c.186-.04.713-.093 1.58-.16.866-.067 1.526-.1 1.98-.1 3.226 0 4.84 1.32 4.84 3.96 0 1.427-.58 2.64-1.74 3.64.48 1.107 1.3 2.873 2.46 5.3H89.3c-.654-1.427-1.36-2.96-2.12-4.6-.147.027-.347.04-.6.04-.587 0-.967-.053-1.14-.16V104h-2.62zm2.62-10.66v3.82c.4.12.833.18 1.3.18 1.146 0 1.72-.76 1.72-2.28 0-1.24-.594-1.86-1.78-1.86-.68 0-1.094.047-1.24.14zm10.367-2v5.22c1.76-2.387 3.04-4.127 3.84-5.22h3.221c-1.374 1.8-2.894 3.787-4.56 5.96a576.978 576.978 0 0 1 5.5 6.7h-3.48c-1.227-1.64-2.714-3.613-4.46-5.92h-.06V104h-2.48V91.34h2.48zm17.275 1.04c-.24.36-.614.9-1.12 1.62-1.067-.467-2.02-.7-2.86-.7-1.107 0-1.66.413-1.66 1.24 0 .373.126.667.38.88.253.213.78.473 1.58.78 1.44.56 2.473 1.167 3.1 1.82.64.653.96 1.44.96 2.36 0 1.293-.487 2.293-1.46 3-.8.573-1.794.86-2.98.86-1.4 0-2.894-.507-4.48-1.52l1.16-1.62c.773.52 1.766.78 2.98.78 1.373 0 2.06-.553 2.06-1.66 0-.72-.74-1.333-2.22-1.84-2.387-.8-3.58-2.08-3.58-3.84 0-1.067.4-1.913 1.2-2.54.746-.6 1.74-.9 2.98-.9 1.413 0 2.733.427 3.96 1.28zm5.462 11.62h-2.58V91.34h2.58v5.08h5.44v-5.08h2.62V104h-2.62v-5.48h-5.44V104zm16.208-12.9c1.947 0 3.447.773 4.5 2.32.827 1.213 1.24 2.68 1.24 4.4 0 1.973-.54 3.553-1.62 4.74-1.027 1.12-2.4 1.68-4.12 1.68-1.973 0-3.473-.72-4.5-2.16-.827-1.133-1.24-2.553-1.24-4.26 0-2 .54-3.633 1.62-4.9 1.027-1.213 2.4-1.82 4.12-1.82zm0 10.94c.96 0 1.7-.36 2.22-1.08.52-.733.78-1.78.78-3.14 0-1.453-.287-2.587-.86-3.4-.533-.72-1.247-1.08-2.14-1.08-.96 0-1.707.393-2.24 1.18-.52.787-.78 1.887-.78 3.3 0 2.813 1.007 4.22 3.02 4.22zm8.146 1.96V91.36c.186-.04.713-.093 1.58-.16a27.89 27.89 0 0 1 1.98-.1c3.226 0 4.84 1.32 4.84 3.96 0 1.64-.56 2.84-1.68 3.6-.747.52-1.627.78-2.64.78-.8 0-1.287-.053-1.46-.16V104h-2.62zm2.62-10.66v3.82c.346.133.78.2 1.3.2.533 0 .953-.187 1.26-.56.306-.387.46-.913.46-1.58 0-1.347-.594-2.02-1.78-2.02-.68 0-1.094.047-1.24.14zm16.021-.96c-.24.36-.614.9-1.12 1.62-1.067-.467-2.02-.7-2.86-.7-1.107 0-1.66.413-1.66 1.24 0 .373.126.667.38.88.253.213.78.473 1.58.78 1.44.56 2.473 1.167 3.1 1.82.64.653.96 1.44.96 2.36 0 1.293-.487 2.293-1.46 3-.8.573-1.794.86-2.98.86-1.4 0-2.894-.507-4.48-1.52l1.16-1.62c.773.52 1.766.78 2.98.78 1.373 0 2.06-.553 2.06-1.66 0-.72-.74-1.333-2.22-1.84-2.387-.8-3.58-2.08-3.58-3.84 0-1.067.4-1.913 1.2-2.54.746-.6 1.74-.9 2.98-.9 1.413 0 2.733.427 3.96 1.28zM26.303 156.872V167H24.83v-10.128h1.472zm3.975 3.584h.08c.544-.608 1.301-.912 2.272-.912 1.781 0 2.672 1.045 2.672 3.136V167h-1.376v-4.24c0-1.355-.597-2.032-1.792-2.032-.33 0-.667.08-1.008.24-.341.16-.592.352-.752.576V167h-1.376v-7.264h1.152l.128.72zm13.83-3.584h1.407L49.18 167h-1.52l-.768-2.288h-4.144L41.963 167h-1.52l3.664-10.128zm.703 1.792-1.648 4.816h3.296l-1.648-4.816zm7.139 1.792h.08c.544-.608 1.296-.912 2.256-.912 1.205 0 1.99.432 2.352 1.296.619-.864 1.498-1.296 2.64-1.296 1.75 0 2.624 1.035 2.624 3.104V167h-1.376v-4.048c0-.8-.144-1.371-.432-1.712-.278-.341-.747-.512-1.408-.512-.661 0-1.264.293-1.808.88.064.299.096.645.096 1.04V167h-1.376v-4.16c0-.736-.15-1.269-.448-1.6-.288-.341-.758-.512-1.408-.512-.31 0-.63.08-.96.24-.33.16-.576.352-.736.576V167H50.67v-7.264h1.152l.128.72zm13.64 0h.08c.544-.608 1.296-.912 2.257-.912 1.205 0 1.989.432 2.351 1.296.62-.864 1.5-1.296 2.64-1.296 1.75 0 2.624 1.035 2.624 3.104V167h-1.376v-4.048c0-.8-.144-1.371-.431-1.712-.278-.341-.747-.512-1.409-.512-.66 0-1.263.293-1.807.88.063.299.096.645.096 1.04V167h-1.376v-4.16c0-.736-.15-1.269-.449-1.6-.288-.341-.757-.512-1.408-.512-.309 0-.629.08-.96.24-.33.16-.575.352-.736.576V167H64.31v-7.264h1.153l.128.72zM83.456 167h-1.072l-.16-.752c-.576.629-1.355.944-2.336.944-.746 0-1.338-.203-1.776-.608-.427-.416-.64-.976-.64-1.68 0-.8.325-1.413.976-1.84.662-.437 1.595-.656 2.8-.656h.848v-.08c0-1.109-.56-1.664-1.68-1.664-.715 0-1.381.229-2 .688l-.416-.736c.832-.715 1.787-1.072 2.864-1.072 1.728 0 2.592 1.029 2.592 3.088V167zm-1.376-3.664h-.704c-1.642 0-2.464.491-2.464 1.472 0 .405.117.725.352.96.245.235.57.352.976.352.405 0 .784-.101 1.136-.304.352-.213.587-.48.704-.8v-1.68zm5.074-2.88h.08c.544-.608 1.301-.912 2.272-.912 1.781 0 2.672 1.045 2.672 3.136V167h-1.376v-4.24c0-1.355-.597-2.032-1.792-2.032-.33 0-.667.08-1.008.24-.341.16-.592.352-.752.576V167h-1.376v-7.264h1.152l.128.72zm7.375 8.192-.32-.624c.416-.267.624-.565.624-.896v-.064a.322.322 0 0 1-.144.032.639.639 0 0 1-.48-.224.87.87 0 0 1-.192-.56c0-.245.08-.448.24-.608a.778.778 0 0 1 .592-.256c.64 0 .96.448.96 1.344 0 .416-.118.795-.352 1.136a1.878 1.878 0 0 1-.928.72zm12.123-10.16c-.726-.363-1.456-.544-2.192-.544-.523 0-.95.123-1.28.368-.331.235-.496.539-.496.912 0 .672.442 1.173 1.328 1.504 1.322.491 2.261 1.008 2.816 1.552.554.533.832 1.195.832 1.984 0 .96-.368 1.712-1.104 2.256-.598.448-1.339.672-2.224.672-1.056 0-2.155-.363-3.296-1.088l.64-.912c.714.437 1.546.656 2.496.656 1.301 0 1.952-.549 1.952-1.648 0-.853-.55-1.467-1.648-1.84-1.152-.395-1.99-.832-2.512-1.312-.512-.48-.768-1.061-.768-1.744 0-.811.314-1.461.944-1.952.576-.448 1.333-.672 2.272-.672 1.056 0 2.016.299 2.88.896l-.64.912zM115.44 167h-1.072l-.16-.752c-.576.629-1.355.944-2.336.944-.747 0-1.339-.203-1.776-.608-.427-.416-.64-.976-.64-1.68 0-.8.325-1.413.976-1.84.661-.437 1.594-.656 2.8-.656h.848v-.08c0-1.109-.56-1.664-1.68-1.664-.715 0-1.382.229-2 .688l-.416-.736c.832-.715 1.786-1.072 2.864-1.072 1.728 0 2.592 1.029 2.592 3.088V167zm-1.376-3.664h-.704c-1.643 0-2.464.491-2.464 1.472 0 .405.117.725.352.96.245.235.57.352.976.352.405 0 .784-.101 1.136-.304.352-.213.586-.48.704-.8v-1.68zm5.169-6.656V167h-1.376v-9.584l1.376-.736zm4.387 4.176-.016 4.224c0 .704.267 1.056.8 1.056.374 0 .742-.107 1.104-.32l.48.736c-.586.437-1.221.656-1.904.656-1.237 0-1.856-.677-1.856-2.032v-4.32h-1.072v-1.12h1.088v-1.488l1.376-.72v2.208h2.176v1.12h-2.176zm4.22 7.792-.32-.624c.416-.267.624-.565.624-.896v-.064a.318.318 0 0 1-.144.032.64.64 0 0 1-.48-.224.87.87 0 0 1-.192-.56c0-.245.08-.448.24-.608a.78.78 0 0 1 .592-.256c.64 0 .96.448.96 1.344 0 .416-.117.795-.352 1.136a1.875 1.875 0 0 1-.928.72zm12.827-10.48a119.91 119.91 0 0 0-4.064 6.256c-.469.768-.757 1.216-.864 1.344h5.04V167h-6.848v-1.136c1.067-1.536 2.39-3.552 3.968-6.048.651-1.035 1.024-1.605 1.12-1.712h-4.944v-1.232h6.592v1.296zm7.257 8.832h-1.072l-.16-.752c-.576.629-1.355.944-2.336.944-.747 0-1.339-.203-1.776-.608-.427-.416-.64-.976-.64-1.68 0-.8.325-1.413.976-1.84.661-.437 1.595-.656 2.8-.656h.848v-.08c0-1.109-.56-1.664-1.68-1.664-.715 0-1.381.229-2 .688l-.416-.736c.832-.715 1.787-1.072 2.864-1.072 1.728 0 2.592 1.029 2.592 3.088V167zm-1.376-3.664h-.704c-1.643 0-2.464.491-2.464 1.472 0 .405.117.725.352.96.245.235.571.352.976.352s.784-.101 1.136-.304c.352-.213.587-.48.704-.8v-1.68zm5.106-2.88h.064c.501-.608 1.088-.912 1.76-.912.853 0 1.482.331 1.888.992l-1.152.72c-.352-.352-.736-.528-1.152-.528-.534 0-.982.272-1.344.816V167h-1.376v-7.264h1.184l.128.72zm10.107-.72h1.072v10.128h-1.376v-3.632c-.48.64-1.168.96-2.064.96-1.077 0-1.925-.395-2.544-1.184-.523-.661-.784-1.493-.784-2.496 0-1.323.384-2.347 1.152-3.072.619-.597 1.371-.896 2.256-.896.427 0 .848.096 1.264.288.416.181.704.4.864.656l.16-.752zm-.304 4.976v-2.88c-.075-.331-.288-.619-.64-.864a1.856 1.856 0 0 0-1.104-.368c-.651 0-1.179.256-1.584.768s-.608 1.173-.608 1.984c0 .928.213 1.637.64 2.128.373.427.853.64 1.44.64.405 0 .784-.133 1.136-.4.363-.277.603-.613.72-1.008zM170.83 167h-1.072l-.16-.752c-.576.629-1.355.944-2.336.944-.747 0-1.339-.203-1.776-.608-.427-.416-.64-.976-.64-1.68 0-.8.325-1.413.976-1.84.661-.437 1.595-.656 2.8-.656h.848v-.08c0-1.109-.56-1.664-1.68-1.664-.715 0-1.381.229-2 .688l-.416-.736c.832-.715 1.787-1.072 2.864-1.072 1.728 0 2.592 1.029 2.592 3.088V167zm-1.376-3.664h-.704c-1.643 0-2.464.491-2.464 1.472 0 .405.117.725.352.96.245.235.571.352.976.352s.784-.101 1.136-.304c.352-.213.587-.48.704-.8v-1.68zm3.73 5.312-.32-.624c.416-.267.624-.565.624-.896v-.064a.324.324 0 0 1-.144.032.64.64 0 0 1-.48-.224.87.87 0 0 1-.192-.56c0-.245.08-.448.24-.608a.778.778 0 0 1 .592-.256c.64 0 .96.448.96 1.344 0 .416-.117.795-.352 1.136a1.88 1.88 0 0 1-.928.72zm7.147-2.416v-.032c.021-.533.304-.8.848-.8.565 0 .848.277.848.832 0 .565-.283.848-.848.848s-.848-.283-.848-.848zm4.578 0v-.032c.021-.533.304-.8.848-.8.565 0 .848.277.848.832 0 .565-.283.848-.848.848s-.848-.283-.848-.848zm4.578 0v-.032c.022-.533.304-.8.848-.8.566 0 .848.277.848.832 0 .565-.282.848-.848.848-.565 0-.848-.283-.848-.848z" fill="#3D4E76"/>
    <defs>
        <linearGradient id="ziwvc1370b" x1="54.001" y1="74" x2="161" y2="74" gradientUnits="userSpaceOnUse">
            <stop stop-color="#FDBC11"/>
            <stop offset="1" stop-color="#F6931D"/>
        </linearGradient>
        <clipPath id="c6w7t2yuza">
            <path fill="#fff" transform="translate(66.404 207.109)" d="M0 0h81.89v14.767H0z"/>
        </clipPath>
    </defs>
</svg>
