<svg width="343" height="232" viewBox="0 0 343 232" fill="none" xmlns="http://www.w3.org/2000/svg">
    <g clip-path="url(#fchlbvoc8a)">
        <rect y=".492" width="343" height="231.492" rx="7" fill="#fff" stroke="#E9E9E9" stroke-width="1.4"/>
        <mask id="bnpmhx3u1b" style="mask-type:luminance" maskUnits="userSpaceOnUse" x="-1" y="-1" width="345" height="234">
            <rect y=".492" width="343" height="231.492" rx="7" fill="#fff" stroke="#fff" stroke-width="1.4"/>
        </mask>
        <g mask="url(#bnpmhx3u1b)">
            <g clip-path="url(#panbmnlqdc)">
                <path d="M127.059 37.03h1.54l2.064 7.562 2.002-7.561h1.509l-2.849 9.748h-1.247c-.729-2.218-1.479-4.78-2.249-7.685-.77 2.906-1.519 5.467-2.248 7.685h-1.248l-2.849-9.748h1.51l2.002 7.56 2.063-7.56zm12.374 9.934c-1.447 0-2.561-.57-3.341-1.71-.616-.903-.924-2.002-.924-3.295 0-1.52.405-2.762 1.216-3.727.77-.924 1.787-1.386 3.049-1.386 1.438 0 2.552.59 3.342 1.77.616.925.924 2.039.924 3.343 0 1.509-.405 2.73-1.216 3.665-.77.893-1.787 1.34-3.05 1.34zm0-1.233c.955 0 1.674-.395 2.156-1.185.401-.657.601-1.52.601-2.587 0-1.243-.262-2.213-.785-2.911-.483-.647-1.14-.97-1.972-.97-.944 0-1.663.415-2.156 1.247-.4.678-.6 1.555-.6 2.633 0 1.233.262 2.182.785 2.85.483.615 1.14.923 1.971.923zm6.427 1.048v-9.733c.903-.134 1.735-.2 2.494-.2 2.362 0 3.542.996 3.542 2.987 0 1.294-.533 2.208-1.601 2.742l1.94 4.204h-1.447l-1.756-3.85c-.133.02-.328.03-.585.03-.359 0-.744-.035-1.155-.107v3.927h-1.432zm1.432-8.686v3.604c.411.072.796.107 1.155.107 1.293 0 1.94-.657 1.94-1.97 0-1.233-.652-1.849-1.956-1.849-.472 0-.852.036-1.139.108zm8.105 3.942v4.744h-1.386V37.03h1.386v4.204h.015l3.373-4.204h1.74l-3.758 4.589 4.097 5.159H159l-3.588-4.744h-.015zm11.886-3.45c-.698-.348-1.402-.523-2.11-.523-.503 0-.914.118-1.232.355-.318.225-.478.518-.478.877 0 .647.427 1.13 1.279 1.448 1.273.472 2.176.97 2.71 1.494.534.513.801 1.15.801 1.91 0 .923-.354 1.647-1.063 2.17-.575.432-1.288.648-2.14.648-1.017 0-2.074-.35-3.173-1.048l.616-.877c.688.42 1.489.63 2.403.63 1.252 0 1.878-.528 1.878-1.585 0-.822-.528-1.412-1.586-1.771-1.109-.38-1.914-.801-2.418-1.263-.492-.462-.739-1.022-.739-1.679 0-.78.303-1.406.909-1.879.554-.43 1.283-.646 2.187-.646 1.016 0 1.94.287 2.772.862l-.616.878zm4.763 8.194h-1.417V37.03h1.417v4.096h4.697V37.03h1.432v9.748h-1.432v-4.466h-4.697v4.466zm12.55.184c-1.448 0-2.562-.57-3.342-1.709-.616-.903-.924-2.002-.924-3.295 0-1.52.405-2.762 1.216-3.727.77-.924 1.787-1.386 3.05-1.386 1.437 0 2.551.59 3.341 1.77.616.925.924 2.039.924 3.343 0 1.509-.405 2.73-1.216 3.665-.77.893-1.787 1.34-3.049 1.34zm0-1.232c.954 0 1.673-.395 2.156-1.185.4-.657.6-1.52.6-2.587 0-1.243-.262-2.213-.785-2.911-.483-.647-1.14-.97-1.971-.97-.945 0-1.664.415-2.156 1.247-.401.678-.601 1.555-.601 2.633 0 1.233.262 2.182.785 2.85.483.615 1.14.923 1.972.923zm6.426 1.048v-9.733c.903-.134 1.735-.2 2.495-.2 2.361 0 3.542.996 3.542 2.987 0 1.078-.36 1.895-1.078 2.449-.585.452-1.335.678-2.249.678-.441 0-.867-.036-1.278-.108v3.927h-1.432zm1.432-8.686v3.604c.411.072.837.107 1.278.107 1.212 0 1.818-.657 1.818-1.97 0-1.233-.652-1.849-1.956-1.849-.472 0-.852.036-1.14.108zm11.569.493c-.698-.35-1.401-.524-2.11-.524-.503 0-.913.118-1.232.355-.318.225-.477.518-.477.877 0 .647.426 1.13 1.278 1.448 1.273.472 2.177.97 2.71 1.494.534.513.801 1.15.801 1.91 0 .923-.354 1.647-1.062 2.17-.575.432-1.289.648-2.141.648-1.016 0-2.074-.35-3.172-1.048l.616-.877c.688.42 1.488.63 2.402.63 1.253 0 1.879-.528 1.879-1.585 0-.822-.529-1.412-1.586-1.771-1.109-.38-1.915-.801-2.418-1.263-.493-.462-.739-1.022-.739-1.679 0-.78.303-1.406.908-1.879.555-.43 1.284-.646 2.187-.646 1.016 0 1.94.287 2.772.862l-.616.878z" fill="#01B8B6"/>
            </g>
            <path d="M211.802 26.66H110.073M110.073 20.593h106.432v37.594H110.073v-31.26M117.102 63.455v76.24M124.365 63.455v82.31" stroke="#3D4E76" stroke-width="1.235" stroke-linecap="round" stroke-linejoin="round"/>
            <path clip-rule="evenodd" d="M158.034 107.76c0 1.163-.978 2.105-2.184 2.105-1.206 0-2.184-.942-2.184-2.105s.978-2.106 2.184-2.106c1.206 0 2.184.943 2.184 2.106zM176.656 107.76c0 1.163-.978 2.105-2.184 2.105-1.207 0-2.184-.942-2.184-2.105s.977-2.106 2.184-2.106c1.206 0 2.184.943 2.184 2.106z" stroke="#3D4E76" stroke-width=".824" stroke-linecap="round" stroke-linejoin="round"/>
            <path clip-rule="evenodd" d="M150.333 119.862h6.299v-5.785h-6.299v5.785zM173.184 119.862h6.299v-5.785h-6.299v5.785zM178.826 100.362v-2.391c0-5.868-3.416-10.668-9.502-10.668h-8.22c-6.086 0-9.502 4.8-9.502 10.668v2.391a.936.936 0 0 1-.478.811c-1.148.658-1.922 1.866-1.922 3.24v9.619h32.024v-9.619c0-1.374-.774-2.582-1.922-3.24a.936.936 0 0 1-.478-.811z" stroke="#3D4E76" stroke-width="1.235" stroke-linecap="round" stroke-linejoin="round"/>
            <path d="M158.586 100.246h13.564M203.72 63.455v90.403M189.49 104.558l.236 49.3M140.51 104.558l.236 49.3M144.009 123.442h41.982M210.983 63.455v85.682" stroke="#3D4E76" stroke-width="1.235" stroke-linecap="round" stroke-linejoin="round"/>
            <path d="M244.941 75.67h1.54l2.063 7.561 2.002-7.561h1.51l-2.849 9.748h-1.248c-.729-2.218-1.478-4.78-2.248-7.685-.77 2.906-1.52 5.467-2.249 7.685h-1.247l-2.849-9.748h1.509l2.002 7.561 2.064-7.561zm12.374 9.933c-1.448 0-2.562-.57-3.342-1.71-.616-.903-.924-2.002-.924-3.295 0-1.52.406-2.762 1.217-3.727.77-.924 1.786-1.386 3.049-1.386 1.437 0 2.551.59 3.342 1.771.616.924.924 2.038.924 3.342 0 1.509-.406 2.73-1.217 3.665-.77.893-1.786 1.34-3.049 1.34zm0-1.232c.955 0 1.673-.395 2.156-1.186.4-.657.601-1.52.601-2.587 0-1.242-.262-2.213-.786-2.91-.482-.648-1.139-.971-1.971-.971-.945 0-1.663.416-2.156 1.247-.4.678-.601 1.556-.601 2.634 0 1.232.262 2.181.786 2.849.482.616 1.139.924 1.971.924zm6.426 1.047v-9.733c.904-.133 1.735-.2 2.495-.2 2.361 0 3.542.996 3.542 2.988 0 1.293-.534 2.207-1.602 2.74l1.941 4.205h-1.448l-1.755-3.85c-.134.02-.329.03-.586.03-.359 0-.744-.035-1.155-.107v3.927h-1.432zm1.432-8.686v3.604c.411.072.796.108 1.155.108 1.294 0 1.941-.657 1.941-1.971 0-1.232-.652-1.848-1.956-1.848-.472 0-.852.035-1.14.107zm8.105 3.943v4.743h-1.386V75.67h1.386v4.204h.016l3.372-4.204h1.741l-3.758 4.589 4.096 5.159h-1.863l-3.588-4.743h-.016zm11.886-3.45c-.698-.349-1.401-.523-2.11-.523-.503 0-.913.118-1.232.354-.318.226-.477.518-.477.878 0 .646.426 1.129 1.278 1.447 1.273.472 2.177.97 2.711 1.494.534.513.8 1.15.8 1.91 0 .924-.354 1.647-1.062 2.171-.575.431-1.289.647-2.141.647-1.016 0-2.074-.35-3.172-1.047l.616-.878c.688.42 1.489.631 2.402.631 1.253 0 1.879-.529 1.879-1.586 0-.821-.529-1.412-1.586-1.771-1.109-.38-1.915-.8-2.418-1.263-.493-.462-.739-1.021-.739-1.678 0-.78.303-1.407.908-1.88.555-.43 1.284-.646 2.187-.646 1.017 0 1.941.287 2.772.862l-.616.878zm4.763 8.193h-1.416V75.67h1.416v4.096h4.697V75.67h1.433v9.748h-1.433v-4.466h-4.697v4.466zm12.55.185c-1.447 0-2.561-.57-3.342-1.71-.616-.903-.924-2.002-.924-3.295 0-1.52.406-2.762 1.217-3.727.77-.924 1.786-1.386 3.049-1.386 1.438 0 2.551.59 3.342 1.771.616.924.924 2.038.924 3.342 0 1.509-.406 2.73-1.217 3.665-.77.893-1.786 1.34-3.049 1.34zm0-1.232c.955 0 1.674-.395 2.156-1.186.401-.657.601-1.52.601-2.587 0-1.242-.262-2.213-.786-2.91-.482-.648-1.139-.971-1.971-.971-.944 0-1.663.416-2.156 1.247-.4.678-.6 1.556-.6 2.634 0 1.232.261 2.181.785 2.849.483.616 1.14.924 1.971.924zm6.427 1.047v-9.733c.903-.133 1.735-.2 2.494-.2 2.362 0 3.542.996 3.542 2.988 0 1.078-.359 1.894-1.078 2.448-.585.452-1.334.678-2.248.678-.441 0-.868-.036-1.278-.108v3.927h-1.432zm1.432-8.686v3.604c.41.072.837.108 1.278.108 1.211 0 1.817-.657 1.817-1.971 0-1.232-.652-1.848-1.956-1.848-.472 0-.852.035-1.139.107zm11.569.493c-.698-.349-1.402-.523-2.11-.523-.503 0-.914.118-1.232.354-.318.226-.478.518-.478.878 0 .646.427 1.129 1.279 1.447 1.273.472 2.176.97 2.71 1.494.534.513.801 1.15.801 1.91 0 .924-.354 1.647-1.063 2.171-.575.431-1.288.647-2.14.647-1.017 0-2.074-.35-3.173-1.047l.616-.878c.688.42 1.489.631 2.403.631 1.252 0 1.878-.529 1.878-1.586 0-.821-.528-1.412-1.586-1.771-1.109-.38-1.914-.8-2.418-1.263-.492-.462-.739-1.021-.739-1.678 0-.78.303-1.407.909-1.88.554-.43 1.283-.646 2.187-.646 1.016 0 1.94.287 2.772.862l-.616.878z" fill="#3D4E76"/>
            <path d="M256.7 54.138h-4.74v-3h4.74v-5.34h3.51v5.34h4.77v3h-4.77v5.28h-3.51v-5.28zm16.051-3.21h-2.85v-3.18h2.85c.8 0 1.35-.11 1.65-.33.46-.34.69-.95.69-1.83 0-.68-.2-1.22-.6-1.62-.4-.42-.94-.63-1.62-.63-1.22 0-2.49.56-3.81 1.68l-1.44-2.52c1.66-1.62 3.54-2.43 5.64-2.43 1.76 0 3.2.49 4.32 1.47 1.08.96 1.62 2.2 1.62 3.72 0 1.88-.78 3.14-2.34 3.78 2.02.78 3.03 2.28 3.03 4.5 0 2.34-.8 4.04-2.4 5.1-1.12.74-2.52 1.11-4.2 1.11-.92 0-1.97-.24-3.15-.72-1.16-.5-2.11-1.1-2.85-1.8l1.59-2.37c1.08.98 2.46 1.47 4.14 1.47.86 0 1.54-.24 2.04-.72.5-.5.75-1.17.75-2.01 0-1.78-1.02-2.67-3.06-2.67zm20.818-7.35h-6.63v3.84c.24-.1.57-.15.99-.15 2.2 0 3.91.55 5.13 1.65 1.16 1.06 1.74 2.51 1.74 4.35 0 1.94-.72 3.55-2.16 4.83-1.26 1.12-2.79 1.68-4.59 1.68-2.4 0-4.49-.87-6.27-2.61l1.62-2.49c1.46 1.1 2.87 1.65 4.23 1.65 2.1 0 3.15-.94 3.15-2.82 0-2.1-1.35-3.15-4.05-3.15-.94 0-2.17.17-3.69.51v-10.44h10.53v3.15zm10.772-3.51c2.32 0 4.18 1.11 5.58 3.33 1.18 1.84 1.77 4.03 1.77 6.57 0 3.06-.75 5.51-2.25 7.35-1.32 1.64-3.02 2.46-5.1 2.46-2.38 0-4.24-1.06-5.58-3.18-1.12-1.76-1.68-3.97-1.68-6.63 0-2.96.74-5.39 2.22-7.29 1.34-1.74 3.02-2.61 5.04-2.61zm.06 3.36c-2.16 0-3.24 2.12-3.24 6.36 0 2.14.31 3.82.93 5.04.56 1.1 1.3 1.65 2.22 1.65 1.02 0 1.82-.59 2.4-1.77.6-1.2.9-2.84.9-4.92 0-4.24-1.07-6.36-3.21-6.36z" fill="url(#h1kllex47d)"/>
            <path d="M89.803 196.364v10.128H88.33v-10.128h1.472zm3.975 3.584h.08c.544-.608 1.301-.912 2.272-.912 1.781 0 2.672 1.046 2.672 3.136v4.32h-1.376v-4.24c0-1.354-.597-2.032-1.792-2.032-.33 0-.667.08-1.008.24-.341.16-.592.352-.752.576v5.456h-1.376v-7.264h1.152l.128.72zm13.829-3.584h1.408l3.664 10.128h-1.52l-.768-2.288h-4.144l-.784 2.288h-1.52l3.664-10.128zm.704 1.792-1.648 4.816h3.296l-1.648-4.816zm7.139 1.792h.08c.544-.608 1.296-.912 2.256-.912 1.205 0 1.989.432 2.352 1.296.619-.864 1.499-1.296 2.64-1.296 1.749 0 2.624 1.035 2.624 3.104v4.352h-1.376v-4.048c0-.8-.144-1.37-.432-1.712-.277-.341-.747-.512-1.408-.512-.661 0-1.264.294-1.808.88.064.299.096.646.096 1.04v4.352h-1.376v-4.16c0-.736-.149-1.269-.448-1.6-.288-.341-.757-.512-1.408-.512-.309 0-.629.08-.96.24-.331.16-.576.352-.736.576v5.456h-1.376v-7.264h1.152l.128.72zm13.641 0h.08c.544-.608 1.296-.912 2.256-.912 1.205 0 1.989.432 2.352 1.296.618-.864 1.498-1.296 2.64-1.296 1.749 0 2.624 1.035 2.624 3.104v4.352h-1.376v-4.048c0-.8-.144-1.37-.432-1.712-.278-.341-.747-.512-1.408-.512-.662 0-1.264.294-1.808.88.064.299.096.646.096 1.04v4.352h-1.376v-4.16c0-.736-.15-1.269-.448-1.6-.288-.341-.758-.512-1.408-.512-.31 0-.63.08-.96.24-.331.16-.576.352-.736.576v5.456h-1.376v-7.264h1.152l.128.72zm17.864 6.544h-1.072l-.16-.752c-.576.63-1.355.944-2.336.944-.747 0-1.339-.202-1.776-.608-.427-.416-.64-.976-.64-1.68 0-.8.325-1.413.976-1.84.661-.437 1.595-.656 2.8-.656h.848v-.08c0-1.109-.56-1.664-1.68-1.664-.715 0-1.381.23-2 .688l-.416-.736c.832-.714 1.787-1.072 2.864-1.072 1.728 0 2.592 1.03 2.592 3.088v4.368zm-1.376-3.664h-.704c-1.643 0-2.464.491-2.464 1.472 0 .406.117.726.352.96.245.235.571.352.976.352s.784-.101 1.136-.304c.352-.213.587-.48.704-.8v-1.68zm5.074-2.88h.08c.544-.608 1.301-.912 2.272-.912 1.781 0 2.672 1.046 2.672 3.136v4.32h-1.376v-4.24c0-1.354-.597-2.032-1.792-2.032-.331 0-.667.08-1.008.24-.341.16-.592.352-.752.576v5.456h-1.376v-7.264h1.152l.128.72zm7.375 8.192-.32-.624c.416-.266.624-.565.624-.896v-.064a.311.311 0 0 1-.144.032.634.634 0 0 1-.48-.224.869.869 0 0 1-.192-.56c0-.245.08-.448.24-.608a.781.781 0 0 1 .592-.256c.64 0 .96.448.96 1.344 0 .416-.118.795-.352 1.136a1.868 1.868 0 0 1-.928.72zm12.123-10.16c-.726-.362-1.456-.544-2.192-.544-.523 0-.95.123-1.28.368-.331.235-.496.539-.496.912 0 .672.442 1.174 1.328 1.504 1.322.491 2.261 1.008 2.816 1.552.554.534.832 1.195.832 1.984 0 .96-.368 1.712-1.104 2.256-.598.448-1.339.672-2.224.672-1.056 0-2.155-.362-3.296-1.088l.64-.912c.714.438 1.546.656 2.496.656 1.301 0 1.952-.549 1.952-1.648 0-.853-.55-1.466-1.648-1.84-1.152-.394-1.99-.832-2.512-1.312-.512-.48-.768-1.061-.768-1.744 0-.81.314-1.461.944-1.952.576-.448 1.333-.672 2.272-.672 1.056 0 2.016.299 2.88.896l-.64.912zm8.789 8.512h-1.072l-.16-.752c-.576.63-1.355.944-2.336.944-.747 0-1.339-.202-1.776-.608-.427-.416-.64-.976-.64-1.68 0-.8.325-1.413.976-1.84.661-.437 1.594-.656 2.8-.656h.848v-.08c0-1.109-.56-1.664-1.68-1.664-.715 0-1.382.23-2 .688l-.416-.736c.832-.714 1.786-1.072 2.864-1.072 1.728 0 2.592 1.03 2.592 3.088v4.368zm-1.376-3.664h-.704c-1.643 0-2.464.491-2.464 1.472 0 .406.117.726.352.96.245.235.57.352.976.352.405 0 .784-.101 1.136-.304.352-.213.586-.48.704-.8v-1.68zm5.169-6.656v10.32h-1.376v-9.584l1.376-.736zm4.387 4.176-.016 4.224c0 .704.267 1.056.8 1.056.374 0 .742-.106 1.104-.32l.48.736c-.586.438-1.221.656-1.904.656-1.237 0-1.856-.677-1.856-2.032v-4.32h-1.072v-1.12h1.088v-1.488l1.376-.72v2.208h2.176v1.12h-2.176zm4.22 7.792-.32-.624c.416-.266.624-.565.624-.896v-.064a.305.305 0 0 1-.144.032.637.637 0 0 1-.48-.224.869.869 0 0 1-.192-.56c0-.245.08-.448.24-.608a.783.783 0 0 1 .592-.256c.64 0 .96.448.96 1.344 0 .416-.117.795-.352 1.136a1.864 1.864 0 0 1-.928.72zm12.827-10.48a120.335 120.335 0 0 0-4.064 6.256c-.469.768-.757 1.216-.864 1.344h5.04v1.232h-6.848v-1.136c1.067-1.536 2.39-3.552 3.968-6.048.651-1.034 1.024-1.605 1.12-1.712h-4.944v-1.232h6.592v1.296zm7.257 8.832h-1.072l-.16-.752c-.576.63-1.355.944-2.336.944-.747 0-1.339-.202-1.776-.608-.427-.416-.64-.976-.64-1.68 0-.8.325-1.413.976-1.84.661-.437 1.595-.656 2.8-.656h.848v-.08c0-1.109-.56-1.664-1.68-1.664-.715 0-1.381.23-2 .688l-.416-.736c.832-.714 1.787-1.072 2.864-1.072 1.728 0 2.592 1.03 2.592 3.088v4.368zm-1.376-3.664h-.704c-1.643 0-2.464.491-2.464 1.472 0 .406.117.726.352.96.245.235.571.352.976.352s.784-.101 1.136-.304c.352-.213.587-.48.704-.8v-1.68zm5.106-2.88h.064c.501-.608 1.088-.912 1.76-.912.853 0 1.482.331 1.888.992l-1.152.72c-.352-.352-.736-.528-1.152-.528-.534 0-.982.272-1.344.816v5.456h-1.376v-7.264h1.184l.128.72zm10.107-.72h1.072v10.128h-1.376v-3.632c-.48.64-1.168.96-2.064.96-1.077 0-1.925-.394-2.544-1.184-.523-.661-.784-1.493-.784-2.496 0-1.322.384-2.346 1.152-3.072.619-.597 1.371-.896 2.256-.896.427 0 .848.096 1.264.288.416.182.704.4.864.656l.16-.752zm-.304 4.976v-2.88c-.075-.33-.288-.618-.64-.864a1.856 1.856 0 0 0-1.104-.368c-.651 0-1.179.256-1.584.768s-.608 1.174-.608 1.984c0 .928.213 1.638.64 2.128.373.427.853.64 1.44.64.405 0 .784-.133 1.136-.4.363-.277.603-.613.72-1.008zm9.373 2.288h-1.072l-.16-.752c-.576.63-1.355.944-2.336.944-.747 0-1.339-.202-1.776-.608-.427-.416-.64-.976-.64-1.68 0-.8.325-1.413.976-1.84.661-.437 1.595-.656 2.8-.656h.848v-.08c0-1.109-.56-1.664-1.68-1.664-.715 0-1.381.23-2 .688l-.416-.736c.832-.714 1.787-1.072 2.864-1.072 1.728 0 2.592 1.03 2.592 3.088v4.368zm-1.376-3.664h-.704c-1.643 0-2.464.491-2.464 1.472 0 .406.117.726.352.96.245.235.571.352.976.352s.784-.101 1.136-.304c.352-.213.587-.48.704-.8v-1.68zm3.73 5.312-.32-.624c.416-.266.624-.565.624-.896v-.064a.311.311 0 0 1-.144.032.637.637 0 0 1-.48-.224.869.869 0 0 1-.192-.56c0-.245.08-.448.24-.608a.781.781 0 0 1 .592-.256c.64 0 .96.448.96 1.344 0 .416-.117.795-.352 1.136a1.868 1.868 0 0 1-.928.72zm7.147-2.416v-.032c.021-.533.304-.8.848-.8.565 0 .848.278.848.832 0 .566-.283.848-.848.848s-.848-.282-.848-.848zm4.578 0v-.032c.021-.533.304-.8.848-.8.565 0 .848.278.848.832 0 .566-.283.848-.848.848s-.848-.282-.848-.848zm4.578 0v-.032c.022-.533.304-.8.848-.8.566 0 .848.278.848.832 0 .566-.282.848-.848.848-.565 0-.848-.282-.848-.848z" fill="#3D4E76"/>
            <path d="M665.574-142.726a150.447 150.447 0 0 1 60.649-12.717c86.175 0 156.037 72.473 156.037 161.867 0 89.398-69.862 161.867-156.037 161.867-57.753 0-108.064-32.635-135.046-81.018-41.362 49.541-102.308 81.018-170.447 81.018-47.464 0-91.45-15.273-127.787-41.243-30.912 25.754-70.112 41.243-112.855 41.243-99.67 0-180.476-83.818-180.476-187.215 0-103.405 80.807-187.223 180.476-187.223 18.904 0 37.122 3.043 54.243 8.631 40.621-61.706 108.935-102.242 186.399-102.242 48.848 0 94.022 16.13 130.898 43.529" stroke="url(#yckvlcdixe)" stroke-width="1.935" stroke-linecap="round" stroke-linejoin="round"/>
        </g>
    </g>
    <defs>
        <linearGradient id="h1kllex47d" x1="251.001" y1="65.418" x2="313" y2="65.418" gradientUnits="userSpaceOnUse">
            <stop stop-color="#FDBC11"/>
            <stop offset="1" stop-color="#F6931D"/>
        </linearGradient>
        <linearGradient id="yckvlcdixe" x1="862.099" y1="-98.102" x2="53.727" y2="-160.035" gradientUnits="userSpaceOnUse">
            <stop stop-color="#1C6FC4"/>
            <stop offset="1" stop-color="#01B8B6"/>
        </linearGradient>
        <clipPath id="fchlbvoc8a">
            <path fill="#fff" transform="translate(0 .492)" d="M0 0h343v231.492H0z"/>
        </clipPath>
        <clipPath id="panbmnlqdc">
            <path fill="#fff" transform="translate(121.118 36.779)" d="M0 0h85v14.468H0z"/>
        </clipPath>
    </defs>
</svg>
