<svg width="190" height="340" viewBox="0 0 190 340" fill="none" xmlns="http://www.w3.org/2000/svg">
    <rect x=".5" y=".5" width="189" height="339" rx="3.5" fill="#fff" stroke="#EDEDED"/>
    <g clip-path="url(#0d1zjckmaa)">
        <path d="M61.453 208.762c.67 2.619 1.21 4.696 1.624 6.232l1.197-6.232h1.993l-2.318 9.347h-1.595l-1.92-6.527-1.934 6.527h-1.61l-2.26-9.347h1.98l1.166 6.232c.709-2.58 1.265-4.657 1.669-6.232h2.008zm9.715-.177c1.437 0 2.544.571 3.322 1.713.61.896.916 1.978.916 3.248 0 1.457-.4 2.624-1.197 3.5-.758.827-1.772 1.241-3.041 1.241-1.458 0-2.565-.532-3.323-1.595-.61-.837-.916-1.885-.916-3.146 0-1.476.399-2.682 1.197-3.618.757-.895 1.771-1.343 3.041-1.343zm0 8.077c.708 0 1.255-.266 1.639-.797.384-.542.575-1.314.575-2.319 0-1.073-.211-1.909-.634-2.51-.394-.532-.92-.797-1.58-.797-.71 0-1.26.29-1.654.871-.384.581-.576 1.393-.576 2.436 0 2.078.743 3.116 2.23 3.116zm6.014 1.447v-9.332c.138-.03.527-.069 1.167-.118.64-.05 1.127-.074 1.462-.074 2.382 0 3.573.974 3.573 2.924 0 1.053-.428 1.949-1.284 2.687.354.817.96 2.122 1.816 3.913h-1.95a872.65 872.65 0 0 0-1.565-3.396c-.108.02-.256.03-.443.03-.433 0-.713-.04-.841-.119v3.485h-1.935zm1.934-7.87v2.82c.296.089.616.133.96.133.847 0 1.27-.561 1.27-1.683 0-.916-.438-1.374-1.314-1.374-.502 0-.807.035-.915.104zm7.656-1.477v3.854c1.3-1.762 2.244-3.047 2.835-3.854h2.377a2083.896 2083.896 0 0 1-3.366 4.4 428.434 428.434 0 0 1 4.06 4.947H90.11c-.906-1.21-2.003-2.667-3.293-4.371h-.044v4.371H84.94v-9.347h1.832zm12.754.768c-.177.266-.453.664-.827 1.196-.788-.345-1.492-.517-2.112-.517-.817 0-1.225.305-1.225.916 0 .275.093.492.28.649.187.158.576.35 1.167.576 1.063.414 1.826.862 2.289 1.344a2.4 2.4 0 0 1 .709 1.743c0 .955-.36 1.693-1.079 2.215-.59.423-1.324.635-2.2.635-1.033 0-2.136-.374-3.308-1.123l.857-1.196c.57.384 1.304.576 2.2.576 1.014 0 1.521-.408 1.521-1.226 0-.531-.546-.984-1.639-1.358-1.762-.591-2.643-1.536-2.643-2.835 0-.788.295-1.413.886-1.876.551-.443 1.284-.664 2.2-.664 1.044 0 2.018.315 2.924.945zm4.033 8.579h-1.905v-9.347h1.905v3.751h4.017v-3.751h1.934v9.347h-1.934v-4.046h-4.017v4.046zm11.967-9.524c1.438 0 2.545.571 3.323 1.713.61.896.915 1.978.915 3.248 0 1.457-.398 2.624-1.196 3.5-.758.827-1.772 1.241-3.042 1.241-1.457 0-2.564-.532-3.322-1.595-.611-.837-.916-1.885-.916-3.146 0-1.476.399-2.682 1.196-3.618.758-.895 1.772-1.343 3.042-1.343zm0 8.077c.709 0 1.255-.266 1.639-.797.384-.542.576-1.314.576-2.319 0-1.073-.211-1.909-.635-2.51-.393-.532-.92-.797-1.58-.797-.709 0-1.26.29-1.654.871-.384.581-.576 1.393-.576 2.436 0 2.078.744 3.116 2.23 3.116zm6.015 1.447v-9.332c.138-.03.527-.069 1.166-.118.64-.05 1.128-.074 1.462-.074 2.383 0 3.574.974 3.574 2.924 0 1.21-.413 2.096-1.24 2.658-.552.384-1.201.576-1.95.576-.59 0-.95-.04-1.078-.119v3.485h-1.934zm1.934-7.87v2.82c.256.099.576.148.96.148.394 0 .704-.138.931-.414.226-.285.339-.674.339-1.166 0-.995-.438-1.492-1.314-1.492-.502 0-.807.035-.916.104zm11.829-.709a63.66 63.66 0 0 1-.827 1.196c-.787-.345-1.491-.517-2.111-.517-.817 0-1.226.305-1.226.916 0 .275.094.492.281.649.187.158.575.35 1.166.576 1.063.414 1.826.862 2.289 1.344.473.482.709 1.063.709 1.743 0 .955-.359 1.693-1.078 2.215-.591.423-1.324.635-2.2.635-1.034 0-2.137-.374-3.308-1.123l.856-1.196c.571.384 1.305.576 2.201.576 1.014 0 1.521-.408 1.521-1.226 0-.531-.547-.984-1.64-1.358-1.762-.591-2.643-1.536-2.643-2.835 0-.788.295-1.413.886-1.876.551-.443 1.285-.664 2.2-.664 1.044 0 2.019.315 2.924.945z" fill="#01B8B6"/>
    </g>
    <path d="M141.588 197.04H44M44 191h102.1v37.416H44v-31.111M50.743 233.66v89.92M57.71 233.66v89.92" stroke="#3D4E76" stroke-width="1.185" stroke-linecap="round" stroke-linejoin="round"/>
    <path clip-rule="evenodd" d="M90.01 277.755a2.095 2.095 0 1 1-4.191 0 2.095 2.095 0 0 1 4.19 0zM107.872 277.755a2.095 2.095 0 1 1-4.19 0 2.095 2.095 0 0 1 4.19 0z" stroke="#3D4E76" stroke-width=".79" stroke-linecap="round" stroke-linejoin="round"/>
    <path clip-rule="evenodd" d="M82.621 289.799h6.043v-5.757H82.62v5.757zM104.542 289.799h6.043v-5.757h-6.043v5.757zM109.955 270.392v-2.38c0-5.84-3.277-10.618-9.116-10.618h-7.885c-5.838 0-9.115 4.778-9.115 10.618v2.38a.94.94 0 0 1-.459.807 3.755 3.755 0 0 0-1.843 3.225v9.573h30.72v-9.573a3.754 3.754 0 0 0-1.844-3.225.94.94 0 0 1-.458-.807z" stroke="#3D4E76" stroke-width="1.185" stroke-linecap="round" stroke-linejoin="round"/>
    <path d="M90.538 270.277h13.012M133.835 233.66v89.92M120.184 274.568l.227 49.067M73.198 274.568l.227 49.067M76.555 293.362h40.273M140.803 233.66v89.92" stroke="#3D4E76" stroke-width="1.185" stroke-linecap="round" stroke-linejoin="round"/>
    <path d="M71.959 33.072h-4.424v-2.8h4.424v-4.984h3.276v4.984h4.452v2.8h-4.452V38h-3.276v-4.928zm14.981-2.996h-2.66v-2.968h2.66c.747 0 1.26-.103 1.54-.308.43-.317.644-.887.644-1.708 0-.635-.187-1.139-.56-1.512-.373-.392-.877-.588-1.512-.588-1.139 0-2.324.523-3.556 1.568l-1.344-2.352c1.55-1.512 3.304-2.268 5.264-2.268 1.643 0 2.987.457 4.032 1.372 1.008.896 1.512 2.053 1.512 3.472 0 1.755-.728 2.93-2.184 3.528 1.885.728 2.828 2.128 2.828 4.2 0 2.184-.747 3.77-2.24 4.76-1.045.69-2.352 1.036-3.92 1.036-.859 0-1.839-.224-2.94-.672-1.083-.467-1.97-1.027-2.66-1.68l1.484-2.212c1.008.915 2.296 1.372 3.864 1.372.803 0 1.437-.224 1.904-.672.467-.467.7-1.092.7-1.876 0-1.661-.952-2.492-2.856-2.492zm19.43-6.86h-6.188V26.8c.224-.093.532-.14.924-.14 2.053 0 3.649.513 4.788 1.54 1.083.99 1.624 2.343 1.624 4.06 0 1.81-.672 3.313-2.016 4.508-1.176 1.045-2.604 1.568-4.284 1.568-2.24 0-4.19-.812-5.852-2.436l1.512-2.324c1.363 1.027 2.679 1.54 3.948 1.54 1.96 0 2.94-.877 2.94-2.632 0-1.96-1.26-2.94-3.78-2.94-.877 0-2.025.159-3.444.476v-9.744h9.828v2.94zm10.054-3.276c2.165 0 3.901 1.036 5.208 3.108 1.101 1.717 1.652 3.761 1.652 6.132 0 2.856-.7 5.143-2.1 6.86-1.232 1.53-2.819 2.296-4.76 2.296-2.221 0-3.957-.99-5.208-2.968-1.045-1.643-1.568-3.705-1.568-6.188 0-2.763.691-5.03 2.072-6.804 1.251-1.624 2.819-2.436 4.704-2.436zm.056 3.136c-2.016 0-3.024 1.979-3.024 5.936 0 1.997.289 3.565.868 4.704.523 1.027 1.213 1.54 2.072 1.54.952 0 1.699-.55 2.24-1.652.56-1.12.84-2.65.84-4.592 0-3.957-.999-5.936-2.996-5.936z" fill="url(#apckhi13qb)"/>
    <path d="M53.616 91.606a650.649 650.649 0 0 0 1.98 7.596l1.458-7.596h2.43L56.658 103h-1.944l-2.34-7.956L50.016 103h-1.962L45.3 91.606h2.412l1.422 7.596a475.097 475.097 0 0 0 2.034-7.596h2.448zm11.841-.216c1.752 0 3.102.696 4.05 2.088.744 1.092 1.116 2.412 1.116 3.96 0 1.776-.486 3.198-1.458 4.266-.924 1.008-2.16 1.512-3.708 1.512-1.776 0-3.126-.648-4.05-1.944-.744-1.02-1.116-2.298-1.116-3.834 0-1.8.486-3.27 1.458-4.41.924-1.092 2.16-1.638 3.708-1.638zm0 9.846c.864 0 1.53-.324 1.998-.972.468-.66.702-1.602.702-2.826 0-1.308-.258-2.328-.774-3.06-.48-.648-1.122-.972-1.926-.972-.864 0-1.536.354-2.016 1.062-.468.708-.702 1.698-.702 2.97 0 2.532.906 3.798 2.718 3.798zM72.79 103V91.624c.168-.036.642-.084 1.422-.144.78-.06 1.374-.09 1.782-.09 2.904 0 4.356 1.188 4.356 3.564 0 1.284-.522 2.376-1.566 3.276.432.996 1.17 2.586 2.214 4.77H78.62c-.588-1.284-1.224-2.664-1.908-4.14a3.17 3.17 0 0 1-.54.036c-.528 0-.87-.048-1.026-.144V103h-2.358zm2.358-9.594v3.438c.36.108.75.162 1.17.162 1.032 0 1.548-.684 1.548-2.052 0-1.116-.534-1.674-1.602-1.674-.612 0-.984.042-1.116.126zm9.33-1.8v4.698c1.585-2.148 2.737-3.714 3.457-4.698h2.898c-1.236 1.62-2.604 3.408-4.104 5.364a515.621 515.621 0 0 1 4.95 6.03h-3.132a1154.19 1154.19 0 0 0-4.014-5.328h-.054V103h-2.232V91.606h2.232zm15.547.936c-.216.324-.552.81-1.008 1.458-.96-.42-1.818-.63-2.574-.63-.996 0-1.494.372-1.494 1.116 0 .336.114.6.342.792.228.192.702.426 1.422.702 1.296.504 2.226 1.05 2.79 1.638.576.588.864 1.296.864 2.124 0 1.164-.438 2.064-1.314 2.7-.72.516-1.614.774-2.682.774-1.26 0-2.604-.456-4.032-1.368l1.044-1.458c.696.468 1.59.702 2.682.702 1.236 0 1.854-.498 1.854-1.494 0-.648-.666-1.2-1.998-1.656-2.148-.72-3.222-1.872-3.222-3.456 0-.96.36-1.722 1.08-2.286.672-.54 1.566-.81 2.682-.81 1.272 0 2.46.384 3.564 1.152zM104.941 103h-2.322V91.606h2.322v4.572h4.896v-4.572h2.358V103h-2.358v-4.932h-4.896V103zm14.587-11.61c1.752 0 3.102.696 4.05 2.088.744 1.092 1.116 2.412 1.116 3.96 0 1.776-.486 3.198-1.458 4.266-.924 1.008-2.16 1.512-3.708 1.512-1.776 0-3.126-.648-4.05-1.944-.744-1.02-1.116-2.298-1.116-3.834 0-1.8.486-3.27 1.458-4.41.924-1.092 2.16-1.638 3.708-1.638zm0 9.846c.864 0 1.53-.324 1.998-.972.468-.66.702-1.602.702-2.826 0-1.308-.258-2.328-.774-3.06-.48-.648-1.122-.972-1.926-.972-.864 0-1.536.354-2.016 1.062-.468.708-.702 1.698-.702 2.97 0 2.532.906 3.798 2.718 3.798zm7.331 1.764V91.624c.168-.036.642-.084 1.422-.144.78-.06 1.374-.09 1.782-.09 2.904 0 4.356 1.188 4.356 3.564 0 1.476-.504 2.556-1.512 3.24-.672.468-1.464.702-2.376.702-.72 0-1.158-.048-1.314-.144V103h-2.358zm2.358-9.594v3.438c.312.12.702.18 1.17.18.48 0 .858-.168 1.134-.504.276-.348.414-.822.414-1.422 0-1.212-.534-1.818-1.602-1.818-.612 0-.984.042-1.116.126zm14.419-.864c-.216.324-.552.81-1.008 1.458-.96-.42-1.818-.63-2.574-.63-.996 0-1.494.372-1.494 1.116 0 .336.114.6.342.792.228.192.702.426 1.422.702 1.296.504 2.226 1.05 2.79 1.638.576.588.864 1.296.864 2.124 0 1.164-.438 2.064-1.314 2.7-.72.516-1.614.774-2.682.774-1.26 0-2.604-.456-4.032-1.368l1.044-1.458c.696.468 1.59.702 2.682.702 1.236 0 1.854-.498 1.854-1.494 0-.648-.666-1.2-1.998-1.656-2.148-.72-3.222-1.872-3.222-3.456 0-.96.36-1.722 1.08-2.286.672-.54 1.566-.81 2.682-.81 1.272 0 2.46.384 3.564 1.152zM18.909 146.505V156h-1.38v-9.495h1.38zm3.727 3.36h.075c.51-.57 1.22-.855 2.13-.855 1.67 0 2.505.98 2.505 2.94V156h-1.29v-3.975c0-1.27-.56-1.905-1.68-1.905-.31 0-.625.075-.945.225-.32.15-.555.33-.705.54V156h-1.29v-6.81h1.08l.12.675zm12.964-3.36h1.32L40.355 156H38.93l-.72-2.145h-3.885L33.59 156h-1.425l3.435-9.495zm.66 1.68-1.545 4.515h3.09l-1.545-4.515zm6.693 1.68h.075c.51-.57 1.215-.855 2.115-.855 1.13 0 1.865.405 2.205 1.215.58-.81 1.405-1.215 2.475-1.215 1.64 0 2.46.97 2.46 2.91V156h-1.29v-3.795c0-.75-.135-1.285-.405-1.605-.26-.32-.7-.48-1.32-.48-.62 0-1.185.275-1.695.825.06.28.09.605.09.975V156h-1.29v-3.9c0-.69-.14-1.19-.42-1.5-.27-.32-.71-.48-1.32-.48-.29 0-.59.075-.9.225-.31.15-.54.33-.69.54V156h-1.29v-6.81h1.08l.12.675zm12.788 0h.075c.51-.57 1.215-.855 2.115-.855 1.13 0 1.865.405 2.205 1.215.58-.81 1.405-1.215 2.475-1.215 1.64 0 2.46.97 2.46 2.91V156h-1.29v-3.795c0-.75-.135-1.285-.405-1.605-.26-.32-.7-.48-1.32-.48-.62 0-1.185.275-1.695.825.06.28.09.605.09.975V156h-1.29v-3.9c0-.69-.14-1.19-.42-1.5-.27-.32-.71-.48-1.32-.48-.29 0-.59.075-.9.225-.31.15-.54.33-.69.54V156h-1.29v-6.81h1.08l.12.675zM72.49 156h-1.005l-.15-.705c-.54.59-1.27.885-2.19.885-.7 0-1.255-.19-1.665-.57-.4-.39-.6-.915-.6-1.575 0-.75.305-1.325.915-1.725.62-.41 1.495-.615 2.625-.615h.795v-.075c0-1.04-.525-1.56-1.575-1.56-.67 0-1.295.215-1.875.645l-.39-.69c.78-.67 1.675-1.005 2.685-1.005 1.62 0 2.43.965 2.43 2.895V156zm-1.29-3.435h-.66c-1.54 0-2.31.46-2.31 1.38 0 .38.11.68.33.9.23.22.535.33.915.33s.735-.095 1.065-.285c.33-.2.55-.45.66-.75v-1.575zm4.757-2.7h.075c.51-.57 1.22-.855 2.13-.855 1.67 0 2.505.98 2.505 2.94V156h-1.29v-3.975c0-1.27-.56-1.905-1.68-1.905-.31 0-.625.075-.945.225-.32.15-.555.33-.705.54V156h-1.29v-6.81h1.08l.12.675zm6.914 7.68-.3-.585c.39-.25.585-.53.585-.84v-.06a.298.298 0 0 1-.135.03c-.17 0-.32-.07-.45-.21a.816.816 0 0 1-.18-.525c0-.23.075-.42.225-.57a.73.73 0 0 1 .555-.24c.6 0 .9.42.9 1.26 0 .39-.11.745-.33 1.065-.22.32-.51.545-.87.675zm11.365-9.525c-.68-.34-1.365-.51-2.055-.51-.49 0-.89.115-1.2.345-.31.22-.465.505-.465.855 0 .63.415 1.1 1.245 1.41 1.24.46 2.12.945 2.64 1.455.52.5.78 1.12.78 1.86 0 .9-.345 1.605-1.035 2.115-.56.42-1.255.63-2.085.63-.99 0-2.02-.34-3.09-1.02l.6-.855c.67.41 1.45.615 2.34.615 1.22 0 1.83-.515 1.83-1.545 0-.8-.515-1.375-1.545-1.725-1.08-.37-1.865-.78-2.355-1.23-.48-.45-.72-.995-.72-1.635 0-.76.295-1.37.885-1.83.54-.42 1.25-.63 2.13-.63.99 0 1.89.28 2.7.84l-.6.855zm8.24 7.98h-1.005l-.15-.705c-.54.59-1.27.885-2.19.885-.7 0-1.255-.19-1.665-.57-.4-.39-.6-.915-.6-1.575 0-.75.305-1.325.915-1.725.62-.41 1.495-.615 2.625-.615h.795v-.075c0-1.04-.525-1.56-1.576-1.56-.67 0-1.294.215-1.874.645l-.39-.69c.78-.67 1.674-1.005 2.685-1.005 1.62 0 2.43.965 2.43 2.895V156zm-1.29-3.435h-.66c-1.54 0-2.31.46-2.31 1.38 0 .38.11.68.33.9.23.22.534.33.915.33a2.1 2.1 0 0 0 1.065-.285c.33-.2.55-.45.66-.75v-1.575zm4.846-6.24V156h-1.29v-8.985l1.29-.69zm4.113 3.915-.015 3.96c0 .66.25.99.75.99.35 0 .695-.1 1.035-.3l.45.69c-.55.41-1.145.615-1.785.615-1.16 0-1.74-.635-1.74-1.905v-4.05h-1.005v-1.05h1.02v-1.395l1.29-.675v2.07h2.04v1.05h-2.04zm3.956 7.305-.3-.585c.39-.25.585-.53.585-.84v-.06a.298.298 0 0 1-.135.03c-.17 0-.32-.07-.45-.21a.816.816 0 0 1-.18-.525c0-.23.075-.42.225-.57a.73.73 0 0 1 .555-.24c.6 0 .9.42.9 1.26 0 .39-.11.745-.33 1.065-.22.32-.51.545-.87.675zm12.026-9.825a112.01 112.01 0 0 0-3.81 5.865c-.44.72-.71 1.14-.81 1.26h4.725V156h-6.42v-1.065c1-1.44 2.24-3.33 3.72-5.67.61-.97.96-1.505 1.05-1.605h-4.635v-1.155h6.18v1.215zm6.803 8.28h-1.005l-.15-.705c-.54.59-1.27.885-2.19.885-.7 0-1.255-.19-1.665-.57-.4-.39-.6-.915-.6-1.575 0-.75.305-1.325.915-1.725.62-.41 1.495-.615 2.625-.615h.795v-.075c0-1.04-.525-1.56-1.575-1.56-.67 0-1.295.215-1.875.645l-.39-.69c.78-.67 1.675-1.005 2.685-1.005 1.62 0 2.43.965 2.43 2.895V156zm-1.29-3.435h-.66c-1.54 0-2.31.46-2.31 1.38 0 .38.11.68.33.9.23.22.535.33.915.33s.735-.095 1.065-.285c.33-.2.55-.45.66-.75v-1.575zm4.786-2.7h.06c.47-.57 1.02-.855 1.65-.855.8 0 1.39.31 1.77.93l-1.08.675c-.33-.33-.69-.495-1.08-.495-.5 0-.92.255-1.26.765V156h-1.29v-6.81h1.11l.12.675zm9.476-.675h1.005v9.495h-1.29v-3.405c-.45.6-1.095.9-1.935.9-1.01 0-1.805-.37-2.385-1.11-.49-.62-.735-1.4-.735-2.34 0-1.24.36-2.2 1.08-2.88.58-.56 1.285-.84 2.115-.84.4 0 .795.09 1.185.27.39.17.66.375.81.615l.15-.705zm-.285 4.665v-2.7c-.07-.31-.27-.58-.6-.81a1.739 1.739 0 0 0-1.035-.345c-.61 0-1.105.24-1.485.72-.38.48-.57 1.1-.57 1.86 0 .87.2 1.535.6 1.995.35.4.8.6 1.35.6.38 0 .735-.125 1.065-.375.34-.26.565-.575.675-.945zm8.787 2.145h-1.005l-.15-.705c-.54.59-1.27.885-2.19.885-.7 0-1.255-.19-1.665-.57-.4-.39-.6-.915-.6-1.575 0-.75.305-1.325.915-1.725.62-.41 1.495-.615 2.625-.615h.795v-.075c0-1.04-.525-1.56-1.575-1.56-.67 0-1.295.215-1.875.645l-.39-.69c.78-.67 1.675-1.005 2.685-1.005 1.62 0 2.43.965 2.43 2.895V156zm-1.29-3.435h-.66c-1.54 0-2.31.46-2.31 1.38 0 .38.11.68.33.9.23.22.535.33.915.33s.735-.095 1.065-.285c.33-.2.55-.45.66-.75v-1.575zm3.497 4.98-.3-.585c.39-.25.585-.53.585-.84v-.06a.298.298 0 0 1-.135.03c-.17 0-.32-.07-.45-.21a.816.816 0 0 1-.18-.525c0-.23.075-.42.225-.57a.73.73 0 0 1 .555-.24c.6 0 .9.42.9 1.26 0 .39-.11.745-.33 1.065-.22.32-.51.545-.87.675zm6.7-2.265v-.03c.02-.5.285-.75.795-.75.53 0 .795.26.795.78 0 .53-.265.795-.795.795s-.795-.265-.795-.795zm4.292 0v-.03c.02-.5.285-.75.795-.75.53 0 .795.26.795.78 0 .53-.265.795-.795.795s-.795-.265-.795-.795zm4.292 0v-.03c.02-.5.285-.75.795-.75.53 0 .795.26.795.78 0 .53-.265.795-.795.795s-.795-.265-.795-.795z" fill="#3D4E76"/>
    <defs>
        <linearGradient id="apckhi13qb" x1="42.001" y1="65" x2="149" y2="65" gradientUnits="userSpaceOnUse">
            <stop stop-color="#FDBC11"/>
            <stop offset="1" stop-color="#F6931D"/>
        </linearGradient>
        <clipPath id="0d1zjckmaa">
            <path fill="#fff" transform="translate(54.404 207.109)" d="M0 0h81.89v14.767H0z"/>
        </clipPath>
    </defs>
</svg>
