<svg width="215" height="340" viewBox="0 0 215 340" fill="none" xmlns="http://www.w3.org/2000/svg">
    <rect x=".5" y=".5" width="214" height="339" rx="3.5" fill="#fff" stroke="#EDEDED"/>
    <path d="M153.588 197.04H56" stroke="#3D4E76" stroke-width="1.185" stroke-linecap="round" stroke-linejoin="round"/>
    <path d="M70.035 207.766c-.296 0-.532-.089-.71-.266-.176-.177-.265-.418-.265-.723 0-.64.325-.96.975-.96.295 0 .526.088.694.266.177.167.266.398.266.694 0 .659-.32.989-.96.989zm2.274 0c-.296 0-.532-.089-.71-.266-.176-.177-.265-.418-.265-.723 0-.64.325-.96.975-.96.295 0 .526.088.694.266.177.167.266.398.266.694 0 .659-.32.989-.96.989zm2.495 6.557h1.33v1.786h-1.507c-.915 0-1.624-.305-2.126-.915-.424.325-.94.487-1.55.487-.906 0-1.63-.339-2.172-1.019-.443-.561-.664-1.235-.664-2.023 0-.974.315-1.767.945-2.377.532-.512 1.147-.768 1.846-.768.364 0 .699.069 1.004.207v-.384l1.846-.975v4.917c0 .384.079.66.236.827.168.158.438.237.812.237zm-2.894-2.762a1.315 1.315 0 0 0-.871-.325.966.966 0 0 0-.798.399c-.197.266-.295.615-.295 1.048 0 .434.099.778.295 1.034.197.256.468.384.813.384.374 0 .664-.128.87-.384a3.308 3.308 0 0 1-.014-.369v-1.787zm6.674-3.5c-.295 0-.531-.088-.709-.265-.177-.178-.265-.419-.265-.724 0-.285.088-.517.266-.694.177-.177.413-.266.708-.266.296 0 .527.089.694.266.177.167.266.399.266.694 0 .66-.32.989-.96.989zm-3.337 8.048v-1.786h1.329c.374 0 .64-.079.797-.237.158-.167.237-.443.237-.827v-2.732l1.86-.974v3.795c0 .896-.275 1.595-.827 2.097-.482.443-1.112.664-1.89.664h-1.506zm9.594 0c-.896 0-1.59-.285-2.082-.856-.423-.492-.635-1.127-.635-1.905v-5.789l1.86-.974v6.674c0 .384.08.66.237.827.157.158.423.237.797.237h1.33v1.786H84.84zm5.873-1.786h1.329v1.786h-1.506c-.719 0-1.315-.192-1.787-.575-.472.383-1.068.575-1.787.575h-1.506v-1.786h1.329c.374 0 .64-.079.797-.237.158-.167.237-.443.237-.827v-2.732l1.86-.974v3.706c0 .384.08.66.237.827.157.158.423.237.797.237zm-3.825 3.13c.296 0 .527.084.694.251.178.177.266.414.266.709 0 .66-.32.989-.96.989-.295 0-.531-.088-.709-.265-.177-.178-.265-.419-.265-.724 0-.64.325-.96.974-.96zm2.275 0c.295 0 .526.084.694.251.177.177.265.414.265.709 0 .66-.32.989-.96.989-.295 0-.531-.088-.708-.265-.177-.178-.266-.419-.266-.724 0-.64.325-.96.975-.96zm6.966-3.145c.472-1.437 1.161-2.604 2.067-3.5 1.004-1.004 2.156-1.506 3.456-1.506 1.161 0 2.092.403 2.791 1.211.59.679.886 1.521.886 2.525v.325c0 .896-.281 1.595-.842 2.097-.483.433-1.108.649-1.876.649h-6.379c-.719 0-1.314-.192-1.787-.575-.472.383-1.068.575-1.787.575h-1.506v-1.786h1.33c.373 0 .64-.079.797-.237.157-.167.236-.443.236-.827v-1.949l1.86-.974v2.923c0 .63.252.98.754 1.049zm7.339-1.063v-.207c0-.591-.167-1.073-.502-1.447-.335-.374-.768-.561-1.3-.561-.768 0-1.486.295-2.156.886-.66.59-1.181 1.393-1.565 2.407h4.593c.354 0 .595-.074.723-.222.138-.157.207-.443.207-.856zm8.732-5.479c-.295 0-.531-.089-.708-.266-.178-.177-.266-.418-.266-.723 0-.64.325-.96.974-.96.296 0 .527.088.694.266.178.167.266.398.266.694 0 .659-.32.989-.96.989zm2.275 0c-.296 0-.532-.089-.709-.266-.177-.177-.266-.418-.266-.723 0-.64.325-.96.975-.96.295 0 .526.088.694.266.177.167.265.398.265.694 0 .659-.32.989-.959.989zm2.495 6.557h1.329v1.786h-1.506c-.916 0-1.624-.305-2.126-.915-.424.325-.941.487-1.551.487-.906 0-1.629-.339-2.171-1.019-.443-.561-.664-1.235-.664-2.023 0-.974.315-1.767.945-2.377.531-.512 1.147-.768 1.846-.768.364 0 .699.069 1.004.207v-.384l1.846-.975v4.917c0 .384.078.66.236.827.167.158.438.237.812.237zm-2.894-2.762a1.316 1.316 0 0 0-.871-.325.967.967 0 0 0-.798.399c-.197.266-.295.615-.295 1.048 0 .434.098.778.295 1.034.197.256.468.384.812.384.374 0 .665-.128.872-.384a3.248 3.248 0 0 1-.015-.369v-1.787zm11.724-5.478c-.59 0-.886-.301-.886-.901 0-.581.296-.871.886-.871.581 0 .872.29.872.871 0 .6-.291.901-.872.901zm-1.122 2.17c-.295 0-.531-.088-.709-.265-.177-.178-.265-.419-.265-.724 0-.286.088-.517.265-.694.178-.177.414-.266.709-.266s.527.089.694.266c.177.167.266.399.266.694 0 .66-.32.989-.96.989zm2.274 0c-.295 0-.531-.088-.709-.265-.177-.178-.265-.419-.265-.724 0-.286.088-.517.265-.694.178-.177.414-.266.709-.266.296 0 .527.089.694.266.178.167.266.399.266.694 0 .66-.32.989-.96.989zm-9.539 7.856v-1.786h1.565c.374 0 .64-.079.797-.237.168-.167.252-.443.252-.827v-1.949l1.86-.974v2.923c0 .384.079.66.236.827.158.158.424.237.798.237h1.004c.374 0 .64-.079.797-.237.158-.167.237-.443.237-.827v-2.333l1.86-.989v3.322c0 .384.079.66.237.827.167.158.438.237.812.237h1.004c.374 0 .64-.079.797-.237.158-.167.237-.443.237-.827v-2.732l1.86-.974v3.795c0 .876-.266 1.565-.797 2.067-.463.443-1.073.675-1.831.694h-1.462c-.729 0-1.324-.216-1.787-.649-.423.423-.984.64-1.683.649h-1.462c-.729 0-1.324-.216-1.787-.649-.463.433-1.058.649-1.787.649h-1.757zm19.673-.915c0 1.142-.315 2.067-.945 2.776-.581.66-1.349.989-2.304.989-.62 0-1.226-.157-1.816-.472v-1.624c.512.285 1.014.428 1.506.428.541 0 .96-.177 1.255-.532.305-.344.458-.827.458-1.447v-4.77l1.846-.989v5.641zm6 .487c-.305.059-.62.089-.945.089-.905 0-1.629-.34-2.17-1.019-.443-.571-.665-1.26-.665-2.068 0-1.082.295-1.934.886-2.554.522-.552 1.211-.827 2.067-.827.877 0 1.561.28 2.053.842.423.482.635 1.112.635 1.89v3.16c0 1.162-.305 2.077-.916 2.747-.571.63-1.348.945-2.333.945-.62 0-1.225-.168-1.816-.502v-1.61c.532.305 1.063.458 1.595.458.955 0 1.491-.517 1.609-1.551zm.015-3.677c0-.65-.28-.974-.842-.974a.982.982 0 0 0-.841.428c-.197.285-.296.674-.296 1.166 0 1.044.374 1.566 1.123 1.566.393 0 .679-.099.856-.296v-1.89z" fill="#01B8B6"/>
    <path d="M56 191h102.1v37.416H56v-31.111M62.743 233.66v89.92M69.71 233.66v89.92" stroke="#3D4E76" stroke-width="1.185" stroke-linecap="round" stroke-linejoin="round"/>
    <path clip-rule="evenodd" d="M102.009 277.755a2.095 2.095 0 1 1-4.19 0 2.095 2.095 0 0 1 4.19 0zM119.873 277.755a2.095 2.095 0 1 1-4.19 0 2.095 2.095 0 0 1 4.19 0z" stroke="#3D4E76" stroke-width=".79" stroke-linecap="round" stroke-linejoin="round"/>
    <path clip-rule="evenodd" d="M94.621 289.799h6.043v-5.757h-6.043v5.757zM116.542 289.799h6.043v-5.757h-6.043v5.757zM121.955 270.392v-2.38c0-5.84-3.277-10.618-9.116-10.618h-7.885c-5.838 0-9.115 4.778-9.115 10.618v2.38a.94.94 0 0 1-.459.807 3.755 3.755 0 0 0-1.843 3.225v9.573h30.72v-9.573a3.755 3.755 0 0 0-1.843-3.225.94.94 0 0 1-.459-.807z" stroke="#3D4E76" stroke-width="1.185" stroke-linecap="round" stroke-linejoin="round"/>
    <path d="M102.538 270.277h13.012M145.835 233.66v89.92M132.185 274.568l.226 49.067M85.198 274.568l.227 49.067M88.555 293.362h40.273M152.803 233.66v89.92" stroke="#3D4E76" stroke-width="1.185" stroke-linecap="round" stroke-linejoin="round"/>
    <path d="M65.462 59.2h-7.9v-5h7.9v-8.9h5.85v8.9h7.95v5h-7.95V68h-5.85v-8.8zm26.752-5.35h-4.75v-5.3h4.75c1.334 0 2.25-.183 2.75-.55.767-.567 1.15-1.583 1.15-3.05 0-1.133-.333-2.033-1-2.7-.666-.7-1.566-1.05-2.7-1.05-2.033 0-4.15.933-6.35 2.8l-2.4-4.2c2.767-2.7 5.9-4.05 9.4-4.05 2.934 0 5.334.817 7.2 2.45 1.8 1.6 2.7 3.667 2.7 6.2 0 3.133-1.3 5.233-3.9 6.3 3.367 1.3 5.05 3.8 5.05 7.5 0 3.9-1.333 6.733-4 8.5-1.866 1.233-4.2 1.85-7 1.85-1.533 0-3.283-.4-5.25-1.2-1.933-.833-3.516-1.833-4.75-3l2.65-3.95c1.8 1.633 4.1 2.45 6.9 2.45 1.434 0 2.567-.4 3.4-1.2.834-.833 1.25-1.95 1.25-3.35 0-2.967-1.7-4.45-5.1-4.45zm34.697-12.25h-11.05V48c.4-.167.95-.25 1.65-.25 3.666 0 6.516.917 8.55 2.75 1.933 1.767 2.9 4.183 2.9 7.25 0 3.233-1.2 5.917-3.6 8.05-2.1 1.867-4.65 2.8-7.65 2.8-4 0-7.484-1.45-10.45-4.35l2.7-4.15c2.433 1.833 4.783 2.75 7.05 2.75 3.5 0 5.25-1.567 5.25-4.7 0-3.5-2.25-5.25-6.75-5.25-1.567 0-3.617.283-6.15.85v-17.4h17.55v5.25zm17.953-5.85c3.867 0 6.967 1.85 9.3 5.55 1.967 3.067 2.95 6.717 2.95 10.95 0 5.1-1.25 9.183-3.75 12.25-2.2 2.733-5.033 4.1-8.5 4.1-3.966 0-7.066-1.767-9.3-5.3-1.866-2.933-2.8-6.617-2.8-11.05 0-4.933 1.234-8.983 3.7-12.15 2.234-2.9 5.034-4.35 8.4-4.35zm.1 5.6c-3.6 0-5.4 3.533-5.4 10.6 0 3.567.517 6.367 1.55 8.4.934 1.833 2.167 2.75 3.7 2.75 1.7 0 3.034-.983 4-2.95 1-2 1.5-4.733 1.5-8.2 0-7.067-1.783-10.6-5.35-10.6z" fill="url(#v4bfo8389a)"/>
    <path d="M60.59 92.7c-.653 0-.98-.333-.98-1 0-.653.327-.98.98-.98.64 0 .96.327.96.98 0 .667-.32 1-.96 1zm2.54 0c-.653 0-.98-.333-.98-1 0-.653.327-.98.98-.98.64 0 .96.327.96.98 0 .667-.32 1-.96 1zm3.72 9.68h1.32V104h-1.52c-1.373 0-2.36-.507-2.96-1.52-.64.613-1.433.92-2.38.92-1.173 0-2.106-.44-2.8-1.32-.573-.747-.86-1.66-.86-2.74 0-1.293.394-2.333 1.18-3.12.667-.68 1.48-1.02 2.44-1.02.734 0 1.367.187 1.9.56v-.86l1.74-.92v6.4c0 1.333.647 2 1.94 2zm-3.68-4.76c-.493-.547-1.1-.82-1.82-.82-.586 0-1.066.24-1.44.72-.373.467-.56 1.08-.56 1.84 0 .773.187 1.393.56 1.86.374.467.86.7 1.46.7.747 0 1.36-.307 1.84-.92a5.415 5.415 0 0 1-.04-.56v-2.82zm7.888-4.72c-.653 0-.98-.333-.98-1 0-.653.327-.98.98-.98.64 0 .96.327.96.98 0 .667-.32 1-.96 1zm-4.08 11.1v-1.62h1.32c1.307 0 1.96-.667 1.96-2v-4.14l1.72-.92v5.12c0 1.133-.34 2.027-1.02 2.68-.626.587-1.447.88-2.46.88h-1.52zm12.072 0c-1.16 0-2.054-.373-2.68-1.12-.534-.64-.8-1.453-.8-2.44v-8.42l1.72-.92v9.28c0 1.333.653 2 1.96 2h1.32V104h-1.52zm7.27-1.62h1.32V104h-1.52c-1.106 0-1.98-.353-2.62-1.06-.64.707-1.512 1.06-2.62 1.06h-1.52v-1.62h1.32c1.308 0 1.96-.667 1.96-2v-4.14l1.72-.92v5.06c0 1.333.654 2 1.96 2zM81.54 106c.64 0 .96.333.96 1 0 .653-.32.98-.96.98-.652 0-.98-.327-.98-.98 0-.667.328-1 .98-1zm2.54 0c.64 0 .96.333.96 1 0 .653-.32.98-.96.98-.652 0-.98-.327-.98-.98 0-.667.328-1 .98-1zm8.651-3.68c.534-2.013 1.414-3.693 2.64-5.04 1.374-1.48 2.974-2.22 4.8-2.22 1.52 0 2.734.527 3.64 1.58.76.893 1.14 1.993 1.14 3.3v.52c0 1.16-.353 2.06-1.06 2.7-.613.56-1.42.84-2.42.84h-8.28c-1.106 0-1.98-.353-2.62-1.06-.64.707-1.513 1.06-2.62 1.06h-1.52v-1.62h1.32c1.307 0 1.96-.667 1.96-2v-2.8l1.72-.92v3.72c0 1.12.434 1.767 1.3 1.94zm10.5-2.02v-.36c0-1.04-.32-1.867-.96-2.48-.56-.533-1.253-.8-2.08-.8-1.413 0-2.686.653-3.82 1.96-.866 1-1.533 2.253-2 3.76h7c1.24 0 1.86-.693 1.86-2.08zm11.325-7.6c-.654 0-.98-.333-.98-1 0-.653.326-.98.98-.98.64 0 .96.327.96.98 0 .667-.32 1-.96 1zm2.54 0c-.654 0-.98-.333-.98-1 0-.653.326-.98.98-.98.64 0 .96.327.96.98 0 .667-.32 1-.96 1zm3.72 9.68h1.32V104h-1.52c-1.374 0-2.36-.507-2.96-1.52-.64.613-1.434.92-2.38.92-1.174 0-2.107-.44-2.8-1.32-.574-.747-.86-1.66-.86-2.74 0-1.293.393-2.333 1.18-3.12.666-.68 1.48-1.02 2.44-1.02.733 0 1.366.187 1.9.56v-.86l1.74-.92v6.4c0 1.333.646 2 1.94 2zm-3.68-4.76c-.494-.547-1.1-.82-1.82-.82-.587 0-1.067.24-1.44.72-.374.467-.56 1.08-.56 1.84 0 .773.186 1.393.56 1.86.373.467.86.7 1.46.7.746 0 1.36-.307 1.84-.92a5.33 5.33 0 0 1-.04-.56v-2.82zm14.807-6.56c-.587 0-.88-.3-.88-.9 0-.587.293-.88.88-.88s.88.293.88.88c0 .6-.293.9-.88.9zm-1.26 2.38c-.653 0-.98-.333-.98-1 0-.653.327-.98.98-.98.64 0 .96.327.96.98 0 .667-.32 1-.96 1zm2.54 0c-.653 0-.98-.333-.98-1 0-.653.327-.98.98-.98.64 0 .96.327.96.98 0 .667-.32 1-.96 1zM120.943 104v-1.62h1.8c1.293 0 1.94-.667 1.94-2v-2.8l1.72-.92v3.72c0 1.333.653 2 1.96 2h.92c1.307 0 1.96-.667 1.96-2V96.9l1.72-.9v4.38c0 1.333.647 2 1.94 2h.94c1.307 0 1.96-.667 1.96-2v-4.14l1.72-.92v5.12c0 1.133-.34 2.02-1.02 2.66-.6.587-1.4.887-2.4.9h-1.38c-1.173 0-2.047-.393-2.62-1.18-.573.773-1.427 1.167-2.56 1.18h-1.38c-1.147 0-2.02-.393-2.62-1.18-.573.787-1.447 1.18-2.62 1.18h-1.98zm25.145-1.06c0 1.493-.393 2.693-1.18 3.6-.747.867-1.74 1.3-2.98 1.3-.8 0-1.58-.2-2.34-.6v-1.5c.68.373 1.36.56 2.04.56.853 0 1.52-.287 2-.86s.72-1.367.72-2.38v-6.82l1.74-.92v7.62zm8.523.42c-.507.2-1.127.3-1.86.3-1.187 0-2.12-.447-2.8-1.34-.574-.76-.86-1.713-.86-2.86 0-1.413.38-2.52 1.14-3.32.68-.72 1.573-1.08 2.68-1.08 1.133 0 2.006.353 2.62 1.06.546.627.82 1.447.82 2.46v4.36c0 1.507-.394 2.7-1.18 3.58-.747.827-1.74 1.24-2.98 1.24a4.94 4.94 0 0 1-2.34-.58v-1.52c.706.373 1.406.56 2.1.56.786 0 1.413-.253 1.88-.76.466-.493.726-1.193.78-2.1zm0-4.7c0-1.333-.567-2-1.7-2-.667 0-1.194.247-1.58.74-.374.493-.56 1.167-.56 2.02 0 .84.18 1.513.54 2.02.373.493.873.74 1.5.74.88 0 1.48-.247 1.8-.74v-2.78zM34.941 157.96c-.522 0-.784-.267-.784-.8 0-.523.262-.784.784-.784.512 0 .768.261.768.784 0 .533-.256.8-.768.8zm2.032 0c-.522 0-.784-.267-.784-.8 0-.523.262-.784.784-.784.512 0 .768.261.768.784 0 .533-.256.8-.768.8zm2.976 7.744h1.056V167H39.79c-1.098 0-1.888-.405-2.368-1.216-.512.491-1.146.736-1.904.736-.938 0-1.685-.352-2.24-1.056-.458-.597-.688-1.328-.688-2.192 0-1.035.315-1.867.944-2.496a2.63 2.63 0 0 1 1.952-.816c.587 0 1.094.149 1.52.448v-.688l1.392-.736v5.12c0 1.067.518 1.6 1.552 1.6zm-2.944-3.808a1.886 1.886 0 0 0-1.456-.656c-.469 0-.853.192-1.152.576-.298.373-.448.864-.448 1.472 0 .619.15 1.115.448 1.488.299.373.688.56 1.168.56.598 0 1.088-.245 1.472-.736a4.31 4.31 0 0 1-.032-.448v-2.256zm11.798 3.808h.912V167H48.66c-.896 0-1.594-.277-2.096-.832-.501.555-1.2.832-2.096.832h-4.416v-1.296h4.288c1.024 0 1.536-.539 1.536-1.616v-.144c0-.8-.31-1.408-.928-1.824-.49-.341-1.093-.512-1.808-.512-.565 0-1.13.107-1.696.32v-1.36l3.504-3.888h1.408l-3.152 3.552h.096c1.216 0 2.198.368 2.944 1.104.672.683 1.008 1.547 1.008 2.592v.176c0 1.067.518 1.6 1.552 1.6zm5.407 0h1.056V167H54.05c-.917 0-1.626-.293-2.128-.88-.533.587-1.269.88-2.208.88h-.96v-1.296h.848c1.11 0 1.664-.581 1.664-1.744v-6.544l1.392-.736v7.296c0 .619.118 1.061.352 1.328.246.267.646.4 1.2.4zm10.395 0h1.072V167h-1.216c-.885 0-1.584-.283-2.096-.848-.544.779-1.338 1.168-2.384 1.168-1.045 0-1.834-.384-2.368-1.152-.501.555-1.2.832-2.096.832h-1.216v-1.296h1.056c1.046 0 1.568-.533 1.568-1.6v-.528c0-1.237.304-2.187.912-2.848.534-.587 1.248-.88 2.144-.88 1.024 0 1.814.379 2.368 1.136.47.651.704 1.515.704 2.592v.528c0 1.067.518 1.6 1.552 1.6zm-4.624.32c.523 0 .934-.219 1.232-.656.31-.437.464-1.04.464-1.808 0-1.621-.565-2.432-1.696-2.432-1.12 0-1.68.811-1.68 2.432 0 1.643.56 2.464 1.68 2.464zm15.046-.32H76.1V167h-1.216c-.885 0-1.584-.283-2.096-.848-.544.779-1.339 1.168-2.384 1.168s-1.835-.384-2.368-1.152c-.501.555-1.2.832-2.096.832h-1.216v-1.296h1.056c1.046 0 1.568-.533 1.568-1.6v-.528c0-1.237.304-2.187.912-2.848.534-.587 1.248-.88 2.144-.88 1.024 0 1.813.379 2.368 1.136.47.651.704 1.515.704 2.592v.528c0 1.067.518 1.6 1.552 1.6zm-4.624.32c.523 0 .933-.219 1.232-.656.31-.437.464-1.04.464-1.808 0-1.621-.565-2.432-1.696-2.432-1.12 0-1.68.811-1.68 2.432 0 1.643.56 2.464 1.68 2.464zm4.742.976v-1.296h.848c1.11 0 1.664-.581 1.664-1.744v-6.544l1.392-.736v7.296c0 .949-.283 1.701-.848 2.256-.533.512-1.232.768-2.096.768h-.96zm6.78 0v-9.584l1.375-.736V167h-1.376zm7.104.928V166.6c.384-.288.912-.496 1.584-.624-.48-.725-.72-1.493-.72-2.304 0-1.013.293-1.829.88-2.448.533-.576 1.226-.864 2.08-.864.928 0 1.696.373 2.304 1.12v1.328c-.683-.789-1.43-1.184-2.24-1.184-.502 0-.902.181-1.2.544-.299.352-.448.832-.448 1.44 0 .875.304 1.6.912 2.176.277-.021.474-.032.592-.032 1.365-.043 2.448-.357 3.248-.944v1.28c-.907.608-2.09.912-3.552.912-1.43 0-2.576.309-3.44.928zm12.023-.928c-.928 0-1.643-.299-2.144-.896-.427-.512-.64-1.163-.64-1.952v-6.736l1.376-.736v7.424c0 1.067.523 1.6 1.568 1.6h1.056V167h-1.216zm10.681-1.296h1.04V167h-1.056c-.864 0-1.557-.096-2.08-.288-.522-.203-1.008-.555-1.456-1.056-1.344.896-2.912 1.344-4.704 1.344h-2.176v-1.296h2.192c2.166 0 3.878-.715 5.136-2.144-.885-1.632-1.962-2.448-3.232-2.448-.864 0-1.754.459-2.672 1.376v-1.28c.896-.907 1.846-1.36 2.848-1.36.822 0 1.616.299 2.384.896.768.587 1.446 1.429 2.032 2.528v.704c-.33.416-.645.752-.944 1.008.576.48 1.472.72 2.688.72zm3.348-7.584c-.523 0-.784-.267-.784-.8 0-.523.261-.784.784-.784.512 0 .768.261.768.784 0 .533-.256.8-.768.8zm-3.264 8.88v-1.296h1.056c1.045 0 1.568-.533 1.568-1.6v-3.312l1.376-.736v4.096c0 .907-.272 1.621-.816 2.144-.501.469-1.157.704-1.968.704h-1.216zm6.025-10.544.368-.688h.432a1.2 1.2 0 0 1-.16-.592c0-.32.117-.592.352-.816.235-.235.512-.352.832-.352.267 0 .523.085.768.256v.704c-.235-.181-.459-.272-.672-.272-.395 0-.592.176-.592.528 0 .181.075.363.224.544h1.456l-.368.688h-2.64zM118.69 167v-8.944l1.376-.736V167h-1.376zm11.568-.384c-1.013.608-1.626 1.024-1.84 1.248-.426.416-.64.933-.64 1.552 0 .683.235 1.232.704 1.648.47.427 1.078.64 1.824.64 1.174-.011 2.155-.293 2.944-.848v1.296a5.627 5.627 0 0 1-3.008.848c-1.184 0-2.133-.389-2.848-1.168-.618-.661-.928-1.477-.928-2.448 0-.725.192-1.344.576-1.856.384-.501 1.062-1.029 2.032-1.584-.874-.64-1.77-1.643-2.688-3.008v-.704c.523-.747 1.136-1.328 1.84-1.744.704-.427 1.419-.64 2.144-.64.715 0 1.43.219 2.144.656.715.427 1.328 1.013 1.84 1.76v.672c-.544.821-1.445 1.733-2.704 2.736.235.021.422.032.56.032h4.224l.016 1.296h-4.352a4.631 4.631 0 0 1-1.84-.384zm-2.592-4.016c.96 1.312 1.835 2.181 2.624 2.608a12.258 12.258 0 0 0 2.784-2.64c-.789-.96-1.69-1.445-2.704-1.456-1.024 0-1.925.496-2.704 1.488zm13.391 3.104h1.056V167h-1.216c-.886 0-1.584-.283-2.096-.848-.512.565-1.211.848-2.096.848h-1.216v-1.296h1.056c1.045 0 1.568-.533 1.568-1.6v-3.312l1.376-.736v4.048c0 1.067.522 1.6 1.568 1.6zm-3.824 2.896c.512 0 .768.267.768.8 0 .523-.256.784-.768.784-.523 0-.784-.261-.784-.784 0-.533.261-.8.784-.8zm2.032 0c.512 0 .768.267.768.8 0 .523-.256.784-.768.784-.523 0-.784-.261-.784-.784 0-.533.261-.8.784-.8zm12.184-2.896h1.072V167h-1.216c-.885 0-1.584-.283-2.096-.848-.544.779-1.339 1.168-2.384 1.168s-1.835-.384-2.368-1.152c-.501.555-1.2.832-2.096.832h-1.216v-1.296h1.056c1.045 0 1.568-.533 1.568-1.6v-.528c0-1.237.304-2.187.912-2.848.533-.587 1.248-.88 2.144-.88 1.024 0 1.813.379 2.368 1.136.469.651.704 1.515.704 2.592v.528c0 1.067.517 1.6 1.552 1.6zm-4.624.32c.523 0 .933-.219 1.232-.656.309-.437.464-1.04.464-1.808 0-1.621-.565-2.432-1.696-2.432-1.12 0-1.68.811-1.68 2.432 0 1.643.56 2.464 1.68 2.464zm4.742.976v-1.296h2.192c2.165 0 3.877-.715 5.136-2.144-.885-1.632-1.963-2.448-3.232-2.448-.864 0-1.755.459-2.672 1.376v-1.28c.896-.907 1.845-1.36 2.848-1.36.821 0 1.616.299 2.384.896.768.587 1.445 1.429 2.032 2.528v.704c-1.568 2.016-3.739 3.024-6.512 3.024h-2.176zm4.688 3.184c-.523 0-.784-.267-.784-.8 0-.523.261-.784.784-.784.512 0 .768.261.768.784 0 .533-.256.8-.768.8zM175.469 167c-.107.939-.619 1.691-1.536 2.256-.853.523-1.941.784-3.264.784-1.685 0-2.955-.491-3.808-1.472-.629-.725-.944-1.621-.944-2.688 0-.896.224-1.664.672-2.304l1.328-.288a4.488 4.488 0 0 0-.72 2.448c0 .949.309 1.696.928 2.24.608.544 1.456.816 2.544.816.917 0 1.675-.16 2.272-.48.597-.32.96-.757 1.088-1.312h-1.6l.672-1.296h2.416V167h-.048zm-5.872 5.872c-.523 0-.784-.267-.784-.8 0-.523.261-.784.784-.784.512 0 .768.261.768.784 0 .533-.256.8-.768.8zm2.032 0c-.523 0-.784-.267-.784-.8 0-.523.261-.784.784-.784.512 0 .768.261.768.784 0 .533-.256.8-.768.8zm8.263-14.656c-.522 0-.784-.267-.784-.8 0-.523.262-.784.784-.784.512 0 .768.261.768.784 0 .533-.256.8-.768.8zM174.676 167v-1.296h2.88c-.49-.544-.736-1.301-.736-2.272 0-1.163.304-2.069.912-2.72.534-.576 1.243-.864 2.128-.864.907 0 1.611.283 2.112.848.427.501.64 1.157.64 1.968v1.52c-.01.885-.272 1.584-.784 2.096-.501.48-1.168.72-2 .72h-5.152zm6.56-4.272c0-1.067-.458-1.6-1.376-1.6-.522 0-.933.203-1.232.608-.298.395-.448.949-.448 1.664 0 .704.144 1.264.432 1.68.288.416.672.624 1.152.624.982 0 1.472-.512 1.472-1.536v-1.44z" fill="#3D4E76"/>
    <defs>
        <linearGradient id="v4bfo8389a" x1="54.001" y1="74" x2="161" y2="74" gradientUnits="userSpaceOnUse">
            <stop stop-color="#FDBC11"/>
            <stop offset="1" stop-color="#F6931D"/>
        </linearGradient>
    </defs>
</svg>
