<svg width="191" height="340" viewBox="0 0 191 340" fill="none" xmlns="http://www.w3.org/2000/svg">
    <rect x="1" y=".5" width="189" height="339" rx="3.5" fill="#fff" stroke="#EDEDED"/>
    <path d="M141.088 197.04H43.5" stroke="#3D4E76" stroke-width="1.185" stroke-linecap="round" stroke-linejoin="round"/>
    <path d="M57.535 207.766c-.296 0-.532-.089-.71-.266-.176-.177-.265-.418-.265-.723 0-.64.325-.96.975-.96.295 0 .526.088.694.266.177.167.266.398.266.694 0 .659-.32.989-.96.989zm2.274 0c-.296 0-.532-.089-.71-.266-.176-.177-.265-.418-.265-.723 0-.64.325-.96.975-.96.295 0 .526.088.694.266.177.167.266.398.266.694 0 .659-.32.989-.96.989zm2.495 6.557h1.33v1.786h-1.507c-.915 0-1.624-.305-2.126-.915-.424.325-.94.487-1.55.487-.907 0-1.63-.339-2.172-1.019-.443-.561-.664-1.235-.664-2.023 0-.974.315-1.767.945-2.377.532-.512 1.147-.768 1.846-.768.364 0 .699.069 1.004.207v-.384l1.846-.975v4.917c0 .384.079.66.236.827.168.158.438.237.812.237zm-2.894-2.762a1.315 1.315 0 0 0-.871-.325.966.966 0 0 0-.798.399c-.197.266-.295.615-.295 1.048 0 .434.099.778.295 1.034.197.256.468.384.813.384.374 0 .664-.128.87-.384a3.308 3.308 0 0 1-.014-.369v-1.787zm6.674-3.5c-.295 0-.531-.088-.709-.265-.177-.178-.265-.419-.265-.724 0-.285.088-.517.266-.694.177-.177.413-.266.708-.266.296 0 .527.089.694.266.177.167.266.399.266.694 0 .66-.32.989-.96.989zm-3.337 8.048v-1.786h1.329c.374 0 .64-.079.797-.237.158-.167.237-.443.237-.827v-2.732l1.86-.974v3.795c0 .896-.275 1.595-.827 2.097-.482.443-1.112.664-1.89.664h-1.506zm9.594 0c-.896 0-1.59-.285-2.082-.856-.423-.492-.635-1.127-.635-1.905v-5.789l1.86-.974v6.674c0 .384.08.66.237.827.157.158.423.237.797.237h1.33v1.786H72.34zm5.873-1.786h1.329v1.786h-1.506c-.719 0-1.315-.192-1.787-.575-.472.383-1.068.575-1.787.575h-1.506v-1.786h1.329c.374 0 .64-.079.797-.237.158-.167.237-.443.237-.827v-2.732l1.86-.974v3.706c0 .384.08.66.237.827.157.158.423.237.797.237zm-3.825 3.13c.296 0 .527.084.694.251.178.177.266.414.266.709 0 .66-.32.989-.96.989-.295 0-.531-.088-.709-.265-.177-.178-.265-.419-.265-.724 0-.64.325-.96.974-.96zm2.275 0c.295 0 .526.084.694.251.177.177.265.414.265.709 0 .66-.32.989-.96.989-.295 0-.531-.088-.708-.265-.177-.178-.266-.419-.266-.724 0-.64.325-.96.975-.96zm6.966-3.145c.472-1.437 1.161-2.604 2.067-3.5 1.004-1.004 2.156-1.506 3.456-1.506 1.161 0 2.092.403 2.79 1.211.591.679.887 1.521.887 2.525v.325c0 .896-.281 1.595-.842 2.097-.483.433-1.108.649-1.876.649h-6.379c-.719 0-1.314-.192-1.787-.575-.472.383-1.068.575-1.787.575h-1.506v-1.786h1.33c.373 0 .64-.079.797-.237.157-.167.236-.443.236-.827v-1.949l1.86-.974v2.923c0 .63.252.98.754 1.049zm7.339-1.063v-.207c0-.591-.167-1.073-.502-1.447-.335-.374-.768-.561-1.3-.561-.767 0-1.486.295-2.156.886-.66.59-1.181 1.393-1.565 2.407h4.593c.354 0 .595-.074.723-.222.138-.157.207-.443.207-.856zm8.732-5.479c-.295 0-.531-.089-.708-.266-.178-.177-.266-.418-.266-.723 0-.64.325-.96.974-.96.296 0 .527.088.694.266.178.167.266.398.266.694 0 .659-.32.989-.96.989zm2.275 0c-.296 0-.532-.089-.709-.266-.177-.177-.266-.418-.266-.723 0-.64.325-.96.975-.96.295 0 .526.088.694.266.177.167.265.398.265.694 0 .659-.32.989-.959.989zm2.495 6.557h1.329v1.786h-1.506c-.916 0-1.624-.305-2.126-.915-.424.325-.941.487-1.551.487-.906 0-1.63-.339-2.17-1.019-.444-.561-.665-1.235-.665-2.023 0-.974.315-1.767.945-2.377.531-.512 1.147-.768 1.846-.768.364 0 .699.069 1.004.207v-.384l1.846-.975v4.917c0 .384.078.66.236.827.167.158.438.237.812.237zm-2.894-2.762a1.316 1.316 0 0 0-.871-.325.967.967 0 0 0-.798.399c-.197.266-.295.615-.295 1.048 0 .434.098.778.295 1.034.197.256.468.384.812.384.374 0 .665-.128.872-.384a3.248 3.248 0 0 1-.015-.369v-1.787zm11.724-5.478c-.59 0-.886-.301-.886-.901 0-.581.296-.871.886-.871.581 0 .872.29.872.871 0 .6-.291.901-.872.901zm-1.122 2.17c-.295 0-.531-.088-.709-.265-.177-.178-.265-.419-.265-.724 0-.286.088-.517.265-.694.178-.177.414-.266.709-.266s.527.089.694.266c.177.167.266.399.266.694 0 .66-.32.989-.96.989zm2.274 0c-.295 0-.531-.088-.709-.265-.177-.178-.265-.419-.265-.724 0-.286.088-.517.265-.694.178-.177.414-.266.709-.266.296 0 .527.089.694.266.178.167.266.399.266.694 0 .66-.32.989-.96.989zm-9.539 7.856v-1.786h1.565c.374 0 .64-.079.797-.237.168-.167.252-.443.252-.827v-1.949l1.86-.974v2.923c0 .384.079.66.236.827.158.158.424.237.798.237h1.004c.374 0 .64-.079.797-.237.158-.167.237-.443.237-.827v-2.333l1.86-.989v3.322c0 .384.079.66.237.827.167.158.438.237.812.237h1.004c.374 0 .64-.079.797-.237.158-.167.237-.443.237-.827v-2.732l1.86-.974v3.795c0 .876-.266 1.565-.797 2.067-.463.443-1.073.675-1.831.694h-1.462c-.729 0-1.324-.216-1.787-.649-.423.423-.984.64-1.683.649h-1.462c-.729 0-1.324-.216-1.787-.649-.463.433-1.058.649-1.787.649h-1.757zm19.673-.915c0 1.142-.315 2.067-.945 2.776-.581.66-1.349.989-2.304.989-.62 0-1.226-.157-1.816-.472v-1.624c.512.285 1.014.428 1.506.428.541 0 .96-.177 1.255-.532.305-.344.458-.827.458-1.447v-4.77l1.846-.989v5.641zm6 .487c-.305.059-.62.089-.945.089-.905 0-1.629-.34-2.17-1.019-.443-.571-.665-1.26-.665-2.068 0-1.082.295-1.934.886-2.554.522-.552 1.211-.827 2.067-.827.877 0 1.561.28 2.053.842.423.482.635 1.112.635 1.89v3.16c0 1.162-.305 2.077-.916 2.747-.571.63-1.348.945-2.333.945-.62 0-1.225-.168-1.816-.502v-1.61c.532.305 1.063.458 1.595.458.955 0 1.491-.517 1.609-1.551zm.015-3.677c0-.65-.28-.974-.842-.974a.982.982 0 0 0-.841.428c-.197.285-.296.674-.296 1.166 0 1.044.374 1.566 1.123 1.566.393 0 .679-.099.856-.296v-1.89z" fill="#01B8B6"/>
    <path d="M43.5 191h102.1v37.416H43.5v-31.111M50.243 233.66v89.92M57.21 233.66v89.92" stroke="#3D4E76" stroke-width="1.185" stroke-linecap="round" stroke-linejoin="round"/>
    <path clip-rule="evenodd" d="M89.51 277.755a2.095 2.095 0 1 1-4.19 0 2.095 2.095 0 0 1 4.19 0zM107.373 277.755a2.095 2.095 0 1 1-4.19 0 2.095 2.095 0 0 1 4.19 0z" stroke="#3D4E76" stroke-width=".79" stroke-linecap="round" stroke-linejoin="round"/>
    <path clip-rule="evenodd" d="M82.121 289.799h6.043v-5.757h-6.043v5.757zM104.042 289.799h6.043v-5.757h-6.043v5.757zM109.455 270.392v-2.38c0-5.84-3.277-10.618-9.116-10.618h-7.885c-5.838 0-9.115 4.778-9.115 10.618v2.38a.94.94 0 0 1-.459.807 3.755 3.755 0 0 0-1.843 3.225v9.573h30.72v-9.573a3.755 3.755 0 0 0-1.843-3.225.94.94 0 0 1-.459-.807z" stroke="#3D4E76" stroke-width="1.185" stroke-linecap="round" stroke-linejoin="round"/>
    <path d="M90.038 270.277h13.012M133.335 233.66v89.92M119.685 274.568l.226 49.067M72.698 274.568l.227 49.067M76.055 293.362h40.273M140.303 233.66v89.92" stroke="#3D4E76" stroke-width="1.185" stroke-linecap="round" stroke-linejoin="round"/>
    <path d="M71.459 40.072h-4.424v-2.8h4.424v-4.984h3.276v4.984h4.452v2.8h-4.452V45h-3.276v-4.928zm14.981-2.996h-2.66v-2.968h2.66c.747 0 1.26-.103 1.54-.308.43-.317.644-.887.644-1.708 0-.635-.187-1.139-.56-1.512-.373-.392-.877-.588-1.512-.588-1.139 0-2.324.523-3.556 1.568l-1.344-2.352c1.55-1.512 3.304-2.268 5.264-2.268 1.643 0 2.987.457 4.032 1.372 1.008.896 1.512 2.053 1.512 3.472 0 1.755-.728 2.93-2.184 3.528 1.885.728 2.828 2.128 2.828 4.2 0 2.184-.747 3.77-2.24 4.76-1.045.69-2.352 1.036-3.92 1.036-.859 0-1.839-.224-2.94-.672-1.083-.467-1.97-1.027-2.66-1.68l1.484-2.212c1.008.915 2.296 1.372 3.864 1.372.803 0 1.437-.224 1.904-.672.467-.467.7-1.092.7-1.876 0-1.661-.952-2.492-2.856-2.492zm19.43-6.86h-6.188V33.8c.224-.093.532-.14.924-.14 2.053 0 3.649.513 4.788 1.54 1.083.99 1.624 2.343 1.624 4.06 0 1.81-.672 3.313-2.016 4.508-1.176 1.045-2.604 1.568-4.284 1.568-2.24 0-4.19-.812-5.852-2.436l1.512-2.324c1.363 1.027 2.679 1.54 3.948 1.54 1.96 0 2.94-.877 2.94-2.632 0-1.96-1.26-2.94-3.78-2.94-.877 0-2.025.159-3.444.476v-9.744h9.828v2.94zm10.054-3.276c2.165 0 3.901 1.036 5.208 3.108 1.101 1.717 1.652 3.761 1.652 6.132 0 2.856-.7 5.143-2.1 6.86-1.232 1.53-2.819 2.296-4.76 2.296-2.221 0-3.957-.99-5.208-2.968-1.045-1.643-1.568-3.705-1.568-6.188 0-2.763.691-5.03 2.072-6.804 1.251-1.624 2.819-2.436 4.704-2.436zm.056 3.136c-2.016 0-3.024 1.979-3.024 5.936 0 1.997.289 3.565.868 4.704.523 1.027 1.213 1.54 2.072 1.54.952 0 1.699-.55 2.24-1.652.56-1.12.84-2.65.84-4.592 0-3.957-.999-5.936-2.996-5.936z" fill="url(#qcac8gjpoa)"/>
    <path d="M54.552 91.96c-.32 0-.576-.096-.768-.288-.192-.192-.288-.453-.288-.784 0-.693.352-1.04 1.056-1.04.32 0 .57.096.752.288.192.181.288.432.288.752 0 .715-.346 1.072-1.04 1.072zm2.464 0c-.32 0-.576-.096-.768-.288-.192-.192-.288-.453-.288-.784 0-.693.352-1.04 1.056-1.04.32 0 .57.096.752.288.192.181.288.432.288.752 0 .715-.346 1.072-1.04 1.072zm2.704 7.104h1.44V101h-1.632c-.992 0-1.76-.331-2.304-.992-.458.352-1.018.528-1.68.528-.981 0-1.765-.368-2.352-1.104-.48-.608-.72-1.339-.72-2.192 0-1.056.341-1.915 1.024-2.576.576-.555 1.243-.832 2-.832.395 0 .758.075 1.088.224v-.416l2-1.056v5.328c0 .416.085.715.256.896.181.17.475.256.88.256zm-3.136-2.992a1.421 1.421 0 0 0-.944-.352c-.352 0-.64.144-.864.432-.213.288-.32.667-.32 1.136 0 .47.107.843.32 1.12.213.277.507.416.88.416.406 0 .72-.139.944-.416a3.562 3.562 0 0 1-.016-.4v-1.936zm7.232-3.792c-.32 0-.576-.096-.768-.288-.192-.192-.288-.453-.288-.784 0-.31.096-.56.288-.752.192-.192.448-.288.768-.288s.57.096.752.288c.192.181.288.432.288.752 0 .715-.347 1.072-1.04 1.072zM60.2 101v-1.936h1.44c.405 0 .693-.085.864-.256.17-.181.256-.48.256-.896v-2.96l2.016-1.056v4.112c0 .97-.299 1.728-.896 2.272-.523.48-1.206.72-2.048.72H60.2zm10.395 0c-.97 0-1.723-.309-2.256-.928-.459-.533-.688-1.221-.688-2.064v-6.272l2.016-1.056v7.232c0 .416.085.715.256.896.17.17.459.256.864.256h1.44V101h-1.632zm6.363-1.936h1.44V101h-1.632c-.779 0-1.424-.208-1.936-.624-.512.416-1.157.624-1.936.624h-1.632v-1.936h1.44c.406 0 .694-.085.864-.256.17-.181.256-.48.256-.896v-2.96l2.016-1.056v4.016c0 .416.086.715.256.896.17.17.459.256.864.256zm-4.144 3.392c.32 0 .57.091.752.272.192.192.288.448.288.768 0 .715-.347 1.072-1.04 1.072-.32 0-.576-.096-.768-.288-.192-.192-.288-.453-.288-.784 0-.693.352-1.04 1.056-1.04zm2.464 0c.32 0 .57.091.752.272.192.192.288.448.288.768 0 .715-.346 1.072-1.04 1.072-.32 0-.576-.096-.768-.288-.192-.192-.288-.453-.288-.784 0-.693.352-1.04 1.056-1.04zm7.548-3.408c.512-1.557 1.259-2.821 2.24-3.792 1.088-1.088 2.336-1.632 3.744-1.632 1.259 0 2.267.437 3.024 1.312.64.736.96 1.648.96 2.736v.352c0 .97-.304 1.728-.912 2.272-.523.469-1.2.704-2.032.704h-6.912c-.779 0-1.424-.208-1.936-.624-.512.416-1.157.624-1.936.624h-1.632v-1.936h1.44c.405 0 .693-.085.864-.256.17-.181.256-.48.256-.896V95.8l2.016-1.056v3.168c0 .683.272 1.061.816 1.136zm7.952-1.152v-.224c0-.64-.181-1.163-.544-1.568-.363-.405-.832-.608-1.408-.608-.832 0-1.61.32-2.336.96-.715.64-1.28 1.51-1.696 2.608h4.976c.384 0 .645-.08.784-.24.15-.17.224-.48.224-.928zm9.462-5.936c-.32 0-.576-.096-.768-.288-.192-.192-.288-.453-.288-.784 0-.693.352-1.04 1.056-1.04.32 0 .57.096.752.288.192.181.288.432.288.752 0 .715-.347 1.072-1.04 1.072zm2.464 0c-.32 0-.576-.096-.768-.288-.192-.192-.288-.453-.288-.784 0-.693.352-1.04 1.056-1.04.32 0 .57.096.752.288.192.181.288.432.288.752 0 .715-.347 1.072-1.04 1.072zm2.704 7.104h1.44V101h-1.632c-.992 0-1.76-.331-2.304-.992-.459.352-1.019.528-1.68.528-.982 0-1.766-.368-2.352-1.104-.48-.608-.72-1.339-.72-2.192 0-1.056.341-1.915 1.024-2.576.576-.555 1.242-.832 2-.832.394 0 .757.075 1.088.224v-.416l2-1.056v5.328c0 .416.085.715.256.896.181.17.474.256.88.256zm-3.136-2.992a1.423 1.423 0 0 0-.944-.352c-.352 0-.64.144-.864.432-.214.288-.32.667-.32 1.136 0 .47.106.843.32 1.12.213.277.506.416.88.416.405 0 .72-.139.944-.416a3.49 3.49 0 0 1-.016-.4v-1.936zm12.703-5.936c-.64 0-.96-.325-.96-.976 0-.63.32-.944.96-.944.63 0 .944.315.944.944 0 .65-.314.976-.944.976zm-1.216 2.352c-.32 0-.576-.096-.768-.288-.192-.192-.288-.453-.288-.784 0-.31.096-.56.288-.752.192-.192.448-.288.768-.288s.571.096.752.288c.192.181.288.432.288.752 0 .715-.346 1.072-1.04 1.072zm2.464 0c-.32 0-.576-.096-.768-.288-.192-.192-.288-.453-.288-.784 0-.31.096-.56.288-.752.192-.192.448-.288.768-.288s.571.096.752.288c.192.181.288.432.288.752 0 .715-.346 1.072-1.04 1.072zM105.887 101v-1.936h1.696c.406 0 .694-.085.864-.256.182-.181.272-.48.272-.896V95.8l2.016-1.056v3.168c0 .416.086.715.256.896.171.17.459.256.864.256h1.088c.406 0 .694-.085.864-.256.171-.181.256-.48.256-.896v-2.528l2.016-1.072v3.6c0 .416.086.715.256.896.182.17.475.256.88.256h1.088c.406 0 .694-.085.864-.256.171-.181.256-.48.256-.896v-2.96l2.016-1.056v4.112c0 .95-.288 1.696-.864 2.24-.501.48-1.162.731-1.984.752h-1.584c-.789 0-1.434-.235-1.936-.704-.458.459-1.066.693-1.824.704h-1.584c-.789 0-1.434-.235-1.936-.704-.501.469-1.146.704-1.936.704h-1.904zm21.316-.992c0 1.237-.342 2.24-1.024 3.008-.63.715-1.462 1.072-2.496 1.072a4.139 4.139 0 0 1-1.968-.512v-1.76c.554.309 1.098.464 1.632.464.586 0 1.04-.192 1.36-.576.33-.373.496-.896.496-1.568v-5.168l2-1.072v6.112zm6.501.528c-.33.064-.672.096-1.024.096-.981 0-1.765-.368-2.352-1.104-.48-.619-.72-1.365-.72-2.24 0-1.173.32-2.096.96-2.768.566-.597 1.312-.896 2.24-.896.95 0 1.691.304 2.224.912.459.523.688 1.205.688 2.048v3.424c0 1.259-.33 2.251-.992 2.976-.618.683-1.461 1.024-2.528 1.024-.672 0-1.328-.181-1.968-.544v-1.744c.576.331 1.152.496 1.728.496 1.035 0 1.616-.56 1.744-1.68zm.016-3.984c0-.704-.304-1.056-.912-1.056-.384 0-.688.155-.912.464-.213.31-.32.73-.32 1.264 0 1.13.406 1.696 1.216 1.696.427 0 .736-.107.928-.32v-2.048zM22.441 157.96c-.522 0-.784-.267-.784-.8 0-.523.262-.784.784-.784.512 0 .768.261.768.784 0 .533-.256.8-.768.8zm2.032 0c-.522 0-.784-.267-.784-.8 0-.523.262-.784.784-.784.512 0 .768.261.768.784 0 .533-.256.8-.768.8zm2.976 7.744h1.056V167H27.29c-1.098 0-1.888-.405-2.368-1.216-.512.491-1.146.736-1.904.736-.938 0-1.685-.352-2.24-1.056-.458-.597-.688-1.328-.688-2.192 0-1.035.315-1.867.944-2.496a2.63 2.63 0 0 1 1.952-.816c.587 0 1.094.149 1.52.448v-.688l1.392-.736v5.12c0 1.067.518 1.6 1.552 1.6zm-2.944-3.808a1.886 1.886 0 0 0-1.456-.656c-.469 0-.853.192-1.152.576-.298.373-.448.864-.448 1.472 0 .619.15 1.115.448 1.488.299.373.688.56 1.168.56.598 0 1.088-.245 1.472-.736a4.31 4.31 0 0 1-.032-.448v-2.256zm11.798 3.808h.912V167H36.16c-.896 0-1.594-.277-2.096-.832-.501.555-1.2.832-2.096.832h-4.416v-1.296h4.288c1.024 0 1.536-.539 1.536-1.616v-.144c0-.8-.31-1.408-.928-1.824-.49-.341-1.093-.512-1.808-.512-.565 0-1.13.107-1.696.32v-1.36l3.504-3.888h1.408l-3.152 3.552h.096c1.216 0 2.198.368 2.944 1.104.672.683 1.008 1.547 1.008 2.592v.176c0 1.067.518 1.6 1.552 1.6zm5.407 0h1.056V167H41.55c-.917 0-1.626-.293-2.128-.88-.533.587-1.269.88-2.208.88h-.96v-1.296h.848c1.11 0 1.664-.581 1.664-1.744v-6.544l1.392-.736v7.296c0 .619.118 1.061.352 1.328.246.267.646.4 1.2.4zm10.395 0h1.072V167h-1.216c-.885 0-1.584-.283-2.096-.848-.544.779-1.338 1.168-2.384 1.168-1.045 0-1.834-.384-2.368-1.152-.501.555-1.2.832-2.096.832h-1.216v-1.296h1.056c1.046 0 1.568-.533 1.568-1.6v-.528c0-1.237.304-2.187.912-2.848.534-.587 1.248-.88 2.144-.88 1.024 0 1.814.379 2.368 1.136.47.651.704 1.515.704 2.592v.528c0 1.067.518 1.6 1.552 1.6zm-4.624.32c.523 0 .934-.219 1.232-.656.31-.437.464-1.04.464-1.808 0-1.621-.565-2.432-1.696-2.432-1.12 0-1.68.811-1.68 2.432 0 1.643.56 2.464 1.68 2.464zm15.046-.32H63.6V167h-1.216c-.885 0-1.584-.283-2.096-.848-.544.779-1.338 1.168-2.384 1.168-1.045 0-1.834-.384-2.368-1.152-.501.555-1.2.832-2.096.832h-1.216v-1.296h1.056c1.045 0 1.568-.533 1.568-1.6v-.528c0-1.237.304-2.187.912-2.848.533-.587 1.248-.88 2.144-.88 1.024 0 1.814.379 2.368 1.136.47.651.704 1.515.704 2.592v.528c0 1.067.517 1.6 1.552 1.6zm-4.624.32c.523 0 .934-.219 1.232-.656.31-.437.464-1.04.464-1.808 0-1.621-.565-2.432-1.696-2.432-1.12 0-1.68.811-1.68 2.432 0 1.643.56 2.464 1.68 2.464zm4.742.976v-1.296h.848c1.11 0 1.664-.581 1.664-1.744v-6.544l1.392-.736v7.296c0 .949-.283 1.701-.848 2.256-.533.512-1.232.768-2.096.768h-.96zm6.78 0v-9.584l1.375-.736V167h-1.376zm7.104.928V166.6c.384-.288.912-.496 1.584-.624-.48-.725-.72-1.493-.72-2.304 0-1.013.293-1.829.88-2.448.533-.576 1.226-.864 2.08-.864.928 0 1.696.373 2.304 1.12v1.328c-.683-.789-1.43-1.184-2.24-1.184-.502 0-.902.181-1.2.544-.299.352-.448.832-.448 1.44 0 .875.304 1.6.912 2.176.277-.021.474-.032.592-.032 1.365-.043 2.448-.357 3.248-.944v1.28c-.907.608-2.09.912-3.552.912-1.43 0-2.576.309-3.44.928zM88.552 167c-.928 0-1.643-.299-2.144-.896-.427-.512-.64-1.163-.64-1.952v-6.736l1.376-.736v7.424c0 1.067.523 1.6 1.568 1.6h1.056V167h-1.216zm10.681-1.296h1.04V167h-1.056c-.864 0-1.557-.096-2.08-.288-.522-.203-1.008-.555-1.456-1.056-1.344.896-2.912 1.344-4.704 1.344h-2.176v-1.296h2.192c2.166 0 3.878-.715 5.136-2.144-.885-1.632-1.962-2.448-3.232-2.448-.864 0-1.754.459-2.672 1.376v-1.28c.896-.907 1.846-1.36 2.848-1.36.822 0 1.616.299 2.384.896.768.587 1.446 1.429 2.032 2.528v.704c-.33.416-.645.752-.944 1.008.576.48 1.472.72 2.688.72zm3.348-7.584c-.523 0-.784-.267-.784-.8 0-.523.261-.784.784-.784.512 0 .768.261.768.784 0 .533-.256.8-.768.8zM99.317 167v-1.296h1.056c1.045 0 1.568-.533 1.568-1.6v-3.312l1.376-.736v4.096c0 .907-.272 1.621-.816 2.144-.501.469-1.157.704-1.968.704h-1.216zm6.025-10.544.368-.688h.432a1.2 1.2 0 0 1-.16-.592c0-.32.117-.592.352-.816.235-.235.512-.352.832-.352.267 0 .523.085.768.256v.704c-.235-.181-.459-.272-.672-.272-.395 0-.592.176-.592.528 0 .181.075.363.224.544h1.456l-.368.688h-2.64zM106.19 167v-8.944l1.376-.736V167h-1.376zm11.568-.384c-1.013.608-1.626 1.024-1.84 1.248-.426.416-.64.933-.64 1.552 0 .683.235 1.232.704 1.648.47.427 1.078.64 1.824.64 1.174-.011 2.155-.293 2.944-.848v1.296a5.627 5.627 0 0 1-3.008.848c-1.184 0-2.133-.389-2.848-1.168-.618-.661-.928-1.477-.928-2.448 0-.725.192-1.344.576-1.856.384-.501 1.062-1.029 2.032-1.584-.874-.64-1.77-1.643-2.688-3.008v-.704c.523-.747 1.136-1.328 1.84-1.744.704-.427 1.419-.64 2.144-.64.715 0 1.43.219 2.144.656.715.427 1.328 1.013 1.84 1.76v.672c-.544.821-1.445 1.733-2.704 2.736.235.021.422.032.56.032h4.224l.016 1.296h-4.352a4.631 4.631 0 0 1-1.84-.384zm-2.592-4.016c.96 1.312 1.835 2.181 2.624 2.608a12.258 12.258 0 0 0 2.784-2.64c-.789-.96-1.69-1.445-2.704-1.456-1.024 0-1.925.496-2.704 1.488zm13.391 3.104h1.056V167h-1.216c-.886 0-1.584-.283-2.096-.848-.512.565-1.211.848-2.096.848h-1.216v-1.296h1.056c1.045 0 1.568-.533 1.568-1.6v-3.312l1.376-.736v4.048c0 1.067.522 1.6 1.568 1.6zm-3.824 2.896c.512 0 .768.267.768.8 0 .523-.256.784-.768.784-.523 0-.784-.261-.784-.784 0-.533.261-.8.784-.8zm2.032 0c.512 0 .768.267.768.8 0 .523-.256.784-.768.784-.523 0-.784-.261-.784-.784 0-.533.261-.8.784-.8zm12.184-2.896h1.072V167h-1.216c-.885 0-1.584-.283-2.096-.848-.544.779-1.339 1.168-2.384 1.168s-1.835-.384-2.368-1.152c-.501.555-1.2.832-2.096.832h-1.216v-1.296h1.056c1.045 0 1.568-.533 1.568-1.6v-.528c0-1.237.304-2.187.912-2.848.533-.587 1.248-.88 2.144-.88 1.024 0 1.813.379 2.368 1.136.469.651.704 1.515.704 2.592v.528c0 1.067.517 1.6 1.552 1.6zm-4.624.32c.523 0 .933-.219 1.232-.656.309-.437.464-1.04.464-1.808 0-1.621-.565-2.432-1.696-2.432-1.12 0-1.68.811-1.68 2.432 0 1.643.56 2.464 1.68 2.464zm4.742.976v-1.296h2.192c2.165 0 3.877-.715 5.136-2.144-.885-1.632-1.963-2.448-3.232-2.448-.864 0-1.755.459-2.672 1.376v-1.28c.896-.907 1.845-1.36 2.848-1.36.821 0 1.616.299 2.384.896.768.587 1.445 1.429 2.032 2.528v.704c-1.568 2.016-3.739 3.024-6.512 3.024h-2.176zm4.688 3.184c-.523 0-.784-.267-.784-.8 0-.523.261-.784.784-.784.512 0 .768.261.768.784 0 .533-.256.8-.768.8zM162.969 167c-.107.939-.619 1.691-1.536 2.256-.853.523-1.941.784-3.264.784-1.685 0-2.955-.491-3.808-1.472-.629-.725-.944-1.621-.944-2.688 0-.896.224-1.664.672-2.304l1.328-.288a4.488 4.488 0 0 0-.72 2.448c0 .949.309 1.696.928 2.24.608.544 1.456.816 2.544.816.917 0 1.675-.16 2.272-.48.597-.32.96-.757 1.088-1.312h-1.6l.672-1.296h2.416V167h-.048zm-5.872 5.872c-.523 0-.784-.267-.784-.8 0-.523.261-.784.784-.784.512 0 .768.261.768.784 0 .533-.256.8-.768.8zm2.032 0c-.523 0-.784-.267-.784-.8 0-.523.261-.784.784-.784.512 0 .768.261.768.784 0 .533-.256.8-.768.8zm8.263-14.656c-.522 0-.784-.267-.784-.8 0-.523.262-.784.784-.784.512 0 .768.261.768.784 0 .533-.256.8-.768.8zM162.176 167v-1.296h2.88c-.49-.544-.736-1.301-.736-2.272 0-1.163.304-2.069.912-2.72.534-.576 1.243-.864 2.128-.864.907 0 1.611.283 2.112.848.427.501.64 1.157.64 1.968v1.52c-.01.885-.272 1.584-.784 2.096-.501.48-1.168.72-2 .72h-5.152zm6.56-4.272c0-1.067-.458-1.6-1.376-1.6-.522 0-.933.203-1.232.608-.298.395-.448.949-.448 1.664 0 .704.144 1.264.432 1.68.288.416.672.624 1.152.624.982 0 1.472-.512 1.472-1.536v-1.44z" fill="#3D4E76"/>
    <defs>
        <linearGradient id="qcac8gjpoa" x1="41.501" y1="68" x2="148.5" y2="68" gradientUnits="userSpaceOnUse">
            <stop stop-color="#FDBC11"/>
            <stop offset="1" stop-color="#F6931D"/>
        </linearGradient>
    </defs>
</svg>
