<?xml version="1.0" encoding="UTF-8"?>
<svg id="Layer_2" data-name="Layer 2" xmlns="http://www.w3.org/2000/svg" viewBox="0 0 923.66 299.06">
  <defs>
    <style>
      .cls-1 {
        fill: #ff7949;
      }
    </style>
  </defs>
  <g id="Layer_1-2" data-name="Layer 1">
    <path class="cls-1" d="M690.09,299.05c-26.75,.09-48.2-21.15-48.32-47.83-.12-27.08,21.13-48.54,48.1-48.57,27.02-.03,48.4,21.35,48.32,48.34-.08,26.8-21.27,47.98-48.1,48.06Z"/>
    <path class="cls-1" d="M263.22,299.06c-26.92-.01-48.28-21.48-48.23-48.48,.04-26.57,21.57-47.95,48.27-47.93,26.88,.02,48.65,21.82,48.4,48.46-.24,26.62-21.8,47.96-48.44,47.95Z"/>
    <path class="cls-1" d="M923.63,100.64c-.29-7.3-1.15-14.6-1.02-21.89,.11-6.27-1.17-11.85-4.93-16.81-6.66-8.8-15.46-14.49-26.08-17.21-10.13-2.6-20.52-1.53-30.82-1.61-2.45-.02-3.82-.37-4.53-3.12-2.48-9.51-6.11-12.17-15.82-12.17-47.15,0-94.3-.24-141.45,.18-10.79,.1-20.44-2-30.08-6.67-26.14-12.66-53.71-20.39-82.89-20.65-45.65-.41-91.32,.68-136.94-.63-25.11-.72-45.87,5.43-61.68,25.43-1.48,1.87-3.29,2.38-5.64,2.38-52.48-.06-104.96-.07-157.45,.03-2.77,0-3.96-.98-5.24-3.27-3.69-6.59-9.43-10.03-17.12-10.01-14.33,.03-28.66-.03-42.99,.03-6.26,.02-10.35,3.29-10.64,9.42-.17,3.64-1.6,3.82-4.44,3.81-20.66-.09-41.32-.05-61.98-.05-20.66,0-41.32-.03-61.98,.02-7.58,.02-13.22,4.28-13.83,10.91C4.02,61.12,.9,83.48,.47,105.89c-.87,46.13-.28,92.3-.24,138.45,0,7.02,3.41,10.44,10.47,11.42,20.41,2.83,40.8,5.83,61.21,8.67,18.1,2.51,36.16,5.76,54.35,7.13,25.42,1.91,50.96,.38,76.44,.76,3.07,.05,3.52-1.17,3.48-3.8-.12-9.5-.19-19,0-28.49,.25-12.45,4.34-23.42,13.37-32.28,15.93-15.63,34.99-21.11,56.74-16.91,26.83,5.18,43.8,25.92,43.85,53.11,.02,8.33,.24,16.67-.1,24.99-.17,4.08,1.2,4.86,5.01,4.84,34.99-.15,69.98-.11,104.96-.11,66.14,0,132.29-.02,198.43,.12,3.78,0,4.7-.94,4.59-4.64-.28-9.82-.22-19.66-.08-29.49,.16-11.95,4.08-22.53,12.57-31.08,17.32-17.44,38.16-23.08,61.71-16.59,19.46,5.37,41.27,22.09,39.77,52.34-.43,8.64,.02,17.33-.12,25.99-.04,2.58,.64,3.55,3.34,3.41,3.99-.21,7.99-.04,11.99-.04,28.16,0,56.34,.71,84.46-.25,18.48-.63,24.78-8.18,24.36-23.7-.68-25.14-1.57-50.26-3.05-75.37-2.17-36.89-5.28-73.71-8.75-110.49-.37-3.87,1.24-5.66,4.91-5.75,3.83-.09,7.66,0,11.5-.01,15.66-.07,27.7,5.8,34.34,21.55-3.61-.61-4.97,.91-5.47,4.21-1.21,7.93-2.08,15.8-.97,23.83,1.42,10.27,1.31,10.11,11.75,9.9,4.13-.08,6.1-1.94,6.99-5.61,.91-3.73,1.49-7.53,1.34-11.36Zm-817.49,5.77h-.03c0,11.99,.03,23.99-.01,35.98-.02,5.53-1.9,7.39-7.49,7.4-20.15,.04-40.31,.05-60.46,.03-5.65,0-7.53-1.79-7.55-7.43-.06-24.15-.07-48.3,0-72.45,.01-5.72,1.77-7.43,7.57-7.44,20.15-.06,40.31-.06,60.46-.01,5.64,.01,7.48,1.88,7.51,7.45,.05,12.16,.02,24.32,.02,36.48Zm130.27,35.99c-.02,5.46-2.13,7.38-7.68,7.39-17.33,.03-34.65,.01-51.98,.01-17.33,0-34.66,.01-51.98-.01-5.87,0-7.81-1.9-7.82-7.68-.03-23.99-.04-47.98-.02-71.98,0-5.62,1.85-7.6,7.37-7.61,34.82-.05,69.64-.06,104.46-.02,5.66,0,7.63,1.88,7.65,7.43,.07,24.16,.06,48.31,0,72.47Zm121.63,7.4c-16.98,.01-33.95,0-50.93,0-17.31,0-34.62,.01-51.93,0-5.98,0-8.03-2.03-8.04-8.08-.03-23.63-.03-47.27,0-70.9,0-6.37,1.93-8.32,8.32-8.33,34.29-.03,68.57-.02,102.86,0,6.72,0,8.53,1.87,8.54,8.59,.02,23.3,.02,46.6,0,69.9,0,7.01-1.82,8.81-8.81,8.82Zm138.99-8.46c0,6.91-1.6,8.46-8.55,8.46-17,.01-33.99,0-50.99,0-17.33,0-34.66,.01-51.99,0-6.03,0-8.03-1.98-8.03-8.1-.02-23.49-.02-46.99,.02-70.48,.01-7.21,1.58-8.74,8.89-8.74,33.99-.02,67.98-.02,101.97,0,7.17,0,8.67,1.56,8.67,8.87,.01,23.33,.01,46.66,0,69.98Zm130.5,.42c-.01,6.06-2.09,8.03-8.13,8.04-17.33,.02-34.66,0-51.99,0-17.16,0-34.33,.01-51.49,0-6.18,0-8.01-1.83-8.01-8.03-.02-23.83-.02-47.66,0-71.49,0-5.84,1.88-7.79,7.75-7.79,34.66-.04,69.32-.04,103.98,0,5.81,0,7.86,2,7.88,7.79,.06,23.83,.06,47.66,0,71.49Zm130.28,.42c0,5.61-2.14,7.6-7.97,7.61-17.31,.03-34.62,.01-51.93,0-17.14,0-34.29,.01-51.43,0-6.35,0-8.4-1.97-8.42-8.28-.04-23.63-.04-47.27,0-70.9,.01-6.01,2.09-8.13,8.07-8.14,34.62-.04,69.24-.04,103.86,0,5.77,0,7.8,2.08,7.81,7.79,.03,23.97,.04,47.93,0,71.9Zm90.57,52.62c-24.7-10.4-49.37-20.86-74.13-31.11-4.11-1.7-5.84-3.97-5.76-8.53,.26-14.31,.09-28.63,.09-42.95h-1.13c0-14.32,0-28.64,0-42.96,0-5.38,1.24-6.75,6.78-6.76,23.31-.04,46.63-.04,69.94-.01,5.78,0,6.92,.97,7.31,6.97,.8,12.29,1.41,24.59,2.07,36.89,1.46,27.26,2.97,54.51,4.32,81.78,.43,8.61-1.71,9.97-9.5,6.69Z"/>
  </g>
</svg>
