<?xml version="1.0" encoding="UTF-8"?>
<svg id="Layer_2" data-name="Layer 2"  xmlns="http://www.w3.org/2000/svg" viewBox="0 0 168.12 115.67">
  <defs>
    <style>
      .cls-1 {
        fill: #8e99ad;
      }
    </style>
  </defs>
  <g id="Layer_1-2" data-name="Layer 1">
    <path class="cls-1"  d="M149.08,62.02c-9.82-3.42-18.62,1.18-27.82,2.63-1.56,.24-2.72,1.94-4.86,1.7,1.79-1.52,2.76-3.22,3.54-5.07,1.01-2.39,1.95-4.82,3.14-7.12,.88-1.7,3.55-3.36,4.21-2.04,1.23,2.49,2.55,1.27,3.85,1.06,3.8-.61,7.54-1.64,11.35-2.01,4.44-.43,9.04-3.49,13.4,.42,.35,.31,1.24,.19,1.82,.05,2.48-.62,3.46,.74,4.37,2.78,1.43,3.21,2.63,6.59,5.03,9.3-1.02-3.98-2.39-7.79-3.78-11.59-.55-1.51-.97-2.97-3.23-2.8-1.37,.1-2.1-.46-.52-1.93,.65-.61,.82-1.72,2.09-1.95,1.35-.24,1.15-1.4,1.01-2.4-.12-.84-.44-2.46-.8-2.22-2.15,1.41-3.64-1.38-5.76-.58-2.17,.82-4.62,.88-6.92,1.41-.98,.22-1.46-.1-1.58-.94-.13-.84,.59-.87,1.21-1,.99-.21,2.66,.14,2.54-1.38-.11-1.53-.41-3.51-2.07-4.15-5.96-2.32-12.62-3.8-17.86,.16-5.03,3.8-10.11,4.77-15.91,4.81-4.1,.03-8.21,.24-12.3,.58-3.24,.27-4.61,2.23-4.36,5.25,.26,3.25,2.03,3.68,4.73,2.95,.71-.19,1.72-.61,2.2,.69-.24,.23-.45,.62-.73,.67-9.13,1.79-18.26,3.55-27.4,5.29-1.11,.21-2.12,.1-3.18-.57-5.55-3.51-11.14-6.96-16.79-10.31-1.4-.83-1.38-1.51-.86-2.89,.67-1.78,1.85-4.68,1.11-5.44-2.76-2.82,.35-4.41,.73-6.49,.62-3.39,3.03-3.16,5.83-3.33,2.37-.14,4.78-.74,7.23-.7,1.01,.02,1.69-.46,1.65-1.55-.03-.84-.56-1.51-1.39-1.41-4.01,.5-8.01-2.09-12.53,.41,0-4.65,0-8.87,0-13.08,0-.83-.41-1.8,.74-2.21,.86-.3,1.25,.31,1.78,.9,1.85,2.07,4.03,1.52,6.08,.39,1.56-.86,2.31-5.55,1.06-7.16-1.77-2.27-3.52-.71-5.13,.42-4.02,2.82-6.98,6.09-5.85,11.63,.46,2.27,.1,4.7,.07,7.06,0,.71,.06,1.91-.28,2.07-3.73,1.7-4.63,5.66-6.9,8.5-.87,1.09-2.93,2.35-.6,4.27,.67,.55-.22,1.94-1.18,1.22-2.17-1.62-4.28-.18-6.38-.25-3-.1-4.78,3.31-2.54,5.26,2.52,2.18,1.15,3.67,.32,5.56-.49,1.1-1.4,2.53,.46,2.98,2.91,.7,1.85,2.14,1.06,3.73-.99,2-1.93,4.01-2.84,6.04-.56,1.26-1.04,1.78-2.75,1.33-9.37-2.51-17.88-2.37-25.76,5.12C2.31,74.17-1.81,83.13,.76,94.63c3.27,14.65,18.25,23.73,33.13,20.27,15.72-3.65,23.28-19.76,21.47-32.72-1.08-7.74-5.61-13.67-12.12-17.95-1.65-1.08-2.2-1.9-1.05-3.7,1.05-1.66,1.81-3.52,2.62-5.32,.5-1.11,1.06-1.63,2.2-.72,1.42,1.13,2.58,1.24,3.4-.76,.35-.86,1.13-.42,1.89-.2,2.74,.8,3.02,2.81,3.01,5.19,0,2.37,9.48,10.28,11.74,9.92,.12-.02,.25-.07,.33-.16,3.18-3.37,4.3,.71,6.31,1.59-1.39,.24-2.74,.24-4.08,.24-1.6,0-3.81,.74-3.73,1.84,.28,4.09-1.84,4.9-5.2,6.32-3.44,1.46-1.84,9.82,1.72,11.5,1.13,.53,2.55,.56,2.87,2.44,1.05,6.16,1.14,6.15,6.7,3.21,.1-.05,.25-.03,.37-.04,.51-4.19,1.22-4.79,3.13-2.68,1.02,1.12,1.97,2.3,3.03,3.54-1.81,1.32-3.56-.58-5.26,.03,1.18,1.69,2.98,1.41,4.68,1.47,8.41,.3,16.78-.55,25.17-.78,6.67-.19,6.67-.02,6.74-6.78,0-.62,.01-1.24,0-1.86,0-1.34,1-1.62,1.99-1.75,1.47-.19,1.03,1,1.13,1.76,.16,1.23,.27,2.46,.44,3.69,1.85,13.2,13.33,23.29,26.69,23.45,13.92,.17,25.33-9.56,27.73-23.66,2.14-12.55-6.33-25.68-18.71-29.98ZM21.31,101.35c-.35,2.27-1.25,2.08-2.88,1.06-8.18-5.1-10.29-16.08-4.26-24.13,2.51,3.81,6.14,6.16,7.22,11.47,.85,4.2,.53,7.73-.07,11.61Zm.71-22.47c-1.38-1.49-4.6-2.93-3.81-4.37,1.13-2.06,4.25-2.66,7.16-2.89,1.82,0,3.47,1.25,5.3,1.92,.86,.32,.74,1.09,.36,1.86-.71,1.43-1.33,2.91-2,4.36-1.12,2.47-2.88,2.29-4.78,1.06-.82-.53-1.56-1.22-2.23-1.95Zm22.16,10.11c-.21,8.59-7.68,15.85-16.19,16.08-1.78,.05-2.59-.34-1.84-2.27,1.43-3.64,2.36-7.11,5.76-10.15,2.99-2.67,5.88-4.27,9.44-5.52,2.45-.86,3.23-.41,2.83,1.85Zm-1.87-8.82c.55,1.26-.16,1.55-1.06,1.74-2.87,.62-5.74,1.2-9.22,1.92,.95-1.94,1.49-3.33,2.26-4.57,.71-1.12,.58-3.37,2.55-3,2.28,.43,4.41,1.48,5.47,3.91Zm27.23-3.12c-1.27,.01-1.53-1.53-1.55-2.61-.04-1.64,1.35-1.27,2.17-1.04,2.47,.69,5.23,.13,7.8,1.8-2.69,2.78-5.7,1.82-8.42,1.84Zm11.65,18.66h7.52c-2.42,1.39-4.92,1.35-7.52,0Zm4.47-35.33c1.81-.42,3.42-.8,5.14-1.2q-1.52,4.36-5.14,1.2Zm6.42,1.18c.75-.89,1.8-.32,2.19,.33,1.23,2.04,3.5,2.86,5.2,4.45-2.22,1.07-7.44-.45-8.37-2.29-.6-1.18,.41-1.83,.98-2.5Zm6.77,33.96c-2.39,1.08-4.88,1.1-7.56,.25,2.25-.75,4.5-1.51,6.76-2.26,.61-.2,1.34-.38,1.66,.26,.37,.77-.11,1.42-.85,1.75Zm12.14-22.55c-.86,1.01-2.11,1.9-3.5,1.25-1.64-.77-3.12-1.87-4.74-2.87,2.55-2.85,5.33,.71,7.86-.6,.19-.1,1,1.51,.38,2.23Zm-4.43-8.68c-.59,.09-1.3,.14-1.82-.09-3.7-1.63-7.28-3.53-12.32-4.53,4.69-2.36,8.82-2.42,12.67-3.47,2.98-.82,6.04-1.62,9.1-1.78,2.86-.14,4.02-2.59,6.59-3.32-.53,1.08-1.1,2.15-1.58,3.25-3.79,8.53-3.83,8.58-12.64,9.93Zm41.79,8.98c1.77,.94,1.94,1.38,.52,3.08-3.28,3.95-7.67,5.82-12.37,6.09-3.4,.19-6.74-1.83-10.03-3.21,4.91-7.54,14.32-10,21.88-5.97Zm-8.08,31.75c-8.16-.03-16.01-7.18-16.41-14.68-.07-1.31-.35-2.32,1.78-2.1,5.4,.54,9.79,3.29,13.25,6.92,1.92,2.01,2.27,5.61,3.07,8.56,.44,1.6-1.09,1.16-1.69,1.3Zm7.03-1.75c-3.61-9.75-1.33-17.94,6.48-24.7,7.48,7.82,2.36,21.99-6.48,24.7Z"/>
  </g>
</svg>
