<?xml version="1.0" encoding="UTF-8"?>
<svg id="Layer_2" data-name="Layer 2" xmlns="http://www.w3.org/2000/svg" viewBox="0 0 167.63 111.9">
  <defs>
    <style>
      .cls-1 {
        fill: #ff7949;
      }
    </style>
  </defs>
  <g id="Layer_1-2" data-name="Layer 1">
    <path class="cls-1" d="M157.75,66.06c1.25-.68,2.28-1.26,3.55-1.15,2.84,.24,1.9-1.89,2.06-3.3,.19-1.74-.2-2.65-2.36-2.73-4.63-.16-9.23-.45-12.64-4.56-1.16-1.4-3.37-2.01-5.2-2.75-4.36-1.77-8.76-3.43-13.17-5.07-1.3-.48-1.69-.64-1.28-2.48,.89-4.05-.5-7.33-5.75-5.54-5.39,1.84-11.05,2.69-16.81,2.91-5.12,.19-10.19-.47-15.29-.38-5.51,.1-8.2,4.18-11.01,7.92-2.34,3.12,.67,4.59,2.3,6.62,5.25,6.51,7,13.45,1.88,20.97-.76,1.11-1.34,2.4-1.71,3.69-.61,2.1-1.96,2.94-4.04,3.15-6.55,.68-13.09,1.41-19.63,2.2-1.92,.23-3.09-.3-3.56-2.29-.76-3.25-1.83-6.43-2.45-9.7-2.3-12.12-2.96-24.11,3.35-35.46,1.55-2.8,3.53-5.7,3.93-8.73,.69-5.21,2.79-6.06,7.09-3.82,.74,.39,1.45,.08,1.92-.64,.57-.87,.02-1.53-.63-1.82-2.34-1.08-3.62-3.42-5.42-4.76-3.33-2.49-2.91-4.22-.95-7.03,1.54-2.21,2.63-4.07,5.09-.93,.82,1.05,2.3,1.87,3.13-.15,1.04-2.51-.88-8.33-3.08-9.81-1.23-.83-1.99-.33-1.95,.97,.08,3.01-.26,5.17-3,7.64-3.23,2.92-5.24,7.42-7.05,11.66-.35,.82-.23,2.32-1.52,2.24-1.55-.1-1.17-1.54-1.28-2.61-.48-4.88-3.74-7.74-8.65-7.88-2.01-.06-2.96,.4-2.83,2.64,.17,3.09,.04,6.21,.04,9.31,0,4.96,1.46,5.92,6.17,4.06,1.29-.51,2.36-1.31,3.34-2.28,1-.99,2.39-.04,2.14,.53-.6,1.4,0,4.3-3.05,3.56-3.14-.76-5.29,.75-7.14,2.92-3.33,3.89-6.02,8.19-7.82,12.99-.39,1.05-.57,2.07-1.67,2.74-4.73,2.92-4.89,5.9-.56,9.59,.6,.51,1.16,1.09,.99,1.86-.28,1.25-1.41,.73-2.17,.73-3.86-.03-7.7,.21-11.52,.81-7.04,1.1-12.25,4.75-16.23,11.18h5.91C3.92,77.83,.44,83.17,.03,90.14c-.65,11.12,8.17,21.06,19.09,21.65,11.8,.64,21.41-8.07,22-19.88,.04-.83-.73-2.16,.76-2.46,1.28-.25,2.05,.67,2.59,1.72,.34,.66,.8,1.29,.96,1.99,.87,3.96,3.44,5.43,7.31,5.3,11.19-.38,22.39-.55,33.57-1.09,4.19-.2,8.46,.21,12.57-1.01,1.56-.46,1.23,.85,1.45,1.48,.8,2.26,2.46,3.19,4.72,3.64,4.45,.89,8.93,.63,13.39,.57,2.6-.04,4.43,.49,6.32,2.67,5.63,6.46,12.97,8.65,21.22,6.19,7.9-2.36,12.95-7.9,14.35-16,1.43-8.22-1.42-15.11-8.15-20.29-.74-.57-1.94-.65-2.17-1.83,4.03-.5,7.14,.66,9.29,4.36,1.17,2.01,2.83,3.78,4.43,5.5,1.17,1.25,1.88,3.15,3.89,3.53-1.05-7.9-5.53-13.94-9.88-20.13ZM20.61,78.82c1.6-.2,1.38,1.11,1.18,2.03-.36,1.66,1,4.39-1.44,4.71-2.16,.28-.13-2.25-1.23-3.05,.8-1.3-1.05-3.37,1.49-3.69Zm-6.57,1.74c1.9-1.26,3.05-1.64,3.28,1.58,.41,5.6-2.81,10.43-9,11.72-.93-5.84,1.02-10.18,5.72-13.3Zm-3.72,17.73c-.66-.44-1.56-1.44-.83-1.99,1.62-1.23,3.47-2.19,5.35-2.99,.89-.38,.9,.9,1.31,1.41-.01,.8-5.16,4.01-5.82,3.57Zm1.99,2.21c4.44-5.11,11.43-5.4,16.61-.14-5.03,4.69-11.26,4.74-16.61,.14Zm18.11-2.07c-.71,.03-5.54-3.28-5.38-3.76,.23-.66,.41-1.46,1.57-1.46,1.42,1.53,4.23,1.38,5.13,3.76,.14,.36-.36,1.42-1.32,1.47Zm2.33-4.6c-9.36-3.37-8.7-5.17-3.14-11.16,3.12,3.16,4.01,6.87,3.14,11.16Zm106.12-12.91c-.23-.86-.44-2.17,1.18-2.09,2.89,.15,.57,2.36,1.56,3.27-1.02,1.16,.97,3.85-1.58,3.46-2.47-.38-.73-3.05-1.16-4.64Zm-6.82,.74c1.26-.95,2.92-2.75,4.1-1.86,1.38,1.04,.58,3.43,.59,5.24,0,1.22-.92,.89-1.59,.71-1.66-.44-3.3-.95-5.5-1.6,1.04-1.09,1.64-1.9,2.41-2.49Zm-.54,18.21c5.96,.26,11.41-2.79,17.49,.14-6.05,5.04-12.57,4.96-17.49-.14Zm20-13.58c-.85,.18-1.55,.33-2.25,.47-5.95,1.25-6.41,.78-5.92-5.16,.2-2.46,1.21-2.29,2.82-1.35,2.39,1.4,4.34,3.18,5.35,6.04Z"/>
  </g>
</svg>
