<svg xmlns="http://www.w3.org/2000/svg" xmlns:xlink="http://www.w3.org/1999/xlink" width="500" height="500" shape-rendering="geometricPrecision" text-rendering="geometricPrecision" image-rendering="optimizeQuality" fill-rule="evenodd" clip-rule="evenodd"
viewBox="0 0 500 500">
    <defs>
        <path id="meg8i8425a" d="M0.293 0.584L150.368 0.584 150.368 98.87 0.293 98.87z"/>
        <path id="6vhh27jmjc" d="M0 0.066L244.334 0.066 244.334 108.811 0 108.811z"/>
    </defs>
    <g fill="none" fill-rule="evenodd">
        <path d="M0 0H500V500H0z"/>
        <g transform="translate(38 213)">
            <path fill="#070707" d="M242.119 85.985c-2.756 2.66-2.834 7.05-.173 9.805l12.65 13.093c2.66 2.755 7.052 2.831 9.81.17l12.475-12.039c2.756-2.66 2.834-7.049.173-9.804l-12.649-13.093c-2.661-2.754-7.053-2.831-9.81-.172l-12.476 12.04zM370 109.111c0 3.804 3.098 6.889 6.919 6.889h18.161c3.822 0 6.92-3.085 6.92-6.889V91.89c0-3.804-3.098-6.889-6.92-6.889H376.92c-3.821 0-6.919 3.085-6.919 6.889v17.222z"/>
            <g transform="translate(252 4)">
                <mask id="5wgbdsbvpb" fill="#fff">
                    <use xlink:href="#meg8i8425a"/>
                </mask>
                <path fill="#029FBB" d="M.307 70.442c.654-15.858 12.865-6.82 9.595-16.105C6.633 45.05-1.694 33.87 4.32 30.87c6.016-3 11.287-6.429 14.426-.857 2.28 4.049-.14-15.438 19.304-25.238 3.486-1.757 9.763 1.102 14.806 0C58.36 3.573 62.801.595 70.536.586c0 0-19.874-.002 0-.002h38.124c16.34 12 21.499 38.143 21.499 38.143s20.21 6 20.21 32.714V98.87H23.062S-.348 86.298.307 70.442" mask="url(#5wgbdsbvpb)"/>
            </g>
            <path fill="#029FBB" d="M376 40.143c0 3.787 3.07 6.857 6.857 6.857h11.286c3.787 0 6.857-3.07 6.857-6.857v-2.286c0-3.787-3.07-6.857-6.857-6.857h-11.286C379.07 31 376 34.07 376 37.857v2.286z"/>
            <path fill="#FFF" d="M286.434 68.88c12.349-.766 24.365-4.038 30.755-4.038h50.43c1.03-5.042 5.599-8.842 11.08-8.842C384.94 56 390 60.925 390 67c0 6.076-5.06 11-11.3 11-5.482 0-10.05-3.8-11.081-8.842h-50.143c-4.769 0-19.074 5.268-31.042 4.038-3.1-1.555-.246-3.538 0-4.317"/>
            <path fill="#FFF" d="M264.073 69.793c-.823 3.118 5.43 5.885 12.499 7.496 7.069 1.612 13.466.39 14.29-2.728.824-3.118-2.01-7.482-9.08-9.092-7.068-1.612-16.886 1.207-17.709 4.324M278.643 28.22c4.441-8.204 11.674-16.507 17.12-15.053 9.135 2.436 14.329-.717 25.582-1.721 11.251-1.004 34.333 0 37.94 0C369.527 24.206 374 41.409 374 41.409s-32.25-2.364-46.195.312c-13.945 2.677-19.777-15.19-51.185-.285-1.349-2.49-.417-8.71 2.023-13.216M353 93.707c0 .713.448 1.293 1 1.293s1-.58 1-1.293V79.293c0-.714-.448-1.293-1-1.293s-1 .579-1 1.293v14.414zM348 93.707c0 .713.448 1.293 1 1.293s1-.58 1-1.293V79.293c0-.714-.448-1.293-1-1.293s-1 .579-1 1.293v14.414zM342 93.707c0 .713.448 1.293 1 1.293s1-.58 1-1.293V79.293c0-.714-.448-1.293-1-1.293s-1 .579-1 1.293v14.414zM337 93.707c0 .713.448 1.293 1 1.293s1-.58 1-1.293V79.293c0-.714-.448-1.293-1-1.293s-1 .579-1 1.293v14.414zM331 93.707c0 .713.448 1.293 1 1.293s1-.58 1-1.293V79.293c0-.714-.448-1.293-1-1.293s-1 .579-1 1.293v14.414zM324.68 92.864c.082.713.666 1.218 1.305 1.125.638-.093 1.088-.746 1.005-1.46l-1.67-14.393c-.082-.714-.666-1.218-1.304-1.125-.639.093-1.089.747-1.006 1.46l1.67 14.393zM319.74 92.874c.085.713.658 1.212 1.279 1.114.621-.099 1.056-.756.97-1.47l-1.728-14.392c-.085-.713-.66-1.212-1.28-1.113-.62.098-1.055.756-.97 1.468l1.728 14.393zM314.531 94.06c.174.67.857 1.072 1.528.9.67-.173 1.074-.855.901-1.525l-3.491-13.496c-.174-.669-.857-1.072-1.528-.9-.67.173-1.074.855-.901 1.525l3.491 13.497zM308.544 93.063c.173.668.855 1.07 1.522.896.667-.174 1.067-.857.894-1.526l-3.503-13.496c-.174-.668-.855-1.07-1.522-.896-.668.174-1.068.857-.895 1.526l3.504 13.496zM304.752 96.175c.231.665.905.995 1.504.738.6-.257.897-1.005.666-1.67l-4.673-13.417c-.232-.665-.905-.996-1.505-.739-.6.258-.897 1.005-.666 1.67l4.674 13.418z"/>
            <mask id="nnyq2uv7bd" fill="#fff">
                <use xlink:href="#6vhh27jmjc"/>
            </mask>
            <path fill="#F89C1B" d="M31.622 65.596s-17.23-4.978-21.159-7.652C6.535 55.27-1.807 51.016.351 44.25c2.157-6.766 2.362-14.113 10.97-13.5-3.417-3.23-.329-23.984 9.704-23.398 10.034.586 11.888 2.392 34.656-2.407 22.767-4.8 93.16-3.471 110.059 8.93 12.082 8.866 19.98 14.554 23.626 17.109 3.645 2.556 14.732 5.562 14.732 5.562s14.496-25.115 17.034-24.371c2.54.745 16.484 8.13 16.823 4.934L239.759.066l4.575.478s-1.582 21.525-2.783 23.547c-1.2 2.023-17.548-5.968-19.532-6.638-1.984-.67-11.495 17.33-12.49 19.66-.994 2.33 4.621 13.695 4.621 13.695s18.451.473 16.795 2.463c-1.657 1.991 2.073 10.441.946 12.898-1.127 2.459 5.039 5.975 6.99 9.913 1.95 3.938-1.404 29.11-3.368 31.796-1.964 2.685-12.24-1.28-12.24-1.28s2.016-29.954-10.806-28.984c-12.822.971-18.901 20.152-18.901 20.152l-10.547-4.127-18.616 1.08L78.68 77.09 31.622 65.596z" mask="url(#nnyq2uv7bd)"/>
            <path fill="#F3F3F3" d="M31.134 57.488c-1.388 13.181 8.173 24.99 21.355 26.378 13.18 1.387 24.99-8.174 26.377-21.355 1.388-13.181-8.174-24.99-21.355-26.377-13.18-1.387-24.99 8.173-26.377 21.354"/>
            <path fill="#F0F0F0" d="M73 22.639L129.194 35s5.25-9.022 6.806-23.954C85.23 2.687 73 22.64 73 22.64"/>
            <path fill="#F3F3F3" d="M144.133 14C143.38 21.145 139 38.315 139 38.315s28.365 2.578 42.363 7.93c13.997 5.352 21.775 7.135 23.637.311-3.248-4.754-5.173-3.805-15.21-9.724-10.036-5.92-29.645-18.09-45.657-22.832"/>
            <path fill="#231F20" d="M43.78 58.82c-.314 2.997.556 5.936 2.452 8.278 1.895 2.342 4.59 3.806 7.587 4.121.398.043.802.063 1.2.063 5.778 0 10.593-4.343 11.199-10.102.316-2.996-.555-5.936-2.451-8.279-1.896-2.342-4.59-3.805-7.587-4.12-.398-.041-.803-.063-1.2-.063-5.779 0-10.593 4.343-11.2 10.102m9.021 22.064c-5.577-.587-10.593-3.312-14.122-7.671-3.528-4.36-5.149-9.832-4.561-15.411C35.245 47.084 44.214 39 54.979 39c.736 0 1.482.039 2.218.116 5.578.588 10.593 3.312 14.122 7.671 3.53 4.36 5.15 9.832 4.563 15.411C74.752 72.916 65.784 81 55.02 81c-.736 0-1.482-.039-2.218-.116M209.513 84.734c-3.42 2.941-6.687 4.616-9.313 5.962-1.266.65-2.978 1.527-3.439 2.02-.005.17.017.624.283 1.503 1.436 4.731 5.894 8.037 10.841 8.037 1.109 0 2.216-.165 3.291-.49 2.897-.875 5.28-2.824 6.709-5.489 1.429-2.663 1.732-5.722.855-8.614-.45-1.48-1.818-4.92-4.83-4.92-1.361 0-2.882.689-4.397 1.99m-21.814 12.31c-2.86-9.427 3.7-12.79 8.04-15.014 2.278-1.168 4.86-2.491 7.4-4.677C206.453 74.505 210.178 73 213.91 73c6.528 0 11.959 4.536 14.174 11.839 1.634 5.383 1.069 11.078-1.59 16.036-2.659 4.958-7.094 8.586-12.488 10.216-1.993.603-4.053.909-6.12.909-9.36 0-17.472-6.012-20.187-14.958"/>
        </g>
    </g>
</svg>
