<svg xmlns="http://www.w3.org/2000/svg" xmlns:xlink="http://www.w3.org/1999/xlink" width="500" height="500" viewBox="0 0 500 500">
    <defs>
        <path id="nk4znojzga" d="M0.387 0.821L47.798 0.821 47.798 46.951 0.387 46.951z"/>
        <path id="qfton6jp8c" d="M0.177 0.825L223.798 0.825 223.798 147.757 0.177 147.757z"/>
        <path id="6ipqjo2hge" d="M0.025 0.88L28.668 0.88 28.668 14 0.025 14z"/>
    </defs>
    <g fill="none" fill-rule="evenodd">
        <path d="M0 0H500V500H0z"/>
        <g>
            <path fill="#FCAF13" d="M0 0L0 247 13 247 266 247 279 247 279 0z" transform="translate(49 97)"/>
            <path fill="#FFF" d="M27 140L120 140 120 90 27 90zM148 140L241 140 241 90 148 90zM27 251L120 251 120 150 27 150zM148 200L241 200 241 150 148 150z" transform="translate(49 97)"/>
            <text fill="#070707" font-family="BalooBhaijaan-Regular, Baloo Bhaijaan" font-size="24.246" font-weight="600" transform="translate(49 97)">
                <tspan x="27" y="37">Insu</tspan> <tspan x="74.571" y="37" letter-spacing="-.366">r</tspan> <tspan x="83.806" y="37">an</tspan> <tspan x="111.131" y="37" letter-spacing="-.364">c</tspan> <tspan x="122.26" y="37">e </tspan> <tspan x="140.42" y="37" letter-spacing="-.315">C</tspan> <tspan x="153.634" y="37">om</tspan> <tspan x="188.355" y="37" letter-spacing=".048">p</tspan> <tspan x="202.636" y="37">a</tspan> <tspan x="215.825" y="37" letter-spacing="-.315">n</tspan> <tspan x="229.33" y="37">y</tspan>
            </text>
            <g>
                <path fill="#070707" d="M84.03 167.446c-4.071 3.934-4.186 10.423-.254 14.496l18.69 19.358c3.933 4.073 10.423 4.186 14.497.254l18.435-17.8c4.072-3.933 4.187-10.422.255-14.495l-18.69-19.358c-3.933-4.073-10.423-4.187-14.496-.256L84.03 167.446z" transform="translate(49 97) translate(85 90)"/>
                <g transform="translate(49 97) translate(85 90) translate(275 165)">
                    <mask id="prgmiggegb" fill="#fff">
                        <use xlink:href="#nk4znojzga"/>
                    </mask>
                    <path fill="#070707" d="M.387 36.7c0 5.661 4.59 10.251 10.251 10.251h26.908c5.662 0 10.252-4.59 10.252-10.25V11.071c0-5.66-4.59-10.25-10.252-10.25H10.638c-5.66 0-10.25 4.59-10.25 10.25V36.7z" mask="url(#prgmiggegb)"/>
                </g>
                <g transform="translate(49 97) translate(85 90) translate(99 45)">
                    <mask id="uqilsgwmmd" fill="#fff">
                        <use xlink:href="#qfton6jp8c"/>
                    </mask>
                    <path fill="#029FBB" d="M.197 105.258c.974-23.706 19.17-10.194 14.298-24.076C9.624 67.3-2.785 50.586 6.177 46.101c8.964-4.485 16.818-9.611 21.496-1.281 3.398 6.052-.21-23.08 28.763-37.73 5.195-2.626 14.548 1.648 22.063 0C86.698 5.293 93.317.84 104.843.827c0 0-29.614-.002 0-.002h56.808c24.347 17.94 32.034 57.022 32.034 57.022s30.114 8.97 30.114 48.905v41.005H34.103S-.778 128.963.197 105.258" mask="url(#uqilsgwmmd)"/>
                </g>
                <path fill="#029FBB" d="M284 98.903c0 5.661 4.59 10.25 10.252 10.25h16.87c5.661 0 10.251-4.589 10.251-10.25v-3.418c0-5.662-4.59-10.25-10.25-10.25h-16.871c-5.661 0-10.252 4.588-10.252 10.25v3.418z" transform="translate(49 97) translate(85 90)"/>
                <path fill="#FFF" d="M149.812 141.821c18.437-1.174 36.377-6.192 45.916-6.192h75.289c1.539-7.734 8.359-13.562 16.543-13.562 9.317 0 16.871 7.554 16.871 16.871 0 9.32-7.554 16.872-16.871 16.872-8.184 0-15.004-5.829-16.543-13.56h-74.861c-7.119 0-28.476 8.078-46.344 6.192-4.627-2.385-.366-5.426 0-6.62" transform="translate(49 97) translate(85 90)"/>
                <path fill="#FFF" d="M117.721 142.288c-1.194 4.868 7.876 9.19 18.128 11.704 10.253 2.517 19.531.61 20.726-4.26 1.195-4.868-2.916-11.682-13.169-14.197-10.25-2.517-24.49 1.885-25.685 6.753M138.494 82.559c6.575-12.221 17.282-24.59 25.346-22.424 13.522 3.63 21.21-1.068 37.869-2.563 16.657-1.495 50.827 0 56.166 0 15.163 19.007 21.784 44.634 21.784 44.634s-47.741-3.521-68.386.466c-20.644 3.987-29.278-22.63-75.773-.426-1.997-3.71-.618-12.973 2.994-19.687M248.316 178.52c0 1.033.837 1.87 1.87 1.87 1.032 0 1.87-.837 1.87-1.87v-20.84c0-1.032-.838-1.87-1.87-1.87-1.033 0-1.87.838-1.87 1.87v20.84zM240.434 178.52c0 1.033.837 1.87 1.87 1.87 1.032 0 1.87-.837 1.87-1.87v-20.84c0-1.032-.838-1.87-1.87-1.87-1.033 0-1.87.838-1.87 1.87v20.84zM232.552 178.52c0 1.033.838 1.87 1.87 1.87s1.87-.837 1.87-1.87v-20.84c0-1.032-.838-1.87-1.87-1.87s-1.87.838-1.87 1.87v20.84zM224.671 178.52c0 1.033.837 1.87 1.87 1.87 1.032 0 1.87-.837 1.87-1.87v-20.84c0-1.032-.838-1.87-1.87-1.87-1.033 0-1.87.838-1.87 1.87v20.84zM216.79 178.52c0 1.033.837 1.87 1.87 1.87 1.032 0 1.87-.837 1.87-1.87v-20.84c0-1.032-.838-1.87-1.87-1.87-1.033 0-1.87.838-1.87 1.87v20.84zM207.548 176.395c.133 1.024 1.07 1.748 2.095 1.615 1.024-.134 1.747-1.071 1.614-2.095l-2.68-20.666c-.133-1.025-1.07-1.75-2.094-1.615-1.025.133-1.748 1.072-1.615 2.096l2.68 20.665zM199.266 176.399c.141 1.024 1.085 1.739 2.108 1.598 1.023-.141 1.74-1.084 1.598-2.108l-2.847-20.645c-.14-1.023-1.085-1.74-2.108-1.597-1.022.14-1.738 1.085-1.598 2.107l2.847 20.645zM191.388 180.247c.258 1 1.277 1.602 2.277 1.345 1-.259 1.602-1.279 1.344-2.28l-5.206-20.177c-.258-1-1.277-1.602-2.278-1.344-.999.257-1.6 1.277-1.343 2.278l5.206 20.178zM182.808 178.085c.26 1 1.281 1.6 2.28 1.34 1-.26 1.6-1.28 1.34-2.28l-5.248-20.169c-.26-.999-1.28-1.6-2.28-1.34-1 .261-1.599 1.281-1.34 2.281l5.248 20.168zM176.417 182.79c.373.963 1.457 1.441 2.42 1.07.964-.373 1.442-1.456 1.07-2.42l-7.516-19.437c-.371-.963-1.454-1.442-2.418-1.07-.965.373-1.444 1.456-1.072 2.42l7.516 19.437z" transform="translate(49 97) translate(85 90)"/>
                <path fill="#A5BDC6" d="M9.577 215.581l.598-1.545c-.13-.034-.258-.07-.386-.103l-.008-14.685c-.004-6.414.308-12.585.874-18.939.53-5.96 1.364-12.056 1.364-18.083.312-3.959.623-7.919.847-11.889.505-8.956-2.007-21.417-1.62-30.382.192-4.467 3.036-5.458 3.485-9.892.218-2.152.46-4.309.789-6.435.119-.772.078-1.893.75-1.967.152-.017.473.975.892.988 9.682.304 19.82-2.152 29.302.536.056 36.535-1.987 77.04-5.161 113.317h-.691c1.887 1.607 4.016 2.932 6.307 3.88.565.233 1.157.456 1.595.885.912.893.766 2.615-.283 3.342-.981.682-2.304.453-3.471.197l-9.946-2.187c-.606-.133-1.253-.288-1.675-.744-.51-.55-.548-1.373-.56-2.123l-.047-3.256h-.31c-2.468-19.71-1.756-38.389-2.358-58.146-1.106 9.195-3.21 14.47-5.423 25.925-1.022 5.294-2.223 10.483-3.09 15.83-.441 2.73-.918 5.45-1.445 8.15-.455 2.323-1.287 4.747-1.223 7.166-.165.028-.331.032-.497.05 1.157 2.237 2.656 4.297 4.453 6.06.437.428.903.856 1.148 1.417.51 1.17-.268 2.712-1.514 2.995-1.164.264-2.306-.443-3.292-1.117l-8.404-5.75c-.513-.35-1.055-.736-1.275-1.317-.267-.7.005-1.479.275-2.178" transform="translate(49 97) translate(85 90)"/>
                <path fill="#49736E" d="M42.827 42.667c2.25-.237 4.528-1.055 6.719-.487 4.338 1.125 5.562 6.6 5.942 11.064 2.809 33.033 3.643 66.235 2.498 99.368-.073 2.12-.273 4.498-1.886 5.876-1.105.945-2.63 1.187-4.07 1.372-15.604 2.006-31.512 1.642-47.01-1.076C1.495 126.47-2.02 93.63 3.68 61.626c.896-5.037 2.059-10.136 4.693-14.522 2.633-4.387 6.98-8.012 12.062-8.607 7.607-.889 14.776 4.974 22.392 4.17" transform="translate(49 97) translate(85 90)"/>
                <path fill="#666" d="M73.975 53.147c-1.138-1.743-2.337-3.467-3.189-5.372-.395-.88.904-1.55 1.342-.678.935 1.863 1.713 3.784 2.755 5.59.333.578-.557.998-.908.46M77.206 52.334c.496-1.648 1.229-3.144 2.34-4.467.622-.739 1.899.024 1.295.838-.97 1.304-1.87 2.661-2.593 4.12-.3.603-1.225.115-1.042-.49M79.825 54.76c1.502-1.647 3.545-2.98 5.377-4.236.787-.54 1.807.517 1.016 1.14-1.786 1.407-3.725 3.012-5.796 3.975-.577.268-.995-.441-.597-.878" transform="translate(49 97) translate(85 90)"/>
                <path fill="#E7E7E7" d="M31.865 62.542c-5.06-8.294-8.63-17.493-10.486-27.029 8.117 4.454 17.736 6.108 26.875 4.625l-16.39 22.404" transform="translate(49 97) translate(85 90)"/>
                <path fill="#A5BDC6" d="M53.338 53.02c.1-3.19-.556-6.4-1.895-9.297-.83-1.796-2.764-3.723-4.482-2.741-5.893 7.195-11.497 14.63-16.79 22.278 5.755-3.097 11.836-5.59 18.11-7.425-1.047-1.241-2.405-2.216-3.915-2.813l8.972-.002" transform="translate(49 97) translate(85 90)"/>
                <path fill="#A5BDC6" d="M26.439 42.844c3.773 5.997 5.505 13.253 4.848 20.307-3.89-3.91-8.762-6.832-14.041-8.423.544-3.406 3.649-6.227 7.092-6.442-3.13-.36-6.292-.448-9.438-.262.258-2.765.558-5.656 2.089-7.972 1.529-2.316 4.712-3.797 7.168-2.502.012 1.95 1.245 3.644 2.282 5.294" transform="translate(49 97) translate(85 90)"/>
                <path fill="#070707" d="M34.283 61.637c-.835 11.203.044 22.532 2.595 33.473l29.115-2.784c4.452-.425 8.985-.871 13.103-2.616.626-9.766.313-19.593-.933-29.3-13.688.65-27.375 1.3-41.063 1.952-1.004.047-2.158.035-2.817-.725" transform="translate(49 97) translate(85 90)"/>
                <path fill="#E8CEB3" d="M50.127 86.175c.174-.394.306-.809.403-1.234.143.391-1.282 3.217-.403 1.234" transform="translate(49 97) translate(85 90)"/>
                <path fill="#F0DED1" d="M28.576 38.337c-1.206-1.677-1.991-3.899-2.16-6.565-.311-4.922-.054-10.017 1.966-14.516 2.325-5.182 8.24-10.336 14.382-9.013 7.194 1.551 6.724 10.827 6.232 16.991-.392 4.9-2.15 9.872-5.773 13.191-5.413 4.957-11.481 4.316-14.647-.088" transform="translate(49 97) translate(85 90)"/>
                <path fill="#070707" d="M28.216 30.114c-1.086.964-2.802.982-3.906.043-1.105-.939-1.484-2.739-.863-4.099-1.836-1.575-2.215-4.777-.804-6.798-1.777-.642-1.73-3.334-1.334-5.305l.445-2.216c.172-.855.345-1.712.574-2.552.301-1.098.725-2.208 1.52-2.97.521-.5 1.743-.33 1.46.358-.609-1.675.568-3.605 2.098-4.326 1.532-.723 3.281-.562 4.944-.388.492-.936 1.621-1.263 2.618-1.186.998.075 1.958.456 2.954.55C39.79 1.401 41.6.57 43.446.226c1.85-.342 4.094.02 4.998 1.788.228.45.018 1.293-.404 1.055 1.383-.034 2.89.628 3.442 1.991.55 1.365-.404 3.3-1.782 3.176 1.395-.206 3.007.418 3.536 1.822.53 1.404-.693 3.328-2.048 2.92.361-.283.9.18.885.658-.014.481-.373.866-.743 1.133-1.914 1.382-4.824.761-6.103-1.302-.392 1.173-1.769 1.668-2.9 1.402-1.13-.267-2.066-1.092-2.955-1.89-1.74 1.145-4.079 1.143-5.819-.004-.188 1.154-1.544 1.884-2.515 1.354.065 1.21.13 2.417.193 3.626-.479.017-.957.036-1.436.054 1.19.765 1.892 2.324 1.713 3.802-.452.423-1.124 0-1.685-.228-1.45-.59-3.272.602-3.453 2.26-.18 1.658 1.335 3.271 2.874 3.058-1.359.047-2.072 2.275-1.028 3.212" transform="translate(49 97) translate(85 90)"/>
                <path fill="#F0DED1" d="M49.532 81.689c-1.074-1.403-3.432-1.526-5.401-1.35-5.91.535-11.638 2.42-16.411 5.407l3.312 8.944c5.482-1.776 10.679-4.183 15.398-7.13 2.26-1.411 4.626-3.88 3.102-5.871" transform="translate(49 97) translate(85 90)"/>
                <path fill="#292C47" d="M40.794 213.174s2.533 3.04 4.983 4.365c2.45 1.325 6.3 1.85 7.748 3.222 1.047.99 3.81 5.253-6.367 5.167-10.175-.086-15.081.601-16.172-1.032-1.09-1.635 1.579-12.065 1.579-12.065s2.41.867 8.229.343" transform="translate(49 97) translate(85 90)"/>
                <g transform="translate(49 97) translate(85 90) translate(8 212)">
                    <mask id="2buwr8z6gf" fill="#fff">
                        <use xlink:href="#6ipqjo2hge"/>
                    </mask>
                    <path fill="#292C47" d="M10.093 1.222s2.533 3.04 4.983 4.365C17.526 6.91 26.542 8 27.991 9.372c1.046.99 2.786 4.976-11.533 4.604-10.172-.266-15.082.6-16.172-1.032C-.804 11.309 1.864.88 1.864.88s2.27.926 8.23.342" mask="url(#2buwr8z6gf)"/>
                </g>
            </g>
        </g>
    </g>
</svg>
