<svg xmlns="http://www.w3.org/2000/svg" xmlns:xlink="http://www.w3.org/1999/xlink" width="500" height="500" viewBox="0 0 500 500">
    <defs>
        <path id="wyiq66bt5a" d="M0 306.666L305 306.666 305 0.387 0 0.387z"/>
        <path id="efdl7pr33c" d="M19.23.116C8.75.116.257 8.536.257 18.92v57.112c0 10.385 8.494 18.805 18.973 18.805h97.52c10.479 0 18.973-8.42 18.973-18.805V18.92c0-10.385-8.494-18.804-18.973-18.804H19.23z"/>
        <linearGradient id="zpivbvyqjd" x1="0%" x2="100%" y1="49.999%" y2="49.999%">
            <stop offset="0%" stop-color="#FD9D54"/>
            <stop offset="100%" stop-color="#FED054"/>
        </linearGradient>
    </defs>
    <g fill="none" fill-rule="evenodd">
        <path d="M0 0H500V500H0z"/>
        <g>
            <path fill="#E1D1C9" d="M148 131.5L208 131.5 208 127.5 148 127.5z" transform="translate(93 102)"/>
            <path fill="#6F6865" d="M195 301.5L200 301.5 200 140.5 195 140.5z" transform="translate(93 102)"/>
            <path fill="#CBBCB6" d="M116 133.5L158 133.5 158 128.5 116 128.5z" transform="translate(93 102)"/>
            <path fill="#FEA955" d="M129 131.5L145 131.5 145 83.5 129 83.5z" transform="translate(93 102)"/>
            <path fill="#B48F74" d="M0 140.5L231 140.5 231 131.5 0 131.5z" transform="translate(93 102)"/>
            <g transform="translate(93 102) translate(0 .5)">
                <path fill="#1E75C2" d="M273.626 75.983s2.51 35.188-4.37 39.398c-4.308 2.638-21.493 11.537-20.983 13.204.508 1.67 9.702 14.847 9.702 14.847s33.008-21.722 34.073-28.566c1.039-6.688-1.626-51.52-6.161-53.585-3.4-1.548-5.194-.268-9.475 2.91-6.01 4.458-2.786 11.792-2.786 11.792"/>
                <path fill="#E9D7CE" d="M213.469 86.03l-2.91-1.077s3.63-8.51 5.213-8.301c1.824.237 4.1.838 4.1.838l-6.403 8.54z"/>
                <path fill="#D89A5B" d="M212.805 87.497c.372-.275 6.183-11.42 6.183-11.42l12.42 1.688-6.71 13.198-11.893-3.466z"/>
                <path fill="#424773" d="M233.015 279.324s1.028 7.12 1.155 8.19c.128 1.07 11.418-.63 11.418-.63l.915-8.477s-12.076-.088-13.488.917"/>
                <path fill="#292C47" d="M234.05 286.608s-3.578 4.29-7.036 6.16c-3.46 1.87-8.897 2.61-10.943 4.546-1.477 1.397-5.378 7.413 8.99 7.291 14.37-.121 21.297.85 22.837-1.456 1.538-2.306-2.228-17.023-2.228-17.023s-3.404 1.223-11.62.482"/>
                <path fill="#424773" d="M160.683 279.392s1.028 7.12 1.155 8.188c.128 1.071 11.417-.63 11.417-.63l.915-8.475s-12.075-.088-13.487.917"/>
                <path fill="#292C47" d="M161.718 286.676s-3.578 4.29-7.036 6.16c-3.46 1.869-16.192 3.406-18.238 5.34-1.477 1.399-3.934 7.023 16.285 6.497 14.365-.374 21.297.85 22.837-1.456 1.538-2.308-2.228-17.024-2.228-17.024s-3.207 1.307-11.62.483"/>
                <path fill="#00B4B6" d="M269.429 156.341s-41.044 6.941-50.315 8.396c-9.27 1.454-59.538 13.954-65.823 17.763-5.004 3.032 2.624 75.845 4.406 103.627h19.8l1.434-83.334c23.758.594 40.712-5.554 58.014-2.928 17.3 2.626 31.724 6.36 42.718-8.378 0 0 .407-31.927-10.234-35.146"/>
                <path fill="#00B4B6" d="M228.973 286.194L248.267 285l1.88-82.208c10.229.256 13.735-.392 22.012-1.397l15.578-36.184c-13.653 2.726-57.395 13.754-63.227 17.288-5.004 3.033 2.68 75.912 4.463 103.694"/>
                <path fill="#EDA685" d="M250.534 2.593s-15.045-4.156-20.786 7.515c-5.74 11.674-3.138 33.803 4.445 35.884 7.584 2.081 18.49-.316 21.637-7.58 3.147-7.266 5.66-17.588 4.905-24.272-.754-6.687-6.204-9.95-10.2-11.547"/>
                <path fill="#EDA685" d="M238.125 43.663s.166 8.877-.814 10.77c-.98 1.892 20.951 1.417 20.951 1.417s-3.456-10.66-1.495-19.742c1.94-8.99-18.642 7.555-18.642 7.555"/>
                <path fill="#3A3F47" d="M257.949 32.746s-1.173 2.382-6.85 1.999c-5.676-.386-13.164-7.23-15.573-7.84-2.41-.611-2.553-1.983-2.553-1.983l-1.277 2.266-2.47.376s1.68-6.858-1.976-9.274c-3.657-2.416 1.646-21.868 20.157-17.176 0 0 14.127 2.585 14.316 10.47.19 7.881-1.033 16.987-3.774 21.162"/>
                <path fill="#1E75C2" d="M236.158 54.205s.06-3.617 1.701-3.964c1.64-.346 17.24-2.49 19.253-1.7l.863 4.775s-3.879 2.386-21.817.889"/>
                <path fill="#EDA685" d="M231.644 23.306c.421-2.965 3.793-6.368 5.725-1.751 1.93 4.615-1.305 11.338-3.471 10.976-2.166-.36-2.824-5.204-2.254-9.225"/>
                <path fill="#313657" d="M170.82 96.926c.008-.003.016-.005.027-.002-.114.048-.128.054-.027.002"/>
                <path fill="#3A3F47" d="M254.924 4.71s18.345-.864 3.202 27.755L254.924 4.71z"/>
                <path fill="#908682" d="M295.8 295.946L294.434 299.781 236.771 281.925 239.534 274.159z"/>
                <mask id="o8wxjaaq9b" fill="#fff">
                    <use xlink:href="#wyiq66bt5a"/>
                </mask>
                <path fill="#908682" d="M234.794 279.194L241.348 279.194 241.348 216.544 234.794 216.544z" mask="url(#o8wxjaaq9b)"/>
                <path fill="#5E5854" d="M218.741 216.906L257.399 216.906 257.399 213.214 218.741 213.214z" mask="url(#o8wxjaaq9b)"/>
                <path fill="#908682" d="M179.835 295.946L181.2 299.781 238.863 281.925 236.329 273.67z" mask="url(#o8wxjaaq9b)"/>
                <path fill="#908682" d="M220.462 299.37L220.462 303.833 238.863 281.926 236.328 273.67z" mask="url(#o8wxjaaq9b)"/>
                <path fill="#BEB0AB" d="M174.446 301.281c0 2.974 2.413 5.384 5.388 5.384 2.977 0 5.39-2.41 5.39-5.384s-2.413-5.384-5.39-5.384c-2.975 0-5.388 2.41-5.388 5.384M220.005 301.281c0 2.974 2.413 5.384 5.388 5.384 2.977 0 5.39-2.41 5.39-5.384s-2.413-5.384-5.39-5.384c-2.975 0-5.388 2.41-5.388 5.384M290.41 301.281c0 2.974 2.414 5.384 5.389 5.384 2.977 0 5.39-2.41 5.39-5.384s-2.413-5.384-5.39-5.384c-2.975 0-5.388 2.41-5.388 5.384" mask="url(#o8wxjaaq9b)"/>
                <path fill="#FCAF13" d="M199.024 213.214h77.586c3.865 0 6.997-3.13 6.997-6.99 0-3.862-3.132-6.992-6.997-6.992h-77.586c-3.863 0-6.997 3.131-6.997 6.992 0 3.86 3.134 6.99 6.997 6.99" mask="url(#o8wxjaaq9b)"/>
                <path fill="#6F6865" d="M29.372 301.281L34.595 301.281 34.595 140.469 29.372 140.469z" mask="url(#o8wxjaaq9b)"/>
            </g>
            <g transform="translate(93 102) translate(70 12.5)">
                <mask id="wpp9rr4p7e" fill="#fff">
                    <use xlink:href="#efdl7pr33c"/>
                </mask>
                <path fill="url(#zpivbvyqjd)" d="M19.23.116C8.75.116.257 8.536.257 18.92v57.112c0 10.385 8.494 18.805 18.973 18.805h97.52c10.479 0 18.973-8.42 18.973-18.805V18.92c0-10.385-8.494-18.804-18.973-18.804H19.23z" mask="url(#wpp9rr4p7e)"/>
            </g>
            <g>
                <path fill="#F4F6FF" d="M82.365 75.719h83.84c11.447 0 20.727-9.253 20.727-20.666V20.919c0-11.414-9.28-20.667-20.728-20.667H82.365c-11.448 0-20.728 9.253-20.728 20.667v34.134c0 11.413 9.28 20.666 20.728 20.666" transform="translate(93 102) translate(13 16.5)"/>
                <path fill="#FEC556" d="M96.142 115.596v-1.701s2.398-10.584 19.37-10.584c16.97 0 16.626 12.285 16.626 12.285H96.142z" transform="translate(93 102) translate(13 16.5)"/>
                <path fill="#EDA685" d="M132.344 104.883s-3.686-.285-5.038-1.097c-1.35-.814-9.43-6.232-11.329-5.364-1.899.867-14.53 4.725-14.092 6.567.44 1.842 1.608 1.664 2.5 1.338.89-.326 10.063-2.245 10.872-1.921 0 0-9.01 3.276-9.045 5.667-.038 2.39 1.885 2.974 2.739 3.878.854.906 1.88 3.15 4.202 3.323 2.322.172 13.651-3.76 15.983-3.939 2.334-.18 6.65.146 6.943-.234.295-.377-3.735-8.218-3.735-8.218" transform="translate(93 102) translate(13 16.5)"/>
                <path fill="#1E75C2" d="M199.462 43.282c11.755-2.06 24.127-5.019 24.127-5.019l21.89-.888s20.094 4.409 28.007 7.974c.75.336.754 17.87 2.813 22.469l-6.559 13.8s-3.79 27.335-4.576 39.494c-.363 5.581 1.02 53.937 1.02 53.937s-1.967.968-16.907 2.61c-14.942 1.643-52.272-.594-52.507-2.352-.237-1.76 7.228-65.52 7.56-68.821.507-5.069-1.47-28.484-1.47-28.484-2.815 3.77-9.99 20.798-17.472 28.898-4.4 4.765-26.188 7.688-30.294 7.823-8.94.297-25.25 2.073-25.725 1.207-.38-.521-1.421-14.435-.398-14.774.895-.298 31.178-2.037 38.937-6.141 2.838-1.5 11.323-19.95 11.323-19.95s13.746-28.877 20.23-31.783" transform="translate(93 102) translate(13 16.5)"/>
                <path fill="#FCAF13" d="M260.981 173.652c17.5 0 31.683-14.143 31.683-31.59v-24.328c0-17.448-14.184-31.59-31.683-31.59h-.001c-17.5 0-31.683 14.142-31.683 31.59v24.326c0 17.447 14.184 31.592 31.684 31.592" transform="translate(93 102) translate(13 16.5)"/>
                <path fill="#FCAF13" d="M240.525 193.972c9.342 0 16.92-3.129 22.524-9.3 12.668-13.943 10.391-38.457 10.288-39.494-.193-1.931-1.922-3.344-3.855-3.152-1.937.192-3.353 1.913-3.161 3.843.028.28 2.044 22.5-8.511 34.1-4.27 4.69-9.925 6.97-17.285 6.97-1.947 0-3.525 1.577-3.525 3.519 0 1.94 1.578 3.514 3.525 3.514" transform="translate(93 102) translate(13 16.5)"/>
                <path fill="#35572A" d="M14.902 64.573c8.19 0 14.831-6.62 14.831-14.788 0-2.203-.483-4.294-1.352-6.173-2.347-5.084-7.497-8.615-13.48-8.615-8.19 0-14.83 6.622-14.83 14.788 0 2.806.783 5.428 2.143 7.663 2.6 4.27 7.31 7.125 12.688 7.125" transform="translate(93 102) translate(13 16.5)"/>
                <path fill="#45613C" d="M29.964 63.248c5.73 0 10.378-4.634 10.378-10.348 0-.33-.014-.656-.046-.98-.494-5.255-4.931-9.368-10.332-9.368-5.731 0-10.379 4.633-10.379 10.348 0 3.622 1.87 6.81 4.696 8.66 1.633 1.067 3.586 1.688 5.683 1.688" transform="translate(93 102) translate(13 16.5)"/>
                <path fill="#915E2E" d="M14.66 50.564s-.826 6.867-1.101 16.208c-.277 9.34 7.162 9.34 7.162 9.34v34.213h5.164s-.122-34.896 2.45-37.706C30.906 69.81 30.906 56.5 30.906 56.5l-1.469-.853s2.203 15.75-7.838 18.071c-10.04 2.318-6.245-22.469-6.245-22.469l-.694-.686z" transform="translate(93 102) translate(13 16.5)"/>
                <path fill="#48753A" d="M11.228 52.167c8.514-1.587 14.122-5.257 17.152-8.555-2.346-5.083-7.498-8.614-13.478-8.614-8.19 0-14.831 6.62-14.831 14.787 0 2.806.783 5.428 2.143 7.662.408-2.011 2.616-4.09 9.014-5.28" transform="translate(93 102) translate(13 16.5)"/>
                <path fill="#538642" d="M32.995 55.739c3.44-.99 5.77-2.347 7.301-3.817-.493-5.257-4.932-9.37-10.333-9.37-5.73 0-10.378 4.633-10.378 10.347 0 3.624 1.869 6.812 4.697 8.66 1.051-1.98 3.431-4.305 8.713-5.82" transform="translate(93 102) translate(13 16.5)"/>
                <path fill="#857670" d="M38.837 94.421L3.938 94.421 5.737 100.878 36.679 100.878z" transform="translate(93 102) translate(13 16.5)"/>
                <path fill="#866455" d="M34.477 100.878L8.576 100.878 12.173 115.487 31.959 115.487z" transform="translate(93 102) translate(13 16.5)"/>
                <path fill="#538642" d="M30.906 43.85l.895.275s1.409-3.816 1.5-4.334c.091-.519-2.395 4.06-2.395 4.06M39.363 44.125l-4.44 1.344s.032.395.613.395c.582 0 3.827-1.739 3.827-1.739M37.832 53.404H36.7s.215 1.68 1.133 2.748c.918 1.068 0-2.748 0-2.748" transform="translate(93 102) translate(13 16.5)"/>
                <path fill="#48753A" d="M10.585 32.22c-.46.336 1.623 5.403 1.623 5.403h1.04s-2.204-5.738-2.663-5.402M15.422 36.372c.184-1.374-.887-3.693-.887-3.693v3.48s.703 1.586.887.213M7.217 56.341c.643-.524.674-5.133.674-5.133l-1.01.366s-.307 5.292.336 4.767" transform="translate(93 102) translate(13 16.5)"/>
                <path fill="#715346" d="M25.897 100.878H8.575l3.597 14.609h5.672c-3.203-11.755 8.053-14.609 8.053-14.609" transform="translate(93 102) translate(13 16.5)"/>
                <path fill="#9D633A" d="M13.084 115.487c1.42-.59 3.716-7.283 4.821-10.747.393-1.23.635-2.052.635-2.052H5.543c1.124 8 3.851 12.799 3.851 12.799h3.69z" transform="translate(93 102) translate(13 16.5)"/>
                <path fill="#95A33C" d="M14.127 98.703c0-.465 2.085-2.415 3.128-3.686 1.043-1.274-.4-3.689-.4-3.689-4.654 1.922-3.852 7.375-3.852 7.375s1.124.464 1.124 0M11.479 98.91h.56s.403-9.42-3.047-10.7c-3.449-1.28-3.449-3.84-3.449-3.84s-1.044 3.52.642 5.36c1.683 1.84 3.61 4 3.289 5.76-.322 1.758 2.005 3.42 2.005 3.42" transform="translate(93 102) translate(13 16.5)"/>
                <path fill="#82522F" d="M17.906 104.74c.39-1.23.633-2.051.633-2.051H5.542c1.124 7.998 3.851 12.797 3.851 12.797h.849c-.159-7.489 4.789-9.95 7.664-10.746" transform="translate(93 102) translate(13 16.5)"/>
                <path fill="#C57B46" d="M18.536 98.703L5.445 98.703 4.698 102.688 19.068 102.688z" transform="translate(93 102) translate(13 16.5)"/>
                <path fill="#070707" d="M77.93 51.258c-1.474 1.42-1.515 3.762-.093 5.232l6.767 6.987c1.424 1.47 3.773 1.512 5.248.092l6.673-6.425c1.475-1.42 1.516-3.762.092-5.232l-6.765-6.987c-1.424-1.47-3.775-1.512-5.248-.092l-6.675 6.425zM147.204 63.621c0 2.045 1.66 3.702 3.71 3.702h9.741c2.05 0 3.71-1.657 3.71-3.702v-9.25c0-2.043-1.66-3.7-3.71-3.7h-9.74c-2.05 0-3.711 1.657-3.711 3.7v9.25z" transform="translate(93 102) translate(13 16.5)"/>
                <path fill="#029FBB" d="M83.42 45.054c.352-8.558 6.94-3.68 5.175-8.691-1.762-5.01-6.255-11.045-3.01-12.662 3.244-1.62 6.087-3.47 7.782-.463 1.23 2.185-.077-8.331 10.412-13.619 1.88-.948 5.266.595 7.988 0 2.968-.648 5.364-2.257 9.535-2.261 0 0-10.72 0 0 0h20.567c8.814 6.474 11.595 20.582 11.595 20.582s10.903 3.238 10.903 17.653v14.8H95.694S83.068 53.61 83.42 45.053" transform="translate(93 102) translate(13 16.5)"/>
                <path fill="#029FBB" d="M150.321 26.516c0 2.043 1.662 3.7 3.71 3.7h6.11c2.049 0 3.71-1.657 3.71-3.7v-1.233c0-2.044-1.661-3.7-3.71-3.7h-6.11c-2.048 0-3.71 1.656-3.71 3.7v1.233z" transform="translate(93 102) translate(13 16.5)"/>
                <path fill="#FFF" d="M101.744 42.008c6.675-.424 13.168-2.235 16.62-2.235h27.258c.556-2.792 3.024-4.895 5.988-4.895 3.372 0 6.108 2.726 6.108 6.09 0 3.363-2.736 6.09-6.108 6.09-2.964 0-5.432-2.105-5.988-4.896H118.52c-2.579 0-10.31 2.917-16.777 2.236-1.676-.86-.133-1.958 0-2.39" transform="translate(93 102) translate(13 16.5)"/>
                <path fill="#FFF" d="M90.126 42.177c-.432 1.756 2.852 3.317 6.563 4.224 3.712.909 7.07.22 7.503-1.538.432-1.756-1.055-4.216-4.769-5.124-3.71-.908-8.864.68-9.297 2.438M97.646 20.617c2.38-4.412 6.256-8.876 9.177-8.093 4.895 1.308 7.677-.387 13.707-.927 6.03-.54 18.402 0 20.333 0 5.49 6.862 7.886 16.112 7.886 16.112s-17.282-1.272-24.756.168c-7.474 1.438-10.6-8.17-27.431-.155-.723-1.338-.224-4.682 1.084-7.105M137.404 55.256c0 .373.302.675.677.675.373 0 .676-.302.676-.675v-7.523c0-.373-.303-.675-.676-.675-.375 0-.677.302-.677.675v7.523zM134.55 55.256c0 .373.303.675.678.675.373 0 .676-.302.676-.675v-7.523c0-.373-.303-.675-.676-.675-.375 0-.678.302-.678.675v7.523zM131.696 55.256c0 .373.304.675.678.675.372 0 .677-.302.677-.675v-7.523c0-.373-.305-.675-.677-.675-.374 0-.678.302-.678.675v7.523zM128.844 55.256c0 .373.303.675.677.675.372 0 .676-.302.676-.675v-7.523c0-.373-.304-.675-.676-.675-.374 0-.677.302-.677.675v7.523zM125.99 55.256c0 .373.304.675.678.675.372 0 .676-.302.676-.675v-7.523c0-.373-.304-.675-.676-.675-.374 0-.677.302-.677.675v7.523zM122.645 54.487c.048.37.387.632.758.584.371-.048.632-.386.584-.756l-.97-7.46c-.048-.37-.388-.632-.757-.583-.372.048-.634.386-.586.756l.971 7.46zM119.647 54.489c.05.37.392.627.763.576.37-.05.628-.39.578-.76l-1.03-7.452c-.05-.369-.393-.629-.763-.576-.37.05-.63.391-.58.761l1.032 7.45zM116.795 55.878c.092.362.462.578.825.486.36-.095.58-.46.486-.822l-1.885-7.286c-.093-.358-.462-.577-.824-.483-.363.092-.58.46-.486.822l1.884 7.283zM113.689 55.098c.093.36.463.577.824.484.363-.095.58-.462.486-.824l-1.9-7.281c-.093-.359-.463-.576-.826-.482-.36.093-.578.462-.484.824l1.9 7.28zM111.375 56.797c.135.347.528.52.876.384.349-.133.521-.524.388-.872l-2.721-7.016c-.135-.348-.528-.52-.876-.386-.35.134-.523.525-.388.873l2.721 7.017z" transform="translate(93 102) translate(13 16.5)"/>
            </g>
        </g>
    </g>
</svg>
