<svg xmlns="http://www.w3.org/2000/svg" xmlns:xlink="http://www.w3.org/1999/xlink" width="500" height="500" viewBox="0 0 500 500">
    <defs>
        <path id="tyndaig9fa" d="M0.24 0.342L35.934 0.342 35.934 34.896 0.24 34.896z"/>
        <path id="w4nzws79mc" d="M0 308L306 308 306 0.342 0 0.342z"/>
        <path id="3f6bxvhqse" d="M19.235.739C8.755.739.257 9.283.257 19.824v57.964c0 10.54 8.498 19.084 18.978 19.084h97.557c10.482 0 18.98-8.544 18.98-19.084V19.824c0-10.541-8.498-19.085-18.98-19.085H19.235z"/>
        <path id="9zierdkbdh" d="M0.388 0.386L63.75 0.386 63.75 88.189 0.388 88.189z"/>
        <path id="r525730zmj" d="M0 308L306 308 306 0.342 0 0.342z"/>
        <linearGradient id="kbew4mxidf" x1="0%" x2="100%" y1="50%" y2="50%">
            <stop offset="0%" stop-color="#FD9D54"/>
            <stop offset="100%" stop-color="#FED054"/>
        </linearGradient>
    </defs>
    <g fill="none" fill-rule="evenodd">
        <path d="M0 0H500V500H0z"/>
        <g transform="translate(97 96)">
            <path fill="#E1D1C9" d="M149 132L209 132 209 128 149 128z"/>
            <path fill="#6F6865" d="M196 302L201 302 201 141 196 141z"/>
            <path fill="#CBBCB6" d="M117 132L159 132 159 127 117 127z"/>
            <path fill="#FEA955" d="M130 132L146 132 146 84 130 84z"/>
            <path fill="#B48F74" d="M0 141L230 141 230 132 0 132z"/>
            <path fill="#1E75C2" d="M274.523 76.28s2.518 35.345-4.384 39.574c-4.323 2.65-21.563 11.59-21.051 13.264.51 1.677 9.734 14.913 9.734 14.913s33.114-21.82 34.182-28.694c1.043-6.719-1.629-51.752-6.18-53.827-3.41-1.555-5.21-.268-9.506 2.923-6.03 4.479-2.795 11.846-2.795 11.846"/>
            <path fill="#E9D7CE" d="M214.17 86.37l-2.92-1.08s3.64-8.548 5.23-8.34c1.83.238 4.114.842 4.114.842l-6.425 8.578z"/>
            <path fill="#D89A5B" d="M213.502 87.846c.374-.278 6.205-11.471 6.205-11.471l12.458 1.693-6.732 13.258-11.93-3.48z"/>
            <path fill="#424773" d="M233.78 280.536s1.03 7.151 1.157 8.226c.129 1.074 11.455-.634 11.455-.634l.918-8.513s-12.115-.088-13.53.921"/>
            <path fill="#292C47" d="M234.817 287.852s-3.588 4.309-7.059 6.187c-3.472 1.878-8.926 2.624-10.978 4.567-1.482 1.403-5.397 7.446 9.019 7.324 14.417-.122 21.367.853 22.912-1.463 1.544-2.316-2.236-17.1-2.236-17.1s-3.414 1.229-11.658.485"/>
            <path fill="#424773" d="M161.21 280.603s1.03 7.152 1.157 8.226c.13 1.075 11.456-.633 11.456-.633l.918-8.513s-12.116-.09-13.531.92"/>
            <path fill="#292C47" d="M162.248 287.92s-3.589 4.309-7.06 6.187c-3.472 1.878-16.244 3.421-18.296 5.365-1.482 1.404-3.947 7.054 16.339 6.526 14.41-.376 21.366.853 22.91-1.463 1.544-2.316-2.236-17.1-2.236-17.1s-3.215 1.314-11.657.485"/>
            <path fill="#00B4B6" d="M270.313 156.998s-41.18 6.973-50.482 8.434c-9.3 1.46-59.73 14.017-66.038 17.843-5.02 3.046 2.632 76.186 4.422 104.093h19.863l1.44-83.708c23.836.597 40.846-5.579 58.203-2.941 17.358 2.638 31.83 6.387 42.858-8.417 0 0 .41-32.07-10.266-35.304"/>
            <path fill="#00B4B6" d="M229.723 287.435l19.358-1.198 1.887-82.578c10.26.257 13.78-.394 22.083-1.401l15.628-36.348c-13.696 2.739-57.581 13.815-63.434 17.365-5.02 3.046 2.69 76.254 4.478 104.16"/>
            <path fill="#EDA685" d="M251.357 2.558s-15.096-4.175-20.857 7.55c-5.758 11.727-3.147 33.954 4.462 36.044 7.607 2.091 18.548-.316 21.706-7.613 3.159-7.298 5.678-17.668 4.923-24.382-.758-6.716-6.227-9.995-10.234-11.6"/>
            <path fill="#EDA685" d="M238.905 43.813s.166 8.917-.816 10.818c-.983 1.9 21.02 1.424 21.02 1.424s-3.469-10.707-1.5-19.831c1.947-9.03-18.704 7.589-18.704 7.589"/>
            <g transform="translate(226.667)">
                <mask id="tzv57snq8b" fill="#fff">
                    <use xlink:href="#tyndaig9fa"/>
                </mask>
                <path fill="#3A3F47" d="M32.127 32.848s-1.175 2.392-6.872 2.006c-5.695-.385-13.206-7.26-15.624-7.875-2.417-.614-2.56-1.992-2.56-1.992l-1.28 2.277-2.479.377s1.685-6.889-1.983-9.316C-2.34 15.9 2.981-3.64 21.551 1.072c0 0 14.173 2.597 14.363 10.516.191 7.918-1.035 17.065-3.787 21.26" mask="url(#tzv57snq8b)"/>
            </g>
            <path fill="#E1D1C9" d="M236.933 54.402s.06-3.633 1.707-3.982c1.644-.347 17.296-2.5 19.314-1.706l.867 4.795s-3.891 2.398-21.888.893"/>
            <path fill="#EDA685" d="M232.403 23.364c.422-2.977 3.807-6.397 5.743-1.76 1.937 4.637-1.307 11.39-3.48 11.028-2.175-.362-2.835-5.229-2.263-9.268"/>
            <path fill="#313657" d="M171.38 97.317c.008-.005.017-.005.028-.003-.114.05-.13.054-.028.003"/>
            <path fill="#3A3F47" d="M255.76 4.684s18.406-.866 3.213 27.88l-3.213-27.88z"/>
            <path fill="#908682" d="M296.769 297.231L295.4 301.085 237.548 283.149 240.32 275.346z"/>
            <mask id="j9dj2lnbhd" fill="#fff">
                <use xlink:href="#w4nzws79mc"/>
            </mask>
            <path fill="#908682" d="M235.563 280.404L242.139 280.404 242.139 217.474 235.563 217.474z" mask="url(#j9dj2lnbhd)"/>
            <path fill="#5E5854" d="M219.46 217.836L258.243 217.836 258.243 214.129 219.46 214.129z" mask="url(#j9dj2lnbhd)"/>
            <path fill="#908682" d="M180.425 297.231L181.793 301.085 239.646 283.149 237.103 274.856z" mask="url(#j9dj2lnbhd)"/>
            <path fill="#908682" d="M221.185 300.672L221.185 305.154 239.645 283.15 237.102 274.855z" mask="url(#j9dj2lnbhd)"/>
            <path fill="#BEB0AB" d="M175.018 302.59c0 2.987 2.42 5.41 5.406 5.41 2.987 0 5.408-2.423 5.408-5.41 0-2.986-2.421-5.408-5.408-5.408-2.986 0-5.406 2.422-5.406 5.409M220.725 302.59c0 2.987 2.421 5.41 5.406 5.41 2.988 0 5.408-2.423 5.408-5.41 0-2.986-2.42-5.408-5.408-5.408-2.985 0-5.406 2.422-5.406 5.409M291.362 302.59c0 2.987 2.421 5.41 5.406 5.41 2.988 0 5.408-2.423 5.408-5.41 0-2.986-2.42-5.408-5.408-5.408-2.985 0-5.406 2.422-5.406 5.409" mask="url(#j9dj2lnbhd)"/>
            <path fill="#FCAF13" d="M199.676 214.129h77.841c3.878 0 7.019-3.146 7.019-7.024s-3.141-7.023-7.019-7.023h-77.841c-3.876 0-7.018 3.145-7.018 7.023 0 3.878 3.142 7.024 7.018 7.024" mask="url(#j9dj2lnbhd)"/>
            <path fill="#6F6865" d="M29.467 302.591L34.707 302.591 34.707 141.055 29.467 141.055z" mask="url(#j9dj2lnbhd)"/>
            <g transform="translate(70 10)">
                <mask id="kv4zkzassg" fill="#fff">
                    <use xlink:href="#3f6bxvhqse"/>
                </mask>
                <path fill="url(#kbew4mxidf)" d="M19.235.739C8.755.739.257 9.283.257 19.824v57.964c0 10.54 8.498 19.084 18.978 19.084h97.557c10.482 0 18.98-8.544 18.98-19.084V19.824c0-10.541-8.498-19.085-18.98-19.085H19.235z" mask="url(#kv4zkzassg)"/>
            </g>
            <g>
                <path fill="#F4F6FF" d="M89.432 91.983h96.413c7.971 0 14.433-6.466 14.433-14.44V30.705c0-7.976-6.462-14.442-14.433-14.442H89.432c-7.972 0-14.433 6.466-14.433 14.442v46.838c0 7.974 6.461 14.44 14.433 14.44"/>
                <path fill="#FEC556" d="M109.499 131.994v-1.708s2.398-10.618 19.367-10.618c16.968 0 16.625 12.326 16.625 12.326h-35.992z"/>
                <path fill="#EDA685" d="M145.697 121.244s-3.687-.285-5.037-1.1c-1.35-.816-9.431-6.254-11.33-5.383-1.898.87-14.527 4.741-14.088 6.59.439 1.848 1.606 1.67 2.497 1.342.893-.326 10.063-2.253 10.872-1.928 0 0-9.009 3.287-9.044 5.687-.037 2.4 1.886 2.983 2.738 3.89.856.91 1.88 3.161 4.202 3.334 2.322.175 13.651-3.771 15.982-3.951 2.333-.179 6.65.146 6.943-.236.293-.378-3.735-8.245-3.735-8.245"/>
                <path fill="#1E75C2" d="M212.808 59.436c11.752-2.068 24.124-5.034 24.124-5.034l21.889-.893s20.09 4.425 28.002 8.001c.75.339.754 17.932 2.813 22.546L283.077 97.9s-3.79 27.427-4.576 39.627c-.36 5.6 1.022 54.118 1.022 54.118s-1.967.972-16.907 2.62c-14.94 1.646-52.266-.596-52.501-2.36-.236-1.768 7.229-65.741 7.559-69.054.507-5.084-1.47-28.58-1.47-28.58-2.813 3.784-9.988 20.868-17.468 28.995-4.4 4.783-26.186 7.716-30.291 7.85-8.94.3-25.247 2.08-25.724 1.21-.38-.522-1.421-14.481-.398-14.823.895-.299 31.175-2.044 38.934-6.161 2.836-1.506 11.322-20.017 11.322-20.017s13.745-28.974 20.229-31.89"/>
                <g transform="translate(242.25 102.055)">
                    <mask id="ixlakh6pei" fill="#fff">
                        <use xlink:href="#9zierdkbdh"/>
                    </mask>
                    <path fill="#FCAF13" d="M32.07 88.19c17.496 0 31.68-14.192 31.68-31.697v-24.41C63.75 14.578 49.566.386 32.07.386h-.002C14.572.386.388 14.578.388 32.084v24.407c0 17.507 14.184 31.698 31.681 31.698" mask="url(#ixlakh6pei)"/>
                </g>
                <path fill="#FCAF13" d="M253.866 210.632c9.34 0 16.917-3.138 22.52-9.33 12.667-13.99 10.39-38.587 10.289-39.626-.193-1.94-1.921-3.357-3.856-3.164-1.937.193-3.352 1.92-3.161 3.857.028.279 2.046 22.574-8.51 34.214-4.268 4.707-9.922 6.995-17.282 6.995-1.946 0-3.525 1.58-3.525 3.528 0 1.947 1.579 3.526 3.525 3.526"/>
                <path fill="#35572A" d="M28.266 80.8c8.19 0 14.831-6.643 14.831-14.837 0-2.213-.484-4.31-1.353-6.195-2.346-5.1-7.497-8.643-13.478-8.643-8.188 0-14.83 6.643-14.83 14.838 0 2.813.784 5.444 2.145 7.686C18.18 77.936 22.89 80.8 28.266 80.8"/>
                <path fill="#45613C" d="M43.328 79.47c5.73 0 10.376-4.65 10.376-10.384 0-.33-.015-.658-.044-.982-.496-5.273-4.932-9.4-10.332-9.4-5.73 0-10.377 4.65-10.377 10.382 0 3.636 1.867 6.835 4.693 8.689 1.634 1.071 3.587 1.695 5.684 1.695"/>
                <path fill="#915E2E" d="M28.025 66.742s-.827 6.892-1.102 16.264c-.276 9.37 7.163 9.37 7.163 9.37v34.33h5.164s-.124-35.016 2.448-37.835c2.572-2.816 2.572-16.17 2.572-16.17l-1.47-.858s2.204 15.803-7.837 18.132c-10.04 2.326-6.245-22.543-6.245-22.543l-.693-.69z"/>
                <path fill="#48753A" d="M24.593 68.35c8.514-1.59 14.121-5.274 17.15-8.582-2.344-5.101-7.497-8.642-13.477-8.642-8.19 0-14.83 6.642-14.83 14.836 0 2.814.784 5.445 2.146 7.687.406-2.018 2.613-4.103 9.011-5.298"/>
                <path fill="#538642" d="M46.358 71.934c3.44-.992 5.77-2.353 7.301-3.83-.494-5.274-4.931-9.4-10.332-9.4-5.73 0-10.377 4.65-10.377 10.381 0 3.637 1.868 6.837 4.695 8.69 1.053-1.988 3.431-4.318 8.713-5.84"/>
                <path fill="#857670" d="M52.2 110.746L17.303 110.746 19.102 117.225 50.042 117.225z"/>
                <path fill="#866455" d="M47.839 117.226L21.941 117.226 25.54 131.883 45.322 131.883z"/>
                <path fill="#538642" d="M44.27 60.007l.894.275s1.408-3.827 1.5-4.348c.092-.521-2.394 4.073-2.394 4.073M52.726 60.282l-4.44 1.348s.031.398.613.398c.581 0 3.827-1.746 3.827-1.746M51.194 69.594h-1.132s.214 1.684 1.132 2.755c.918 1.073 0-2.755 0-2.755"/>
                <path fill="#48753A" d="M23.951 48.338c-.459.337 1.622 5.421 1.622 5.421h1.041s-2.204-5.757-2.663-5.421M28.788 52.503c.182-1.378-.889-3.705-.889-3.705v3.49s.704 1.594.889.215M20.584 72.54c.641-.527.673-5.152.673-5.152l-1.01.367s-.306 5.31.337 4.784"/>
                <path fill="#715346" d="M39.26 117.226H21.94l3.599 14.657h5.67c-3.204-11.794 8.052-14.657 8.052-14.657"/>
                <path fill="#9D633A" d="M26.45 131.883c1.42-.592 3.716-7.305 4.82-10.78.392-1.235.634-2.062.634-2.062H18.909c1.123 8.027 3.85 12.842 3.85 12.842h3.69z"/>
                <path fill="#95A33C" d="M27.491 115.044c0-.468 2.087-2.422 3.13-3.7 1.041-1.276-.401-3.699-.401-3.699-4.652 1.927-3.85 7.4-3.85 7.4s1.121.466 1.121 0M24.845 115.25h.56s.403-9.451-3.046-10.734c-3.45-1.284-3.45-3.852-3.45-3.852s-1.043 3.53.642 5.376c1.684 1.847 3.61 4.013 3.29 5.779-.322 1.765 2.004 3.431 2.004 3.431"/>
                <path fill="#82522F" d="M31.27 121.101c.39-1.233.633-2.059.633-2.059H18.908c1.123 8.025 3.85 12.84 3.85 12.84h.85c-.16-7.513 4.787-9.982 7.662-10.78"/>
                <path fill="#C57B46" d="M31.901 115.044L18.811 115.044 18.064 119.041 32.433 119.041z"/>
                <mask id="hp8fpk72dk" fill="#fff">
                    <use xlink:href="#r525730zmj"/>
                </mask>
                <path fill="#3A3F47" d="M86.952 51.899L111.713 51.899 111.713 47.731 86.952 47.731zM86.952 58.994L111.713 58.994 111.713 54.827 86.952 54.827zM86.952 66.091L111.713 66.091 111.713 61.925 86.952 61.925zM86.952 73.188L111.713 73.188 111.713 69.023 86.952 69.023zM86.952 80.285L111.713 80.285 111.713 76.12 86.952 76.12zM125.257 51.899L150.018 51.899 150.018 47.731 125.257 47.731zM125.257 58.994L150.018 58.994 150.018 54.827 125.257 54.827zM125.257 66.091L150.018 66.091 150.018 61.925 125.257 61.925zM125.257 73.188L150.018 73.188 150.018 69.023 125.257 69.023zM125.257 80.285L150.018 80.285 150.018 76.12 125.257 76.12zM161.941 51.899L186.702 51.899 186.702 47.731 161.941 47.731zM161.941 58.994L186.702 58.994 186.702 54.827 161.941 54.827zM161.941 66.091L186.702 66.091 186.702 61.925 161.941 61.925zM161.941 73.188L186.702 73.188 186.702 69.023 161.941 69.023zM161.941 80.285L186.702 80.285 186.702 76.12 161.941 76.12z" mask="url(#hp8fpk72dk)"/>
            </g>
            <text fill="#3A3F47" font-family="BalooBhaijaan-Regular, Baloo Bhaijaan" font-size="16" font-weight="600" letter-spacing="-.013">
                <tspan x="90" y="39">01</tspan>
            </text>
            <text fill="#3A3F47" font-family="BalooBhaijaan-Regular, Baloo Bhaijaan" font-size="16" font-weight="600" letter-spacing="-.02">
                <tspan x="127" y="39">02</tspan>
            </text>
            <text fill="#3A3F47" font-family="BalooBhaijaan-Regular, Baloo Bhaijaan" font-size="16" font-weight="600" letter-spacing="-.011">
                <tspan x="164" y="39">03</tspan>
            </text>
        </g>
    </g>
</svg>
