<svg xmlns="http://www.w3.org/2000/svg" xmlns:xlink="http://www.w3.org/1999/xlink" width="500" height="500" viewBox="0 0 500 500">
    <defs>
        <path id="xnn0i5uoya" d="M.881 3.01l5.33 1.16 35.515 38.237L17.354 97.37l-.544 1.224c.387.13 1.448.426 2.738.284l.66-1.49 24.608-55.501L7.57 1.787 1.438.449.88 3.01z"/>
        <path id="7d3fouoycd" d="M.328 8.94c-.056.839.005 1.387.005 1.387h22.64s-.039-.55-.25-1.387C22.044 6.228 19.562.492 10.753.492 1.941.492.512 6.229.328 8.94"/>
        <path id="jlynxbtdgg" d="M.19 1.776l1.541 4.37 9.346 26.482c3.8-1.342 6.796-3.944 8.68-7.174 2.34-4.008 2.967-8.977 1.301-13.695C18.687 5.039 12.375.839 5.634.839c-1.806 0-3.643.302-5.444.938"/>
        <path id="dqr2acul3j" d="M0 322L296.339 322 296.339 0.045 0 0.045z"/>
        <linearGradient id="cg3fqytmtb" x1="50.001%" x2="50.001%" y1="83.331%" y2="39.748%">
            <stop offset="0%" stop-color="#FD9D54"/>
            <stop offset="100%" stop-color="#FED054"/>
        </linearGradient>
        <linearGradient id="vved1n921e" x1="99.999%" x2="0%" y1="49.998%" y2="49.998%">
            <stop offset="0%" stop-color="#FD9D54"/>
            <stop offset="100%" stop-color="#FED054"/>
        </linearGradient>
        <linearGradient id="dpq2e2tndh" x1="100.001%" x2="-.005%" y1="49.999%" y2="49.999%">
            <stop offset="0%" stop-color="#FD9D54"/>
            <stop offset="100%" stop-color="#FED054"/>
        </linearGradient>
    </defs>
    <g fill="none" fill-rule="evenodd">
        <path d="M0 0H500V500H0z"/>
        <g transform="translate(102 89)">
            <g transform="translate(246 32)">
                <mask id="lny5pj1j6c" fill="#fff">
                    <use xlink:href="#xnn0i5uoya"/>
                </mask>
                <path fill="url(#cg3fqytmtb)" d="M.881 3.01l5.33 1.16 35.515 38.237L17.354 97.37l-.544 1.224c.387.13 1.448.426 2.738.284l.66-1.49 24.608-55.501L7.57 1.787 1.438.449.88 3.01z" mask="url(#lny5pj1j6c)"/>
            </g>
            <g transform="translate(253 130)">
                <mask id="ey1v9hveof" fill="#fff">
                    <use xlink:href="#7d3fouoycd"/>
                </mask>
                <path fill="url(#vved1n921e)" d="M.328 8.94c-.056.839.005 1.387.005 1.387h22.64s-.039-.55-.25-1.387C22.044 6.228 19.562.492 10.753.492 1.941.492.512 6.229.328 8.94" mask="url(#ey1v9hveof)"/>
            </g>
            <g transform="translate(230 22)">
                <mask id="h3x70xlrzi" fill="#fff">
                    <use xlink:href="#jlynxbtdgg"/>
                </mask>
                <path fill="url(#dpq2e2tndh)" d="M.19 1.776l1.541 4.37 9.346 26.482c3.8-1.342 6.796-3.944 8.68-7.174 2.34-4.008 2.967-8.977 1.301-13.695C18.687 5.039 12.375.839 5.634.839c-1.806 0-3.643.302-5.444.938" mask="url(#h3x70xlrzi)"/>
            </g>
            <path fill="#FEA655" d="M267.228 129.27v1.217c-.426.14-.842.226-1.237.27-1.292.14-2.356-.154-2.743-.285-.103-.034-.16-.056-.16-.056v-1.173l.704.005 2.862.018.575.005z"/>
            <path fill="#FEA356" d="M253.336 139.996h22.828s-.039-.548-.252-1.385h-22.58c-.06.838.004 1.385.004 1.385"/>
            <path fill="#FEA655" d="M230.09 23.754l1.54 4.365c5.456 4.297 13.92 11.726 18.027 19.29 2.339-4.003 2.967-8.968 1.302-13.682-3.008-8.513-12.35-12.977-20.87-9.973"/>
            <path fill="#EDA685" d="M153.07 70.59s3.977-5.025 4.606-5.774c.628-.748 3.099-1.454 5.987-1.997 2.89-.544 6.954.137 7.282.539.328.402.836.632.967 2.035.13 1.404-.464 2.703-.464 2.703s.903 1.609.064 3.157c0 0 .784 1.558-.424 3.157 0 0 .73 1.548-.235 2.631 0 0-2.474.715-3.333 1.265-.86.552-6.083 1.65-11.206 1.864 0 0-4.826-1.601-3.245-9.58"/>
            <path fill="#848484" d="M38.319 225.648L15.658 320.043 10.666 320.043 29.883 225.445zM63.04 225.648L40.379 320.043 35.388 320.043 54.604 225.445zM103.023 225.648L125.685 320.043 130.675 320.043 111.459 225.445z"/>
            <path fill="#E1D1C9" d="M124.47 226.568H26.827s-6.8-.157-11.356-20.284C10.35 183.64.001 108.012.001 108.012s2.744-7.038 45.669-6.136l76.863 99.634s2.624 15.708 1.936 25.058"/>
            <path fill="#EDA685" d="M127.475 132.183s4.974-2.16 8.705-1.29c3.73.87 12.469 4.13 16.786 4.67 4.317.542 8.427 3.048 8.347 4.48-.081 1.432-33.326 2.604-33.486-.66l-.352-7.2M153.07 70.59s-6.495 4.265-6.637 5.574c-.234 2.163 1.104 8.884 1.265 8.789.162-.096 9.793-4.847 9.793-4.847l-4.422-9.516z"/>
            <path fill="#292C47" d="M152.934 303.97s8.365 4.969 12.156 6.818c3.788 1.85 18.528 2.415 19.981 3.8 1.452 1.388.908 5.789-1.536 6.232-2.443.443-20.365 2.015-26.34.604-5.975-1.41-17.16.91-19.635.063-2.474-.846-.841-14.177.123-17.168.965-2.99 15.25-.35 15.25-.35"/>
            <path fill="#1C1D30" d="M152.805 298.328l.129 5.641s-11.207 2.064-15.25.35l.282-6.195 14.839.204z"/>
            <path fill="#313657" d="M172.524 303.97s8.367 4.969 12.156 6.818c3.789 1.85 18.529 2.415 19.982 3.8 1.452 1.388.907 5.789-1.537 6.232-2.443.443-20.364 2.015-26.34.604-5.974-1.41-17.16.91-19.634.063-2.474-.846-.842-14.177.123-17.168.965-2.99 15.25-.35 15.25-.35"/>
            <path fill="#1C1D30" d="M172.394 298.328l.13 5.641s-11.207 2.064-15.25.35l.282-6.195 14.838.204z"/>
            <path fill="#24263D" d="M106.562 166.987L93.835 164.766 102.32 143.417z"/>
            <path fill="#49736E" d="M68.426 171.362s63.965 13.568 73.949 17.806c9.981 4.239 15.97 5.984 16.72 8.103.748 2.12 16.346 103.472 16.346 103.472h-21.213s-16.471-76.544-18.468-81.28c-1.996-4.74-81.107-4.989-86.846-10.722-5.74-5.735-10.731-21.442-4.492-35.53 6.24-14.087 24.004-1.849 24.004-1.849"/>
            <path fill="#49736E" d="M100.822 164.235s73.357 20.618 79.361 30.045c6.114 9.598-24.459 106.462-24.459 106.462h-20.962s20.214-90.754 17.72-94.744c-2.497-3.99-113.052-.125-92.463-32.787 20.589-32.662 40.803-8.976 40.803-8.976"/>
            <path fill="#426864" d="M93.197 62.386c2.76-1.435 11.968 1.707 14.688 5.937 6.32 9.835 18.268 21.986 18.268 21.986l26.64-22.372 5.337 13.336-31.62 26.626c-2.694 2.268-6.67 2.13-9.198-.322-8.308-8.058-25.404-25.001-26.721-29.234-1.747-5.61-2.67-13.218 2.606-15.957"/>
            <path fill="#EDA785" d="M84.182 5.414S96.909 7.532 97.034 29.1c.124 21.566-8.064 23.603-20.464 20.444-7.465-1.9-14.474-12.467-11.729-31.04 2.745-18.575 19.34-13.09 19.34-13.09"/>
            <path fill="#ECD9D2" d="M85.849 56.9s17.54 6.365 20.16 10.355c2.62 3.99.928 39.885-.57 52.724-1.497 12.84-5.616 40.517-4.617 44.256l-40.802 8.977s-13.103-47.622-13.476-55.227c-.375-7.604-9.984-43.01-5.366-45.876 4.617-2.868 24.707-14.088 24.707-14.088L85.849 56.9z"/>
            <path fill="#1F2136" d="M60.019 173.211L58.022 165.857 100.915 157.512 100.823 164.235z"/>
            <path fill="#4F5589" d="M81.356 160.932L91.526 158.812 91.526 166.853 81.356 169.222z"/>
            <path fill="#426864" d="M76.796 140.002c-.11 2.103-.246 4.234-.355 6.392l-.029.028c-1.448 23.658-3.609 48.411-3.609 48.411-2.98 2.485-40.771-6.284-40.771-6.284s4.647-6.31 9.133-23.797c4.512-17.456.985-34.231-3.691-62.643-4.65-28.413-.795-28.249-.795-28.249l29.206-15.846c1.914 7.267 9.652 33.63 11.484 48.738.657 5.52.248 18.715-.573 33.25M86.131 56.952s8.503 21.945 12.112 44.328c3.679 22.824 3.497 64.144 7.487 65.152 3.989 1.008 2.759.334 2.759.334s-.748-24.963-1.113-33.239c-.814-18.472 2.637-60.107 1.04-64.313-1.598-4.207-13.05-10.6-22.285-12.262"/>
            <path fill="#EDA785" d="M85.437 53.506c0 1.34.11 2.568.41 3.388 0 0-2.242 8.742-19.961 1.12 0 0 3.5-13.032 0-23.959l19.96 12.377s-.245 1.967-.354 4.26c-.055.929-.082 1.913-.055 2.814"/>
            <path fill="#D5C4BE" d="M66.607 54.548s6.966 3.368 13.995 4.018l-3.426 7.278-11.291-7.822.722-3.474z"/>
            <path fill="#D5C4BE" d="M80.601 58.566s4.902-1.623 4.866-4.018l.664 2.404-1.998 7.677-3.532-6.063z"/>
            <path fill="#16202E" d="M95.51 17.892s3.562-7.632.984-13.235c-2.58-5.601-9.317-3.274-12.396-2.609-3.078.664-8.9-6.15-19.216 2.16-10.315 8.311-7.237 17.038-2.662 27.427 4.576 10.388 5.13 11.187 5.13 11.187s.034-10.543 1.28-12.413c1.463-2.199 6.817-3.345 6.817-3.345s-4.076-5.57-.083-7.647c3.992-2.078 12.26 1.769 20.146-1.525"/>
            <path fill="#EDA785" d="M70.206 24.903c-.542-1.591-3.23-3.4-4.575-.416-1.346 2.984 2.163 8.228 4.076 8.228 1.914 0 1.748-4.155.5-7.812"/>
            <path fill="#D34040" d="M80.601 58.566l2.56 4.396s-1.184 1.357-4.989.764l2.43-5.16z"/>
            <path fill="#D34040" d="M82.614 63.345S93.086 94.133 93.17 115.99c.082 21.858-1.643 34.906-1.643 34.906l-2.306 4.306-3.373-3.931s2.38-63.47-6.936-87.45c0 0 3.313-1.577 3.702-.476"/>
            <path fill="#426864" d="M39.925 72.109c7.661-3.123 15.602 7.48 19.845 18.076 4.242 10.596 12.353 29.878 12.353 29.878l56.663 9.17.799 10.763H63.472S38.284 94.923 36.537 89.312c-1.747-5.609-2.116-14.959 3.388-17.203"/>
            <mask id="omza9m8axk" fill="#fff">
                <use xlink:href="#dqr2acul3j"/>
            </mask>
            <path fill="#E1D1C9" d="M109.504 146.428L296.339 146.428 296.339 139.996 109.504 139.996z" mask="url(#omza9m8axk)"/>
            <path fill="#6F675F" d="M218.985 127.108L223.485 127.108 223.485 27.462 218.985 27.462z" mask="url(#omza9m8axk)"/>
            <path fill="#908780" d="M230.018 139.996h33.666v-2.037h-33.666c-1.756 0-3.018-.418-3.755-1.24-.887-.992-.749-2.326-.748-2.34l.01-.063-.002-.058V90.793h-2.04v43.415c-.038.416-.116 2.308 1.234 3.841 1.138 1.291 2.921 1.947 5.3 1.947" mask="url(#omza9m8axk)"/>
            <path fill="#6F675F" d="M184.645 136.427h35.031v3.57H181.78v-.708c0-1.58 1.283-2.862 2.865-2.862" mask="url(#omza9m8axk)"/>
            <path fill="#6F6865" d="M276.911 321.118L282.221 321.118 282.221 146.428 276.911 146.428zM123.621 321.118L128.931 321.118 128.931 146.428 123.621 146.428z" mask="url(#omza9m8axk)"/>
            <path fill="#1F2136" d="M76.796 140.002c-.11 2.103-.246 4.234-.355 6.392l-.029.028s-7.363.973-13.534-1.828c-6.198-2.812-10.5-24.125-10.802-25.246.63 1.228 10.528 20.654 12.962 20.654h11.758z" mask="url(#omza9m8axk)"/>
            <path fill="#A67860" d="M85.492 50.693c-.055.928-.082 1.91-.055 2.813-14.083.22-14.302-7.814-14.302-7.814 2.188 5.82 14.357 5 14.357 5" mask="url(#omza9m8axk)"/>
            <path fill="#EA4747" d="M162.65 70.59L161.393 69.288 176.789 54.442 178.047 55.742z" mask="url(#omza9m8axk)"/>
            <path fill="#EDA685" d="M176.79 54.442L179.684 52.907 178.047 55.743z" mask="url(#omza9m8axk)"/>
            <path fill="#D59679" d="M170.185 63.468s-7.302 1.573-7.27 2.887c.03 1.315.769 1.742.769 1.742l-2.801 2.134s-1.175 2.531 1.617 3.077c0 0-1.317 2.25 1.45 2.418 0 0-.283 1.882.977 2.21 1.258.329 5.925-.894 5.925-.894s.902-.74.236-2.632c0 0 1.237-1.46.423-3.158 0 0 .832-1.332-.064-3.156 0 0 1.65-3.118-.502-4.739 0 0-.455.043-.76.111" mask="url(#omza9m8axk)"/>
            <path fill="#EDA685" d="M157.9 64.74s4.802 1.534 7.037 3.658c.504.481.913 1.05.675 1.768-.237.72-1.467 1.302-3.583.756s-5.122-.174-5.122-.174-1.997-1.27.994-6.008" mask="url(#omza9m8axk)"/>
            <path fill="#12131F" d="M164.053 227.494s-4.485-27.957-4.721-29.091c-.238-1.132-4.802-5.207-26.61-12.345 0 0 24.243 4.71 30.598 8.845 4.9 3.187.733 32.59.733 32.59" mask="url(#omza9m8axk)"/>
            <path fill="#9D633A" d="M255.328 139.996c2.394-.995 6.26-12.29 8.122-18.136.659-2.076 1.068-3.464 1.068-3.464h-21.892c1.892 13.5 6.486 21.6 6.486 21.6h6.216z" mask="url(#omza9m8axk)"/>
            <path fill="#95A33C" d="M257.086 111.67c0-.786 3.512-4.075 5.27-6.222 1.757-2.149-.677-6.223-.677-6.223-7.837 3.24-6.486 12.445-6.486 12.445s1.893.786 1.893 0M252.626 112.019h.944s.678-15.9-5.134-18.06c-5.81-2.16-5.81-6.48-5.81-6.48s-1.757 5.94 1.082 9.045c2.837 3.106 6.08 6.75 5.54 9.72-.542 2.97 3.378 5.775 3.378 5.775" mask="url(#omza9m8axk)"/>
            <path fill="#82522F" d="M263.45 121.86c.66-2.076 1.068-3.464 1.068-3.464h-21.893c1.892 13.5 6.487 21.6 6.487 21.6h1.43c-.267-12.641 8.065-16.792 12.907-18.136" mask="url(#omza9m8axk)"/>
            <path fill="#C57B46" d="M264.513 111.67L242.459 111.67 241.205 118.396 265.408 118.396z" mask="url(#omza9m8axk)"/>
        </g>
    </g>
</svg>
