<svg xmlns="http://www.w3.org/2000/svg" width="30" height="30.001" viewBox="0 0 30 30.001">
  <path id="accidents" d="M-8268,30a14.9,14.9,0,0,1-10.606-4.394A14.9,14.9,0,0,1-8283,15a14.9,14.9,0,0,1,4.394-10.607A14.9,14.9,0,0,1-8268,0a14.9,14.9,0,0,1,10.606,4.394A14.9,14.9,0,0,1-8253,15a14.9,14.9,0,0,1-4.394,10.607A14.9,14.9,0,0,1-8268,30Zm0-23.148a1.972,1.972,0,0,0-1.709.972l-4.789,8.806a1.965,1.965,0,0,0-.019,2,1.965,1.965,0,0,0,1.728,1h9.578a1.968,1.968,0,0,0,1.729-1,1.96,1.96,0,0,0-.021-1.995l-4.789-8.806A1.972,1.972,0,0,0-8268,6.852Zm0,11.189a.8.8,0,0,1-.794-.794.8.8,0,0,1,.794-.8.8.8,0,0,1,.794.8A.8.8,0,0,1-8268,18.042Zm0-2.384a.8.8,0,0,1-.794-.794V10.891A.8.8,0,0,1-8268,10.1a.8.8,0,0,1,.794.794v3.972A.8.8,0,0,1-8268,15.657Z" transform="translate(8283)" fill="#fff"/>
</svg>
