<svg xmlns="http://www.w3.org/2000/svg" xmlns:xlink="http://www.w3.org/1999/xlink" width="22.882" height="10.422" viewBox="0 0 22.882 10.422"><defs><style>.a,.b{fill:url(#a);}.b{stroke:#fff;stroke-linejoin:round;stroke-width:0.4px;}</style><linearGradient id="a" x1="0.5" x2="0.5" y2="1" gradientUnits="objectBoundingBox"><stop offset="0" stop-color="#1c6fc4"/><stop offset="1" stop-color="#01b8b6"/></linearGradient></defs><path class="a" d="M74.391,262.13H56v-4.291L58.452,256l1.226,1.839H70.1l4.291.613Z" transform="translate(-56 -254.161)"/><circle class="a" cx="1.674" cy="1.674" r="1.674" transform="translate(12.87 6.556)"/><circle class="a" cx="1.674" cy="1.674" r="1.674" transform="translate(2.827 6.556)"/><path class="a" d="M88,233.839,89.839,232h5.517l4.291,3.678H89.226Z" transform="translate(-85.548 -232)"/><path class="a" d="M136,232h1.226v3.678H136Z" transform="translate(-129.87 -232)"/><path class="b" d="M259.678,237.6l1.839-.733.284,1.959,1.555,1.226-1.555,1.226-.284,1.959-1.839-.733-1.839.733-.285-1.959L256,240.047l1.555-1.226.285-1.959Z" transform="translate(-240.674 -236.489)"/><path class="a" d="M210.452,308.9a2.452,2.452,0,1,1,2.452-2.452A2.452,2.452,0,0,1,210.452,308.9Zm0-3.678a1.226,1.226,0,1,0,1.226,1.226A1.226,1.226,0,0,0,210.452,305.226Z" transform="translate(-196.352 -298.483)"/><path class="a" d="M82.452,308.9a2.452,2.452,0,1,1,2.452-2.452A2.452,2.452,0,0,1,82.452,308.9Zm0-3.678a1.226,1.226,0,1,0,1.226,1.226A1.226,1.226,0,0,0,82.452,305.226Z" transform="translate(-78.161 -298.483)"/></svg>