<svg xmlns="http://www.w3.org/2000/svg" xmlns:xlink="http://www.w3.org/1999/xlink" width="14.619" height="10.965" viewBox="0 0 14.619 10.965"><defs><style>.a{fill:url(#a);}</style><linearGradient id="a" x1="0.5" x2="0.5" y2="1" gradientUnits="objectBoundingBox"><stop offset="0" stop-color="#1c6fc4"/><stop offset="1" stop-color="#01b8b6"/></linearGradient></defs><path class="a" d="M14.163,73.137H1.827v-8.68A.457.457,0,0,0,1.371,64H.457A.457.457,0,0,0,0,64.457v9.594a.914.914,0,0,0,.914.914H14.163a.457.457,0,0,0,.457-.457v-.914A.457.457,0,0,0,14.163,73.137Zm-.914-8.223H9.878a.685.685,0,0,0-.485,1.17l.925.925L8.223,69.1,6.128,67.009a.913.913,0,0,0-1.292,0L2.875,68.97a.457.457,0,0,0,0,.646l.646.646a.457.457,0,0,0,.646,0l1.315-1.315,2.095,2.095a.913.913,0,0,0,1.292,0L11.61,68.3l.925.925a.685.685,0,0,0,1.17-.485V65.371A.456.456,0,0,0,13.249,64.914Z" transform="translate(0 -64)"/></svg>