<svg width="40" height="40" viewBox="0 0 40 40" fill="none" xmlns="http://www.w3.org/2000/svg">
<path d="M14.2521 26H11.9084L16.1757 13.8788H18.8864L23.1596 26H20.8158L17.5784 16.3646H17.4837L14.2521 26ZM14.3291 21.2474H20.7211V23.0111H14.3291V21.2474ZM26.9519 13.8788V26H24.7561V13.8788H26.9519Z" fill="#43A046"/>
<g clip-path="url(#clip0_588_10306)">
<path d="M37.2725 7.27283C37.2725 6.53374 36.948 5.83647 36.3975 5.39829C36.4611 4.66101 36.1975 3.93874 35.6748 3.41556C35.152 2.89329 34.4316 2.6301 33.7307 2.70874C32.8152 1.54692 30.8375 1.5251 29.9434 2.69283C29.2052 2.62738 28.4839 2.89238 27.9611 3.41556C27.4389 3.93829 27.1752 4.66101 27.2543 5.35965C26.0925 6.2751 26.0702 8.25283 27.2384 9.14738C27.1748 9.88465 27.4384 10.6069 27.9611 11.1301C28.4839 11.6524 29.2052 11.9165 29.9052 11.8369C30.8207 12.9987 32.7984 13.0206 33.6925 11.8528C34.4289 11.9146 35.1516 11.6533 35.6748 11.1301C36.197 10.6074 36.4607 9.88465 36.3816 9.18601C36.948 8.70965 37.2725 8.01238 37.2725 7.27329V7.27283ZM34.3361 6.62101L32.182 8.69738C31.6534 9.2251 30.7884 9.22056 30.2598 8.69147L29.2361 7.74056C29.0525 7.56965 29.0416 7.28192 29.2125 7.09829C29.3839 6.91419 29.672 6.90419 29.8548 7.07465L30.8902 8.03692C31.0802 8.22647 31.3675 8.22601 31.5448 8.04829L33.7048 5.96601C33.8857 5.79238 34.1734 5.79738 34.3475 5.97783C34.522 6.15829 34.5166 6.44647 34.3361 6.62056V6.62101Z" fill="#43A046"/>
</g>
<rect x="0.454545" y="0.454545" width="39.0909" height="39.0909" rx="6.81818" stroke="#43A046" stroke-width="0.909091"/>
<defs>
<clipPath id="clip0_588_10306">
<rect width="10.9091" height="10.9091" fill="white" transform="translate(26.3635 1.81824)"/>
</clipPath>
</defs>
</svg>
