<svg width="40" height="40" viewBox="0 0 40 40" fill="none" xmlns="http://www.w3.org/2000/svg">
<rect width="40" height="40" rx="7.27273" fill="#FFA500"/>
<path d="M16.0842 16.7273H14.7786L17.7123 8.57523H19.1333L22.0669 16.7273H20.7613L18.4566 10.056H18.3929L16.0842 16.7273ZM16.3032 13.5349H20.5384V14.5699H16.3032V13.5349ZM24.4741 8.57523V16.7273H23.2442V8.57523H24.4741Z" fill="white"/>
<g clip-path="url(#clip0_702_8294)">
<path d="M29.284 32.1194C29.1925 32.476 29.0219 32.7792 28.6979 32.976C28.3364 33.1956 27.9526 33.2347 27.5753 33.0447C27.1608 32.836 26.7622 32.5952 26.3586 32.3652C25.7137 31.9973 25.0728 31.6239 24.4254 31.2599C24.3121 31.1961 24.2642 31.1293 24.2647 30.9948C24.2701 29.5388 24.2696 28.0828 24.2647 26.6273C24.2647 26.4942 24.3077 26.4245 24.4214 26.3592C25.3913 25.8058 26.371 25.2687 27.3196 24.6812C28.1519 24.1658 29.1302 24.6248 29.2647 25.472C29.2672 25.4883 29.2766 25.5036 29.283 25.519V32.1194H29.284Z" fill="white"/>
<path d="M16.9752 34.2715C15.5915 34.2715 14.2077 34.2745 12.8239 34.2705C11.7962 34.2675 10.9965 33.6528 10.7719 32.6933C10.7324 32.5247 10.7185 32.3467 10.7185 32.1731C10.7156 29.9371 10.7156 27.7017 10.717 25.4658C10.718 24.2581 11.5805 23.3738 12.7878 23.3703C15.5855 23.3619 18.3833 23.3619 21.181 23.3703C22.3813 23.3738 23.2424 24.2259 23.2493 25.4277C23.2621 27.6874 23.2621 29.9475 23.2493 32.2072C23.2428 33.4149 22.361 34.2661 21.1444 34.2705C19.7547 34.2755 18.365 34.2715 16.9752 34.2715Z" fill="white"/>
</g>
<defs>
<clipPath id="clip0_702_8294">
<rect width="18.5679" height="10.9091" fill="white" transform="translate(10.7161 23.3636)"/>
</clipPath>
</defs>
</svg>
