<svg xmlns="http://www.w3.org/2000/svg" width="128" height="40" viewBox="0 0 128 40">
    <defs>
        <linearGradient id="linear-gradient" x1=".295" x2=".551" y1="-.061" y2=".922" gradientUnits="objectBoundingBox">
            <stop offset="0" stop-color="#006884"/>
            <stop offset="1" stop-color="#8ad1d0"/>
        </linearGradient>
        <linearGradient id="linear-gradient-2" x1="-.075" x2=".915" y1=".158" y2=".863" gradientUnits="objectBoundingBox">
            <stop offset="0" stop-color="#24bbb6"/>
            <stop offset="1" stop-color="#dbe692"/>
        </linearGradient>
        <linearGradient id="linear-gradient-3" x1=".499" x2=".499" y1="1.058" y2="-.031" gradientUnits="objectBoundingBox">
            <stop offset="0" stop-color="#fcc072"/>
            <stop offset="1" stop-color="#f58a5b"/>
        </linearGradient>
        <linearGradient id="linear-gradient-4" x1=".112" x2=".904" y1="1.178" y2=".121" gradientUnits="objectBoundingBox">
            <stop offset="0" stop-color="#712b8f"/>
            <stop offset="1" stop-color="#ea1d27"/>
        </linearGradient>
        <style>
            .cls-5{fill-rule:evenodd}.cls-5,.cls-6{fill:#fff}
        </style>
    </defs>
    <g id="google-play-badge" transform="translate(-185.5 -18.5)">
        <path id="Path_917" d="M309.5 58.5h-120a4.012 4.012 0 0 1-4-4v-32a4.012 4.012 0 0 1 4-4h120a4.012 4.012 0 0 1 4 4v32a4.012 4.012 0 0 1-4 4z"/>
        <path id="Path_918" fill="url(#linear-gradient)" fill-rule="evenodd" d="M195.3 38.1V27.6a1.1 1.1 0 0 1 1-1.1 1.493 1.493 0 0 1 1 .3l19.3 10.6a.833.833 0 0 1 0 1.6l-19.3 10.6a1.964 1.964 0 0 1-1 .3 1.1 1.1 0 0 1-1-1.1z"/>
        <path id="Path_919" fill="url(#linear-gradient-2)" fill-rule="evenodd" d="M207.8 38.2l-11.7-11.7h.2a1.493 1.493 0 0 1 1 .3l14.2 7.8z"/>
        <path id="Path_920" fill="url(#linear-gradient-3)" fill-rule="evenodd" d="M211.4 41.7l-3.6-3.6 3.7-3.7 5.1 2.8a.833.833 0 0 1 0 1.6z"/>
        <path id="Path_921" fill="url(#linear-gradient-4)" fill-rule="evenodd" d="M196.2 49.7l11.6-11.6 3.6 3.6-14.1 7.7a1.609 1.609 0 0 1-1.1.3z"/>
        <path id="Path_922" d="M256.6 52.4a4.789 4.789 0 0 1-1.1-1.5l1.6-.7a9.222 9.222 0 0 0 .5.8 2.469 2.469 0 0 0 1.6.8 2.289 2.289 0 0 0 1.7-.8 3.1 3.1 0 0 0 .5-1.7v-.6c-1.2 1.5-3.7 1.3-5.1-.3a4.43 4.43 0 0 1 0-5.9c1.5-1.5 3.7-1.7 5-.3v-.7h1.7V49a4.333 4.333 0 0 1-1.6 3.7 3.691 3.691 0 0 1-2.3.7 4.589 4.589 0 0 1-2.5-1zm41.9.4l1.7-4-3-6.9h1.7l2.1 4.9 2.1-4.9h1.7l-4.6 10.9h-1.7zm-8.1-3.8a2.64 2.64 0 0 1-.7-1.9 2.271 2.271 0 0 1 .6-1.6 3.857 3.857 0 0 1 2.8-1 3.424 3.424 0 0 1 1.8.4 1.7 1.7 0 0 0-1.8-1.7 1.848 1.848 0 0 0-1.7 1.1l-1.5-.6a3.176 3.176 0 0 1 3.1-2 3.392 3.392 0 0 1 2.6 1 3.688 3.688 0 0 1 .8 2.6v4.2h-1.7v-.7a3.114 3.114 0 0 1-.9.7 3.194 3.194 0 0 1-1.4.3 3.861 3.861 0 0 1-2-.8zm-53.3-3.6a4.152 4.152 0 0 1 4.2-4.2 4.218 4.218 0 0 1 4.2 4.2 4.2 4.2 0 1 1-8.4 0zm9 0a4.152 4.152 0 0 1 4.2-4.2 4.218 4.218 0 0 1 4.2 4.2 4.152 4.152 0 0 1-4.2 4.2 4.218 4.218 0 0 1-4.2-4.2zm-20.3 2.2a6.581 6.581 0 0 1 .1-9.2 6.349 6.349 0 0 1 4.6-1.9 6.2 6.2 0 0 1 4.4 1.8l-1.2 1.3a4.467 4.467 0 0 0-6.4.1 4.831 4.831 0 0 0 0 6.7 4.535 4.535 0 0 0 6.6.1 3.6 3.6 0 0 0 .9-2.2h-4.2v-1.8h5.9a6.149 6.149 0 0 1 .1 1.4 5.76 5.76 0 0 1-1.6 4 6.131 6.131 0 0 1-4.3 1.7 7.426 7.426 0 0 1-4.9-2zm42.3.7a4.562 4.562 0 0 1 0-6 3.637 3.637 0 0 1 5.4 0 5.927 5.927 0 0 1 1.1 1.9l-5.5 2.3a2.133 2.133 0 0 0 2 1.3 2.265 2.265 0 0 0 2.1-1.2l1.5 1a2.651 2.651 0 0 0-.5.6 4.379 4.379 0 0 1-6.1.1zm10.4 1.2V38.4h3.6a3.591 3.591 0 0 1 3.8 3.3 3.351 3.351 0 0 1-3.4 3.3h-2.2v4.4h-1.8zm8.4 0V38.4h1.7v11.1zm-22.6-.2V36.9h1.8v12.4h-1.8zm30.5-3.1a2.726 2.726 0 0 0-1.6-.4c-1.2 0-1.9.6-1.9 1.3a1.257 1.257 0 0 0 1.4 1.1 2.09 2.09 0 0 0 2.1-2zm-51.2-.8a2.308 2.308 0 1 0-2.3 2.5 2.433 2.433 0 0 0 2.3-2.5zm9 0a2.308 2.308 0 1 0-2.3 2.5 2.365 2.365 0 0 0 2.3-2.5zm8.9.7a.367.367 0 0 1 .1-.3v-.9c0-.1-.1-.3-.1-.4a2.32 2.32 0 0 0-2.1-1.7 2.428 2.428 0 0 0-2.2 2.5 2.375 2.375 0 0 0 2.3 2.5c.8.1 1.6-.6 2-1.7zm7.3-.9l3.7-1.6a1.669 1.669 0 0 0-1.5-.9 2.424 2.424 0 0 0-2.2 2.5zm15.3-3.4a1.74 1.74 0 0 0-1.9-1.7h-2v3.5h2.1a1.793 1.793 0 0 0 1.8-1.8z" class="cls-5"/>
        <path id="Path_923" d="M299.8 50.8h-.1v-.1.1z" class="cls-5"/>
        <path id="Path_924" d="M299.8 50.8zm0-.1z" class="cls-5"/>
        <path id="Path_925" d="M299.8 50.8v-.1.1z" class="cls-5"/>
        <path id="Path_926" d="M299.8 50.8zm0-.1z" class="cls-5"/>
        <path id="Path_927" d="M299.8 50.7v.1-.1z" class="cls-5"/>
        <path id="Path_928" d="M299.8 50.8v-.1.1z" class="cls-5"/>
        <path id="Path_929" d="M299.8 50.8zm0 0z" class="cls-5"/>
        <path id="Path_930" d="M299.9 50.8zm0-.1zm0 .1z" class="cls-5"/>
        <path id="Path_931" d="M299.9 50.7v.1z" class="cls-5"/>
        <path id="Path_932" d="M299.9 50.8v-.1.1z" class="cls-5"/>
        <path id="Path_933" d="M299.9 50.8zm0-.1z" class="cls-5"/>
        <path id="Path_935" d="M300 50.8zm0-.1c0 .1-.1.1 0 0z" class="cls-5"/>
        <path id="Path_936" d="M300 50.8v-.1.1-.1.1-.1z" class="cls-5"/>
        <path id="Path_937" d="M300 50.8zm0-.1z" class="cls-5"/>
        <path id="Path_939" d="M300.1 50.7v.1-.1z" class="cls-5"/>
        <path id="Path_940" d="M300.1 50.8v-.1.1z" class="cls-5"/>
        <path id="Path_941" d="M300.1 50.8zm0-.1z" class="cls-5"/>
        <path id="Path_942" d="M224.4 28.6a2.782 2.782 0 0 1 2.9-2.9 2.658 2.658 0 0 1 2.3 1.2l-.8.5a1.806 1.806 0 0 0-1.5-.7 2 2 0 0 0 0 4 1.972 1.972 0 0 0 1.3-.5v-.9H227v-.9h2.7v2.1a2.927 2.927 0 0 1-2.3 1 2.865 2.865 0 0 1-3-2.9z" class="cls-6"/>
        <path id="Path_943" d="M230.9 31.4v-5.6h3.8v.9h-2.9v1.4h2.8v.9h-2.8v1.6h2.9v.9l-3.8-.1z" class="cls-6"/>
        <path id="Path_944" d="M237.5 31.4v-4.7h-1.7v-.9h4.4v.9h-1.7v4.7h-1z" class="cls-6"/>
        <path id="Path_945" d="M243.6 31.4v-5.6h1v5.6z" class="cls-6"/>
        <path id="Path_946" d="M247.3 31.4v-4.7h-1.7v-.9h4.4v.9h-1.7v4.7h-1z" class="cls-6"/>
        <path id="Path_947" d="M253.2 28.6a2.9 2.9 0 1 1 2.9 2.9 2.84 2.84 0 0 1-2.9-2.9zm4.7 0a1.813 1.813 0 0 0-1.9-2 1.923 1.923 0 0 0-1.9 2 1.813 1.813 0 0 0 1.9 2 1.864 1.864 0 0 0 1.9-2z" class="cls-6"/>
        <path id="Path_948" d="M264 31.4l-2.9-4v4h-1v-5.6h1l2.9 3.9v-3.9h1v5.6z" class="cls-6"/>
    </g>
</svg>
