<svg xmlns="http://www.w3.org/2000/svg" width="30" height="30" viewBox="0 0 30 30">
  <path id="branchlist" d="M15,30A15,15,0,0,1,4.393,4.393,15,15,0,1,1,25.606,25.606,14.9,14.9,0,0,1,15,30ZM8.238,22.145a.383.383,0,0,0-.383.382v.638H22.145v-.638a.383.383,0,0,0-.383-.382h-.638V7.6a.766.766,0,0,0-.766-.765H9.641a.766.766,0,0,0-.766.765V22.145Zm7.783,0H13.979V19.466a.384.384,0,0,1,.383-.383h1.276a.383.383,0,0,1,.383.383v2.678Zm1.659-5.1H16.4a.383.383,0,0,1-.382-.382V15.383A.383.383,0,0,1,16.4,15H17.68a.383.383,0,0,1,.382.383v1.276A.383.383,0,0,1,17.68,17.042Zm-4.083,0H12.32a.383.383,0,0,1-.382-.382V15.383A.383.383,0,0,1,12.32,15H13.6a.383.383,0,0,1,.382.383v1.276A.383.383,0,0,1,13.6,17.042Zm4.083-3.063H16.4a.383.383,0,0,1-.382-.382V12.32a.383.383,0,0,1,.382-.382H17.68a.383.383,0,0,1,.382.382V13.6A.383.383,0,0,1,17.68,13.979Zm-4.083,0H12.32a.383.383,0,0,1-.382-.382V12.32a.383.383,0,0,1,.382-.382H13.6a.383.383,0,0,1,.382.382V13.6A.383.383,0,0,1,13.6,13.979Zm4.083-3.062H16.4a.383.383,0,0,1-.382-.383V9.258a.383.383,0,0,1,.382-.383H17.68a.383.383,0,0,1,.382.383v1.275A.383.383,0,0,1,17.68,10.917Zm-4.083,0H12.32a.383.383,0,0,1-.382-.383V9.258a.383.383,0,0,1,.382-.383H13.6a.383.383,0,0,1,.382.383v1.275A.383.383,0,0,1,13.6,10.917Z" fill="#fff"/>
</svg>
