<svg xmlns="http://www.w3.org/2000/svg" viewBox="0 0 224.09 158.84"><defs><style>.cls-1{fill:#15a2b9;}</style></defs><title>car management2</title><g id="Layer_2" data-name="Layer 2"><g id="Layer_1-2" data-name="Layer 1"><path class="cls-1" d="M4.87,155.41a13.69,13.69,0,0,1-4-5.72c.1.22.2.45.31.67A16.16,16.16,0,0,0,4.87,155.41Z"/><path class="cls-1" d="M25.08,108.75l-1.33-.08c-1-.06-1.91-.13-2.69-.19Z"/><path class="cls-1" d="M33,158.67l-.38,0c-6,.24-11.94.16-17.9-.07C20.81,158.79,26.91,158.7,33,158.67Z"/><path class="cls-1" d="M46.05,148.82A13.11,13.11,0,0,1,40,156.7,14,14,0,0,0,46.05,148.82Z"/><path class="cls-1" d="M46.79,142v1.66c0,.39,0,.77,0,1.14,0-.22,0-.44,0-.67C46.76,143.4,46.77,142.68,46.79,142Z"/><path class="cls-1" d="M71.87,110.95l-11.21-.39q-5-.16-10.08-.41Q61.23,110.55,71.87,110.95Z"/><path class="cls-1" d="M151.67,139.44q-7.59.23-15.18.35Q144.08,139.66,151.67,139.44Z"/><path class="cls-1" d="M177.71,147.55a11.17,11.17,0,0,1-.24-1.44C177.53,146.59,177.61,147.07,177.71,147.55Z"/><path class="cls-1" d="M198.79,108.77c-6.68.46-13.37.91-20.06,1.17l-5.18.2C182,109.76,190.38,109.26,198.79,108.77Z"/><path class="cls-1" d="M191.08,158.67h-.21a13,13,0,0,1-6.56-1.85A15.62,15.62,0,0,0,191.08,158.67Z"/><path class="cls-1" d="M217.63,156.58a11.73,11.73,0,0,1-3.42,1.54l-.12,0,.27-.08.15-.05c.28-.08.56-.18.83-.29h0c.27-.11.54-.22.81-.35s.53-.26.79-.41Z"/><path class="cls-1" d="M212.1,158.5c-.3,0-.6.06-.9.07l-1.83.06,2.21-.09Z"/><path class="cls-1" d="M8.83,60.34a10.61,10.61,0,0,0-2.71,1.53,1,1,0,0,1,.21-.1,11.27,11.27,0,0,0,2.84-1.58A2.51,2.51,0,0,1,8.83,60.34Zm4.34-4.71c-.1.19-.22.38-.33.57.5-.7,1-1.44,1.49-2.17a11.74,11.74,0,0,1,.86-1.11A12.51,12.51,0,0,0,13.17,55.63Zm7.08-17.07A5.71,5.71,0,0,1,23.4,37.4,4.78,4.78,0,0,0,20.25,38.56ZM25.46,49.2a21.85,21.85,0,0,0-4.45.54l.76-.1c2.32-.23,4.64-.42,7-.59C27.64,49.12,26.55,49.16,25.46,49.2ZM32,48.77c-.65.08-1.3.14-2,.19l2-.13c.91-.05,1.48-.32,1.74-.93A4.49,4.49,0,0,1,32,48.77Zm-2.35-2h4.27v0C32.49,46.73,31.07,46.75,29.66,46.76Zm5.67-9.37.61,0h-.61Zm11.53,4.68a3.3,3.3,0,0,0-.29,1c.15-.46.28-.92.46-1.36ZM54.29,9.75Q51.63,14.43,49,19.12q2.84-5,5.69-9.91c.09-.16.18-.32.28-.47C54.71,9.06,54.5,9.4,54.29,9.75Zm9.45-6.1c-.42.05-.83.11-1.25.19l.24,0,1.41-.2Zm10.92,98.42-.47,0L72.43,102l-1.83-.1h-.26l-.68,0c-.44,0-.86-.06-1.26-.09l-.66,0-1-.1-.29,0-.77-.11s0,0,0,.07c1.63.24,4.8.45,9,.61C74.67,102.09,74.66,102.08,74.66,102.07ZM66.92,12.39A6.52,6.52,0,0,0,62,14.73a9.44,9.44,0,0,1,5.27-2.38A2.58,2.58,0,0,1,66.92,12.39ZM102.66.18c2.93-.11,5.87-.16,8.8-.18Q107,0,102.66.18Zm-.53,9.51c-1.91.06-3.82.15-5.74.26l-2.87.15-5.73.33c-5.5.31-11,.94-16.5,1.53,12.34-1,24.68-2,37-2.39l1.58,0C107.33,9.54,104.73,9.6,102.13,9.69Zm36.68-8.54c-5.33-.38-10.69-.71-16-.91q3.11.15,6.2.4c10.36.86,20.68,2,31,3C152.94,2.68,145.89,1.65,138.81,1.15ZM153.69,12,152.8,12l4,.39C155.77,12.19,154.73,12.1,153.69,12Zm7.86-8.19A12.18,12.18,0,0,1,169,8.51,10.47,10.47,0,0,0,161.55,3.83Zm15.29,37.44c-4.33-8-8.89-15.87-13-24A9,9,0,0,0,162,14.69a8.31,8.31,0,0,1,.54.82q7.24,13.11,14.49,26.24C177,41.59,176.92,41.43,176.84,41.27Zm.71,1.95a.43.43,0,0,1,0,.11h0Zm6.63-8q-4.23-7.68-8.61-15.29,4.44,7.83,8.8,15.69a3.54,3.54,0,0,0,3.17,1.81h.28A4.32,4.32,0,0,1,184.18,35.2Zm6,11.55h0c-.1.28-.18.55-.27.82l.52.33A2.83,2.83,0,0,1,190.15,46.75Zm9.9-9.38H199l1.66,0A5.5,5.5,0,0,0,200,37.37Zm3.89,1.28a4.5,4.5,0,0,1,1.37,3.06,4.39,4.39,0,0,1-4.18,4.88c-.68.08-1.36.12-2,.14.41,0,.81,0,1.22,0,3.26-.11,5.13-2,5.06-4.79A4.31,4.31,0,0,0,203.94,38.65Zm-7,8.09-2.56,0c1.54,0,3.06,0,4.59,0Zm6.07,3a11.9,11.9,0,0,1,5.82,3.15A9.48,9.48,0,0,0,203.06,49.74Zm8.19,6.46a10.39,10.39,0,0,0,3.65,4A17.49,17.49,0,0,1,211.25,56.2ZM218,61.88a9.68,9.68,0,0,1,2.27,2.58A6.22,6.22,0,0,0,218,61.88Z"/><path class="cls-1" d="M9.83,158.09l-.1,0-.1,0-.05,0-.4-.14C9.39,158,9.6,158,9.83,158.09Z"/><path class="cls-1" d="M10.4,158.25a4.55,4.55,0,0,1-.46-.12l-.22-.07.1,0Z"/><path class="cls-1" d="M214.36,158.07l-.15.05-.12,0Z"/><path class="cls-1" d="M224.09,134.6v5q0,3.19-.12,6.39a12.4,12.4,0,0,1-.67,3.53s0,0,0,0c-.13.28-.25.56-.39.84a16.1,16.1,0,0,1-3.75,5.11l-.4.33-.42.31a2.27,2.27,0,0,1-.3.21l-.3.2s-.06,0-.1.06l-.67.4-.39.21-.4.19c-.27.13-.54.24-.81.35,0,0,0,0,0,0-.27.11-.54.2-.82.29l-.16,0-.21.06h-.06c-.14,0-.3.08-.45.12l-.26,0a5.58,5.58,0,0,1-.59.1l-.22,0-.47,0-.26,0h-.26l-2.21.1c-6.09.16-12.2.07-18.29,0a15.78,15.78,0,0,1-6.77-1.85l-.12-.07a14,14,0,0,1-5.93-7.27c-.08-.22-.15-.44-.22-.66s-.11-.37-.16-.55-.11-.48-.17-.72c-.1-.48-.18-1-.25-1.45,0,0,0-.08,0-.12,0-.22-.05-.45-.06-.67a.28.28,0,0,1,0-.09c0-.15,0-.29,0-.44s0-.44,0-.67c0-.71,0-1.43,0-2.14v-.38c0-.83,0-1.67,0-2.51a2.4,2.4,0,0,0-.29-.59q-12.66.59-25.31,1-7.59.21-15.18.36-24.48.42-48.89,0-7.57-.15-15.17-.36-12.66-.36-25.31-1c-.18.33-.29.46-.29.59,0,.84,0,1.68,0,2.51,0,.13,0,.26,0,.38,0,.71,0,1.43,0,2.14,0,.23,0,.45,0,.67a3.86,3.86,0,0,1,0,.48,18.57,18.57,0,0,1-.33,2.29h0c-.05.24-.11.48-.18.71a5,5,0,0,1-.15.55A14,14,0,0,1,40,156.7l-.2.12A15.87,15.87,0,0,1,33,158.67c-6.09,0-12.19.12-18.28,0l-2.21-.1h-.26l-.26,0-.48,0-.11,0-.07,0a8.51,8.51,0,0,1-.88-.16H10.4l-.23-.06-.34-.1a.35.35,0,0,1-.11,0L9.5,158l-.33-.11h0l-.42-.14,0,0h0c-.22-.09-.43-.17-.64-.27H8a0,0,0,0,1,0,0l0,0-.58-.28L7.23,157l-.1-.06a.06.06,0,0,1-.05,0h0a1.72,1.72,0,0,1-.23-.13l-.08,0-.3-.2a10.15,10.15,0,0,1-1.16-.82,2.41,2.41,0,0,1-.36-.29l-.06,0a16.15,16.15,0,0,1-3.68-5c-.11-.22-.21-.45-.32-.67a1.77,1.77,0,0,1-.06-.17A11.88,11.88,0,0,1,.13,146C0,143.13,0,140.29,0,137.45c0-3.8,0-7.59,0-11.39a3.35,3.35,0,0,1,.25-1.49.64.64,0,0,1,.13-.19c2-2.17,1-4.61.71-7C.81,114,.53,110.6.21,107c2.94.22,5.77.43,8.55.62l4.51.31,7.34.5.13,0,.32,0c.78.07,1.66.14,2.69.2l1.33.07.21,0c6.69.47,13.37.91,20.06,1.17l5.24.21q5,.24,10.08.41l11.2.39,1.43,0,4.52.15.41,0a38.68,38.68,0,0,0,67.89,0l4.08-.14,2.77-.1,10.46-.36q5.07-.16,10.12-.41l5.19-.21c6.69-.26,13.37-.7,20-1.17l.21,0,1.34-.07c1-.06,1.91-.13,2.67-.2l.32,0,.15,0,7.34-.5,4.51-.31c2.78-.19,5.61-.4,8.56-.62-.33,3.59-.61,7-.95,10.37-.24,2.39-1.32,4.83.73,7a.91.91,0,0,1,.13.19,3.34,3.34,0,0,1,.23,1.49C224,128.91,224.08,131.76,224.09,134.6Z"/><path class="cls-1" d="M7.93,157.38a11,11,0,0,1-2.63-1.63,11.94,11.94,0,0,0,1.16.82c.2.13.41.25.62.37l.07,0C7.39,157.12,7.65,157.26,7.93,157.38Z"/><path class="cls-1" d="M10.4,158.25a4.55,4.55,0,0,1-.46-.12l-.22-.07-.1,0-.05,0-.4-.14c.22.07.42.14.65.2Z"/><path class="cls-1" d="M14.72,158.63l-1.83-.06c-.3,0-.61,0-.9-.07l.52,0Z"/><path class="cls-1" d="M39.79,156.82a13.05,13.05,0,0,1-6.56,1.85H33A15.7,15.7,0,0,0,39.79,156.82Z"/><path class="cls-1" d="M46.71,145.26a14.2,14.2,0,0,1-.33,2.29A17.77,17.77,0,0,0,46.71,145.26Z"/><path class="cls-1" d="M50.59,110.15l-5.24-.2c-6.69-.26-13.37-.71-20.06-1.17C33.72,109.26,42.15,109.77,50.59,110.15Z"/><path class="cls-1" d="M87.6,139.8q-7.59-.13-15.17-.35Q80,139.66,87.6,139.8Z"/><path class="cls-1" d="M173.55,110.15q-5.05.24-10.12.41l-10.45.36Q163.27,110.56,173.55,110.15Z"/><path class="cls-1" d="M177.34,144.78c0-.37,0-.75,0-1.14V142c0,.71,0,1.43,0,2.14C177.33,144.34,177.34,144.56,177.34,144.78Z"/><path class="cls-1" d="M184.19,156.75a13.17,13.17,0,0,1-6.16-7.93A14,14,0,0,0,184.19,156.75Z"/><path class="cls-1" d="M203,108.48c-.76.07-1.64.14-2.67.19l-1.33.08Z"/><path class="cls-1" d="M209.37,158.63c-6,.23-11.94.3-17.9.07l-.38,0C197.17,158.7,203.28,158.79,209.37,158.63Z"/><path class="cls-1" d="M223.29,149.52a13.77,13.77,0,0,1-4.14,5.94,16.08,16.08,0,0,0,3.75-5.11C223,150.08,223.16,149.8,223.29,149.52Z"/><path class="cls-1" d="M56,98.27a26,26,0,0,1-.09,2.9c-.83,0-1.48,0-2.12,0s-1.53-.08-2.3-.11l-.29,0L8.85,98.38.27,97.85V82c1,.19,1.76.36,2.51.48,9.25,1.46,18.49,3.09,27.78,4.31,5.89.77,11.83,1.15,17.77,1.6,1.4,0,2.87.12,4.44.25a2.39,2.39,0,0,1,1.8,1.14A28.94,28.94,0,0,1,56,98.27Z"/><path class="cls-1" d="M215.26,60.34a2.51,2.51,0,0,1-.34-.15,11.27,11.27,0,0,0,2.84,1.58,1,1,0,0,1,.21.1A10.78,10.78,0,0,0,215.26,60.34Zm-4.34-4.71a12.45,12.45,0,0,0-1.86-2.53,9.43,9.43,0,0,1,.7.93c.5.73,1,1.47,1.49,2.17C211.14,56,211,55.82,210.92,55.63Zm-12.3-6.43c-1.07,0-2.15-.08-3.23-.15,2.31.17,4.63.37,6.93.59l.74.1A21.08,21.08,0,0,0,198.62,49.2Zm2.07-11.8a5.52,5.52,0,0,1,3.16,1.18A4.68,4.68,0,0,0,200.69,37.4Zm-10.54,9.33v0h4.28C193,46.75,191.6,46.73,190.15,46.73Zm1.93,2a4.42,4.42,0,0,1-1.73-.87c.28.62.83.88,1.74.93L194,49C193.36,48.91,192.72,48.84,192.08,48.77ZM187.82,37.4h.32l1.23,0Zm-10.59,4.67c0-.1-.11-.2-.16-.31.16.44.3.9.45,1.36A3.3,3.3,0,0,0,177.23,42.07ZM169.8,9.75a11.68,11.68,0,0,0-.66-1,4.57,4.57,0,0,1,.29.47c2,3.57,4.11,7.13,6.14,10.7Zm-9.45-6.1-.37,0,1.39.19.18,0C161.16,3.76,160.75,3.7,160.35,3.65Zm-3.18,8.74a2.85,2.85,0,0,1-.4,0A9.59,9.59,0,0,1,162,14.69,6.58,6.58,0,0,0,157.17,12.39Zm-7.49,89.68s0,0,0,0c4.08-.16,7.16-.37,8.76-.6,0,0,0,0,0-.07C156.94,101.66,153.86,101.88,149.68,102.07ZM136.3,10.43l-5.73-.33L127.7,10q-2.87-.17-5.73-.26c-2.6-.09-5.19-.15-7.79-.16l1.58,0c12.36.37,24.7,1.42,37,2.39C147.3,11.37,141.81,10.74,136.3,10.43ZM112.63,0c2.93,0,5.87.07,8.8.18Q117,0,112.63,0ZM85.28,1.15c-7.07.5-14.12,1.53-21.14,2.46,10.32-1,20.65-2.11,31-3q3.11-.26,6.21-.4C96,.44,90.61.77,85.28,1.15ZM70.4,12c-1,.08-2.08.17-3.09.33,1.33-.12,2.66-.26,4-.39ZM60.2,17.27c-4.06,8.13-8.62,16-12.94,24a3.41,3.41,0,0,0-.22.48q7.21-13.12,14.48-26.24a5,5,0,0,1,.52-.78A8.71,8.71,0,0,0,60.2,17.27ZM55.1,8.51a12.24,12.24,0,0,1,7.39-4.67A10.44,10.44,0,0,0,55.1,8.51ZM46.49,43.34h0s0-.07,0-.11ZM39.9,35.2a4.3,4.3,0,0,1-3.64,2.2h.29a3.54,3.54,0,0,0,3.17-1.81c3-5.51,6.15-11,9.25-16.48C45.92,24.45,42.88,29.82,39.9,35.2ZM34,46.75h-.06a2.91,2.91,0,0,1-.19,1.15l.52-.33C34.17,47.3,34.09,47,34,46.75Zm-6.89,0h-2c1.52,0,3,0,4.59,0ZM23,46.59l-.5-.08-.44-.1a6.35,6.35,0,0,0,1.76.29c.41,0,.81,0,1.22,0C24.32,46.71,23.64,46.67,23,46.59Zm-4.14-3.77s0-.11,0-.17a4.88,4.88,0,0,1,0-.54c0-.13,0-.26,0-.4a4.5,4.5,0,0,1,1.37-3.06,4.31,4.31,0,0,0-1.43,3.26,4.36,4.36,0,0,0,.2,1.42.08.08,0,0,1,0,0l0,.14a1.89,1.89,0,0,1-.09-.34C18.86,43.06,18.84,42.94,18.82,42.82Zm.86,2.08a.86.86,0,0,0,.07.1l.06.06A1.82,1.82,0,0,1,19.68,44.9ZM24,37.37a5.5,5.5,0,0,0-.58,0l1.65,0ZM15.21,52.89A11.88,11.88,0,0,1,21,49.74,9.53,9.53,0,0,0,15.21,52.89Zm-6,7.29a10.46,10.46,0,0,0,3.65-4A18,18,0,0,1,9.19,60.18ZM3.8,64.52a9.5,9.5,0,0,1,2.29-2.64A6.18,6.18,0,0,0,3.8,64.52Z"/><path class="cls-1" d="M220.27,64.46A9.68,9.68,0,0,0,218,61.88h0a1,1,0,0,0-.21-.1,11.27,11.27,0,0,1-2.84-1.58h0a10.39,10.39,0,0,1-3.65-4c-.5-.7-1-1.44-1.49-2.17a9.43,9.43,0,0,0-.7-.93c0-.07-.12-.14-.18-.21a11.9,11.9,0,0,0-5.82-3.15l-.74-.1c-2.3-.22-4.62-.42-6.93-.59h0L194,49l-1.92-.13c-.91-.05-1.46-.31-1.74-.93l-.52-.33c.09-.27.17-.54.27-.82h0v0c1.45,0,2.88,0,4.28,0l2.56,0h2s.05,0,.07,0c.68,0,1.36-.06,2-.14a4.39,4.39,0,0,0,4.18-4.88,4.5,4.5,0,0,0-1.37-3.06l-.09-.07a5.52,5.52,0,0,0-3.16-1.18h-.06l-1.66,0h-1.65l-3.29,0H191.7l-2.33,0-1.23,0h-.6a3.54,3.54,0,0,1-3.17-1.81q-4.35-7.87-8.8-15.69c-2-3.57-4.09-7.13-6.14-10.7a4.57,4.57,0,0,0-.29-.47L169,8.51a12.18,12.18,0,0,0-7.43-4.68l-.18,0L160,3.62c-10.33-1-20.65-2.12-31-3q-3.09-.26-6.2-.4L121.43.18C118.5.07,115.56,0,112.63,0h-1.17c-2.93,0-5.87.07-8.8.18l-1.34.06q-3.11.15-6.21.4c-10.32.86-20.65,2-31,3l-1.41.2-.24,0A12.24,12.24,0,0,0,55.1,8.51l-.16.23c-.1.15-.19.31-.28.47q-2.85,5-5.69,9.91c-3.1,5.48-6.2,11-9.25,16.48a3.54,3.54,0,0,1-3.17,1.81h-.61l-.61,0h-.61l-2.33,0H30.06l-3.29,0H25.12l-1.65,0H23.4a5.71,5.71,0,0,0-3.15,1.16l-.1.09a4.5,4.5,0,0,0-1.37,3.06c0,.14,0,.27,0,.4a4.88,4.88,0,0,0,0,.54c0,.06,0,.12,0,.17s0,.24.07.35l0,.16a.08.08,0,0,1,0,0l.06.2.09.28.07.16c0,.08.07.16.11.23a.94.94,0,0,0,.12.22.08.08,0,0,0,0,0l.12.18.05.07.11.15a.86.86,0,0,0,.07.1l.06.06h0l.06.07h0l.07.07.16.15,0,0,.31.25a1.64,1.64,0,0,0,.22.14A2.5,2.5,0,0,0,21,46l.07,0,.07,0h0l.4.17.43.14.44.1.5.08c.68.08,1.36.12,2,.14,0,0,0,0,.07,0h2l2.56,0c1.41,0,2.83,0,4.27,0v0H34c.1.28.18.55.27.82l-.52.33c-.26.61-.83.88-1.74.93L30,49c-.43,0-.87.07-1.3.09h0c-2.32.17-4.64.36-7,.59l-.76.1a11.88,11.88,0,0,0-5.8,3.15l0,0A11.74,11.74,0,0,0,14.33,54c-.5.73-1,1.47-1.49,2.17a10.46,10.46,0,0,1-3.65,4h0a11.27,11.27,0,0,1-2.84,1.58,1,1,0,0,0-.21.1s0,0,0,0A9.5,9.5,0,0,0,3.8,64.52a8.38,8.38,0,0,0-.43.84,29.86,29.86,0,0,0-2.09,7.13c.85.26,1.53.49,2.22.67,13,3.28,26.28,4.2,39.5,5.73,2.82.33,5.68.32,8.51.5,6.63.44,11.17,4.55,12.8,12a53.48,53.48,0,0,1,.88,5.92c0,.22,0,.43,0,.64.07,1.14,0,2.3,0,3.41l.4.07.77.11.29,0,1,.1.66,0c.4,0,.82.07,1.26.09l.68,0h.26l1.83.1,1.76.09.47,0a38.67,38.67,0,1,1,75,0c4.18-.19,7.26-.41,8.76-.65l.41-.07c0-1.11-.07-2.27,0-3.41,0-.27,0-.54.06-.81v0a54.59,54.59,0,0,1,.86-5.73c1.64-7.44,6.16-11.55,12.8-12,2.84-.18,5.69-.17,8.51-.5,13.22-1.53,26.53-2.45,39.5-5.73.69-.18,1.37-.41,2.22-.67C222.18,69.61,221.67,66.78,220.27,64.46Zm-42.7-21.13q-3.35-.62-6.67-1.16c-2.22-.36-4.43-.71-6.65-1,0,0,0,0,0,0q-3.31-.48-6.64-.91c-3.33-.41-6.68-.79-10-1.13q-3.33-.33-6.65-.6c-2.22-.19-4.43-.34-6.65-.48q-5-.32-10-.48-12.23-.42-24.43,0-5,.17-10,.48c-2.22.14-4.44.29-6.65.48s-4.43.38-6.65.6q-5,.51-10,1.13-3.32.44-6.63.91s0,0,0,0c-2.22.33-4.43.68-6.65,1s-4.44.75-6.67,1.16h0l0-.12a.29.29,0,0,1,0-.1,3.3,3.3,0,0,1,.29-1l.17-.31a0,0,0,0,0,0,0,3.41,3.41,0,0,1,.22-.48c4.32-8,8.88-15.87,12.94-24A8.71,8.71,0,0,1,62,14.73a6.52,6.52,0,0,1,4.88-2.34,2.58,2.58,0,0,0,.39,0c1-.16,2-.25,3.09-.33l.89-.06c5.5-.59,11-1.22,16.5-1.53l5.73-.33L96.39,10c1.92-.11,3.83-.2,5.74-.26,3.21-.13,6.42-.2,9.62-.18h.6c3.2,0,6.41,0,9.62.18q2.87.09,5.73.26l2.87.15,5.73.33c5.51.31,11,.94,16.5,1.53l.89.06c1,.08,2.08.17,3.08.33a2.85,2.85,0,0,0,.4,0,6.58,6.58,0,0,1,4.86,2.3,9,9,0,0,1,1.86,2.58c4.06,8.13,8.62,16,13,24,.08.16.15.32.22.48,0,0,0,0,0,0s.11.21.16.31a3.3,3.3,0,0,1,.29,1,.29.29,0,0,1,0,.1l0,.12Z"/><path class="cls-1" d="M223.81,82V97.85l-8.58.53L172.91,101h-.25l-2.32.12c-.65,0-1.3,0-2.13,0-.08-1-.11-1.91-.09-2.85a29.06,29.06,0,0,1,1.4-8.55,2.43,2.43,0,0,1,1.8-1.14c1.57-.13,3-.21,4.44-.25,5.94-.46,11.88-.84,17.78-1.6,9.29-1.22,18.52-2.85,27.77-4.31C222.06,82.36,222.8,82.19,223.81,82Z"/><path class="cls-1" d="M128.16,79.09v-3.5h5.06a3.63,3.63,0,0,0-.34-.68c-7-8.2-15.87-11.43-26.54-9.43-.76.14-1.22.13-1.3-.78a7.26,7.26,0,0,0-.3-1.14c-.1-.38-.18-.77-.27-1.15C111.4,60,125,60.8,134.8,71.73V68.52h3.69V79.09Z"/><path class="cls-1" d="M92.06,68.93H88.79V65.3H99.34V75.61h-3.5V70.42a21.78,21.78,0,0,0-5.09,5,26.38,26.38,0,0,0-5,22.06c.16.77.11,1.18-.78,1.31a20.53,20.53,0,0,0-2.29.58C80.2,92.21,81.11,78.71,92.06,68.93Z"/><path class="cls-1" d="M119.6,121.14c-7.43,2.41-20.63,1.46-30.52-9.32V115H85.44V104.45H95.74v3.49H90.84c7.29,9,16.59,12.28,27.91,10Z"/><path class="cls-1" d="M138.11,85l3.21-.85c2.48,6.58,1.8,20.45-9.27,30.34h3.21v3.69H124.72V108h3.45v5.15A26.9,26.9,0,0,0,138.11,85Z"/></g></g></svg>
