<svg id="supermarket_1_" data-name="supermarket (1)" xmlns="http://www.w3.org/2000/svg" width="20.401" height="17.931" viewBox="0 0 20.401 17.931">
  <path id="Path_910" data-name="Path 910" d="M6.614,11.954h10.8a.6.6,0,0,0,.574-.434l2.391-8.368a.6.6,0,0,0-.575-.762H5.235L4.807.468A.6.6,0,0,0,4.224,0H.6a.6.6,0,1,0,0,1.2H3.744L5.9,10.908a1.792,1.792,0,0,0,.712,3.437h10.8a.6.6,0,1,0,0-1.2H6.614a.6.6,0,0,1,0-1.2Zm0,0" fill="#fff"/>
  <path id="Path_911" data-name="Path 911" d="M151,361.8A1.793,1.793,0,1,0,152.793,360,1.8,1.8,0,0,0,151,361.8Zm0,0" transform="translate(-144.983 -345.659)" fill="#fff"/>
  <path id="Path_912" data-name="Path 912" d="M362,361.8A1.793,1.793,0,1,0,363.8,360,1.8,1.8,0,0,0,362,361.8Zm0,0" transform="translate(-347.58 -345.659)" fill="#fff"/>
</svg>
