<svg id="Layer_2" data-name="Layer 2" xmlns="http://www.w3.org/2000/svg" width="38.156" height="38.17" viewBox="0 0 38.156 38.17">
  <g id="Layer_1" data-name="Layer 1">
    <path id="Path_4008" data-name="Path 4008" d="M0,32.27c.12-.48.21-1,.36-1.43a7.33,7.33,0,0,1,4.13-4.5,4.62,4.62,0,0,1-1.78-4.2,4.43,4.43,0,0,1,1.7-3.08,4.631,4.631,0,0,1,5.79,7.23l2.4,1.64a7.41,7.41,0,0,1,3.67-3.36,4.63,4.63,0,0,1-1.79-4.11,4.5,4.5,0,0,1,1.58-3.07,4.64,4.64,0,1,1,5.86,7.18,7.4,7.4,0,0,1,3.65,3.36l2.39-1.63a4.64,4.64,0,1,1,5.75.06A7.56,7.56,0,0,1,36.09,28a7.13,7.13,0,0,1,2.06,5v4.17a1,1,0,0,1-.53,1H0Zm24.85,4.39c0-2,.14-4,0-5.91a5.7,5.7,0,0,0-6.6-5.19,5.84,5.84,0,0,0-5,5.85q0,2.46,0,4.92v.3H23.38Zm-13.07,0v-5c0-.57.1-1.13.13-1.7a.73.73,0,0,0-.11-.47,5.56,5.56,0,0,0-5.83-2,5.32,5.32,0,0,0-4.3,4.42,32.25,32.25,0,0,0-.17,4.71s0,0,0,.06Zm24.89,0V33.21a5.93,5.93,0,0,0-.1-1.11,5.8,5.8,0,0,0-10.16-2.72.88.88,0,0,0-.16.56c0,.51.12,1,.12,1.52v5.2ZM19.09,24a3.13,3.13,0,1,0-2.858-1.509A3.13,3.13,0,0,0,19.09,24ZM7.36,19.53a3.1,3.1,0,0,0-3.17,3.08,3.05,3.05,0,0,0,3,3.16,3.05,3.05,0,0,0,3.18-3,3.1,3.1,0,0,0-3.01-3.24ZM27.73,22.6a3.1,3.1,0,1,0,.95-2.195,3.1,3.1,0,0,0-.95,2.195Z" fill="#fff"/>
    <path id="Path_4009" data-name="Path 4009" d="M15.06,14.14c.12-.72.25-1.55.41-2.38a.5.5,0,0,0-.16-.52c-.54-.51-1.07-1-1.61-1.55a1.18,1.18,0,0,1-.41-1.27,1.14,1.14,0,0,1,1-.79c.75-.11,1.49-.23,2.24-.32A.49.49,0,0,0,17,7c.32-.68.67-1.35,1-2a1.13,1.13,0,0,1,2.14,0c.32.67.66,1.33,1,2a.52.52,0,0,0,.47.34c.79.09,1.57.23,2.35.35a1.06,1.06,0,0,1,.92.76,1.1,1.1,0,0,1-.31,1.16c-.57.56-1.13,1.11-1.71,1.66a.49.49,0,0,0-.16.52c.15.75.27,1.51.4,2.27a1.13,1.13,0,0,1-1.7,1.22c-.68-.36-1.35-.73-2-1.07a.7.7,0,0,0-.54,0c-.72.35-1.42.76-2.15,1.11a1.11,1.11,0,0,1-1.65-1.18ZM15.3,9c.44.47.87.94,1.31,1.41A1.26,1.26,0,0,1,17,11.63c-.13.63-.22,1.26-.33,2,.59-.31,1.13-.57,1.65-.87a1.35,1.35,0,0,1,1.47,0c.26.16.55.29.82.43l.85.44c-.11-.66-.19-1.25-.32-1.83a1.41,1.41,0,0,1,.49-1.46c.43-.4.82-.85,1.23-1.28-.54-.08-1.09-.19-1.64-.23a1.39,1.39,0,0,1-1.38-1,16.9,16.9,0,0,0-.79-1.61c-.32.65-.61,1.22-.89,1.8a1.19,1.19,0,0,1-1,.72Z" fill="#fff"/>
    <path id="Path_4010" data-name="Path 4010" d="M15.62,5.39c-.18.24-.3.52-.51.62a1.27,1.27,0,0,1-.73,0c-.12,0-.22-.16-.31-.25l-2.2-2.24a1.71,1.71,0,0,1-.3-.37.67.67,0,0,1,.14-.85.68.68,0,0,1,.85-.13,1.35,1.35,0,0,1,.32.25c.77.77,1.55,1.53,2.31,2.32a4.51,4.51,0,0,1,.43.65Z" fill="#fff"/>
    <path id="Path_4011" data-name="Path 4011" d="M23.45,6.11A.75.75,0,0,1,22.73,5V4.94C23.69,4,24.6,3.1,25.54,2.21a.67.67,0,0,1,1,.22.64.64,0,0,1,0,.83c-.89.91-1.8,1.81-2.7,2.71h0Z" fill="#fff"/>
    <path id="Path_4012" data-name="Path 4012" d="M19.82,1.55v.82a.74.74,0,0,1-.75.72.73.73,0,0,1-.72-.7V.72A.73.73,0,0,1,19.09,0a.74.74,0,0,1,.73.74C19.83,1,19.82,1.28,19.82,1.55Z" fill="#fff"/>
  </g>
</svg>
