<svg xmlns="http://www.w3.org/2000/svg" width="30" height="30" viewBox="0 0 30 30">
  <g id="dashboard" transform="translate(-1741 -1192)">
    <path id="Subtraction_5" data-name="Subtraction 5" d="M-6604,1060a14.9,14.9,0,0,1-10.606-4.394A14.9,14.9,0,0,1-6619,1045a14.9,14.9,0,0,1,4.394-10.607A14.9,14.9,0,0,1-6604,1030a14.9,14.9,0,0,1,10.606,4.393A14.9,14.9,0,0,1-6589,1045a14.9,14.9,0,0,1-4.394,10.607A14.9,14.9,0,0,1-6604,1060Zm-7.02-20.357a.457.457,0,0,0-.457.457v9.595a.914.914,0,0,0,.914.914h13.25a.457.457,0,0,0,.457-.457v-.914a.457.457,0,0,0-.457-.457h-12.336V1040.1a.457.457,0,0,0-.457-.457Zm5.027,4.947h0l2.094,2.094a.907.907,0,0,0,.646.267.9.9,0,0,0,.645-.267l2.743-2.741.925.925a.676.676,0,0,0,.48.2.682.682,0,0,0,.689-.687v-3.37a.457.457,0,0,0-.457-.457h-3.37a.675.675,0,0,0-.634.424.672.672,0,0,0,.148.745l.925.925-2.095,2.1-2.095-2.095a.907.907,0,0,0-.646-.268.9.9,0,0,0-.646.268l-1.962,1.96a.454.454,0,0,0-.135.325.452.452,0,0,0,.135.321l.646.646a.453.453,0,0,0,.323.133.453.453,0,0,0,.323-.133l1.315-1.315Z" transform="translate(8360 162)" fill="#15a2b9"/>
  </g>
</svg>
