<svg xmlns="http://www.w3.org/2000/svg" width="13.801" height="15.641" viewBox="0 0 13.801 15.641">
  <g id="megaphone" transform="translate(-30.136)">
    <g id="Group_1662" data-name="Group 1662" transform="translate(35.819 0.125)">
      <g id="Group_1661" data-name="Group 1661">
        <path id="Path_424" data-name="Path 424" d="M223.828,10.469l-6.1-6.1a.917.917,0,1,0-1.3,1.3l6.1,6.1a.916.916,0,1,0,1.3-1.3Z" transform="translate(-216.163 -4.1)" fill="#fff"/>
      </g>
    </g>
    <g id="Group_1664" data-name="Group 1664" transform="translate(33.416 2.533)">
      <g id="Group_1663" data-name="Group 1663" transform="translate(0)">
        <path id="Path_425" data-name="Path 425" d="M139.713,82.9l-.046.23a9.851,9.851,0,0,1-2.173,4.4l3.319,3.319a9.818,9.818,0,0,1,4.379-2.194l.231-.046Z" transform="translate(-137.494 -82.905)" fill="#fff"/>
      </g>
    </g>
    <g id="Group_1666" data-name="Group 1666" transform="translate(30.136 7.851)">
      <g id="Group_1665" data-name="Group 1665" transform="translate(0)">
        <path id="Path_426" data-name="Path 426" d="M32.807,256.989l-2.268,2.268a1.375,1.375,0,0,0,0,1.944l1.3,1.3a1.375,1.375,0,0,0,1.944,0l2.268-2.268Zm.324,3.564a.458.458,0,0,1-.648-.648l.648-.648a.458.458,0,1,1,.648.648Z" transform="translate(-30.136 -256.989)" fill="#fff"/>
      </g>
    </g>
    <g id="Group_1668" data-name="Group 1668" transform="translate(35.075 10.573)">
      <g id="Group_1667" data-name="Group 1667" transform="translate(0)">
        <path id="Path_427" data-name="Path 427" d="M194.7,349.106l.623-.623a1.374,1.374,0,0,0,0-1.944l-.463-.463a8.683,8.683,0,0,0-.738.558l.553.554a.457.457,0,0,1,0,.648l-.634.634-.931-.9-1.3,1.3,2.079,2.015a.917.917,0,0,0,1.3-1.3Z" transform="translate(-191.813 -346.075)" fill="#fff"/>
      </g>
    </g>
    <g id="Group_1670" data-name="Group 1670" transform="translate(39.354)">
      <g id="Group_1669" data-name="Group 1669" transform="translate(0)">
        <path id="Path_428" data-name="Path 428" d="M332.322,0a.458.458,0,0,0-.458.458v.916a.458.458,0,0,0,.917,0V.458A.458.458,0,0,0,332.322,0Z" transform="translate(-331.864)" fill="#fff"/>
      </g>
    </g>
    <g id="Group_1672" data-name="Group 1672" transform="translate(42.103 3.666)">
      <g id="Group_1671" data-name="Group 1671">
        <path id="Path_429" data-name="Path 429" d="M423.239,120h-.917a.458.458,0,1,0,0,.916h.917a.458.458,0,1,0,0-.916Z" transform="translate(-421.864 -120)" fill="#fff"/>
      </g>
    </g>
    <g id="Group_1674" data-name="Group 1674" transform="translate(41.187 0.916)">
      <g id="Group_1673" data-name="Group 1673" transform="translate(0)">
        <path id="Path_430" data-name="Path 430" d="M393.562,30.134a.458.458,0,0,0-.648,0L392,31.05a.458.458,0,1,0,.648.648l.916-.916A.458.458,0,0,0,393.562,30.134Z" transform="translate(-391.864 -30)" fill="#fff"/>
      </g>
    </g>
  </g>
</svg>
