<svg xmlns="http://www.w3.org/2000/svg" width="30" height="30" viewBox="0 0 30 30">
  <path id="demands" d="M15,30A15,15,0,0,1,4.393,4.393,15,15,0,1,1,25.606,25.606,14.9,14.9,0,0,1,15,30Zm-.765-10.937h0l-1.3,1.3,2.079,2.015a.917.917,0,0,0,1.3-1.3l-.49-.474.624-.623a1.374,1.374,0,0,0,0-1.944l-.464-.464a8.76,8.76,0,0,0-.738.558l.554.553a.46.46,0,0,1,0,.648l-.634.634-.932-.9Zm-3.564-4.212h0L8.4,17.119a1.376,1.376,0,0,0,0,1.944l1.3,1.3a1.373,1.373,0,0,0,1.944,0l2.268-2.268-3.24-3.24ZM13.5,9.533l-.046.23a9.906,9.906,0,0,1-2.173,4.4L14.6,17.483a9.762,9.762,0,0,1,4.379-2.193l.23-.046L13.5,9.533h0Zm1.1-2.407a.916.916,0,0,0-.648,1.564l6.1,6.1a.917.917,0,0,0,1.3,0,.918.918,0,0,0,0-1.3l-6.1-6.1A.914.914,0,0,0,14.6,7.125Zm5.826,3.541a.458.458,0,1,0,0,.916h.917a.458.458,0,1,0,0-.916Zm0-2.75a.453.453,0,0,0-.324.134l-.917.916a.458.458,0,1,0,.648.648L20.75,8.7a.46.46,0,0,0,0-.648A.456.456,0,0,0,20.426,7.916ZM17.676,7a.459.459,0,0,0-.458.458v.916a.458.458,0,1,0,.916,0V7.458A.459.459,0,0,0,17.676,7Zm-7,11.549a.458.458,0,0,1-.324-.782L11,17.119a.458.458,0,1,1,.648.648L11,18.415A.455.455,0,0,1,10.671,18.549Z" fill="#fff"/>
</svg>
