<svg xmlns="http://www.w3.org/2000/svg" viewBox="0 0 110.65 144.66"><defs><style>.cls-1{fill:#f5f5f5;}.cls-2{fill:#13a2b9;}.cls-3{fill:none;}</style></defs><title>Draft White</title><g id="Layer_2" data-name="Layer 2"><g id="Layer_1-2" data-name="Layer 1"><path class="cls-1" d="M110.55,15.4c0-8-7.23-14.81-15.18-15.36a16.82,16.82,0,0,0-17.7,13.89C76.25,21.66,81.37,30,89,32.35c1.59.5,3.25.81,4.79,1.18v10.7H0V144.66H110.61V99C110.62,71.14,110.73,43.26,110.55,15.4ZM87.27,110.28H21.46V99.67H85.34v0h1.94Zm0-22.1H21.46V77.6H87.27Zm.13-22.06H21.57V55.47H87.4Z"/><polygon class="cls-2" points="87.27 99.7 87.27 110.28 21.46 110.28 21.46 99.67 85.34 99.67 85.33 99.7 87.27 99.7"/><rect class="cls-2" x="21.46" y="77.6" width="65.81" height="10.58"/><rect class="cls-2" x="21.57" y="55.47" width="65.83" height="10.65"/><path class="cls-1" d="M68.11,7C65,16.73,66.56,25,71.67,33h-69l-.2-.47Z"/><line class="cls-3" x1="110.61" y1="144.66" y2="144.66"/></g></g></svg>
