<svg xmlns="http://www.w3.org/2000/svg" viewBox="0 0 110.65 144.67"><defs><style>.cls-1{fill:#13a2b9;}</style></defs><title>Draft Blue</title><g id="Layer_2" data-name="Layer 2"><g id="Layer_1-2" data-name="Layer 1"><path class="cls-1" d="M110.55,15.4C110.5,7.41,103.32.59,95.36,0a16.83,16.83,0,0,0-17.7,13.9C76.25,21.67,81.36,30,89,32.35c1.6.5,3.26.81,4.79,1.19v10.7H0V144.67H110.61V99C110.62,71.14,110.73,43.27,110.55,15.4ZM87.27,110.29H21.46V99.67H85.34v0h1.94Zm0-22.1H21.46V77.6H87.27Zm.13-22.06H21.57V55.47H87.4Z"/><rect class="cls-1" x="21.46" y="99.71" width="137px" height="150px"/><path class="cls-1" d="M68.11,7.05C65,16.73,66.56,25,71.67,33h-69l-.2-.47Z"/><line class="cls-1" x1="110.61" y1="144.67" y2="144.67"/></g></g></svg>
