<svg xmlns="http://www.w3.org/2000/svg" xmlns:xlink="http://www.w3.org/1999/xlink" width="63.11" height="63.11" viewBox="0 0 63.11 63.11"><defs><style>.a,.b{fill-rule:evenodd;}.a{fill:url(#a);}.b{fill:#fbb015;}</style><linearGradient id="a" x1="0.5" x2="0.5" y2="1" gradientUnits="objectBoundingBox"><stop offset="0" stop-color="#1c6fc4"/><stop offset="1" stop-color="#01b8b6"/></linearGradient></defs><g transform="translate(0 1.28)"><path class="a" d="M51.987,22.083a.893.893,0,0,0,.637-.265l9.217-9.257a.926.926,0,0,0,.225-.928.913.913,0,0,0-.716-.61l-4.96-.836.305-.305a3.273,3.273,0,1,0-4.628-4.628l-.318.318L50.94.493a.905.905,0,0,0-.623-.729.933.933,0,0,0-.928.225L40.1,9.285a.891.891,0,0,0-.252.8l.119.769A27.18,27.18,0,0,0,12.36,11.964a.907.907,0,0,0-.265,1.26.919.919,0,0,0,.756.424.9.9,0,0,0,.5-.159,25.335,25.335,0,0,1,27-.318l.53,3.262-1.578,1.578A20.681,20.681,0,1,0,47.8,34.722c0-.2,0-.4-.013-.584a.906.906,0,0,0-.928-.889.917.917,0,0,0-.889.942c0,.172.013.345.013.53A18.865,18.865,0,1,1,27.108,15.85,18.592,18.592,0,0,1,38,19.312L34.68,22.64A14.249,14.249,0,0,0,12.864,34.722a15.156,15.156,0,0,0,.265,2.8.913.913,0,0,0,1.79-.358,12.43,12.43,0,0,1,18.434-13.2l-3.541,3.541a7.684,7.684,0,1,0,4.575,4.682l3.567-3.554a12.443,12.443,0,0,1-21.7,12.188.9.9,0,0,0-1.233-.345.912.912,0,0,0-.358,1.233A14.265,14.265,0,1,0,39.282,27.3l3.329-3.329a18.771,18.771,0,0,1,2.838,6.3.892.892,0,0,0,.875.7,1.307,1.307,0,0,0,.225-.027.915.915,0,0,0,.663-1.1,20.221,20.221,0,0,0-3.3-7.175l1.645-1.631,3.156.517a25.294,25.294,0,1,1-38.526-5.636.906.906,0,0,0,.08-1.286.918.918,0,0,0-1.286-.066A27.111,27.111,0,1,0,46.285,53.886a27.137,27.137,0,0,0,4.735-31.948l.809.133c.053,0,.106.013.159.013Zm7.321-9.562L57.2,14.643l-4.509-.756,2.122-2.122ZM53.353,6.54a1.444,1.444,0,0,1,1.034-.424,1.393,1.393,0,0,1,1.021.424,1.449,1.449,0,0,1,0,2.056l-26.882,26.9a1.458,1.458,0,0,1-2.056-2.069ZM49.414,2.535l.743,4.628L48.035,9.285,47.266,4.7Zm-7.692,7.719,3.965-3.979.769,4.589-3.979,3.979ZM33,34.722a5.882,5.882,0,1,1-5.888-5.888,6.521,6.521,0,0,1,1.247.133l-3.183,3.17a3.282,3.282,0,0,0,4.642,4.642l3.09-3.09A6.522,6.522,0,0,1,33,34.722ZM47.133,19.444l3.979-3.979,4.509.756L51.669,20.2Z"/><path class="b" d="M1854.395,22.586a.913.913,0,0,0,.651-.271l9.424-9.465a.947.947,0,0,0,.231-.949.933.933,0,0,0-.732-.624l-5.071-.854.312-.312a3.346,3.346,0,1,0-4.732-4.732l-.325.325L1853.323.51a.926.926,0,0,0-.637-.746.954.954,0,0,0-.949.231L1842.245,9.5a.911.911,0,0,0-.258.814l.122.786.393,2.373.542,3.336-1.614,1.614-1.343,1.329-3.39,3.4-1.356,1.356-3.62,3.621-1.492,1.492-3.254,3.241a3.356,3.356,0,0,0,4.746,4.746l3.159-3.159,1.519-1.532,3.648-3.634,1.356-1.37,3.4-3.4,1.329-1.329,1.681-1.668,3.227.529,2.359.393.827.136c.054,0,.109.014.163.014Zm7.485-9.777-2.156,2.17-4.61-.773,2.17-2.17Zm-6.088-6.116a1.476,1.476,0,0,1,1.058-.434,1.425,1.425,0,0,1,1.044.434,1.482,1.482,0,0,1,0,2.1l-27.486,27.5a1.491,1.491,0,0,1-2.1-2.115Zm-4.027-4.1.759,4.732-2.17,2.17-.786-4.692ZM1843.9,10.49l4.054-4.068.786,4.692-4.068,4.068Zm5.532,9.4,4.068-4.068,4.61.773-4.041,4.068Z" transform="translate(-1801.635 -1)"/></g></svg>