<svg xmlns="http://www.w3.org/2000/svg" xmlns:xlink="http://www.w3.org/1999/xlink" width="30" height="30" viewBox="0 0 30 30">
  <defs>
    <linearGradient id="linear-gradient" x1="0.5" x2="0.5" y2="1" gradientUnits="objectBoundingBox">
      <stop offset="0" stop-color="#1c6fc4"/>
      <stop offset="1" stop-color="#01b8b6"/>
    </linearGradient>
  </defs>
  <g id="employees" transform="translate(-16 -293.63)">
    <path id="user-circle-solid" d="M15,8A15,15,0,1,0,30,23,15,15,0,0,0,15,8Zm0,5.806a5.323,5.323,0,1,1-5.323,5.323A5.323,5.323,0,0,1,15,13.806Zm0,20.806a11.59,11.59,0,0,1-8.861-4.125A6.744,6.744,0,0,1,12.1,26.871a1.48,1.48,0,0,1,.429.067A8.008,8.008,0,0,0,15,27.355a7.978,7.978,0,0,0,2.474-.417,1.48,1.48,0,0,1,.429-.067,6.744,6.744,0,0,1,5.958,3.617A11.59,11.59,0,0,1,15,34.613Z" transform="translate(16 285.63)" fill="#fff"/>
    <g id="Subtraction_1" data-name="Subtraction 1" transform="translate(24 297)" fill="url(#linear-gradient)">
      <path d="M 13.44101905822754 7.5 L 0.5589859485626221 7.5 C 0.5197827219963074 7.224429130554199 0.4999990463256836 6.94526481628418 0.4999990463256836 6.665979862213135 C 0.4999990463256836 3.266050100326538 3.416129112243652 0.5 7.000528812408447 0.5 C 10.58434867858887 0.5 13.49999904632568 3.266050100326538 13.49999904632568 6.665979862213135 C 13.49999904632568 6.945279598236084 13.48021411895752 7.224460601806641 13.44101905822754 7.5 Z" stroke="none"/>
      <path d="M 12.98970985412598 7 C 12.99656105041504 6.888857841491699 12.99999904632568 6.777450561523438 12.99999904632568 6.665979862213135 C 12.99999904632568 3.541749954223633 10.30864906311035 1 7.000528812408447 1 C 3.691828966140747 1 0.9999990463256836 3.541749954223633 0.9999990463256836 6.665979862213135 C 0.9999990463256836 6.777445793151855 1.003438115119934 6.888854026794434 1.01029098033905 7 L 12.98970985412598 7 M 13.85980892181396 8 L 13.85886859893799 8 L 0.1401890516281128 8 C 0.04678904637694359 7.561970233917236 -9.5367431640625e-07 7.113440036773682 -9.5367431640625e-07 6.665979862213135 C -9.5367431640625e-07 2.990350008010864 3.140419006347656 0 7.000528812408447 0 C 10.8600492477417 0 13.99999904632568 2.990350008010864 13.99999904632568 6.665979862213135 C 13.99999904632568 7.114640235900879 13.95289897918701 7.563169956207275 13.86000919342041 7.999090194702148 L 13.85980892181396 8 Z" stroke="none" fill="#fff"/>
    </g>
    <rect id="Rectangle_13" data-name="Rectangle 13" width="1" height="5" rx="0.5" transform="translate(28.609 297)" fill="#fff"/>
    <rect id="Rectangle_14" data-name="Rectangle 14" width="1" height="5" rx="0.5" transform="translate(32.391 297)" fill="#fff"/>
  </g>
</svg>
