<svg xmlns="http://www.w3.org/2000/svg" xmlns:xlink="http://www.w3.org/1999/xlink" width="62.107" height="57.375" viewBox="0 0 62.107 57.375"><defs><style>.a{fill:url(#a);}.b{fill:#fbb015;}</style><linearGradient id="a" x1="0.5" x2="0.5" y2="1" gradientUnits="objectBoundingBox"><stop offset="0" stop-color="#1c6fc4"/><stop offset="1" stop-color="#01b8b6"/></linearGradient></defs><g transform="translate(0)"><path class="a" d="M70.757,51.982a2.729,2.729,0,1,0,2.729-2.729A2.732,2.732,0,0,0,70.757,51.982Zm3.639,0a.91.91,0,1,1-.91-.91A.911.911,0,0,1,74.4,51.982Z" transform="translate(-62.174 -45.644)"/><path class="a" d="M130.007,52.232a2.729,2.729,0,1,0,2.729-2.729A2.732,2.732,0,0,0,130.007,52.232Zm3.639,0a.91.91,0,1,1-.91-.91A.911.911,0,0,1,133.646,52.232Z" transform="translate(-114.237 -45.864)"/><path class="a" d="M189.007,52.232a2.729,2.729,0,1,0,2.729-2.729A2.732,2.732,0,0,0,189.007,52.232Zm3.639,0a.91.91,0,1,1-.91-.91A.911.911,0,0,1,192.646,52.232Z" transform="translate(-166.08 -45.864)"/><path class="a" d="M264.007,52.232a2.732,2.732,0,0,0,2.729,2.729h16.133a2.729,2.729,0,0,0,0-5.459H266.736A2.732,2.732,0,0,0,264.007,52.232Zm19.772,0a.911.911,0,0,1-.91.91H266.736a.91.91,0,1,1,0-1.819h16.133A.911.911,0,0,1,283.779,52.232Z" transform="translate(-231.983 -45.864)"/><path class="a" d="M62.106,41.4a5.285,5.285,0,0,0-.5-2.236c-.007-.015-.015-.03-.023-.045L57.254,31.1V25.265A5.768,5.768,0,0,0,51.492,19.5H45.245a.91.91,0,1,0,0,1.819h6.247a3.947,3.947,0,0,1,3.942,3.942V30.42H6.672V25.265a3.947,3.947,0,0,1,3.942-3.942H41A.91.91,0,0,0,41,19.5H10.614a5.768,5.768,0,0,0-5.762,5.762V31.1L2.927,34.664a.91.91,0,1,0,1.6.864L6.3,32.24h7.355l-1.034,7.094,0,.017a16.317,16.317,0,0,0-.129,2.048A4.918,4.918,0,0,1,7.581,46.31,5.049,5.049,0,0,1,1.82,41.4a4.032,4.032,0,0,1,.686-2.123A.91.91,0,1,0,.9,38.41,5.676,5.676,0,0,0,0,41.4a6.743,6.743,0,0,0,4.852,6.463V71.116a5.768,5.768,0,0,0,5.762,5.762H51.492a5.768,5.768,0,0,0,5.762-5.762V67.3a.91.91,0,1,0-1.819,0v3.821a3.947,3.947,0,0,1-3.942,3.942H10.614a3.947,3.947,0,0,1-3.942-3.942V48.128l.91,0A6.735,6.735,0,0,0,13.4,44.769a6.737,6.737,0,0,0,3.507,2.952.91.91,0,0,0,.626-1.709A4.931,4.931,0,0,1,14.313,41.4a15.007,15.007,0,0,1,.114-1.813L15.5,32.24h8.883V41.4a4.931,4.931,0,0,1-3.224,4.615.91.91,0,0,0,.626,1.709,6.737,6.737,0,0,0,3.507-2.952,6.734,6.734,0,0,0,5.823,3.361h.121a6.735,6.735,0,0,0,5.822-3.359,6.726,6.726,0,0,0,11.645,0,6.735,6.735,0,0,0,5.822,3.359l.91,0V63.05a.91.91,0,0,0,1.819,0V47.861A6.743,6.743,0,0,0,62.106,41.4ZM31.235,46.31h-.121A4.918,4.918,0,0,1,26.2,41.4V32.24h9.947V41.4A4.918,4.918,0,0,1,31.235,46.31Zm11.645,0A4.918,4.918,0,0,1,37.967,41.4V32.24h8.751l.97,7.333a16.622,16.622,0,0,1,.1,1.825A4.918,4.918,0,0,1,42.88,46.31Zm13.474-.1a9.624,9.624,0,0,1-1.83.1A4.918,4.918,0,0,1,49.612,41.4a17.881,17.881,0,0,0-.117-2.038l0-.015-.939-7.1H55.8l4.168,7.719a3.454,3.454,0,0,1,.317,1.44A4.92,4.92,0,0,1,56.354,46.212Z" transform="translate(0.001 -19.503)"/><path class="b" d="M142.8,289.816H154.31a.91.91,0,0,0,.892-.73l1.958-9.7a.916.916,0,0,0-.892-1.09H135.761a3.361,3.361,0,0,0-3.294-2.79h-1.552a.91.91,0,1,0,0,1.819h1.552a1.523,1.523,0,0,1,1.483,1.2l2.7,12.771a3.353,3.353,0,0,0,2.3,2.5,2.729,2.729,0,1,0,5.089.147h4.073a2.729,2.729,0,1,0,5.146,0h.217a.91.91,0,0,0,0-1.82h-13.56a1.523,1.523,0,0,1-1.483-1.2l-.233-1.1h4.6Zm-.423,5.034a.91.91,0,1,1-.91-.91A.911.911,0,0,1,142.379,294.85Zm9.219,0a.91.91,0,1,1-.91-.91A.911.911,0,0,1,151.6,294.85Zm-3.4-9.886L147.823,288h-4.216l-.379-3.033Zm-5.2-1.819-.379-3.033h6.187l-.379,3.033ZM149.656,288l.379-3.033h4.142L153.565,288Zm4.888-4.852h-4.281l.379-3.033h4.514Zm-13.757-3.033.379,3.033h-4.378l-.642-3.033Zm-3.614,4.852h4.22l.379,3.033h-3.957Z" transform="translate(-114.236 -244.45)"/></g></svg>