<svg xmlns="http://www.w3.org/2000/svg" xmlns:xlink="http://www.w3.org/1999/xlink" width="62.106" height="62.106" viewBox="0 0 62.106 62.106"><defs><style>.a{fill:url(#a);}.b{fill:#fbb015;}</style><linearGradient id="a" x1="0.5" x2="0.5" y2="1" gradientUnits="objectBoundingBox"><stop offset="0" stop-color="#1c6fc4"/><stop offset="1" stop-color="#01b8b6"/></linearGradient></defs><path class="a" d="M40.32,30.3a.91.91,0,0,0,1.126,1.429,16.721,16.721,0,0,0,1.445-1.284h1.99A17.244,17.244,0,0,0,62.106,13.222a2.732,2.732,0,0,0-2.729-2.729h-8.63c.107-1.1.156-1.981.179-2.574A4,4,0,0,0,50.1,0H12.009a4,4,0,0,0-.83,7.919c.023.593.072,1.479.178,2.574H2.729A2.732,2.732,0,0,0,0,13.222a17.217,17.217,0,0,0,6.006,13.06A.91.91,0,0,0,7.192,24.9,15.4,15.4,0,0,1,1.819,13.222a.911.911,0,0,1,.91-.91h8.837c.077.575.169,1.185.278,1.819H4.679a.915.915,0,0,0-.9,1.04,13.6,13.6,0,0,0,12.533,11.6,21.806,21.806,0,0,0,1.3,1.852h-.383A15.229,15.229,0,0,1,10.546,27.1a.91.91,0,0,0-.791,1.638,17.032,17.032,0,0,0,7.47,1.705h2A15.924,15.924,0,0,0,26.441,34.6a13.8,13.8,0,0,1-1.38,6.78,5.4,5.4,0,0,1-5.107,2.651H18.4a3.483,3.483,0,0,0-3.479,3.479V50.7H11.342a3.34,3.34,0,0,0-3.336,3.336V58.77a3.34,3.34,0,0,0,3.336,3.336H50.764A3.34,3.34,0,0,0,54.1,58.77V54.039A3.34,3.34,0,0,0,50.764,50.7H46.943V47.511a3.483,3.483,0,0,0-3.479-3.479H41.909c-4.34,0-6.309-2.9-6.366-9.4a15.929,15.929,0,0,0,2-.648.91.91,0,0,0-.675-1.69,15.616,15.616,0,0,1-5.82,1.059c-8.029.2-13.4-5.787-15.738-12.937A45.914,45.914,0,0,1,13.007,8.006h6.887a.91.91,0,0,0,0-1.819H12.009a2.183,2.183,0,1,1,0-4.367H50.1a2.183,2.183,0,1,1,0,4.367H24.078a.91.91,0,0,0,0,1.819H49.1C48.934,11.532,47.821,24.391,40.32,30.3ZM52.28,54.039V58.77a1.518,1.518,0,0,1-1.516,1.516H11.342A1.518,1.518,0,0,1,9.825,58.77V54.039a1.518,1.518,0,0,1,1.516-1.516H50.764A1.518,1.518,0,0,1,52.28,54.039Zm-7.157-6.528V50.7H16.739V47.511a1.662,1.662,0,0,1,1.66-1.66H43.464A1.662,1.662,0,0,1,45.124,47.511Zm-11.4-12.519a15.4,15.4,0,0,0,1.558,7.3,7.108,7.108,0,0,0,1.37,1.743H25.243a7.242,7.242,0,0,0,1.39-1.733,15.075,15.075,0,0,0,1.624-7.325,18.9,18.9,0,0,0,2.8.2A19.12,19.12,0,0,0,33.727,34.992ZM5.777,15.951h6.415a41.211,41.211,0,0,0,1.391,5.031,31.038,31.038,0,0,0,1.622,3.832,11.736,11.736,0,0,1-9.428-8.862Zm53.6-3.639a.911.911,0,0,1,.91.91A15.423,15.423,0,0,1,44.881,28.627H44.5a22.194,22.194,0,0,0,1.288-1.851,13.6,13.6,0,0,0,12.544-11.6.915.915,0,0,0-.9-1.04H50.258c.109-.635.2-1.244.278-1.819Zm-9.6,4.239c.045-.2.089-.4.131-.6h6.419a11.736,11.736,0,0,1-9.439,8.864A35.353,35.353,0,0,0,49.78,16.551Z" transform="translate(0 0)"/><path class="b" d="M203.066,97.743a1.549,1.549,0,0,0-1.477-1.073h-4.162l-1.286-3.958a1.561,1.561,0,0,0-2.953,0L191.9,96.67H187.74a1.561,1.561,0,0,0-.913,2.809l3.367,2.446-1.286,3.958a1.561,1.561,0,0,0,2.389,1.736l3.367-2.446,3.367,2.446a1.561,1.561,0,0,0,2.389-1.736l-1.286-3.958,3.367-2.446a1.548,1.548,0,0,0,.564-1.736Zm-5.535,3.1a.91.91,0,0,0-.331,1.017l1.236,3.806-3.237-2.352a.91.91,0,0,0-1.069,0l-3.237,2.352,1.236-3.806a.91.91,0,0,0-.331-1.017l-3.237-2.352h4a.91.91,0,0,0,.865-.629l1.237-3.805,1.236,3.805a.91.91,0,0,0,.865.629h4Z" transform="translate(-163.612 -80.54)"/><path class="a" d="M170.4,458H157.91a.91.91,0,1,0,0,1.819H170.4a.91.91,0,1,0,0-1.819Z" transform="translate(-137.956 -402.445)"/><path class="a" d="M301.368,458H295.91a.91.91,0,1,0,0,1.819h5.458a.91.91,0,1,0,0-1.819Z" transform="translate(-259.217 -402.445)"/></svg>