<svg xmlns="http://www.w3.org/2000/svg" viewBox="0 0 455.47 411.66"><defs><style>.cls-1{fill:#15a2b9;}.cls-1,.cls-2{stroke:#fff;stroke-miterlimit:10;stroke-width:2px;}.cls-2{fill:none;}</style></defs><title>5</title><g id="Layer_2" data-name="Layer 2"><g id="Layer_1-2" data-name="Layer 1"><path class="cls-1" d="M385.67,277.12c-8.29-10-21.34-11.76-33-4.31-4.9,3.11-9.68,6.39-15,9.91V174.45c-4.45,3.44-8.23,5.1-12,5q0,38.61,0,77.24,0,15,0,30.06a6.73,6.73,0,0,1-3.44,6.46c-14.14,9.28-28.11,18.83-42.27,28.08a13.87,13.87,0,0,1-7,1.92c-4,.1-8-.47-12.32-.8-.62-10.13-3.8-19.24-12.28-27.08,5.4,0,9.72,0,14,0,7,0,9.72-2.76,9.74-9.65,0-8,0-16,0-24,0-6.06-2.65-8.79-8.75-8.92-6.67-.13-13.34-.11-20,0-6.5.1-9.09,2.73-9.2,9.33-.1,6.94,0,13.87,0,20.8v4.07a4.56,4.56,0,0,1-.91.3c-6.77-1-6.77-1-6.77-7.8,0-5.73,0-11.46,0-17.2,0-6.61-2.62-9.38-9.06-9.5-6.67-.11-13.34-.12-20,0-6.23.11-8.91,2.86-9,9.16-.11,6.51,0,13,0,19.95l-7.22-.93V31.53H325.58V135.09l.11.12q6.06-6.25,11.94-12.32v-91c6.43-1.82,8.29-3.6,8.58-8.94a123.22,123.22,0,0,0,0-13.59c0-.45-.07-.88-.13-1.29-.68-4.82-3.61-7-8.91-7q-13.53,0-27,0h-58V1q-42.87,0-85.73.11a9.63,9.63,0,0,0-5.93,2.63c-3.13,3-3.19,22.06,0,24.86,2.13,1.83,5.26,2.49,8.22,3.79v73.86H157.07c0-4.23,0-8.2,0-12.18-.06-7.7-3.48-11.23-11.21-11.28q-20-.11-40,0c-7.68,0-11.19,3.68-11.23,11.33,0,4.07,0,8.14,0,12.48-3.42,0-6.22-.17-9,0A9,9,0,0,0,77,115.05a47.3,47.3,0,0,0-.2,5.19q0,62.19,0,124.38v5H60.3c-.06-.95-.11-1.6-.14-2.25-.48-12-7.86-20-19.79-20.91-5.44-.42-10.92-.26-16.39-.21-14.67.12-22.92,8.49-22.93,23.2Q1,272,1,294.57H1v77.34c0,1.89,0,3.77.05,5.65.17,12.78,8.84,21.51,21.66,21.74,4.67.08,9.34,0,14,0,13.81,0,21.51-6.62,23.73-20.77,1.34.48,2.46.86,3.56,1.28q37.11,14,74.21,28.12a38.07,38.07,0,0,0,18.82,2.4c13.32-1.76,26.61-3.77,39.91-5.69,25.15-3.63,50.28-7.42,75.46-10.85,14-1.91,26.33-6.91,36.84-16.54,14.44-13.24,29.14-26.2,43.69-39.33,10.68-9.65,21.59-19.07,31.84-29.16C393.49,300.19,393.47,286.55,385.67,277.12ZM48.28,286.85q0,45,0,90c0,6.69-3.14,10.33-9.33,10.55-5.59.2-11.2.21-16.79,0s-9-3.75-9.19-9.48c-.06-2,0-4,0-6h.18V294.57h-.19q0-22.77,0-45.54c0-7.43,3.22-10.78,10.6-11,4.79-.11,9.6-.13,14.39,0,7.16.2,10.32,3.54,10.34,10.76C48.3,261.52,48.28,274.18,48.28,286.85Zm197.72-22h14v18.49H246Zm-45.52.06h13.86v18.34H200.48Zm-29.86-252h139.5q6.66,0,13.34,0h6.46c1.42,0,2.83.12,4.24.18v6.15H170.62ZM108.34,251.58v-7.23H168.9v7.23Zm60.51,12.32v15.61c-15.48-2-29.54-7.1-43.62-15.61Zm0-60.1H108.24v-7.44h60.57Zm-60.53-47.9v-7.37H169v7.37ZM106.64,95H145V106.3H106.64Zm-18,29.23v-5.48H168.8v17.63H106.18c-7.76,0-10,2.23-10,9.92,0,4.4,0,8.8,0,13.2.05,5.91,2.56,8.55,8.5,8.58,13.2.07,26.39,0,39.59,0H168.8v16.18c-21,0-41.69,0-62.34,0-8.35,0-10.27,1.95-10.27,10.39,0,4.26,0,8.53,0,12.79.05,5.85,2.55,8.4,8.63,8.46,10.79.1,21.59,0,32.38,0h31.51v16.28h-4.33q-29.58,0-59.17,0c-6.79,0-9,2.26-9,9.14,0,3.72,0,7.45,0,11.1-.47.16-.72.34-.92.3-7.82-1.72-6.64,0-6.64-8.22Q88.56,184.38,88.61,124.2Zm286.8,177.4c-6.5,6.3-13.38,12.22-20.12,18.28-17.14,15.42-34.6,30.51-51.34,46.36-10.74,10.18-23.25,14.7-37.55,16.51-23.23,2.93-46.37,6.55-69.54,9.89-13.57,2-27.09,4.21-40.7,5.78A29,29,0,0,1,143.25,397c-26.82-9.86-53.5-20.13-80.24-30.2-2-.74-2.92-1.56-2.91-3.9q.13-49.39.07-98.78c0-.64.09-1.28.16-2.28,13.26-.26,26.34,0,38.74,4.41a223.38,223.38,0,0,1,27.3,12.05,133,133,0,0,0,47.94,13.94q27.21,2.84,54.33,6.38a22.66,22.66,0,0,1,19.52,22.84c-11.18-1.07-22-2.09-32.88-3.15q-26.64-2.59-53.27-5.22c-7-.68-14-1.3-21.07-2-4.62-.5-7.69,1.29-8.16,4.94s1.79,6.24,6.57,6.73c18.68,1.89,37.37,3.68,56,5.51,20,2,40,4,60,5.83,6.76.62,13.56,1.13,20.34,1.15a15.41,15.41,0,0,0,8.11-2.32q37.34-24.64,74.43-49.68c3.73-2.5,7.59-3.92,12-2.64A12.37,12.37,0,0,1,375.41,301.6Z"/><path class="cls-1" d="M272.16,68.42c0,4.26.06,8.51,0,12.77-.1,5.22-2.85,8.28-8.06,8.44-7.17.21-14.36.19-21.54,0-5.13-.12-8.08-2.79-8.22-7.85q-.37-13.55,0-27.12c.14-4.8,2.74-7.35,7.58-7.52,7.57-.27,15.16-.28,22.73,0,4.88.2,7.37,3.19,7.48,8.09C272.23,59.64,272.15,64,272.16,68.42Zm-12-9.59c-4.29,0-8.14-.09-12,.08-.73,0-2,1.09-2,1.7C246,66.27,246,71.94,246,77.55h14.1Z"/><path class="cls-1" d="M226.5,68.51c0,4.12.08,8.25,0,12.37-.14,5.64-3,8.65-8.63,8.77q-10.37.22-20.74,0c-5.47-.11-8.5-2.91-8.64-8.35q-.33-13,0-25.93c.13-5.38,2.85-8.11,8.22-8.29,7.17-.24,14.36-.24,21.54,0,5.51.18,8.13,3.11,8.26,8.66C226.58,60,226.5,64.25,226.5,68.51Zm-26-9.47V77.61h13.87V59Z"/><path class="cls-1" d="M226.5,205.56c0,4,.05,8,0,12-.1,6.25-2.85,9-9,9.07q-10.17.06-20.35,0c-5.55,0-8.53-2.62-8.67-8.16q-.35-13,0-25.93c.15-5.7,3.15-8.25,9-8.28,6.78,0,13.56,0,20.35,0,5.69,0,8.55,2.83,8.7,8.56C226.59,197,226.5,201.3,226.5,205.56Zm-26-9.32v18.2h13.88v-18.2Z"/><path class="cls-1" d="M272.15,205.63c0,4.27.08,8.53,0,12.8-.12,5.29-3,8.1-8.25,8.15q-10.8.11-21.6,0c-4.75-.06-7.73-2.47-7.88-7.19q-.44-14,0-28c.15-4.71,3.15-7.12,7.9-7.17,7.33-.08,14.67-.1,22,0,4.8.07,7.66,2.94,7.8,7.78C272.26,196.56,272.15,201.1,272.15,205.63Zm-25.8-9.34v18.17H260V196.29Z"/><path class="cls-1" d="M317.84,68c0,4.4.07,8.8,0,13.2-.1,5.28-2.79,8.24-8.09,8.39q-10.79.31-21.6,0c-5.31-.15-8-3-8-8.41q-.16-13,0-26c.07-5,2.46-7.84,7.46-8,7.58-.3,15.2-.3,22.78,0,5,.2,7.36,3.1,7.47,8.07C317.91,59.5,317.83,63.77,317.84,68Zm-12-9H292.15V77.57H305.8Z"/><path class="cls-1" d="M317.83,205.75c0,4.26.08,8.53,0,12.79-.12,5.15-2.85,8-7.91,8q-11,.15-22,0c-4.88-.07-7.71-2.79-7.79-7.7q-.22-13.39,0-26.79c.08-5.12,2.92-7.79,8.07-7.85q10.79-.12,21.59,0c5.1.06,7.9,2.84,8,7.91C317.92,196.68,317.83,201.22,317.83,205.75Zm-25.66-9.5v18.2H305.7v-18.2Z"/><path class="cls-1" d="M272.16,136.9c0-1.18,0-2.35,0-3.53l-1.46-1.44c-5.28-5.17-8.46-10.77-8.31-16.4-6.71-.18-13.42-.14-20.13,0-4.9.14-7.79,2.82-7.93,7.7q-.34,11.38-.11,22.8,0,2.16.09,4.32c.09,3,1.14,5.19,3.08,6.41a8.71,8.71,0,0,0,4.4,1.19c7.57.26,15.16.27,22.73,0,5-.18,7.52-3.16,7.61-8.34C272.22,145.41,272.16,141.15,272.16,136.9Zm-12.1,9.42c-4.13,0-8.09.09-12-.09a2.7,2.7,0,0,1-1.9-1.82c-.15-5.55-.09-11.1-.09-16.83h14Z"/><path class="cls-1" d="M226.5,137c0,4.13.08,8.27,0,12.4-.14,5.59-2.77,8.49-8.28,8.65q-10.79.31-21.6,0c-5.33-.16-8-2.91-8.15-8.36q-.29-12.79,0-25.6c.13-5.67,3.16-8.47,8.88-8.57,6.66-.11,13.33-.09,20,0,6.13.08,9.05,3,9.16,9.1C226.56,128.76,226.5,132.89,226.5,137Zm-12.17,9.1V127.6H200.49v18.52Z"/><path class="cls-1" d="M317.83,274.19c0,4.27.08,8.53,0,12.8-.11,5.11-2.75,8.1-7.79,8.25-7.33.22-14.67.2-22,0-5.1-.13-7.85-3-7.92-8.11q-.18-13.2,0-26.4c.07-5,2.6-7.77,7.56-7.91q11.39-.33,22.79,0c4.72.16,7.22,3,7.34,7.72C317.92,265.12,317.82,269.65,317.83,274.19Zm-25.68,9h13.52V264.73H292.15Z"/><path class="cls-1" d="M317.81,123.77c-.11-5.06-2.77-8-7.86-8.19-.79,0-1.57,0-2.36-.06,3.32,3.59,6.71,7.29,10.26,11.17C317.85,125.71,317.83,124.74,317.81,123.77Zm-37.66,26.79c.07,4.54,2.59,7.24,7.2,7.4q4.81.17,9.64.19c-5.66-5.65-11.28-11.33-16.94-17C280.06,144.3,280.1,147.43,280.15,150.56Z"/><path class="cls-1" d="M454.47,43.45c0-2.94-.77-4.21-3.65-5C415.88,28.36,381,18.15,346.08,8.08l-.16,0a10.56,10.56,0,0,0-5.63,0l-16.83,4.87L301.6,19.21,259.18,31.53l-24.18,7c-2.74.78-3.55,1.91-3.53,4.73.12,25.9,0,51.8.14,77.69a124.27,124.27,0,0,0,1.52,19.66c.31,1.85.68,3.68,1.1,5.47a88.18,88.18,0,0,0,3.17,10.73c6.79,18.65,19.28,33.88,35,47.33l7.87,7.35,45.39,45.19,12,11.95,5.44,5.41,62.87-62.55,7.69-7c4.64-4.63,9-8.75,13-13.08,18.19-19.19,27.63-41.95,27.71-68.45S454.34,70,454.47,43.45Zm-42.89,58c-22.19,21.88-44,44.1-66.19,66a86.06,86.06,0,0,1-7.76,7c-4.45,3.44-8.23,5.1-12,5-5.71-.17-11.49-4.33-19.75-12.48q-4.44-4.38-8.85-8.8c-5.66-5.65-11.28-11.33-16.94-17q-3.93-3.92-7.88-7.8l-1.46-1.44c-5.28-5.17-8.46-10.77-8.31-16.4.1-4,1.88-8,5.78-12,9.85-9.92,20.75-7.7,30,2,3.13,3.26,6.21,6.56,9.36,10,3.32,3.59,6.71,7.29,10.26,11.17q3.72,4,7.73,8.4l.11.12q6.06-6.25,11.94-12.32c16.25-16.77,31.59-32.55,46.8-48.45,9.75-10.19,20.9-17,32.83-5.39C429.74,81.18,421.41,91.79,411.58,101.48Z"/><path class="cls-2" d="M411.58,101.48c-22.19,21.88-44,44.1-66.19,66a86.06,86.06,0,0,1-7.76,7c-4.45,3.44-8.23,5.1-12,5-5.71-.17-11.49-4.33-19.75-12.48q-4.44-4.38-8.85-8.8c-5.66-5.65-11.28-11.33-16.94-17q-3.93-3.92-7.88-7.8l-1.46-1.44c-5.28-5.17-8.46-10.77-8.31-16.4.1-4,1.88-8,5.78-12,9.85-9.92,20.75-7.7,30,2,3.13,3.26,6.21,6.56,9.36,10,3.32,3.59,6.71,7.29,10.26,11.17q3.72,4,7.73,8.4l.11.12q6.06-6.25,11.94-12.32c16.25-16.77,31.59-32.55,46.8-48.45,9.75-10.19,20.9-17,32.83-5.39C429.74,81.18,421.41,91.79,411.58,101.48Z"/><path class="cls-1" d="M261.48,12.87h0Z"/></g></g></svg>