<?xml version="1.0" standalone="no"?>
<!DOCTYPE svg PUBLIC "-//W3C//DTD SVG 20010904//EN"
 "http://www.w3.org/TR/2001/REC-SVG-20010904/DTD/svg10.dtd">
<svg version="1.0" xmlns="http://www.w3.org/2000/svg"
 width="815.000000pt" height="497.000000pt" viewBox="0 0 815.000000 497.000000"
 preserveAspectRatio="xMidYMid meet">

<g transform="translate(0.000000,497.000000) scale(0.100000,-0.100000)"
fill="#000000" stroke="none">
<path d="M120 4098 l0 -753 110 110 110 110 0 532 0 533 533 0 532 0 110 110
110 110 -753 0 -752 0 0 -752z"/>
<path d="M5540 3410 l0 -680 130 0 130 0 0 227 0 227 155 -209 c86 -116 161
-218 168 -228 11 -16 28 -17 170 -15 l157 3 -189 236 -188 236 90 126 91 127
188 0 188 0 0 -248 c0 -274 6 -317 59 -390 64 -87 177 -123 330 -103 49 6 103
16 121 22 l32 12 -6 56 c-14 122 -17 133 -34 126 -10 -4 -49 -9 -89 -12 -58
-5 -77 -2 -98 11 -49 32 -55 66 -55 306 l0 220 140 0 140 0 0 105 0 105 -140
0 -140 0 0 120 0 120 -130 0 -130 0 0 -120 0 -120 -261 -2 -262 -3 -151 -214
-151 -213 -3 426 -2 426 -130 0 -130 0 0 -680z"/>
<path d="M980 3370 l0 -640 135 0 135 0 0 640 0 640 -135 0 -135 0 0 -640z"/>
<path d="M1970 3681 c-61 -13 -129 -51 -165 -94 l-35 -41 0 62 0 62 -125 0
-125 0 0 -470 0 -470 130 0 130 0 0 329 0 329 39 35 c98 88 229 67 277 -45 17
-38 19 -78 22 -345 l3 -303 130 0 129 0 0 298 c0 323 -8 389 -54 480 -37 73
-79 117 -140 147 -56 27 -155 40 -216 26z"/>
<path d="M2832 3680 c-29 -6 -79 -23 -112 -40 -95 -48 -140 -123 -140 -237 0
-136 56 -197 265 -288 154 -68 184 -93 168 -141 -22 -68 -166 -86 -324 -40
-46 14 -84 24 -85 23 -9 -15 -33 -182 -27 -188 4 -4 35 -15 68 -24 280 -72
519 -15 599 144 65 128 33 264 -81 343 -25 17 -100 55 -166 84 -137 61 -157
76 -157 114 0 46 23 55 129 54 77 0 109 -5 163 -26 l67 -25 16 76 c9 42 19 84
21 93 15 53 -254 104 -404 78z"/>
<path d="M3903 3680 c-57 -12 -111 -41 -155 -84 l-38 -37 0 56 0 55 -125 0
-125 0 0 -665 0 -665 130 0 130 0 0 196 0 196 33 -6 c144 -25 256 -13 363 39
170 83 268 281 249 500 -22 252 -154 408 -352 420 -37 2 -87 0 -110 -5z m87
-222 c36 -18 51 -35 75 -81 24 -50 30 -73 33 -150 4 -106 -18 -183 -69 -242
-52 -59 -163 -84 -271 -62 l-38 8 0 233 c0 228 0 233 23 254 65 61 171 78 247
40z"/>
<path d="M4843 3675 c-211 -47 -343 -231 -343 -475 0 -333 233 -524 587 -481
85 10 202 40 231 59 9 7 9 26 -4 96 -15 82 -18 87 -38 81 -116 -35 -139 -39
-241 -39 -113 -1 -148 9 -199 53 -24 22 -53 79 -61 124 l-7 37 280 0 281 0 7
45 c3 25 5 91 2 148 -3 92 -7 110 -36 170 -40 80 -102 138 -180 167 -73 28
-197 34 -279 15z m176 -183 c44 -22 71 -73 71 -134 l0 -48 -160 0 -160 0 6 28
c13 60 59 135 94 153 44 24 105 24 149 1z"/>
<path d="M980 1757 c0 -633 1 -642 55 -713 53 -69 149 -95 284 -76 40 6 77 14
81 19 3 4 5 48 2 96 l-4 89 -35 -7 c-19 -3 -48 -3 -65 0 -58 13 -58 17 -58
625 l0 550 -130 0 -130 0 0 -583z"/>
<path d="M2570 1691 l0 -650 57 -21 c147 -55 342 -74 472 -46 251 53 381 219
381 486 0 158 -48 288 -138 372 -85 80 -142 100 -273 100 -64 -1 -91 -6 -139
-28 -33 -15 -65 -33 -71 -40 -6 -8 -15 -14 -20 -14 -5 0 -9 110 -9 245 l0 245
-130 0 -130 0 0 -649z m527 20 c144 -66 164 -376 33 -495 -21 -19 -56 -39 -77
-45 -50 -14 -152 -14 -192 0 l-31 11 0 237 c0 235 0 238 23 259 54 51 170 66
244 33z"/>
<path d="M1850 1929 c-124 -10 -278 -64 -267 -93 3 -7 15 -49 27 -93 l21 -80
59 24 c106 42 250 48 310 11 34 -21 61 -74 67 -132 l6 -54 -119 -6 c-236 -11
-336 -45 -399 -135 -26 -38 -30 -52 -33 -125 -3 -69 0 -92 18 -135 71 -164
299 -200 483 -77 l52 35 3 -44 3 -45 125 0 124 0 0 324 c0 292 -2 330 -19 386
-26 84 -65 137 -134 181 -83 54 -178 71 -327 58z m220 -648 c0 -63 -2 -71 -26
-90 -32 -25 -115 -51 -163 -51 -114 0 -150 124 -51 175 33 17 117 32 193 34
l47 1 0 -69z"/>
<path d="M3914 1929 c-172 -19 -284 -125 -284 -269 0 -87 16 -127 73 -184 43
-43 75 -62 187 -110 176 -76 207 -109 160 -169 -42 -53 -191 -57 -335 -9 -55
19 -55 19 -60 -2 -3 -12 -12 -52 -20 -90 -9 -38 -12 -73 -7 -78 15 -15 168
-49 253 -55 248 -17 428 92 446 272 8 72 -2 114 -37 167 -40 60 -95 98 -240
162 -67 30 -131 62 -141 72 -25 23 -24 56 2 80 33 30 172 26 266 -8 83 -29 73
-37 98 80 8 41 13 78 10 82 -11 17 -119 51 -179 56 -33 2 -74 6 -91 8 -16 1
-62 -1 -101 -5z"/>
<path d="M7917 1492 l-107 -107 -2 -530 -3 -530 -530 -3 -531 -2 -109 -110
-110 -110 753 0 752 0 0 750 c0 413 -1 750 -3 750 -1 0 -51 -48 -110 -108z"/>
</g>
</svg>
