<svg xmlns="http://www.w3.org/2000/svg" viewBox="0 0 290.67 175.68"><defs><style>.cls-1{fill:#ffa703;}</style></defs><title>car</title><g id="Layer_2" data-name="Layer 2"><g id="Layer_1-2" data-name="Layer 1"><path class="cls-1" d="M290.67,163a6.24,6.24,0,0,1-4,3.22c-8.36,2.9-16.7,5.88-25.05,8.81-5.54,1.95-10.4-.83-11.86-6.55q-4.57-17.85-9.33-35.66A25.12,25.12,0,0,0,233,120.3a31.46,31.46,0,0,1-9.83-18.68c-2-12.29-8-22.58-15.75-32.06-3.92-4.8-8-9.48-10.9-15a18.54,18.54,0,0,1-2.58-7.94c-.12-3.33,1.51-4.47,4.58-3.15a27.4,27.4,0,0,1,4.29,2.42c10.93,7.27,19.57,16.81,27,27.48,2.8,4,5.49,8.09,8.23,12.14a4.39,4.39,0,0,0,1.17,1.29,3,3,0,0,0-.19-.61c-5.35-9.55-10.8-19-17.85-27.48C215,51.27,207.81,45.11,199,41c-3.71-1.76-4.67-1.53-7.64,1.85-4.34-3.85-8.73-7.65-13-11.56q-10.29-9.41-20.44-19a13.45,13.45,0,0,1-4.2-8.1,6.18,6.18,0,0,1,.09-2c.34-1.68,1.49-2.58,3.07-2a56.42,56.42,0,0,1,9.84,4.52c10.34,6.65,20.47,13.62,30.74,20.38,7.36,4.84,14.69,9.73,22.28,14.18,3.15,1.85,6.9,2.75,10.45,3.83a15.73,15.73,0,0,1,9,6.67c5.56,8.43,9.92,17.5,14.65,26.39,5.46,10.25,8.93,21.32,13.59,31.89,6.9,15.67,14,31.25,21,46.88.84,1.89,1.53,3.84,2.29,5.76Z"/><path class="cls-1" d="M0,160.7c6.95-15.58,14-31.11,20.8-46.76,3.83-8.83,6.88-18,10.85-26.76a314.36,314.36,0,0,1,18.88-36c2.74-4.41,6.26-7.4,11.34-8.53C69.55,41,76,36.74,82.4,32.43c11.72-7.89,23.33-16,35.12-23.77,4.22-2.8,8.79-5.08,13.23-7.52a11.36,11.36,0,0,1,3-1c1.75-.38,3,.34,3.06,2.12a10.61,10.61,0,0,1-.74,4.77,17.58,17.58,0,0,1-3.69,5.48c-10.9,10.1-21.93,20.07-32.93,30.07a1.5,1.5,0,0,1-.32.15l-.41-.55c-1.77-2.39-3.62-2.87-6.3-1.64A62.92,62.92,0,0,0,72,55.83C64.52,64,58.83,73.41,53.43,83c-.66,1.18-1.31,2.37-2,3.56,0,.05.05.17.13.41.77-1.15,1.5-2.22,2.21-3.29,6.08-9.23,12.34-18.31,20.12-26.24A90.44,90.44,0,0,1,88.86,45.24a18.34,18.34,0,0,1,4.28-2.09c2.17-.72,3.48.29,3.6,2.59a15,15,0,0,1-2.61,8.78c-2.36,3.76-4.88,7.45-7.6,11-4.39,5.66-9,11.17-12.49,17.46s-5.49,13.28-6.91,20.39c-1.22,6.08-3.75,11.67-8.37,15.79-5.32,4.75-7.91,10.74-9.62,17.34-2.75,10.63-5.51,21.26-8.19,31.91-1.52,6-6.34,8.66-12.16,6.59C20.56,172,12.3,169.11,4,166.24A6.37,6.37,0,0,1,0,163Z"/><path class="cls-1" d="M95.54,83.89a14.36,14.36,0,0,0-2-.16,59.48,59.48,0,0,1-6.89.43c-2.48-.15-3.18-1.71-2.15-4a7.74,7.74,0,0,1,9.84-3.54c.56.27.85,1.07,1.28,1.61s.72.88,1.08,1.32a5.6,5.6,0,0,0,1.05-1.23c1.6-3.62,3.16-7.27,4.71-10.91,2.16-5.08,6.14-7.51,11.45-8.45a174,174,0,0,1,27.31-2.38,184.49,184.49,0,0,1,33.87,2.1c1.71.29,3.39.78,5.08,1.18A9.56,9.56,0,0,1,186.81,65c2.05,4.16,3.92,8.4,5.86,12.61a5.1,5.1,0,0,0,.41,1.08c.27.33.73.78,1,.74a1.36,1.36,0,0,0,.88-.94,2.36,2.36,0,0,1,2.59-2.21,26.45,26.45,0,0,1,4.91.28c2.08.37,4.12,3.11,4.15,5.23a2.25,2.25,0,0,1-2.46,2.32c-2.34.06-4.68-.29-7-.41a15,15,0,0,0-2.05.16l-.07.51,1.79,1.38a70.32,70.32,0,0,0,6.28,4.69c3,1.77,4.15,4.44,4.63,7.62a100.41,100.41,0,0,1,0,30.81c0,.24-.09.47-.15.71-1,4.1-1.35,4.4-5.59,4.4-9,0-17.92.12-26.88,0-6.87-.13-13.73-.84-20.6-.9-10-.09-20-.22-29.92.4-12.35.77-24.69.34-37,.54-2.9,0-3.67-.53-4.34-3.38a68.59,68.59,0,0,1-1.48-19.06c.25-5.2,1-10.39,1.63-15.56a6.61,6.61,0,0,1,3.05-4.71c2.74-1.91,5.35-4,8-6,.37-.28.72-.59,1.08-.89Zm48.16-.3c13.09-.29,24.66-.49,36.23-.83,3.43-.1,6.85-.54,10.27-.85,1.14-.1,1.53-.59,1.15-1.83A69.66,69.66,0,0,0,184.69,65a5.92,5.92,0,0,0-3.78-2.93,30.78,30.78,0,0,0-3.24-.79c-4.89-.68-9.76-1.53-14.67-1.87-7-.49-14-.8-21-.79a163.74,163.74,0,0,0-16.66,1c-5,.52-9.94,1.46-14.9,2.29a6.23,6.23,0,0,0-4.54,3.27,71.32,71.32,0,0,0-6.55,15c-.35,1.17,0,1.65,1.07,1.77,2.16.24,4.33.57,6.5.64C119.66,82.95,132.43,83.28,143.7,83.59Zm1.59,26.49c-5.45.4-10.93.61-16.35,1.26a43.39,43.39,0,0,0-8.66,2.26,3.68,3.68,0,0,0-2,2.31c-.28,1.29,1,2.07,2.09,2.44a44.4,44.4,0,0,0,7,2,116.58,116.58,0,0,0,35,.18,43.63,43.63,0,0,0,8.21-2.26,3.59,3.59,0,0,0,1.93-2.25c.29-1.24-.91-2-2-2.38a36.52,36.52,0,0,0-5.52-1.73C158.49,110.53,151.9,110.35,145.29,110.08Zm41.87-6c4.17-.29,9-.57,13.9-1a3.16,3.16,0,0,0,2.2-1.3,8.8,8.8,0,0,0,.85-6.32,2.62,2.62,0,0,0-2.17-2.26,17.81,17.81,0,0,0-5.43-.37,102.91,102.91,0,0,0-12.07,2.92A30.22,30.22,0,0,0,174.14,101a5.76,5.76,0,0,0-1,1.65,5.22,5.22,0,0,0,1.71.83C178.72,103.75,182.59,103.9,187.16,104.13Zm-83.13,0v-.44c3.38,0,6.77,0,10.15,0a10,10,0,0,0,2.43-.34c1-.26,1.27-1,.52-1.71a13.27,13.27,0,0,0-2.6-2,54.26,54.26,0,0,0-17-6.31c-2.84-.56-5.72-1-8.61-.13a2.8,2.8,0,0,0-2.34,2.6,27.44,27.44,0,0,0,.38,5,2.72,2.72,0,0,0,2.79,2.44C94.48,103.5,99.25,103.84,104,104.16Z"/><path class="cls-1" d="M84.86,135.19h15.68a29.64,29.64,0,0,1-.52,4.13,2,2,0,0,1-1.51,1.17c-3.87.1-7.74.07-11.61.05a1.58,1.58,0,0,1-1.74-1.7C85.1,137.65,85,136.46,84.86,135.19Z"/><path class="cls-1" d="M190.12,135.19H205.8a29.21,29.21,0,0,1-.46,4.26,2.11,2.11,0,0,1-1.64,1q-5.8.14-11.61,0a2,2,0,0,1-1.47-1.22A29,29,0,0,1,190.12,135.19Z"/></g></g></svg>