<svg width="100%" height="100%" viewBox="0 0 24 24" fill="none" xmlns="http://www.w3.org/2000/svg">
<g clip-path="url(#clip0_3177_2748)">
<path d="M0.80341 15C1.21699 15.7178 2.13417 15.9644 2.85196 15.5508C2.85246 15.5505 2.85293 15.5503 2.85342 15.55L3.07591 15.4215C3.49591 15.7808 3.97868 16.0595 4.4999 16.2435V16.5C4.4999 17.3284 5.17148 18 5.9999 18C6.82832 18 7.4999 17.3284 7.4999 16.5V16.2435C8.0212 16.0592 8.50399 15.7802 8.92389 15.4205L9.14739 15.5495C9.86536 15.9637 10.7832 15.7175 11.1974 14.9995C11.6116 14.2815 11.3654 13.3637 10.6474 12.9495L10.4254 12.8215C10.5253 12.2777 10.5253 11.7203 10.4254 11.1765L10.6474 11.0485C11.3654 10.6343 11.6116 9.71646 11.1974 8.99848C10.7832 8.28052 9.86538 8.03426 9.14739 8.44847L8.9249 8.57698C8.50448 8.21808 8.02139 7.93992 7.4999 7.7565V7.5C7.4999 6.67158 6.82832 6 5.9999 6C5.17148 6 4.4999 6.67158 4.4999 7.5V7.7565C3.97861 7.94079 3.49582 8.21979 3.07591 8.57951L2.85241 8.45002C2.13443 8.03578 1.21661 8.28204 0.802402 9C0.388192 9.71796 0.634426 10.6358 1.35241 11.05L1.57441 11.178C1.47447 11.7218 1.47447 12.2792 1.57441 12.823L1.35241 12.951C0.636418 13.3663 0.390981 14.2823 0.80341 15ZM5.9999 10C7.10446 10 7.9999 10.8954 7.9999 12C7.9999 13.1046 7.10446 14 5.9999 14C4.89534 14 3.99991 13.1046 3.99991 12C3.99991 10.8954 4.89534 10 5.9999 10Z" fill="#FF0000"/>
</g>
<g clip-path="url(#clip1_3177_2748)">
<path d="M12.8034 15C13.217 15.7178 14.1342 15.9644 14.852 15.5508C14.8525 15.5505 14.8529 15.5503 14.8534 15.55L15.0759 15.4215C15.4959 15.7808 15.9787 16.0595 16.4999 16.2435V16.5C16.4999 17.3284 17.1715 18 17.9999 18C18.8283 18 19.4999 17.3284 19.4999 16.5V16.2435C20.0212 16.0592 20.504 15.7802 20.9239 15.4205L21.1474 15.5495C21.8654 15.9637 22.7832 15.7175 23.1974 14.9995C23.6116 14.2815 23.3654 13.3637 22.6474 12.9495L22.4254 12.8215C22.5253 12.2777 22.5253 11.7203 22.4254 11.1765L22.6474 11.0485C23.3654 10.6343 23.6116 9.71646 23.1974 8.99848C22.7832 8.28052 21.8654 8.03426 21.1474 8.44847L20.9249 8.57698C20.5045 8.21808 20.0214 7.93992 19.4999 7.7565V7.5C19.4999 6.67158 18.8283 6 17.9999 6C17.1715 6 16.4999 6.67158 16.4999 7.5V7.7565C15.9786 7.94079 15.4958 8.21979 15.0759 8.57951L14.8524 8.45002C14.1344 8.03578 13.2166 8.28204 12.8024 9C12.3882 9.71796 12.6344 10.6358 13.3524 11.05L13.5744 11.178C13.4745 11.7218 13.4745 12.2792 13.5744 12.823L13.3524 12.951C12.6364 13.3663 12.391 14.2823 12.8034 15ZM17.9999 10C19.1045 10 19.9999 10.8954 19.9999 12C19.9999 13.1046 19.1045 14 17.9999 14C16.8953 14 15.9999 13.1046 15.9999 12C15.9999 10.8954 16.8953 10 17.9999 10Z" fill="#4BB543"/>
</g>
<defs>
<clipPath id="clip0_3177_2748">
<rect width="100%" height="100%" fill="white" transform="translate(0 6)"/>
</clipPath>
<clipPath id="clip1_3177_2748">
<rect width="100%" height="100%" fill="white" transform="translate(12 6)"/>
</clipPath>
</defs>
</svg>
