<svg xmlns="http://www.w3.org/2000/svg" id="XMLID_2603_" width="19.684" height="19.684" viewBox="0 0 19.684 19.684">
    <defs>
        <style>
            .cls-1{fill:#a3a3a3}
        </style>
    </defs>
    <g id="XMLID_636_">
        <path id="XMLID_1699_" d="M3.558 7.116A3.558 3.558 0 1 0 0 3.558a3.562 3.562 0 0 0 3.558 3.558zm0-6.347A2.789 2.789 0 1 1 .769 3.558 2.792 2.792 0 0 1 3.558.769z" class="cls-1"/>
        <path id="XMLID_1701_" d="M83.3 37.1a.384.384 0 1 0 .543-.545l-.462-.46v-1.711a.384.384 0 0 0-.769 0v1.866a.385.385 0 0 0 .113.272z" class="cls-1" transform="translate(-79.437 -32.693)"/>
        <path id="XMLID_1706_" d="M19.3 144.428h-2.367a2.27 2.27 0 0 0-1.371-.912l-1.69-.37a2.594 2.594 0 0 0 1.147-2.152v-1.471a2.594 2.594 0 0 0-5.189 0v1.471a2.594 2.594 0 0 0 1.145 2.151l-1.689.371q-.108.024-.213.058v-3.182a.384.384 0 0 0-.384-.384H6.074a.384.384 0 0 0 0 .769H8.3v5.382H5.69v-1.922a1.153 1.153 0 1 0-2.307 0v1.922H.769v-5.382H3a.384.384 0 0 0 0-.769H.384a.384.384 0 0 0-.384.384v6.151a.384.384 0 0 0 .384.384h3v.73h-.039a1.193 1.193 0 0 0-1.192 1.192v.192H.384a.384.384 0 0 0-.384.384v1.538a.385.385 0 0 0 .384.384H19.3a.385.385 0 0 0 .384-.384v-6.151a.384.384 0 0 0-.384-.384zm-2.338 4.613h-2.2v-.769h4.152v.769zm1.954-1.538h-4.153v-.769h4.152zm0-1.538h-4.153v-.765h4.152zm-8.316-6.441a1.826 1.826 0 0 1 3.646-.143l-.894-.525a.384.384 0 0 0-.489.085 2.039 2.039 0 0 1-1.566.731h-.7v-.148zm0 .916h.7a2.8 2.8 0 0 0 1.93-.767l1.025.6v.719a1.826 1.826 0 0 1-3.651 0v-.554zm2.428 3.077l-.608 1.626-.609-1.629a2.581 2.581 0 0 0 1.217 0zm-4.338 3.41a.384.384 0 0 0 .384-.384V144.4a1.5 1.5 0 0 1 .378-.138l1.682-.369.927 2.478a.384.384 0 0 0 .72 0l.927-2.478 1.692.37a1.5 1.5 0 0 1 .419.161h-1.441a.384.384 0 0 0-.384.384v4.229H8.273v-2.114h.416zm-1.185 0v2.114H6.92v-.192a1.193 1.193 0 0 0-1.192-1.192H5.69v-.73zm-3.352-2.691a.384.384 0 1 1 .769 0v3.422h-.77zm-1.23 4.613a.423.423 0 0 1 .423-.423h2.382a.423.423 0 0 1 .423.423v.192H2.922zm15.993 1.73H.769v-.769h18.146z" class="cls-1" transform="translate(0 -131.665)"/>
        <path id="XMLID_1768_" d="M108.113 217.113a.384.384 0 1 0 .272-.113.387.387 0 0 0-.272.113z" class="cls-1" transform="translate(-103.848 -208.657)"/>
    </g>
</svg>
