<svg xmlns="http://www.w3.org/2000/svg" width="16.502" height="24.483" viewBox="0 0 16.502 24.483">
  <path id="Path_904" data-name="Path 904" d="M99.591,19.837a.359.359,0,0,0-.359.359v3.372a.2.2,0,0,1-.2.2H97.106V16.7a.359.359,0,1,0-.717,0v7.063H92.507l1.126-1.239a.643.643,0,0,0,.155-.516l0-.011-1.072-6.334L93,15.231a.813.813,0,0,0,.513.223.628.628,0,0,0,.562-.348h0l1.131-2.267,2.576,1A2.485,2.485,0,0,1,99.232,16.1v2.426a.359.359,0,1,0,.717,0V16.1a3.2,3.2,0,0,0-1.893-2.923l-.007,0L93.762,11.51V10.5a3.36,3.36,0,0,0,1.272-2.211,1.552,1.552,0,0,0,.912-.372A1.523,1.523,0,0,0,96.1,5.773V4.445a4.445,4.445,0,1,0-8.89,0V5.808a1.44,1.44,0,0,0-.37.96,1.52,1.52,0,0,0,.529,1.154,1.552,1.552,0,0,0,.911.372,3.325,3.325,0,0,0,1.345,2.264v.953l-4.283,1.66-.007,0A3.2,3.2,0,0,0,83.447,16.1v7.471a.916.916,0,0,0,.915.915h3.417a.359.359,0,0,0,0-.717h-.772V16.7a.359.359,0,1,0-.717,0v7.063H84.362a.2.2,0,0,1-.2-.2V16.1a2.485,2.485,0,0,1,1.446-2.259l2.574-1,1.131,2.267a.628.628,0,0,0,.562.348.813.813,0,0,0,.513-.223l.289.435L89.608,22l0,.011a.643.643,0,0,0,.155.516l1.126,1.239H89.453a.359.359,0,1,0,0,.717h9.581a.916.916,0,0,0,.915-.915V20.2A.359.359,0,0,0,99.591,19.837ZM94.537,12.58l-1.054,2.113-1.268-.9,1.3-1.608Zm-2.12,2.236-.273.412H91.25l-.273-.412L91.7,14.3Zm-2.071-3.19v-.671a3.639,3.639,0,0,0,1.356.257,3.367,3.367,0,0,0,1.341-.28v.7L91.7,13.292Zm5.41-4.858a.8.8,0,0,1-.279.61.835.835,0,0,1-.414.191v-1.6A.811.811,0,0,1,95.757,6.768Zm-7.5.8a.81.81,0,0,1-.693-.8.852.852,0,0,1,.693-.782Zm.019-2.314a1.773,1.773,0,0,0-.343.077V4.445a3.728,3.728,0,1,1,7.455,0v.863a1.594,1.594,0,0,0-.323-.062c0-.346,0-.279-1.129-1.5a.638.638,0,0,0-.815-.1,6.915,6.915,0,0,1-4.18,1.125A.638.638,0,0,0,88.275,5.255Zm.7,2.6V5.5a7.664,7.664,0,0,0,4.482-1.209c.519.557.8.85.891.961v2.6a2.687,2.687,0,0,1-5.374,0Zm.938,6.842L88.857,12.58l1.018-.394,1.3,1.608Zm.411,7.385,1.038-6.133h.673l1.038,6.133L91.7,23.59Z" transform="translate(-83.447)" fill="#fff"/>
</svg>
