<svg xmlns="http://www.w3.org/2000/svg" viewBox="0 0 421.66 426.13"><defs><style>.cls-1,.cls-3{fill:#15a2b9;}.cls-2{fill:#fff;}.cls-3{stroke:#fff;stroke-miterlimit:10;stroke-width:3px;}</style></defs><title>partslist</title><g id="Layer_2" data-name="Layer 2"><g id="Layer_1-2" data-name="Layer 1"><path class="cls-1" d="M311.17,94.76c0-1.8,0-3.61-.09-5.41-1.15-18.74-15.54-34.79-34.2-36.62-12-1.18-24.2-.59-36.3-.79-1.49,0-3,0-4.35,0a9.82,9.82,0,0,1-.26-1.33q0-5.81,0-11.6c0-7-2.18-9.88-9.1-10.29C218,28.2,209,28.3,200.16,28.3c-2.22,0-3.44-.64-4.35-2.78C190.11,12,179.72,4.1,165.56,1.15,143.35-3.47,123.06,6,114.17,25.73a5.44,5.44,0,0,1-4,2.41c-8.88.35-17.78.13-26.65.63-5.84.33-8.17,3.32-8.21,9.08,0,4.51,0,9,0,14.09-11.55,0-22.62-.12-33.67.06a45.19,45.19,0,0,0-11.44,1.39C11,58.77,0,73.61,0,93.61Q0,211.78,0,329.94c0,10.7,0,21.4.09,32.1.07,7.84,3.23,14.53,8.31,20.28C17,392,28,396.17,40.71,396.17q52,0,104.05,0c42,0,84.07-.09,126.1,0,21,.06,40.84-15.24,40.61-40.37C310.7,268.82,311.17,181.79,311.17,94.76ZM94.74,47.25h22.83c6.56,0,9.72-2.15,11.63-8.47,2-6.76,5.46-12.42,11.41-16.43a25.77,25.77,0,0,1,39,13.44c.43,1.34.84,2.7,1.32,4,1.82,5,5.06,7.38,10.48,7.42,8.12.07,16.24.06,24.36.09a7.17,7.17,0,0,1,.77.16V84.76H94.74Zm197.58,95.81V356.18c0,13.17-6.31,19.94-19.47,20.89-1.28.09-2.57.15-3.86.15q-113.32,0-226.66-.08a36.79,36.79,0,0,1-12.07-1.92c-7.38-2.61-11.31-8.17-11.4-16.19,0-.51,0-1,0-1.54q0-132.09,0-264.18c0-10.86,5.86-18.85,15.76-21.61a6.93,6.93,0,0,1,1.86-.45c12.74,0,25.48,0,38.78,0,0,7,0,13.72,0,20.4,0,8.32,3.68,12.17,11.91,12.17q68.27.06,136.53,0c8.34,0,12.21-4.06,12.22-12.41,0-6.67,0-13.33,0-20.15,1.18-.11,1.93-.23,2.67-.23,10.7,0,21.41-.13,32.1,0,13,.2,21.6,9.07,21.62,22.13C292.35,109.8,292.32,126.43,292.32,143.06Z"/><path class="cls-2" d="M148.52,231.11h0ZM155.38,250c.86,0,1.71,0,2.57,0C157.09,250,156.24,250,155.38,250Z"/><path class="cls-2" d="M292.31,93.17c0-13.06-8.61-21.93-21.62-22.13-10.69-.16-21.4,0-32.1,0-.74,0-1.49.12-2.67.23,0,6.82,0,13.48,0,20.15,0,8.35-3.88,12.4-12.22,12.41q-68.26.06-136.53,0c-8.23,0-11.9-3.85-11.91-12.17,0-6.68,0-13.37,0-20.4-13.3,0-26,0-38.78,0a6.93,6.93,0,0,0-1.86.45c-9.9,2.76-15.76,10.75-15.76,21.61q0,132.09,0,264.18c0,.51,0,1,0,1.54.09,8,4,13.58,11.4,16.19a36.79,36.79,0,0,0,12.07,1.92q113.33.16,226.66.08c1.29,0,2.58-.06,3.86-.15,13.16-1,19.47-7.72,19.47-20.89V143.06C292.32,126.43,292.35,109.8,292.31,93.17ZM51.83,148.87a8.65,8.65,0,0,1,9.78.54,43.42,43.42,0,0,1,3.49,3c3.72,3.37,7.43,6.76,11.53,10.5,9-8.61,18.51-17.68,28-26.68,4.81-4.53,9.29-4.94,13.79-1.46a8.79,8.79,0,0,1,1.77,12.6A19.47,19.47,0,0,1,118,150q-16.8,16-33.64,31.88c-6.71,6.33-10.61,6.22-17-.33-5.32-5.42-10.8-10.7-15.87-16.35a17.28,17.28,0,0,1-4-7.63C46.72,153.93,48.42,150.71,51.83,148.87Zm-4,80.25a8.58,8.58,0,0,1,7-5.91c3.83-.71,6.66,1.14,9.26,3.65,4,3.84,8,7.63,12.29,11.75q14.08-13.43,28.2-26.91c3.34-3.2,7.11-4.76,11.57-2.9,6.27,2.63,7.87,9.84,3.36,15-1.87,2.12-4,4-6.07,6q-14.7,14-29.44,27.93c-6,5.69-10.59,5.65-16.27-.15S56.2,245.71,50.51,239.75C47.64,236.76,46.42,233.22,47.84,229.12Zm72.55,68.94a22.88,22.88,0,0,1-2.81,3.17Q101.21,316.8,84.8,332.32c-7.33,6.91-10.94,6.82-17.86-.25-5.22-5.34-10.67-10.48-15.57-16.09a17.71,17.71,0,0,1-3.9-8.41c-.57-3.49,1.43-6.49,4.8-8a8.58,8.58,0,0,1,9.12.63,46.74,46.74,0,0,1,3.79,3.25l11.47,10.39c9.19-8.75,18.73-17.94,28.4-27,5.48-5.12,12.23-4.35,15.74,1.55A8.21,8.21,0,0,1,120.39,298.06Zm137,26.87a18.81,18.81,0,0,1-4.94.68q-52,.06-104,0c-6.2,0-10.32-2.7-11.35-7.24-1.51-6.63,3-11.83,10.46-11.87,17.65-.07,35.29,0,52.94,0q26.08,0,52.16,0c4.25,0,7.9,1.12,10.14,5.06A9.31,9.31,0,0,1,257.36,324.93Zm-1-150.75a27.41,27.41,0,0,1-5.35.53q-50.61,0-101.23,0a29.88,29.88,0,0,1-5.73-.57,9.2,9.2,0,0,1-.49-17.88,21.64,21.64,0,0,1,5.33-.61q25.88-.06,51.77,0,26.09,0,52.16,0c5.91,0,9.84,2.73,10.86,7.34A9.13,9.13,0,0,1,256.41,174.18Z"/><path class="cls-2" d="M216.54,47.49V84.76H94.74V47.25h22.83c6.56,0,9.72-2.16,11.63-8.47,2-6.76,5.46-12.42,11.41-16.43a25.77,25.77,0,0,1,39,13.45c.44,1.34.85,2.7,1.32,4,1.82,5,5.06,7.38,10.48,7.43,8.12.06,16.23.06,24.35.09A6.67,6.67,0,0,1,216.54,47.49Z"/><path class="cls-1" d="M256.41,174.18a27.41,27.41,0,0,1-5.35.53q-50.61,0-101.23,0a29.88,29.88,0,0,1-5.73-.57,9.2,9.2,0,0,1-.49-17.88,21.64,21.64,0,0,1,5.33-.61q25.88-.06,51.77,0,26.09,0,52.16,0c5.91,0,9.84,2.73,10.86,7.34A9.13,9.13,0,0,1,256.41,174.18Z"/><path class="cls-1" d="M257.36,324.93a18.81,18.81,0,0,1-4.94.68q-52,.06-104,0c-6.2,0-10.32-2.7-11.35-7.24-1.51-6.63,3-11.83,10.46-11.87,17.65-.07,35.29,0,52.94,0q26.08,0,52.16,0c4.25,0,7.9,1.12,10.14,5.06A9.31,9.31,0,0,1,257.36,324.93Z"/><path class="cls-1" d="M120.23,147.38A19.47,19.47,0,0,1,118,150q-16.8,16-33.64,31.88c-6.71,6.33-10.61,6.22-17-.33-5.32-5.42-10.8-10.7-15.87-16.35a17.28,17.28,0,0,1-4-7.63c-.75-3.63,1-6.85,4.36-8.69a8.65,8.65,0,0,1,9.78.54,43.42,43.42,0,0,1,3.49,3c3.72,3.37,7.43,6.76,11.53,10.5,9-8.61,18.51-17.68,28-26.68,4.81-4.53,9.29-4.94,13.79-1.46A8.79,8.79,0,0,1,120.23,147.38Z"/><path class="cls-1" d="M119.52,223.76c-1.87,2.12-4,4-6.07,6q-14.7,14-29.44,27.93c-6,5.69-10.59,5.65-16.27-.15S56.2,245.71,50.51,239.75c-2.87-3-4.09-6.53-2.67-10.63a8.58,8.58,0,0,1,7-5.91c3.83-.71,6.66,1.14,9.26,3.65,4,3.84,8,7.63,12.29,11.75q14.08-13.43,28.2-26.91c3.34-3.2,7.11-4.76,11.57-2.9C122.43,211.43,124,218.64,119.52,223.76Z"/><path class="cls-1" d="M120.39,298.06a22.88,22.88,0,0,1-2.81,3.17Q101.21,316.8,84.8,332.32c-7.33,6.91-10.94,6.82-17.86-.25-5.22-5.34-10.67-10.48-15.57-16.09a17.71,17.71,0,0,1-3.9-8.41c-.57-3.49,1.43-6.49,4.8-8a8.58,8.58,0,0,1,9.12.63,46.74,46.74,0,0,1,3.79,3.25l11.47,10.39c9.19-8.75,18.73-17.94,28.4-27,5.48-5.12,12.23-4.35,15.74,1.55A8.21,8.21,0,0,1,120.39,298.06Z"/><path class="cls-1" d="M257.36,249.43a18.81,18.81,0,0,1-4.94.68q-52,.06-104,0c-6.2,0-10.32-2.7-11.35-7.24-1.51-6.63,3-11.83,10.46-11.87,17.65-.07,35.29,0,52.94,0q26.08,0,52.16,0c4.25,0,7.9,1.12,10.14,5.06A9.31,9.31,0,0,1,257.36,249.43Z"/><path class="cls-2" d="M168,189.4c27.46-27.17,60.76-40.88,99.38-40.09,45.56.95,81.89,20.64,109.65,56.76l14.34-9c.4.26.62.32.71.46,1.24,1.92,2.45,3.86,3.67,5.79a152.92,152.92,0,0,1,22.77,61q.85,5.89,1.68,11.79v21.73c-.37,2.42-.81,4.83-1.07,7.26-2.87,25.88-12.28,49.29-26.72,70.81a7.59,7.59,0,0,0-.55,1.27L377,367.81c-25.52,33.44-58.83,53-100.79,56.32S197.91,414,168,384.48C113.82,331,113.86,243,168,189.4Z"/><path class="cls-3" d="M420.16,276.09v21.73c-.36,2.42-.8,4.83-1.07,7.26-2.87,25.88-12.28,49.29-26.72,70.81a7.12,7.12,0,0,0-.55,1.26L377,367.8c-25.52,33.44-58.83,53-100.79,56.32S197.91,414,168,384.48C113.82,331,113.86,243,168,189.41c27.46-27.17,60.76-40.89,99.38-40.09,45.56.94,81.88,20.64,109.64,56.76l14.34-9c.4.26.62.32.71.46,1.24,1.92,2.45,3.85,3.68,5.78a153,153,0,0,1,22.77,61Q419.34,270.19,420.16,276.09Zm-101.67-33L362,215.56c-27.55-38.53-79.68-59.5-131.44-43.94-51.39,15.44-86.57,62.67-85.73,116.26.9,57.29,38.67,103.85,94.13,116.58,49.65,11.4,98.12-10.53,123-46.17l-43.49-27.46c-27.45,32.13-73.16,32.38-100.66,6.06a68.94,68.94,0,0,1-2.58-97.35C242.15,211.14,290,209.63,318.49,243.05Zm9.2,73.13,58.14,36.72c23.31-40.38,22-94.35-.07-131.85l-58.07,36.68C336.26,277.31,336.24,296.67,327.69,316.18Zm-114-29.34a51.53,51.53,0,1,0,51.64-51.43A51.4,51.4,0,0,0,213.68,286.84Z"/><path class="cls-3" d="M306.11,363.07l6.64,16-16,6.64-6.67-15.94Z"/><path class="cls-3" d="M188.9,328l-16,6.63-6.65-16,16-6.66Z"/><path class="cls-3" d="M224,210.76l-6.62-16,16-6.66,6.66,16Z"/><path class="cls-3" d="M233.7,385.72l-16-6.63,6.6-16,16,6.56Z"/><path class="cls-3" d="M166.36,255.38l6.61-16,16,6.59-6.58,16Z"/><path class="cls-3" d="M290.07,204l6.62-16,16,6.6-6.59,16Z"/><path class="cls-3" d="M373.6,316.25l-17-3.21,3.15-17,17,3.17Z"/><path class="cls-3" d="M359.83,277.9l-3.22-17,17-3.23,3.24,17Z"/><path class="cls-3" d="M230.78,286.82a34.42,34.42,0,1,1,34.08,34.54A34.36,34.36,0,0,1,230.78,286.82Zm17.27.07a17.17,17.17,0,1,0,17.07-17.11A17.2,17.2,0,0,0,248,286.89Z"/></g></g></svg>