<svg xmlns="http://www.w3.org/2000/svg" viewBox="0 0 521.47 521.31"><defs><style>.cls-1{fill:#15a2b9;}</style></defs><title>3</title><g id="Layer_2" data-name="Layer 2"><g id="Layer_1-2" data-name="Layer 1"><path class="cls-1" d="M301.26,265.77a17.08,17.08,0,1,0,17.17,17A17.22,17.22,0,0,0,301.26,265.77Zm.08,22.77a5.71,5.71,0,0,1-5.67-5.79,5.77,5.77,0,0,1,5.52-5.59,5.69,5.69,0,1,1,.15,11.38Zm-.08-22.77a17.08,17.08,0,1,0,17.17,17A17.22,17.22,0,0,0,301.26,265.77Zm.08,22.77a5.71,5.71,0,0,1-5.67-5.79,5.77,5.77,0,0,1,5.52-5.59,5.69,5.69,0,1,1,.15,11.38Zm-.08-22.77a17.08,17.08,0,1,0,17.17,17A17.22,17.22,0,0,0,301.26,265.77Zm.08,22.77a5.71,5.71,0,0,1-5.67-5.79,5.77,5.77,0,0,1,5.52-5.59,5.69,5.69,0,1,1,.15,11.38Zm-.08-22.77a17.08,17.08,0,1,0,17.17,17A17.22,17.22,0,0,0,301.26,265.77Zm.08,22.77a5.71,5.71,0,0,1-5.67-5.79,5.77,5.77,0,0,1,5.52-5.59,5.69,5.69,0,1,1,.15,11.38Zm-.08-22.77a17.08,17.08,0,1,0,17.17,17A17.22,17.22,0,0,0,301.26,265.77Zm.08,22.77a5.71,5.71,0,0,1-5.67-5.79,5.77,5.77,0,0,1,5.52-5.59,5.69,5.69,0,1,1,.15,11.38Zm-.08-22.77a17.08,17.08,0,1,0,17.17,17A17.22,17.22,0,0,0,301.26,265.77Zm.08,22.77a5.71,5.71,0,0,1-5.67-5.79,5.77,5.77,0,0,1,5.52-5.59,5.69,5.69,0,1,1,.15,11.38Zm-.08-22.77a17.08,17.08,0,1,0,17.17,17A17.22,17.22,0,0,0,301.26,265.77Zm.08,22.77a5.71,5.71,0,0,1-5.67-5.79,5.77,5.77,0,0,1,5.52-5.59,5.69,5.69,0,1,1,.15,11.38Zm-.08-22.77a17.08,17.08,0,1,0,17.17,17A17.22,17.22,0,0,0,301.26,265.77Zm.08,22.77a5.71,5.71,0,0,1-5.67-5.79,5.77,5.77,0,0,1,5.52-5.59,5.69,5.69,0,1,1,.15,11.38Zm-.08-22.77a17.08,17.08,0,1,0,17.17,17A17.22,17.22,0,0,0,301.26,265.77Zm.08,22.77a5.71,5.71,0,0,1-5.67-5.79,5.77,5.77,0,0,1,5.52-5.59,5.69,5.69,0,1,1,.15,11.38Zm-.08-22.77a17.08,17.08,0,1,0,17.17,17A17.22,17.22,0,0,0,301.26,265.77Zm.08,22.77a5.71,5.71,0,0,1-5.67-5.79,5.77,5.77,0,0,1,5.52-5.59,5.69,5.69,0,1,1,.15,11.38Zm-.09-79.82c-40.43,0-74,33.45-74,73.86A74.43,74.43,0,0,0,301.46,357c40.37.06,74-33.49,74-73.86A74.42,74.42,0,0,0,301.25,208.72Zm45.21,95.06c-15.77,5.89-24.18,17.92-26.84,34.11-.67,4.09-2.06,5.86-6.24,6.57A73.8,73.8,0,0,1,289,344.4c-4-.65-5.28-2.42-5.81-6.13-1.57-11.11-6.3-20.65-15.12-27.87A42.47,42.47,0,0,0,245.73,301c-3.7-.44-5.14-1.94-5.87-5.62a61.5,61.5,0,0,1,3.28-35.57,8.92,8.92,0,0,1,3.81-4.22c19.24-10.11,39.88-13.49,61.4-12.43,16.54.82,32.39,4.41,47.07,12.26a9.93,9.93,0,0,1,4.28,4.73,60,60,0,0,1,2,39.49C356.37,301.08,351.25,302,346.46,303.78Zm-45.2-38a17.08,17.08,0,1,0,17.17,17A17.22,17.22,0,0,0,301.26,265.77Zm.08,22.77a5.71,5.71,0,0,1-5.67-5.79,5.77,5.77,0,0,1,5.52-5.59,5.69,5.69,0,1,1,.15,11.38Zm-.08-22.77a17.08,17.08,0,1,0,17.17,17A17.22,17.22,0,0,0,301.26,265.77Zm.08,22.77a5.71,5.71,0,0,1-5.67-5.79,5.77,5.77,0,0,1,5.52-5.59,5.69,5.69,0,1,1,.15,11.38Zm-.08-22.77a17.08,17.08,0,1,0,17.17,17A17.22,17.22,0,0,0,301.26,265.77Zm.08,22.77a5.71,5.71,0,0,1-5.67-5.79,5.77,5.77,0,0,1,5.52-5.59,5.69,5.69,0,1,1,.15,11.38Zm-.08-22.77a17.08,17.08,0,1,0,17.17,17A17.22,17.22,0,0,0,301.26,265.77Zm.08,22.77a5.71,5.71,0,0,1-5.67-5.79,5.77,5.77,0,0,1,5.52-5.59,5.69,5.69,0,1,1,.15,11.38Zm-.08-22.77a17.08,17.08,0,1,0,17.17,17A17.22,17.22,0,0,0,301.26,265.77Zm.08,22.77a5.71,5.71,0,0,1-5.67-5.79,5.77,5.77,0,0,1,5.52-5.59,5.69,5.69,0,1,1,.15,11.38Zm-.08-22.77a17.08,17.08,0,1,0,17.17,17A17.22,17.22,0,0,0,301.26,265.77Zm.08,22.77a5.71,5.71,0,0,1-5.67-5.79,5.77,5.77,0,0,1,5.52-5.59,5.69,5.69,0,1,1,.15,11.38Zm-.08-22.77a17.08,17.08,0,1,0,17.17,17A17.22,17.22,0,0,0,301.26,265.77Zm.08,22.77a5.71,5.71,0,0,1-5.67-5.79,5.77,5.77,0,0,1,5.52-5.59,5.69,5.69,0,1,1,.15,11.38Zm-.08-22.77a17.08,17.08,0,1,0,17.17,17A17.22,17.22,0,0,0,301.26,265.77Zm.08,22.77a5.71,5.71,0,0,1-5.67-5.79,5.77,5.77,0,0,1,5.52-5.59,5.69,5.69,0,1,1,.15,11.38Zm-.08-22.77a17.08,17.08,0,1,0,17.17,17A17.22,17.22,0,0,0,301.26,265.77Zm.08,22.77a5.71,5.71,0,0,1-5.67-5.79,5.77,5.77,0,0,1,5.52-5.59,5.69,5.69,0,1,1,.15,11.38Zm-.08-22.77a17.08,17.08,0,1,0,17.17,17A17.22,17.22,0,0,0,301.26,265.77Zm.08,22.77a5.71,5.71,0,0,1-5.67-5.79,5.77,5.77,0,0,1,5.52-5.59,5.69,5.69,0,1,1,.15,11.38Zm-.08-22.77a17.08,17.08,0,1,0,17.17,17A17.22,17.22,0,0,0,301.26,265.77Zm.08,22.77a5.71,5.71,0,0,1-5.67-5.79,5.77,5.77,0,0,1,5.52-5.59,5.69,5.69,0,1,1,.15,11.38Zm-.08-22.77a17.08,17.08,0,1,0,17.17,17A17.22,17.22,0,0,0,301.26,265.77Zm.08,22.77a5.71,5.71,0,0,1-5.67-5.79,5.77,5.77,0,0,1,5.52-5.59,5.69,5.69,0,1,1,.15,11.38Zm-.08-22.77a17.08,17.08,0,1,0,17.17,17A17.22,17.22,0,0,0,301.26,265.77Zm.08,22.77a5.71,5.71,0,0,1-5.67-5.79,5.77,5.77,0,0,1,5.52-5.59,5.69,5.69,0,1,1,.15,11.38Zm-.08-22.77a17.08,17.08,0,1,0,17.17,17A17.22,17.22,0,0,0,301.26,265.77Zm.08,22.77a5.71,5.71,0,0,1-5.67-5.79,5.77,5.77,0,0,1,5.52-5.59,5.69,5.69,0,1,1,.15,11.38Zm-.08-22.77a17.08,17.08,0,1,0,17.17,17A17.22,17.22,0,0,0,301.26,265.77Zm.08,22.77a5.71,5.71,0,0,1-5.67-5.79,5.77,5.77,0,0,1,5.52-5.59,5.69,5.69,0,1,1,.15,11.38Zm-.08-22.77a17.08,17.08,0,1,0,17.17,17A17.22,17.22,0,0,0,301.26,265.77Zm.08,22.77a5.71,5.71,0,0,1-5.67-5.79,5.77,5.77,0,0,1,5.52-5.59,5.69,5.69,0,1,1,.15,11.38Zm-.08-22.77a17.08,17.08,0,1,0,17.17,17A17.22,17.22,0,0,0,301.26,265.77Zm.08,22.77a5.71,5.71,0,0,1-5.67-5.79,5.77,5.77,0,0,1,5.52-5.59,5.69,5.69,0,1,1,.15,11.38Zm-.08-22.77a17.08,17.08,0,1,0,17.17,17A17.22,17.22,0,0,0,301.26,265.77Zm.08,22.77a5.71,5.71,0,0,1-5.67-5.79,5.77,5.77,0,0,1,5.52-5.59,5.69,5.69,0,1,1,.15,11.38Zm-.08-22.77a17.08,17.08,0,1,0,17.17,17A17.22,17.22,0,0,0,301.26,265.77Zm.08,22.77a5.71,5.71,0,0,1-5.67-5.79,5.77,5.77,0,0,1,5.52-5.59,5.69,5.69,0,1,1,.15,11.38Zm-.08-22.77a17.08,17.08,0,1,0,17.17,17A17.22,17.22,0,0,0,301.26,265.77Zm.08,22.77a5.71,5.71,0,0,1-5.67-5.79,5.77,5.77,0,0,1,5.52-5.59,5.69,5.69,0,1,1,.15,11.38Zm-.08-22.77a17.08,17.08,0,1,0,17.17,17A17.22,17.22,0,0,0,301.26,265.77Zm.08,22.77a5.71,5.71,0,0,1-5.67-5.79,5.77,5.77,0,0,1,5.52-5.59,5.69,5.69,0,1,1,.15,11.38Zm-.09-79.82c-40.43,0-74,33.45-74,73.86A74.43,74.43,0,0,0,301.46,357c40.37.06,74-33.49,74-73.86A74.42,74.42,0,0,0,301.25,208.72Zm45.21,95.06c-15.77,5.89-24.18,17.92-26.84,34.11-.67,4.09-2.06,5.86-6.24,6.57A73.8,73.8,0,0,1,289,344.4c-4-.65-5.28-2.42-5.81-6.13-1.57-11.11-6.3-20.65-15.12-27.87A42.47,42.47,0,0,0,245.73,301c-3.7-.44-5.14-1.94-5.87-5.62a61.5,61.5,0,0,1,3.28-35.57,8.92,8.92,0,0,1,3.81-4.22c19.24-10.11,39.88-13.49,61.4-12.43,16.54.82,32.39,4.41,47.07,12.26a9.93,9.93,0,0,1,4.28,4.73,60,60,0,0,1,2,39.49C356.37,301.08,351.25,302,346.46,303.78Zm-45.2-38a17.08,17.08,0,1,0,17.17,17A17.22,17.22,0,0,0,301.26,265.77Zm.08,22.77a5.71,5.71,0,0,1-5.67-5.79,5.77,5.77,0,0,1,5.52-5.59,5.69,5.69,0,1,1,.15,11.38Zm-.08-22.77a17.08,17.08,0,1,0,17.17,17A17.22,17.22,0,0,0,301.26,265.77Zm.08,22.77a5.71,5.71,0,0,1-5.67-5.79,5.77,5.77,0,0,1,5.52-5.59,5.69,5.69,0,1,1,.15,11.38Zm-.08-22.77a17.08,17.08,0,1,0,17.17,17A17.22,17.22,0,0,0,301.26,265.77Zm.08,22.77a5.71,5.71,0,0,1-5.67-5.79,5.77,5.77,0,0,1,5.52-5.59,5.69,5.69,0,1,1,.15,11.38Zm-.08-22.77a17.08,17.08,0,1,0,17.17,17A17.22,17.22,0,0,0,301.26,265.77Zm.08,22.77a5.71,5.71,0,0,1-5.67-5.79,5.77,5.77,0,0,1,5.52-5.59,5.69,5.69,0,1,1,.15,11.38Zm-.08-22.77a17.08,17.08,0,1,0,17.17,17A17.22,17.22,0,0,0,301.26,265.77Zm.08,22.77a5.71,5.71,0,0,1-5.67-5.79,5.77,5.77,0,0,1,5.52-5.59,5.69,5.69,0,1,1,.15,11.38Zm-.08-22.77a17.08,17.08,0,1,0,17.17,17A17.22,17.22,0,0,0,301.26,265.77Zm.08,22.77a5.71,5.71,0,0,1-5.67-5.79,5.77,5.77,0,0,1,5.52-5.59,5.69,5.69,0,1,1,.15,11.38Zm-.08-22.77a17.08,17.08,0,1,0,17.17,17A17.22,17.22,0,0,0,301.26,265.77Zm.08,22.77a5.71,5.71,0,0,1-5.67-5.79,5.77,5.77,0,0,1,5.52-5.59,5.69,5.69,0,1,1,.15,11.38Zm-.08-22.77a17.08,17.08,0,1,0,17.17,17A17.22,17.22,0,0,0,301.26,265.77Zm.08,22.77a5.71,5.71,0,0,1-5.67-5.79,5.77,5.77,0,0,1,5.52-5.59,5.69,5.69,0,1,1,.15,11.38Zm-.08-22.77a17.08,17.08,0,1,0,17.17,17A17.22,17.22,0,0,0,301.26,265.77Zm.08,22.77a5.71,5.71,0,0,1-5.67-5.79,5.77,5.77,0,0,1,5.52-5.59,5.69,5.69,0,1,1,.15,11.38Zm-.08-22.77a17.08,17.08,0,1,0,17.17,17A17.22,17.22,0,0,0,301.26,265.77Zm.08,22.77a5.71,5.71,0,0,1-5.67-5.79,5.77,5.77,0,0,1,5.52-5.59,5.69,5.69,0,1,1,.15,11.38Zm-.08-22.77a17.08,17.08,0,1,0,17.17,17A17.22,17.22,0,0,0,301.26,265.77Zm.08,22.77a5.71,5.71,0,0,1-5.67-5.79,5.77,5.77,0,0,1,5.52-5.59,5.69,5.69,0,1,1,.15,11.38Zm-.08-22.77a17.08,17.08,0,1,0,17.17,17A17.22,17.22,0,0,0,301.26,265.77Zm.08,22.77a5.71,5.71,0,0,1-5.67-5.79,5.77,5.77,0,0,1,5.52-5.59,5.69,5.69,0,1,1,.15,11.38Zm-.08-22.77a17.08,17.08,0,1,0,17.17,17A17.22,17.22,0,0,0,301.26,265.77Zm.08,22.77a5.71,5.71,0,0,1-5.67-5.79,5.77,5.77,0,0,1,5.52-5.59,5.69,5.69,0,1,1,.15,11.38Zm-.08-22.77a17.08,17.08,0,1,0,17.17,17A17.22,17.22,0,0,0,301.26,265.77Zm.08,22.77a5.71,5.71,0,0,1-5.67-5.79,5.77,5.77,0,0,1,5.52-5.59,5.69,5.69,0,1,1,.15,11.38Zm-.08-22.77a17.08,17.08,0,1,0,17.17,17A17.22,17.22,0,0,0,301.26,265.77Zm.08,22.77a5.71,5.71,0,0,1-5.67-5.79,5.77,5.77,0,0,1,5.52-5.59,5.69,5.69,0,1,1,.15,11.38Zm-.08-22.77a17.08,17.08,0,1,0,17.17,17A17.22,17.22,0,0,0,301.26,265.77Zm.08,22.77a5.71,5.71,0,0,1-5.67-5.79,5.77,5.77,0,0,1,5.52-5.59,5.69,5.69,0,1,1,.15,11.38Zm-.08-22.77a17.08,17.08,0,1,0,17.17,17A17.22,17.22,0,0,0,301.26,265.77Zm.08,22.77a5.71,5.71,0,0,1-5.67-5.79,5.77,5.77,0,0,1,5.52-5.59,5.69,5.69,0,1,1,.15,11.38Zm-.08-22.77a17.08,17.08,0,1,0,17.17,17A17.22,17.22,0,0,0,301.26,265.77Zm.08,22.77a5.71,5.71,0,0,1-5.67-5.79,5.77,5.77,0,0,1,5.52-5.59,5.69,5.69,0,1,1,.15,11.38Zm-.08-22.77a17.08,17.08,0,1,0,17.17,17A17.22,17.22,0,0,0,301.26,265.77Zm.08,22.77a5.71,5.71,0,0,1-5.67-5.79,5.77,5.77,0,0,1,5.52-5.59,5.69,5.69,0,1,1,.15,11.38Zm-.08-22.77a17.08,17.08,0,1,0,17.17,17A17.22,17.22,0,0,0,301.26,265.77Zm.08,22.77a5.71,5.71,0,0,1-5.67-5.79,5.77,5.77,0,0,1,5.52-5.59,5.69,5.69,0,1,1,.15,11.38Zm-.08-22.77a17.08,17.08,0,1,0,17.17,17A17.22,17.22,0,0,0,301.26,265.77Zm.08,22.77a5.71,5.71,0,0,1-5.67-5.79,5.77,5.77,0,0,1,5.52-5.59,5.69,5.69,0,1,1,.15,11.38Zm-.09-79.82c-40.43,0-74,33.45-74,73.86A74.43,74.43,0,0,0,301.46,357c40.37.06,74-33.49,74-73.86A74.42,74.42,0,0,0,301.25,208.72Zm45.21,95.06c-15.77,5.89-24.18,17.92-26.84,34.11-.67,4.09-2.06,5.86-6.24,6.57A73.8,73.8,0,0,1,289,344.4c-4-.65-5.28-2.42-5.81-6.13-1.57-11.11-6.3-20.65-15.12-27.87A42.47,42.47,0,0,0,245.73,301c-3.7-.44-5.14-1.94-5.87-5.62a61.5,61.5,0,0,1,3.28-35.57,8.92,8.92,0,0,1,3.81-4.22c19.24-10.11,39.88-13.49,61.4-12.43,16.54.82,32.39,4.41,47.07,12.26a9.93,9.93,0,0,1,4.28,4.73,60,60,0,0,1,2,39.49C356.37,301.08,351.25,302,346.46,303.78Zm-45.2-38a17.08,17.08,0,1,0,17.17,17A17.22,17.22,0,0,0,301.26,265.77Zm.08,22.77a5.71,5.71,0,0,1-5.67-5.79,5.77,5.77,0,0,1,5.52-5.59,5.69,5.69,0,1,1,.15,11.38Zm-.08-22.77a17.08,17.08,0,1,0,17.17,17A17.22,17.22,0,0,0,301.26,265.77Zm.08,22.77a5.71,5.71,0,0,1-5.67-5.79,5.77,5.77,0,0,1,5.52-5.59,5.69,5.69,0,1,1,.15,11.38Zm-.08-22.77a17.08,17.08,0,1,0,17.17,17A17.22,17.22,0,0,0,301.26,265.77Zm.08,22.77a5.71,5.71,0,0,1-5.67-5.79,5.77,5.77,0,0,1,5.52-5.59,5.69,5.69,0,1,1,.15,11.38Zm-.08-22.77a17.08,17.08,0,1,0,17.17,17A17.22,17.22,0,0,0,301.26,265.77Zm.08,22.77a5.71,5.71,0,0,1-5.67-5.79,5.77,5.77,0,0,1,5.52-5.59,5.69,5.69,0,1,1,.15,11.38Zm-.08-22.77a17.08,17.08,0,1,0,17.17,17A17.22,17.22,0,0,0,301.26,265.77Zm.08,22.77a5.71,5.71,0,0,1-5.67-5.79,5.77,5.77,0,0,1,5.52-5.59,5.69,5.69,0,1,1,.15,11.38Zm-.08-22.77a17.08,17.08,0,1,0,17.17,17A17.22,17.22,0,0,0,301.26,265.77Zm.08,22.77a5.71,5.71,0,0,1-5.67-5.79,5.77,5.77,0,0,1,5.52-5.59,5.69,5.69,0,1,1,.15,11.38Zm-.08-22.77a17.08,17.08,0,1,0,17.17,17A17.22,17.22,0,0,0,301.26,265.77Zm.08,22.77a5.71,5.71,0,0,1-5.67-5.79,5.77,5.77,0,0,1,5.52-5.59,5.69,5.69,0,1,1,.15,11.38Zm-.08-22.77a17.08,17.08,0,1,0,17.17,17A17.22,17.22,0,0,0,301.26,265.77Zm.08,22.77a5.71,5.71,0,0,1-5.67-5.79,5.77,5.77,0,0,1,5.52-5.59,5.69,5.69,0,1,1,.15,11.38Zm-.08-22.77a17.08,17.08,0,1,0,17.17,17A17.22,17.22,0,0,0,301.26,265.77Zm.08,22.77a5.71,5.71,0,0,1-5.67-5.79,5.77,5.77,0,0,1,5.52-5.59,5.69,5.69,0,1,1,.15,11.38Zm-.08-22.77a17.08,17.08,0,1,0,17.17,17A17.22,17.22,0,0,0,301.26,265.77Zm.08,22.77a5.71,5.71,0,0,1-5.67-5.79,5.77,5.77,0,0,1,5.52-5.59,5.69,5.69,0,1,1,.15,11.38Zm-.08-22.77a17.08,17.08,0,1,0,17.17,17A17.22,17.22,0,0,0,301.26,265.77Zm.08,22.77a5.71,5.71,0,0,1-5.67-5.79,5.77,5.77,0,0,1,5.52-5.59,5.69,5.69,0,1,1,.15,11.38Zm-.08-22.77a17.08,17.08,0,1,0,17.17,17A17.22,17.22,0,0,0,301.26,265.77Zm.08,22.77a5.71,5.71,0,0,1-5.67-5.79,5.77,5.77,0,0,1,5.52-5.59,5.69,5.69,0,1,1,.15,11.38Zm-.08-22.77a17.08,17.08,0,1,0,17.17,17A17.22,17.22,0,0,0,301.26,265.77Zm.08,22.77a5.71,5.71,0,0,1-5.67-5.79,5.77,5.77,0,0,1,5.52-5.59,5.69,5.69,0,1,1,.15,11.38Zm-.08-22.77a17.08,17.08,0,1,0,17.17,17A17.22,17.22,0,0,0,301.26,265.77Zm.08,22.77a5.71,5.71,0,0,1-5.67-5.79,5.77,5.77,0,0,1,5.52-5.59,5.69,5.69,0,1,1,.15,11.38Zm-.08-22.77a17.08,17.08,0,1,0,17.17,17A17.22,17.22,0,0,0,301.26,265.77Zm.08,22.77a5.71,5.71,0,0,1-5.67-5.79,5.77,5.77,0,0,1,5.52-5.59,5.69,5.69,0,1,1,.15,11.38Zm-.08-22.77a17.08,17.08,0,1,0,17.17,17A17.22,17.22,0,0,0,301.26,265.77Zm.08,22.77a5.71,5.71,0,0,1-5.67-5.79,5.77,5.77,0,0,1,5.52-5.59,5.69,5.69,0,1,1,.15,11.38Zm-.08-22.77a17.08,17.08,0,1,0,17.17,17A17.22,17.22,0,0,0,301.26,265.77Zm.08,22.77a5.71,5.71,0,0,1-5.67-5.79,5.77,5.77,0,0,1,5.52-5.59,5.69,5.69,0,1,1,.15,11.38Zm-.09-79.82c-40.43,0-74,33.45-74,73.86A74.43,74.43,0,0,0,301.46,357c40.37.06,74-33.49,74-73.86A74.42,74.42,0,0,0,301.25,208.72Zm45.21,95.06c-15.77,5.89-24.18,17.92-26.84,34.11-.67,4.09-2.06,5.86-6.24,6.57A73.8,73.8,0,0,1,289,344.4c-4-.65-5.28-2.42-5.81-6.13-1.57-11.11-6.3-20.65-15.12-27.87A42.47,42.47,0,0,0,245.73,301c-3.7-.44-5.14-1.94-5.87-5.62a61.5,61.5,0,0,1,3.28-35.57,8.92,8.92,0,0,1,3.81-4.22c19.24-10.11,39.88-13.49,61.4-12.43,16.54.82,32.39,4.41,47.07,12.26a9.93,9.93,0,0,1,4.28,4.73,60,60,0,0,1,2,39.49C356.37,301.08,351.25,302,346.46,303.78Zm-45.2-38a17.08,17.08,0,1,0,17.17,17A17.22,17.22,0,0,0,301.26,265.77Zm.08,22.77a5.71,5.71,0,0,1-5.67-5.79,5.77,5.77,0,0,1,5.52-5.59,5.69,5.69,0,1,1,.15,11.38Zm-.08-22.77a17.08,17.08,0,1,0,17.17,17A17.22,17.22,0,0,0,301.26,265.77Zm.08,22.77a5.71,5.71,0,0,1-5.67-5.79,5.77,5.77,0,0,1,5.52-5.59,5.69,5.69,0,1,1,.15,11.38Zm-.08-22.77a17.08,17.08,0,1,0,17.17,17A17.22,17.22,0,0,0,301.26,265.77Zm.08,22.77a5.71,5.71,0,0,1-5.67-5.79,5.77,5.77,0,0,1,5.52-5.59,5.69,5.69,0,1,1,.15,11.38Zm-.08-22.77a17.08,17.08,0,1,0,17.17,17A17.22,17.22,0,0,0,301.26,265.77Zm.08,22.77a5.71,5.71,0,0,1-5.67-5.79,5.77,5.77,0,0,1,5.52-5.59,5.69,5.69,0,1,1,.15,11.38Zm-.08-22.77a17.08,17.08,0,1,0,17.17,17A17.22,17.22,0,0,0,301.26,265.77Zm.08,22.77a5.71,5.71,0,0,1-5.67-5.79,5.77,5.77,0,0,1,5.52-5.59,5.69,5.69,0,1,1,.15,11.38Zm-.08-22.77a17.08,17.08,0,1,0,17.17,17A17.22,17.22,0,0,0,301.26,265.77Zm.08,22.77a5.71,5.71,0,0,1-5.67-5.79,5.77,5.77,0,0,1,5.52-5.59,5.69,5.69,0,1,1,.15,11.38Zm-.08-22.77a17.08,17.08,0,1,0,17.17,17A17.22,17.22,0,0,0,301.26,265.77Zm.08,22.77a5.71,5.71,0,0,1-5.67-5.79,5.77,5.77,0,0,1,5.52-5.59,5.69,5.69,0,1,1,.15,11.38Zm-.08-22.77a17.08,17.08,0,1,0,17.17,17A17.22,17.22,0,0,0,301.26,265.77Zm.08,22.77a5.71,5.71,0,0,1-5.67-5.79,5.77,5.77,0,0,1,5.52-5.59,5.69,5.69,0,1,1,.15,11.38Zm-.08-22.77a17.08,17.08,0,1,0,17.17,17A17.22,17.22,0,0,0,301.26,265.77Zm.08,22.77a5.71,5.71,0,0,1-5.67-5.79,5.77,5.77,0,0,1,5.52-5.59,5.69,5.69,0,1,1,.15,11.38Zm-.08-22.77a17.08,17.08,0,1,0,17.17,17A17.22,17.22,0,0,0,301.26,265.77Zm.08,22.77a5.71,5.71,0,0,1-5.67-5.79,5.77,5.77,0,0,1,5.52-5.59,5.69,5.69,0,1,1,.15,11.38Zm-.08-22.77a17.08,17.08,0,1,0,17.17,17A17.22,17.22,0,0,0,301.26,265.77Zm.08,22.77a5.71,5.71,0,0,1-5.67-5.79,5.77,5.77,0,0,1,5.52-5.59,5.69,5.69,0,1,1,.15,11.38Zm-.08-22.77a17.08,17.08,0,1,0,17.17,17A17.22,17.22,0,0,0,301.26,265.77Zm.08,22.77a5.71,5.71,0,0,1-5.67-5.79,5.77,5.77,0,0,1,5.52-5.59,5.69,5.69,0,1,1,.15,11.38Zm-.08-22.77a17.08,17.08,0,1,0,17.17,17A17.22,17.22,0,0,0,301.26,265.77Zm.08,22.77a5.71,5.71,0,0,1-5.67-5.79,5.77,5.77,0,0,1,5.52-5.59,5.69,5.69,0,1,1,.15,11.38Zm-.08-22.77a17.08,17.08,0,1,0,17.17,17A17.22,17.22,0,0,0,301.26,265.77Zm.08,22.77a5.71,5.71,0,0,1-5.67-5.79,5.77,5.77,0,0,1,5.52-5.59,5.69,5.69,0,1,1,.15,11.38Zm-.08-22.77a17.08,17.08,0,1,0,17.17,17A17.22,17.22,0,0,0,301.26,265.77Zm.08,22.77a5.71,5.71,0,0,1-5.67-5.79,5.77,5.77,0,0,1,5.52-5.59,5.69,5.69,0,1,1,.15,11.38Zm-.08-22.77a17.08,17.08,0,1,0,17.17,17A17.22,17.22,0,0,0,301.26,265.77Zm.08,22.77a5.71,5.71,0,0,1-5.67-5.79,5.77,5.77,0,0,1,5.52-5.59,5.69,5.69,0,1,1,.15,11.38Zm-.08-22.77a17.08,17.08,0,1,0,17.17,17A17.22,17.22,0,0,0,301.26,265.77Zm.08,22.77a5.71,5.71,0,0,1-5.67-5.79,5.77,5.77,0,0,1,5.52-5.59,5.69,5.69,0,1,1,.15,11.38Zm-.09-79.82c-40.43,0-74,33.45-74,73.86A74.43,74.43,0,0,0,301.46,357c40.37.06,74-33.49,74-73.86A74.42,74.42,0,0,0,301.25,208.72Zm45.21,95.06c-15.77,5.89-24.18,17.92-26.84,34.11-.67,4.09-2.06,5.86-6.24,6.57A73.8,73.8,0,0,1,289,344.4c-4-.65-5.28-2.42-5.81-6.13-1.57-11.11-6.3-20.65-15.12-27.87A42.47,42.47,0,0,0,245.73,301c-3.7-.44-5.14-1.94-5.87-5.62a61.5,61.5,0,0,1,3.28-35.57,8.92,8.92,0,0,1,3.81-4.22c19.24-10.11,39.88-13.49,61.4-12.43,16.54.82,32.39,4.41,47.07,12.26a9.93,9.93,0,0,1,4.28,4.73,60,60,0,0,1,2,39.49C356.37,301.08,351.25,302,346.46,303.78Zm-45.2-38a17.08,17.08,0,1,0,17.17,17A17.22,17.22,0,0,0,301.26,265.77Zm.08,22.77a5.71,5.71,0,0,1-5.67-5.79,5.77,5.77,0,0,1,5.52-5.59,5.69,5.69,0,1,1,.15,11.38Zm-.08-22.77a17.08,17.08,0,1,0,17.17,17A17.22,17.22,0,0,0,301.26,265.77Zm.08,22.77a5.71,5.71,0,0,1-5.67-5.79,5.77,5.77,0,0,1,5.52-5.59,5.69,5.69,0,1,1,.15,11.38Zm-.08-22.77a17.08,17.08,0,1,0,17.17,17A17.22,17.22,0,0,0,301.26,265.77Zm.08,22.77a5.71,5.71,0,0,1-5.67-5.79,5.77,5.77,0,0,1,5.52-5.59,5.69,5.69,0,1,1,.15,11.38Zm-.08-22.77a17.08,17.08,0,1,0,17.17,17A17.22,17.22,0,0,0,301.26,265.77Zm.08,22.77a5.71,5.71,0,0,1-5.67-5.79,5.77,5.77,0,0,1,5.52-5.59,5.69,5.69,0,1,1,.15,11.38Zm-.08-22.77a17.08,17.08,0,1,0,17.17,17A17.22,17.22,0,0,0,301.26,265.77Zm.08,22.77a5.71,5.71,0,0,1-5.67-5.79,5.77,5.77,0,0,1,5.52-5.59,5.69,5.69,0,1,1,.15,11.38Zm-.08-22.77a17.08,17.08,0,1,0,17.17,17A17.22,17.22,0,0,0,301.26,265.77Zm.08,22.77a5.71,5.71,0,0,1-5.67-5.79,5.77,5.77,0,0,1,5.52-5.59,5.69,5.69,0,1,1,.15,11.38Zm-.08-22.77a17.08,17.08,0,1,0,17.17,17A17.22,17.22,0,0,0,301.26,265.77Zm.08,22.77a5.71,5.71,0,0,1-5.67-5.79,5.77,5.77,0,0,1,5.52-5.59,5.69,5.69,0,1,1,.15,11.38Zm-.08-22.77a17.08,17.08,0,1,0,17.17,17A17.22,17.22,0,0,0,301.26,265.77Zm.08,22.77a5.71,5.71,0,0,1-5.67-5.79,5.77,5.77,0,0,1,5.52-5.59,5.69,5.69,0,1,1,.15,11.38Zm-.08-22.77a17.08,17.08,0,1,0,17.17,17A17.22,17.22,0,0,0,301.26,265.77Zm.08,22.77a5.71,5.71,0,0,1-5.67-5.79,5.77,5.77,0,0,1,5.52-5.59,5.69,5.69,0,1,1,.15,11.38Zm-.08-22.77a17.08,17.08,0,1,0,17.17,17A17.22,17.22,0,0,0,301.26,265.77Zm.08,22.77a5.71,5.71,0,0,1-5.67-5.79,5.77,5.77,0,0,1,5.52-5.59,5.69,5.69,0,1,1,.15,11.38Zm-.08-22.77a17.08,17.08,0,1,0,17.17,17A17.22,17.22,0,0,0,301.26,265.77Zm.08,22.77a5.71,5.71,0,0,1-5.67-5.79,5.77,5.77,0,0,1,5.52-5.59,5.69,5.69,0,1,1,.15,11.38Zm-.08-22.77a17.08,17.08,0,1,0,17.17,17A17.22,17.22,0,0,0,301.26,265.77Zm.08,22.77a5.71,5.71,0,0,1-5.67-5.79,5.77,5.77,0,0,1,5.52-5.59,5.69,5.69,0,1,1,.15,11.38Zm-.08-22.77a17.08,17.08,0,1,0,17.17,17A17.22,17.22,0,0,0,301.26,265.77Zm.08,22.77a5.71,5.71,0,0,1-5.67-5.79,5.77,5.77,0,0,1,5.52-5.59,5.69,5.69,0,1,1,.15,11.38Zm-.09-79.82c-40.43,0-74,33.45-74,73.86A74.43,74.43,0,0,0,301.46,357c40.37.06,74-33.49,74-73.86A74.42,74.42,0,0,0,301.25,208.72Zm45.21,95.06c-15.77,5.89-24.18,17.92-26.84,34.11-.67,4.09-2.06,5.86-6.24,6.57A73.8,73.8,0,0,1,289,344.4c-4-.65-5.28-2.42-5.81-6.13-1.57-11.11-6.3-20.65-15.12-27.87A42.47,42.47,0,0,0,245.73,301c-3.7-.44-5.14-1.94-5.87-5.62a61.5,61.5,0,0,1,3.28-35.57,8.92,8.92,0,0,1,3.81-4.22c19.24-10.11,39.88-13.49,61.4-12.43,16.54.82,32.39,4.41,47.07,12.26a9.93,9.93,0,0,1,4.28,4.73,60,60,0,0,1,2,39.49C356.37,301.08,351.25,302,346.46,303.78Zm-45.2-38a17.08,17.08,0,1,0,17.17,17A17.22,17.22,0,0,0,301.26,265.77Zm.08,22.77a5.71,5.71,0,0,1-5.67-5.79,5.77,5.77,0,0,1,5.52-5.59,5.69,5.69,0,1,1,.15,11.38Zm-.08-22.77a17.08,17.08,0,1,0,17.17,17A17.22,17.22,0,0,0,301.26,265.77Zm.08,22.77a5.71,5.71,0,0,1-5.67-5.79,5.77,5.77,0,0,1,5.52-5.59,5.69,5.69,0,1,1,.15,11.38Zm-.08-22.77a17.08,17.08,0,1,0,17.17,17A17.22,17.22,0,0,0,301.26,265.77Zm.08,22.77a5.71,5.71,0,0,1-5.67-5.79,5.77,5.77,0,0,1,5.52-5.59,5.69,5.69,0,1,1,.15,11.38Zm-.08-22.77a17.08,17.08,0,1,0,17.17,17A17.22,17.22,0,0,0,301.26,265.77Zm.08,22.77a5.71,5.71,0,0,1-5.67-5.79,5.77,5.77,0,0,1,5.52-5.59,5.69,5.69,0,1,1,.15,11.38Zm-.08-22.77a17.08,17.08,0,1,0,17.17,17A17.22,17.22,0,0,0,301.26,265.77Zm.08,22.77a5.71,5.71,0,0,1-5.67-5.79,5.77,5.77,0,0,1,5.52-5.59,5.69,5.69,0,1,1,.15,11.38Zm-.08-22.77a17.08,17.08,0,1,0,17.17,17A17.22,17.22,0,0,0,301.26,265.77Zm.08,22.77a5.71,5.71,0,0,1-5.67-5.79,5.77,5.77,0,0,1,5.52-5.59,5.69,5.69,0,1,1,.15,11.38Zm-.08-22.77a17.08,17.08,0,1,0,17.17,17A17.22,17.22,0,0,0,301.26,265.77Zm.08,22.77a5.71,5.71,0,0,1-5.67-5.79,5.77,5.77,0,0,1,5.52-5.59,5.69,5.69,0,1,1,.15,11.38Zm-.08-22.77a17.08,17.08,0,1,0,17.17,17A17.22,17.22,0,0,0,301.26,265.77Zm.08,22.77a5.71,5.71,0,0,1-5.67-5.79,5.77,5.77,0,0,1,5.52-5.59,5.69,5.69,0,1,1,.15,11.38Zm-.08-22.77a17.08,17.08,0,1,0,17.17,17A17.22,17.22,0,0,0,301.26,265.77Zm.08,22.77a5.71,5.71,0,0,1-5.67-5.79,5.77,5.77,0,0,1,5.52-5.59,5.69,5.69,0,1,1,.15,11.38Zm-.08-22.77a17.08,17.08,0,1,0,17.17,17A17.22,17.22,0,0,0,301.26,265.77Zm.08,22.77a5.71,5.71,0,0,1-5.67-5.79,5.77,5.77,0,0,1,5.52-5.59,5.69,5.69,0,1,1,.15,11.38Zm-.08-22.77a17.08,17.08,0,1,0,17.17,17A17.22,17.22,0,0,0,301.26,265.77Zm.08,22.77a5.71,5.71,0,0,1-5.67-5.79,5.77,5.77,0,0,1,5.52-5.59,5.69,5.69,0,1,1,.15,11.38Zm-.08-22.77a17.08,17.08,0,1,0,17.17,17A17.22,17.22,0,0,0,301.26,265.77Zm.08,22.77a5.71,5.71,0,0,1-5.67-5.79,5.77,5.77,0,0,1,5.52-5.59,5.69,5.69,0,1,1,.15,11.38Zm-.08-22.77a17.08,17.08,0,1,0,17.17,17A17.22,17.22,0,0,0,301.26,265.77Zm.08,22.77a5.71,5.71,0,0,1-5.67-5.79,5.77,5.77,0,0,1,5.52-5.59,5.69,5.69,0,1,1,.15,11.38Zm-.09-79.82c-40.43,0-74,33.45-74,73.86A74.43,74.43,0,0,0,301.46,357c40.37.06,74-33.49,74-73.86A74.42,74.42,0,0,0,301.25,208.72Zm45.21,95.06c-15.77,5.89-24.18,17.92-26.84,34.11-.67,4.09-2.06,5.86-6.24,6.57A73.8,73.8,0,0,1,289,344.4c-4-.65-5.28-2.42-5.81-6.13-1.57-11.11-6.3-20.65-15.12-27.87A42.47,42.47,0,0,0,245.73,301c-3.7-.44-5.14-1.94-5.87-5.62a61.5,61.5,0,0,1,3.28-35.57,8.92,8.92,0,0,1,3.81-4.22c19.24-10.11,39.88-13.49,61.4-12.43,16.54.82,32.39,4.41,47.07,12.26a9.93,9.93,0,0,1,4.28,4.73,60,60,0,0,1,2,39.49C356.37,301.08,351.25,302,346.46,303.78Zm-45.2-38a17.08,17.08,0,1,0,17.17,17A17.22,17.22,0,0,0,301.26,265.77Zm.08,22.77a5.71,5.71,0,0,1-5.67-5.79,5.77,5.77,0,0,1,5.52-5.59,5.69,5.69,0,1,1,.15,11.38Zm-.08-22.77a17.08,17.08,0,1,0,17.17,17A17.22,17.22,0,0,0,301.26,265.77Zm.08,22.77a5.71,5.71,0,0,1-5.67-5.79,5.77,5.77,0,0,1,5.52-5.59,5.69,5.69,0,1,1,.15,11.38Zm-.08-22.77a17.08,17.08,0,1,0,17.17,17A17.22,17.22,0,0,0,301.26,265.77Zm.08,22.77a5.71,5.71,0,0,1-5.67-5.79,5.77,5.77,0,0,1,5.52-5.59,5.69,5.69,0,1,1,.15,11.38Zm-.08-22.77a17.08,17.08,0,1,0,17.17,17A17.22,17.22,0,0,0,301.26,265.77Zm.08,22.77a5.71,5.71,0,0,1-5.67-5.79,5.77,5.77,0,0,1,5.52-5.59,5.69,5.69,0,1,1,.15,11.38Zm-.08-22.77a17.08,17.08,0,1,0,17.17,17A17.22,17.22,0,0,0,301.26,265.77Zm.08,22.77a5.71,5.71,0,0,1-5.67-5.79,5.77,5.77,0,0,1,5.52-5.59,5.69,5.69,0,1,1,.15,11.38Zm-.08-22.77a17.08,17.08,0,1,0,17.17,17A17.22,17.22,0,0,0,301.26,265.77Zm.08,22.77a5.71,5.71,0,0,1-5.67-5.79,5.77,5.77,0,0,1,5.52-5.59,5.69,5.69,0,1,1,.15,11.38Zm-.08-22.77a17.08,17.08,0,1,0,17.17,17A17.22,17.22,0,0,0,301.26,265.77Zm.08,22.77a5.71,5.71,0,0,1-5.67-5.79,5.77,5.77,0,0,1,5.52-5.59,5.69,5.69,0,1,1,.15,11.38Zm-.08-22.77a17.08,17.08,0,1,0,17.17,17A17.22,17.22,0,0,0,301.26,265.77Zm.08,22.77a5.71,5.71,0,0,1-5.67-5.79,5.77,5.77,0,0,1,5.52-5.59,5.69,5.69,0,1,1,.15,11.38Zm-.08-22.77a17.08,17.08,0,1,0,17.17,17A17.22,17.22,0,0,0,301.26,265.77Zm.08,22.77a5.71,5.71,0,0,1-5.67-5.79,5.77,5.77,0,0,1,5.52-5.59,5.69,5.69,0,1,1,.15,11.38Zm-.09-79.82c-40.43,0-74,33.45-74,73.86A74.43,74.43,0,0,0,301.46,357c40.37.06,74-33.49,74-73.86A74.42,74.42,0,0,0,301.25,208.72Zm45.21,95.06c-15.77,5.89-24.18,17.92-26.84,34.11-.67,4.09-2.06,5.86-6.24,6.57A73.8,73.8,0,0,1,289,344.4c-4-.65-5.28-2.42-5.81-6.13-1.57-11.11-6.3-20.65-15.12-27.87A42.47,42.47,0,0,0,245.73,301c-3.7-.44-5.14-1.94-5.87-5.62a61.5,61.5,0,0,1,3.28-35.57,8.92,8.92,0,0,1,3.81-4.22c19.24-10.11,39.88-13.49,61.4-12.43,16.54.82,32.39,4.41,47.07,12.26a9.93,9.93,0,0,1,4.28,4.73,60,60,0,0,1,2,39.49C356.37,301.08,351.25,302,346.46,303.78Zm-45.2-38a17.08,17.08,0,1,0,17.17,17A17.22,17.22,0,0,0,301.26,265.77Zm.08,22.77a5.71,5.71,0,0,1-5.67-5.79,5.77,5.77,0,0,1,5.52-5.59,5.69,5.69,0,1,1,.15,11.38Zm-.08-22.77a17.08,17.08,0,1,0,17.17,17A17.22,17.22,0,0,0,301.26,265.77Zm.08,22.77a5.71,5.71,0,0,1-5.67-5.79,5.77,5.77,0,0,1,5.52-5.59,5.69,5.69,0,1,1,.15,11.38Zm-.08-22.77a17.08,17.08,0,1,0,17.17,17A17.22,17.22,0,0,0,301.26,265.77Zm.08,22.77a5.71,5.71,0,0,1-5.67-5.79,5.77,5.77,0,0,1,5.52-5.59,5.69,5.69,0,1,1,.15,11.38Zm-.08-22.77a17.08,17.08,0,1,0,17.17,17A17.22,17.22,0,0,0,301.26,265.77Zm.08,22.77a5.71,5.71,0,0,1-5.67-5.79,5.77,5.77,0,0,1,5.52-5.59,5.69,5.69,0,1,1,.15,11.38Zm-.08-22.77a17.08,17.08,0,1,0,17.17,17A17.22,17.22,0,0,0,301.26,265.77Zm.08,22.77a5.71,5.71,0,0,1-5.67-5.79,5.77,5.77,0,0,1,5.52-5.59,5.69,5.69,0,1,1,.15,11.38ZM171,423.38a7.86,7.86,0,0,0-7.82,7.48,7.76,7.76,0,0,0,7.62,8.14,8,8,0,0,0,7.95-7.43A8.13,8.13,0,0,0,171,423.38Zm0,0a7.86,7.86,0,0,0-7.82,7.48,7.76,7.76,0,0,0,7.62,8.14,8,8,0,0,0,7.95-7.43A8.13,8.13,0,0,0,171,423.38Zm0,0a7.86,7.86,0,0,0-7.82,7.48,7.76,7.76,0,0,0,7.62,8.14,8,8,0,0,0,7.95-7.43A8.13,8.13,0,0,0,171,423.38Zm0,0a7.86,7.86,0,0,0-7.82,7.48,7.76,7.76,0,0,0,7.62,8.14,8,8,0,0,0,7.95-7.43A8.13,8.13,0,0,0,171,423.38Zm29.9,6.18c-.54-15.14-14.14-28.31-30.31-28.28-16.53,0-29.48,13.14-29.51,29.86,0,17.07,12.81,30,29.83,30C185.06,462.11,201.59,448.94,200.91,429.56ZM170.8,446.07A15.35,15.35,0,0,1,156,431.3a14.8,14.8,0,0,1,15.15-14.64c8.3.13,14.25,6.35,14.18,14.78A14.54,14.54,0,0,1,170.8,446.07Zm.21-22.69a7.86,7.86,0,0,0-7.82,7.48,7.76,7.76,0,0,0,7.62,8.14,8,8,0,0,0,7.95-7.43A8.13,8.13,0,0,0,171,423.38Zm0,0a7.86,7.86,0,0,0-7.82,7.48,7.76,7.76,0,0,0,7.62,8.14,8,8,0,0,0,7.95-7.43A8.13,8.13,0,0,0,171,423.38Zm0,0a7.86,7.86,0,0,0-7.82,7.48,7.76,7.76,0,0,0,7.62,8.14,8,8,0,0,0,7.95-7.43A8.13,8.13,0,0,0,171,423.38ZM301.26,265.77a17.08,17.08,0,1,0,17.17,17A17.22,17.22,0,0,0,301.26,265.77Zm.08,22.77a5.71,5.71,0,0,1-5.67-5.79,5.77,5.77,0,0,1,5.52-5.59,5.69,5.69,0,1,1,.15,11.38Zm-.08-22.77a17.08,17.08,0,1,0,17.17,17A17.22,17.22,0,0,0,301.26,265.77Zm.08,22.77a5.71,5.71,0,0,1-5.67-5.79,5.77,5.77,0,0,1,5.52-5.59,5.69,5.69,0,1,1,.15,11.38Zm-.08-22.77a17.08,17.08,0,1,0,17.17,17A17.22,17.22,0,0,0,301.26,265.77Zm.08,22.77a5.71,5.71,0,0,1-5.67-5.79,5.77,5.77,0,0,1,5.52-5.59,5.69,5.69,0,1,1,.15,11.38Zm-.08-22.77a17.08,17.08,0,1,0,17.17,17A17.22,17.22,0,0,0,301.26,265.77Zm.08,22.77a5.71,5.71,0,0,1-5.67-5.79,5.77,5.77,0,0,1,5.52-5.59,5.69,5.69,0,1,1,.15,11.38Zm-.09-79.82c-40.43,0-74,33.45-74,73.86A74.43,74.43,0,0,0,301.46,357c40.37.06,74-33.49,74-73.86A74.42,74.42,0,0,0,301.25,208.72Zm45.21,95.06c-15.77,5.89-24.18,17.92-26.84,34.11-.67,4.09-2.06,5.86-6.24,6.57A73.8,73.8,0,0,1,289,344.4c-4-.65-5.28-2.42-5.81-6.13-1.57-11.11-6.3-20.65-15.12-27.87A42.47,42.47,0,0,0,245.73,301c-3.7-.44-5.14-1.94-5.87-5.62a61.5,61.5,0,0,1,3.28-35.57,8.92,8.92,0,0,1,3.81-4.22c19.24-10.11,39.88-13.49,61.4-12.43,16.54.82,32.39,4.41,47.07,12.26a9.93,9.93,0,0,1,4.28,4.73,60,60,0,0,1,2,39.49C356.37,301.08,351.25,302,346.46,303.78Zm-45.2-38a17.08,17.08,0,1,0,17.17,17A17.22,17.22,0,0,0,301.26,265.77Zm.08,22.77a5.71,5.71,0,0,1-5.67-5.79,5.77,5.77,0,0,1,5.52-5.59,5.69,5.69,0,1,1,.15,11.38Zm-.08-22.77a17.08,17.08,0,1,0,17.17,17A17.22,17.22,0,0,0,301.26,265.77Zm.08,22.77a5.71,5.71,0,0,1-5.67-5.79,5.77,5.77,0,0,1,5.52-5.59,5.69,5.69,0,1,1,.15,11.38Zm-.08-22.77a17.08,17.08,0,1,0,17.17,17A17.22,17.22,0,0,0,301.26,265.77Zm.08,22.77a5.71,5.71,0,0,1-5.67-5.79,5.77,5.77,0,0,1,5.52-5.59,5.69,5.69,0,1,1,.15,11.38Zm66.73,134.84c-4.15.14-7.94,4.25-7.65,8.29a8,8,0,0,0,8,7.33,7.68,7.68,0,0,0,7.45-8.23A7.76,7.76,0,0,0,368.07,423.38Zm0,0c-4.15.14-7.94,4.25-7.65,8.29a8,8,0,0,0,8,7.33,7.68,7.68,0,0,0,7.45-8.23A7.76,7.76,0,0,0,368.07,423.38Zm-.37-22.77a30.55,30.55,0,0,0-29.48,31c.29,16.41,14.35,29.8,30.88,29.43a30.16,30.16,0,0,0,29.11-30.6C397.79,413.57,383.85,400,367.7,400.61Zm.46,45.43a14.56,14.56,0,0,1-14.36-14.83,14.14,14.14,0,0,1,14.43-14.56A14.78,14.78,0,0,1,383.13,431C383.27,438.94,376,446.2,368.16,446Zm-.09-22.66c-4.15.14-7.94,4.25-7.65,8.29a8,8,0,0,0,8,7.33,7.68,7.68,0,0,0,7.45-8.23A7.76,7.76,0,0,0,368.07,423.38Zm0,0c-4.15.14-7.94,4.25-7.65,8.29a8,8,0,0,0,8,7.33,7.68,7.68,0,0,0,7.45-8.23A7.76,7.76,0,0,0,368.07,423.38Zm0,0c-4.15.14-7.94,4.25-7.65,8.29a8,8,0,0,0,8,7.33,7.68,7.68,0,0,0,7.45-8.23A7.76,7.76,0,0,0,368.07,423.38ZM301.26,265.77a17.08,17.08,0,1,0,17.17,17A17.22,17.22,0,0,0,301.26,265.77Zm.08,22.77a5.71,5.71,0,0,1-5.67-5.79,5.77,5.77,0,0,1,5.52-5.59,5.69,5.69,0,1,1,.15,11.38Zm-.08-22.77a17.08,17.08,0,1,0,17.17,17A17.22,17.22,0,0,0,301.26,265.77Zm.08,22.77a5.71,5.71,0,0,1-5.67-5.79,5.77,5.77,0,0,1,5.52-5.59,5.69,5.69,0,1,1,.15,11.38Zm-.09-79.82c-40.43,0-74,33.45-74,73.86A74.43,74.43,0,0,0,301.46,357c40.37.06,74-33.49,74-73.86A74.42,74.42,0,0,0,301.25,208.72Zm45.21,95.06c-15.77,5.89-24.18,17.92-26.84,34.11-.67,4.09-2.06,5.86-6.24,6.57A73.8,73.8,0,0,1,289,344.4c-4-.65-5.28-2.42-5.81-6.13-1.57-11.11-6.3-20.65-15.12-27.87A42.47,42.47,0,0,0,245.73,301c-3.7-.44-5.14-1.94-5.87-5.62a61.5,61.5,0,0,1,3.28-35.57,8.92,8.92,0,0,1,3.81-4.22c19.24-10.11,39.88-13.49,61.4-12.43,16.54.82,32.39,4.41,47.07,12.26a9.93,9.93,0,0,1,4.28,4.73,60,60,0,0,1,2,39.49C356.37,301.08,351.25,302,346.46,303.78Zm-45.2-38a17.08,17.08,0,1,0,17.17,17A17.22,17.22,0,0,0,301.26,265.77Zm.08,22.77a5.71,5.71,0,0,1-5.67-5.79,5.77,5.77,0,0,1,5.52-5.59,5.69,5.69,0,1,1,.15,11.38Zm-.08-22.77a17.08,17.08,0,1,0,17.17,17A17.22,17.22,0,0,0,301.26,265.77Zm.08,22.77a5.71,5.71,0,0,1-5.67-5.79,5.77,5.77,0,0,1,5.52-5.59,5.69,5.69,0,1,1,.15,11.38Zm-.08-22.77a17.08,17.08,0,1,0,17.17,17A17.22,17.22,0,0,0,301.26,265.77Zm.08,22.77a5.71,5.71,0,0,1-5.67-5.79,5.77,5.77,0,0,1,5.52-5.59,5.69,5.69,0,1,1,.15,11.38Zm66.73,134.84c-4.15.14-7.94,4.25-7.65,8.29a8,8,0,0,0,8,7.33,7.68,7.68,0,0,0,7.45-8.23A7.76,7.76,0,0,0,368.07,423.38Zm0,0c-4.15.14-7.94,4.25-7.65,8.29a8,8,0,0,0,8,7.33,7.68,7.68,0,0,0,7.45-8.23A7.76,7.76,0,0,0,368.07,423.38Zm-.37-22.77a30.55,30.55,0,0,0-29.48,31c.29,16.41,14.35,29.8,30.88,29.43a30.16,30.16,0,0,0,29.11-30.6C397.79,413.57,383.85,400,367.7,400.61Zm.46,45.43a14.56,14.56,0,0,1-14.36-14.83,14.14,14.14,0,0,1,14.43-14.56A14.78,14.78,0,0,1,383.13,431C383.27,438.94,376,446.2,368.16,446Zm-.09-22.66c-4.15.14-7.94,4.25-7.65,8.29a8,8,0,0,0,8,7.33,7.68,7.68,0,0,0,7.45-8.23A7.76,7.76,0,0,0,368.07,423.38Zm0,0c-4.15.14-7.94,4.25-7.65,8.29a8,8,0,0,0,8,7.33,7.68,7.68,0,0,0,7.45-8.23A7.76,7.76,0,0,0,368.07,423.38Zm0,0c-4.15.14-7.94,4.25-7.65,8.29a8,8,0,0,0,8,7.33,7.68,7.68,0,0,0,7.45-8.23A7.76,7.76,0,0,0,368.07,423.38Zm-197.06,0a7.86,7.86,0,0,0-7.82,7.48,7.76,7.76,0,0,0,7.62,8.14,8,8,0,0,0,7.95-7.43A8.13,8.13,0,0,0,171,423.38Zm0,0a7.86,7.86,0,0,0-7.82,7.48,7.76,7.76,0,0,0,7.62,8.14,8,8,0,0,0,7.95-7.43A8.13,8.13,0,0,0,171,423.38Zm29.9,6.18c-.54-15.14-14.14-28.31-30.31-28.28-16.53,0-29.48,13.14-29.51,29.86,0,17.07,12.81,30,29.83,30C185.06,462.11,201.59,448.94,200.91,429.56ZM170.8,446.07A15.35,15.35,0,0,1,156,431.3a14.8,14.8,0,0,1,15.15-14.64c8.3.13,14.25,6.35,14.18,14.78A14.54,14.54,0,0,1,170.8,446.07Zm.21-22.69a7.86,7.86,0,0,0-7.82,7.48,7.76,7.76,0,0,0,7.62,8.14,8,8,0,0,0,7.95-7.43A8.13,8.13,0,0,0,171,423.38Zm0,0a7.86,7.86,0,0,0-7.82,7.48,7.76,7.76,0,0,0,7.62,8.14,8,8,0,0,0,7.95-7.43A8.13,8.13,0,0,0,171,423.38Zm0,0a7.86,7.86,0,0,0-7.82,7.48,7.76,7.76,0,0,0,7.62,8.14,8,8,0,0,0,7.95-7.43A8.13,8.13,0,0,0,171,423.38Zm0,0a7.86,7.86,0,0,0-7.82,7.48,7.76,7.76,0,0,0,7.62,8.14,8,8,0,0,0,7.95-7.43A8.13,8.13,0,0,0,171,423.38Zm10.3-182.88v10.81h5.37V240.5Zm0-68.65v10.83h5.38V171.85Zm8.09,38.34v-2.67H178.57v2.71H184V213h-5.38v2.69h10.82v-2.74H186.8v-2.73Zm-10.89-24.63c0,.67,0,1.28,0,1.88s.18.8.8.8c3.16,0,6.31,0,9.47,0a5.27,5.27,0,0,0,.65-.08v-2.58Zm.07,33a2,2,0,0,0-.06.31c0,5.73,0,11.47,0,17.2,0,1.15.54,1.63,1.74,1.63,2.46,0,4.93,0,7.4,0,1.31,0,1.78-.49,1.78-1.81q0-8.26,0-16.54v-.79Zm13.65-27.48H175.78c0,1.47.1,2.89,0,4.29s.23,2.07,1.49,2.39c1.11.29,1.37,1,1.3,2.09-.1,1.59,0,3.2,0,4.84h10.83c0-.1.09-.15.09-.2a24.08,24.08,0,0,0,0-3.4c-.26-1.94.22-3.32,2.29-3.81a.25.25,0,0,0,.14-.08c.13-.21.36-.43.37-.64C192.26,194.73,192.24,192.93,192.24,191.05ZM171,423.38a7.86,7.86,0,0,0-7.82,7.48,7.76,7.76,0,0,0,7.62,8.14,8,8,0,0,0,7.95-7.43A8.13,8.13,0,0,0,171,423.38Zm29.9,6.18c-.54-15.14-14.14-28.31-30.31-28.28-16.53,0-29.48,13.14-29.51,29.86,0,17.07,12.81,30,29.83,30C185.06,462.11,201.59,448.94,200.91,429.56ZM170.8,446.07A15.35,15.35,0,0,1,156,431.3a14.8,14.8,0,0,1,15.15-14.64c8.3.13,14.25,6.35,14.18,14.78A14.54,14.54,0,0,1,170.8,446.07Zm.21-22.69a7.86,7.86,0,0,0-7.82,7.48,7.76,7.76,0,0,0,7.62,8.14,8,8,0,0,0,7.95-7.43A8.13,8.13,0,0,0,171,423.38ZM301.26,265.77a17.08,17.08,0,1,0,17.17,17A17.22,17.22,0,0,0,301.26,265.77Zm.08,22.77a5.71,5.71,0,0,1-5.67-5.79,5.77,5.77,0,0,1,5.52-5.59,5.69,5.69,0,1,1,.15,11.38Zm-.08-22.77a17.08,17.08,0,1,0,17.17,17A17.22,17.22,0,0,0,301.26,265.77Zm.08,22.77a5.71,5.71,0,0,1-5.67-5.79,5.77,5.77,0,0,1,5.52-5.59,5.69,5.69,0,1,1,.15,11.38Zm-.09-79.82c-40.43,0-74,33.45-74,73.86A74.43,74.43,0,0,0,301.46,357c40.37.06,74-33.49,74-73.86A74.42,74.42,0,0,0,301.25,208.72Zm45.21,95.06c-15.77,5.89-24.18,17.92-26.84,34.11-.67,4.09-2.06,5.86-6.24,6.57A73.8,73.8,0,0,1,289,344.4c-4-.65-5.28-2.42-5.81-6.13-1.57-11.11-6.3-20.65-15.12-27.87A42.47,42.47,0,0,0,245.73,301c-3.7-.44-5.14-1.94-5.87-5.62a61.5,61.5,0,0,1,3.28-35.57,8.92,8.92,0,0,1,3.81-4.22c19.24-10.11,39.88-13.49,61.4-12.43,16.54.82,32.39,4.41,47.07,12.26a9.93,9.93,0,0,1,4.28,4.73,60,60,0,0,1,2,39.49C356.37,301.08,351.25,302,346.46,303.78Zm-45.2-38a17.08,17.08,0,1,0,17.17,17A17.22,17.22,0,0,0,301.26,265.77Zm.08,22.77a5.71,5.71,0,0,1-5.67-5.79,5.77,5.77,0,0,1,5.52-5.59,5.69,5.69,0,1,1,.15,11.38Zm66.73,134.84c-4.15.14-7.94,4.25-7.65,8.29a8,8,0,0,0,8,7.33,7.68,7.68,0,0,0,7.45-8.23A7.76,7.76,0,0,0,368.07,423.38Zm0,0c-4.15.14-7.94,4.25-7.65,8.29a8,8,0,0,0,8,7.33,7.68,7.68,0,0,0,7.45-8.23A7.76,7.76,0,0,0,368.07,423.38Zm-.37-22.77a30.55,30.55,0,0,0-29.48,31c.29,16.41,14.35,29.8,30.88,29.43a30.16,30.16,0,0,0,29.11-30.6C397.79,413.57,383.85,400,367.7,400.61Zm.46,45.43a14.56,14.56,0,0,1-14.36-14.83,14.14,14.14,0,0,1,14.43-14.56A14.78,14.78,0,0,1,383.13,431C383.27,438.94,376,446.2,368.16,446Zm-.09-22.66c-4.15.14-7.94,4.25-7.65,8.29a8,8,0,0,0,8,7.33,7.68,7.68,0,0,0,7.45-8.23A7.76,7.76,0,0,0,368.07,423.38ZM301.25,208.72c-40.43,0-74,33.45-74,73.86A74.43,74.43,0,0,0,301.46,357c40.37.06,74-33.49,74-73.86A74.42,74.42,0,0,0,301.25,208.72Zm45.21,95.06c-15.77,5.89-24.18,17.92-26.84,34.11-.67,4.09-2.06,5.86-6.24,6.57A73.8,73.8,0,0,1,289,344.4c-4-.65-5.28-2.42-5.81-6.13-1.57-11.11-6.3-20.65-15.12-27.87A42.47,42.47,0,0,0,245.73,301c-3.7-.44-5.14-1.94-5.87-5.62a61.5,61.5,0,0,1,3.28-35.57,8.92,8.92,0,0,1,3.81-4.22c19.24-10.11,39.88-13.49,61.4-12.43,16.54.82,32.39,4.41,47.07,12.26a9.93,9.93,0,0,1,4.28,4.73,60,60,0,0,1,2,39.49C356.37,301.08,351.25,302,346.46,303.78Zm-45.2-38a17.08,17.08,0,1,0,17.17,17A17.22,17.22,0,0,0,301.26,265.77Zm.08,22.77a5.71,5.71,0,0,1-5.67-5.79,5.77,5.77,0,0,1,5.52-5.59,5.69,5.69,0,1,1,.15,11.38ZM175.78,191.05c0,1.47.1,2.89,0,4.29s.23,2.07,1.49,2.39c1.11.29,1.37,1,1.3,2.09-.1,1.59,0,3.2,0,4.84h10.83c0-.1.09-.15.09-.2a24.08,24.08,0,0,0,0-3.4c-.26-1.94.22-3.32,2.29-3.81a.25.25,0,0,0,.14-.08c.13-.21.36-.43.37-.64,0-1.8,0-3.6,0-5.48Zm2.75,27.79c0,5.73,0,11.47,0,17.2,0,1.15.54,1.63,1.74,1.63,2.46,0,4.93,0,7.4,0,1.31,0,1.78-.49,1.78-1.81q0-8.26,0-16.54v-.79H178.59A2,2,0,0,0,178.53,218.84Zm.78-30.6c3.16,0,6.31,0,9.47,0a5.27,5.27,0,0,0,.65-.08v-2.58H178.52c0,.67,0,1.28,0,1.88S178.69,188.24,179.31,188.24ZM178.57,213v2.69h10.82v-2.74H186.8v-2.73h2.61v-2.67H178.57v2.71H184V213Zm8.13-41.12h-5.38v10.83h5.38Zm-5.39,79.46h5.37V240.5h-5.37ZM367.7,400.61a30.55,30.55,0,0,0-29.48,31c.29,16.41,14.35,29.8,30.88,29.43a30.16,30.16,0,0,0,29.11-30.6C397.79,413.57,383.85,400,367.7,400.61Zm.46,45.43a14.56,14.56,0,0,1-14.36-14.83,14.14,14.14,0,0,1,14.43-14.56A14.78,14.78,0,0,1,383.13,431C383.27,438.94,376,446.2,368.16,446Zm-.09-22.66c-4.15.14-7.94,4.25-7.65,8.29a8,8,0,0,0,8,7.33,7.68,7.68,0,0,0,7.45-8.23A7.76,7.76,0,0,0,368.07,423.38ZM170.6,401.28c-16.53,0-29.48,13.14-29.51,29.86,0,17.07,12.81,30,29.83,30,14.14,1,30.67-12.16,30-31.54C200.37,414.42,186.77,401.25,170.6,401.28Zm.2,44.79A15.35,15.35,0,0,1,156,431.3a14.8,14.8,0,0,1,15.15-14.64c8.3.13,14.25,6.35,14.18,14.78A14.54,14.54,0,0,1,170.8,446.07Zm.21-22.69a7.86,7.86,0,0,0-7.82,7.48,7.76,7.76,0,0,0,7.62,8.14,8,8,0,0,0,7.95-7.43A8.13,8.13,0,0,0,171,423.38Zm350.35,76.5c-.38-4.73,0-9.51-.1-14.25a16.84,16.84,0,0,0-15.78-16.3c-3-.2-6.11-.12-9.16-.14h-9.67v-5.92q0-154.74-.08-309.51a13.31,13.31,0,0,1,3.45-9c10.91-13.55,16.67-29,12.65-46.29-1.44-6.23-5.49-12.44-9.84-17.31-9.26-10.36-19.59-19.74-29.25-29.78a11.92,11.92,0,0,1-2.93-7c-.43-6.76,0-13.59-.35-20.35A25.36,25.36,0,0,0,434.77,0Q260.68,0,86.59,0A25.4,25.4,0,0,0,61,24.45c-.36,6.6.11,13.25-.32,19.84a11.94,11.94,0,0,1-2.87,7c-8.31,8.73-16.53,17.62-25.55,25.55-16.8,14.77-18.1,32.38-10.57,51.74a55.23,55.23,0,0,0,9,15.19c3.14,3.73,4.06,7.34,4.06,11.93Q34.6,309,34.66,462.19v6.87C21.54,469.85,6.85,465.42,0,481.6v27.49c3,5.54,7,10.06,13.23,12.22H508.09C517.83,517.47,522.22,510.41,521.36,499.88ZM482.22,104.39c2.75,0,4.37.38,4.37,3.83,0,21.13-19.27,40.06-40.4,39.41C424,147,406.28,126.9,408.82,104.41H437C452,104.41,467.14,104.46,482.22,104.39Zm-299.35,257c-1.81-13.1-7.74-25.66-12.27-38.33-.48-1.33-3.25-2.57-5-2.61-10.49-.24-21-.13-31.49-.11-3.17,0-6.51-.14-6.43-4.31.07-3.84,3.25-4,6.25-4,12.16,0,24.33.1,36.49,0,3.59,0,5.6,1.44,6.69,4.69,4.66,14,9.46,28,13.94,42.13a14.35,14.35,0,0,1-.21,7.26c-2.08,8.72-4.3,17.41-6.79,26-.87,3-.39,4.41,2.5,5.76,11,5.13,17.65,13.91,20.38,25.6.6,2.57,1.41,3.67,4.14,3.67q59-.1,118-.08a15.67,15.67,0,0,0,2.25-.36c4.29-23,22.6-34.7,41.86-32.57,17.15,1.89,31.63,17.8,32,34.95.43,18.85-12.57,35.53-30,38.18-20.23,3.09-38.77-7.85-44-31.92h-5.7c-37,0-74,.1-111-.12-4.9,0-7.11,1-8.41,6.15-4.53,18-22.41,29-39.41,26.67-19.92-2.75-33.51-19-32.83-38.29s16.78-35.15,36.33-35.48c4.36-.08,6-1.65,6.52-5.44a4.22,4.22,0,0,1,.09-.49C179.06,379.3,184,369.9,182.87,361.36Zm207.76-2.15c-1.46,4.17-3.64,5.79-8,5.71-10-.2-20-.39-29.9.05a96.88,96.88,0,0,1-148.07-76.35c-17.89,0-35.78,0-53.66,0H87.54c-1.67,0-3.53.35-4.94-.27S79,285.8,79.23,285c.38-1.52,2.09-3,3.61-3.83,1.19-.62,2.94-.16,4.44-.16H204.51a94.74,94.74,0,0,1,2.64-21c-3,.51-5.43.87-6,.87-7.33-.06-14.66,0-22,0-7.16,0-14.33-.1-21.49.05-3.89.07-6-1.48-7.29-5.25-4.69-13.67-9.67-27.24-14.55-40.84-5-13.95-14.06-20.52-28.86-20.91-4.33-.11-8.71.3-13-.27-1.81-.24-4.57-2.18-4.81-3.68-.48-3,2.14-4,5-4,7.14.24,14.42-.35,21.38.86,13.36,2.32,22.31,10.6,27,23.26,4.63,12.46,9.22,24.94,13.39,37.55,1.42,4.28,3.56,5.54,7.89,5.42,4.87-.13,9.73-.16,14.6-.15,0-4,0-8,0-12a1.06,1.06,0,0,0-.63-1.1,3.8,3.8,0,0,1-2.08-3.45c0-3,0-5.93,0-8.89q0-13.26,0-26.52c0-.67-.15-1.12-.82-1.3-1.71-.44-2.14-1.53-2-3.23.17-2.4.05-4.82.05-7.23v-1h2.77v-5.48h2.7V169.08h11v13.63h2.77v5.49H195c0,.34.06.6.06.86,0,3,0,5.93,0,8.9a1,1,0,0,1-.74,1.11c-1.76.47-2.11,1.59-2.09,3.36.1,11.13,0,22.27.06,33.41a4.42,4.42,0,0,1-2.33,4.18,1.25,1.25,0,0,0-.4,1c0,4,0,8,0,12l5.85.05c2.68,0,9.63-1.19,14.48-2.21a96.91,96.91,0,1,1,154,106.06,94.4,94.4,0,0,1,13.55.16c4.25.31,6.11-1.33,7.5-5.28,10.53-29.94,21.29-59.8,32-89.68.5-1.4.7-3.16,1.67-4.1,1.24-1.2,3.11-1.73,4.72-2.55.8,1.88,2.7,4.1,2.24,5.59-2.77,8.87-6.09,17.57-9.22,26.33C407.69,311.32,399,335.22,390.63,359.21ZM208.31,104.63c.69,14.32-3.92,26-15.14,34.8a38.83,38.83,0,0,1-62.41-34.8Zm-71.09-18c5.16-8.59,9.71-16.29,14.44-23.88a4.56,4.56,0,0,1,3.27-1.74c19.82-.11,39.64-.07,60.15-.07-1.6,8.2-3,15.94-4.73,23.61-.21.9-2.22,2-3.4,2C184.06,86.7,161.17,86.67,137.22,86.67Zm157.84,18c1.48,15.66-3,28.5-16.21,37.18-12.08,7.9-24.71,7.88-36.83.13-13.51-8.63-17.3-21.73-15.78-37.31ZM228,86.4c1.72-8.54,3.41-16.86,5.09-25.25h55c1.69,8.22,3.41,16.56,5.19,25.25Zm149.21.28c-20.52,0-41-.06-61.58.06-3.3,0-4.78-.83-5.29-4.35-1.05-7-2.68-13.88-4.18-21.42h12.11c14.93,0,29.86.19,44.79-.11,4.35-.09,6.71,1.33,8.72,5.09,3.66,6.8,7.84,13.32,12.26,20.73Zm13.64,18.1c.59,15-4.4,27.36-16.91,35.82-13.76,9.28-28.25,9.59-42.56,1-12.86-7.68-20.2-22.93-18-36.86Zm58.5-42.68c7.94,7.79,15.8,15.64,24.47,24.24-2.41.17-3.66.33-4.92.33-20,0-40-.08-60,.1-3.38,0-5.17-1.1-6.76-3.93-4-7-8.22-13.91-13-21.86,19.89,0,38.66,0,57.44.06A4.2,4.2,0,0,1,449.36,62.1ZM78.45,25.16c.27-4.44,3.34-6.89,7.61-7.65a28.52,28.52,0,0,1,5.07-.17H430.06c10.48,0,12.93,2.41,12.93,12.79V43H78.37C78.37,36.93,78.11,31,78.45,25.16ZM72.21,61.93A5,5,0,0,1,75.45,61c18.45,0,36.92,0,56.64,0-5.18,8.69-9.77,16.51-14.56,24.21-.55.87-2.24,1.42-3.4,1.44q-32.28.09-64.54,0c-.27,0-.56-.27-1.43-.73C56.26,77.78,64.17,69.8,72.21,61.93ZM38.32,104.39c24.25.09,48.48.08,72.72.12a7.06,7.06,0,0,1,1.68.52c1.42,22.86-15.33,41.77-37.36,42.6-21.14.78-40.35-17.79-40.62-39.16C34.71,105.79,35.28,104.37,38.32,104.39ZM503.84,503.56H17.66V487.05H503.84ZM369.1,461a30.16,30.16,0,0,0,29.11-30.6c-.42-16.82-14.36-30.42-30.51-29.78a30.55,30.55,0,0,0-29.48,31C338.51,448,352.57,461.36,369.1,461Zm-.87-44.34A14.78,14.78,0,0,1,383.13,431c.14,7.91-7.1,15.17-15,15a14.56,14.56,0,0,1-14.36-14.83A14.14,14.14,0,0,1,368.23,416.65Zm.22,22.35a7.68,7.68,0,0,0,7.45-8.23,7.76,7.76,0,0,0-7.83-7.39c-4.15.14-7.94,4.25-7.65,8.29A8,8,0,0,0,368.45,439Zm-67.2-230.28c-40.43,0-74,33.45-74,73.86A74.43,74.43,0,0,0,301.46,357c40.37.06,74-33.49,74-73.86A74.42,74.42,0,0,0,301.25,208.72Zm45.21,95.06c-15.77,5.89-24.18,17.92-26.84,34.11-.67,4.09-2.06,5.86-6.24,6.57A73.8,73.8,0,0,1,289,344.4c-4-.65-5.28-2.42-5.81-6.13-1.57-11.11-6.3-20.65-15.12-27.87A42.47,42.47,0,0,0,245.73,301c-3.7-.44-5.14-1.94-5.87-5.62a61.5,61.5,0,0,1,3.28-35.57,8.92,8.92,0,0,1,3.81-4.22c19.24-10.11,39.88-13.49,61.4-12.43,16.54.82,32.39,4.41,47.07,12.26a9.93,9.93,0,0,1,4.28,4.73,60,60,0,0,1,2,39.49C356.37,301.08,351.25,302,346.46,303.78Zm-45.2-38a17.08,17.08,0,1,0,17.17,17A17.22,17.22,0,0,0,301.26,265.77Zm.08,22.77a5.71,5.71,0,0,1-5.67-5.79,5.77,5.77,0,0,1,5.52-5.59,5.69,5.69,0,1,1,.15,11.38ZM141.09,431.14c0,17.07,12.81,30,29.83,30,14.14,1,30.67-12.16,30-31.54-.54-15.14-14.14-28.31-30.31-28.28C154.07,401.31,141.12,414.42,141.09,431.14Zm44.27.3a14.54,14.54,0,0,1-14.56,14.63A15.35,15.35,0,0,1,156,431.3a14.8,14.8,0,0,1,15.15-14.64C179.48,416.79,185.43,423,185.36,431.44Zm6.36-234.19a.25.25,0,0,0,.14-.08c.13-.21.36-.43.37-.64,0-1.8,0-3.6,0-5.48H175.78c0,1.47.1,2.89,0,4.29s.23,2.07,1.49,2.39c1.11.29,1.37,1,1.3,2.09-.1,1.59,0,3.2,0,4.84h10.83c0-.1.09-.15.09-.2a24.08,24.08,0,0,0,0-3.4C189.17,199.12,189.65,197.74,191.72,197.25Zm-13.19,21.59c0,5.73,0,11.47,0,17.2,0,1.15.54,1.63,1.74,1.63,2.46,0,4.93,0,7.4,0,1.31,0,1.78-.49,1.78-1.81q0-8.26,0-16.54v-.79H178.59A2,2,0,0,0,178.53,218.84Zm.78-30.6c3.16,0,6.31,0,9.47,0a5.27,5.27,0,0,0,.65-.08v-2.58H178.52c0,.67,0,1.28,0,1.88S178.69,188.24,179.31,188.24ZM178.57,213v2.69h10.82v-2.74H186.8v-2.73h2.61v-2.67H178.57v2.71H184V213Zm8.13-41.12h-5.38v10.83h5.38Zm-5.39,79.46h5.37V240.5h-5.37ZM170.81,439a8,8,0,0,0,7.95-7.43,8.13,8.13,0,0,0-7.75-8.19,7.86,7.86,0,0,0-7.82,7.48A7.76,7.76,0,0,0,170.81,439Zm.2-15.62a7.86,7.86,0,0,0-7.82,7.48,7.76,7.76,0,0,0,7.62,8.14,8,8,0,0,0,7.95-7.43A8.13,8.13,0,0,0,171,423.38Zm0,0a7.86,7.86,0,0,0-7.82,7.48,7.76,7.76,0,0,0,7.62,8.14,8,8,0,0,0,7.95-7.43A8.13,8.13,0,0,0,171,423.38Zm29.9,6.18c-.54-15.14-14.14-28.31-30.31-28.28-16.53,0-29.48,13.14-29.51,29.86,0,17.07,12.81,30,29.83,30C185.06,462.11,201.59,448.94,200.91,429.56ZM170.8,446.07A15.35,15.35,0,0,1,156,431.3a14.8,14.8,0,0,1,15.15-14.64c8.3.13,14.25,6.35,14.18,14.78A14.54,14.54,0,0,1,170.8,446.07Zm.21-22.69a7.86,7.86,0,0,0-7.82,7.48,7.76,7.76,0,0,0,7.62,8.14,8,8,0,0,0,7.95-7.43A8.13,8.13,0,0,0,171,423.38Zm197.06,0c-4.15.14-7.94,4.25-7.65,8.29a8,8,0,0,0,8,7.33,7.68,7.68,0,0,0,7.45-8.23A7.76,7.76,0,0,0,368.07,423.38Zm0,0c-4.15.14-7.94,4.25-7.65,8.29a8,8,0,0,0,8,7.33,7.68,7.68,0,0,0,7.45-8.23A7.76,7.76,0,0,0,368.07,423.38Zm-.37-22.77a30.55,30.55,0,0,0-29.48,31c.29,16.41,14.35,29.8,30.88,29.43a30.16,30.16,0,0,0,29.11-30.6C397.79,413.57,383.85,400,367.7,400.61Zm.46,45.43a14.56,14.56,0,0,1-14.36-14.83,14.14,14.14,0,0,1,14.43-14.56A14.78,14.78,0,0,1,383.13,431C383.27,438.94,376,446.2,368.16,446Zm-.09-22.66c-4.15.14-7.94,4.25-7.65,8.29a8,8,0,0,0,8,7.33,7.68,7.68,0,0,0,7.45-8.23A7.76,7.76,0,0,0,368.07,423.38ZM301.26,265.77a17.08,17.08,0,1,0,17.17,17A17.22,17.22,0,0,0,301.26,265.77Zm.08,22.77a5.71,5.71,0,0,1-5.67-5.79,5.77,5.77,0,0,1,5.52-5.59,5.69,5.69,0,1,1,.15,11.38Zm-.08-22.77a17.08,17.08,0,1,0,17.17,17A17.22,17.22,0,0,0,301.26,265.77Zm.08,22.77a5.71,5.71,0,0,1-5.67-5.79,5.77,5.77,0,0,1,5.52-5.59,5.69,5.69,0,1,1,.15,11.38Zm-.09-79.82c-40.43,0-74,33.45-74,73.86A74.43,74.43,0,0,0,301.46,357c40.37.06,74-33.49,74-73.86A74.42,74.42,0,0,0,301.25,208.72Zm45.21,95.06c-15.77,5.89-24.18,17.92-26.84,34.11-.67,4.09-2.06,5.86-6.24,6.57A73.8,73.8,0,0,1,289,344.4c-4-.65-5.28-2.42-5.81-6.13-1.57-11.11-6.3-20.65-15.12-27.87A42.47,42.47,0,0,0,245.73,301c-3.7-.44-5.14-1.94-5.87-5.62a61.5,61.5,0,0,1,3.28-35.57,8.92,8.92,0,0,1,3.81-4.22c19.24-10.11,39.88-13.49,61.4-12.43,16.54.82,32.39,4.41,47.07,12.26a9.93,9.93,0,0,1,4.28,4.73,60,60,0,0,1,2,39.49C356.37,301.08,351.25,302,346.46,303.78Zm-45.2-38a17.08,17.08,0,1,0,17.17,17A17.22,17.22,0,0,0,301.26,265.77Zm.08,22.77a5.71,5.71,0,0,1-5.67-5.79,5.77,5.77,0,0,1,5.52-5.59,5.69,5.69,0,1,1,.15,11.38Zm66.73,134.84c-4.15.14-7.94,4.25-7.65,8.29a8,8,0,0,0,8,7.33,7.68,7.68,0,0,0,7.45-8.23A7.76,7.76,0,0,0,368.07,423.38Zm0,0c-4.15.14-7.94,4.25-7.65,8.29a8,8,0,0,0,8,7.33,7.68,7.68,0,0,0,7.45-8.23A7.76,7.76,0,0,0,368.07,423.38Zm-.37-22.77a30.55,30.55,0,0,0-29.48,31c.29,16.41,14.35,29.8,30.88,29.43a30.16,30.16,0,0,0,29.11-30.6C397.79,413.57,383.85,400,367.7,400.61Zm.46,45.43a14.56,14.56,0,0,1-14.36-14.83,14.14,14.14,0,0,1,14.43-14.56A14.78,14.78,0,0,1,383.13,431C383.27,438.94,376,446.2,368.16,446Zm-.09-22.66c-4.15.14-7.94,4.25-7.65,8.29a8,8,0,0,0,8,7.33,7.68,7.68,0,0,0,7.45-8.23A7.76,7.76,0,0,0,368.07,423.38Zm0,0c-4.15.14-7.94,4.25-7.65,8.29a8,8,0,0,0,8,7.33,7.68,7.68,0,0,0,7.45-8.23A7.76,7.76,0,0,0,368.07,423.38Zm0,0c-4.15.14-7.94,4.25-7.65,8.29a8,8,0,0,0,8,7.33,7.68,7.68,0,0,0,7.45-8.23A7.76,7.76,0,0,0,368.07,423.38ZM301.26,265.77a17.08,17.08,0,1,0,17.17,17A17.22,17.22,0,0,0,301.26,265.77Zm.08,22.77a5.71,5.71,0,0,1-5.67-5.79,5.77,5.77,0,0,1,5.52-5.59,5.69,5.69,0,1,1,.15,11.38Zm-.08-22.77a17.08,17.08,0,1,0,17.17,17A17.22,17.22,0,0,0,301.26,265.77Zm.08,22.77a5.71,5.71,0,0,1-5.67-5.79,5.77,5.77,0,0,1,5.52-5.59,5.69,5.69,0,1,1,.15,11.38Zm-.09-79.82c-40.43,0-74,33.45-74,73.86A74.43,74.43,0,0,0,301.46,357c40.37.06,74-33.49,74-73.86A74.42,74.42,0,0,0,301.25,208.72Zm45.21,95.06c-15.77,5.89-24.18,17.92-26.84,34.11-.67,4.09-2.06,5.86-6.24,6.57A73.8,73.8,0,0,1,289,344.4c-4-.65-5.28-2.42-5.81-6.13-1.57-11.11-6.3-20.65-15.12-27.87A42.47,42.47,0,0,0,245.73,301c-3.7-.44-5.14-1.94-5.87-5.62a61.5,61.5,0,0,1,3.28-35.57,8.92,8.92,0,0,1,3.81-4.22c19.24-10.11,39.88-13.49,61.4-12.43,16.54.82,32.39,4.41,47.07,12.26a9.93,9.93,0,0,1,4.28,4.73,60,60,0,0,1,2,39.49C356.37,301.08,351.25,302,346.46,303.78Zm-45.2-38a17.08,17.08,0,1,0,17.17,17A17.22,17.22,0,0,0,301.26,265.77Zm.08,22.77a5.71,5.71,0,0,1-5.67-5.79,5.77,5.77,0,0,1,5.52-5.59,5.69,5.69,0,1,1,.15,11.38Zm-.08-22.77a17.08,17.08,0,1,0,17.17,17A17.22,17.22,0,0,0,301.26,265.77Zm.08,22.77a5.71,5.71,0,0,1-5.67-5.79,5.77,5.77,0,0,1,5.52-5.59,5.69,5.69,0,1,1,.15,11.38Zm-.08-22.77a17.08,17.08,0,1,0,17.17,17A17.22,17.22,0,0,0,301.26,265.77Zm.08,22.77a5.71,5.71,0,0,1-5.67-5.79,5.77,5.77,0,0,1,5.52-5.59,5.69,5.69,0,1,1,.15,11.38ZM171,423.38a7.86,7.86,0,0,0-7.82,7.48,7.76,7.76,0,0,0,7.62,8.14,8,8,0,0,0,7.95-7.43A8.13,8.13,0,0,0,171,423.38Zm0,0a7.86,7.86,0,0,0-7.82,7.48,7.76,7.76,0,0,0,7.62,8.14,8,8,0,0,0,7.95-7.43A8.13,8.13,0,0,0,171,423.38Zm29.9,6.18c-.54-15.14-14.14-28.31-30.31-28.28-16.53,0-29.48,13.14-29.51,29.86,0,17.07,12.81,30,29.83,30C185.06,462.11,201.59,448.94,200.91,429.56ZM170.8,446.07A15.35,15.35,0,0,1,156,431.3a14.8,14.8,0,0,1,15.15-14.64c8.3.13,14.25,6.35,14.18,14.78A14.54,14.54,0,0,1,170.8,446.07Zm.21-22.69a7.86,7.86,0,0,0-7.82,7.48,7.76,7.76,0,0,0,7.62,8.14,8,8,0,0,0,7.95-7.43A8.13,8.13,0,0,0,171,423.38Zm0,0a7.86,7.86,0,0,0-7.82,7.48,7.76,7.76,0,0,0,7.62,8.14,8,8,0,0,0,7.95-7.43A8.13,8.13,0,0,0,171,423.38Zm0,0a7.86,7.86,0,0,0-7.82,7.48,7.76,7.76,0,0,0,7.62,8.14,8,8,0,0,0,7.95-7.43A8.13,8.13,0,0,0,171,423.38Zm0,0a7.86,7.86,0,0,0-7.82,7.48,7.76,7.76,0,0,0,7.62,8.14,8,8,0,0,0,7.95-7.43A8.13,8.13,0,0,0,171,423.38Zm0,0a7.86,7.86,0,0,0-7.82,7.48,7.76,7.76,0,0,0,7.62,8.14,8,8,0,0,0,7.95-7.43A8.13,8.13,0,0,0,171,423.38Zm0,0a7.86,7.86,0,0,0-7.82,7.48,7.76,7.76,0,0,0,7.62,8.14,8,8,0,0,0,7.95-7.43A8.13,8.13,0,0,0,171,423.38Zm0,0a7.86,7.86,0,0,0-7.82,7.48,7.76,7.76,0,0,0,7.62,8.14,8,8,0,0,0,7.95-7.43A8.13,8.13,0,0,0,171,423.38Zm29.9,6.18c-.54-15.14-14.14-28.31-30.31-28.28-16.53,0-29.48,13.14-29.51,29.86,0,17.07,12.81,30,29.83,30C185.06,462.11,201.59,448.94,200.91,429.56ZM170.8,446.07A15.35,15.35,0,0,1,156,431.3a14.8,14.8,0,0,1,15.15-14.64c8.3.13,14.25,6.35,14.18,14.78A14.54,14.54,0,0,1,170.8,446.07Zm.21-22.69a7.86,7.86,0,0,0-7.82,7.48,7.76,7.76,0,0,0,7.62,8.14,8,8,0,0,0,7.95-7.43A8.13,8.13,0,0,0,171,423.38Zm0,0a7.86,7.86,0,0,0-7.82,7.48,7.76,7.76,0,0,0,7.62,8.14,8,8,0,0,0,7.95-7.43A8.13,8.13,0,0,0,171,423.38Zm0,0a7.86,7.86,0,0,0-7.82,7.48,7.76,7.76,0,0,0,7.62,8.14,8,8,0,0,0,7.95-7.43A8.13,8.13,0,0,0,171,423.38Zm197.06,0c-4.15.14-7.94,4.25-7.65,8.29a8,8,0,0,0,8,7.33,7.68,7.68,0,0,0,7.45-8.23A7.76,7.76,0,0,0,368.07,423.38Zm0,0c-4.15.14-7.94,4.25-7.65,8.29a8,8,0,0,0,8,7.33,7.68,7.68,0,0,0,7.45-8.23A7.76,7.76,0,0,0,368.07,423.38Zm-.37-22.77a30.55,30.55,0,0,0-29.48,31c.29,16.41,14.35,29.8,30.88,29.43a30.16,30.16,0,0,0,29.11-30.6C397.79,413.57,383.85,400,367.7,400.61Zm.46,45.43a14.56,14.56,0,0,1-14.36-14.83,14.14,14.14,0,0,1,14.43-14.56A14.78,14.78,0,0,1,383.13,431C383.27,438.94,376,446.2,368.16,446Zm-.09-22.66c-4.15.14-7.94,4.25-7.65,8.29a8,8,0,0,0,8,7.33,7.68,7.68,0,0,0,7.45-8.23A7.76,7.76,0,0,0,368.07,423.38Zm0,0c-4.15.14-7.94,4.25-7.65,8.29a8,8,0,0,0,8,7.33,7.68,7.68,0,0,0,7.45-8.23A7.76,7.76,0,0,0,368.07,423.38Zm0,0c-4.15.14-7.94,4.25-7.65,8.29a8,8,0,0,0,8,7.33,7.68,7.68,0,0,0,7.45-8.23A7.76,7.76,0,0,0,368.07,423.38ZM301.26,265.77a17.08,17.08,0,1,0,17.17,17A17.22,17.22,0,0,0,301.26,265.77Zm.08,22.77a5.71,5.71,0,0,1-5.67-5.79,5.77,5.77,0,0,1,5.52-5.59,5.69,5.69,0,1,1,.15,11.38Zm-.08-22.77a17.08,17.08,0,1,0,17.17,17A17.22,17.22,0,0,0,301.26,265.77Zm.08,22.77a5.71,5.71,0,0,1-5.67-5.79,5.77,5.77,0,0,1,5.52-5.59,5.69,5.69,0,1,1,.15,11.38Zm-.08-22.77a17.08,17.08,0,1,0,17.17,17A17.22,17.22,0,0,0,301.26,265.77Zm.08,22.77a5.71,5.71,0,0,1-5.67-5.79,5.77,5.77,0,0,1,5.52-5.59,5.69,5.69,0,1,1,.15,11.38Zm-.08-22.77a17.08,17.08,0,1,0,17.17,17A17.22,17.22,0,0,0,301.26,265.77Zm.08,22.77a5.71,5.71,0,0,1-5.67-5.79,5.77,5.77,0,0,1,5.52-5.59,5.69,5.69,0,1,1,.15,11.38Zm-.09-79.82c-40.43,0-74,33.45-74,73.86A74.43,74.43,0,0,0,301.46,357c40.37.06,74-33.49,74-73.86A74.42,74.42,0,0,0,301.25,208.72Zm45.21,95.06c-15.77,5.89-24.18,17.92-26.84,34.11-.67,4.09-2.06,5.86-6.24,6.57A73.8,73.8,0,0,1,289,344.4c-4-.65-5.28-2.42-5.81-6.13-1.57-11.11-6.3-20.65-15.12-27.87A42.47,42.47,0,0,0,245.73,301c-3.7-.44-5.14-1.94-5.87-5.62a61.5,61.5,0,0,1,3.28-35.57,8.92,8.92,0,0,1,3.81-4.22c19.24-10.11,39.88-13.49,61.4-12.43,16.54.82,32.39,4.41,47.07,12.26a9.93,9.93,0,0,1,4.28,4.73,60,60,0,0,1,2,39.49C356.37,301.08,351.25,302,346.46,303.78Zm-45.2-38a17.08,17.08,0,1,0,17.17,17A17.22,17.22,0,0,0,301.26,265.77Zm.08,22.77a5.71,5.71,0,0,1-5.67-5.79,5.77,5.77,0,0,1,5.52-5.59,5.69,5.69,0,1,1,.15,11.38Zm-.08-22.77a17.08,17.08,0,1,0,17.17,17A17.22,17.22,0,0,0,301.26,265.77Zm.08,22.77a5.71,5.71,0,0,1-5.67-5.79,5.77,5.77,0,0,1,5.52-5.59,5.69,5.69,0,1,1,.15,11.38Zm-.08-22.77a17.08,17.08,0,1,0,17.17,17A17.22,17.22,0,0,0,301.26,265.77Zm.08,22.77a5.71,5.71,0,0,1-5.67-5.79,5.77,5.77,0,0,1,5.52-5.59,5.69,5.69,0,1,1,.15,11.38Zm66.73,134.84c-4.15.14-7.94,4.25-7.65,8.29a8,8,0,0,0,8,7.33,7.68,7.68,0,0,0,7.45-8.23A7.76,7.76,0,0,0,368.07,423.38Zm0,0c-4.15.14-7.94,4.25-7.65,8.29a8,8,0,0,0,8,7.33,7.68,7.68,0,0,0,7.45-8.23A7.76,7.76,0,0,0,368.07,423.38Zm-.37-22.77a30.55,30.55,0,0,0-29.48,31c.29,16.41,14.35,29.8,30.88,29.43a30.16,30.16,0,0,0,29.11-30.6C397.79,413.57,383.85,400,367.7,400.61Zm.46,45.43a14.56,14.56,0,0,1-14.36-14.83,14.14,14.14,0,0,1,14.43-14.56A14.78,14.78,0,0,1,383.13,431C383.27,438.94,376,446.2,368.16,446Zm-.09-22.66c-4.15.14-7.94,4.25-7.65,8.29a8,8,0,0,0,8,7.33,7.68,7.68,0,0,0,7.45-8.23A7.76,7.76,0,0,0,368.07,423.38Zm0,0c-4.15.14-7.94,4.25-7.65,8.29a8,8,0,0,0,8,7.33,7.68,7.68,0,0,0,7.45-8.23A7.76,7.76,0,0,0,368.07,423.38Zm0,0c-4.15.14-7.94,4.25-7.65,8.29a8,8,0,0,0,8,7.33,7.68,7.68,0,0,0,7.45-8.23A7.76,7.76,0,0,0,368.07,423.38ZM301.26,265.77a17.08,17.08,0,1,0,17.17,17A17.22,17.22,0,0,0,301.26,265.77Zm.08,22.77a5.71,5.71,0,0,1-5.67-5.79,5.77,5.77,0,0,1,5.52-5.59,5.69,5.69,0,1,1,.15,11.38Zm-.08-22.77a17.08,17.08,0,1,0,17.17,17A17.22,17.22,0,0,0,301.26,265.77Zm.08,22.77a5.71,5.71,0,0,1-5.67-5.79,5.77,5.77,0,0,1,5.52-5.59,5.69,5.69,0,1,1,.15,11.38Zm-.08-22.77a17.08,17.08,0,1,0,17.17,17A17.22,17.22,0,0,0,301.26,265.77Zm.08,22.77a5.71,5.71,0,0,1-5.67-5.79,5.77,5.77,0,0,1,5.52-5.59,5.69,5.69,0,1,1,.15,11.38Zm-.08-22.77a17.08,17.08,0,1,0,17.17,17A17.22,17.22,0,0,0,301.26,265.77Zm.08,22.77a5.71,5.71,0,0,1-5.67-5.79,5.77,5.77,0,0,1,5.52-5.59,5.69,5.69,0,1,1,.15,11.38Zm-.09-79.82c-40.43,0-74,33.45-74,73.86A74.43,74.43,0,0,0,301.46,357c40.37.06,74-33.49,74-73.86A74.42,74.42,0,0,0,301.25,208.72Zm45.21,95.06c-15.77,5.89-24.18,17.92-26.84,34.11-.67,4.09-2.06,5.86-6.24,6.57A73.8,73.8,0,0,1,289,344.4c-4-.65-5.28-2.42-5.81-6.13-1.57-11.11-6.3-20.65-15.12-27.87A42.47,42.47,0,0,0,245.73,301c-3.7-.44-5.14-1.94-5.87-5.62a61.5,61.5,0,0,1,3.28-35.57,8.92,8.92,0,0,1,3.81-4.22c19.24-10.11,39.88-13.49,61.4-12.43,16.54.82,32.39,4.41,47.07,12.26a9.93,9.93,0,0,1,4.28,4.73,60,60,0,0,1,2,39.49C356.37,301.08,351.25,302,346.46,303.78Zm-45.2-38a17.08,17.08,0,1,0,17.17,17A17.22,17.22,0,0,0,301.26,265.77Zm.08,22.77a5.71,5.71,0,0,1-5.67-5.79,5.77,5.77,0,0,1,5.52-5.59,5.69,5.69,0,1,1,.15,11.38Zm-.08-22.77a17.08,17.08,0,1,0,17.17,17A17.22,17.22,0,0,0,301.26,265.77Zm.08,22.77a5.71,5.71,0,0,1-5.67-5.79,5.77,5.77,0,0,1,5.52-5.59,5.69,5.69,0,1,1,.15,11.38Zm-.08-22.77a17.08,17.08,0,1,0,17.17,17A17.22,17.22,0,0,0,301.26,265.77Zm.08,22.77a5.71,5.71,0,0,1-5.67-5.79,5.77,5.77,0,0,1,5.52-5.59,5.69,5.69,0,1,1,.15,11.38Zm-.08-22.77a17.08,17.08,0,1,0,17.17,17A17.22,17.22,0,0,0,301.26,265.77Zm.08,22.77a5.71,5.71,0,0,1-5.67-5.79,5.77,5.77,0,0,1,5.52-5.59,5.69,5.69,0,1,1,.15,11.38Zm-.08-22.77a17.08,17.08,0,1,0,17.17,17A17.22,17.22,0,0,0,301.26,265.77Zm.08,22.77a5.71,5.71,0,0,1-5.67-5.79,5.77,5.77,0,0,1,5.52-5.59,5.69,5.69,0,1,1,.15,11.38ZM171,423.38a7.86,7.86,0,0,0-7.82,7.48,7.76,7.76,0,0,0,7.62,8.14,8,8,0,0,0,7.95-7.43A8.13,8.13,0,0,0,171,423.38Zm0,0a7.86,7.86,0,0,0-7.82,7.48,7.76,7.76,0,0,0,7.62,8.14,8,8,0,0,0,7.95-7.43A8.13,8.13,0,0,0,171,423.38Zm0,0a7.86,7.86,0,0,0-7.82,7.48,7.76,7.76,0,0,0,7.62,8.14,8,8,0,0,0,7.95-7.43A8.13,8.13,0,0,0,171,423.38Zm0,0a7.86,7.86,0,0,0-7.82,7.48,7.76,7.76,0,0,0,7.62,8.14,8,8,0,0,0,7.95-7.43A8.13,8.13,0,0,0,171,423.38Zm29.9,6.18c-.54-15.14-14.14-28.31-30.31-28.28-16.53,0-29.48,13.14-29.51,29.86,0,17.07,12.81,30,29.83,30C185.06,462.11,201.59,448.94,200.91,429.56ZM170.8,446.07A15.35,15.35,0,0,1,156,431.3a14.8,14.8,0,0,1,15.15-14.64c8.3.13,14.25,6.35,14.18,14.78A14.54,14.54,0,0,1,170.8,446.07Zm.21-22.69a7.86,7.86,0,0,0-7.82,7.48,7.76,7.76,0,0,0,7.62,8.14,8,8,0,0,0,7.95-7.43A8.13,8.13,0,0,0,171,423.38Zm0,0a7.86,7.86,0,0,0-7.82,7.48,7.76,7.76,0,0,0,7.62,8.14,8,8,0,0,0,7.95-7.43A8.13,8.13,0,0,0,171,423.38Zm0,0a7.86,7.86,0,0,0-7.82,7.48,7.76,7.76,0,0,0,7.62,8.14,8,8,0,0,0,7.95-7.43A8.13,8.13,0,0,0,171,423.38ZM301.26,265.77a17.08,17.08,0,1,0,17.17,17A17.22,17.22,0,0,0,301.26,265.77Zm.08,22.77a5.71,5.71,0,0,1-5.67-5.79,5.77,5.77,0,0,1,5.52-5.59,5.69,5.69,0,1,1,.15,11.38Zm-.08-22.77a17.08,17.08,0,1,0,17.17,17A17.22,17.22,0,0,0,301.26,265.77Zm.08,22.77a5.71,5.71,0,0,1-5.67-5.79,5.77,5.77,0,0,1,5.52-5.59,5.69,5.69,0,1,1,.15,11.38Zm-.08-22.77a17.08,17.08,0,1,0,17.17,17A17.22,17.22,0,0,0,301.26,265.77Zm.08,22.77a5.71,5.71,0,0,1-5.67-5.79,5.77,5.77,0,0,1,5.52-5.59,5.69,5.69,0,1,1,.15,11.38Zm-.08-22.77a17.08,17.08,0,1,0,17.17,17A17.22,17.22,0,0,0,301.26,265.77Zm.08,22.77a5.71,5.71,0,0,1-5.67-5.79,5.77,5.77,0,0,1,5.52-5.59,5.69,5.69,0,1,1,.15,11.38Zm-.08-22.77a17.08,17.08,0,1,0,17.17,17A17.22,17.22,0,0,0,301.26,265.77Zm.08,22.77a5.71,5.71,0,0,1-5.67-5.79,5.77,5.77,0,0,1,5.52-5.59,5.69,5.69,0,1,1,.15,11.38Zm-.08-22.77a17.08,17.08,0,1,0,17.17,17A17.22,17.22,0,0,0,301.26,265.77Zm.08,22.77a5.71,5.71,0,0,1-5.67-5.79,5.77,5.77,0,0,1,5.52-5.59,5.69,5.69,0,1,1,.15,11.38Zm-.09-79.82c-40.43,0-74,33.45-74,73.86A74.43,74.43,0,0,0,301.46,357c40.37.06,74-33.49,74-73.86A74.42,74.42,0,0,0,301.25,208.72Zm45.21,95.06c-15.77,5.89-24.18,17.92-26.84,34.11-.67,4.09-2.06,5.86-6.24,6.57A73.8,73.8,0,0,1,289,344.4c-4-.65-5.28-2.42-5.81-6.13-1.57-11.11-6.3-20.65-15.12-27.87A42.47,42.47,0,0,0,245.73,301c-3.7-.44-5.14-1.94-5.87-5.62a61.5,61.5,0,0,1,3.28-35.57,8.92,8.92,0,0,1,3.81-4.22c19.24-10.11,39.88-13.49,61.4-12.43,16.54.82,32.39,4.41,47.07,12.26a9.93,9.93,0,0,1,4.28,4.73,60,60,0,0,1,2,39.49C356.37,301.08,351.25,302,346.46,303.78Zm-45.2-38a17.08,17.08,0,1,0,17.17,17A17.22,17.22,0,0,0,301.26,265.77Zm.08,22.77a5.71,5.71,0,0,1-5.67-5.79,5.77,5.77,0,0,1,5.52-5.59,5.69,5.69,0,1,1,.15,11.38Zm-.08-22.77a17.08,17.08,0,1,0,17.17,17A17.22,17.22,0,0,0,301.26,265.77Zm.08,22.77a5.71,5.71,0,0,1-5.67-5.79,5.77,5.77,0,0,1,5.52-5.59,5.69,5.69,0,1,1,.15,11.38Zm-.08-22.77a17.08,17.08,0,1,0,17.17,17A17.22,17.22,0,0,0,301.26,265.77Zm.08,22.77a5.71,5.71,0,0,1-5.67-5.79,5.77,5.77,0,0,1,5.52-5.59,5.69,5.69,0,1,1,.15,11.38Zm-.08-22.77a17.08,17.08,0,1,0,17.17,17A17.22,17.22,0,0,0,301.26,265.77Zm.08,22.77a5.71,5.71,0,0,1-5.67-5.79,5.77,5.77,0,0,1,5.52-5.59,5.69,5.69,0,1,1,.15,11.38Zm-.08-22.77a17.08,17.08,0,1,0,17.17,17A17.22,17.22,0,0,0,301.26,265.77Zm.08,22.77a5.71,5.71,0,0,1-5.67-5.79,5.77,5.77,0,0,1,5.52-5.59,5.69,5.69,0,1,1,.15,11.38Zm-.08-22.77a17.08,17.08,0,1,0,17.17,17A17.22,17.22,0,0,0,301.26,265.77Zm.08,22.77a5.71,5.71,0,0,1-5.67-5.79,5.77,5.77,0,0,1,5.52-5.59,5.69,5.69,0,1,1,.15,11.38Zm-.08-22.77a17.08,17.08,0,1,0,17.17,17A17.22,17.22,0,0,0,301.26,265.77Zm.08,22.77a5.71,5.71,0,0,1-5.67-5.79,5.77,5.77,0,0,1,5.52-5.59,5.69,5.69,0,1,1,.15,11.38Zm-.08-22.77a17.08,17.08,0,1,0,17.17,17A17.22,17.22,0,0,0,301.26,265.77Zm.08,22.77a5.71,5.71,0,0,1-5.67-5.79,5.77,5.77,0,0,1,5.52-5.59,5.69,5.69,0,1,1,.15,11.38Zm-.08-22.77a17.08,17.08,0,1,0,17.17,17A17.22,17.22,0,0,0,301.26,265.77Zm.08,22.77a5.71,5.71,0,0,1-5.67-5.79,5.77,5.77,0,0,1,5.52-5.59,5.69,5.69,0,1,1,.15,11.38Zm-.08-22.77a17.08,17.08,0,1,0,17.17,17A17.22,17.22,0,0,0,301.26,265.77Zm.08,22.77a5.71,5.71,0,0,1-5.67-5.79,5.77,5.77,0,0,1,5.52-5.59,5.69,5.69,0,1,1,.15,11.38Zm-.08-22.77a17.08,17.08,0,1,0,17.17,17A17.22,17.22,0,0,0,301.26,265.77Zm.08,22.77a5.71,5.71,0,0,1-5.67-5.79,5.77,5.77,0,0,1,5.52-5.59,5.69,5.69,0,1,1,.15,11.38Zm-.09-79.82c-40.43,0-74,33.45-74,73.86A74.43,74.43,0,0,0,301.46,357c40.37.06,74-33.49,74-73.86A74.42,74.42,0,0,0,301.25,208.72Zm45.21,95.06c-15.77,5.89-24.18,17.92-26.84,34.11-.67,4.09-2.06,5.86-6.24,6.57A73.8,73.8,0,0,1,289,344.4c-4-.65-5.28-2.42-5.81-6.13-1.57-11.11-6.3-20.65-15.12-27.87A42.47,42.47,0,0,0,245.73,301c-3.7-.44-5.14-1.94-5.87-5.62a61.5,61.5,0,0,1,3.28-35.57,8.92,8.92,0,0,1,3.81-4.22c19.24-10.11,39.88-13.49,61.4-12.43,16.54.82,32.39,4.41,47.07,12.26a9.93,9.93,0,0,1,4.28,4.73,60,60,0,0,1,2,39.49C356.37,301.08,351.25,302,346.46,303.78Zm-45.2-38a17.08,17.08,0,1,0,17.17,17A17.22,17.22,0,0,0,301.26,265.77Zm.08,22.77a5.71,5.71,0,0,1-5.67-5.79,5.77,5.77,0,0,1,5.52-5.59,5.69,5.69,0,1,1,.15,11.38Zm-.08-22.77a17.08,17.08,0,1,0,17.17,17A17.22,17.22,0,0,0,301.26,265.77Zm.08,22.77a5.71,5.71,0,0,1-5.67-5.79,5.77,5.77,0,0,1,5.52-5.59,5.69,5.69,0,1,1,.15,11.38Zm-.08-22.77a17.08,17.08,0,1,0,17.17,17A17.22,17.22,0,0,0,301.26,265.77Zm.08,22.77a5.71,5.71,0,0,1-5.67-5.79,5.77,5.77,0,0,1,5.52-5.59,5.69,5.69,0,1,1,.15,11.38Zm-.08-22.77a17.08,17.08,0,1,0,17.17,17A17.22,17.22,0,0,0,301.26,265.77Zm.08,22.77a5.71,5.71,0,0,1-5.67-5.79,5.77,5.77,0,0,1,5.52-5.59,5.69,5.69,0,1,1,.15,11.38Zm-.08-22.77a17.08,17.08,0,1,0,17.17,17A17.22,17.22,0,0,0,301.26,265.77Zm.08,22.77a5.71,5.71,0,0,1-5.67-5.79,5.77,5.77,0,0,1,5.52-5.59,5.69,5.69,0,1,1,.15,11.38Zm-.08-22.77a17.08,17.08,0,1,0,17.17,17A17.22,17.22,0,0,0,301.26,265.77Zm.08,22.77a5.71,5.71,0,0,1-5.67-5.79,5.77,5.77,0,0,1,5.52-5.59,5.69,5.69,0,1,1,.15,11.38Zm-.08-22.77a17.08,17.08,0,1,0,17.17,17A17.22,17.22,0,0,0,301.26,265.77Zm.08,22.77a5.71,5.71,0,0,1-5.67-5.79,5.77,5.77,0,0,1,5.52-5.59,5.69,5.69,0,1,1,.15,11.38Zm-.08-22.77a17.08,17.08,0,1,0,17.17,17A17.22,17.22,0,0,0,301.26,265.77Zm.08,22.77a5.71,5.71,0,0,1-5.67-5.79,5.77,5.77,0,0,1,5.52-5.59,5.69,5.69,0,1,1,.15,11.38Zm-.08-22.77a17.08,17.08,0,1,0,17.17,17A17.22,17.22,0,0,0,301.26,265.77Zm.08,22.77a5.71,5.71,0,0,1-5.67-5.79,5.77,5.77,0,0,1,5.52-5.59,5.69,5.69,0,1,1,.15,11.38Zm-.08-22.77a17.08,17.08,0,1,0,17.17,17A17.22,17.22,0,0,0,301.26,265.77Zm.08,22.77a5.71,5.71,0,0,1-5.67-5.79,5.77,5.77,0,0,1,5.52-5.59,5.69,5.69,0,1,1,.15,11.38Zm-.08-22.77a17.08,17.08,0,1,0,17.17,17A17.22,17.22,0,0,0,301.26,265.77Zm.08,22.77a5.71,5.71,0,0,1-5.67-5.79,5.77,5.77,0,0,1,5.52-5.59,5.69,5.69,0,1,1,.15,11.38Zm-.08-22.77a17.08,17.08,0,1,0,17.17,17A17.22,17.22,0,0,0,301.26,265.77Zm.08,22.77a5.71,5.71,0,0,1-5.67-5.79,5.77,5.77,0,0,1,5.52-5.59,5.69,5.69,0,1,1,.15,11.38Zm-.08-22.77a17.08,17.08,0,1,0,17.17,17A17.22,17.22,0,0,0,301.26,265.77Zm.08,22.77a5.71,5.71,0,0,1-5.67-5.79,5.77,5.77,0,0,1,5.52-5.59,5.69,5.69,0,1,1,.15,11.38Zm-.08-22.77a17.08,17.08,0,1,0,17.17,17A17.22,17.22,0,0,0,301.26,265.77Zm.08,22.77a5.71,5.71,0,0,1-5.67-5.79,5.77,5.77,0,0,1,5.52-5.59,5.69,5.69,0,1,1,.15,11.38Zm-.08-22.77a17.08,17.08,0,1,0,17.17,17A17.22,17.22,0,0,0,301.26,265.77Zm.08,22.77a5.71,5.71,0,0,1-5.67-5.79,5.77,5.77,0,0,1,5.52-5.59,5.69,5.69,0,1,1,.15,11.38Zm-.09-79.82c-40.43,0-74,33.45-74,73.86A74.43,74.43,0,0,0,301.46,357c40.37.06,74-33.49,74-73.86A74.42,74.42,0,0,0,301.25,208.72Zm45.21,95.06c-15.77,5.89-24.18,17.92-26.84,34.11-.67,4.09-2.06,5.86-6.24,6.57A73.8,73.8,0,0,1,289,344.4c-4-.65-5.28-2.42-5.81-6.13-1.57-11.11-6.3-20.65-15.12-27.87A42.47,42.47,0,0,0,245.73,301c-3.7-.44-5.14-1.94-5.87-5.62a61.5,61.5,0,0,1,3.28-35.57,8.92,8.92,0,0,1,3.81-4.22c19.24-10.11,39.88-13.49,61.4-12.43,16.54.82,32.39,4.41,47.07,12.26a9.93,9.93,0,0,1,4.28,4.73,60,60,0,0,1,2,39.49C356.37,301.08,351.25,302,346.46,303.78Zm-45.2-38a17.08,17.08,0,1,0,17.17,17A17.22,17.22,0,0,0,301.26,265.77Zm.08,22.77a5.71,5.71,0,0,1-5.67-5.79,5.77,5.77,0,0,1,5.52-5.59,5.69,5.69,0,1,1,.15,11.38Zm-.08-22.77a17.08,17.08,0,1,0,17.17,17A17.22,17.22,0,0,0,301.26,265.77Zm.08,22.77a5.71,5.71,0,0,1-5.67-5.79,5.77,5.77,0,0,1,5.52-5.59,5.69,5.69,0,1,1,.15,11.38Zm-.08-22.77a17.08,17.08,0,1,0,17.17,17A17.22,17.22,0,0,0,301.26,265.77Zm.08,22.77a5.71,5.71,0,0,1-5.67-5.79,5.77,5.77,0,0,1,5.52-5.59,5.69,5.69,0,1,1,.15,11.38Zm-.08-22.77a17.08,17.08,0,1,0,17.17,17A17.22,17.22,0,0,0,301.26,265.77Zm.08,22.77a5.71,5.71,0,0,1-5.67-5.79,5.77,5.77,0,0,1,5.52-5.59,5.69,5.69,0,1,1,.15,11.38Zm-.08-22.77a17.08,17.08,0,1,0,17.17,17A17.22,17.22,0,0,0,301.26,265.77Zm.08,22.77a5.71,5.71,0,0,1-5.67-5.79,5.77,5.77,0,0,1,5.52-5.59,5.69,5.69,0,1,1,.15,11.38Zm-.08-22.77a17.08,17.08,0,1,0,17.17,17A17.22,17.22,0,0,0,301.26,265.77Zm.08,22.77a5.71,5.71,0,0,1-5.67-5.79,5.77,5.77,0,0,1,5.52-5.59,5.69,5.69,0,1,1,.15,11.38Zm-.08-22.77a17.08,17.08,0,1,0,17.17,17A17.22,17.22,0,0,0,301.26,265.77Zm.08,22.77a5.71,5.71,0,0,1-5.67-5.79,5.77,5.77,0,0,1,5.52-5.59,5.69,5.69,0,1,1,.15,11.38Zm-.08-22.77a17.08,17.08,0,1,0,17.17,17A17.22,17.22,0,0,0,301.26,265.77Zm.08,22.77a5.71,5.71,0,0,1-5.67-5.79,5.77,5.77,0,0,1,5.52-5.59,5.69,5.69,0,1,1,.15,11.38Zm-.08-22.77a17.08,17.08,0,1,0,17.17,17A17.22,17.22,0,0,0,301.26,265.77Zm.08,22.77a5.71,5.71,0,0,1-5.67-5.79,5.77,5.77,0,0,1,5.52-5.59,5.69,5.69,0,1,1,.15,11.38Zm-.08-22.77a17.08,17.08,0,1,0,17.17,17A17.22,17.22,0,0,0,301.26,265.77Zm.08,22.77a5.71,5.71,0,0,1-5.67-5.79,5.77,5.77,0,0,1,5.52-5.59,5.69,5.69,0,1,1,.15,11.38Zm-.08-22.77a17.08,17.08,0,1,0,17.17,17A17.22,17.22,0,0,0,301.26,265.77Zm.08,22.77a5.71,5.71,0,0,1-5.67-5.79,5.77,5.77,0,0,1,5.52-5.59,5.69,5.69,0,1,1,.15,11.38Zm-.08-22.77a17.08,17.08,0,1,0,17.17,17A17.22,17.22,0,0,0,301.26,265.77Zm.08,22.77a5.71,5.71,0,0,1-5.67-5.79,5.77,5.77,0,0,1,5.52-5.59,5.69,5.69,0,1,1,.15,11.38Zm-.08-22.77a17.08,17.08,0,1,0,17.17,17A17.22,17.22,0,0,0,301.26,265.77Zm.08,22.77a5.71,5.71,0,0,1-5.67-5.79,5.77,5.77,0,0,1,5.52-5.59,5.69,5.69,0,1,1,.15,11.38Zm-.08-22.77a17.08,17.08,0,1,0,17.17,17A17.22,17.22,0,0,0,301.26,265.77Zm.08,22.77a5.71,5.71,0,0,1-5.67-5.79,5.77,5.77,0,0,1,5.52-5.59,5.69,5.69,0,1,1,.15,11.38Zm-.08-22.77a17.08,17.08,0,1,0,17.17,17A17.22,17.22,0,0,0,301.26,265.77Zm.08,22.77a5.71,5.71,0,0,1-5.67-5.79,5.77,5.77,0,0,1,5.52-5.59,5.69,5.69,0,1,1,.15,11.38Zm-.09-79.82c-40.43,0-74,33.45-74,73.86A74.43,74.43,0,0,0,301.46,357c40.37.06,74-33.49,74-73.86A74.42,74.42,0,0,0,301.25,208.72Zm45.21,95.06c-15.77,5.89-24.18,17.92-26.84,34.11-.67,4.09-2.06,5.86-6.24,6.57A73.8,73.8,0,0,1,289,344.4c-4-.65-5.28-2.42-5.81-6.13-1.57-11.11-6.3-20.65-15.12-27.87A42.47,42.47,0,0,0,245.73,301c-3.7-.44-5.14-1.94-5.87-5.62a61.5,61.5,0,0,1,3.28-35.57,8.92,8.92,0,0,1,3.81-4.22c19.24-10.11,39.88-13.49,61.4-12.43,16.54.82,32.39,4.41,47.07,12.26a9.93,9.93,0,0,1,4.28,4.73,60,60,0,0,1,2,39.49C356.37,301.08,351.25,302,346.46,303.78Zm-45.2-38a17.08,17.08,0,1,0,17.17,17A17.22,17.22,0,0,0,301.26,265.77Zm.08,22.77a5.71,5.71,0,0,1-5.67-5.79,5.77,5.77,0,0,1,5.52-5.59,5.69,5.69,0,1,1,.15,11.38Zm-.08-22.77a17.08,17.08,0,1,0,17.17,17A17.22,17.22,0,0,0,301.26,265.77Zm.08,22.77a5.71,5.71,0,0,1-5.67-5.79,5.77,5.77,0,0,1,5.52-5.59,5.69,5.69,0,1,1,.15,11.38Zm-.08-22.77a17.08,17.08,0,1,0,17.17,17A17.22,17.22,0,0,0,301.26,265.77Zm.08,22.77a5.71,5.71,0,0,1-5.67-5.79,5.77,5.77,0,0,1,5.52-5.59,5.69,5.69,0,1,1,.15,11.38Zm-.08-22.77a17.08,17.08,0,1,0,17.17,17A17.22,17.22,0,0,0,301.26,265.77Zm.08,22.77a5.71,5.71,0,0,1-5.67-5.79,5.77,5.77,0,0,1,5.52-5.59,5.69,5.69,0,1,1,.15,11.38Zm-.08-22.77a17.08,17.08,0,1,0,17.17,17A17.22,17.22,0,0,0,301.26,265.77Zm.08,22.77a5.71,5.71,0,0,1-5.67-5.79,5.77,5.77,0,0,1,5.52-5.59,5.69,5.69,0,1,1,.15,11.38Zm-.08-22.77a17.08,17.08,0,1,0,17.17,17A17.22,17.22,0,0,0,301.26,265.77Zm.08,22.77a5.71,5.71,0,0,1-5.67-5.79,5.77,5.77,0,0,1,5.52-5.59,5.69,5.69,0,1,1,.15,11.38Zm-.08-22.77a17.08,17.08,0,1,0,17.17,17A17.22,17.22,0,0,0,301.26,265.77Zm.08,22.77a5.71,5.71,0,0,1-5.67-5.79,5.77,5.77,0,0,1,5.52-5.59,5.69,5.69,0,1,1,.15,11.38Zm-.08-22.77a17.08,17.08,0,1,0,17.17,17A17.22,17.22,0,0,0,301.26,265.77Zm.08,22.77a5.71,5.71,0,0,1-5.67-5.79,5.77,5.77,0,0,1,5.52-5.59,5.69,5.69,0,1,1,.15,11.38Zm-.08-22.77a17.08,17.08,0,1,0,17.17,17A17.22,17.22,0,0,0,301.26,265.77Zm.08,22.77a5.71,5.71,0,0,1-5.67-5.79,5.77,5.77,0,0,1,5.52-5.59,5.69,5.69,0,1,1,.15,11.38Zm-.08-22.77a17.08,17.08,0,1,0,17.17,17A17.22,17.22,0,0,0,301.26,265.77Zm.08,22.77a5.71,5.71,0,0,1-5.67-5.79,5.77,5.77,0,0,1,5.52-5.59,5.69,5.69,0,1,1,.15,11.38Zm-.08-22.77a17.08,17.08,0,1,0,17.17,17A17.22,17.22,0,0,0,301.26,265.77Zm.08,22.77a5.71,5.71,0,0,1-5.67-5.79,5.77,5.77,0,0,1,5.52-5.59,5.69,5.69,0,1,1,.15,11.38Zm-.08-22.77a17.08,17.08,0,1,0,17.17,17A17.22,17.22,0,0,0,301.26,265.77Zm.08,22.77a5.71,5.71,0,0,1-5.67-5.79,5.77,5.77,0,0,1,5.52-5.59,5.69,5.69,0,1,1,.15,11.38Zm-.08-22.77a17.08,17.08,0,1,0,17.17,17A17.22,17.22,0,0,0,301.26,265.77Zm.08,22.77a5.71,5.71,0,0,1-5.67-5.79,5.77,5.77,0,0,1,5.52-5.59,5.69,5.69,0,1,1,.15,11.38Zm-.08-22.77a17.08,17.08,0,1,0,17.17,17A17.22,17.22,0,0,0,301.26,265.77Zm.08,22.77a5.71,5.71,0,0,1-5.67-5.79,5.77,5.77,0,0,1,5.52-5.59,5.69,5.69,0,1,1,.15,11.38Zm-.08-22.77a17.08,17.08,0,1,0,17.17,17A17.22,17.22,0,0,0,301.26,265.77Zm.08,22.77a5.71,5.71,0,0,1-5.67-5.79,5.77,5.77,0,0,1,5.52-5.59,5.69,5.69,0,1,1,.15,11.38Zm-.08-22.77a17.08,17.08,0,1,0,17.17,17A17.22,17.22,0,0,0,301.26,265.77Zm.08,22.77a5.71,5.71,0,0,1-5.67-5.79,5.77,5.77,0,0,1,5.52-5.59,5.69,5.69,0,1,1,.15,11.38Zm-.08-22.77a17.08,17.08,0,1,0,17.17,17A17.22,17.22,0,0,0,301.26,265.77Zm.08,22.77a5.71,5.71,0,0,1-5.67-5.79,5.77,5.77,0,0,1,5.52-5.59,5.69,5.69,0,1,1,.15,11.38Zm-.08-22.77a17.08,17.08,0,1,0,17.17,17A17.22,17.22,0,0,0,301.26,265.77Zm.08,22.77a5.71,5.71,0,0,1-5.67-5.79,5.77,5.77,0,0,1,5.52-5.59,5.69,5.69,0,1,1,.15,11.38Zm-.08-22.77a17.08,17.08,0,1,0,17.17,17A17.22,17.22,0,0,0,301.26,265.77Zm.08,22.77a5.71,5.71,0,0,1-5.67-5.79,5.77,5.77,0,0,1,5.52-5.59,5.69,5.69,0,1,1,.15,11.38Zm-.09-79.82c-40.43,0-74,33.45-74,73.86A74.43,74.43,0,0,0,301.46,357c40.37.06,74-33.49,74-73.86A74.42,74.42,0,0,0,301.25,208.72Zm45.21,95.06c-15.77,5.89-24.18,17.92-26.84,34.11-.67,4.09-2.06,5.86-6.24,6.57A73.8,73.8,0,0,1,289,344.4c-4-.65-5.28-2.42-5.81-6.13-1.57-11.11-6.3-20.65-15.12-27.87A42.47,42.47,0,0,0,245.73,301c-3.7-.44-5.14-1.94-5.87-5.62a61.5,61.5,0,0,1,3.28-35.57,8.92,8.92,0,0,1,3.81-4.22c19.24-10.11,39.88-13.49,61.4-12.43,16.54.82,32.39,4.41,47.07,12.26a9.93,9.93,0,0,1,4.28,4.73,60,60,0,0,1,2,39.49C356.37,301.08,351.25,302,346.46,303.78Zm-45.2-38a17.08,17.08,0,1,0,17.17,17A17.22,17.22,0,0,0,301.26,265.77Zm.08,22.77a5.71,5.71,0,0,1-5.67-5.79,5.77,5.77,0,0,1,5.52-5.59,5.69,5.69,0,1,1,.15,11.38Zm-.08-22.77a17.08,17.08,0,1,0,17.17,17A17.22,17.22,0,0,0,301.26,265.77Zm.08,22.77a5.71,5.71,0,0,1-5.67-5.79,5.77,5.77,0,0,1,5.52-5.59,5.69,5.69,0,1,1,.15,11.38Zm-.08-22.77a17.08,17.08,0,1,0,17.17,17A17.22,17.22,0,0,0,301.26,265.77Zm.08,22.77a5.71,5.71,0,0,1-5.67-5.79,5.77,5.77,0,0,1,5.52-5.59,5.69,5.69,0,1,1,.15,11.38Zm-.08-22.77a17.08,17.08,0,1,0,17.17,17A17.22,17.22,0,0,0,301.26,265.77Zm.08,22.77a5.71,5.71,0,0,1-5.67-5.79,5.77,5.77,0,0,1,5.52-5.59,5.69,5.69,0,1,1,.15,11.38Zm-.08-22.77a17.08,17.08,0,1,0,17.17,17A17.22,17.22,0,0,0,301.26,265.77Zm.08,22.77a5.71,5.71,0,0,1-5.67-5.79,5.77,5.77,0,0,1,5.52-5.59,5.69,5.69,0,1,1,.15,11.38Zm-.08-22.77a17.08,17.08,0,1,0,17.17,17A17.22,17.22,0,0,0,301.26,265.77Zm.08,22.77a5.71,5.71,0,0,1-5.67-5.79,5.77,5.77,0,0,1,5.52-5.59,5.69,5.69,0,1,1,.15,11.38Zm-.08-22.77a17.08,17.08,0,1,0,17.17,17A17.22,17.22,0,0,0,301.26,265.77Zm.08,22.77a5.71,5.71,0,0,1-5.67-5.79,5.77,5.77,0,0,1,5.52-5.59,5.69,5.69,0,1,1,.15,11.38Zm-.08-22.77a17.08,17.08,0,1,0,17.17,17A17.22,17.22,0,0,0,301.26,265.77Zm.08,22.77a5.71,5.71,0,0,1-5.67-5.79,5.77,5.77,0,0,1,5.52-5.59,5.69,5.69,0,1,1,.15,11.38Zm-.08-22.77a17.08,17.08,0,1,0,17.17,17A17.22,17.22,0,0,0,301.26,265.77Zm.08,22.77a5.71,5.71,0,0,1-5.67-5.79,5.77,5.77,0,0,1,5.52-5.59,5.69,5.69,0,1,1,.15,11.38Zm-.08-22.77a17.08,17.08,0,1,0,17.17,17A17.22,17.22,0,0,0,301.26,265.77Zm.08,22.77a5.71,5.71,0,0,1-5.67-5.79,5.77,5.77,0,0,1,5.52-5.59,5.69,5.69,0,1,1,.15,11.38Zm-.08-22.77a17.08,17.08,0,1,0,17.17,17A17.22,17.22,0,0,0,301.26,265.77Zm.08,22.77a5.71,5.71,0,0,1-5.67-5.79,5.77,5.77,0,0,1,5.52-5.59,5.69,5.69,0,1,1,.15,11.38Zm-.08-22.77a17.08,17.08,0,1,0,17.17,17A17.22,17.22,0,0,0,301.26,265.77Zm.08,22.77a5.71,5.71,0,0,1-5.67-5.79,5.77,5.77,0,0,1,5.52-5.59,5.69,5.69,0,1,1,.15,11.38Zm-.08-22.77a17.08,17.08,0,1,0,17.17,17A17.22,17.22,0,0,0,301.26,265.77Zm.08,22.77a5.71,5.71,0,0,1-5.67-5.79,5.77,5.77,0,0,1,5.52-5.59,5.69,5.69,0,1,1,.15,11.38Zm-.08-22.77a17.08,17.08,0,1,0,17.17,17A17.22,17.22,0,0,0,301.26,265.77Zm.08,22.77a5.71,5.71,0,0,1-5.67-5.79,5.77,5.77,0,0,1,5.52-5.59,5.69,5.69,0,1,1,.15,11.38Zm-.08-22.77a17.08,17.08,0,1,0,17.17,17A17.22,17.22,0,0,0,301.26,265.77Zm.08,22.77a5.71,5.71,0,0,1-5.67-5.79,5.77,5.77,0,0,1,5.52-5.59,5.69,5.69,0,1,1,.15,11.38Zm-.08-22.77a17.08,17.08,0,1,0,17.17,17A17.22,17.22,0,0,0,301.26,265.77Zm.08,22.77a5.71,5.71,0,0,1-5.67-5.79,5.77,5.77,0,0,1,5.52-5.59,5.69,5.69,0,1,1,.15,11.38Zm-.08-22.77a17.08,17.08,0,1,0,17.17,17A17.22,17.22,0,0,0,301.26,265.77Zm.08,22.77a5.71,5.71,0,0,1-5.67-5.79,5.77,5.77,0,0,1,5.52-5.59,5.69,5.69,0,1,1,.15,11.38Zm-.08-22.77a17.08,17.08,0,1,0,17.17,17A17.22,17.22,0,0,0,301.26,265.77Zm.08,22.77a5.71,5.71,0,0,1-5.67-5.79,5.77,5.77,0,0,1,5.52-5.59,5.69,5.69,0,1,1,.15,11.38Zm-.08-22.77a17.08,17.08,0,1,0,17.17,17A17.22,17.22,0,0,0,301.26,265.77Zm.08,22.77a5.71,5.71,0,0,1-5.67-5.79,5.77,5.77,0,0,1,5.52-5.59,5.69,5.69,0,1,1,.15,11.38Zm-.09-79.82c-40.43,0-74,33.45-74,73.86A74.43,74.43,0,0,0,301.46,357c40.37.06,74-33.49,74-73.86A74.42,74.42,0,0,0,301.25,208.72Zm45.21,95.06c-15.77,5.89-24.18,17.92-26.84,34.11-.67,4.09-2.06,5.86-6.24,6.57A73.8,73.8,0,0,1,289,344.4c-4-.65-5.28-2.42-5.81-6.13-1.57-11.11-6.3-20.65-15.12-27.87A42.47,42.47,0,0,0,245.73,301c-3.7-.44-5.14-1.94-5.87-5.62a61.5,61.5,0,0,1,3.28-35.57,8.92,8.92,0,0,1,3.81-4.22c19.24-10.11,39.88-13.49,61.4-12.43,16.54.82,32.39,4.41,47.07,12.26a9.93,9.93,0,0,1,4.28,4.73,60,60,0,0,1,2,39.49C356.37,301.08,351.25,302,346.46,303.78Zm-45.2-38a17.08,17.08,0,1,0,17.17,17A17.22,17.22,0,0,0,301.26,265.77Zm.08,22.77a5.71,5.71,0,0,1-5.67-5.79,5.77,5.77,0,0,1,5.52-5.59,5.69,5.69,0,1,1,.15,11.38Zm-.08-22.77a17.08,17.08,0,1,0,17.17,17A17.22,17.22,0,0,0,301.26,265.77Zm.08,22.77a5.71,5.71,0,0,1-5.67-5.79,5.77,5.77,0,0,1,5.52-5.59,5.69,5.69,0,1,1,.15,11.38Zm-.08-22.77a17.08,17.08,0,1,0,17.17,17A17.22,17.22,0,0,0,301.26,265.77Zm.08,22.77a5.71,5.71,0,0,1-5.67-5.79,5.77,5.77,0,0,1,5.52-5.59,5.69,5.69,0,1,1,.15,11.38Zm-.08-22.77a17.08,17.08,0,1,0,17.17,17A17.22,17.22,0,0,0,301.26,265.77Zm.08,22.77a5.71,5.71,0,0,1-5.67-5.79,5.77,5.77,0,0,1,5.52-5.59,5.69,5.69,0,1,1,.15,11.38Zm-.08-22.77a17.08,17.08,0,1,0,17.17,17A17.22,17.22,0,0,0,301.26,265.77Zm.08,22.77a5.71,5.71,0,0,1-5.67-5.79,5.77,5.77,0,0,1,5.52-5.59,5.69,5.69,0,1,1,.15,11.38Zm-.08-22.77a17.08,17.08,0,1,0,17.17,17A17.22,17.22,0,0,0,301.26,265.77Zm.08,22.77a5.71,5.71,0,0,1-5.67-5.79,5.77,5.77,0,0,1,5.52-5.59,5.69,5.69,0,1,1,.15,11.38Zm-.08-22.77a17.08,17.08,0,1,0,17.17,17A17.22,17.22,0,0,0,301.26,265.77Zm.08,22.77a5.71,5.71,0,0,1-5.67-5.79,5.77,5.77,0,0,1,5.52-5.59,5.69,5.69,0,1,1,.15,11.38Zm-.08-22.77a17.08,17.08,0,1,0,17.17,17A17.22,17.22,0,0,0,301.26,265.77Zm.08,22.77a5.71,5.71,0,0,1-5.67-5.79,5.77,5.77,0,0,1,5.52-5.59,5.69,5.69,0,1,1,.15,11.38Zm-.08-22.77a17.08,17.08,0,1,0,17.17,17A17.22,17.22,0,0,0,301.26,265.77Zm.08,22.77a5.71,5.71,0,0,1-5.67-5.79,5.77,5.77,0,0,1,5.52-5.59,5.69,5.69,0,1,1,.15,11.38Zm-.08-22.77a17.08,17.08,0,1,0,17.17,17A17.22,17.22,0,0,0,301.26,265.77Zm.08,22.77a5.71,5.71,0,0,1-5.67-5.79,5.77,5.77,0,0,1,5.52-5.59,5.69,5.69,0,1,1,.15,11.38Zm-.08-22.77a17.08,17.08,0,1,0,17.17,17A17.22,17.22,0,0,0,301.26,265.77Zm.08,22.77a5.71,5.71,0,0,1-5.67-5.79,5.77,5.77,0,0,1,5.52-5.59,5.69,5.69,0,1,1,.15,11.38Z"/></g></g></svg>