<svg xmlns="http://www.w3.org/2000/svg" viewBox="0 0 84.81 84.79">
<defs>
<style>
.cls-1{fill:#ffa703;}
.cls-2{fill:#fff;}
</style>
</defs>
<title>
Asset 1
</title>
<g id="Layer_2" data-name="Layer 2">
<g id="Layer_1-2" data-name="Layer 1">
<rect class="cls-1" x="24.64" y="14.82" width="57.58" height="67.7"/>
<polygon class="cls-1" points="2.03 68.98 1.56 61.57 2.03 58.03 5.21 56.44 7.45 55.13 8.03 53.21 7.45 50.88 8.03 47.08 11.8 44.73 16.63 45.21 17.34 47.55 17.81 51.03 17.1 52.97 18.75 54.5 22.52 56.44 24.16 59.21 25.11 60.04 26.52 61.57 25.11 66.16 22.4 65.09 19.81 63.22 18.75 64.04 18.04 83.23 6.97 83.23 7.33 68.04 5.33 68.87 2.03 68.98"/>
<g id="Layer_2-2" data-name="Layer 2">
<polygon class="cls-1" points="36.65 16.42 36.65 12.79 37.67 10.67 41.42 10.67 43.79 9.79 43.79 7.06 44.75 2.42 49.29 2.42 55.79 1.54 63.42 2.67 63.42 7.67 64.92 10.17 69.54 11.04 70.42 12.92 69.04 14.67 39.63 14.82 36.65 16.42"/>
</g>
<path class="cls-2" d="M18.81,53.51l3.85,1V19.94a6.93,6.93,0,0,1,7.23-7.2h5.37c.58-4.32,3.71-4.45,7.18-4.22,0-1.55,0-2.95,0-4.34A4.09,4.09,0,0,1,46.57,0Q53.72,0,60.87,0A4.07,4.07,0,0,1,65,4.16c0,1.35,0,2.7,0,4.32,3.29-.15,6.58-.16,7.19,4.26,1.95,0,3.83,0,5.7,0a6.9,6.9,0,0,1,6.87,6.85q0,29.14,0,58.28a6.88,6.88,0,0,1-6.84,6.91H77.8q-24.1,0-48.21,0a6.9,6.9,0,0,1-6.94-6.86s0-.06,0-.09a41.87,41.87,0,0,1,0-6.52c.38-2.62-.92-4.18-2.89-5.84V76.87c0,2,0,4,0,6,0,1.34-.53,1.93-1.89,1.91-3.36,0-6.71-.06-10.07,0-1.59,0-2.23-.54-2.2-2.16.07-3.93,0-7.86,0-12-1.36,0-2.58,0-3.79,0S0,70.18,0,68.88c0-2.94-.07-5.89,0-8.83.12-3.32,2.73-5.79,6.36-6.42a32.22,32.22,0,0,1-.62-5.42A6.06,6.06,0,0,1,8.72,43.6a7.11,7.11,0,0,1,8.4.26C19.92,46.05,20.42,49,18.81,53.51Zm16.32-38H30.76c-3.73,0-5.27,1.55-5.28,5.26q0,17.16,0,34.33v1.15a4,4,0,0,0,.79,2c1.06,1.64,3,1.77,4.62,2.26,1.41.42,1.91,1.22,1.5,2.64s-.69,2.73-1,4.09c-.52,2-.93,2.22-3,1.77-.9-.19-1.82-.33-2.88-.52v8.24c0,3.55,1.63,5.19,5.16,5.19H76.89c3.45,0,5.11-1.64,5.11-5.06V20.4c0-2.86-1.61-4.73-4.24-4.85-1.82-.08-3.64,0-5.43,0-1,3.44-2.05,4.24-5.54,4.24l-25.95,0C37.28,19.81,36.2,19,35.13,15.55ZM17,81.88v-2c0-6.18,0-12.36,0-18.54A2.24,2.24,0,0,1,18,59.52c.47-.16,1.41.35,1.86.82,1.06,1.18,1.9,2.54,2.91,3.77a3.26,3.26,0,0,0,1.48,1.1c1.41.38,2.85.57,4.37.84l.81-3.1c-3.62,0-5.22-2.86-7.45-4.89a5.65,5.65,0,0,0-3.24-1.47c-3.89-.18-7.77-.11-11.66-.05A4,4,0,0,0,3,60.18c-.19,2.5,0,5,0,7.53H5.79V60.88H8.57v21h2.79V69.38h2.83v12.5ZM69.12,12.65l.2-.44a6.27,6.27,0,0,0-1.78-.86,19.16,19.16,0,0,0-3.35,0c-1.45.07-2-.6-2-2s0-2.94,0-4.41-.55-2.09-2-2.08q-6.53,0-13.07,0c-1.31,0-1.95.61-1.92,1.94,0,1.53,0,3.06,0,4.59s-.59,2-2,2a17.31,17.31,0,0,0-3.18,0,7.46,7.46,0,0,0-1.93.85l.19.45ZM17,49.55a4.36,4.36,0,0,0-4.24-4.32,4.23,4.23,0,1,0,0,8.47A4.38,4.38,0,0,0,17,49.55ZM38.46,15.64l-.27.47a5.85,5.85,0,0,0,2,.82q13.58.07,27.17,0a5.68,5.68,0,0,0,1.94-.81l-.19-.47Z"/>
<path class="cls-2" d="M7.09,56.55c3.89-.06,7.77-.12,11.66.05A5.66,5.66,0,0,1,22,58.07c.18.17.36.34.54.52v-4.1l-3.71-1c1.6-4.54,1.11-7.45-1.7-9.65a7.12,7.12,0,0,0-8.4-.26,6.06,6.06,0,0,0-2.92,4.62,32.22,32.22,0,0,0,.62,5.42c-3.62.63-6.23,3.1-6.36,6.42C-.05,63,0,65.94,0,68.88c0,1.3.65,1.79,1.87,1.77s2.43,0,3.79,0c0,4.12,0,8.05,0,12,0,1.62.61,2.19,2.2,2.16,3.36-.06,6.71,0,10.07,0,1.36,0,1.92-.58,1.89-1.91,0-2,0-4,0-6V65.46a8.07,8.07,0,0,1,2.71,3.42V63.81c-.9-1.14-1.69-2.39-2.67-3.47-.45-.47-1.38-1-1.86-.82a2.24,2.24,0,0,0-.94,1.79c-.07,6.17,0,12.36,0,18.54v2H14.19V69.38H11.37V81.89H8.57v-21H5.79v6.83H2.92c0-2.51-.14-5,0-7.53A4,4,0,0,1,7.09,56.55Zm5.68-11.31a4.23,4.23,0,1,1,0,8.47,4.23,4.23,0,1,1,0-8.47Z"/>
<path class="cls-2" d="M79.09,35.27H42.55V32.6H79.09Z"/>
<path class="cls-2" d="M79.1,53.82v2.62H42.52V53.82Z"/>
<path class="cls-2" d="M79.05,77.65H42.54V75H79.05Z"/>
<path class="cls-2" d="M33.82,35.34H29.93a1.44,1.44,0,0,1-1.64-1.6v-8.1A1.43,1.43,0,0,1,29.93,24H38c1.09,0,1.58.61,1.57,1.67,0,2.64,0,5.28,0,7.92a1.49,1.49,0,0,1-1.73,1.7h-4Zm2.86-2.91V27H31.26v5.46Z"/>
<path class="cls-2" d="M39.61,50.89c0,1.23,0,2.47,0,3.7s-.45,2-1.83,2q-3.87-.05-7.75,0c-1.17,0-1.73-.51-1.73-1.69V46.91c0-1.17.6-1.7,1.77-1.7,2.58,0,5.17,0,7.75,0,1.25,0,1.85.51,1.81,1.79s0,2.58,0,3.89Zm-2.9-2.72H31.28v5.44h5.44Z"/>
<path class="cls-2" d="M42.69,65.09l2.06,2.37c-.65.67-1.34,1.41-2.07,2.15-2.45,2.47-4.92,4.9-7.35,7.36a1.65,1.65,0,0,1-2.71,0c-1.28-1.28-2.63-2.5-4.06-3.85l2.25-2.26,2.88,3.64Z"/>
<path class="cls-2" d="M52.43,5.75H55V8.37H52.42Z"/>
</g>
</g>
</svg>
