<svg xmlns="http://www.w3.org/2000/svg" viewBox="0 0 21.69 29.44"><defs><style>.cls-1,.cls-3{fill:#fab018;}.cls-2{fill:none;}.cls-3{stroke:#fff;stroke-miterlimit:10;stroke-width:0.15px;}.cls-4{fill:#fff;}</style></defs><title>Asset 86</title><g id="Layer_2" data-name="Layer 2"><g id="Layer_1-2" data-name="Layer 1"><path class="cls-1" d="M20.74,23.71c-1.52-2.42-3.08-4.82-4.64-7.24a2.43,2.43,0,0,0-.23-.32l-.22.37a8.42,8.42,0,0,1,.74,1.08c1.31,2.16,2.72,4.27,4.06,6.4a2.23,2.23,0,0,1-.1,2.7,2.31,2.31,0,0,1-2.47.86,3.57,3.57,0,0,1-.78-.37,2.44,2.44,0,0,1-.62-.65c-1.62-2.49-3.24-5-4.79-7.5,0,0,0,0,0,0a2.56,2.56,0,0,1-.39,0,.58.58,0,0,0,0,.12c1.62,2.58,3.26,5.14,4.92,7.7A2.57,2.57,0,0,0,18.72,28,2.72,2.72,0,0,0,20.74,23.71ZM6.28,4.52A.87.87,0,0,1,6.11,4a2.7,2.7,0,0,0-1.4-2.52c-.22-.14-.4-.33-.6-.46C3.16.24,3.54.25,2.4.95a.42.42,0,0,0-.24.6c.23.76.47,1.5.64,2.27a1.58,1.58,0,0,0,.71,1A4.14,4.14,0,0,1,4.78,5.87c.82,1.25,1.65,2.52,2.46,3.78A5.17,5.17,0,0,1,8.89,8.57ZM6.7,6.91c-.1,0-.16.06-.19,0a.65.65,0,0,1-.25-.3C5.13,4.87,4,3.12,2.87,1.34A.66.66,0,0,1,2.82,1,.12.12,0,0,1,3,1c.06.06.16.09.18.16C4.32,2.9,5.45,4.69,6.58,6.46l.18.29A.12.12,0,0,1,6.7,6.91Z"/><path class="cls-1" d="M21.23,24.68c-1.48-2.36-3-4.69-4.49-7.08a9.32,9.32,0,0,0-.82-1.19,6.15,6.15,0,0,1-4.41,2.75s0,0,0,0c1.72,2.79,3.51,5.54,5.3,8.3a2.7,2.7,0,0,0,.69.72,4,4,0,0,0,.86.41,2.55,2.55,0,0,0,2.74-1A2.46,2.46,0,0,0,21.23,24.68Zm-3.55,1.11a.17.17,0,0,1,0-.08h0s0,0,0,0a41.81,41.81,0,0,1-4-6.44,0,0,0,0,1,0,0v-.08a36.56,36.56,0,0,1,4.25,6.76S17.75,25.82,17.68,25.78Zm1.72-1,0,0a3,3,0,0,1-.19-.28c-1.25-2-2.53-3.91-3.75-5.87-.11-.11-.06-.32-.1-.45h0V18a2.07,2.07,0,0,1,.42.33c1.25,1.93,2.53,3.94,3.78,5.9a3.65,3.65,0,0,1,.23.43C19.6,24.71,19.47,24.77,19.39,24.74Z"/><path class="cls-2" d="M15,17.93a1.53,1.53,0,0,1,.37.3q1.72,2.66,3.43,5.34c.07.1.12.21.23.39-.14,0-.26.1-.32.06a.84.84,0,0,1-.23-.29C17.29,22,16.16,20.19,15,18.42A1.36,1.36,0,0,1,15,17.93Z"/><path class="cls-2" d="M13.38,18.94a32.42,32.42,0,0,1,3.84,6.12A32.91,32.91,0,0,1,13.38,18.94Z"/><path class="cls-1" d="M1.87,23.79a1.28,1.28,0,0,0-.14.3,1,1,0,0,1,0-.15Z"/><path class="cls-1" d="M21.62,5.85v.07a5.7,5.7,0,0,1-.07.6.22.22,0,0,1,0,.08,4,4,0,0,1-.11.5,4.46,4.46,0,0,1-.17.51A3.85,3.85,0,0,1,20.1,9.1l-.3.22a4.25,4.25,0,0,1-.81.44l-.36.15-.08,0a5.89,5.89,0,0,1-.65.17l-.46.09-.37,0H17a5.89,5.89,0,0,1-.66,0l-.37.6v0l-.05.08a5.36,5.36,0,0,0-2-2.1,5.46,5.46,0,0,0-2.26-.75l0,0h0L12,7.58A11,11,0,0,1,11.61,6a4.38,4.38,0,0,1-.06-.59.34.34,0,0,1,0-.14q0-.31,0-.6a3.68,3.68,0,0,1,0-.47c0-.12,0-.24,0-.35s0-.26.08-.38a2.26,2.26,0,0,1,.1-.35,2.33,2.33,0,0,1,.09-.24l.1-.23a4,4,0,0,1,.84-1.14A.94.94,0,0,1,13,1.38a3.67,3.67,0,0,1,.61-.44l.17-.11c.16-.09.32-.17.48-.24A8.2,8.2,0,0,1,17.32,0a.17.17,0,0,1,.14.25L16,2.6v0l0,0-.27.42L15,4.2l1.13.71,0,0,.94.58h0l1.18.74L19,5.1v0l1.69-2.72a.17.17,0,0,1,.3,0A9.94,9.94,0,0,1,21.62,5.85Z"/><path class="cls-3" d="M9.32,20.94l-2.74,4.4-.56.9L4.91,28l-.09.16a2.46,2.46,0,0,1-.4.5,2.51,2.51,0,0,1-1.52.68A2.45,2.45,0,0,1,1.33,29a2.35,2.35,0,0,1-.72-.68s0,0,0,0a2.07,2.07,0,0,1-.37-.6,2.55,2.55,0,0,1-.14-1.18c0-.11,0-.21,0-.29s0-.13,0-.18,0,0,0-.07a1.28,1.28,0,0,1,.14-.3l4.55-7.31a5.77,5.77,0,0,0,1.26,1.4l.92.59A5.8,5.8,0,0,0,9.32,20.94Z"/><path class="cls-3" d="M21.62,5.85v.07a5.7,5.7,0,0,1-.07.6.22.22,0,0,1,0,.08,4,4,0,0,1-.11.5,4.46,4.46,0,0,1-.17.51A3.85,3.85,0,0,1,20.1,9.1l-.3.22a4.25,4.25,0,0,1-.81.44l-.36.15-.08,0a5.89,5.89,0,0,1-.65.17l-.46.09-.37,0H17a1.38,1.38,0,0,0-1,.63v0l-.05.08a5.36,5.36,0,0,0-2-2.1,5.46,5.46,0,0,0-2.26-.75l0,0h0A1.35,1.35,0,0,0,11.81,7c0-.07,0-.14,0-.21-.06-.28-.12-.55-.15-.81a4.38,4.38,0,0,1-.06-.59.34.34,0,0,1,0-.14q0-.31,0-.6a3.68,3.68,0,0,1,0-.47c0-.12,0-.24,0-.35s0-.26.08-.38a2.26,2.26,0,0,1,.1-.35,2.33,2.33,0,0,1,.09-.24l.1-.23a4,4,0,0,1,.84-1.14A.94.94,0,0,1,13,1.38a3.67,3.67,0,0,1,.61-.44l.17-.11c.16-.09.32-.17.48-.24A1.4,1.4,0,0,1,16,2.6v0l0,0L15.73,3l0,.07a1.42,1.42,0,0,0,.44,1.83l0,0,.94.58h0A1.4,1.4,0,0,0,19,5.1v0A1.39,1.39,0,0,1,21.62,5.85Z"/><circle class="cls-3" cx="11.12" cy="13.58" r="5.5" transform="translate(-2.75 24.33) rotate(-88.47)"/><path class="cls-4" d="M11,17c-.45,0-.45,0-.44-.46s0-.35-.34-.45-.55-.18-.83-.28a.23.23,0,0,1-.14-.31c.06-.2.12-.4.19-.6s.11-.18.26-.1a3.15,3.15,0,0,0,1,.33,1.16,1.16,0,0,0,.64-.07.49.49,0,0,0,.14-.87A2.32,2.32,0,0,0,11,14c-.29-.15-.59-.27-.87-.43a1.46,1.46,0,0,1-.76-.92,1.48,1.48,0,0,1,.87-1.74l.35-.13a.2.2,0,0,0,.15-.21c0-.15,0-.31,0-.46A.18.18,0,0,1,11,9.89h.46c.17,0,.21.06.21.23s0,.25,0,.38a.18.18,0,0,0,.16.19c.25.06.5.13.75.22s.27.16.19.4-.1.32-.16.48-.12.21-.3.12a2.21,2.21,0,0,0-1.15-.24.8.8,0,0,0-.24,0,.41.41,0,0,0-.12.73,3.16,3.16,0,0,0,.53.31c.26.13.53.24.77.38a1.57,1.57,0,0,1,.84,1.63,1.61,1.61,0,0,1-1.2,1.31c-.22.06-.26.11-.26.34s0,.25,0,.38-.08.24-.25.24Z"/><rect class="cls-1" x="5.87" y="16.42" width="1.99" height="6.85" transform="translate(11.39 -0.66) rotate(31.53)"/></g></g></svg>