<svg xmlns="http://www.w3.org/2000/svg" width="30" height="30.001" viewBox="0 0 30 30.001">
  <g id="ps_list" data-name="ps list" transform="translate(-15.995 -395.995)">
    <path id="Subtraction_28" data-name="Subtraction 28" d="M-6705.005-6422a14.9,14.9,0,0,1-10.606-4.395,14.9,14.9,0,0,1-4.394-10.606,14.9,14.9,0,0,1,4.394-10.606,14.9,14.9,0,0,1,10.606-4.394,14.9,14.9,0,0,1,10.606,4.394,14.9,14.9,0,0,1,4.394,10.606,14.9,14.9,0,0,1-4.394,10.606A14.9,14.9,0,0,1-6705.005-6422Zm-2.421-22.854a.422.422,0,0,0-.254.083,5.541,5.541,0,0,0-2.265,5.058,5.539,5.539,0,0,0,3.255,4.482l-.31,5.5a11.329,11.329,0,0,0,2.645.312,11.316,11.316,0,0,0,2.474-.273l-.312-5.537a5.539,5.539,0,0,0,3.255-4.482,5.538,5.538,0,0,0-2.265-5.056.422.422,0,0,0-.255-.086.428.428,0,0,0-.191.045.422.422,0,0,0-.236.379v4.667a.857.857,0,0,1-.319.666l-1.7,1.366a.855.855,0,0,1-.534.188.851.851,0,0,1-.533-.188l-1.7-1.368a.845.845,0,0,1-.317-.665v-4.665a.435.435,0,0,0-.238-.381A.447.447,0,0,0-6707.426-6444.859Z" transform="translate(6736 6848)" fill="#fff"/>
  </g>
</svg>
