<svg xmlns="http://www.w3.org/2000/svg" width="22" height="24" viewBox="0 0 22 24"><defs><style>.a{opacity:0.4;}.b{fill:#1c6fc4;}</style></defs><g class="a" transform="translate(-1)"><path class="b" d="M4,6.75A4.756,4.756,0,0,1,8.75,2h9.133A2.745,2.745,0,0,0,15.25,0H3.75A2.752,2.752,0,0,0,1,2.75v15.5A2.752,2.752,0,0,0,3.75,21H4Z"/><path class="b" d="M20.25,4H8.75A2.752,2.752,0,0,0,6,6.75v14.5A2.752,2.752,0,0,0,8.75,24h11.5A2.752,2.752,0,0,0,23,21.25V6.75A2.752,2.752,0,0,0,20.25,4Zm-2,17h-7.5a.75.75,0,0,1,0-1.5h7.5a.75.75,0,0,1,0,1.5Zm0-4h-7.5a.75.75,0,0,1,0-1.5h7.5a.75.75,0,0,1,0,1.5Zm0-3.5h-7.5a.75.75,0,0,1,0-1.5h7.5a.75.75,0,0,1,0,1.5Zm0-4h-7.5a.75.75,0,0,1,0-1.5h7.5a.75.75,0,0,1,0,1.5Z"/></g></svg>