<svg xmlns="http://www.w3.org/2000/svg" width="24" height="24" viewBox="0 0 24 24"><defs><style>.a{opacity:0.4;}.b{fill:#1c6fc4;}</style></defs><g class="a"><path class="b" d="M12.25,2h-1.1a2.756,2.756,0,0,0-5.3,0H4.75A.755.755,0,0,0,4,2.75v1.5A1.758,1.758,0,0,0,5.75,6h5.5A1.758,1.758,0,0,0,13,4.25V2.75A.755.755,0,0,0,12.25,2Z"/><path class="b" d="M14.25,3H14V4.25A2.748,2.748,0,0,1,11.25,7H5.75A2.748,2.748,0,0,1,3,4.25V3H2.75A2.748,2.748,0,0,0,0,5.75v12.5A2.748,2.748,0,0,0,2.75,21H9.34a8.738,8.738,0,0,1-.83-3.5H3.75a.75.75,0,0,1,0-1.5H8.59a9.152,9.152,0,0,1,.44-1.75H3.75a.75.75,0,0,1,0-1.5h6A8.7,8.7,0,0,1,11.14,11H3.75a.75.75,0,0,1,0-1.5h9.44A8.622,8.622,0,0,1,17,8.51V5.75A2.748,2.748,0,0,0,14.25,3Z"/><path class="b" d="M17.25,10.5A6.75,6.75,0,1,0,24,17.25,6.758,6.758,0,0,0,17.25,10.5ZM20.5,15.909l-3.5,4a1,1,0,0,1-.719.341H16.25a1,1,0,0,1-.707-.293l-2-2a1,1,0,0,1,1.414-1.414L16.2,17.787l2.8-3.2a1,1,0,1,1,1.5,1.318Z"/></g></svg>