<svg xmlns="http://www.w3.org/2000/svg" width="30" height="30" viewBox="0 0 30 30">
  <path id="quotations" d="M15,30A15,15,0,0,1,4.393,4.393,15,15,0,1,1,25.606,25.606,14.9,14.9,0,0,1,15,30ZM10.431,8A.432.432,0,0,0,10,8.431V22.294a.432.432,0,0,0,.431.431h10.1a.432.432,0,0,0,.432-.431V8.431A.432.432,0,0,0,20.526,8Zm8.21,12.084H15.9a.432.432,0,1,1,0-.863h2.74a.432.432,0,0,1,0,.863Zm-5.728-2.2a.435.435,0,0,1-.305-.127l-.617-.617a.431.431,0,0,1,.61-.61l.312.312,1.005-1.005a.431.431,0,0,1,.61.61l-1.31,1.31A.435.435,0,0,1,12.913,17.882Zm5.728-.516H15.9a.431.431,0,1,1,0-.862h2.74a.431.431,0,0,1,0,.862Zm-5.728-2.1a.435.435,0,0,1-.305-.127l-.617-.617a.431.431,0,0,1,.61-.61l.312.312,1.005-1.005a.431.431,0,0,1,.61.61l-1.31,1.31A.435.435,0,0,1,12.913,15.265Zm5.728-.516H15.9a.431.431,0,1,1,0-.862h2.74a.431.431,0,0,1,0,.862Zm-5.728-2.1a.435.435,0,0,1-.305-.127l-.617-.617a.431.431,0,0,1,.61-.61l.312.312L13.918,10.6a.431.431,0,0,1,.61.61l-1.31,1.31A.435.435,0,0,1,12.913,12.648Zm5.728-.516H15.9a.431.431,0,1,1,0-.862h2.74a.431.431,0,0,1,0,.862Z" fill="#15a2b9"/>
</svg>
