<svg xmlns="http://www.w3.org/2000/svg" width="18.373" height="15.949" viewBox="0 0 18.373 15.949">
  <g id="Group_2027" data-name="Group 2027" transform="translate(0 -0.001)">
    <path id="Subtraction_30" data-name="Subtraction 30" d="M-18443.6-246.069h-2.205a.453.453,0,0,1-.436-.352l-.25-1.148a5.775,5.775,0,0,1-.889-.37l-.99.639a.438.438,0,0,1-.24.07.455.455,0,0,1-.316-.13l-1.787-1.788a.453.453,0,0,1-.061-.56l.635-.986a6.408,6.408,0,0,1-.365-.889l-1.148-.25a.445.445,0,0,1-.352-.435V-254.8a.444.444,0,0,1,.352-.435l1.148-.25a6.386,6.386,0,0,1,.365-.889l-.635-.991a.45.45,0,0,1,.061-.556l1.787-1.788a.453.453,0,0,1,.318-.132.427.427,0,0,1,.238.072l.99.634a6.932,6.932,0,0,1,.889-.37l.25-1.144a.445.445,0,0,1,.436-.352h2.529a.439.439,0,0,1,.436.352l.25,1.144a6.932,6.932,0,0,1,.889.37l.99-.634a.438.438,0,0,1,.24-.072.446.446,0,0,1,.316.132l1.787,1.788a.45.45,0,0,1,.061.556l-.635.991a6.624,6.624,0,0,1,.371.889l1.143.25a.444.444,0,0,1,.354.435v.754a2.393,2.393,0,0,0-1.074,1.762h0a4.674,4.674,0,0,0-.662-.046,5.181,5.181,0,0,0-3.82,1.68,4.543,4.543,0,0,0-.971,4.579Zm-.939-10.142a2.68,2.68,0,0,0-2.678,2.677,2.68,2.68,0,0,0,2.678,2.677,2.679,2.679,0,0,0,2.676-2.677A2.678,2.678,0,0,0-18444.535-256.211Z" transform="translate(18452 261)"  fill="#FBB015"/>
    <path id="refer" d="M15.3,9.957a1.761,1.761,0,0,1-.524,1.26l-1.325,1.318a.712.712,0,1,1-1-1.01l.888-.883H9.293a1.442,1.442,0,0,0-.017,2.884.712.712,0,0,1,0,1.425,2.822,2.822,0,0,1-2.021-.843A2.873,2.873,0,0,1,9.293,9.216h3.972L12.443,8.4a.712.712,0,0,1,1-1.013L14.768,8.7A1.761,1.761,0,0,1,15.3,9.957Zm0,0" transform="translate(3.077 1)" fill="#FBB015"/>
  </g>
</svg>
