<svg xmlns="http://www.w3.org/2000/svg" width="12" height="16" viewBox="0 0 12 16"><defs><style>.a{fill:#505050;}</style></defs><path class="a" d="M9.5,4H5.167A1.168,1.168,0,0,1,4,2.833v-1a.5.5,0,0,1,.5-.5H5.569a1.834,1.834,0,0,1,3.528,0h1.069a.5.5,0,0,1,.5.5v1A1.168,1.168,0,0,1,9.5,4Z" transform="translate(-1.333)"/><path class="a" d="M10.167,3H10v.833A1.835,1.835,0,0,1,8.167,5.667H3.833A1.835,1.835,0,0,1,2,3.833V3H1.833A1.835,1.835,0,0,0,0,4.833V15.167A1.835,1.835,0,0,0,1.833,17h8.333A1.835,1.835,0,0,0,12,15.167V4.833A1.835,1.835,0,0,0,10.167,3ZM9.5,15h-7a.5.5,0,1,1,0-1h7a.5.5,0,1,1,0,1Zm0-2h-7a.5.5,0,0,1,0-1h7a.5.5,0,1,1,0,1Zm0-2h-7a.5.5,0,0,1,0-1h7a.5.5,0,1,1,0,1Zm0-2h-7a.5.5,0,1,1,0-1h7a.5.5,0,1,1,0,1Z" transform="translate(0 -1)"/></svg>