<svg xmlns="http://www.w3.org/2000/svg" xmlns:xlink="http://www.w3.org/1999/xlink" width="51.311" height="62.098" viewBox="0 0 51.311 62.098"><defs><style>.a{fill:url(#a);}.b{fill:#fbb015;}</style><linearGradient id="a" x1="0.5" x2="0.5" y2="1" gradientUnits="objectBoundingBox"><stop offset="0" stop-color="#1c6fc4"/><stop offset="1" stop-color="#01b8b6"/></linearGradient></defs><g transform="translate(0)"><path class="a" d="M150.412,72.446a.91.91,0,0,0,1.074-.711,16.676,16.676,0,1,0-16.34,13.358,16.624,16.624,0,0,0,14.829-9.064.91.91,0,1,0-1.617-.837,14.918,14.918,0,1,1,1.647-6.828,15.056,15.056,0,0,1-.3,3A.912.912,0,0,0,150.412,72.446Z" transform="translate(-109.49 -45.372)"/><path class="b" d="M192.469,108.193a.91.91,0,0,0-.736-.621l-5.929-.852-2.64-5.393a.915.915,0,0,0-1.633,0l-2.64,5.393-5.929.852a.919.919,0,0,0-.5,1.558l4.3,4.185-1.025,5.919a.917.917,0,0,0,1.321.963l5.3-2.807,5.3,2.807a.917.917,0,0,0,1.321-.963l-1.025-5.919,4.3-4.185A.914.914,0,0,0,192.469,108.193Zm-6.141,4.148a.915.915,0,0,0-.263.811l.79,4.563-4.083-2.164a.908.908,0,0,0-.85,0l-4.083,2.164.79-4.563a.914.914,0,0,0-.263-.811l-3.313-3.226,4.571-.657a.91.91,0,0,0,.688-.5l2.035-4.157,2.035,4.157a.91.91,0,0,0,.688.5l4.571.657Z" transform="translate(-156.692 -88.595)"/><path class="a" d="M95.647,54.24,86.755,38.792A22.957,22.957,0,0,0,59.006,2.877a.912.912,0,0,0,.883,1.6,21.192,21.192,0,1,1-3.352,2.316.911.911,0,0,0-1.172-1.4A23.022,23.022,0,0,0,53.5,38.813l-2.518,4.375a.911.911,0,0,0,1.576.913l2.289-3.977a22.87,22.87,0,0,0,9.746,5.184l-7.85,13.638-2.008-6.339a.91.91,0,0,0-1.062-.615l-6.478,1.425,3.24-5.629a.91.91,0,1,0-1.576-.913L44.587,54.3a.918.918,0,0,0,.983,1.348l7.68-1.69,2.381,7.516a.915.915,0,0,0,1.655.18l9.185-15.957a22.9,22.9,0,0,0,7.322,0l5.516,9.584a.91.91,0,1,0,1.576-.913L75.671,45.3a22.872,22.872,0,0,0,9.739-5.2l7.631,13.257-6.478-1.425a.909.909,0,0,0-1.062.615l-2.008,6.339-.486-.844a.91.91,0,1,0-1.576.913l1.516,2.635a.915.915,0,0,0,1.655-.18L86.984,53.9l7.68,1.69A.918.918,0,0,0,95.647,54.24Z" transform="translate(-44.462 0)"/></g></svg>