<?xml version="1.0" encoding="utf-8"?>
<!-- Generator: Adobe Illustrator 21.0.2, SVG Export Plug-In . SVG Version: 6.00 Build 0)  -->
<svg version="1.1" id="Layer_1" xmlns="http://www.w3.org/2000/svg" xmlns:xlink="http://www.w3.org/1999/xlink" x="0px" y="0px"
	 viewBox="0 0 30 30" style="enable-background:new 0 0 30 30;" xml:space="preserve">
<style type="text/css">
	.st0{fill:#FFFFFF;}
	.st1{fill:#FFFFFF;stroke:#000000;stroke-miterlimit:10;}
	.st2{fill:none;stroke:#000000;stroke-miterlimit:10;}
	.st3{stroke:#FFFFFF;stroke-miterlimit:10;}
	.st4{stroke:#000000;stroke-miterlimit:10;}
	.st5{fill:none;}
	.st6{fill:#17A2BA;}
	.st7{fill:#17A2BA;stroke:#FFFFFF;stroke-linejoin:round;}
	.st8{fill:#F8B01B;stroke:#FFFFFF;stroke-width:3;stroke-miterlimit:10;}
	.st9{fill:#17A2BA;stroke:#FFFFFF;stroke-miterlimit:10;}
	.st10{fill:#17A2BA;stroke:#FFFFFF;stroke-width:3;stroke-miterlimit:10;}
	.st11{fill:#17A2BA;stroke:#FFFFFF;stroke-width:0.5;stroke-miterlimit:10;}
	.st12{fill:none;stroke:#FFFFFF;stroke-width:0.5;stroke-miterlimit:10;}
	.st13{fill:#FFFFFF;stroke:#17A2BA;stroke-miterlimit:10;}
</style>
<g>
	<path class="st6" d="M9.5,2.6c0.2-1.5,1.1-2.4,2.3-2.4c1.3,0,2.1,0.7,2.5,2.4c0.5,0,1,0,1.5,0c0.9,0,1.6,0.3,2,1.1
		c0,0.1,0.2,0.1,0.3,0.1c0.7,0,1.4,0,2.1,0c1.4,0.1,2.4,1.1,2.5,2.5c0,2.2,0,4.4,0,6.5c0,0.1,0,0.2,0.1,0.3c0.1-0.1,0.1-0.2,0.2-0.3
		c0.7-1.3,1.4-2.5,2-3.8c0.5-0.9,1.3-1.1,2.2-0.7c0.5,0.3,1,0.5,1.6,0.8c0.9,0.5,1.1,1.3,0.7,2.2c-2.2,4.1-4.3,8.2-6.5,12.3
		c-0.1,0.2-0.2,0.5-0.2,0.8c0,0.8,0,1.6,0,2.3c-0.1,1.3-1.2,2.4-2.5,2.4c-0.5,0-1.1,0-1.6,0c-4.9,0-9.8,0-14.7,0
		c-1.4,0-2.4-0.9-2.7-2.2c0-0.2,0-0.3,0-0.5c0-6.7,0-13.5,0-20.2c0-1.5,1-2.6,2.5-2.6c0.7,0,1.4,0,2,0c0.2,0,0.3,0,0.4-0.2
		c0.4-0.7,0.9-1,1.7-1C8.3,2.6,8.9,2.6,9.5,2.6z M18,4.7c0,0.1-0.1,0.1-0.1,0.2C17.7,5.9,17,6.5,16,6.5c-2.8,0-5.6,0-8.3,0
		C6.8,6.5,6,5.8,5.8,4.9c0-0.2-0.1-0.2-0.3-0.2c-0.6,0-1.3,0-1.9,0c-0.4,0-0.8,0.2-1.1,0.4C2.1,5.6,2,6.1,2,6.6c0,4.9,0,9.8,0,14.6
		c0,1.8,0,3.5,0,5.3c0,0.7,0.2,1.2,0.8,1.6c0.4,0.3,0.8,0.3,1.2,0.3c5.2,0,10.5,0,15.7,0c0.2,0,0.3,0,0.5,0c0.8-0.1,1.4-0.6,1.5-1.3
		c0.1-0.8,0-1.5,0-2.3c-0.1,0-0.2,0.1-0.3,0.1c-0.8,0.5-1.5,1-2.3,1.4c-0.4,0.2-0.7,0.1-0.7-0.4c0-0.2,0-0.3,0-0.5
		c0-1.1-0.1-2.1-0.1-3.2c0-0.4,0.1-0.6,0.2-0.9c1.1-2,2.1-4.1,3.2-6.1c0.1-0.1,0.1-0.3,0.1-0.4c0-2.8,0-5.6,0-8.5
		c0-0.9-0.7-1.7-1.6-1.7C19.4,4.7,18.7,4.7,18,4.7z M20.3,22.3c1.8-3.4,3.6-6.8,5.4-10.2c-0.3-0.2-0.7-0.4-1-0.5
		c-1.8,3.4-3.6,6.8-5.4,10.2C19.6,22,19.9,22.1,20.3,22.3z M22.1,23.3c1.8-3.4,3.6-6.8,5.4-10.2c-0.3-0.2-0.7-0.4-1-0.5
		c-1.8,3.4-3.6,6.8-5.4,10.2C21.4,22.9,21.7,23.1,22.1,23.3z M12.7,2.5c0-0.4-0.4-0.8-0.8-0.8c-0.4,0-0.8,0.4-0.8,0.8
		c0,0.4,0.4,0.8,0.8,0.8C12.3,3.3,12.7,2.9,12.7,2.5z"/>
	<path class="st6" d="M6,7.4c0.7,0.4,1.3,0.1,1.9-0.2c0.1-0.1,0.4,0,0.5,0.1c0.5,0.3,0.9,0.4,1.4,0.2c0.2-0.1,0.5,0,0.6,0.2
		c0.3,0.3,0.6,0.6,0.9,0.9c0.3,0.3,0.3,0.6,0,0.9c-0.3,0.3-0.3,0.6-0.2,1c0.3,0.7,0.6,1.5,0.4,2.3c-0.1,0.7-0.5,1.2-1.1,1.5
		c-0.7,0.4-1.5,0.7-2.3,1.1c-0.1,0-0.3,0-0.4,0c-0.7-0.3-1.5-0.6-2.1-1c-1.3-0.8-1.7-1.9-1.1-3.4c0.1-0.3,0.2-0.5,0.3-0.7
		C5,10.1,5,9.8,4.7,9.6C4.3,9.2,4.3,9,4.8,8.5C5,8.2,5.3,8,5.5,7.7C5.6,7.6,5.8,7.5,6,7.4z M6.8,12.6c0,0.3,0.1,0.4,0.3,0.3
		c0.5-0.4,1.1-0.4,1.6,0c0.2,0.1,0.4,0,0.3-0.2c-0.2-0.6-0.1-1.1,0.5-1.5c0.2-0.1,0.1-0.3-0.1-0.4c-0.2,0-0.4,0-0.6-0.1
		c-0.1,0-0.3-0.1-0.4-0.3C8.3,10.3,8.3,10,8.2,9.8C8,9.6,7.9,9.6,7.8,9.8c-0.1,0.2-0.2,0.4-0.3,0.6c-0.1,0.2-0.2,0.3-0.4,0.3
		c-0.2,0-0.4,0.1-0.6,0.1c-0.2,0.1-0.3,0.2-0.1,0.3C6.9,11.6,7.2,12,6.8,12.6z"/>
	<path class="st6" d="M7.2,20.2c-0.8,0-1.6,0-2.4,0c-0.7,0-1-0.3-1-1c0-0.4,0-0.9,0-1.3c0-0.6,0.3-0.9,0.9-0.9c1.7,0,3.3,0,5,0
		c0.6,0,0.9,0.4,0.9,1c0,0.4,0,0.9,0,1.3c0,0.6-0.3,0.9-0.9,0.9C8.9,20.2,8.1,20.2,7.2,20.2z"/>
	<path class="st6" d="M9.9,22.5c-1.8,0-3.6,0-5.3,0c-0.1,0-0.2,0-0.3,0c-0.3,0-0.4-0.2-0.4-0.5c0-0.3,0.2-0.4,0.4-0.5
		c0.1,0,0.1,0,0.2,0c3.6,0,7.3,0,10.9,0c0.1,0,0.1,0,0.2,0c0.2,0.1,0.4,0.2,0.4,0.4c0,0.2-0.1,0.4-0.4,0.5c-0.1,0-0.2,0-0.3,0
		C13.5,22.5,11.7,22.5,9.9,22.5z"/>
	<path class="st6" d="M9.9,24.8c-1.8,0-3.6,0-5.4,0c-0.2,0-0.4,0-0.5-0.2c-0.1-0.3,0-0.6,0.3-0.6c0.1,0,0.2,0,0.3,0
		c3.6,0,7.1,0,10.7,0c0.1,0,0.1,0,0.2,0c0.3,0,0.5,0.2,0.5,0.4c0,0.3-0.2,0.5-0.5,0.5C13.6,24.8,11.7,24.8,9.9,24.8z"/>
	<path class="st6" d="M8.3,26.9c-1.3,0-2.6,0-3.9,0c-0.4,0-0.5-0.2-0.5-0.4C3.9,26.2,4,26,4.3,26c0.1,0,0.1,0,0.2,0
		c2.6,0,5.2,0,7.7,0c0.1,0,0.1,0,0.2,0c0.2,0,0.4,0.2,0.4,0.4c0,0.2-0.1,0.4-0.4,0.4c-0.2,0-0.4,0-0.6,0
		C10.6,26.9,9.5,26.9,8.3,26.9z"/>
	<path class="st6" d="M16.8,7.9c0.8,0,1.7,0,2.5,0c0.4,0,0.6,0.2,0.6,0.4c0,0.3-0.2,0.5-0.6,0.5c-1.7,0-3.4,0-5.1,0
		c-0.4,0-0.6-0.2-0.6-0.5c0-0.3,0.2-0.4,0.6-0.4C15,7.9,15.9,7.9,16.8,7.9z"/>
	<path class="st6" d="M16.8,15.6c-0.8,0-1.6,0-2.4,0c-0.1,0-0.2,0-0.3,0c-0.2-0.1-0.4-0.2-0.4-0.5c0-0.2,0.2-0.4,0.4-0.4
		c0.1,0,0.2,0,0.3,0c1.6,0,3.3,0,4.9,0c0.1,0,0.1,0,0.2,0c0.3,0,0.5,0.2,0.5,0.5c0,0.2-0.2,0.4-0.5,0.5c-0.1,0-0.1,0-0.2,0
		C18.4,15.6,17.6,15.6,16.8,15.6z"/>
	<path class="st6" d="M16.7,11.1c-0.9,0-1.7,0-2.6,0c-0.4,0-0.6-0.2-0.5-0.5c0.1-0.3,0.3-0.4,0.5-0.4c0.5,0,1,0,1.5,0
		c1.2,0,2.3,0,3.5,0c0.1,0,0.2,0,0.3,0c0.3,0,0.5,0.2,0.5,0.5c0,0.3-0.2,0.5-0.5,0.5C18.5,11.1,17.6,11.1,16.7,11.1z"/>
	<path class="st6" d="M16.8,12.5c0.8,0,1.7,0,2.5,0c0.4,0,0.6,0.2,0.6,0.4c0,0.3-0.2,0.5-0.6,0.5c-1.7,0-3.4,0-5.1,0
		c-0.4,0-0.6-0.1-0.6-0.4c0-0.3,0.2-0.5,0.6-0.5C15.1,12.5,15.9,12.5,16.8,12.5z"/>
	<path class="st6" d="M16.7,17.9c-0.8,0-1.7,0-2.5,0c-0.4,0-0.6-0.1-0.6-0.4c0-0.3,0.2-0.5,0.6-0.5c1.7,0,3.4,0,5.1,0
		c0.4,0,0.6,0.2,0.6,0.5c0,0.3-0.2,0.4-0.6,0.4C18.5,17.9,17.6,17.9,16.7,17.9z"/>
	<path class="st6" d="M15.5,19.3c0.5,0,0.9,0,1.4,0c0.3,0,0.5,0.2,0.5,0.4c0,0.3-0.2,0.4-0.5,0.4c-0.9,0-1.9,0-2.8,0
		c-0.3,0-0.5-0.2-0.5-0.5c0-0.3,0.2-0.4,0.5-0.4C14.6,19.3,15,19.3,15.5,19.3z"/>
</g>
</svg>
