<svg xmlns="http://www.w3.org/2000/svg" width="30" height="30.001" viewBox="0 0 30 30.001">
  <path id="requests" d="M-8268,30a14.9,14.9,0,0,1-10.606-4.394A14.9,14.9,0,0,1-8283,15a14.9,14.9,0,0,1,4.394-10.607A14.9,14.9,0,0,1-8268,0a14.9,14.9,0,0,1,10.606,4.394A14.9,14.9,0,0,1-8253,15a14.9,14.9,0,0,1-4.394,10.607A14.9,14.9,0,0,1-8268,30Zm5.617-10.573-.3.827a.482.482,0,0,0,.015.37l1.168,2.542a.486.486,0,0,0,.443.285.486.486,0,0,0,.442-.285l1.168-2.542a.486.486,0,0,0,.015-.37l-.3-.827h-2.652ZM-8275.557,6.81a.489.489,0,0,0-.488.489V22.964a.489.489,0,0,0,.488.489h11.411a.488.488,0,0,0,.486-.489V7.3a.488.488,0,0,0-.486-.489Zm12.845,4.06v7.095a.488.488,0,0,0,.486.489h2.337a.488.488,0,0,0,.486-.489V10.87Zm1.655-4.06a1.657,1.657,0,0,0-1.655,1.655v1.43h3.31V8.465A1.656,1.656,0,0,0-8261.057,6.81Zm-5.222,13.657h-3.1a.488.488,0,0,1-.488-.486.489.489,0,0,1,.488-.489h3.1a.489.489,0,0,1,.488.489A.488.488,0,0,1-8266.278,20.467Zm-6.474-2.488a.487.487,0,0,1-.345-.143l-.7-.7a.492.492,0,0,1,0-.69.491.491,0,0,1,.346-.141.49.49,0,0,1,.345.141l.354.353,1.135-1.135a.484.484,0,0,1,.347-.143.484.484,0,0,1,.346.143.49.49,0,0,1,0,.69l-1.482,1.48A.487.487,0,0,1-8272.752,17.979Zm6.474-.582h-3.1a.489.489,0,0,1-.488-.489.489.489,0,0,1,.488-.489h3.1a.489.489,0,0,1,.488.489A.489.489,0,0,1-8266.278,17.4Zm-6.474-2.376a.487.487,0,0,1-.345-.143l-.7-.7a.489.489,0,0,1,0-.688.484.484,0,0,1,.346-.143.483.483,0,0,1,.345.143l.354.351,1.135-1.135a.484.484,0,0,1,.347-.143.484.484,0,0,1,.346.143.49.49,0,0,1,0,.69l-1.482,1.48A.487.487,0,0,1-8272.752,15.021Zm6.474-.582h-3.1a.489.489,0,0,1-.488-.489.482.482,0,0,1,.488-.486h3.1a.488.488,0,0,1,.488.486A.489.489,0,0,1-8266.278,14.439Zm-6.474-2.376a.487.487,0,0,1-.345-.143l-.7-.7a.491.491,0,0,1,0-.688.484.484,0,0,1,.346-.143.483.483,0,0,1,.345.143l.354.351,1.135-1.135a.484.484,0,0,1,.347-.143.484.484,0,0,1,.346.143.49.49,0,0,1,0,.69l-1.482,1.48A.487.487,0,0,1-8272.752,12.063Zm6.474-.584h-3.1a.482.482,0,0,1-.488-.486.482.482,0,0,1,.488-.486h3.1a.488.488,0,0,1,.488.486A.488.488,0,0,1-8266.278,11.479Z" transform="translate(8283)" fill="#fff"/>
</svg>
