<svg xmlns="http://www.w3.org/2000/svg" viewBox="0 0 202.17 221.05"><defs><style>.cls-1,.cls-3{fill:#15a2b9;}.cls-2,.cls-4{fill:#fff;}.cls-3,.cls-4{stroke:#fff;stroke-miterlimit:10;stroke-width:4px;}</style></defs><title>12</title><g id="Layer_2" data-name="Layer 2"><g id="Layer_1-2" data-name="Layer 1"><path class="cls-1" d="M42,29c0-2.83,0-5.35,0-7.86,0-3.21,1.32-4.89,4.58-5.07,4.95-.28,9.92-.15,14.87-.35a3,3,0,0,0,2.25-1.34C68.65,3.37,80-1.94,92.37.64c7.9,1.64,13.69,6.06,16.88,13.59a2.23,2.23,0,0,0,2.43,1.55c5,0,9.93-.06,14.87.24,3.86.23,5.07,1.84,5.08,5.74q0,3.24,0,6.47a5.85,5.85,0,0,0,.15.74c.76,0,1.59,0,2.42,0,6.75.11,13.55-.22,20.25.44,10.41,1,18.44,10,19.08,20.43.06,1,.05,2,.05,3,0,48.55-.26,97.11.17,145.66.12,14-10.95,22.56-22.66,22.52-23.45-.07-46.9,0-70.35,0h-58c-7.11,0-13.25-2.34-18-7.73A17,17,0,0,1,.05,202C0,196,0,190,0,184.08Q0,118.15,0,52.22C0,41.07,6.14,32.79,16.82,29.78A25.27,25.27,0,0,1,23.2,29C29.37,28.91,35.54,29,42,29Zm0,10.76c-7.42,0-14.53,0-21.64,0a4.09,4.09,0,0,0-1,.25c-5.52,1.54-8.79,6-8.79,12.06q0,73.69,0,147.38c0,.29,0,.58,0,.86a9,9,0,0,0,6.36,9,20.6,20.6,0,0,0,6.74,1.07q63.23.09,126.45,0c.72,0,1.44,0,2.15-.08,7.34-.53,10.86-4.31,10.86-11.65q0-59.45,0-118.9,0-13.92,0-27.84c0-7.28-4.81-12.24-12.06-12.35-6-.09-11.94,0-17.91,0-.42,0-.83.07-1.49.12,0,3.81,0,7.52,0,11.24,0,4.66-2.16,6.92-6.82,6.92q-38.09,0-76.17,0C44,57.91,42,55.76,42,51.12,42,47.39,42,43.66,42,39.74ZM120.81,26.5a3.72,3.72,0,0,0-.43-.09c-4.53,0-9.06,0-13.59,0a5.62,5.62,0,0,1-5.85-4.14c-.27-.74-.5-1.5-.74-2.25a14.38,14.38,0,0,0-21.76-7.5,16.09,16.09,0,0,0-6.36,9.17c-1.06,3.52-2.83,4.72-6.49,4.73H52.85V47.29h68Z"/><path class="cls-2" d="M42,39.74c0,3.92,0,7.65,0,11.38,0,4.64,2.06,6.79,6.64,6.79q38.09,0,76.17,0c4.65,0,6.81-2.26,6.82-6.92,0-3.72,0-7.44,0-11.24.66-.06,1.08-.12,1.49-.12,6,0,11.94-.08,17.91,0,7.26.11,12,5.06,12.06,12.35q0,13.92,0,27.84,0,59.45,0,118.9c0,7.35-3.52,11.13-10.86,11.65-.72.05-1.44.08-2.15.08q-63.23,0-126.45,0a20.6,20.6,0,0,1-6.74-1.07,9,9,0,0,1-6.36-9c0-.29,0-.58,0-.86q0-73.69,0-147.38c0-6.06,3.27-10.52,8.79-12.06a4.09,4.09,0,0,1,1-.25C27.46,39.74,34.57,39.74,42,39.74Zm70,47.08q-14.44,0-28.89,0a11.86,11.86,0,0,0-3,.34,5.13,5.13,0,0,0,.28,10,16.21,16.21,0,0,0,3.2.32q28.24,0,56.48,0a15.22,15.22,0,0,0,3-.3,5.09,5.09,0,0,0,4.09-6.25c-.57-2.57-2.77-4.09-6.06-4.1Q126.53,86.8,112,86.82ZM111.87,171c-9.84,0-19.69,0-29.53,0-4.19,0-6.68,2.92-5.84,6.62.58,2.53,2.87,4,6.34,4q29,0,58,0a10.64,10.64,0,0,0,2.76-.38,5.19,5.19,0,0,0,3-7.47c-1.25-2.2-3.28-2.82-5.65-2.82Zm-.09-31.52H131c3.74,0,7.47.05,11.21,0a5.14,5.14,0,0,0,5-4,5,5,0,0,0-2.89-5.87,11.1,11.1,0,0,0-4-.59q-28.45-.05-56.9,0a7.77,7.77,0,0,0-2.77.23,8.7,8.7,0,0,0-3.18,2,4.62,4.62,0,0,0-.6,5.25A5.22,5.22,0,0,0,82,139.48Zm-69-48.58L36.32,85a23.55,23.55,0,0,0-1.95-1.68,4.83,4.83,0,0,0-5.45-.3,4.36,4.36,0,0,0-2.43,4.85,9.62,9.62,0,0,0,2.21,4.26c2.83,3.15,5.89,6.09,8.85,9.12,3.58,3.65,5.75,3.71,9.5.18q9.41-8.87,18.77-17.78a10.62,10.62,0,0,0,1.27-1.46,4.91,4.91,0,0,0-1-7c-2.51-1.94-5-1.71-7.69.82C53.08,81,47.8,86.09,42.75,90.89Zm-.13,42.23c-2.41-2.3-4.65-4.42-6.86-6.55-1.45-1.4-3-2.43-5.17-2a4.79,4.79,0,0,0-3.91,3.3,5.52,5.52,0,0,0,1.49,5.93c3.18,3.32,6.4,6.61,9.61,9.9s5.73,3.26,9.08.08q8.22-7.78,16.42-15.58c1.15-1.09,2.34-2.14,3.38-3.32a5.1,5.1,0,0,0-1.87-8.34c-2.49-1-4.59-.17-6.45,1.62Q50.5,125.64,42.62,133.12Zm.15,41.94-6.4-5.79a25.6,25.6,0,0,0-2.11-1.82,4.78,4.78,0,0,0-5.09-.35,4.2,4.2,0,0,0-2.68,4.49,9.86,9.86,0,0,0,2.18,4.69c2.73,3.13,5.78,6,8.69,9,3.86,3.95,5.87,4,10,.14q9.17-8.65,18.29-17.34a12.81,12.81,0,0,0,1.56-1.77,4.58,4.58,0,0,0,.23-5.42c-2-3.29-5.73-3.73-8.78-.86C53.21,165.06,47.89,170.18,42.76,175.06Z"/><path class="cls-2" d="M120.81,26.5V47.29h-68V26.36H65.59c3.66,0,5.43-1.2,6.49-4.73a16.09,16.09,0,0,1,6.36-9.17A14.38,14.38,0,0,1,100.2,20c.24.75.47,1.5.74,2.25a5.62,5.62,0,0,0,5.85,4.14c4.53,0,9.06,0,13.59,0A3.72,3.72,0,0,1,120.81,26.5Z"/><path class="cls-1" d="M112,86.82q14.55,0,29.1,0c3.29,0,5.49,1.53,6.06,4.1a5.09,5.09,0,0,1-4.09,6.25,15.22,15.22,0,0,1-3,.3q-28.24,0-56.48,0a16.21,16.21,0,0,1-3.2-.32,5.13,5.13,0,0,1-.28-10,11.86,11.86,0,0,1,3-.34Q97.53,86.8,112,86.82Z"/><path class="cls-1" d="M111.87,171H141c2.37,0,4.4.62,5.65,2.82a5.19,5.19,0,0,1-3,7.47,10.64,10.64,0,0,1-2.76.38q-29,0-58,0c-3.46,0-5.76-1.5-6.34-4-.84-3.7,1.65-6.6,5.84-6.62C92.18,171,102,171,111.87,171Z"/><path class="cls-1" d="M111.78,139.47H82a5.22,5.22,0,0,1-5.23-3.08,4.62,4.62,0,0,1,.6-5.25,8.7,8.7,0,0,1,3.18-2,7.77,7.77,0,0,1,2.77-.23q28.45,0,56.9,0a11.1,11.1,0,0,1,4,.59,5,5,0,0,1,2.89,5.87,5.14,5.14,0,0,1-5,4c-3.73.1-7.47,0-11.21,0Z"/><path class="cls-1" d="M42.75,90.89C47.8,86.09,53.08,81,58.4,76c2.68-2.53,5.18-2.76,7.69-.82a4.91,4.91,0,0,1,1,7,10.62,10.62,0,0,1-1.27,1.46Q56.44,92.59,47,101.47c-3.75,3.53-5.92,3.47-9.5-.18-3-3-6-6-8.85-9.12a9.62,9.62,0,0,1-2.21-4.26,4.36,4.36,0,0,1,2.43-4.85,4.83,4.83,0,0,1,5.45.3A23.55,23.55,0,0,1,36.32,85Z"/><path class="cls-1" d="M42.62,133.12q7.86-7.49,15.73-15c1.86-1.78,4-2.66,6.45-1.62a5.1,5.1,0,0,1,1.87,8.34c-1,1.18-2.24,2.23-3.38,3.32q-8.2,7.8-16.42,15.58c-3.36,3.17-5.91,3.15-9.08-.08s-6.44-6.57-9.61-9.9a5.52,5.52,0,0,1-1.49-5.93,4.79,4.79,0,0,1,3.91-3.3c2.14-.4,3.72.64,5.17,2C38,128.71,40.21,130.82,42.62,133.12Z"/><path class="cls-1" d="M42.76,175.06c5.13-4.88,10.45-10,15.85-15.06,3.05-2.86,6.82-2.43,8.78.86a4.58,4.58,0,0,1-.23,5.42,12.81,12.81,0,0,1-1.56,1.77q-9.13,8.69-18.29,17.34c-4.09,3.86-6.1,3.81-10-.14-2.91-3-6-5.84-8.69-9a9.86,9.86,0,0,1-2.18-4.69,4.2,4.2,0,0,1,2.68-4.49,4.78,4.78,0,0,1,5.09.35,25.6,25.6,0,0,1,2.11,1.82Z"/><path class="cls-3" d="M147.76,210.11l-6.34-15.61a3.36,3.36,0,0,1,0-2.62l23.45-53.1a4.17,4.17,0,0,1,5.48-2.14l18.31,8a4.17,4.17,0,0,1,2.21,5.36L169.6,203.75a3.36,3.36,0,0,1-1.86,1.88L152.14,212A3.36,3.36,0,0,1,147.76,210.11Z"/><path class="cls-4" d="M168.36,132.58l24.71,11.19,6.66-13.87a4,4,0,0,0-2.06-5.51l-18.41-7.51a4,4,0,0,0-5.19,2.15Z"/></g></g></svg>