<svg xmlns="http://www.w3.org/2000/svg" width="14.214" height="14.214" viewBox="0 0 14.214 14.214">

<path fill="white" d="M10.162,0H.416A.416.416,0,0,0,0,.416V13.8a.416.416,0,0,0,.416.416h9.745a.416.416,0,0,0,.416-.416V.416A.416.416,0,0,0,10.162,0ZM4.372,8.152,3.107,9.417a.416.416,0,0,1-.589,0l-.6-.6a.416.416,0,0,1,.589-.589l.3.3.97-.97a.416.416,0,0,1,.589.589Zm0-2.526L3.107,6.89a.416.416,0,0,1-.589,0l-.6-.6a.416.416,0,0,1,.589-.589l.3.3.97-.97a.416.416,0,0,1,.589.589Zm0-2.526L3.107,4.364a.416.416,0,0,1-.589,0l-.6-.6a.416.416,0,1,1,.589-.589l.3.3.97-.97a.416.416,0,0,1,.589.589Zm3.969,8.566H5.7a.416.416,0,0,1,0-.833H8.341a.416.416,0,1,1,0,.833Zm0-2.623H5.7a.416.416,0,0,1,0-.833H8.341a.416.416,0,1,1,0,.833Zm0-2.526H5.7a.416.416,0,0,1,0-.833H8.341a.416.416,0,1,1,0,.833Zm0-2.526H5.7a.416.416,0,0,1,0-.833H8.341a.416.416,0,1,1,0,.833Z" transform="translate(0 0)"/>
<path fill="white" d="M413,1.413a1.413,1.413,0,0,0-2.827,0V2.635H413Z" transform="translate(-398.79 0)"/><path fill="white" d="M410.2,388.9a.417.417,0,0,0,.013.315l1,2.172a.417.417,0,0,0,.757,0l1-2.172a.417.417,0,0,0,.013-.315l-.256-.707h-2.265Z" transform="translate(-398.789 -377.412)"/><path fill="white" d="M413,130.966v-6.06h-2.827v6.06a.416.416,0,0,0,.416.416h1.994A.416.416,0,0,0,413,130.966Z" transform="translate(-398.79 -121.438)"/></svg>