<svg xmlns="http://www.w3.org/2000/svg" viewBox="0 0 361.79 408.47"><defs><style>.cls-1,.cls-3{fill:#15a2b9;}.cls-2{fill:#fff;}.cls-3{stroke:#fff;stroke-miterlimit:10;stroke-width:4px;}</style></defs><title>7</title><g id="Layer_2" data-name="Layer 2"><g id="Layer_1-2" data-name="Layer 1"><path class="cls-1" d="M137,375.32c-3.2-5.75-7.33-11.19-9.42-17.32-5-14.58-2.57-28.54,6.82-40.8,9-11.72,18.43-23.06,27.75-34.5a13.8,13.8,0,0,1,19.69-2.17c6.25,5,7.14,13.52,2,20-7.09,8.88-14.27,17.69-21.4,26.53l-2.87,3.56c7.69.47,14.5,1.23,21.3,1.23,32.31,0,62-8.92,88.24-27.82,39.24-28.29,61-66.78,63.82-115.22,2.3-39.24-8.89-74.58-34-104.92-28.17-34-64.56-52.62-108.75-55C150.93,26.71,115.82,38.14,85.27,63A136.4,136.4,0,0,0,58.93,91.08a36.42,36.42,0,0,1-6.6,7.66,13.65,13.65,0,0,1-18.51-1.12,14,14,0,0,1-1.38-18c31.41-45.21,74.36-71.68,129-78.25,37.9-4.56,73.84,2.57,107.28,21.25C343,64,378,148.93,354.6,230.65a169.16,169.16,0,0,1-23.93,50.45,21.2,21.2,0,0,0-1.4,2.78l-15,18.6a27.24,27.24,0,0,0-2.68,2.2,173.46,173.46,0,0,1-43.82,33.45,179.47,179.47,0,0,1-102.3,21.22c-.92-.08-1.86,0-3.5,0,10.49,8.47,20.37,16.37,30.15,24.38a13.93,13.93,0,0,1,3.53,17.17,14.17,14.17,0,0,1-15.69,7.27c-1-.21-2-.38-3-.57Z"/><path class="cls-1" d="M62.93,293.33a14,14,0,0,1-21.5.44,137.88,137.88,0,0,1-9.78-13.18c-4.13-6.33-2.38-14.16,3.84-18.92a13.57,13.57,0,0,1,18.34,2.13A138.67,138.67,0,0,1,64,277.56C67.14,282.37,66.47,288.85,62.93,293.33Z"/><path class="cls-1" d="M7.37,125.9a18.2,18.2,0,0,1,21.21-4.71,17.09,17.09,0,0,1,9.78,18.26c-1.07,6.44-2.44,12.86-4.13,19.16a17.3,17.3,0,0,1-20.47,12.6A17.27,17.27,0,0,1,.24,151.28c1-6.3,2.48-12.55,4-18.74C4.87,130.21,6.31,128.11,7.37,125.9Z"/><path class="cls-1" d="M27.1,198a4.73,4.73,0,0,1,1.39,1.32c4.44,8.55,7.07,17.63,5.36,27.23-1,5.63-7.06,9.53-12.82,9.67s-11.67-3.36-13.33-9A123.36,123.36,0,0,1,3.81,209.1c-.77-5.55,2.75-10.91,7.8-13.37S22.29,194,27.1,198Z"/><path class="cls-2" d="M131.94,85.74c0-2.63,0-5,0-7.28,0-3,1.23-4.53,4.25-4.7,4.59-.26,9.19-.14,13.78-.32a2.8,2.8,0,0,0,2.09-1.25c4.6-10.18,15.09-15.1,26.58-12.71,7.32,1.52,12.69,5.62,15.65,12.6a2.07,2.07,0,0,0,2.25,1.44c4.6,0,9.2-.05,13.79.22,3.58.21,4.7,1.71,4.71,5.32q0,3,0,6a5.42,5.42,0,0,0,.14.69c.71,0,1.48,0,2.25,0,6.26.1,12.56-.2,18.77.41,9.65.95,17.1,9.25,17.69,18.94.06.93,0,1.87,0,2.8,0,45-.24,90,.16,135,.12,13-10.15,20.91-21,20.88-21.74-.07-43.48,0-65.21,0H114.07c-6.59,0-12.29-2.17-16.71-7.17a15.77,15.77,0,0,1-4.3-10.49c0-5.53,0-11.07,0-16.6q0-61.11,0-122.23c0-10.34,5.69-18,15.59-20.8a23.42,23.42,0,0,1,5.92-.72C120.24,85.68,126,85.74,131.94,85.74Zm0,10c-6.88,0-13.47,0-20.06,0a3.79,3.79,0,0,0-1,.23c-5.12,1.43-8.15,5.56-8.15,11.18q0,68.31,0,136.62c0,.27,0,.53,0,.8a8.33,8.33,0,0,0,5.9,8.37,19.1,19.1,0,0,0,6.24,1q58.61.08,117.22,0c.67,0,1.33,0,2-.08,6.8-.49,10.07-4,10.07-10.8q0-55.11,0-110.22,0-12.9,0-25.8c0-6.75-4.46-11.34-11.18-11.44-5.53-.08-11.07,0-16.6,0-.38,0-.77.06-1.38.12,0,3.53,0,7,0,10.42,0,4.32-2,6.41-6.32,6.42q-35.31,0-70.61,0c-4.25,0-6.15-2-6.16-6.29C131.93,102.81,131.94,99.35,131.94,95.72ZM205,83.44a3.45,3.45,0,0,0-.4-.08c-4.2,0-8.4,0-12.59,0a5.21,5.21,0,0,1-5.42-3.84c-.25-.69-.46-1.39-.69-2.08a13.33,13.33,0,0,0-20.17-7,14.92,14.92,0,0,0-5.9,8.5c-1,3.27-2.62,4.37-6,4.38H142v19.4h63Z"/><path class="cls-1" d="M131.94,95.72c0,3.64,0,7.09,0,10.55,0,4.3,1.91,6.29,6.16,6.29q35.31,0,70.61,0c4.31,0,6.31-2.1,6.32-6.42,0-3.45,0-6.89,0-10.42.61-.05,1-.11,1.38-.12,5.53,0,11.07-.07,16.6,0,6.73.1,11.17,4.69,11.18,11.44q0,12.9,0,25.8,0,55.11,0,110.22c0,6.81-3.27,10.31-10.07,10.8-.66,0-1.33.08-2,.08q-58.61,0-117.22,0a19.1,19.1,0,0,1-6.24-1,8.33,8.33,0,0,1-5.9-8.37c0-.27,0-.53,0-.8q0-68.31,0-136.62c0-5.62,3-9.75,8.15-11.18a3.79,3.79,0,0,1,1-.23C118.47,95.71,125.06,95.72,131.94,95.72Zm64.88,43.65q-13.39,0-26.78,0a11,11,0,0,0-2.75.31,4.76,4.76,0,0,0,.26,9.25,15,15,0,0,0,3,.29q26.18,0,52.35,0a14.11,14.11,0,0,0,2.76-.27,4.72,4.72,0,0,0,3.79-5.79c-.53-2.38-2.56-3.79-5.62-3.8Q210.31,139.35,196.82,139.36Zm-.1,78c-9.13,0-18.25,0-27.38,0-3.88,0-6.19,2.71-5.41,6.14.53,2.35,2.66,3.74,5.87,3.74q26.88,0,53.76,0a9.86,9.86,0,0,0,2.55-.35,4.81,4.81,0,0,0,2.82-6.92c-1.16-2-3-2.62-5.24-2.61Zm-.08-29.22h17.78c3.46,0,6.93,0,10.39,0a4.76,4.76,0,0,0,4.61-3.72,4.65,4.65,0,0,0-2.67-5.44,10.29,10.29,0,0,0-3.7-.54q-26.37,0-52.75,0a7.2,7.2,0,0,0-2.57.21,8.07,8.07,0,0,0-2.95,1.83,4.28,4.28,0,0,0-.56,4.86,4.84,4.84,0,0,0,4.85,2.86Zm-64-45-6-5.43a21.83,21.83,0,0,0-1.81-1.56,4.48,4.48,0,0,0-5.06-.28,4,4,0,0,0-2.25,4.5,8.92,8.92,0,0,0,2,3.95c2.62,2.92,5.46,5.65,8.21,8.45,3.32,3.39,5.33,3.44,8.8.17q8.72-8.22,17.4-16.48a9.85,9.85,0,0,0,1.18-1.35,4.55,4.55,0,0,0-.92-6.52c-2.33-1.8-4.65-1.59-7.13.76C142.22,134,137.33,138.68,132.65,143.14Zm-.12,39.15c-2.23-2.13-4.31-4.09-6.36-6.08-1.34-1.3-2.81-2.26-4.79-1.89a4.44,4.44,0,0,0-3.62,3.05,5.12,5.12,0,0,0,1.38,5.5c2.95,3.08,5.93,6.13,8.91,9.17s5.31,3,8.42.07q7.62-7.21,15.22-14.44c1.06-1,2.17-2,3.14-3.08a4.73,4.73,0,0,0-1.74-7.73c-2.3-1-4.26-.16-6,1.5Q139.83,175.35,132.53,182.28Zm.13,38.88-5.93-5.37a23.73,23.73,0,0,0-2-1.68,4.44,4.44,0,0,0-4.71-.33,3.9,3.9,0,0,0-2.49,4.16,9.14,9.14,0,0,0,2,4.35c2.53,2.9,5.35,5.56,8.05,8.32,3.58,3.66,5.44,3.7,9.23.13q8.5-8,17-16.08a11.88,11.88,0,0,0,1.45-1.64,4.25,4.25,0,0,0,.21-5c-1.82-3.05-5.31-3.45-8.14-.8C142.35,211.89,137.41,216.64,132.66,221.16Z"/><path class="cls-1" d="M205,83.44v19.28H142V83.32h11.81c3.39,0,5-1.11,6-4.38a14.92,14.92,0,0,1,5.9-8.5,13.33,13.33,0,0,1,20.17,7c.23.69.44,1.39.69,2.08A5.21,5.21,0,0,0,192,83.31c4.2,0,8.4,0,12.59,0A3.45,3.45,0,0,1,205,83.44Z"/><path class="cls-2" d="M196.82,139.36q13.49,0,27,0c3.05,0,5.09,1.41,5.62,3.8a4.72,4.72,0,0,1-3.79,5.79,14.11,14.11,0,0,1-2.76.27q-26.18,0-52.35,0a15,15,0,0,1-3-.29,4.76,4.76,0,0,1-.26-9.25,11,11,0,0,1,2.75-.31Q183.43,139.34,196.82,139.36Z"/><path class="cls-2" d="M196.72,217.39h27c2.19,0,4.08.58,5.24,2.61a4.81,4.81,0,0,1-2.82,6.92,9.86,9.86,0,0,1-2.55.35q-26.88,0-53.76,0c-3.21,0-5.34-1.39-5.87-3.74-.78-3.43,1.53-6.12,5.41-6.14C178.47,217.37,187.6,217.39,196.72,217.39Z"/><path class="cls-2" d="M196.64,188.17H169.07a4.84,4.84,0,0,1-4.85-2.86,4.28,4.28,0,0,1,.56-4.86,8.07,8.07,0,0,1,2.95-1.83,7.2,7.2,0,0,1,2.57-.21q26.37,0,52.75,0a10.29,10.29,0,0,1,3.7.54,4.65,4.65,0,0,1,2.67,5.44,4.76,4.76,0,0,1-4.61,3.72c-3.46.09-6.93,0-10.39,0Z"/><path class="cls-2" d="M132.65,143.14c4.68-4.45,9.57-9.14,14.5-13.8,2.48-2.35,4.8-2.56,7.13-.76a4.55,4.55,0,0,1,.92,6.52,9.85,9.85,0,0,1-1.18,1.35q-8.69,8.25-17.4,16.48c-3.47,3.27-5.49,3.22-8.8-.17-2.75-2.81-5.58-5.53-8.21-8.45a8.92,8.92,0,0,1-2-3.95,4,4,0,0,1,2.25-4.5,4.48,4.48,0,0,1,5.06.28,21.83,21.83,0,0,1,1.81,1.56Z"/><path class="cls-2" d="M132.53,182.28q7.28-6.95,14.58-13.92c1.72-1.65,3.68-2.46,6-1.5a4.73,4.73,0,0,1,1.74,7.73c-1,1.1-2.08,2.07-3.14,3.08q-7.61,7.23-15.22,14.44c-3.11,2.94-5.48,2.92-8.42-.07s-6-6.09-8.91-9.17a5.12,5.12,0,0,1-1.38-5.5,4.44,4.44,0,0,1,3.62-3.05c2-.37,3.45.59,4.79,1.89C128.22,178.19,130.29,180.15,132.53,182.28Z"/><path class="cls-2" d="M132.66,221.16c4.75-4.52,9.69-9.28,14.69-14,2.83-2.65,6.32-2.25,8.14.8a4.25,4.25,0,0,1-.21,5,11.88,11.88,0,0,1-1.45,1.64q-8.47,8.05-17,16.08c-3.79,3.57-5.66,3.53-9.23-.13-2.7-2.76-5.52-5.42-8.05-8.32a9.14,9.14,0,0,1-2-4.35,3.9,3.9,0,0,1,2.49-4.16,4.44,4.44,0,0,1,4.71.33,23.73,23.73,0,0,1,2,1.68Z"/><path class="cls-3" d="M230,253.65l-5.88-14.47a3.12,3.12,0,0,1,0-2.43l21.74-49.23a3.87,3.87,0,0,1,5.08-2L268,193a3.87,3.87,0,0,1,2,5l-19.76,49.83a3.12,3.12,0,0,1-1.72,1.74l-14.46,5.87A3.12,3.12,0,0,1,230,253.65Z"/><path class="cls-3" d="M249.09,181.78,272,192.15l6.18-12.86a3.7,3.7,0,0,0-1.91-5.1l-17.06-7a3.7,3.7,0,0,0-4.81,2Z"/></g></g></svg>