<svg width="405" height="638" viewBox="0 0 405 638" fill="none" xmlns="http://www.w3.org/2000/svg">
<path d="M339.474 198.965C337.735 171.146 331.07 144.775 319.479 119.853C307.887 94.9315 291.08 74.6464 269.056 58.9979C247.032 43.3494 218.923 35.5251 184.728 35.5251C148.794 35.5251 121.264 45.6677 102.138 65.9528C83.0123 86.2379 73.4493 110.001 73.4493 137.24C73.4493 161.583 80.4042 182.157 94.314 198.965C108.224 215.193 126.191 229.683 148.214 242.433C170.818 254.604 194.58 266.486 219.502 278.077C241.526 287.93 263.55 298.652 285.574 310.243C307.597 321.255 327.593 334.006 345.56 348.495C363.526 362.985 377.726 380.372 388.158 400.657C399.17 420.363 404.676 444.125 404.676 471.945C404.676 503.821 396.562 532.22 380.334 557.142C364.685 582.064 341.792 601.769 311.654 616.259C281.517 630.169 244.714 637.123 201.245 637.123C175.165 637.123 148.214 633.356 120.395 625.822C92.5753 618.287 67.9434 607.275 46.4991 592.786L50.8459 630.169H5.63914L0.422973 444.994H34.3281C37.2259 495.997 54.903 534.829 87.3591 561.489C119.815 587.57 158.937 600.61 204.723 600.61C227.326 600.61 248.191 596.553 267.317 588.439C286.443 579.746 301.512 567.285 312.524 551.057C324.115 534.829 329.911 515.123 329.911 491.94C329.911 465.859 322.956 444.125 309.046 426.738C295.137 409.351 277.17 394.282 255.146 381.531C233.122 368.78 209.649 356.609 184.728 345.018C162.704 335.165 140.97 324.733 119.526 313.721C98.0813 302.709 78.3757 290.248 60.4089 276.338C43.0217 261.849 28.8221 244.752 17.8102 225.046C7.37787 205.34 2.1617 181.578 2.1617 153.758C2.1617 138.689 4.76978 122.461 9.98595 105.074C15.2021 87.6869 24.1855 71.169 36.9362 55.5205C50.2664 39.2924 68.2332 26.252 90.8366 16.3992C114.02 5.96689 143.288 0.750719 178.642 0.750719C200.666 0.750719 225.298 3.93837 252.538 10.3137C280.357 16.1094 306.148 27.7009 329.911 45.0882L326.434 7.70563H370.771V198.965H339.474Z" fill="#FBB015"/>
</svg>
