<svg xmlns="http://www.w3.org/2000/svg" width="24" height="24" viewBox="0 0 24 24"><defs><style>.a{opacity:0.4;}.b{fill:#1c6fc4;}</style></defs><g class="a"><path class="b" d="M12.25,2h-1.1a2.756,2.756,0,0,0-5.3,0H4.75A.755.755,0,0,0,4,2.75v1.5A1.758,1.758,0,0,0,5.75,6h5.5A1.758,1.758,0,0,0,13,4.25V2.75A.755.755,0,0,0,12.25,2Z"/><path class="b" d="M14.25,3H14V4.25A2.748,2.748,0,0,1,11.25,7H5.75A2.748,2.748,0,0,1,3,4.25V3H2.75A2.748,2.748,0,0,0,0,5.75v12.5A2.748,2.748,0,0,0,2.75,21H9.39a3.2,3.2,0,0,1,.29-3.5H3.75a.75.75,0,0,1,0-1.5H9.03a3.229,3.229,0,0,1,.24-1.75H3.75a.75.75,0,0,1,0-1.5h6.4l.13-.22A3.313,3.313,0,0,1,12.65,11H3.75a.75.75,0,0,1,0-1.5h9.5a.755.755,0,0,1,.75.75.494.494,0,0,1-.05.24A3.262,3.262,0,0,1,16.69,9H17V5.75A2.748,2.748,0,0,0,14.25,3Z"/><path class="b" d="M22.551,17.846c.01-.11.017-.227.017-.346s-.007-.236-.017-.346l.909-.617a1.215,1.215,0,0,0,.362-1.641l-.811-1.325a1.273,1.273,0,0,0-1.581-.494l-1.078.459a4.935,4.935,0,0,0-.679-.375L19.562,12.1A1.246,1.246,0,0,0,18.311,11H16.692a1.247,1.247,0,0,0-1.252,1.1l-.111,1.057a5.105,5.105,0,0,0-.679.375l-1.077-.458a1.278,1.278,0,0,0-1.583.495l-.809,1.323a1.214,1.214,0,0,0,.361,1.642l.909.618c-.01.11-.017.227-.017.346s.007.236.017.346l-.909.617a1.214,1.214,0,0,0-.362,1.641l.811,1.326a1.274,1.274,0,0,0,1.581.494l1.078-.459a4.935,4.935,0,0,0,.679.375L15.44,22.9A1.246,1.246,0,0,0,16.691,24H18.31a1.247,1.247,0,0,0,1.252-1.1l.111-1.057a5.105,5.105,0,0,0,.679-.375l1.077.458a1.274,1.274,0,0,0,1.583-.5l.809-1.323a1.214,1.214,0,0,0-.361-1.642ZM17.5,20A2.5,2.5,0,1,1,20,17.5,2.5,2.5,0,0,1,17.5,20Z"/></g></svg>