<svg xmlns="http://www.w3.org/2000/svg" width="30" height="30" viewBox="0 0 30 30"><defs><style>.a{fill:#fff;}</style></defs><path class="a" d="M15,8A15,15,0,1,0,30,23,15,15,0,0,0,15,8Zm0,5.806a5.323,5.323,0,1,1-5.323,5.323A5.323,5.323,0,0,1,15,13.806Zm0,20.806a11.59,11.59,0,0,1-8.861-4.125A6.744,6.744,0,0,1,12.1,26.871a1.48,1.48,0,0,1,.429.067A8.008,8.008,0,0,0,15,27.355a7.978,7.978,0,0,0,2.474-.417,1.48,1.48,0,0,1,.429-.067,6.744,6.744,0,0,1,5.958,3.617A11.59,11.59,0,0,1,15,34.613Z" transform="translate(0 -8)"/></svg>