<svg xmlns="http://www.w3.org/2000/svg" viewBox="0 0 21.69 29.44"><defs><style>.cls-1,.cls-3{fill:#fff;}.cls-2{fill:#fab018;}.cls-3{stroke:#fff;stroke-miterlimit:10;stroke-width:0.15px;}</style></defs><title>Asset 88</title><g id="Layer_2" data-name="Layer 2"><g id="Layer_1-2" data-name="Layer 1"><path class="cls-1" d="M21.08,24.45a3.28,3.28,0,0,0-.34-.74c-1.52-2.42-3.09-4.82-4.64-7.24l-.17-.24-.07-.09-.21.38.06.08,0,0a6.84,6.84,0,0,1,.64,1c1.31,2.16,2.72,4.27,4.06,6.4a2.23,2.23,0,0,1-.1,2.7,2.33,2.33,0,0,1-2.48.86,3.93,3.93,0,0,1-.77-.37,2.48,2.48,0,0,1-.63-.66c-1.59-2.46-3.19-4.92-4.73-7.41L11.68,19v0s0,0,0,0a2.49,2.49,0,0,1-.39,0,.08.08,0,0,0,0,0s0,0,0,.08c1.61,2.59,3.26,5.14,4.92,7.7a2.2,2.2,0,0,0,.56.61l0,0a2.78,2.78,0,0,0,1.9.5A2.68,2.68,0,0,0,21.08,24.45Z"/><path class="cls-1" d="M8.88,8.56A5.06,5.06,0,0,0,8,9a5.19,5.19,0,0,0-.78.62C6.42,8.39,5.6,7.12,4.78,5.87A4.13,4.13,0,0,0,3.51,4.79a1.58,1.58,0,0,1-.71-1C2.63,3,2.39,2.31,2.16,1.55A.43.43,0,0,1,2.4.94c1.13-.69.75-.7,1.71.11.19.13.38.33.59.46A2.72,2.72,0,0,1,6.1,4a.92.92,0,0,0,.18.49C7.15,5.86,8,7.21,8.88,8.56Z"/><path class="cls-1" d="M21.22,24.67l-.14-.22c-1.44-2.28-3-4.54-4.35-6.86a10.34,10.34,0,0,0-.81-1.19,1.8,1.8,0,0,1-.18.24,6.84,6.84,0,0,1,.64,1c1.31,2.16,2.72,4.27,4.06,6.4a2.23,2.23,0,0,1-.1,2.7,2.33,2.33,0,0,1-2.48.86,3.93,3.93,0,0,1-.77-.37,2.48,2.48,0,0,1-.63-.66c-1.59-2.46-3.19-4.92-4.73-7.41l-.22,0v0C13.23,22,15,24.7,16.8,27.45l0,0a2.64,2.64,0,0,0,.69.72,4,4,0,0,0,.86.41,2.55,2.55,0,0,0,2.74-1A2.47,2.47,0,0,0,21.22,24.67ZM15.3,18s0,0,0,.06v0h0Z"/><path class="cls-1" d="M20.44,24c-1.34-2.13-2.75-4.24-4.06-6.4a6.84,6.84,0,0,0-.64-1,6,6,0,0,1-4,2.47c1.54,2.49,3.14,5,4.73,7.41a2.48,2.48,0,0,0,.63.66,3.93,3.93,0,0,0,.77.37,2.33,2.33,0,0,0,2.48-.86A2.23,2.23,0,0,0,20.44,24Zm-5.13-6v0s0,0,0-.06h0l.09.07Z"/><path class="cls-2" d="M15.31,18h0v0s0,0,0-.06Z"/><path class="cls-2" d="M1.87,23.79a1.28,1.28,0,0,0-.14.3,1,1,0,0,1,0-.15Z"/><path class="cls-1" d="M21.62,5.85v.07a5.7,5.7,0,0,1-.07.6.22.22,0,0,1,0,.08,4,4,0,0,1-.11.5,4.46,4.46,0,0,1-.17.51A3.85,3.85,0,0,1,20.1,9.1l-.3.22a4.25,4.25,0,0,1-.81.44l-.36.15-.08,0a5.89,5.89,0,0,1-.65.17l-.46.09-.37,0H17a5.89,5.89,0,0,1-.66,0l-.37.6v0l-.05.08a5.36,5.36,0,0,0-2-2.1,5.46,5.46,0,0,0-2.26-.75l0,0h0L12,7.58A11,11,0,0,1,11.61,6a4.38,4.38,0,0,1-.06-.59.34.34,0,0,1,0-.14q0-.31,0-.6a3.68,3.68,0,0,1,0-.47c0-.12,0-.24,0-.35s0-.26.08-.38a2.26,2.26,0,0,1,.1-.35,2.33,2.33,0,0,1,.09-.24l.1-.23a4,4,0,0,1,.84-1.14A.94.94,0,0,1,13,1.38a3.67,3.67,0,0,1,.61-.44l.17-.11c.16-.09.32-.17.48-.24A8.2,8.2,0,0,1,17.32,0a.17.17,0,0,1,.14.25L16,2.6v0l0,0-.27.42L15,4.2l1.13.71,0,0,.94.58h0l1.18.74L19,5.1v0l1.69-2.72a.17.17,0,0,1,.3,0A9.94,9.94,0,0,1,21.62,5.85Z"/><path class="cls-3" d="M9.32,20.94l-2.74,4.4-.56.9L4.91,28l-.09.16a2.46,2.46,0,0,1-.4.5,2.51,2.51,0,0,1-1.52.68A2.45,2.45,0,0,1,1.33,29a2.35,2.35,0,0,1-.72-.68s0,0,0,0a2.07,2.07,0,0,1-.37-.6,2.55,2.55,0,0,1-.14-1.18c0-.11,0-.21,0-.29s0-.13,0-.18,0,0,0-.07a1.28,1.28,0,0,1,.14-.3l4.55-7.31a5.77,5.77,0,0,0,1.26,1.4l.92.59A5.8,5.8,0,0,0,9.32,20.94Z"/><path class="cls-3" d="M21.62,5.85v.07a5.7,5.7,0,0,1-.07.6.22.22,0,0,1,0,.08,4,4,0,0,1-.11.5,4.46,4.46,0,0,1-.17.51A3.85,3.85,0,0,1,20.1,9.1l-.3.22a4.25,4.25,0,0,1-.81.44l-.36.15-.08,0a5.89,5.89,0,0,1-.65.17l-.46.09-.37,0H17a1.38,1.38,0,0,0-1,.63v0l-.05.08a5.36,5.36,0,0,0-2-2.1,5.46,5.46,0,0,0-2.26-.75l0,0h0A1.35,1.35,0,0,0,11.81,7c0-.07,0-.14,0-.21-.06-.28-.12-.55-.15-.81a4.38,4.38,0,0,1-.06-.59.34.34,0,0,1,0-.14q0-.31,0-.6a3.68,3.68,0,0,1,0-.47c0-.12,0-.24,0-.35s0-.26.08-.38a2.26,2.26,0,0,1,.1-.35,2.33,2.33,0,0,1,.09-.24l.1-.23a4,4,0,0,1,.84-1.14A.94.94,0,0,1,13,1.38a3.67,3.67,0,0,1,.61-.44l.17-.11c.16-.09.32-.17.48-.24A1.4,1.4,0,0,1,16,2.6v0l0,0L15.73,3l0,.07a1.42,1.42,0,0,0,.44,1.83l0,0,.94.58h0A1.4,1.4,0,0,0,19,5.1v0A1.39,1.39,0,0,1,21.62,5.85Z"/><path class="cls-3" d="M16.61,13.72a5.47,5.47,0,0,1-.68,2.51l-.22.37a5.5,5.5,0,0,1-4,2.44l-.39,0H11a5.56,5.56,0,0,1-2.16-.5,5.68,5.68,0,0,1-1.63-1.15A5.51,5.51,0,0,1,8,9a5.06,5.06,0,0,1,.86-.47,5.4,5.4,0,0,1,2.38-.48,2.22,2.22,0,0,1,.37,0,5.45,5.45,0,0,1,4.27,2.78A5.33,5.33,0,0,1,16.61,13.72Z"/><path class="cls-2" d="M11,17c-.45,0-.45,0-.44-.46s0-.35-.34-.45-.55-.18-.83-.28a.23.23,0,0,1-.14-.31c.06-.2.12-.4.19-.6s.11-.18.26-.1a3.15,3.15,0,0,0,1,.33,1.16,1.16,0,0,0,.64-.07.49.49,0,0,0,.14-.87A2.32,2.32,0,0,0,11,14c-.29-.15-.59-.27-.87-.43a1.46,1.46,0,0,1-.76-.92,1.48,1.48,0,0,1,.87-1.74l.35-.13a.2.2,0,0,0,.15-.21c0-.15,0-.31,0-.46A.18.18,0,0,1,11,9.89h.46c.17,0,.21.06.21.23s0,.25,0,.38a.18.18,0,0,0,.16.19c.25.06.5.13.75.22s.27.16.19.4-.1.32-.16.48-.12.21-.3.12a2.21,2.21,0,0,0-1.15-.24.8.8,0,0,0-.24,0,.41.41,0,0,0-.12.73,3.16,3.16,0,0,0,.53.31c.26.13.53.24.77.38a1.57,1.57,0,0,1,.84,1.63,1.61,1.61,0,0,1-1.2,1.31c-.22.06-.26.11-.26.34s0,.25,0,.38-.08.24-.25.24Z"/><rect class="cls-1" x="5.87" y="16.42" width="1.99" height="6.85" transform="translate(11.39 -0.66) rotate(31.53)"/></g></g></svg>