<svg xmlns="http://www.w3.org/2000/svg" width="59.69" height="59.95" viewBox="0 0 59.69 59.95">
    <defs>
        <style>
            .cls-2{fill:#fff}
        </style>
    </defs>
    <g id="whatsapp_2_">
        <path id="Path_991" fill="#e5e5e5" d="M1.276 59.949a1.276 1.276 0 0 1-1.23-1.612l3.9-14.232a29.727 29.727 0 1 1 26.019 15.352h-.013A29.786 29.786 0 0 1 16.2 56.08L1.6 59.908a1.283 1.283 0 0 1-.323.042zm0 0"/>
        <path id="Path_992" d="M10.894 68.294l4.036-14.739A28.451 28.451 0 1 1 39.583 67.8h-.012a28.426 28.426 0 0 1-13.595-3.462zm15.78-9.1l.864.512A23.614 23.614 0 0 0 39.574 63h.009a23.644 23.644 0 1 0-20.031-11.082l.563.895-2.389 8.723zm0 0" class="cls-2" transform="translate(-9.619 -9.62)"/>
        <path id="Path_993" fill="#00e676" d="M19.344 74.795l3.9-14.229a27.466 27.466 0 1 1 23.8 13.753h-.012A27.46 27.46 0 0 1 33.9 70.977zm0 0" transform="translate(-17.079 -17.114)"/>
        <g id="Group_2042" transform="translate(1.276 1.275)">
            <path id="Path_994" d="M10.894 68.294l4.036-14.739A28.451 28.451 0 1 1 39.583 67.8h-.012a28.426 28.426 0 0 1-13.595-3.462zm15.78-9.1l.864.512A23.614 23.614 0 0 0 39.574 63h.009a23.644 23.644 0 1 0-20.031-11.082l.563.895-2.389 8.723zm0 0" class="cls-2" transform="translate(-10.894 -10.895)"/>
            <path id="Path_995" fill="#fff" fill-rule="evenodd" d="M139.792 142.858c-.532-1.184-1.093-1.207-1.6-1.228-.414-.018-.889-.017-1.362-.017a2.612 2.612 0 0 0-1.9.89 7.969 7.969 0 0 0-2.489 5.929c0 3.5 2.548 6.878 2.9 7.352s4.918 7.881 12.143 10.731c6 2.368 7.227 1.9 8.53 1.779s4.206-1.72 4.8-3.38a5.936 5.936 0 0 0 .415-3.38c-.178-.3-.652-.474-1.363-.829s-4.206-2.076-4.857-2.313-1.126-.355-1.6.356-1.835 2.312-2.25 2.785-.83.535-1.54.179a19.437 19.437 0 0 1-5.716-3.528 21.42 21.42 0 0 1-3.955-4.923c-.414-.711-.007-1.062.312-1.45a21.442 21.442 0 0 0 1.776-2.431 1.31 1.31 0 0 0-.059-1.245c-.172-.355-1.554-3.871-2.185-5.277zm0 0" transform="translate(-118.213 -126.307)"/>
        </g>
    </g>
</svg>
