<svg xmlns="http://www.w3.org/2000/svg" width="18.163" height="23.72" viewBox="0 0 18.163 23.72">
  <g id="Group_1945" data-name="Group 1945" transform="translate(-5.678)">
    <g id="team-lead-01" transform="translate(5.678)">
      <g id="Group_221" data-name="Group 221">
        <g id="Group_220" data-name="Group 220">
          <path id="Path_93" data-name="Path 93" d="M-119.981,430.092l-2.756-1a.447.447,0,0,0-.126-.359l-.883-.927v-1.552c.095-.076.183-.158.271-.24a5.549,5.549,0,0,0,1.747-4.036v-1.242a5.487,5.487,0,0,0,.5-2.3v-5.058a.476.476,0,0,0-.473-.473h-7.076a4.526,4.526,0,0,0-4.522,4.522v1.009a5.508,5.508,0,0,0,.5,2.3V421.8a5.776,5.776,0,0,0,2.024,4.408V427.8l-.883.927a.462.462,0,0,0-.126.36l-2.907,1.06a2.479,2.479,0,0,0-.587.309c.908-.82-.662.6-.675.732a2.525,2.525,0,0,0-.378,1.318v3.639a.476.476,0,0,0,.473.473.476.476,0,0,0,.473-.473V432.5a1.553,1.553,0,0,1,1.022-1.457l3.071-1.116,1.28,1.917a.956.956,0,0,0,.719.429.474.474,0,0,0,.095.006A.994.994,0,0,0-128.5,432l.782-.782v4.926a.476.476,0,0,0,.473.473.476.476,0,0,0,.473-.473v-4.926l.782.782a.983.983,0,0,0,.694.284.474.474,0,0,0,.095-.006,1,1,0,0,0,.719-.429l1.28-1.917,3.071,1.116A1.553,1.553,0,0,1-119.1,432.5v3.639a.476.476,0,0,0,.473.473.476.476,0,0,0,.473-.473V432.5a2.48,2.48,0,0,0-.7-1.728,2.415,2.415,0,0,0-.458-.357A5.37,5.37,0,0,0-119.981,430.092Zm-11.856-8.287v-1.173a.616.616,0,0,0-.044-.208,4.562,4.562,0,0,1-.46-1.987v-1.009a3.581,3.581,0,0,1,3.576-3.576h6.609v4.585a4.475,4.475,0,0,1-.46,1.987.457.457,0,0,0-.044.208v1.35a4.543,4.543,0,0,1-1.451,3.343c-.12.107-.24.214-.366.309l-.006.006a4.549,4.549,0,0,1-3.071.914A4.682,4.682,0,0,1-131.838,421.805Zm2.661,9.523c-.006.006-.013.013-.025.006s-.019-.013-.025-.013l-1.469-2.207.473-.5,2.233,1.526Zm1.924-1.829-2.56-1.753v-.883a5.3,5.3,0,0,0,2.195.631c.126.006.246.013.372.013a5.481,5.481,0,0,0,2.554-.624v.864Zm1.974,1.823c0,.006-.006.013-.025.013a.065.065,0,0,1-.025-.006l-1.186-1.186,2.232-1.526.473.5Z" transform="translate(136.322 -412.9)" fill="#a3a3a3"/>
        </g>
      </g>
      <g id="Group_227" data-name="Group 227" transform="translate(5.052 4.31)">
        <g id="Group_226" data-name="Group 226" transform="translate(0 0)">
          <path id="Path_96" data-name="Path 96" d="M58.289,482.64c-1.791-1.791-5.531-1.444-7.057-1.217a.972.972,0,0,0-.832.965v1.091a.473.473,0,1,0,.946,0v-1.091a.029.029,0,0,1,.025-.031,14.86,14.86,0,0,1,3.071-.151,4.857,4.857,0,0,1,3.172,1.1.476.476,0,0,0,.668,0A.459.459,0,0,0,58.289,482.64Z" transform="translate(-50.4 -481.236)" fill="#a3a3a3"/>
        </g>
      </g>
      <g id="Group_229" data-name="Group 229" transform="translate(3.033 20.749)">
        <g id="Group_228" data-name="Group 228" transform="translate(0 0)">
          <path id="Path_97" data-name="Path 97" d="M18.873,741.9a.476.476,0,0,0-.473.473V744.4a.473.473,0,0,0,.946,0v-2.024A.472.472,0,0,0,18.873,741.9Z" transform="translate(-18.4 -741.9)" fill="#a3a3a3"/>
        </g>
      </g>
      <g id="Group_231" data-name="Group 231" transform="translate(14.158 20.749)">
        <g id="Group_230" data-name="Group 230" transform="translate(0 0)">
          <path id="Path_98" data-name="Path 98" d="M195.273,741.9a.476.476,0,0,0-.473.473V744.4a.473.473,0,0,0,.946,0v-2.024A.472.472,0,0,0,195.273,741.9Z" transform="translate(-194.8 -741.9)" fill="#a3a3a3"/>
        </g>
      </g>
    </g>
  </g>
</svg>
