<svg xmlns="http://www.w3.org/2000/svg" width="30.001" height="29.999" viewBox="0 0 30.001 29.999">
  <g id="workshop" transform="translate(-15.995 -395.996)">
    <path id="Subtraction_4" data-name="Subtraction 4" d="M-8330.006-32.005a14.9,14.9,0,0,1-10.606-4.393A14.907,14.907,0,0,1-8345-47a14.907,14.907,0,0,1,4.393-10.607A14.9,14.9,0,0,1-8330.006-62a14.9,14.9,0,0,1,10.608,4.393A14.9,14.9,0,0,1-8315-47,14.9,14.9,0,0,1-8319.4-36.4,14.9,14.9,0,0,1-8330.006-32.005Zm-2.419-22.854a.427.427,0,0,0-.256.084,5.544,5.544,0,0,0-2.266,5.056,5.544,5.544,0,0,0,3.257,4.484l-.312,5.5a11.3,11.3,0,0,0,2.646.312,11.386,11.386,0,0,0,2.476-.272l-.314-5.537a5.534,5.534,0,0,0,3.257-4.482,5.546,5.546,0,0,0-2.266-5.058.426.426,0,0,0-.255-.084.432.432,0,0,0-.191.045.428.428,0,0,0-.237.379v4.668a.848.848,0,0,1-.318.664l-1.7,1.368a.86.86,0,0,1-.534.187.853.853,0,0,1-.532-.187l-1.7-1.368a.849.849,0,0,1-.316-.664v-4.666a.433.433,0,0,0-.239-.381A.431.431,0,0,0-8332.425-54.859Z" transform="translate(8361 458)" fill="#fff"/>
  </g>
</svg>
