<svg xmlns="http://www.w3.org/2000/svg" xmlns:xlink="http://www.w3.org/1999/xlink" width="34.699" height="34.699" viewBox="0 0 34.699 34.699"><defs><style>.a{fill:url(#a);}</style><linearGradient id="a" x1="0.5" x2="0.5" y2="1" gradientUnits="objectBoundingBox"><stop offset="0" stop-color="#1c6fc4"/><stop offset="1" stop-color="#01b8b6"/></linearGradient></defs><g transform="translate(0 17.349) rotate(-45)"><g transform="translate(0 0)"><path class="a" d="M24.465,4.65a.428.428,0,0,0-.724-.242l-3.3,3.3a.85.85,0,0,1-.694.245l-2.172-.237a.85.85,0,0,1-.754-.754L16.584,4.79a.85.85,0,0,1,.245-.694l3.3-3.3a.428.428,0,0,0-.242-.724A5.53,5.53,0,0,0,13.84,7.517L1.073,18.917a3.219,3.219,0,1,0,4.545,4.545L17.018,10.7A5.53,5.53,0,0,0,24.464,4.65ZM3.383,22.422a1.269,1.269,0,1,1,1.269-1.269A1.269,1.269,0,0,1,3.383,22.422Z"/><g transform="translate(5.635 10.836)"><path class="a" d="M.423,1.142A.423.423,0,0,1,.124.42l.3-.3a.423.423,0,0,1,.6.6l-.3.3A.423.423,0,0,1,.423,1.142Z" transform="translate(0 6.923)"/><path class="a" d="M.423,6.56a.423.423,0,0,1-.3-.722L5.843.119a.423.423,0,0,1,.6.6L.722,6.436A.423.423,0,0,1,.423,6.56Z" transform="translate(1.505 0)"/></g></g></g></svg>