<svg xmlns="http://www.w3.org/2000/svg" viewBox="0 0 365 290.89"><defs><style>.cls-1,.cls-4,.cls-5,.cls-6,.cls-7{fill:#15a2b9;}.cls-1,.cls-2,.cls-5,.cls-6,.cls-7,.cls-8{stroke:#fff;}.cls-1{stroke-linejoin:round;}.cls-2{fill:#fab018;}.cls-2,.cls-5,.cls-6,.cls-7,.cls-8,.cls-9{stroke-miterlimit:10;}.cls-2,.cls-6{stroke-width:3px;}.cls-3,.cls-9{fill:#fff;}.cls-7,.cls-8{stroke-width:0.5px;}.cls-8{fill:none;}.cls-9{stroke:#15a2b9;}</style></defs><title>2</title><g id="Layer_2" data-name="Layer 2"><g id="Layer_1-2" data-name="Layer 1"><path class="cls-1" d="M364.5,126.39v37h-20v126H333.21v-91H283.5v42.48a12.84,12.84,0,0,0,0,6v42.48h-24v-96.5h-132v96.5H20.5v-127H.5v-35h15v-31l13.25,0q1.48,1.74,3.1,3.36c.73.72,1.46,1.43,2.23,2.11.37.35.75.68,1.13,1s.79.66,1.18,1,.82.65,1.23,1l1.19.89c.42.3.83.6,1.25.88s.85.58,1.29.85c.85.56,1.71,1.09,2.61,1.6l1.35.75,1.35.71,1.38.68h0c.45.21.88.41,1.35.61s.63.29,1,.42l1,.4c1.34.53,2.71,1,4.11,1.45.45.14.89.28,1.35.4.92.26,1.83.5,2.77.71l1.29.29.15,0,.94.18,1,.18,1.31.21.54.07.83.1q.51.08,1.05.12l1.45.13,1.21.08,1,.05c.73,0,1.46,0,2.21,0s1.44,0,2.15,0l1.08-.05,1.2-.08,1.28-.11c.35,0,.69-.07,1-.12s.86-.1,1.29-.16.9-.13,1.35-.21l.44-.07,1.35-.25c.32-.06.63-.12,1-.2s.58-.12.87-.19.83-.19,1.25-.3,1-.26,1.5-.41c1.38-.38,2.71-.82,4-1.31.44-.16.89-.32,1.32-.5l1.31-.53,1.14-.5,1.05-.48c.37-.17.72-.35,1.08-.53l.21-.1,1.29-.68c.37-.19.74-.39,1.08-.59a57,57,0,0,0,5.4-3.46l1.22-.91c.4-.3.8-.62,1.19-.94s.8-.63,1.17-1,.77-.66,1.15-1,.64-.56.93-.84c.48-.44.92-.89,1.38-1.34.65-.65,1.29-1.32,1.92-2,.35-.41.73-.82,1.08-1.24l.23-.26c-.61-1.18-1.17-2.32-1.65-3.42-2.69-6.11-3.5-11-3.18-14.91a15.59,15.59,0,0,1,2.95-8.12c4.21-5.71,11.34-7,11.34-7H263.66c40-45,67.34,5.67,67.34,5.67H295.66V96.39H331c-40.34,50.5-67.34,3-67.34,3s-131,.17-135,0-4.16-3-4.16-3v30Z"/><path class="cls-2" d="M28.75,96.41c1,1.16,2,2.28,3.1,3.36Q30.22,98.15,28.75,96.41Z"/><path class="cls-2" d="M283.14,243.89a12.54,12.54,0,0,1,.36-3v6A12.54,12.54,0,0,1,283.14,243.89Z"/><rect class="cls-2" x="332.49" y="198.39" width="0.71" height="91"/><path class="cls-2" d="M116.31,96.56c-.36.42-.73.83-1.09,1.24-.63.68-1.26,1.35-1.91,2-.46.45-.91.9-1.38,1.34L111,102c-.38.34-.76.68-1.15,1s-.77.66-1.17,1-.79.64-1.2.94-.81.61-1.22.91a58.1,58.1,0,0,1-5.39,3.46l-1.08.59c-.43.23-.86.46-1.3.68l-.2.1-1.09.53-1,.48-1.15.5-1.3.53c-.44.18-.88.34-1.32.5-1.33.49-2.67.93-4,1.31-.5.15-1,.28-1.51.41s-.83.21-1.25.3-.58.14-.87.19-.63.14-.95.2l-1.34.25-.45.07c-.44.08-.89.15-1.34.21s-.86.12-1.29.16-.7.09-1,.12L77,116.5l-1.19.08-1.08.05c-.71,0-1.44,0-2.16,0s-1.48,0-2.21,0l-1-.05-1.2-.08-1.46-.13q-.53,0-1-.12l-.82-.1-.54-.07L63,115.87l-1-.18-.94-.18-.15,0-1.29-.29c-.93-.21-1.85-.45-2.76-.71l-1.36-.4c-1.39-.43-2.76-.92-4.1-1.45-.32-.12-.64-.26-1-.4s-.66-.27-1-.42l-1.35-.61h0l-1.38-.68c-.46-.23-.91-.47-1.36-.71L44,109.05c-.89-.51-1.76-1-2.61-1.6-.43-.28-.86-.56-1.28-.85s-.84-.58-1.25-.88l-1.19-.89c-.42-.32-.83-.64-1.23-1s-.79-.65-1.18-1-.77-.66-1.14-1c-.76-.68-1.5-1.39-2.22-2.11-1.07-1.08-2.11-2.2-3.1-3.36h4.09l17.64,0,44.1.07,17.17,0Z"/><path class="cls-3" d="M56.16,51.6c-1.83-1.31-3.64-2.62-5.51-3.87-2.21-1.48-4.46-2.92-6.73-4.33a2.19,2.19,0,0,0-1.52-.35c1,.61,1.92,1.24,2.87,1.88,2.33,1.55,4.59,3.19,6.87,4.82.81.57,1.58,1.21,2.77,2.12a23.87,23.87,0,0,1-2.85.38c-3.34,0-6.68,0-10,0a2.26,2.26,0,0,0,2.41,1.39c3.89-.07,7.77,0,11.65,0a21,21,0,0,0,2.29-.31C57.43,52.57,56.81,52.06,56.16,51.6Zm0,13c-4,0-7.89,0-11.84,0a2.22,2.22,0,0,0-2.31,1.37c3.38,0,6.76,0,10.14,0a26.18,26.18,0,0,1,2.71.33c-3.34,2.49-6.11,4.68-9,6.65a39.91,39.91,0,0,1-3.65,2.13.2.2,0,0,0,.15.09A3.11,3.11,0,0,0,44,74.62c.72-.45,1.31-1.09,2-1.52,1.68-1,3.48-1.82,5.1-2.91,2.33-1.58,4.55-3.34,7.23-5.33A18.92,18.92,0,0,0,56.21,64.59Zm9.11-36V40.71c-2.78-4.2-5.42-8.19-8-12.17h-1L66.73,44.35V28.54ZM66.89,74.3l-.49,0L56.3,89.67h1c2.57-3.9,5.09-7.74,7.62-11.57l.61,0c.22,3.86.2,7.72.17,11.62H67C66.94,84.49,67.18,79.38,66.89,74.3ZM89,28.4c-2.57,3.89-5.34,7.53-7.5,11.54-.75-.87-1.2-6.25-1.18-11.54H79.17c-.71,4.85-.34,14.26.57,15.33,2.79-5.18,6.87-9.61,9.46-15.33ZM79.31,74c-.7,5.56-.22,10.61-.36,15.79h1.59A86.2,86.2,0,0,1,81,77.67c2.68,4.25,5.35,8.15,7.88,12.11h.41C86.24,84.3,82.8,79.51,79.31,74ZM103,42.85,87.61,53l.09.41H103V51.94H91.47l-.12-.5L103,43.78Zm.12,23.36V64.8H87.78l-.18.5,15.57,10.19v-.92L91.34,66.84c.08-.21.15-.42.22-.63Z"/><path class="cls-4" d="M125.81,49.81c-.52-2.86-1.15-5.7-1.73-8.54a2.78,2.78,0,0,0-.37-.64c-.8-1.65-1.61-3.3-2.4-5a26.45,26.45,0,0,0-1.92-4.22c-1.71-2.49-3.81-4.73-5.52-7.23-2.71-4-6.52-6.71-10.27-9.45a52,52,0,0,0-8.73-4.71C91.46,8.5,88,6.72,84.43,5.93a79.89,79.89,0,0,0-14-1.47c-2.39-.09-4.83.73-7.22,1.2-2.86.55-5.69,1.16-8.53,1.77a3.43,3.43,0,0,0-.64.36c-1.67.8-3.33,1.6-5,2.37a22.43,22.43,0,0,0-4.22,1.91c-2.94,2.17-5.69,4.61-8.53,6.9-6.33,5.12-10.66,11.77-14.14,19a37.79,37.79,0,0,0-3,9,75.58,75.58,0,0,0-1.41,13,56.92,56.92,0,0,0,1.31,10.5A25.22,25.22,0,0,0,20.81,77a91.1,91.1,0,0,0,5.62,10.5c2,3.1,3.88,6.37,6.42,8.94.23.25.48.49.73.72,3.27,3,6.37,6.38,10.69,8.19,2.48,1,4.6,3,7.08,4a44.07,44.07,0,0,0,9,2.94c3.94.77,8,1,12.56,1.52,2.65-.37,5.9-.76,9.12-1.32,2.78-.48,5.53-1.15,8.28-1.76.22,0,.39-.29.6-.4l4.77-2.3c2.42-1.19,5.32-1.89,7.15-3.68,2.83-2.76,6.1-5,8.92-7.81h0c.54-.54,1.06-1.1,1.56-1.7s1.06-1.3,1.56-2c-2.69-6.11-3.5-11-3.18-14.91a15.59,15.59,0,0,1,2.95-8.12c4.21-5.71,11.34-7,11.34-7h.75c.16-1.71.27-3.42.31-5.12C127.14,55.13,126.31,52.45,125.81,49.81ZM79.31,74c3.48,5.52,6.93,10.31,10,15.79H78.95C79.08,84.6,78.6,79.55,79.31,74ZM67,89.67H56.29c3.46-5.25,6.79-10.29,10.1-15.33l.5,0C67.18,79.38,66.93,84.49,67,89.67ZM42.24,75.06a2.1,2.1,0,0,1-.45-1.14c-.06-2.27-.13-4.56,0-6.82a3.26,3.26,0,0,1,.25-1.16,2.21,2.21,0,0,1,2.31-1.37c3.94,0,7.88,0,11.84,0a18.79,18.79,0,0,1,2.16.27c-2.67,2-4.89,3.75-7.23,5.33-1.61,1.09-3.41,1.91-5.1,2.91-.73.43-1.31,1.07-2,1.52a3.09,3.09,0,0,1-1.61.53A.19.19,0,0,1,42.24,75.06ZM66.73,28.54V44.35L56.28,28.54ZM42.37,43.05h0a2.18,2.18,0,0,1,1.52.35c2.27,1.41,4.52,2.85,6.73,4.33,1.88,1.25,3.69,2.56,5.52,3.87.65.46,1.27,1,2.21,1.7a20.79,20.79,0,0,1-2.29.31c-3.87,0-7.75,0-11.65,0A2.24,2.24,0,0,1,42,52.25,3.38,3.38,0,0,1,41.78,51c-.1-2.21,0-4.42,0-6.63C41.81,43.88,42.06,43.15,42.37,43.05Zm17,16a13.09,13.09,0,0,1,13.35-13c6.82.11,13.42,6,12.61,13C86,66.38,79.66,72.26,72,72.15A13.17,13.17,0,0,1,59.33,59ZM103,42.85V53.36H87.7c0-.14-.06-.27-.1-.41Zm-23.3.88c-.91-1.07-1.28-10.48-.58-15.33h10C86.6,34.12,82.53,38.55,79.74,43.73ZM87.6,65.3c.06-.16.11-.33.18-.5h15.38V75.49Z"/><path class="cls-5" d="M72.6,1.5A57.57,57.57,0,0,0,15,59.08c0,.89,0,1.78.06,2.66,0,.23,0,.47,0,.71l.06,1.06c0,.46.07.91.13,1.37a.56.56,0,0,0,0,.18l.12,1.12A55.9,55.9,0,0,0,17.1,74.5c.08.29.17.58.25.86.17.57.33,1.13.52,1.68.13.37.25.73.38,1.09s.28.8.43,1.19q.66,1.77,1.44,3.48c.17.38.34.76.52,1.14.36.75.73,1.49,1.14,2.23.18.36.38.72.59,1.07s.41.74.63,1.1.35.61.54.91c.29.47.58.93.89,1.4l.57.84c.23.34.46.68.71,1,.47.65.95,1.29,1.43,1.92a2,2,0,0,1,.15.2c.49.61,1,1.2,1.46,1.78q1.48,1.74,3.1,3.36c.73.72,1.46,1.43,2.23,2.11.37.34.75.67,1.13,1l1.18,1c.4.33.82.65,1.23,1l1.19.89,1.25.88,1.29.85c.85.56,1.71,1.09,2.61,1.6l1.35.75,1.35.71,1.38.68h0c.45.21.88.41,1.35.61s.63.29,1,.42l1,.4c1.34.53,2.71,1,4.11,1.45l1.35.4c.92.26,1.83.5,2.77.71l1.29.29.15,0,.94.18,1,.18,1.31.21.54.07.83.1q.51.08,1.05.12l1.45.13,1.21.08,1,.05c.73,0,1.46,0,2.21,0s1.44,0,2.15,0l1.08-.05,1.2-.08,1.28-.11c.35,0,.69-.07,1-.12s.86-.1,1.29-.16.9-.13,1.35-.21l.44-.07,1.35-.25c.32-.06.63-.12,1-.2s.58-.12.87-.19.83-.19,1.25-.3,1-.26,1.5-.41c1.38-.38,2.71-.82,4-1.31.44-.16.89-.32,1.32-.5l1.31-.53,1.14-.5,1.05-.48c.37-.17.72-.35,1.08-.53l.21-.1,1.29-.68c.37-.19.73-.39,1.08-.59a57,57,0,0,0,5.4-3.46l1.22-.91c.4-.3.8-.62,1.19-.94s.8-.64,1.17-1,.77-.66,1.15-1l.93-.84c.48-.44.92-.89,1.38-1.34.65-.65,1.29-1.32,1.92-2,.35-.41.73-.82,1.08-1.24l.23-.26c-.61-1.18-1.17-2.32-1.65-3.42-2.69-6.11-3.5-11-3.18-14.91-.5,1-1,2-1.57,2.94q-.34.59-.69,1.14c-.31.5-.64,1-1,1.47s-.47.69-.72,1l-.38.52-.64.83c-.21.27-.42.54-.65.81s-.44.53-.67.79-.45.52-.69.78l-.46.49-.8.84c-.32.31-.63.62-.94.91s-.46.44-.69.66c-.56.51-1.14,1-1.73,1.49l-.58.46c-.31.26-.63.5-1,.75s-.85.62-1.29.92-.86.59-1.29.87c0,0,0,0,0,0q-.69.44-1.38.84c-.4.24-.8.47-1.21.69l-1,.54-.23.12-1.27.61c-.85.4-1.73.77-2.6,1.11l-1.34.49-1.35.45-.06,0-1.32.38c-.45.13-.93.25-1.39.36s-.94.22-1.4.32h0c-.46.09-.92.18-1.39.25s-.82.14-1.25.2l-.59.08c-.71.09-1.44.17-2.19.22h0c-.27,0-.52,0-.79,0s-.67,0-1,.05q-.75,0-1.5,0c-.5,0-1,0-1.52,0l-1,0c-.29,0-.58,0-.87-.06H69.2c-.37,0-.74-.05-1.1-.09s-1-.11-1.46-.18-.83-.12-1.25-.19-1.1-.19-1.64-.3l-1.23-.28c-.53-.12-1.06-.26-1.59-.41-.93-.25-1.83-.54-2.73-.86-.45-.16-.91-.32-1.35-.5-.89-.34-1.77-.71-2.61-1.12-.43-.2-.87-.4-1.28-.62l-1.3-.69c-.38-.21-.79-.44-1.17-.67s-.79-.48-1.18-.73-.67-.42-1-.64L48,94.85l-1-.69-.84-.63c-.68-.52-1.35-1.06-2-1.62l-.68-.61c-.61-.55-1.21-1.12-1.79-1.7-.3-.31-.61-.62-.9-.94-.65-.7-1.28-1.42-1.88-2.17-.27-.33-.54-.66-.79-1s-.56-.73-.83-1.11-.48-.67-.71-1a1.85,1.85,0,0,0-.14-.19l-.69-1.09c-.25-.39-.49-.79-.73-1.19s-.46-.8-.67-1.21-.44-.83-.64-1.24-.34-.7-.52-1.05-.44-1-.65-1.49c-.36-.85-.69-1.71-1-2.58-.15-.46-.31-.93-.46-1.4s-.27-.9-.39-1.36a42.9,42.9,0,0,1-1.09-5.23c0-.22-.06-.45-.08-.67-.11-.76-.19-1.53-.23-2.3,0-.33-.06-.66-.07-1v-.12c0-.29,0-.59,0-.89s0-.85,0-1.28a43.42,43.42,0,0,1,86.84,0c0,.44,0,.88,0,1.32s0,1.13-.09,1.69c0,.38-.06.75-.1,1.13s-.06.67-.1,1-.07.52-.09.77-.09.61-.14.91c-.07.45-.15.89-.23,1.33s-.17.88-.27,1.31-.2.87-.32,1.3c4.21-5.71,11.34-7,11.34-7h4.06c0-.55.06-1.11.08-1.67s0-1.42,0-2.14A57.59,57.59,0,0,0,72.6,1.5Z"/><path class="cls-6" d="M72.6,1.5A57.57,57.57,0,0,0,15,59.08c0,.89,0,1.78.06,2.66,0,.23,0,.47,0,.71l.06,1.06c0,.46.07.91.13,1.37a.56.56,0,0,0,0,.18l.12,1.12A55.9,55.9,0,0,0,17.1,74.5c.08.29.17.58.25.86.17.57.33,1.13.52,1.68.13.37.25.73.38,1.09s.28.8.43,1.19q.66,1.77,1.44,3.48c.17.38.34.76.52,1.14.36.75.73,1.49,1.14,2.23.18.36.38.72.59,1.07s.41.74.63,1.1.35.61.54.91c.29.47.58.93.89,1.4l.57.84c.23.34.46.68.71,1,.47.65.95,1.29,1.43,1.92a2,2,0,0,1,.15.2c.49.61,1,1.2,1.46,1.78,1,1.16,2,2.28,3.1,3.36.73.72,1.46,1.43,2.23,2.11.37.34.75.67,1.13,1l1.18,1c.4.33.82.65,1.23,1l1.19.89,1.25.88,1.29.85c.85.56,1.71,1.09,2.61,1.6l1.35.75,1.35.71,1.38.68h0c.45.21.88.41,1.35.61s.63.29,1,.42l1,.4c1.34.53,2.71,1,4.11,1.45l1.35.4c.92.26,1.83.5,2.77.71l1.29.29.15,0,.94.18,1,.18,1.31.21.54.07.83.1q.51.08,1.05.12l1.45.13,1.21.08,1,.05c.73,0,1.46,0,2.21,0s1.44,0,2.15,0l1.08-.05,1.2-.08,1.28-.11c.35,0,.69-.07,1-.12s.86-.1,1.29-.16.9-.13,1.35-.21l.44-.07,1.35-.25c.32-.06.63-.12,1-.2s.58-.12.87-.19.83-.19,1.25-.3,1-.26,1.5-.41c1.38-.38,2.71-.82,4-1.31.44-.16.89-.32,1.32-.5l1.31-.53,1.14-.5,1.05-.48c.37-.17.72-.35,1.08-.53l.21-.1,1.29-.68c.37-.19.73-.39,1.08-.59a57,57,0,0,0,5.4-3.46l1.22-.91c.4-.3.8-.62,1.19-.94s.8-.64,1.17-1,.77-.66,1.15-1l.93-.84c.48-.44.92-.89,1.38-1.34.65-.65,1.29-1.32,1.92-2,.35-.41.73-.82,1.08-1.24l.23-.26c-.61-1.18-1.17-2.32-1.65-3.42-2.69-6.11-3.5-11-3.18-14.91-.5,1-1,2-1.57,2.94q-.34.59-.69,1.14c-.31.5-.64,1-1,1.47s-.47.69-.72,1l-.38.52-.64.83c-.21.27-.42.54-.65.81s-.44.53-.67.79-.45.52-.69.78l-.46.49c-.25.29-.53.57-.8.84s-.63.62-.94.91-.46.44-.69.66c-.56.51-1.14,1-1.73,1.49l-.58.46c-.31.26-.63.5-1,.75s-.85.62-1.29.92-.86.59-1.29.87c0,0,0,0,0,0q-.69.44-1.38.84c-.4.24-.8.47-1.21.69l-1,.54-.23.12-1.27.61c-.85.4-1.73.77-2.6,1.11l-1.34.49-1.35.45-.06,0-1.32.38c-.45.13-.93.25-1.39.36l-1.4.32h0c-.46.09-.92.18-1.39.25s-.82.14-1.25.2l-.59.08c-.71.09-1.44.17-2.19.22h0c-.27,0-.52,0-.79,0s-.67,0-1,.05q-.75,0-1.5,0c-.5,0-1,0-1.52,0l-1,0c-.29,0-.58,0-.87-.06H69.2c-.37,0-.74-.05-1.1-.09s-1-.11-1.46-.18-.83-.12-1.25-.19-1.1-.19-1.64-.3l-1.23-.28c-.53-.12-1.06-.26-1.59-.41-.93-.26-1.83-.54-2.73-.86l-1.35-.5c-.89-.34-1.77-.72-2.61-1.12-.43-.2-.87-.4-1.28-.62l-1.3-.69c-.38-.21-.79-.44-1.17-.67s-.79-.48-1.18-.73-.67-.42-1-.64L48,94.85l-1-.69-.84-.63c-.68-.52-1.35-1.06-2-1.62l-.68-.61c-.61-.55-1.21-1.12-1.79-1.7-.3-.31-.61-.62-.9-.94-.65-.7-1.28-1.42-1.88-2.17-.27-.33-.54-.66-.79-1s-.56-.73-.83-1.11-.48-.67-.71-1a1.85,1.85,0,0,0-.14-.19l-.69-1.09c-.25-.39-.49-.79-.73-1.19s-.46-.8-.67-1.21-.44-.83-.64-1.24-.34-.7-.52-1.05-.44-1-.65-1.49c-.36-.85-.69-1.71-1-2.58-.15-.46-.31-.93-.46-1.4s-.27-.9-.39-1.36a42.9,42.9,0,0,1-1.09-5.23c0-.22-.06-.45-.08-.67-.11-.76-.19-1.53-.23-2.3,0-.33-.06-.66-.07-1v-.12c0-.29,0-.59,0-.89s0-.85,0-1.28a43.42,43.42,0,0,1,86.84,0c0,.44,0,.88,0,1.32s0,1.13-.09,1.69c0,.38-.06.75-.1,1.13s-.06.67-.1,1-.07.52-.09.77-.09.61-.14.91c-.07.45-.15.89-.23,1.33s-.17.88-.27,1.31-.2.87-.32,1.3c4.21-5.71,11.34-7,11.34-7h4.06c0-.55.06-1.11.08-1.67s0-1.42,0-2.14A57.59,57.59,0,0,0,72.6,1.5Z"/><path class="cls-7" d="M237.12,260.77l-10.88,18q0-1.28,0-2.56c0-.07-.06-.13-.14-.3q-33,1.55-66.17,0c0,.95,0,1.79,0,2.63,0,4.48-2.74,7.47-7.2,7.65-3.4.14-6.82.07-10.22-.08a6.83,6.83,0,0,1-6.29-6.39c-.12-3.37,0-6.75,0-10.12a1.36,1.36,0,0,1,.19-.85c1-1.11.49-2.34.37-3.56-.17-1.72-.32-3.45-.48-5.27,2.31.16,4.47.33,6.64.47,5.43.35,10.87.81,16.3,1,10.85.41,21.7.88,32.56,1,9.15.06,18.3-.34,27.45-.65C225.15,261.48,231.13,261.13,237.12,260.77Z"/><path class="cls-7" d="M242,260.27l-5.9,25.88-3,0a7.12,7.12,0,0,1-6.88-7.4l11.81-18A30,30,0,0,0,242,260.27Z"/><path class="cls-7" d="M248.88,282.83h0a6.42,6.42,0,0,1-5.44,3.25c-2.44.09-4.89.09-7.33.07l7.26-26.09c.56-.07,1.25-.14,2.17-.21v.22a2.89,2.89,0,0,0,.41,1.65h0Z"/><path class="cls-7" d="M250,269v11.57c-.2.46-.39.93-.6,1.38a9.93,9.93,0,0,1-.49.9l-.68-15.65C248.7,267.81,249.49,268.41,250,269Z"/><path class="cls-7" d="M242.45,252l-2.92,4.82c-5.63.2-11.21-.21-16.86.12-.33,0-.66,0-1.08,0a14.67,14.67,0,0,1,.67-5.79,1.22,1.22,0,0,1,.91-.58c7.58-.65,11.09,1.15,17.55.41h0Z"/><path class="cls-7" d="M244,251.7l-1.12,4.91-1.19.07-1,.06Z"/><path class="cls-7" d="M245.23,256.47l-.88.08.59-2.13Z"/><path class="cls-7" d="M246.78,236.89c-2-.74-3-2.34-4.06-3.93a4.9,4.9,0,0,0-2.35-1.91L245,242.74a6,6,0,0,0,2.43-1.64l.77-2.59A3.26,3.26,0,0,0,246.78,236.89Zm-7.62-6.14-.23,0c-1.73-.17-3.47-.31-5.2-.41-.68,0-1-.32-1-1.07,1.76,0,3.46,0,5.16,0a3.77,3.77,0,0,0,.89-.13l-1-4.61c-2,0-4-.06-6,0a2.19,2.19,0,0,1-2-1.12c-2.44-4.43-5-8.82-7.5-13.21a5.36,5.36,0,0,0-4.1-2.74c-3.81-.5-7.63-1.08-11.46-1.35a144.63,144.63,0,0,0-22.21-.26c-5.32.44-10.63,1-15.94,1.53a6.2,6.2,0,0,0-4.8,3.1c-2.49,4.37-5,8.74-7.41,13.13a1.79,1.79,0,0,1-1.61.92c-2.23-.05-4.46,0-6.68,0a2.28,2.28,0,0,0-2.35,2.19,2.24,2.24,0,0,0,2.13,2.49,19.62,19.62,0,0,0,2.11.07h3.5l.14.42a3.75,3.75,0,0,1-1.14.6c-1.1.14-2.21.19-3.33.22-2.61.08-4.84.79-6.25,3.27a5.38,5.38,0,0,1-2.21,2.4c-2.9,1.15-3.28,3.63-3.84,6.17.43.13.78.26,1.13.35,6.59,1.66,13.36,2.13,20.07,2.91,1.43.17,2.88.16,4.32.26,3.37.22,5.67,2.31,6.51,6.09.37,1.68.46,3.42.69,5.14,5.4.8,43.54.76,47.36-.07,0-.56,0-1.15,0-1.73a16.45,16.45,0,0,1,1.33-6.36,5.07,5.07,0,0,1,4.25-3.07c1.15-.12,3.65-.25,4.8-.38l3.48-.42-34.86-20.57a184.62,184.62,0,0,0-36.11,3,7.87,7.87,0,0,1,.39-1c2.2-4.07,4.52-8.07,6.58-12.2,1.15-2.3,3.15-2.51,5.18-2.67l1.89-.15-6.22-3.67,6.85,3.62c5.58-.44,11.17-.88,16.76-1,4.73-.14,9.48.17,14.21.44,3.54.2,7.07.67,10.61,1a3.19,3.19,0,0,1,2.74,1.58q3.73,6.75,7.45,13.5a2.84,2.84,0,0,1,.18.64,185.06,185.06,0,0,0-27-2.95l37.33,19.73,1.93-.27c1.36-.2,2.42-.35,3.41-.54ZM176,248.31a6.93,6.93,0,0,1,1.22-.06h15.89c5.33,0,10.67,0,16,0a4.08,4.08,0,0,1,1.88.47,1.78,1.78,0,0,1,.9,2.19,4.41,4.41,0,0,1-1.46,1.78,2.69,2.69,0,0,1-1.5.24q-15.89,0-31.78,0a5.16,5.16,0,0,1-1.42-.2,2.21,2.21,0,0,1-1.6-2.27A2.3,2.3,0,0,1,176,248.31Zm64.47-21.52c0-1.41-1.06-2.29-2.71-2.3l1.7,4.31A2.19,2.19,0,0,0,240.48,226.79Z"/><path class="cls-8" d="M211.91,250.93a4.41,4.41,0,0,1-1.46,1.78,2.69,2.69,0,0,1-1.5.24q-15.89,0-31.78,0a5.16,5.16,0,0,1-1.42-.2,2.21,2.21,0,0,1-1.6-2.27,2.3,2.3,0,0,1,1.87-2.18,6.93,6.93,0,0,1,1.22-.06h15.89c5.33,0,10.67,0,16,0a4.08,4.08,0,0,1,1.88.47A1.78,1.78,0,0,1,211.91,250.93Z"/><path class="cls-7" d="M164.81,257l-28.57-1.79v-8.06c.52.1.89.18,1.28.24,4.7.74,9.4,1.57,14.12,2.19,3.48.46,7,.64,10.49.94a2,2,0,0,1,1.83,1.68C164.3,253.71,164.51,255.24,164.81,257Z"/><rect class="cls-5" x="284.2" y="198.39" width="49" height="91"/><path class="cls-9" d="M308.7,243.89A12.79,12.79,0,0,1,284.2,249a11.9,11.9,0,0,1-.71-2.11,12.85,12.85,0,0,1,0-6,11.9,11.9,0,0,1,.71-2.11,12.79,12.79,0,0,1,24.5,5.13Z"/></g></g></svg>